  0
SECTION
  2
BLOCKS
  0
ENDSEC
  0
SECTION
  2
ENTITIES
  0
LINE
  8
0
 10
32.9369
 20
-59.4114
 11
33.5451
 21
-59.2553
  0
LINE
  8
0
 10
33.5451
 20
-59.2553
 11
34.1289
 21
-59.0241
  0
LINE
  8
0
 10
34.1289
 20
-59.0241
 11
34.6791
 21
-58.7216
  0
LINE
  8
0
 10
34.6791
 20
-58.7216
 11
35.1871
 21
-58.3526
  0
LINE
  8
0
 10
35.1871
 20
-58.3526
 11
35.6448
 21
-57.9227
  0
LINE
  8
0
 10
35.6448
 20
-57.9227
 11
36.0451
 21
-57.4389
  0
LINE
  8
0
 10
36.0451
 20
-57.4389
 11
36.3815
 21
-56.9088
  0
LINE
  8
0
 10
36.3815
 20
-56.9088
 11
36.6489
 21
-56.3406
  0
LINE
  8
0
 10
36.6489
 20
-56.3406
 11
36.8429
 21
-55.7434
  0
LINE
  8
0
 10
36.8429
 20
-55.7434
 11
36.9606
 21
-55.1267
  0
LINE
  8
0
 10
36.9606
 20
-55.1267
 11
37
 21
-54.5
  0
LINE
  8
0
 10
37
 20
-54.5
 11
37
 21
54.5
  0
LINE
  8
0
 10
37
 20
54.5
 11
36.9606
 21
55.1267
  0
LINE
  8
0
 10
36.9606
 20
55.1267
 11
36.8429
 21
55.7434
  0
LINE
  8
0
 10
36.8429
 20
55.7434
 11
36.6489
 21
56.3406
  0
LINE
  8
0
 10
36.6489
 20
56.3406
 11
36.3815
 21
56.9088
  0
LINE
  8
0
 10
36.3815
 20
56.9088
 11
36.0451
 21
57.4389
  0
LINE
  8
0
 10
36.0451
 20
57.4389
 11
35.6448
 21
57.9227
  0
LINE
  8
0
 10
35.6448
 20
57.9227
 11
35.1871
 21
58.3526
  0
LINE
  8
0
 10
35.1871
 20
58.3526
 11
34.6791
 21
58.7216
  0
LINE
  8
0
 10
34.6791
 20
58.7216
 11
34.1289
 21
59.0241
  0
LINE
  8
0
 10
34.1289
 20
59.0241
 11
33.5451
 21
59.2553
  0
LINE
  8
0
 10
33.5451
 20
59.2553
 11
32.9369
 21
59.4114
  0
LINE
  8
0
 10
32.9369
 20
59.4114
 11
32.3139
 21
59.4901
  0
LINE
  8
0
 10
32.3139
 20
59.4901
 11
-32.3139
 21
59.4901
  0
LINE
  8
0
 10
-32.3139
 20
59.4901
 11
-32.9369
 21
59.4114
  0
LINE
  8
0
 10
-32.9369
 20
59.4114
 11
-33.5451
 21
59.2553
  0
LINE
  8
0
 10
-33.5451
 20
59.2553
 11
-34.1289
 21
59.0241
  0
LINE
  8
0
 10
-34.1289
 20
59.0241
 11
-34.6791
 21
58.7216
  0
LINE
  8
0
 10
-34.6791
 20
58.7216
 11
-35.1871
 21
58.3526
  0
LINE
  8
0
 10
-35.1871
 20
58.3526
 11
-35.6448
 21
57.9227
  0
LINE
  8
0
 10
-35.6448
 20
57.9227
 11
-36.0451
 21
57.4389
  0
LINE
  8
0
 10
-36.0451
 20
57.4389
 11
-36.3815
 21
56.9088
  0
LINE
  8
0
 10
-36.3815
 20
56.9088
 11
-36.6489
 21
56.3406
  0
LINE
  8
0
 10
-36.6489
 20
56.3406
 11
-36.8429
 21
55.7434
  0
LINE
  8
0
 10
-36.8429
 20
55.7434
 11
-36.9606
 21
55.1267
  0
LINE
  8
0
 10
-36.9606
 20
55.1267
 11
-37
 21
54.5
  0
LINE
  8
0
 10
-37
 20
54.5
 11
-37
 21
-54.5
  0
LINE
  8
0
 10
-37
 20
-54.5
 11
-36.9606
 21
-55.1267
  0
LINE
  8
0
 10
-36.9606
 20
-55.1267
 11
-36.8429
 21
-55.7434
  0
LINE
  8
0
 10
-36.8429
 20
-55.7434
 11
-36.6489
 21
-56.3406
  0
LINE
  8
0
 10
-36.6489
 20
-56.3406
 11
-36.3815
 21
-56.9088
  0
LINE
  8
0
 10
-36.3815
 20
-56.9088
 11
-36.0451
 21
-57.4389
  0
LINE
  8
0
 10
-36.0451
 20
-57.4389
 11
-35.6448
 21
-57.9227
  0
LINE
  8
0
 10
-35.6448
 20
-57.9227
 11
-35.1871
 21
-58.3526
  0
LINE
  8
0
 10
-35.1871
 20
-58.3526
 11
-34.6791
 21
-58.7216
  0
LINE
  8
0
 10
-34.6791
 20
-58.7216
 11
-34.1289
 21
-59.0241
  0
LINE
  8
0
 10
-34.1289
 20
-59.0241
 11
-33.5451
 21
-59.2553
  0
LINE
  8
0
 10
-33.5451
 20
-59.2553
 11
-32.9369
 21
-59.4114
  0
LINE
  8
0
 10
-32.9369
 20
-59.4114
 11
-32.3139
 21
-59.4901
  0
LINE
  8
0
 10
-32.3139
 20
-59.4901
 11
32.3139
 21
-59.4901
  0
LINE
  8
0
 10
32.3139
 20
-59.4901
 11
32.9369
 21
-59.4114
  0
LINE
  8
0
 10
29.9058
 20
51.003
 11
29.7189
 21
51.0266
  0
LINE
  8
0
 10
29.7189
 20
51.0266
 11
29.5365
 21
51.0734
  0
LINE
  8
0
 10
29.5365
 20
51.0734
 11
29.3613
 21
51.1428
  0
LINE
  8
0
 10
29.3613
 20
51.1428
 11
29.1963
 21
51.2335
  0
LINE
  8
0
 10
29.1963
 20
51.2335
 11
29.0439
 21
51.3442
  0
LINE
  8
0
 10
29.0439
 20
51.3442
 11
28.9065
 21
51.4732
  0
LINE
  8
0
 10
28.9065
 20
51.4732
 11
28.7865
 21
51.6183
  0
LINE
  8
0
 10
28.7865
 20
51.6183
 11
28.6855
 21
51.7774
  0
LINE
  8
0
 10
28.6855
 20
51.7774
 11
28.6053
 21
51.9478
  0
LINE
  8
0
 10
28.6053
 20
51.9478
 11
28.5471
 21
52.127
  0
LINE
  8
0
 10
28.5471
 20
52.127
 11
28.5118
 21
52.312
  0
LINE
  8
0
 10
28.5118
 20
52.312
 11
28.5
 21
52.5
  0
LINE
  8
0
 10
28.5
 20
52.5
 11
28.5118
 21
52.688
  0
LINE
  8
0
 10
28.5118
 20
52.688
 11
28.5471
 21
52.873
  0
LINE
  8
0
 10
28.5471
 20
52.873
 11
28.6053
 21
53.0522
  0
LINE
  8
0
 10
28.6053
 20
53.0522
 11
28.6855
 21
53.2226
  0
LINE
  8
0
 10
28.6855
 20
53.2226
 11
28.7865
 21
53.3817
  0
LINE
  8
0
 10
28.7865
 20
53.3817
 11
28.9065
 21
53.5268
  0
LINE
  8
0
 10
28.9065
 20
53.5268
 11
29.0439
 21
53.6558
  0
LINE
  8
0
 10
29.0439
 20
53.6558
 11
29.1963
 21
53.7665
  0
LINE
  8
0
 10
29.1963
 20
53.7665
 11
29.3613
 21
53.8572
  0
LINE
  8
0
 10
29.3613
 20
53.8572
 11
29.5365
 21
53.9266
  0
LINE
  8
0
 10
29.5365
 20
53.9266
 11
29.7189
 21
53.9734
  0
LINE
  8
0
 10
29.7189
 20
53.9734
 11
29.9058
 21
53.997
  0
LINE
  8
0
 10
29.9058
 20
53.997
 11
30.0942
 21
53.997
  0
LINE
  8
0
 10
30.0942
 20
53.997
 11
30.2811
 21
53.9734
  0
LINE
  8
0
 10
30.2811
 20
53.9734
 11
30.4635
 21
53.9266
  0
LINE
  8
0
 10
30.4635
 20
53.9266
 11
30.6387
 21
53.8572
  0
LINE
  8
0
 10
30.6387
 20
53.8572
 11
30.8037
 21
53.7665
  0
LINE
  8
0
 10
30.8037
 20
53.7665
 11
30.9561
 21
53.6558
  0
LINE
  8
0
 10
30.9561
 20
53.6558
 11
31.0934
 21
53.5268
  0
LINE
  8
0
 10
31.0934
 20
53.5268
 11
31.2135
 21
53.3817
  0
LINE
  8
0
 10
31.2135
 20
53.3817
 11
31.3145
 21
53.2226
  0
LINE
  8
0
 10
31.3145
 20
53.2226
 11
31.3947
 21
53.0522
  0
LINE
  8
0
 10
31.3947
 20
53.0522
 11
31.4529
 21
52.873
  0
LINE
  8
0
 10
31.4529
 20
52.873
 11
31.4882
 21
52.688
  0
LINE
  8
0
 10
31.4882
 20
52.688
 11
31.5
 21
52.5
  0
LINE
  8
0
 10
31.5
 20
52.5
 11
31.4882
 21
52.312
  0
LINE
  8
0
 10
31.4882
 20
52.312
 11
31.4529
 21
52.127
  0
LINE
  8
0
 10
31.4529
 20
52.127
 11
31.3947
 21
51.9478
  0
LINE
  8
0
 10
31.3947
 20
51.9478
 11
31.3145
 21
51.7774
  0
LINE
  8
0
 10
31.3145
 20
51.7774
 11
31.2135
 21
51.6183
  0
LINE
  8
0
 10
31.2135
 20
51.6183
 11
31.0934
 21
51.4732
  0
LINE
  8
0
 10
31.0934
 20
51.4732
 11
30.9561
 21
51.3442
  0
LINE
  8
0
 10
30.9561
 20
51.3442
 11
30.8037
 21
51.2335
  0
LINE
  8
0
 10
30.8037
 20
51.2335
 11
30.6387
 21
51.1428
  0
LINE
  8
0
 10
30.6387
 20
51.1428
 11
30.4635
 21
51.0734
  0
LINE
  8
0
 10
30.4635
 20
51.0734
 11
30.2811
 21
51.0266
  0
LINE
  8
0
 10
30.2811
 20
51.0266
 11
30.0942
 21
51.003
  0
LINE
  8
0
 10
30.0942
 20
51.003
 11
29.9058
 21
51.003
  0
LINE
  8
0
 10
-30.0942
 20
51.003
 11
-30.2811
 21
51.0266
  0
LINE
  8
0
 10
-30.2811
 20
51.0266
 11
-30.4635
 21
51.0734
  0
LINE
  8
0
 10
-30.4635
 20
51.0734
 11
-30.6387
 21
51.1428
  0
LINE
  8
0
 10
-30.6387
 20
51.1428
 11
-30.8037
 21
51.2335
  0
LINE
  8
0
 10
-30.8037
 20
51.2335
 11
-30.9561
 21
51.3442
  0
LINE
  8
0
 10
-30.9561
 20
51.3442
 11
-31.0934
 21
51.4732
  0
LINE
  8
0
 10
-31.0934
 20
51.4732
 11
-31.2135
 21
51.6183
  0
LINE
  8
0
 10
-31.2135
 20
51.6183
 11
-31.3145
 21
51.7774
  0
LINE
  8
0
 10
-31.3145
 20
51.7774
 11
-31.3947
 21
51.9478
  0
LINE
  8
0
 10
-31.3947
 20
51.9478
 11
-31.4529
 21
52.127
  0
LINE
  8
0
 10
-31.4529
 20
52.127
 11
-31.4882
 21
52.312
  0
LINE
  8
0
 10
-31.4882
 20
52.312
 11
-31.5
 21
52.5
  0
LINE
  8
0
 10
-31.5
 20
52.5
 11
-31.4882
 21
52.688
  0
LINE
  8
0
 10
-31.4882
 20
52.688
 11
-31.4529
 21
52.873
  0
LINE
  8
0
 10
-31.4529
 20
52.873
 11
-31.3947
 21
53.0522
  0
LINE
  8
0
 10
-31.3947
 20
53.0522
 11
-31.3145
 21
53.2226
  0
LINE
  8
0
 10
-31.3145
 20
53.2226
 11
-31.2135
 21
53.3817
  0
LINE
  8
0
 10
-31.2135
 20
53.3817
 11
-31.0934
 21
53.5268
  0
LINE
  8
0
 10
-31.0934
 20
53.5268
 11
-30.9561
 21
53.6558
  0
LINE
  8
0
 10
-30.9561
 20
53.6558
 11
-30.8037
 21
53.7665
  0
LINE
  8
0
 10
-30.8037
 20
53.7665
 11
-30.6387
 21
53.8572
  0
LINE
  8
0
 10
-30.6387
 20
53.8572
 11
-30.4635
 21
53.9266
  0
LINE
  8
0
 10
-30.4635
 20
53.9266
 11
-30.2811
 21
53.9734
  0
LINE
  8
0
 10
-30.2811
 20
53.9734
 11
-30.0942
 21
53.997
  0
LINE
  8
0
 10
-30.0942
 20
53.997
 11
-29.9058
 21
53.997
  0
LINE
  8
0
 10
-29.9058
 20
53.997
 11
-29.7189
 21
53.9734
  0
LINE
  8
0
 10
-29.7189
 20
53.9734
 11
-29.5365
 21
53.9266
  0
LINE
  8
0
 10
-29.5365
 20
53.9266
 11
-29.3613
 21
53.8572
  0
LINE
  8
0
 10
-29.3613
 20
53.8572
 11
-29.1963
 21
53.7665
  0
LINE
  8
0
 10
-29.1963
 20
53.7665
 11
-29.0439
 21
53.6558
  0
LINE
  8
0
 10
-29.0439
 20
53.6558
 11
-28.9065
 21
53.5268
  0
LINE
  8
0
 10
-28.9065
 20
53.5268
 11
-28.7865
 21
53.3817
  0
LINE
  8
0
 10
-28.7865
 20
53.3817
 11
-28.6855
 21
53.2226
  0
LINE
  8
0
 10
-28.6855
 20
53.2226
 11
-28.6053
 21
53.0522
  0
LINE
  8
0
 10
-28.6053
 20
53.0522
 11
-28.5471
 21
52.873
  0
LINE
  8
0
 10
-28.5471
 20
52.873
 11
-28.5118
 21
52.688
  0
LINE
  8
0
 10
-28.5118
 20
52.688
 11
-28.5
 21
52.5
  0
LINE
  8
0
 10
-28.5
 20
52.5
 11
-28.5118
 21
52.312
  0
LINE
  8
0
 10
-28.5118
 20
52.312
 11
-28.5471
 21
52.127
  0
LINE
  8
0
 10
-28.5471
 20
52.127
 11
-28.6053
 21
51.9478
  0
LINE
  8
0
 10
-28.6053
 20
51.9478
 11
-28.6855
 21
51.7774
  0
LINE
  8
0
 10
-28.6855
 20
51.7774
 11
-28.7865
 21
51.6183
  0
LINE
  8
0
 10
-28.7865
 20
51.6183
 11
-28.9065
 21
51.4732
  0
LINE
  8
0
 10
-28.9065
 20
51.4732
 11
-29.0439
 21
51.3442
  0
LINE
  8
0
 10
-29.0439
 20
51.3442
 11
-29.1963
 21
51.2335
  0
LINE
  8
0
 10
-29.1963
 20
51.2335
 11
-29.3613
 21
51.1428
  0
LINE
  8
0
 10
-29.3613
 20
51.1428
 11
-29.5365
 21
51.0734
  0
LINE
  8
0
 10
-29.5365
 20
51.0734
 11
-29.7189
 21
51.0266
  0
LINE
  8
0
 10
-29.7189
 20
51.0266
 11
-29.9058
 21
51.003
  0
LINE
  8
0
 10
-29.9058
 20
51.003
 11
-30.0942
 21
51.003
  0
LINE
  8
0
 10
29.9058
 20
36.003
 11
29.7189
 21
36.0266
  0
LINE
  8
0
 10
29.7189
 20
36.0266
 11
29.5365
 21
36.0734
  0
LINE
  8
0
 10
29.5365
 20
36.0734
 11
29.3613
 21
36.1428
  0
LINE
  8
0
 10
29.3613
 20
36.1428
 11
29.1963
 21
36.2335
  0
LINE
  8
0
 10
29.1963
 20
36.2335
 11
29.0439
 21
36.3442
  0
LINE
  8
0
 10
29.0439
 20
36.3442
 11
28.9065
 21
36.4732
  0
LINE
  8
0
 10
28.9065
 20
36.4732
 11
28.7865
 21
36.6183
  0
LINE
  8
0
 10
28.7865
 20
36.6183
 11
28.6855
 21
36.7774
  0
LINE
  8
0
 10
28.6855
 20
36.7774
 11
28.6053
 21
36.9478
  0
LINE
  8
0
 10
28.6053
 20
36.9478
 11
28.5471
 21
37.127
  0
LINE
  8
0
 10
28.5471
 20
37.127
 11
28.5118
 21
37.312
  0
LINE
  8
0
 10
28.5118
 20
37.312
 11
28.5
 21
37.5
  0
LINE
  8
0
 10
28.5
 20
37.5
 11
28.5118
 21
37.688
  0
LINE
  8
0
 10
28.5118
 20
37.688
 11
28.5471
 21
37.873
  0
LINE
  8
0
 10
28.5471
 20
37.873
 11
28.6053
 21
38.0522
  0
LINE
  8
0
 10
28.6053
 20
38.0522
 11
28.6855
 21
38.2226
  0
LINE
  8
0
 10
28.6855
 20
38.2226
 11
28.7865
 21
38.3817
  0
LINE
  8
0
 10
28.7865
 20
38.3817
 11
28.9065
 21
38.5268
  0
LINE
  8
0
 10
28.9065
 20
38.5268
 11
29.0439
 21
38.6558
  0
LINE
  8
0
 10
29.0439
 20
38.6558
 11
29.1963
 21
38.7665
  0
LINE
  8
0
 10
29.1963
 20
38.7665
 11
29.3613
 21
38.8572
  0
LINE
  8
0
 10
29.3613
 20
38.8572
 11
29.5365
 21
38.9266
  0
LINE
  8
0
 10
29.5365
 20
38.9266
 11
29.7189
 21
38.9734
  0
LINE
  8
0
 10
29.7189
 20
38.9734
 11
29.9058
 21
38.997
  0
LINE
  8
0
 10
29.9058
 20
38.997
 11
30.0942
 21
38.997
  0
LINE
  8
0
 10
30.0942
 20
38.997
 11
30.2811
 21
38.9734
  0
LINE
  8
0
 10
30.2811
 20
38.9734
 11
30.4635
 21
38.9266
  0
LINE
  8
0
 10
30.4635
 20
38.9266
 11
30.6387
 21
38.8572
  0
LINE
  8
0
 10
30.6387
 20
38.8572
 11
30.8037
 21
38.7665
  0
LINE
  8
0
 10
30.8037
 20
38.7665
 11
30.9561
 21
38.6558
  0
LINE
  8
0
 10
30.9561
 20
38.6558
 11
31.0934
 21
38.5268
  0
LINE
  8
0
 10
31.0934
 20
38.5268
 11
31.2135
 21
38.3817
  0
LINE
  8
0
 10
31.2135
 20
38.3817
 11
31.3145
 21
38.2226
  0
LINE
  8
0
 10
31.3145
 20
38.2226
 11
31.3947
 21
38.0522
  0
LINE
  8
0
 10
31.3947
 20
38.0522
 11
31.4529
 21
37.873
  0
LINE
  8
0
 10
31.4529
 20
37.873
 11
31.4882
 21
37.688
  0
LINE
  8
0
 10
31.4882
 20
37.688
 11
31.5
 21
37.5
  0
LINE
  8
0
 10
31.5
 20
37.5
 11
31.4882
 21
37.312
  0
LINE
  8
0
 10
31.4882
 20
37.312
 11
31.4529
 21
37.127
  0
LINE
  8
0
 10
31.4529
 20
37.127
 11
31.3947
 21
36.9478
  0
LINE
  8
0
 10
31.3947
 20
36.9478
 11
31.3145
 21
36.7774
  0
LINE
  8
0
 10
31.3145
 20
36.7774
 11
31.2135
 21
36.6183
  0
LINE
  8
0
 10
31.2135
 20
36.6183
 11
31.0934
 21
36.4732
  0
LINE
  8
0
 10
31.0934
 20
36.4732
 11
30.9561
 21
36.3442
  0
LINE
  8
0
 10
30.9561
 20
36.3442
 11
30.8037
 21
36.2335
  0
LINE
  8
0
 10
30.8037
 20
36.2335
 11
30.6387
 21
36.1428
  0
LINE
  8
0
 10
30.6387
 20
36.1428
 11
30.4635
 21
36.0734
  0
LINE
  8
0
 10
30.4635
 20
36.0734
 11
30.2811
 21
36.0266
  0
LINE
  8
0
 10
30.2811
 20
36.0266
 11
30.0942
 21
36.003
  0
LINE
  8
0
 10
30.0942
 20
36.003
 11
29.9058
 21
36.003
  0
LINE
  8
0
 10
-30.0942
 20
36.003
 11
-30.2811
 21
36.0266
  0
LINE
  8
0
 10
-30.2811
 20
36.0266
 11
-30.4635
 21
36.0734
  0
LINE
  8
0
 10
-30.4635
 20
36.0734
 11
-30.6387
 21
36.1428
  0
LINE
  8
0
 10
-30.6387
 20
36.1428
 11
-30.8037
 21
36.2335
  0
LINE
  8
0
 10
-30.8037
 20
36.2335
 11
-30.9561
 21
36.3442
  0
LINE
  8
0
 10
-30.9561
 20
36.3442
 11
-31.0934
 21
36.4732
  0
LINE
  8
0
 10
-31.0934
 20
36.4732
 11
-31.2135
 21
36.6183
  0
LINE
  8
0
 10
-31.2135
 20
36.6183
 11
-31.3145
 21
36.7774
  0
LINE
  8
0
 10
-31.3145
 20
36.7774
 11
-31.3947
 21
36.9478
  0
LINE
  8
0
 10
-31.3947
 20
36.9478
 11
-31.4529
 21
37.127
  0
LINE
  8
0
 10
-31.4529
 20
37.127
 11
-31.4882
 21
37.312
  0
LINE
  8
0
 10
-31.4882
 20
37.312
 11
-31.5
 21
37.5
  0
LINE
  8
0
 10
-31.5
 20
37.5
 11
-31.4882
 21
37.688
  0
LINE
  8
0
 10
-31.4882
 20
37.688
 11
-31.4529
 21
37.873
  0
LINE
  8
0
 10
-31.4529
 20
37.873
 11
-31.3947
 21
38.0522
  0
LINE
  8
0
 10
-31.3947
 20
38.0522
 11
-31.3145
 21
38.2226
  0
LINE
  8
0
 10
-31.3145
 20
38.2226
 11
-31.2135
 21
38.3817
  0
LINE
  8
0
 10
-31.2135
 20
38.3817
 11
-31.0934
 21
38.5268
  0
LINE
  8
0
 10
-31.0934
 20
38.5268
 11
-30.9561
 21
38.6558
  0
LINE
  8
0
 10
-30.9561
 20
38.6558
 11
-30.8037
 21
38.7665
  0
LINE
  8
0
 10
-30.8037
 20
38.7665
 11
-30.6387
 21
38.8572
  0
LINE
  8
0
 10
-30.6387
 20
38.8572
 11
-30.4635
 21
38.9266
  0
LINE
  8
0
 10
-30.4635
 20
38.9266
 11
-30.2811
 21
38.9734
  0
LINE
  8
0
 10
-30.2811
 20
38.9734
 11
-30.0942
 21
38.997
  0
LINE
  8
0
 10
-30.0942
 20
38.997
 11
-29.9058
 21
38.997
  0
LINE
  8
0
 10
-29.9058
 20
38.997
 11
-29.7189
 21
38.9734
  0
LINE
  8
0
 10
-29.7189
 20
38.9734
 11
-29.5365
 21
38.9266
  0
LINE
  8
0
 10
-29.5365
 20
38.9266
 11
-29.3613
 21
38.8572
  0
LINE
  8
0
 10
-29.3613
 20
38.8572
 11
-29.1963
 21
38.7665
  0
LINE
  8
0
 10
-29.1963
 20
38.7665
 11
-29.0439
 21
38.6558
  0
LINE
  8
0
 10
-29.0439
 20
38.6558
 11
-28.9065
 21
38.5268
  0
LINE
  8
0
 10
-28.9065
 20
38.5268
 11
-28.7865
 21
38.3817
  0
LINE
  8
0
 10
-28.7865
 20
38.3817
 11
-28.6855
 21
38.2226
  0
LINE
  8
0
 10
-28.6855
 20
38.2226
 11
-28.6053
 21
38.0522
  0
LINE
  8
0
 10
-28.6053
 20
38.0522
 11
-28.5471
 21
37.873
  0
LINE
  8
0
 10
-28.5471
 20
37.873
 11
-28.5118
 21
37.688
  0
LINE
  8
0
 10
-28.5118
 20
37.688
 11
-28.5
 21
37.5
  0
LINE
  8
0
 10
-28.5
 20
37.5
 11
-28.5118
 21
37.312
  0
LINE
  8
0
 10
-28.5118
 20
37.312
 11
-28.5471
 21
37.127
  0
LINE
  8
0
 10
-28.5471
 20
37.127
 11
-28.6053
 21
36.9478
  0
LINE
  8
0
 10
-28.6053
 20
36.9478
 11
-28.6855
 21
36.7774
  0
LINE
  8
0
 10
-28.6855
 20
36.7774
 11
-28.7865
 21
36.6183
  0
LINE
  8
0
 10
-28.7865
 20
36.6183
 11
-28.9065
 21
36.4732
  0
LINE
  8
0
 10
-28.9065
 20
36.4732
 11
-29.0439
 21
36.3442
  0
LINE
  8
0
 10
-29.0439
 20
36.3442
 11
-29.1963
 21
36.2335
  0
LINE
  8
0
 10
-29.1963
 20
36.2335
 11
-29.3613
 21
36.1428
  0
LINE
  8
0
 10
-29.3613
 20
36.1428
 11
-29.5365
 21
36.0734
  0
LINE
  8
0
 10
-29.5365
 20
36.0734
 11
-29.7189
 21
36.0266
  0
LINE
  8
0
 10
-29.7189
 20
36.0266
 11
-29.9058
 21
36.003
  0
LINE
  8
0
 10
-29.9058
 20
36.003
 11
-30.0942
 21
36.003
  0
LINE
  8
0
 10
-30.0942
 20
21.003
 11
-30.2811
 21
21.0266
  0
LINE
  8
0
 10
-30.2811
 20
21.0266
 11
-30.4635
 21
21.0734
  0
LINE
  8
0
 10
-30.4635
 20
21.0734
 11
-30.6387
 21
21.1427
  0
LINE
  8
0
 10
-30.6387
 20
21.1427
 11
-30.8037
 21
21.2335
  0
LINE
  8
0
 10
-30.8037
 20
21.2335
 11
-30.9561
 21
21.3442
  0
LINE
  8
0
 10
-30.9561
 20
21.3442
 11
-31.0934
 21
21.4732
  0
LINE
  8
0
 10
-31.0934
 20
21.4732
 11
-31.2135
 21
21.6183
  0
LINE
  8
0
 10
-31.2135
 20
21.6183
 11
-31.3145
 21
21.7774
  0
LINE
  8
0
 10
-31.3145
 20
21.7774
 11
-31.3947
 21
21.9478
  0
LINE
  8
0
 10
-31.3947
 20
21.9478
 11
-31.4529
 21
22.127
  0
LINE
  8
0
 10
-31.4529
 20
22.127
 11
-31.4882
 21
22.312
  0
LINE
  8
0
 10
-31.4882
 20
22.312
 11
-31.5
 21
22.5
  0
LINE
  8
0
 10
-31.5
 20
22.5
 11
-31.4882
 21
22.688
  0
LINE
  8
0
 10
-31.4882
 20
22.688
 11
-31.4529
 21
22.873
  0
LINE
  8
0
 10
-31.4529
 20
22.873
 11
-31.3947
 21
23.0522
  0
LINE
  8
0
 10
-31.3947
 20
23.0522
 11
-31.3145
 21
23.2226
  0
LINE
  8
0
 10
-31.3145
 20
23.2226
 11
-31.2135
 21
23.3817
  0
LINE
  8
0
 10
-31.2135
 20
23.3817
 11
-31.0934
 21
23.5268
  0
LINE
  8
0
 10
-31.0934
 20
23.5268
 11
-30.9561
 21
23.6558
  0
LINE
  8
0
 10
-30.9561
 20
23.6558
 11
-30.8037
 21
23.7665
  0
LINE
  8
0
 10
-30.8037
 20
23.7665
 11
-30.6387
 21
23.8572
  0
LINE
  8
0
 10
-30.6387
 20
23.8572
 11
-30.4635
 21
23.9266
  0
LINE
  8
0
 10
-30.4635
 20
23.9266
 11
-30.2811
 21
23.9734
  0
LINE
  8
0
 10
-30.2811
 20
23.9734
 11
-30.0942
 21
23.997
  0
LINE
  8
0
 10
-30.0942
 20
23.997
 11
-29.9058
 21
23.997
  0
LINE
  8
0
 10
-29.9058
 20
23.997
 11
-29.7189
 21
23.9734
  0
LINE
  8
0
 10
-29.7189
 20
23.9734
 11
-29.5365
 21
23.9266
  0
LINE
  8
0
 10
-29.5365
 20
23.9266
 11
-29.3613
 21
23.8572
  0
LINE
  8
0
 10
-29.3613
 20
23.8572
 11
-29.1963
 21
23.7665
  0
LINE
  8
0
 10
-29.1963
 20
23.7665
 11
-29.0439
 21
23.6558
  0
LINE
  8
0
 10
-29.0439
 20
23.6558
 11
-28.9065
 21
23.5268
  0
LINE
  8
0
 10
-28.9065
 20
23.5268
 11
-28.7865
 21
23.3817
  0
LINE
  8
0
 10
-28.7865
 20
23.3817
 11
-28.6855
 21
23.2226
  0
LINE
  8
0
 10
-28.6855
 20
23.2226
 11
-28.6053
 21
23.0522
  0
LINE
  8
0
 10
-28.6053
 20
23.0522
 11
-28.5471
 21
22.873
  0
LINE
  8
0
 10
-28.5471
 20
22.873
 11
-28.5118
 21
22.688
  0
LINE
  8
0
 10
-28.5118
 20
22.688
 11
-28.5
 21
22.5
  0
LINE
  8
0
 10
-28.5
 20
22.5
 11
-28.5118
 21
22.312
  0
LINE
  8
0
 10
-28.5118
 20
22.312
 11
-28.5471
 21
22.127
  0
LINE
  8
0
 10
-28.5471
 20
22.127
 11
-28.6053
 21
21.9478
  0
LINE
  8
0
 10
-28.6053
 20
21.9478
 11
-28.6855
 21
21.7774
  0
LINE
  8
0
 10
-28.6855
 20
21.7774
 11
-28.7865
 21
21.6183
  0
LINE
  8
0
 10
-28.7865
 20
21.6183
 11
-28.9065
 21
21.4732
  0
LINE
  8
0
 10
-28.9065
 20
21.4732
 11
-29.0439
 21
21.3442
  0
LINE
  8
0
 10
-29.0439
 20
21.3442
 11
-29.1963
 21
21.2335
  0
LINE
  8
0
 10
-29.1963
 20
21.2335
 11
-29.3613
 21
21.1427
  0
LINE
  8
0
 10
-29.3613
 20
21.1427
 11
-29.5365
 21
21.0734
  0
LINE
  8
0
 10
-29.5365
 20
21.0734
 11
-29.7189
 21
21.0266
  0
LINE
  8
0
 10
-29.7189
 20
21.0266
 11
-29.9058
 21
21.003
  0
LINE
  8
0
 10
-29.9058
 20
21.003
 11
-30.0942
 21
21.003
  0
LINE
  8
0
 10
29.9058
 20
21.003
 11
29.7189
 21
21.0266
  0
LINE
  8
0
 10
29.7189
 20
21.0266
 11
29.5365
 21
21.0734
  0
LINE
  8
0
 10
29.5365
 20
21.0734
 11
29.3613
 21
21.1427
  0
LINE
  8
0
 10
29.3613
 20
21.1427
 11
29.1963
 21
21.2335
  0
LINE
  8
0
 10
29.1963
 20
21.2335
 11
29.0439
 21
21.3442
  0
LINE
  8
0
 10
29.0439
 20
21.3442
 11
28.9065
 21
21.4732
  0
LINE
  8
0
 10
28.9065
 20
21.4732
 11
28.7865
 21
21.6183
  0
LINE
  8
0
 10
28.7865
 20
21.6183
 11
28.6855
 21
21.7774
  0
LINE
  8
0
 10
28.6855
 20
21.7774
 11
28.6053
 21
21.9478
  0
LINE
  8
0
 10
28.6053
 20
21.9478
 11
28.5471
 21
22.127
  0
LINE
  8
0
 10
28.5471
 20
22.127
 11
28.5118
 21
22.312
  0
LINE
  8
0
 10
28.5118
 20
22.312
 11
28.5
 21
22.5
  0
LINE
  8
0
 10
28.5
 20
22.5
 11
28.5118
 21
22.688
  0
LINE
  8
0
 10
28.5118
 20
22.688
 11
28.5471
 21
22.873
  0
LINE
  8
0
 10
28.5471
 20
22.873
 11
28.6053
 21
23.0522
  0
LINE
  8
0
 10
28.6053
 20
23.0522
 11
28.6855
 21
23.2226
  0
LINE
  8
0
 10
28.6855
 20
23.2226
 11
28.7865
 21
23.3817
  0
LINE
  8
0
 10
28.7865
 20
23.3817
 11
28.9065
 21
23.5268
  0
LINE
  8
0
 10
28.9065
 20
23.5268
 11
29.0439
 21
23.6558
  0
LINE
  8
0
 10
29.0439
 20
23.6558
 11
29.1963
 21
23.7665
  0
LINE
  8
0
 10
29.1963
 20
23.7665
 11
29.3613
 21
23.8572
  0
LINE
  8
0
 10
29.3613
 20
23.8572
 11
29.5365
 21
23.9266
  0
LINE
  8
0
 10
29.5365
 20
23.9266
 11
29.7189
 21
23.9734
  0
LINE
  8
0
 10
29.7189
 20
23.9734
 11
29.9058
 21
23.997
  0
LINE
  8
0
 10
29.9058
 20
23.997
 11
30.0942
 21
23.997
  0
LINE
  8
0
 10
30.0942
 20
23.997
 11
30.2811
 21
23.9734
  0
LINE
  8
0
 10
30.2811
 20
23.9734
 11
30.4635
 21
23.9266
  0
LINE
  8
0
 10
30.4635
 20
23.9266
 11
30.6387
 21
23.8572
  0
LINE
  8
0
 10
30.6387
 20
23.8572
 11
30.8037
 21
23.7665
  0
LINE
  8
0
 10
30.8037
 20
23.7665
 11
30.9561
 21
23.6558
  0
LINE
  8
0
 10
30.9561
 20
23.6558
 11
31.0934
 21
23.5268
  0
LINE
  8
0
 10
31.0934
 20
23.5268
 11
31.2135
 21
23.3817
  0
LINE
  8
0
 10
31.2135
 20
23.3817
 11
31.3145
 21
23.2226
  0
LINE
  8
0
 10
31.3145
 20
23.2226
 11
31.3947
 21
23.0522
  0
LINE
  8
0
 10
31.3947
 20
23.0522
 11
31.4529
 21
22.873
  0
LINE
  8
0
 10
31.4529
 20
22.873
 11
31.4882
 21
22.688
  0
LINE
  8
0
 10
31.4882
 20
22.688
 11
31.5
 21
22.5
  0
LINE
  8
0
 10
31.5
 20
22.5
 11
31.4882
 21
22.312
  0
LINE
  8
0
 10
31.4882
 20
22.312
 11
31.4529
 21
22.127
  0
LINE
  8
0
 10
31.4529
 20
22.127
 11
31.3947
 21
21.9478
  0
LINE
  8
0
 10
31.3947
 20
21.9478
 11
31.3145
 21
21.7774
  0
LINE
  8
0
 10
31.3145
 20
21.7774
 11
31.2135
 21
21.6183
  0
LINE
  8
0
 10
31.2135
 20
21.6183
 11
31.0934
 21
21.4732
  0
LINE
  8
0
 10
31.0934
 20
21.4732
 11
30.9561
 21
21.3442
  0
LINE
  8
0
 10
30.9561
 20
21.3442
 11
30.8037
 21
21.2335
  0
LINE
  8
0
 10
30.8037
 20
21.2335
 11
30.6387
 21
21.1427
  0
LINE
  8
0
 10
30.6387
 20
21.1427
 11
30.4635
 21
21.0734
  0
LINE
  8
0
 10
30.4635
 20
21.0734
 11
30.2811
 21
21.0266
  0
LINE
  8
0
 10
30.2811
 20
21.0266
 11
30.0942
 21
21.003
  0
LINE
  8
0
 10
30.0942
 20
21.003
 11
29.9058
 21
21.003
  0
LINE
  8
0
 10
-30.0942
 20
6.00294
 11
-30.2811
 21
6.02657
  0
LINE
  8
0
 10
-30.2811
 20
6.02657
 11
-30.4635
 21
6.07341
  0
LINE
  8
0
 10
-30.4635
 20
6.07341
 11
-30.6387
 21
6.14275
  0
LINE
  8
0
 10
-30.6387
 20
6.14275
 11
-30.8037
 21
6.23351
  0
LINE
  8
0
 10
-30.8037
 20
6.23351
 11
-30.9561
 21
6.34422
  0
LINE
  8
0
 10
-30.9561
 20
6.34422
 11
-31.0934
 21
6.47318
  0
LINE
  8
0
 10
-31.0934
 20
6.47318
 11
-31.2135
 21
6.61832
  0
LINE
  8
0
 10
-31.2135
 20
6.61832
 11
-31.3145
 21
6.77736
  0
LINE
  8
0
 10
-31.3145
 20
6.77736
 11
-31.3947
 21
6.9478
  0
LINE
  8
0
 10
-31.3947
 20
6.9478
 11
-31.4529
 21
7.12695
  0
LINE
  8
0
 10
-31.4529
 20
7.12695
 11
-31.4882
 21
7.312
  0
LINE
  8
0
 10
-31.4882
 20
7.312
 11
-31.5
 21
7.5
  0
LINE
  8
0
 10
-31.5
 20
7.5
 11
-31.4882
 21
7.68799
  0
LINE
  8
0
 10
-31.4882
 20
7.68799
 11
-31.4529
 21
7.87303
  0
LINE
  8
0
 10
-31.4529
 20
7.87303
 11
-31.3947
 21
8.05219
  0
LINE
  8
0
 10
-31.3947
 20
8.05219
 11
-31.3145
 21
8.22263
  0
LINE
  8
0
 10
-31.3145
 20
8.22263
 11
-31.2135
 21
8.38167
  0
LINE
  8
0
 10
-31.2135
 20
8.38167
 11
-31.0934
 21
8.52681
  0
LINE
  8
0
 10
-31.0934
 20
8.52681
 11
-30.9561
 21
8.65576
  0
LINE
  8
0
 10
-30.9561
 20
8.65576
 11
-30.8037
 21
8.76648
  0
LINE
  8
0
 10
-30.8037
 20
8.76648
 11
-30.6387
 21
8.85724
  0
LINE
  8
0
 10
-30.6387
 20
8.85724
 11
-30.4635
 21
8.92657
  0
LINE
  8
0
 10
-30.4635
 20
8.92657
 11
-30.2811
 21
8.97342
  0
LINE
  8
0
 10
-30.2811
 20
8.97342
 11
-30.0942
 21
8.99704
  0
LINE
  8
0
 10
-30.0942
 20
8.99704
 11
-29.9058
 21
8.99704
  0
LINE
  8
0
 10
-29.9058
 20
8.99704
 11
-29.7189
 21
8.97342
  0
LINE
  8
0
 10
-29.7189
 20
8.97342
 11
-29.5365
 21
8.92657
  0
LINE
  8
0
 10
-29.5365
 20
8.92657
 11
-29.3613
 21
8.85724
  0
LINE
  8
0
 10
-29.3613
 20
8.85724
 11
-29.1963
 21
8.76648
  0
LINE
  8
0
 10
-29.1963
 20
8.76648
 11
-29.0439
 21
8.65576
  0
LINE
  8
0
 10
-29.0439
 20
8.65576
 11
-28.9065
 21
8.52681
  0
LINE
  8
0
 10
-28.9065
 20
8.52681
 11
-28.7865
 21
8.38167
  0
LINE
  8
0
 10
-28.7865
 20
8.38167
 11
-28.6855
 21
8.22263
  0
LINE
  8
0
 10
-28.6855
 20
8.22263
 11
-28.6053
 21
8.05219
  0
LINE
  8
0
 10
-28.6053
 20
8.05219
 11
-28.5471
 21
7.87303
  0
LINE
  8
0
 10
-28.5471
 20
7.87303
 11
-28.5118
 21
7.68799
  0
LINE
  8
0
 10
-28.5118
 20
7.68799
 11
-28.5
 21
7.5
  0
LINE
  8
0
 10
-28.5
 20
7.5
 11
-28.5118
 21
7.312
  0
LINE
  8
0
 10
-28.5118
 20
7.312
 11
-28.5471
 21
7.12695
  0
LINE
  8
0
 10
-28.5471
 20
7.12695
 11
-28.6053
 21
6.9478
  0
LINE
  8
0
 10
-28.6053
 20
6.9478
 11
-28.6855
 21
6.77736
  0
LINE
  8
0
 10
-28.6855
 20
6.77736
 11
-28.7865
 21
6.61832
  0
LINE
  8
0
 10
-28.7865
 20
6.61832
 11
-28.9065
 21
6.47318
  0
LINE
  8
0
 10
-28.9065
 20
6.47318
 11
-29.0439
 21
6.34422
  0
LINE
  8
0
 10
-29.0439
 20
6.34422
 11
-29.1963
 21
6.23351
  0
LINE
  8
0
 10
-29.1963
 20
6.23351
 11
-29.3613
 21
6.14275
  0
LINE
  8
0
 10
-29.3613
 20
6.14275
 11
-29.5365
 21
6.07341
  0
LINE
  8
0
 10
-29.5365
 20
6.07341
 11
-29.7189
 21
6.02657
  0
LINE
  8
0
 10
-29.7189
 20
6.02657
 11
-29.9058
 21
6.00294
  0
LINE
  8
0
 10
-29.9058
 20
6.00294
 11
-30.0942
 21
6.00294
  0
LINE
  8
0
 10
29.9058
 20
6.00294
 11
29.7189
 21
6.02657
  0
LINE
  8
0
 10
29.7189
 20
6.02657
 11
29.5365
 21
6.07341
  0
LINE
  8
0
 10
29.5365
 20
6.07341
 11
29.3613
 21
6.14275
  0
LINE
  8
0
 10
29.3613
 20
6.14275
 11
29.1963
 21
6.23351
  0
LINE
  8
0
 10
29.1963
 20
6.23351
 11
29.0439
 21
6.34422
  0
LINE
  8
0
 10
29.0439
 20
6.34422
 11
28.9065
 21
6.47318
  0
LINE
  8
0
 10
28.9065
 20
6.47318
 11
28.7865
 21
6.61832
  0
LINE
  8
0
 10
28.7865
 20
6.61832
 11
28.6855
 21
6.77736
  0
LINE
  8
0
 10
28.6855
 20
6.77736
 11
28.6053
 21
6.9478
  0
LINE
  8
0
 10
28.6053
 20
6.9478
 11
28.5471
 21
7.12695
  0
LINE
  8
0
 10
28.5471
 20
7.12695
 11
28.5118
 21
7.312
  0
LINE
  8
0
 10
28.5118
 20
7.312
 11
28.5
 21
7.5
  0
LINE
  8
0
 10
28.5
 20
7.5
 11
28.5118
 21
7.68799
  0
LINE
  8
0
 10
28.5118
 20
7.68799
 11
28.5471
 21
7.87303
  0
LINE
  8
0
 10
28.5471
 20
7.87303
 11
28.6053
 21
8.05219
  0
LINE
  8
0
 10
28.6053
 20
8.05219
 11
28.6855
 21
8.22263
  0
LINE
  8
0
 10
28.6855
 20
8.22263
 11
28.7865
 21
8.38167
  0
LINE
  8
0
 10
28.7865
 20
8.38167
 11
28.9065
 21
8.52681
  0
LINE
  8
0
 10
28.9065
 20
8.52681
 11
29.0439
 21
8.65576
  0
LINE
  8
0
 10
29.0439
 20
8.65576
 11
29.1963
 21
8.76648
  0
LINE
  8
0
 10
29.1963
 20
8.76648
 11
29.3613
 21
8.85724
  0
LINE
  8
0
 10
29.3613
 20
8.85724
 11
29.5365
 21
8.92657
  0
LINE
  8
0
 10
29.5365
 20
8.92657
 11
29.7189
 21
8.97342
  0
LINE
  8
0
 10
29.7189
 20
8.97342
 11
29.9058
 21
8.99704
  0
LINE
  8
0
 10
29.9058
 20
8.99704
 11
30.0942
 21
8.99704
  0
LINE
  8
0
 10
30.0942
 20
8.99704
 11
30.2811
 21
8.97342
  0
LINE
  8
0
 10
30.2811
 20
8.97342
 11
30.4635
 21
8.92657
  0
LINE
  8
0
 10
30.4635
 20
8.92657
 11
30.6387
 21
8.85724
  0
LINE
  8
0
 10
30.6387
 20
8.85724
 11
30.8037
 21
8.76648
  0
LINE
  8
0
 10
30.8037
 20
8.76648
 11
30.9561
 21
8.65576
  0
LINE
  8
0
 10
30.9561
 20
8.65576
 11
31.0934
 21
8.52681
  0
LINE
  8
0
 10
31.0934
 20
8.52681
 11
31.2135
 21
8.38167
  0
LINE
  8
0
 10
31.2135
 20
8.38167
 11
31.3145
 21
8.22263
  0
LINE
  8
0
 10
31.3145
 20
8.22263
 11
31.3947
 21
8.05219
  0
LINE
  8
0
 10
31.3947
 20
8.05219
 11
31.4529
 21
7.87303
  0
LINE
  8
0
 10
31.4529
 20
7.87303
 11
31.4882
 21
7.68799
  0
LINE
  8
0
 10
31.4882
 20
7.68799
 11
31.5
 21
7.5
  0
LINE
  8
0
 10
31.5
 20
7.5
 11
31.4882
 21
7.312
  0
LINE
  8
0
 10
31.4882
 20
7.312
 11
31.4529
 21
7.12695
  0
LINE
  8
0
 10
31.4529
 20
7.12695
 11
31.3947
 21
6.9478
  0
LINE
  8
0
 10
31.3947
 20
6.9478
 11
31.3145
 21
6.77736
  0
LINE
  8
0
 10
31.3145
 20
6.77736
 11
31.2135
 21
6.61832
  0
LINE
  8
0
 10
31.2135
 20
6.61832
 11
31.0934
 21
6.47318
  0
LINE
  8
0
 10
31.0934
 20
6.47318
 11
30.9561
 21
6.34422
  0
LINE
  8
0
 10
30.9561
 20
6.34422
 11
30.8037
 21
6.23351
  0
LINE
  8
0
 10
30.8037
 20
6.23351
 11
30.6387
 21
6.14275
  0
LINE
  8
0
 10
30.6387
 20
6.14275
 11
30.4635
 21
6.07341
  0
LINE
  8
0
 10
30.4635
 20
6.07341
 11
30.2811
 21
6.02657
  0
LINE
  8
0
 10
30.2811
 20
6.02657
 11
30.0942
 21
6.00294
  0
LINE
  8
0
 10
30.0942
 20
6.00294
 11
29.9058
 21
6.00294
  0
LINE
  8
0
 10
28.5
 20
-7.5
 11
28.5118
 21
-7.312
  0
LINE
  8
0
 10
28.5118
 20
-7.312
 11
28.5471
 21
-7.12695
  0
LINE
  8
0
 10
28.5471
 20
-7.12695
 11
28.6053
 21
-6.9478
  0
LINE
  8
0
 10
28.6053
 20
-6.9478
 11
28.6855
 21
-6.77736
  0
LINE
  8
0
 10
28.6855
 20
-6.77736
 11
28.7865
 21
-6.61832
  0
LINE
  8
0
 10
28.7865
 20
-6.61832
 11
28.9065
 21
-6.47318
  0
LINE
  8
0
 10
28.9065
 20
-6.47318
 11
29.0439
 21
-6.34422
  0
LINE
  8
0
 10
29.0439
 20
-6.34422
 11
29.1963
 21
-6.23351
  0
LINE
  8
0
 10
29.1963
 20
-6.23351
 11
29.3613
 21
-6.14275
  0
LINE
  8
0
 10
29.3613
 20
-6.14275
 11
29.5365
 21
-6.07341
  0
LINE
  8
0
 10
29.5365
 20
-6.07341
 11
29.7189
 21
-6.02657
  0
LINE
  8
0
 10
29.7189
 20
-6.02657
 11
29.9058
 21
-6.00294
  0
LINE
  8
0
 10
29.9058
 20
-6.00294
 11
30.0942
 21
-6.00294
  0
LINE
  8
0
 10
30.0942
 20
-6.00294
 11
30.2811
 21
-6.02657
  0
LINE
  8
0
 10
30.2811
 20
-6.02657
 11
30.4635
 21
-6.07341
  0
LINE
  8
0
 10
30.4635
 20
-6.07341
 11
30.6387
 21
-6.14275
  0
LINE
  8
0
 10
30.6387
 20
-6.14275
 11
30.8037
 21
-6.23351
  0
LINE
  8
0
 10
30.8037
 20
-6.23351
 11
30.9561
 21
-6.34422
  0
LINE
  8
0
 10
30.9561
 20
-6.34422
 11
31.0934
 21
-6.47318
  0
LINE
  8
0
 10
31.0934
 20
-6.47318
 11
31.2135
 21
-6.61832
  0
LINE
  8
0
 10
31.2135
 20
-6.61832
 11
31.3145
 21
-6.77736
  0
LINE
  8
0
 10
31.3145
 20
-6.77736
 11
31.3947
 21
-6.9478
  0
LINE
  8
0
 10
31.3947
 20
-6.9478
 11
31.4529
 21
-7.12695
  0
LINE
  8
0
 10
31.4529
 20
-7.12695
 11
31.4882
 21
-7.312
  0
LINE
  8
0
 10
31.4882
 20
-7.312
 11
31.5
 21
-7.5
  0
LINE
  8
0
 10
31.5
 20
-7.5
 11
31.4882
 21
-7.68799
  0
LINE
  8
0
 10
31.4882
 20
-7.68799
 11
31.4529
 21
-7.87303
  0
LINE
  8
0
 10
31.4529
 20
-7.87303
 11
31.3947
 21
-8.05219
  0
LINE
  8
0
 10
31.3947
 20
-8.05219
 11
31.3145
 21
-8.22263
  0
LINE
  8
0
 10
31.3145
 20
-8.22263
 11
31.2135
 21
-8.38167
  0
LINE
  8
0
 10
31.2135
 20
-8.38167
 11
31.0934
 21
-8.52681
  0
LINE
  8
0
 10
31.0934
 20
-8.52681
 11
30.9561
 21
-8.65576
  0
LINE
  8
0
 10
30.9561
 20
-8.65576
 11
30.8037
 21
-8.76648
  0
LINE
  8
0
 10
30.8037
 20
-8.76648
 11
30.6387
 21
-8.85724
  0
LINE
  8
0
 10
30.6387
 20
-8.85724
 11
30.4635
 21
-8.92657
  0
LINE
  8
0
 10
30.4635
 20
-8.92657
 11
30.2811
 21
-8.97342
  0
LINE
  8
0
 10
30.2811
 20
-8.97342
 11
30.0942
 21
-8.99704
  0
LINE
  8
0
 10
30.0942
 20
-8.99704
 11
29.9058
 21
-8.99704
  0
LINE
  8
0
 10
29.9058
 20
-8.99704
 11
29.7189
 21
-8.97342
  0
LINE
  8
0
 10
29.7189
 20
-8.97342
 11
29.5365
 21
-8.92657
  0
LINE
  8
0
 10
29.5365
 20
-8.92657
 11
29.3613
 21
-8.85724
  0
LINE
  8
0
 10
29.3613
 20
-8.85724
 11
29.1963
 21
-8.76648
  0
LINE
  8
0
 10
29.1963
 20
-8.76648
 11
29.0439
 21
-8.65576
  0
LINE
  8
0
 10
29.0439
 20
-8.65576
 11
28.9065
 21
-8.52681
  0
LINE
  8
0
 10
28.9065
 20
-8.52681
 11
28.7865
 21
-8.38167
  0
LINE
  8
0
 10
28.7865
 20
-8.38167
 11
28.6855
 21
-8.22263
  0
LINE
  8
0
 10
28.6855
 20
-8.22263
 11
28.6053
 21
-8.05219
  0
LINE
  8
0
 10
28.6053
 20
-8.05219
 11
28.5471
 21
-7.87303
  0
LINE
  8
0
 10
28.5471
 20
-7.87303
 11
28.5118
 21
-7.68799
  0
LINE
  8
0
 10
28.5118
 20
-7.68799
 11
28.5
 21
-7.5
  0
LINE
  8
0
 10
-30.0942
 20
-23.997
 11
-30.2811
 21
-23.9734
  0
LINE
  8
0
 10
-30.2811
 20
-23.9734
 11
-30.4635
 21
-23.9266
  0
LINE
  8
0
 10
-30.4635
 20
-23.9266
 11
-30.6387
 21
-23.8572
  0
LINE
  8
0
 10
-30.6387
 20
-23.8572
 11
-30.8037
 21
-23.7665
  0
LINE
  8
0
 10
-30.8037
 20
-23.7665
 11
-30.9561
 21
-23.6558
  0
LINE
  8
0
 10
-30.9561
 20
-23.6558
 11
-31.0934
 21
-23.5268
  0
LINE
  8
0
 10
-31.0934
 20
-23.5268
 11
-31.2135
 21
-23.3817
  0
LINE
  8
0
 10
-31.2135
 20
-23.3817
 11
-31.3145
 21
-23.2226
  0
LINE
  8
0
 10
-31.3145
 20
-23.2226
 11
-31.3947
 21
-23.0522
  0
LINE
  8
0
 10
-31.3947
 20
-23.0522
 11
-31.4529
 21
-22.873
  0
LINE
  8
0
 10
-31.4529
 20
-22.873
 11
-31.4882
 21
-22.688
  0
LINE
  8
0
 10
-31.4882
 20
-22.688
 11
-31.5
 21
-22.5
  0
LINE
  8
0
 10
-31.5
 20
-22.5
 11
-31.4882
 21
-22.312
  0
LINE
  8
0
 10
-31.4882
 20
-22.312
 11
-31.4529
 21
-22.127
  0
LINE
  8
0
 10
-31.4529
 20
-22.127
 11
-31.3947
 21
-21.9478
  0
LINE
  8
0
 10
-31.3947
 20
-21.9478
 11
-31.3145
 21
-21.7774
  0
LINE
  8
0
 10
-31.3145
 20
-21.7774
 11
-31.2135
 21
-21.6183
  0
LINE
  8
0
 10
-31.2135
 20
-21.6183
 11
-31.0934
 21
-21.4732
  0
LINE
  8
0
 10
-31.0934
 20
-21.4732
 11
-30.9561
 21
-21.3442
  0
LINE
  8
0
 10
-30.9561
 20
-21.3442
 11
-30.8037
 21
-21.2335
  0
LINE
  8
0
 10
-30.8037
 20
-21.2335
 11
-30.6387
 21
-21.1427
  0
LINE
  8
0
 10
-30.6387
 20
-21.1427
 11
-30.4635
 21
-21.0734
  0
LINE
  8
0
 10
-30.4635
 20
-21.0734
 11
-30.2811
 21
-21.0266
  0
LINE
  8
0
 10
-30.2811
 20
-21.0266
 11
-30.0942
 21
-21.003
  0
LINE
  8
0
 10
-30.0942
 20
-21.003
 11
-29.9058
 21
-21.003
  0
LINE
  8
0
 10
-29.9058
 20
-21.003
 11
-29.7189
 21
-21.0266
  0
LINE
  8
0
 10
-29.7189
 20
-21.0266
 11
-29.5365
 21
-21.0734
  0
LINE
  8
0
 10
-29.5365
 20
-21.0734
 11
-29.3613
 21
-21.1427
  0
LINE
  8
0
 10
-29.3613
 20
-21.1427
 11
-29.1963
 21
-21.2335
  0
LINE
  8
0
 10
-29.1963
 20
-21.2335
 11
-29.0439
 21
-21.3442
  0
LINE
  8
0
 10
-29.0439
 20
-21.3442
 11
-28.9065
 21
-21.4732
  0
LINE
  8
0
 10
-28.9065
 20
-21.4732
 11
-28.7865
 21
-21.6183
  0
LINE
  8
0
 10
-28.7865
 20
-21.6183
 11
-28.6855
 21
-21.7774
  0
LINE
  8
0
 10
-28.6855
 20
-21.7774
 11
-28.6053
 21
-21.9478
  0
LINE
  8
0
 10
-28.6053
 20
-21.9478
 11
-28.5471
 21
-22.127
  0
LINE
  8
0
 10
-28.5471
 20
-22.127
 11
-28.5118
 21
-22.312
  0
LINE
  8
0
 10
-28.5118
 20
-22.312
 11
-28.5
 21
-22.5
  0
LINE
  8
0
 10
-28.5
 20
-22.5
 11
-28.5118
 21
-22.688
  0
LINE
  8
0
 10
-28.5118
 20
-22.688
 11
-28.5471
 21
-22.873
  0
LINE
  8
0
 10
-28.5471
 20
-22.873
 11
-28.6053
 21
-23.0522
  0
LINE
  8
0
 10
-28.6053
 20
-23.0522
 11
-28.6855
 21
-23.2226
  0
LINE
  8
0
 10
-28.6855
 20
-23.2226
 11
-28.7865
 21
-23.3817
  0
LINE
  8
0
 10
-28.7865
 20
-23.3817
 11
-28.9065
 21
-23.5268
  0
LINE
  8
0
 10
-28.9065
 20
-23.5268
 11
-29.0439
 21
-23.6558
  0
LINE
  8
0
 10
-29.0439
 20
-23.6558
 11
-29.1963
 21
-23.7665
  0
LINE
  8
0
 10
-29.1963
 20
-23.7665
 11
-29.3613
 21
-23.8572
  0
LINE
  8
0
 10
-29.3613
 20
-23.8572
 11
-29.5365
 21
-23.9266
  0
LINE
  8
0
 10
-29.5365
 20
-23.9266
 11
-29.7189
 21
-23.9734
  0
LINE
  8
0
 10
-29.7189
 20
-23.9734
 11
-29.9058
 21
-23.997
  0
LINE
  8
0
 10
-29.9058
 20
-23.997
 11
-30.0942
 21
-23.997
  0
LINE
  8
0
 10
29.9058
 20
-23.997
 11
29.7189
 21
-23.9734
  0
LINE
  8
0
 10
29.7189
 20
-23.9734
 11
29.5365
 21
-23.9266
  0
LINE
  8
0
 10
29.5365
 20
-23.9266
 11
29.3613
 21
-23.8572
  0
LINE
  8
0
 10
29.3613
 20
-23.8572
 11
29.1963
 21
-23.7665
  0
LINE
  8
0
 10
29.1963
 20
-23.7665
 11
29.0439
 21
-23.6558
  0
LINE
  8
0
 10
29.0439
 20
-23.6558
 11
28.9065
 21
-23.5268
  0
LINE
  8
0
 10
28.9065
 20
-23.5268
 11
28.7865
 21
-23.3817
  0
LINE
  8
0
 10
28.7865
 20
-23.3817
 11
28.6855
 21
-23.2226
  0
LINE
  8
0
 10
28.6855
 20
-23.2226
 11
28.6053
 21
-23.0522
  0
LINE
  8
0
 10
28.6053
 20
-23.0522
 11
28.5471
 21
-22.873
  0
LINE
  8
0
 10
28.5471
 20
-22.873
 11
28.5118
 21
-22.688
  0
LINE
  8
0
 10
28.5118
 20
-22.688
 11
28.5
 21
-22.5
  0
LINE
  8
0
 10
28.5
 20
-22.5
 11
28.5118
 21
-22.312
  0
LINE
  8
0
 10
28.5118
 20
-22.312
 11
28.5471
 21
-22.127
  0
LINE
  8
0
 10
28.5471
 20
-22.127
 11
28.6053
 21
-21.9478
  0
LINE
  8
0
 10
28.6053
 20
-21.9478
 11
28.6855
 21
-21.7774
  0
LINE
  8
0
 10
28.6855
 20
-21.7774
 11
28.7865
 21
-21.6183
  0
LINE
  8
0
 10
28.7865
 20
-21.6183
 11
28.9065
 21
-21.4732
  0
LINE
  8
0
 10
28.9065
 20
-21.4732
 11
29.0439
 21
-21.3442
  0
LINE
  8
0
 10
29.0439
 20
-21.3442
 11
29.1963
 21
-21.2335
  0
LINE
  8
0
 10
29.1963
 20
-21.2335
 11
29.3613
 21
-21.1427
  0
LINE
  8
0
 10
29.3613
 20
-21.1427
 11
29.5365
 21
-21.0734
  0
LINE
  8
0
 10
29.5365
 20
-21.0734
 11
29.7189
 21
-21.0266
  0
LINE
  8
0
 10
29.7189
 20
-21.0266
 11
29.9058
 21
-21.003
  0
LINE
  8
0
 10
29.9058
 20
-21.003
 11
30.0942
 21
-21.003
  0
LINE
  8
0
 10
30.0942
 20
-21.003
 11
30.2811
 21
-21.0266
  0
LINE
  8
0
 10
30.2811
 20
-21.0266
 11
30.4635
 21
-21.0734
  0
LINE
  8
0
 10
30.4635
 20
-21.0734
 11
30.6387
 21
-21.1427
  0
LINE
  8
0
 10
30.6387
 20
-21.1427
 11
30.8037
 21
-21.2335
  0
LINE
  8
0
 10
30.8037
 20
-21.2335
 11
30.9561
 21
-21.3442
  0
LINE
  8
0
 10
30.9561
 20
-21.3442
 11
31.0934
 21
-21.4732
  0
LINE
  8
0
 10
31.0934
 20
-21.4732
 11
31.2135
 21
-21.6183
  0
LINE
  8
0
 10
31.2135
 20
-21.6183
 11
31.3145
 21
-21.7774
  0
LINE
  8
0
 10
31.3145
 20
-21.7774
 11
31.3947
 21
-21.9478
  0
LINE
  8
0
 10
31.3947
 20
-21.9478
 11
31.4529
 21
-22.127
  0
LINE
  8
0
 10
31.4529
 20
-22.127
 11
31.4882
 21
-22.312
  0
LINE
  8
0
 10
31.4882
 20
-22.312
 11
31.5
 21
-22.5
  0
LINE
  8
0
 10
31.5
 20
-22.5
 11
31.4882
 21
-22.688
  0
LINE
  8
0
 10
31.4882
 20
-22.688
 11
31.4529
 21
-22.873
  0
LINE
  8
0
 10
31.4529
 20
-22.873
 11
31.3947
 21
-23.0522
  0
LINE
  8
0
 10
31.3947
 20
-23.0522
 11
31.3145
 21
-23.2226
  0
LINE
  8
0
 10
31.3145
 20
-23.2226
 11
31.2135
 21
-23.3817
  0
LINE
  8
0
 10
31.2135
 20
-23.3817
 11
31.0934
 21
-23.5268
  0
LINE
  8
0
 10
31.0934
 20
-23.5268
 11
30.9561
 21
-23.6558
  0
LINE
  8
0
 10
30.9561
 20
-23.6558
 11
30.8037
 21
-23.7665
  0
LINE
  8
0
 10
30.8037
 20
-23.7665
 11
30.6387
 21
-23.8572
  0
LINE
  8
0
 10
30.6387
 20
-23.8572
 11
30.4635
 21
-23.9266
  0
LINE
  8
0
 10
30.4635
 20
-23.9266
 11
30.2811
 21
-23.9734
  0
LINE
  8
0
 10
30.2811
 20
-23.9734
 11
30.0942
 21
-23.997
  0
LINE
  8
0
 10
30.0942
 20
-23.997
 11
29.9058
 21
-23.997
  0
LINE
  8
0
 10
29.9058
 20
-38.997
 11
29.7189
 21
-38.9734
  0
LINE
  8
0
 10
29.7189
 20
-38.9734
 11
29.5365
 21
-38.9266
  0
LINE
  8
0
 10
29.5365
 20
-38.9266
 11
29.3613
 21
-38.8572
  0
LINE
  8
0
 10
29.3613
 20
-38.8572
 11
29.1963
 21
-38.7665
  0
LINE
  8
0
 10
29.1963
 20
-38.7665
 11
29.0439
 21
-38.6558
  0
LINE
  8
0
 10
29.0439
 20
-38.6558
 11
28.9065
 21
-38.5268
  0
LINE
  8
0
 10
28.9065
 20
-38.5268
 11
28.7865
 21
-38.3817
  0
LINE
  8
0
 10
28.7865
 20
-38.3817
 11
28.6855
 21
-38.2226
  0
LINE
  8
0
 10
28.6855
 20
-38.2226
 11
28.6053
 21
-38.0522
  0
LINE
  8
0
 10
28.6053
 20
-38.0522
 11
28.5471
 21
-37.873
  0
LINE
  8
0
 10
28.5471
 20
-37.873
 11
28.5118
 21
-37.688
  0
LINE
  8
0
 10
28.5118
 20
-37.688
 11
28.5
 21
-37.5
  0
LINE
  8
0
 10
28.5
 20
-37.5
 11
28.5118
 21
-37.312
  0
LINE
  8
0
 10
28.5118
 20
-37.312
 11
28.5471
 21
-37.127
  0
LINE
  8
0
 10
28.5471
 20
-37.127
 11
28.6053
 21
-36.9478
  0
LINE
  8
0
 10
28.6053
 20
-36.9478
 11
28.6855
 21
-36.7774
  0
LINE
  8
0
 10
28.6855
 20
-36.7774
 11
28.7865
 21
-36.6183
  0
LINE
  8
0
 10
28.7865
 20
-36.6183
 11
28.9065
 21
-36.4732
  0
LINE
  8
0
 10
28.9065
 20
-36.4732
 11
29.0439
 21
-36.3442
  0
LINE
  8
0
 10
29.0439
 20
-36.3442
 11
29.1963
 21
-36.2335
  0
LINE
  8
0
 10
29.1963
 20
-36.2335
 11
29.3613
 21
-36.1428
  0
LINE
  8
0
 10
29.3613
 20
-36.1428
 11
29.5365
 21
-36.0734
  0
LINE
  8
0
 10
29.5365
 20
-36.0734
 11
29.7189
 21
-36.0266
  0
LINE
  8
0
 10
29.7189
 20
-36.0266
 11
29.9058
 21
-36.003
  0
LINE
  8
0
 10
29.9058
 20
-36.003
 11
30.0942
 21
-36.003
  0
LINE
  8
0
 10
30.0942
 20
-36.003
 11
30.2811
 21
-36.0266
  0
LINE
  8
0
 10
30.2811
 20
-36.0266
 11
30.4635
 21
-36.0734
  0
LINE
  8
0
 10
30.4635
 20
-36.0734
 11
30.6387
 21
-36.1428
  0
LINE
  8
0
 10
30.6387
 20
-36.1428
 11
30.8037
 21
-36.2335
  0
LINE
  8
0
 10
30.8037
 20
-36.2335
 11
30.9561
 21
-36.3442
  0
LINE
  8
0
 10
30.9561
 20
-36.3442
 11
31.0934
 21
-36.4732
  0
LINE
  8
0
 10
31.0934
 20
-36.4732
 11
31.2135
 21
-36.6183
  0
LINE
  8
0
 10
31.2135
 20
-36.6183
 11
31.3145
 21
-36.7774
  0
LINE
  8
0
 10
31.3145
 20
-36.7774
 11
31.3947
 21
-36.9478
  0
LINE
  8
0
 10
31.3947
 20
-36.9478
 11
31.4529
 21
-37.127
  0
LINE
  8
0
 10
31.4529
 20
-37.127
 11
31.4882
 21
-37.312
  0
LINE
  8
0
 10
31.4882
 20
-37.312
 11
31.5
 21
-37.5
  0
LINE
  8
0
 10
31.5
 20
-37.5
 11
31.4882
 21
-37.688
  0
LINE
  8
0
 10
31.4882
 20
-37.688
 11
31.4529
 21
-37.873
  0
LINE
  8
0
 10
31.4529
 20
-37.873
 11
31.3947
 21
-38.0522
  0
LINE
  8
0
 10
31.3947
 20
-38.0522
 11
31.3145
 21
-38.2226
  0
LINE
  8
0
 10
31.3145
 20
-38.2226
 11
31.2135
 21
-38.3817
  0
LINE
  8
0
 10
31.2135
 20
-38.3817
 11
31.0934
 21
-38.5268
  0
LINE
  8
0
 10
31.0934
 20
-38.5268
 11
30.9561
 21
-38.6558
  0
LINE
  8
0
 10
30.9561
 20
-38.6558
 11
30.8037
 21
-38.7665
  0
LINE
  8
0
 10
30.8037
 20
-38.7665
 11
30.6387
 21
-38.8572
  0
LINE
  8
0
 10
30.6387
 20
-38.8572
 11
30.4635
 21
-38.9266
  0
LINE
  8
0
 10
30.4635
 20
-38.9266
 11
30.2811
 21
-38.9734
  0
LINE
  8
0
 10
30.2811
 20
-38.9734
 11
30.0942
 21
-38.997
  0
LINE
  8
0
 10
30.0942
 20
-38.997
 11
29.9058
 21
-38.997
  0
LINE
  8
0
 10
-0.0941772
 20
-53.997
 11
-0.281067
 21
-53.9734
  0
LINE
  8
0
 10
-0.281067
 20
-53.9734
 11
-0.463516
 21
-53.9266
  0
LINE
  8
0
 10
-0.463516
 20
-53.9266
 11
-0.638657
 21
-53.8572
  0
LINE
  8
0
 10
-0.638657
 20
-53.8572
 11
-0.803726
 21
-53.7665
  0
LINE
  8
0
 10
-0.803726
 20
-53.7665
 11
-0.956131
 21
-53.6558
  0
LINE
  8
0
 10
-0.956131
 20
-53.6558
 11
-1.09344
 21
-53.5268
  0
LINE
  8
0
 10
-1.09344
 20
-53.5268
 11
-1.21352
 21
-53.3817
  0
LINE
  8
0
 10
-1.21352
 20
-53.3817
 11
-1.31445
 21
-53.2226
  0
LINE
  8
0
 10
-1.31445
 20
-53.2226
 11
-1.39465
 21
-53.0522
  0
LINE
  8
0
 10
-1.39465
 20
-53.0522
 11
-1.45287
 21
-52.873
  0
LINE
  8
0
 10
-1.45287
 20
-52.873
 11
-1.48816
 21
-52.688
  0
LINE
  8
0
 10
-1.48816
 20
-52.688
 11
-1.5
 21
-52.5
  0
LINE
  8
0
 10
-1.5
 20
-52.5
 11
-1.48816
 21
-52.312
  0
LINE
  8
0
 10
-1.48816
 20
-52.312
 11
-1.45287
 21
-52.127
  0
LINE
  8
0
 10
-1.45287
 20
-52.127
 11
-1.39465
 21
-51.9478
  0
LINE
  8
0
 10
-1.39465
 20
-51.9478
 11
-1.31445
 21
-51.7774
  0
LINE
  8
0
 10
-1.31445
 20
-51.7774
 11
-1.21352
 21
-51.6183
  0
LINE
  8
0
 10
-1.21352
 20
-51.6183
 11
-1.09344
 21
-51.4732
  0
LINE
  8
0
 10
-1.09344
 20
-51.4732
 11
-0.956131
 21
-51.3442
  0
LINE
  8
0
 10
-0.956131
 20
-51.3442
 11
-0.803726
 21
-51.2335
  0
LINE
  8
0
 10
-0.803726
 20
-51.2335
 11
-0.638657
 21
-51.1428
  0
LINE
  8
0
 10
-0.638657
 20
-51.1428
 11
-0.463516
 21
-51.0734
  0
LINE
  8
0
 10
-0.463516
 20
-51.0734
 11
-0.281067
 21
-51.0266
  0
LINE
  8
0
 10
-0.281067
 20
-51.0266
 11
-0.0941772
 21
-51.003
  0
LINE
  8
0
 10
-0.0941772
 20
-51.003
 11
0.0941772
 21
-51.003
  0
LINE
  8
0
 10
0.0941772
 20
-51.003
 11
0.281067
 21
-51.0266
  0
LINE
  8
0
 10
0.281067
 20
-51.0266
 11
0.463516
 21
-51.0734
  0
LINE
  8
0
 10
0.463516
 20
-51.0734
 11
0.638657
 21
-51.1428
  0
LINE
  8
0
 10
0.638657
 20
-51.1428
 11
0.803726
 21
-51.2335
  0
LINE
  8
0
 10
0.803726
 20
-51.2335
 11
0.956131
 21
-51.3442
  0
LINE
  8
0
 10
0.956131
 20
-51.3442
 11
1.09344
 21
-51.4732
  0
LINE
  8
0
 10
1.09344
 20
-51.4732
 11
1.21352
 21
-51.6183
  0
LINE
  8
0
 10
1.21352
 20
-51.6183
 11
1.31445
 21
-51.7774
  0
LINE
  8
0
 10
1.31445
 20
-51.7774
 11
1.39465
 21
-51.9478
  0
LINE
  8
0
 10
1.39465
 20
-51.9478
 11
1.45287
 21
-52.127
  0
LINE
  8
0
 10
1.45287
 20
-52.127
 11
1.48816
 21
-52.312
  0
LINE
  8
0
 10
1.48816
 20
-52.312
 11
1.5
 21
-52.5
  0
LINE
  8
0
 10
1.5
 20
-52.5
 11
1.48816
 21
-52.688
  0
LINE
  8
0
 10
1.48816
 20
-52.688
 11
1.45287
 21
-52.873
  0
LINE
  8
0
 10
1.45287
 20
-52.873
 11
1.39465
 21
-53.0522
  0
LINE
  8
0
 10
1.39465
 20
-53.0522
 11
1.31445
 21
-53.2226
  0
LINE
  8
0
 10
1.31445
 20
-53.2226
 11
1.21352
 21
-53.3817
  0
LINE
  8
0
 10
1.21352
 20
-53.3817
 11
1.09344
 21
-53.5268
  0
LINE
  8
0
 10
1.09344
 20
-53.5268
 11
0.956131
 21
-53.6558
  0
LINE
  8
0
 10
0.956131
 20
-53.6558
 11
0.803726
 21
-53.7665
  0
LINE
  8
0
 10
0.803726
 20
-53.7665
 11
0.638657
 21
-53.8572
  0
LINE
  8
0
 10
0.638657
 20
-53.8572
 11
0.463516
 21
-53.9266
  0
LINE
  8
0
 10
0.463516
 20
-53.9266
 11
0.281067
 21
-53.9734
  0
LINE
  8
0
 10
0.281067
 20
-53.9734
 11
0.0941772
 21
-53.997
  0
LINE
  8
0
 10
0.0941772
 20
-53.997
 11
-0.0941772
 21
-53.997
  0
LINE
  8
0
 10
-30.0942
 20
-53.997
 11
-30.2811
 21
-53.9734
  0
LINE
  8
0
 10
-30.2811
 20
-53.9734
 11
-30.4635
 21
-53.9266
  0
LINE
  8
0
 10
-30.4635
 20
-53.9266
 11
-30.6387
 21
-53.8572
  0
LINE
  8
0
 10
-30.6387
 20
-53.8572
 11
-30.8037
 21
-53.7665
  0
LINE
  8
0
 10
-30.8037
 20
-53.7665
 11
-30.9561
 21
-53.6558
  0
LINE
  8
0
 10
-30.9561
 20
-53.6558
 11
-31.0934
 21
-53.5268
  0
LINE
  8
0
 10
-31.0934
 20
-53.5268
 11
-31.2135
 21
-53.3817
  0
LINE
  8
0
 10
-31.2135
 20
-53.3817
 11
-31.3145
 21
-53.2226
  0
LINE
  8
0
 10
-31.3145
 20
-53.2226
 11
-31.3947
 21
-53.0522
  0
LINE
  8
0
 10
-31.3947
 20
-53.0522
 11
-31.4529
 21
-52.873
  0
LINE
  8
0
 10
-31.4529
 20
-52.873
 11
-31.4882
 21
-52.688
  0
LINE
  8
0
 10
-31.4882
 20
-52.688
 11
-31.5
 21
-52.5
  0
LINE
  8
0
 10
-31.5
 20
-52.5
 11
-31.4882
 21
-52.312
  0
LINE
  8
0
 10
-31.4882
 20
-52.312
 11
-31.4529
 21
-52.127
  0
LINE
  8
0
 10
-31.4529
 20
-52.127
 11
-31.3947
 21
-51.9478
  0
LINE
  8
0
 10
-31.3947
 20
-51.9478
 11
-31.3145
 21
-51.7774
  0
LINE
  8
0
 10
-31.3145
 20
-51.7774
 11
-31.2135
 21
-51.6183
  0
LINE
  8
0
 10
-31.2135
 20
-51.6183
 11
-31.0934
 21
-51.4732
  0
LINE
  8
0
 10
-31.0934
 20
-51.4732
 11
-30.9561
 21
-51.3442
  0
LINE
  8
0
 10
-30.9561
 20
-51.3442
 11
-30.8037
 21
-51.2335
  0
LINE
  8
0
 10
-30.8037
 20
-51.2335
 11
-30.6387
 21
-51.1428
  0
LINE
  8
0
 10
-30.6387
 20
-51.1428
 11
-30.4635
 21
-51.0734
  0
LINE
  8
0
 10
-30.4635
 20
-51.0734
 11
-30.2811
 21
-51.0266
  0
LINE
  8
0
 10
-30.2811
 20
-51.0266
 11
-30.0942
 21
-51.003
  0
LINE
  8
0
 10
-30.0942
 20
-51.003
 11
-29.9058
 21
-51.003
  0
LINE
  8
0
 10
-29.9058
 20
-51.003
 11
-29.7189
 21
-51.0266
  0
LINE
  8
0
 10
-29.7189
 20
-51.0266
 11
-29.5365
 21
-51.0734
  0
LINE
  8
0
 10
-29.5365
 20
-51.0734
 11
-29.3613
 21
-51.1428
  0
LINE
  8
0
 10
-29.3613
 20
-51.1428
 11
-29.1963
 21
-51.2335
  0
LINE
  8
0
 10
-29.1963
 20
-51.2335
 11
-29.0439
 21
-51.3442
  0
LINE
  8
0
 10
-29.0439
 20
-51.3442
 11
-28.9065
 21
-51.4732
  0
LINE
  8
0
 10
-28.9065
 20
-51.4732
 11
-28.7865
 21
-51.6183
  0
LINE
  8
0
 10
-28.7865
 20
-51.6183
 11
-28.6855
 21
-51.7774
  0
LINE
  8
0
 10
-28.6855
 20
-51.7774
 11
-28.6053
 21
-51.9478
  0
LINE
  8
0
 10
-28.6053
 20
-51.9478
 11
-28.5471
 21
-52.127
  0
LINE
  8
0
 10
-28.5471
 20
-52.127
 11
-28.5118
 21
-52.312
  0
LINE
  8
0
 10
-28.5118
 20
-52.312
 11
-28.5
 21
-52.5
  0
LINE
  8
0
 10
-28.5
 20
-52.5
 11
-28.5118
 21
-52.688
  0
LINE
  8
0
 10
-28.5118
 20
-52.688
 11
-28.5471
 21
-52.873
  0
LINE
  8
0
 10
-28.5471
 20
-52.873
 11
-28.6053
 21
-53.0522
  0
LINE
  8
0
 10
-28.6053
 20
-53.0522
 11
-28.6855
 21
-53.2226
  0
LINE
  8
0
 10
-28.6855
 20
-53.2226
 11
-28.7865
 21
-53.3817
  0
LINE
  8
0
 10
-28.7865
 20
-53.3817
 11
-28.9065
 21
-53.5268
  0
LINE
  8
0
 10
-28.9065
 20
-53.5268
 11
-29.0439
 21
-53.6558
  0
LINE
  8
0
 10
-29.0439
 20
-53.6558
 11
-29.1963
 21
-53.7665
  0
LINE
  8
0
 10
-29.1963
 20
-53.7665
 11
-29.3613
 21
-53.8572
  0
LINE
  8
0
 10
-29.3613
 20
-53.8572
 11
-29.5365
 21
-53.9266
  0
LINE
  8
0
 10
-29.5365
 20
-53.9266
 11
-29.7189
 21
-53.9734
  0
LINE
  8
0
 10
-29.7189
 20
-53.9734
 11
-29.9058
 21
-53.997
  0
LINE
  8
0
 10
-29.9058
 20
-53.997
 11
-30.0942
 21
-53.997
  0
LINE
  8
0
 10
29.9058
 20
-53.997
 11
29.7189
 21
-53.9734
  0
LINE
  8
0
 10
29.7189
 20
-53.9734
 11
29.5365
 21
-53.9266
  0
LINE
  8
0
 10
29.5365
 20
-53.9266
 11
29.3613
 21
-53.8572
  0
LINE
  8
0
 10
29.3613
 20
-53.8572
 11
29.1963
 21
-53.7665
  0
LINE
  8
0
 10
29.1963
 20
-53.7665
 11
29.0439
 21
-53.6558
  0
LINE
  8
0
 10
29.0439
 20
-53.6558
 11
28.9065
 21
-53.5268
  0
LINE
  8
0
 10
28.9065
 20
-53.5268
 11
28.7865
 21
-53.3817
  0
LINE
  8
0
 10
28.7865
 20
-53.3817
 11
28.6855
 21
-53.2226
  0
LINE
  8
0
 10
28.6855
 20
-53.2226
 11
28.6053
 21
-53.0522
  0
LINE
  8
0
 10
28.6053
 20
-53.0522
 11
28.5471
 21
-52.873
  0
LINE
  8
0
 10
28.5471
 20
-52.873
 11
28.5118
 21
-52.688
  0
LINE
  8
0
 10
28.5118
 20
-52.688
 11
28.5
 21
-52.5
  0
LINE
  8
0
 10
28.5
 20
-52.5
 11
28.5118
 21
-52.312
  0
LINE
  8
0
 10
28.5118
 20
-52.312
 11
28.5471
 21
-52.127
  0
LINE
  8
0
 10
28.5471
 20
-52.127
 11
28.6053
 21
-51.9478
  0
LINE
  8
0
 10
28.6053
 20
-51.9478
 11
28.6855
 21
-51.7774
  0
LINE
  8
0
 10
28.6855
 20
-51.7774
 11
28.7865
 21
-51.6183
  0
LINE
  8
0
 10
28.7865
 20
-51.6183
 11
28.9065
 21
-51.4732
  0
LINE
  8
0
 10
28.9065
 20
-51.4732
 11
29.0439
 21
-51.3442
  0
LINE
  8
0
 10
29.0439
 20
-51.3442
 11
29.1963
 21
-51.2335
  0
LINE
  8
0
 10
29.1963
 20
-51.2335
 11
29.3613
 21
-51.1428
  0
LINE
  8
0
 10
29.3613
 20
-51.1428
 11
29.5365
 21
-51.0734
  0
LINE
  8
0
 10
29.5365
 20
-51.0734
 11
29.7189
 21
-51.0266
  0
LINE
  8
0
 10
29.7189
 20
-51.0266
 11
29.9058
 21
-51.003
  0
LINE
  8
0
 10
29.9058
 20
-51.003
 11
30.0942
 21
-51.003
  0
LINE
  8
0
 10
30.0942
 20
-51.003
 11
30.2811
 21
-51.0266
  0
LINE
  8
0
 10
30.2811
 20
-51.0266
 11
30.4635
 21
-51.0734
  0
LINE
  8
0
 10
30.4635
 20
-51.0734
 11
30.6387
 21
-51.1428
  0
LINE
  8
0
 10
30.6387
 20
-51.1428
 11
30.8037
 21
-51.2335
  0
LINE
  8
0
 10
30.8037
 20
-51.2335
 11
30.9561
 21
-51.3442
  0
LINE
  8
0
 10
30.9561
 20
-51.3442
 11
31.0934
 21
-51.4732
  0
LINE
  8
0
 10
31.0934
 20
-51.4732
 11
31.2135
 21
-51.6183
  0
LINE
  8
0
 10
31.2135
 20
-51.6183
 11
31.3145
 21
-51.7774
  0
LINE
  8
0
 10
31.3145
 20
-51.7774
 11
31.3947
 21
-51.9478
  0
LINE
  8
0
 10
31.3947
 20
-51.9478
 11
31.4529
 21
-52.127
  0
LINE
  8
0
 10
31.4529
 20
-52.127
 11
31.4882
 21
-52.312
  0
LINE
  8
0
 10
31.4882
 20
-52.312
 11
31.5
 21
-52.5
  0
LINE
  8
0
 10
31.5
 20
-52.5
 11
31.4882
 21
-52.688
  0
LINE
  8
0
 10
31.4882
 20
-52.688
 11
31.4529
 21
-52.873
  0
LINE
  8
0
 10
31.4529
 20
-52.873
 11
31.3947
 21
-53.0522
  0
LINE
  8
0
 10
31.3947
 20
-53.0522
 11
31.3145
 21
-53.2226
  0
LINE
  8
0
 10
31.3145
 20
-53.2226
 11
31.2135
 21
-53.3817
  0
LINE
  8
0
 10
31.2135
 20
-53.3817
 11
31.0934
 21
-53.5268
  0
LINE
  8
0
 10
31.0934
 20
-53.5268
 11
30.9561
 21
-53.6558
  0
LINE
  8
0
 10
30.9561
 20
-53.6558
 11
30.8037
 21
-53.7665
  0
LINE
  8
0
 10
30.8037
 20
-53.7665
 11
30.6387
 21
-53.8572
  0
LINE
  8
0
 10
30.6387
 20
-53.8572
 11
30.4635
 21
-53.9266
  0
LINE
  8
0
 10
30.4635
 20
-53.9266
 11
30.2811
 21
-53.9734
  0
LINE
  8
0
 10
30.2811
 20
-53.9734
 11
30.0942
 21
-53.997
  0
LINE
  8
0
 10
30.0942
 20
-53.997
 11
29.9058
 21
-53.997
  0
LINE
  8
0
 10
-15.0942
 20
-53.997
 11
-15.2811
 21
-53.9734
  0
LINE
  8
0
 10
-15.2811
 20
-53.9734
 11
-15.4635
 21
-53.9266
  0
LINE
  8
0
 10
-15.4635
 20
-53.9266
 11
-15.6387
 21
-53.8572
  0
LINE
  8
0
 10
-15.6387
 20
-53.8572
 11
-15.8037
 21
-53.7665
  0
LINE
  8
0
 10
-15.8037
 20
-53.7665
 11
-15.9561
 21
-53.6558
  0
LINE
  8
0
 10
-15.9561
 20
-53.6558
 11
-16.0934
 21
-53.5268
  0
LINE
  8
0
 10
-16.0934
 20
-53.5268
 11
-16.2135
 21
-53.3817
  0
LINE
  8
0
 10
-16.2135
 20
-53.3817
 11
-16.3145
 21
-53.2226
  0
LINE
  8
0
 10
-16.3145
 20
-53.2226
 11
-16.3947
 21
-53.0522
  0
LINE
  8
0
 10
-16.3947
 20
-53.0522
 11
-16.4529
 21
-52.873
  0
LINE
  8
0
 10
-16.4529
 20
-52.873
 11
-16.4882
 21
-52.688
  0
LINE
  8
0
 10
-16.4882
 20
-52.688
 11
-16.5
 21
-52.5
  0
LINE
  8
0
 10
-16.5
 20
-52.5
 11
-16.4882
 21
-52.312
  0
LINE
  8
0
 10
-16.4882
 20
-52.312
 11
-16.4529
 21
-52.127
  0
LINE
  8
0
 10
-16.4529
 20
-52.127
 11
-16.3947
 21
-51.9478
  0
LINE
  8
0
 10
-16.3947
 20
-51.9478
 11
-16.3145
 21
-51.7774
  0
LINE
  8
0
 10
-16.3145
 20
-51.7774
 11
-16.2135
 21
-51.6183
  0
LINE
  8
0
 10
-16.2135
 20
-51.6183
 11
-16.0934
 21
-51.4732
  0
LINE
  8
0
 10
-16.0934
 20
-51.4732
 11
-15.9561
 21
-51.3442
  0
LINE
  8
0
 10
-15.9561
 20
-51.3442
 11
-15.8037
 21
-51.2335
  0
LINE
  8
0
 10
-15.8037
 20
-51.2335
 11
-15.6387
 21
-51.1428
  0
LINE
  8
0
 10
-15.6387
 20
-51.1428
 11
-15.4635
 21
-51.0734
  0
LINE
  8
0
 10
-15.4635
 20
-51.0734
 11
-15.2811
 21
-51.0266
  0
LINE
  8
0
 10
-15.2811
 20
-51.0266
 11
-15.0942
 21
-51.003
  0
LINE
  8
0
 10
-15.0942
 20
-51.003
 11
-14.9058
 21
-51.003
  0
LINE
  8
0
 10
-14.9058
 20
-51.003
 11
-14.7189
 21
-51.0266
  0
LINE
  8
0
 10
-14.7189
 20
-51.0266
 11
-14.5365
 21
-51.0734
  0
LINE
  8
0
 10
-14.5365
 20
-51.0734
 11
-14.3613
 21
-51.1428
  0
LINE
  8
0
 10
-14.3613
 20
-51.1428
 11
-14.1963
 21
-51.2335
  0
LINE
  8
0
 10
-14.1963
 20
-51.2335
 11
-14.0439
 21
-51.3442
  0
LINE
  8
0
 10
-14.0439
 20
-51.3442
 11
-13.9065
 21
-51.4732
  0
LINE
  8
0
 10
-13.9065
 20
-51.4732
 11
-13.7865
 21
-51.6183
  0
LINE
  8
0
 10
-13.7865
 20
-51.6183
 11
-13.6855
 21
-51.7774
  0
LINE
  8
0
 10
-13.6855
 20
-51.7774
 11
-13.6053
 21
-51.9478
  0
LINE
  8
0
 10
-13.6053
 20
-51.9478
 11
-13.5471
 21
-52.127
  0
LINE
  8
0
 10
-13.5471
 20
-52.127
 11
-13.5118
 21
-52.312
  0
LINE
  8
0
 10
-13.5118
 20
-52.312
 11
-13.5
 21
-52.5
  0
LINE
  8
0
 10
-13.5
 20
-52.5
 11
-13.5118
 21
-52.688
  0
LINE
  8
0
 10
-13.5118
 20
-52.688
 11
-13.5471
 21
-52.873
  0
LINE
  8
0
 10
-13.5471
 20
-52.873
 11
-13.6053
 21
-53.0522
  0
LINE
  8
0
 10
-13.6053
 20
-53.0522
 11
-13.6855
 21
-53.2226
  0
LINE
  8
0
 10
-13.6855
 20
-53.2226
 11
-13.7865
 21
-53.3817
  0
LINE
  8
0
 10
-13.7865
 20
-53.3817
 11
-13.9065
 21
-53.5268
  0
LINE
  8
0
 10
-13.9065
 20
-53.5268
 11
-14.0439
 21
-53.6558
  0
LINE
  8
0
 10
-14.0439
 20
-53.6558
 11
-14.1963
 21
-53.7665
  0
LINE
  8
0
 10
-14.1963
 20
-53.7665
 11
-14.3613
 21
-53.8572
  0
LINE
  8
0
 10
-14.3613
 20
-53.8572
 11
-14.5365
 21
-53.9266
  0
LINE
  8
0
 10
-14.5365
 20
-53.9266
 11
-14.7189
 21
-53.9734
  0
LINE
  8
0
 10
-14.7189
 20
-53.9734
 11
-14.9058
 21
-53.997
  0
LINE
  8
0
 10
-14.9058
 20
-53.997
 11
-15.0942
 21
-53.997
  0
LINE
  8
0
 10
-28.6855
 20
-8.22263
 11
-28.7865
 21
-8.38167
  0
LINE
  8
0
 10
-28.7865
 20
-8.38167
 11
-28.9065
 21
-8.52681
  0
LINE
  8
0
 10
-28.9065
 20
-8.52681
 11
-29.0439
 21
-8.65576
  0
LINE
  8
0
 10
-29.0439
 20
-8.65576
 11
-29.1963
 21
-8.76648
  0
LINE
  8
0
 10
-29.1963
 20
-8.76648
 11
-29.3613
 21
-8.85724
  0
LINE
  8
0
 10
-29.3613
 20
-8.85724
 11
-29.5365
 21
-8.92657
  0
LINE
  8
0
 10
-29.5365
 20
-8.92657
 11
-29.7189
 21
-8.97342
  0
LINE
  8
0
 10
-29.7189
 20
-8.97342
 11
-29.9058
 21
-8.99704
  0
LINE
  8
0
 10
-29.9058
 20
-8.99704
 11
-30.0942
 21
-8.99704
  0
LINE
  8
0
 10
-30.0942
 20
-8.99704
 11
-30.2811
 21
-8.97342
  0
LINE
  8
0
 10
-30.2811
 20
-8.97342
 11
-30.4635
 21
-8.92657
  0
LINE
  8
0
 10
-30.4635
 20
-8.92657
 11
-30.6387
 21
-8.85724
  0
LINE
  8
0
 10
-30.6387
 20
-8.85724
 11
-30.8037
 21
-8.76648
  0
LINE
  8
0
 10
-30.8037
 20
-8.76648
 11
-30.9561
 21
-8.65576
  0
LINE
  8
0
 10
-30.9561
 20
-8.65576
 11
-31.0934
 21
-8.52681
  0
LINE
  8
0
 10
-31.0934
 20
-8.52681
 11
-31.2135
 21
-8.38167
  0
LINE
  8
0
 10
-31.2135
 20
-8.38167
 11
-31.3145
 21
-8.22263
  0
LINE
  8
0
 10
-31.3145
 20
-8.22263
 11
-31.3947
 21
-8.05219
  0
LINE
  8
0
 10
-31.3947
 20
-8.05219
 11
-31.4529
 21
-7.87303
  0
LINE
  8
0
 10
-31.4529
 20
-7.87303
 11
-31.4882
 21
-7.68799
  0
LINE
  8
0
 10
-31.4882
 20
-7.68799
 11
-31.5
 21
-7.5
  0
LINE
  8
0
 10
-31.5
 20
-7.5
 11
-31.4882
 21
-7.312
  0
LINE
  8
0
 10
-31.4882
 20
-7.312
 11
-31.4529
 21
-7.12695
  0
LINE
  8
0
 10
-31.4529
 20
-7.12695
 11
-31.3947
 21
-6.9478
  0
LINE
  8
0
 10
-31.3947
 20
-6.9478
 11
-31.3145
 21
-6.77736
  0
LINE
  8
0
 10
-31.3145
 20
-6.77736
 11
-31.2135
 21
-6.61832
  0
LINE
  8
0
 10
-31.2135
 20
-6.61832
 11
-31.0934
 21
-6.47318
  0
LINE
  8
0
 10
-31.0934
 20
-6.47318
 11
-30.9561
 21
-6.34422
  0
LINE
  8
0
 10
-30.9561
 20
-6.34422
 11
-30.8037
 21
-6.23351
  0
LINE
  8
0
 10
-30.8037
 20
-6.23351
 11
-30.6387
 21
-6.14275
  0
LINE
  8
0
 10
-30.6387
 20
-6.14275
 11
-30.4635
 21
-6.07341
  0
LINE
  8
0
 10
-30.4635
 20
-6.07341
 11
-30.2811
 21
-6.02657
  0
LINE
  8
0
 10
-30.2811
 20
-6.02657
 11
-30.0942
 21
-6.00294
  0
LINE
  8
0
 10
-30.0942
 20
-6.00294
 11
-29.9058
 21
-6.00294
  0
LINE
  8
0
 10
-29.9058
 20
-6.00294
 11
-29.7189
 21
-6.02657
  0
LINE
  8
0
 10
-29.7189
 20
-6.02657
 11
-29.5365
 21
-6.07341
  0
LINE
  8
0
 10
-29.5365
 20
-6.07341
 11
-29.3613
 21
-6.14275
  0
LINE
  8
0
 10
-29.3613
 20
-6.14275
 11
-29.1963
 21
-6.23351
  0
LINE
  8
0
 10
-29.1963
 20
-6.23351
 11
-29.0439
 21
-6.34422
  0
LINE
  8
0
 10
-29.0439
 20
-6.34422
 11
-28.9065
 21
-6.47318
  0
LINE
  8
0
 10
-28.9065
 20
-6.47318
 11
-28.7865
 21
-6.61832
  0
LINE
  8
0
 10
-28.7865
 20
-6.61832
 11
-28.6855
 21
-6.77736
  0
LINE
  8
0
 10
-28.6855
 20
-6.77736
 11
-28.6053
 21
-6.9478
  0
LINE
  8
0
 10
-28.6053
 20
-6.9478
 11
-28.5471
 21
-7.12695
  0
LINE
  8
0
 10
-28.5471
 20
-7.12695
 11
-28.5118
 21
-7.312
  0
LINE
  8
0
 10
-28.5118
 20
-7.312
 11
-28.5
 21
-7.5
  0
LINE
  8
0
 10
-28.5
 20
-7.5
 11
-28.5118
 21
-7.68799
  0
LINE
  8
0
 10
-28.5118
 20
-7.68799
 11
-28.5471
 21
-7.87303
  0
LINE
  8
0
 10
-28.5471
 20
-7.87303
 11
-28.6053
 21
-8.05219
  0
LINE
  8
0
 10
-28.6053
 20
-8.05219
 11
-28.6855
 21
-8.22263
  0
ENDSEC
  0
SECTION
  2
OBJECTS
  0
DICTIONARY
  0
ENDSEC
  0
EOF
