<?xml version="1.0" standalone="no"?>
<!DOCTYPE svg PUBLIC "-//W3C//DTD SVG 1.1//EN" "http://www.w3.org/Graphics/SVG/1.1/DTD/svg11.dtd">
<svg width="41mm" height="14mm" viewBox="-20 -7 41 14" xmlns="http://www.w3.org/2000/svg" version="1.1">
<title>OpenSCAD Model</title>
<path d="
M -11.0844,4.13887 L -16.6469,4.13887 L -16.6469,-6.73535 L -19.2476,-6.73535 L -19.2476,6.42686 L -11.0844,6.42686
 z
M -18.7476,5.92686 L -18.7476,-6.23535 L -17.1469,-6.23535 L -17.1469,4.13887 L -17.1381,4.23256 L -17.1225,4.29338
 L -17.0993,4.35176 L -17.0691,4.40678 L -17.0322,4.45758 L -16.9892,4.50336 L -16.9408,4.54338 L -16.8878,4.57703
 L -16.831,4.60376 L -16.7713,4.62317 L -16.7096,4.63493 L -16.6469,4.63887 L -11.5844,4.63887 L -11.5844,5.92686
 z
M -0.93602,4.13887 L -6.53395,4.13887 L -6.53395,0.686066 L -1.465,0.686066 L -1.465,-1.60191 L -6.53395,-1.60191
 L -6.53395,-4.44736 L -0.93602,-4.44736 L -0.93602,-6.73535 L -9.13448,-6.73535 L -9.13448,6.42686 L -0.93602,6.42686
 z
M -8.63448,5.92686 L -8.63448,-6.23535 L -1.43602,-6.23535 L -1.43602,-4.94736 L -6.53395,-4.94736 L -6.62764,-4.93851
 L -6.68846,-4.92288 L -6.74684,-4.89977 L -6.80186,-4.86952 L -6.85266,-4.83261 L -6.89844,-4.78963 L -6.93846,-4.74126
 L -6.97211,-4.68823 L -6.99884,-4.63142 L -7.01825,-4.5717 L -7.03001,-4.51003 L -7.03395,-4.44736 L -7.03395,-1.60191
 L -7.0251,-1.50822 L -7.00948,-1.4474 L -6.98636,-1.38902 L -6.95612,-1.334 L -6.9192,-1.2832 L -6.87622,-1.23743
 L -6.82785,-1.1974 L -6.77483,-1.16376 L -6.71802,-1.13702 L -6.65829,-1.11761 L -6.59662,-1.10585 L -6.53395,-1.10191
 L -1.965,-1.10191 L -1.965,0.186066 L -6.53395,0.186066 L -6.62764,0.194916 L -6.68846,0.210541 L -6.74684,0.233658
 L -6.80186,0.263901 L -6.85266,0.300812 L -6.89844,0.343796 L -6.93846,0.392166 L -6.97211,0.44519 L -6.99884,0.501999
 L -7.01825,0.561722 L -7.03001,0.623398 L -7.03395,0.686066 L -7.03395,4.13887 L -7.0251,4.23256 L -7.00948,4.29338
 L -6.98636,4.35176 L -6.95612,4.40678 L -6.9192,4.45758 L -6.87622,4.50336 L -6.82785,4.54338 L -6.77483,4.57703
 L -6.71802,4.60376 L -6.65829,4.62317 L -6.59662,4.63493 L -6.53395,4.63887 L -1.43602,4.63887 L -1.43602,5.92686
 z
M 14.4239,0.56958 L 17.6769,0.56958 L 17.6769,6.42686 L 20.2775,6.42686 L 20.2775,-6.73535 L 17.6769,-6.73535
 L 17.6769,-1.7184 L 14.4239,-1.7184 L 14.4239,-6.73535 L 11.8233,-6.73535 L 11.8233,6.42686 L 14.4239,6.42686
 z
M 12.3233,5.92686 L 12.3233,-6.23535 L 13.9239,-6.23535 L 13.9239,-1.7184 L 13.9328,-1.62471 L 13.9484,-1.56389
 L 13.9715,-1.50551 L 14.0017,-1.45049 L 14.0387,-1.39969 L 14.0816,-1.35391 L 14.13,-1.31389 L 14.183,-1.28024
 L 14.2398,-1.25351 L 14.2996,-1.2341 L 14.3612,-1.22234 L 14.4239,-1.2184 L 17.6769,-1.2184 L 17.7706,-1.22725
 L 17.8314,-1.24287 L 17.8898,-1.26599 L 17.9448,-1.29623 L 17.9956,-1.33315 L 18.0414,-1.37613 L 18.0814,-1.4245
 L 18.1151,-1.47752 L 18.1418,-1.53433 L 18.1612,-1.59406 L 18.173,-1.65573 L 18.1769,-1.7184 L 18.1769,-6.23535
 L 19.7775,-6.23535 L 19.7775,5.92686 L 18.1769,5.92686 L 18.1769,0.56958 L 18.168,0.475891 L 18.1524,0.41507
 L 18.1293,0.356689 L 18.0991,0.301666 L 18.0621,0.25087 L 18.0192,0.205093 L 17.9708,0.16507 L 17.9178,0.131424
 L 17.861,0.104691 L 17.8012,0.0852814 L 17.7396,0.0735168 L 17.6769,0.0695801 L 14.4239,0.0695801 L 14.3302,0.0784302
 L 14.2694,0.0940552 L 14.211,0.117172 L 14.156,0.147415 L 14.1052,0.184326 L 14.0594,0.22731 L 14.0194,0.275681
 L 13.9857,0.328705 L 13.959,0.385513 L 13.9396,0.445236 L 13.9278,0.506912 L 13.9239,0.56958 L 13.9239,5.92686
 z
M 3.68497,3.17375 L 7.16714,3.17375 L 7.97809,6.42686 L 10.5787,6.42686 L 7.02611,-6.73535 L 3.84357,-6.73535
 L 0.290939,6.42686 L 2.89159,6.42686 z
M 0.943787,5.92686 L 4.2265,-6.23535 L 6.64317,-6.23535 L 9.92589,5.92686 L 8.36874,5.92686 L 7.6523,3.05281
 L 7.64267,3.01924 L 7.61955,2.96086 L 7.58931,2.90584 L 7.5524,2.85504 L 7.50941,2.80927 L 7.46104,2.76924
 L 7.40802,2.7356 L 7.35121,2.70886 L 7.29149,2.68945 L 7.22981,2.67769 L 7.16714,2.67375 L 3.68497,2.67375
 L 3.64752,2.67516 L 3.58533,2.68378 L 3.5247,2.70013 L 3.46661,2.72395 L 3.41196,2.75487 L 3.36162,2.79239
 L 3.31636,2.83592 L 3.27693,2.88478 L 3.24393,2.9382 L 3.21788,2.99533 L 3.1992,3.05528 L 2.49887,5.92686
 z
M 6.74535,1.52893 L 6.80655,1.51492 L 6.86552,1.49335 L 6.92133,1.46455 L 6.97307,1.42899 L 7.01996,1.38722
 L 7.06123,1.3399 L 7.09625,1.28778 L 7.12447,1.23169 L 7.14543,1.1725 L 7.15881,1.11116 L 7.1644,1.04861
 L 7.16209,0.98587 L 7.15195,0.923904 L 5.91786,-4.46536 L 5.89008,-4.55066 L 5.86179,-4.6067 L 5.82668,-4.65877
 L 5.78532,-4.70602 L 5.73837,-4.74771 L 5.68657,-4.7832 L 5.63074,-4.8119 L 5.57173,-4.83339 L 5.5105,-4.84732
 L 5.44801,-4.85345 L 5.38525,-4.85172 L 5.3232,-4.84212 L 5.26283,-4.82481 L 5.20512,-4.80009 L 5.15096,-4.76833
 L 5.1012,-4.73003 L 5.05664,-4.68579 L 5.01797,-4.63631 L 4.98581,-4.58238 L 4.96066,-4.52486 L 4.94293,-4.46461
 L 3.71756,0.924652 L 3.7061,1.0041 L 3.7061,1.06691 L 3.71396,1.1292 L 3.72958,1.19002 L 3.7527,1.2484
 L 3.78294,1.30342 L 3.81985,1.35422 L 3.86284,1.39999 L 3.91121,1.44002 L 3.96423,1.47366 L 4.02104,1.5004
 L 4.08076,1.51981 L 4.14244,1.53157 L 4.20511,1.53551 L 6.66457,1.53551 z
M 4.20511,1.03551 L 5.43048,-4.35376 L 6.66457,1.03551 z
" stroke="black" fill="lightgray" stroke-width="0.5"/>
</svg>
