  0
SECTION
  2
BLOCKS
  0
ENDSEC
  0
SECTION
  2
ENTITIES
  0
LINE
  8
0
 10
-11.0844
 20
-4.13887
 11
-16.6469
 21
-4.13887
  0
LINE
  8
0
 10
-16.6469
 20
-4.13887
 11
-16.6469
 21
6.73535
  0
LINE
  8
0
 10
-16.6469
 20
6.73535
 11
-19.2476
 21
6.73535
  0
LINE
  8
0
 10
-19.2476
 20
6.73535
 11
-19.2476
 21
-6.42686
  0
LINE
  8
0
 10
-19.2476
 20
-6.42686
 11
-11.0844
 21
-6.42686
  0
LINE
  8
0
 10
-11.0844
 20
-6.42686
 11
-11.0844
 21
-4.13887
  0
LINE
  8
0
 10
-18.7476
 20
-5.92686
 11
-18.7476
 21
6.23535
  0
LINE
  8
0
 10
-18.7476
 20
6.23535
 11
-17.1469
 21
6.23535
  0
LINE
  8
0
 10
-17.1469
 20
6.23535
 11
-17.1469
 21
-4.13887
  0
LINE
  8
0
 10
-17.1469
 20
-4.13887
 11
-17.1381
 21
-4.23256
  0
LINE
  8
0
 10
-17.1381
 20
-4.23256
 11
-17.1225
 21
-4.29338
  0
LINE
  8
0
 10
-17.1225
 20
-4.29338
 11
-17.0993
 21
-4.35176
  0
LINE
  8
0
 10
-17.0993
 20
-4.35176
 11
-17.0691
 21
-4.40678
  0
LINE
  8
0
 10
-17.0691
 20
-4.40678
 11
-17.0322
 21
-4.45758
  0
LINE
  8
0
 10
-17.0322
 20
-4.45758
 11
-16.9892
 21
-4.50336
  0
LINE
  8
0
 10
-16.9892
 20
-4.50336
 11
-16.9408
 21
-4.54338
  0
LINE
  8
0
 10
-16.9408
 20
-4.54338
 11
-16.8878
 21
-4.57703
  0
LINE
  8
0
 10
-16.8878
 20
-4.57703
 11
-16.831
 21
-4.60376
  0
LINE
  8
0
 10
-16.831
 20
-4.60376
 11
-16.7713
 21
-4.62317
  0
LINE
  8
0
 10
-16.7713
 20
-4.62317
 11
-16.7096
 21
-4.63493
  0
LINE
  8
0
 10
-16.7096
 20
-4.63493
 11
-16.6469
 21
-4.63887
  0
LINE
  8
0
 10
-16.6469
 20
-4.63887
 11
-11.5844
 21
-4.63887
  0
LINE
  8
0
 10
-11.5844
 20
-4.63887
 11
-11.5844
 21
-5.92686
  0
LINE
  8
0
 10
-11.5844
 20
-5.92686
 11
-18.7476
 21
-5.92686
  0
LINE
  8
0
 10
-0.93602
 20
-4.13887
 11
-6.53395
 21
-4.13887
  0
LINE
  8
0
 10
-6.53395
 20
-4.13887
 11
-6.53395
 21
-0.686066
  0
LINE
  8
0
 10
-6.53395
 20
-0.686066
 11
-1.465
 21
-0.686066
  0
LINE
  8
0
 10
-1.465
 20
-0.686066
 11
-1.465
 21
1.60191
  0
LINE
  8
0
 10
-1.465
 20
1.60191
 11
-6.53395
 21
1.60191
  0
LINE
  8
0
 10
-6.53395
 20
1.60191
 11
-6.53395
 21
4.44736
  0
LINE
  8
0
 10
-6.53395
 20
4.44736
 11
-0.93602
 21
4.44736
  0
LINE
  8
0
 10
-0.93602
 20
4.44736
 11
-0.93602
 21
6.73535
  0
LINE
  8
0
 10
-0.93602
 20
6.73535
 11
-9.13448
 21
6.73535
  0
LINE
  8
0
 10
-9.13448
 20
6.73535
 11
-9.13448
 21
-6.42686
  0
LINE
  8
0
 10
-9.13448
 20
-6.42686
 11
-0.93602
 21
-6.42686
  0
LINE
  8
0
 10
-0.93602
 20
-6.42686
 11
-0.93602
 21
-4.13887
  0
LINE
  8
0
 10
-8.63448
 20
-5.92686
 11
-8.63448
 21
6.23535
  0
LINE
  8
0
 10
-8.63448
 20
6.23535
 11
-1.43602
 21
6.23535
  0
LINE
  8
0
 10
-1.43602
 20
6.23535
 11
-1.43602
 21
4.94736
  0
LINE
  8
0
 10
-1.43602
 20
4.94736
 11
-6.53395
 21
4.94736
  0
LINE
  8
0
 10
-6.53395
 20
4.94736
 11
-6.62764
 21
4.93851
  0
LINE
  8
0
 10
-6.62764
 20
4.93851
 11
-6.68846
 21
4.92288
  0
LINE
  8
0
 10
-6.68846
 20
4.92288
 11
-6.74684
 21
4.89977
  0
LINE
  8
0
 10
-6.74684
 20
4.89977
 11
-6.80186
 21
4.86952
  0
LINE
  8
0
 10
-6.80186
 20
4.86952
 11
-6.85266
 21
4.83261
  0
LINE
  8
0
 10
-6.85266
 20
4.83261
 11
-6.89844
 21
4.78963
  0
LINE
  8
0
 10
-6.89844
 20
4.78963
 11
-6.93846
 21
4.74126
  0
LINE
  8
0
 10
-6.93846
 20
4.74126
 11
-6.97211
 21
4.68823
  0
LINE
  8
0
 10
-6.97211
 20
4.68823
 11
-6.99884
 21
4.63142
  0
LINE
  8
0
 10
-6.99884
 20
4.63142
 11
-7.01825
 21
4.5717
  0
LINE
  8
0
 10
-7.01825
 20
4.5717
 11
-7.03001
 21
4.51003
  0
LINE
  8
0
 10
-7.03001
 20
4.51003
 11
-7.03395
 21
4.44736
  0
LINE
  8
0
 10
-7.03395
 20
4.44736
 11
-7.03395
 21
1.60191
  0
LINE
  8
0
 10
-7.03395
 20
1.60191
 11
-7.0251
 21
1.50822
  0
LINE
  8
0
 10
-7.0251
 20
1.50822
 11
-7.00948
 21
1.4474
  0
LINE
  8
0
 10
-7.00948
 20
1.4474
 11
-6.98636
 21
1.38902
  0
LINE
  8
0
 10
-6.98636
 20
1.38902
 11
-6.95612
 21
1.334
  0
LINE
  8
0
 10
-6.95612
 20
1.334
 11
-6.9192
 21
1.2832
  0
LINE
  8
0
 10
-6.9192
 20
1.2832
 11
-6.87622
 21
1.23743
  0
LINE
  8
0
 10
-6.87622
 20
1.23743
 11
-6.82785
 21
1.1974
  0
LINE
  8
0
 10
-6.82785
 20
1.1974
 11
-6.77483
 21
1.16376
  0
LINE
  8
0
 10
-6.77483
 20
1.16376
 11
-6.71802
 21
1.13702
  0
LINE
  8
0
 10
-6.71802
 20
1.13702
 11
-6.65829
 21
1.11761
  0
LINE
  8
0
 10
-6.65829
 20
1.11761
 11
-6.59662
 21
1.10585
  0
LINE
  8
0
 10
-6.59662
 20
1.10585
 11
-6.53395
 21
1.10191
  0
LINE
  8
0
 10
-6.53395
 20
1.10191
 11
-1.965
 21
1.10191
  0
LINE
  8
0
 10
-1.965
 20
1.10191
 11
-1.965
 21
-0.186066
  0
LINE
  8
0
 10
-1.965
 20
-0.186066
 11
-6.53395
 21
-0.186066
  0
LINE
  8
0
 10
-6.53395
 20
-0.186066
 11
-6.62764
 21
-0.194916
  0
LINE
  8
0
 10
-6.62764
 20
-0.194916
 11
-6.68846
 21
-0.210541
  0
LINE
  8
0
 10
-6.68846
 20
-0.210541
 11
-6.74684
 21
-0.233658
  0
LINE
  8
0
 10
-6.74684
 20
-0.233658
 11
-6.80186
 21
-0.263901
  0
LINE
  8
0
 10
-6.80186
 20
-0.263901
 11
-6.85266
 21
-0.300812
  0
LINE
  8
0
 10
-6.85266
 20
-0.300812
 11
-6.89844
 21
-0.343796
  0
LINE
  8
0
 10
-6.89844
 20
-0.343796
 11
-6.93846
 21
-0.392166
  0
LINE
  8
0
 10
-6.93846
 20
-0.392166
 11
-6.97211
 21
-0.44519
  0
LINE
  8
0
 10
-6.97211
 20
-0.44519
 11
-6.99884
 21
-0.501999
  0
LINE
  8
0
 10
-6.99884
 20
-0.501999
 11
-7.01825
 21
-0.561722
  0
LINE
  8
0
 10
-7.01825
 20
-0.561722
 11
-7.03001
 21
-0.623398
  0
LINE
  8
0
 10
-7.03001
 20
-0.623398
 11
-7.03395
 21
-0.686066
  0
LINE
  8
0
 10
-7.03395
 20
-0.686066
 11
-7.03395
 21
-4.13887
  0
LINE
  8
0
 10
-7.03395
 20
-4.13887
 11
-7.0251
 21
-4.23256
  0
LINE
  8
0
 10
-7.0251
 20
-4.23256
 11
-7.00948
 21
-4.29338
  0
LINE
  8
0
 10
-7.00948
 20
-4.29338
 11
-6.98636
 21
-4.35176
  0
LINE
  8
0
 10
-6.98636
 20
-4.35176
 11
-6.95612
 21
-4.40678
  0
LINE
  8
0
 10
-6.95612
 20
-4.40678
 11
-6.9192
 21
-4.45758
  0
LINE
  8
0
 10
-6.9192
 20
-4.45758
 11
-6.87622
 21
-4.50336
  0
LINE
  8
0
 10
-6.87622
 20
-4.50336
 11
-6.82785
 21
-4.54338
  0
LINE
  8
0
 10
-6.82785
 20
-4.54338
 11
-6.77483
 21
-4.57703
  0
LINE
  8
0
 10
-6.77483
 20
-4.57703
 11
-6.71802
 21
-4.60376
  0
LINE
  8
0
 10
-6.71802
 20
-4.60376
 11
-6.65829
 21
-4.62317
  0
LINE
  8
0
 10
-6.65829
 20
-4.62317
 11
-6.59662
 21
-4.63493
  0
LINE
  8
0
 10
-6.59662
 20
-4.63493
 11
-6.53395
 21
-4.63887
  0
LINE
  8
0
 10
-6.53395
 20
-4.63887
 11
-1.43602
 21
-4.63887
  0
LINE
  8
0
 10
-1.43602
 20
-4.63887
 11
-1.43602
 21
-5.92686
  0
LINE
  8
0
 10
-1.43602
 20
-5.92686
 11
-8.63448
 21
-5.92686
  0
LINE
  8
0
 10
14.4239
 20
-0.56958
 11
17.6769
 21
-0.56958
  0
LINE
  8
0
 10
17.6769
 20
-0.56958
 11
17.6769
 21
-6.42686
  0
LINE
  8
0
 10
17.6769
 20
-6.42686
 11
20.2775
 21
-6.42686
  0
LINE
  8
0
 10
20.2775
 20
-6.42686
 11
20.2775
 21
6.73535
  0
LINE
  8
0
 10
20.2775
 20
6.73535
 11
17.6769
 21
6.73535
  0
LINE
  8
0
 10
17.6769
 20
6.73535
 11
17.6769
 21
1.7184
  0
LINE
  8
0
 10
17.6769
 20
1.7184
 11
14.4239
 21
1.7184
  0
LINE
  8
0
 10
14.4239
 20
1.7184
 11
14.4239
 21
6.73535
  0
LINE
  8
0
 10
14.4239
 20
6.73535
 11
11.8233
 21
6.73535
  0
LINE
  8
0
 10
11.8233
 20
6.73535
 11
11.8233
 21
-6.42686
  0
LINE
  8
0
 10
11.8233
 20
-6.42686
 11
14.4239
 21
-6.42686
  0
LINE
  8
0
 10
14.4239
 20
-6.42686
 11
14.4239
 21
-0.56958
  0
LINE
  8
0
 10
12.3233
 20
-5.92686
 11
12.3233
 21
6.23535
  0
LINE
  8
0
 10
12.3233
 20
6.23535
 11
13.9239
 21
6.23535
  0
LINE
  8
0
 10
13.9239
 20
6.23535
 11
13.9239
 21
1.7184
  0
LINE
  8
0
 10
13.9239
 20
1.7184
 11
13.9328
 21
1.62471
  0
LINE
  8
0
 10
13.9328
 20
1.62471
 11
13.9484
 21
1.56389
  0
LINE
  8
0
 10
13.9484
 20
1.56389
 11
13.9715
 21
1.50551
  0
LINE
  8
0
 10
13.9715
 20
1.50551
 11
14.0017
 21
1.45049
  0
LINE
  8
0
 10
14.0017
 20
1.45049
 11
14.0387
 21
1.39969
  0
LINE
  8
0
 10
14.0387
 20
1.39969
 11
14.0816
 21
1.35391
  0
LINE
  8
0
 10
14.0816
 20
1.35391
 11
14.13
 21
1.31389
  0
LINE
  8
0
 10
14.13
 20
1.31389
 11
14.183
 21
1.28024
  0
LINE
  8
0
 10
14.183
 20
1.28024
 11
14.2398
 21
1.25351
  0
LINE
  8
0
 10
14.2398
 20
1.25351
 11
14.2996
 21
1.2341
  0
LINE
  8
0
 10
14.2996
 20
1.2341
 11
14.3612
 21
1.22234
  0
LINE
  8
0
 10
14.3612
 20
1.22234
 11
14.4239
 21
1.2184
  0
LINE
  8
0
 10
14.4239
 20
1.2184
 11
17.6769
 21
1.2184
  0
LINE
  8
0
 10
17.6769
 20
1.2184
 11
17.7706
 21
1.22725
  0
LINE
  8
0
 10
17.7706
 20
1.22725
 11
17.8314
 21
1.24287
  0
LINE
  8
0
 10
17.8314
 20
1.24287
 11
17.8898
 21
1.26599
  0
LINE
  8
0
 10
17.8898
 20
1.26599
 11
17.9448
 21
1.29623
  0
LINE
  8
0
 10
17.9448
 20
1.29623
 11
17.9956
 21
1.33315
  0
LINE
  8
0
 10
17.9956
 20
1.33315
 11
18.0414
 21
1.37613
  0
LINE
  8
0
 10
18.0414
 20
1.37613
 11
18.0814
 21
1.4245
  0
LINE
  8
0
 10
18.0814
 20
1.4245
 11
18.1151
 21
1.47752
  0
LINE
  8
0
 10
18.1151
 20
1.47752
 11
18.1418
 21
1.53433
  0
LINE
  8
0
 10
18.1418
 20
1.53433
 11
18.1612
 21
1.59406
  0
LINE
  8
0
 10
18.1612
 20
1.59406
 11
18.173
 21
1.65573
  0
LINE
  8
0
 10
18.173
 20
1.65573
 11
18.1769
 21
1.7184
  0
LINE
  8
0
 10
18.1769
 20
1.7184
 11
18.1769
 21
6.23535
  0
LINE
  8
0
 10
18.1769
 20
6.23535
 11
19.7775
 21
6.23535
  0
LINE
  8
0
 10
19.7775
 20
6.23535
 11
19.7775
 21
-5.92686
  0
LINE
  8
0
 10
19.7775
 20
-5.92686
 11
18.1769
 21
-5.92686
  0
LINE
  8
0
 10
18.1769
 20
-5.92686
 11
18.1769
 21
-0.56958
  0
LINE
  8
0
 10
18.1769
 20
-0.56958
 11
18.168
 21
-0.475891
  0
LINE
  8
0
 10
18.168
 20
-0.475891
 11
18.1524
 21
-0.41507
  0
LINE
  8
0
 10
18.1524
 20
-0.41507
 11
18.1293
 21
-0.356689
  0
LINE
  8
0
 10
18.1293
 20
-0.356689
 11
18.0991
 21
-0.301666
  0
LINE
  8
0
 10
18.0991
 20
-0.301666
 11
18.0621
 21
-0.25087
  0
LINE
  8
0
 10
18.0621
 20
-0.25087
 11
18.0192
 21
-0.205093
  0
LINE
  8
0
 10
18.0192
 20
-0.205093
 11
17.9708
 21
-0.16507
  0
LINE
  8
0
 10
17.9708
 20
-0.16507
 11
17.9178
 21
-0.131424
  0
LINE
  8
0
 10
17.9178
 20
-0.131424
 11
17.861
 21
-0.104691
  0
LINE
  8
0
 10
17.861
 20
-0.104691
 11
17.8012
 21
-0.0852814
  0
LINE
  8
0
 10
17.8012
 20
-0.0852814
 11
17.7396
 21
-0.0735168
  0
LINE
  8
0
 10
17.7396
 20
-0.0735168
 11
17.6769
 21
-0.0695801
  0
LINE
  8
0
 10
17.6769
 20
-0.0695801
 11
14.4239
 21
-0.0695801
  0
LINE
  8
0
 10
14.4239
 20
-0.0695801
 11
14.3302
 21
-0.0784302
  0
LINE
  8
0
 10
14.3302
 20
-0.0784302
 11
14.2694
 21
-0.0940552
  0
LINE
  8
0
 10
14.2694
 20
-0.0940552
 11
14.211
 21
-0.117172
  0
LINE
  8
0
 10
14.211
 20
-0.117172
 11
14.156
 21
-0.147415
  0
LINE
  8
0
 10
14.156
 20
-0.147415
 11
14.1052
 21
-0.184326
  0
LINE
  8
0
 10
14.1052
 20
-0.184326
 11
14.0594
 21
-0.22731
  0
LINE
  8
0
 10
14.0594
 20
-0.22731
 11
14.0194
 21
-0.275681
  0
LINE
  8
0
 10
14.0194
 20
-0.275681
 11
13.9857
 21
-0.328705
  0
LINE
  8
0
 10
13.9857
 20
-0.328705
 11
13.959
 21
-0.385513
  0
LINE
  8
0
 10
13.959
 20
-0.385513
 11
13.9396
 21
-0.445236
  0
LINE
  8
0
 10
13.9396
 20
-0.445236
 11
13.9278
 21
-0.506912
  0
LINE
  8
0
 10
13.9278
 20
-0.506912
 11
13.9239
 21
-0.56958
  0
LINE
  8
0
 10
13.9239
 20
-0.56958
 11
13.9239
 21
-5.92686
  0
LINE
  8
0
 10
13.9239
 20
-5.92686
 11
12.3233
 21
-5.92686
  0
LINE
  8
0
 10
3.68497
 20
-3.17375
 11
7.16714
 21
-3.17375
  0
LINE
  8
0
 10
7.16714
 20
-3.17375
 11
7.97809
 21
-6.42686
  0
LINE
  8
0
 10
7.97809
 20
-6.42686
 11
10.5787
 21
-6.42686
  0
LINE
  8
0
 10
10.5787
 20
-6.42686
 11
7.02611
 21
6.73535
  0
LINE
  8
0
 10
7.02611
 20
6.73535
 11
3.84357
 21
6.73535
  0
LINE
  8
0
 10
3.84357
 20
6.73535
 11
0.290939
 21
-6.42686
  0
LINE
  8
0
 10
0.290939
 20
-6.42686
 11
2.89159
 21
-6.42686
  0
LINE
  8
0
 10
2.89159
 20
-6.42686
 11
3.68497
 21
-3.17375
  0
LINE
  8
0
 10
0.943787
 20
-5.92686
 11
4.2265
 21
6.23535
  0
LINE
  8
0
 10
4.2265
 20
6.23535
 11
6.64317
 21
6.23535
  0
LINE
  8
0
 10
6.64317
 20
6.23535
 11
9.92589
 21
-5.92686
  0
LINE
  8
0
 10
9.92589
 20
-5.92686
 11
8.36874
 21
-5.92686
  0
LINE
  8
0
 10
8.36874
 20
-5.92686
 11
7.6523
 21
-3.05281
  0
LINE
  8
0
 10
7.6523
 20
-3.05281
 11
7.64267
 21
-3.01924
  0
LINE
  8
0
 10
7.64267
 20
-3.01924
 11
7.61955
 21
-2.96086
  0
LINE
  8
0
 10
7.61955
 20
-2.96086
 11
7.58931
 21
-2.90584
  0
LINE
  8
0
 10
7.58931
 20
-2.90584
 11
7.5524
 21
-2.85504
  0
LINE
  8
0
 10
7.5524
 20
-2.85504
 11
7.50941
 21
-2.80927
  0
LINE
  8
0
 10
7.50941
 20
-2.80927
 11
7.46104
 21
-2.76924
  0
LINE
  8
0
 10
7.46104
 20
-2.76924
 11
7.40802
 21
-2.7356
  0
LINE
  8
0
 10
7.40802
 20
-2.7356
 11
7.35121
 21
-2.70886
  0
LINE
  8
0
 10
7.35121
 20
-2.70886
 11
7.29149
 21
-2.68945
  0
LINE
  8
0
 10
7.29149
 20
-2.68945
 11
7.22981
 21
-2.67769
  0
LINE
  8
0
 10
7.22981
 20
-2.67769
 11
7.16714
 21
-2.67375
  0
LINE
  8
0
 10
7.16714
 20
-2.67375
 11
3.68497
 21
-2.67375
  0
LINE
  8
0
 10
3.68497
 20
-2.67375
 11
3.64752
 21
-2.67516
  0
LINE
  8
0
 10
3.64752
 20
-2.67516
 11
3.58533
 21
-2.68378
  0
LINE
  8
0
 10
3.58533
 20
-2.68378
 11
3.5247
 21
-2.70013
  0
LINE
  8
0
 10
3.5247
 20
-2.70013
 11
3.46661
 21
-2.72395
  0
LINE
  8
0
 10
3.46661
 20
-2.72395
 11
3.41196
 21
-2.75487
  0
LINE
  8
0
 10
3.41196
 20
-2.75487
 11
3.36162
 21
-2.79239
  0
LINE
  8
0
 10
3.36162
 20
-2.79239
 11
3.31636
 21
-2.83592
  0
LINE
  8
0
 10
3.31636
 20
-2.83592
 11
3.27693
 21
-2.88478
  0
LINE
  8
0
 10
3.27693
 20
-2.88478
 11
3.24393
 21
-2.9382
  0
LINE
  8
0
 10
3.24393
 20
-2.9382
 11
3.21788
 21
-2.99533
  0
LINE
  8
0
 10
3.21788
 20
-2.99533
 11
3.1992
 21
-3.05528
  0
LINE
  8
0
 10
3.1992
 20
-3.05528
 11
2.49887
 21
-5.92686
  0
LINE
  8
0
 10
2.49887
 20
-5.92686
 11
0.943787
 21
-5.92686
  0
LINE
  8
0
 10
6.74535
 20
-1.52893
 11
6.80655
 21
-1.51492
  0
LINE
  8
0
 10
6.80655
 20
-1.51492
 11
6.86552
 21
-1.49335
  0
LINE
  8
0
 10
6.86552
 20
-1.49335
 11
6.92133
 21
-1.46455
  0
LINE
  8
0
 10
6.92133
 20
-1.46455
 11
6.97307
 21
-1.42899
  0
LINE
  8
0
 10
6.97307
 20
-1.42899
 11
7.01996
 21
-1.38722
  0
LINE
  8
0
 10
7.01996
 20
-1.38722
 11
7.06123
 21
-1.3399
  0
LINE
  8
0
 10
7.06123
 20
-1.3399
 11
7.09625
 21
-1.28778
  0
LINE
  8
0
 10
7.09625
 20
-1.28778
 11
7.12447
 21
-1.23169
  0
LINE
  8
0
 10
7.12447
 20
-1.23169
 11
7.14543
 21
-1.1725
  0
LINE
  8
0
 10
7.14543
 20
-1.1725
 11
7.15881
 21
-1.11116
  0
LINE
  8
0
 10
7.15881
 20
-1.11116
 11
7.1644
 21
-1.04861
  0
LINE
  8
0
 10
7.1644
 20
-1.04861
 11
7.16209
 21
-0.98587
  0
LINE
  8
0
 10
7.16209
 20
-0.98587
 11
7.15195
 21
-0.923904
  0
LINE
  8
0
 10
7.15195
 20
-0.923904
 11
5.91786
 21
4.46536
  0
LINE
  8
0
 10
5.91786
 20
4.46536
 11
5.89008
 21
4.55066
  0
LINE
  8
0
 10
5.89008
 20
4.55066
 11
5.86179
 21
4.6067
  0
LINE
  8
0
 10
5.86179
 20
4.6067
 11
5.82668
 21
4.65877
  0
LINE
  8
0
 10
5.82668
 20
4.65877
 11
5.78532
 21
4.70602
  0
LINE
  8
0
 10
5.78532
 20
4.70602
 11
5.73837
 21
4.74771
  0
LINE
  8
0
 10
5.73837
 20
4.74771
 11
5.68657
 21
4.7832
  0
LINE
  8
0
 10
5.68657
 20
4.7832
 11
5.63074
 21
4.8119
  0
LINE
  8
0
 10
5.63074
 20
4.8119
 11
5.57173
 21
4.83339
  0
LINE
  8
0
 10
5.57173
 20
4.83339
 11
5.5105
 21
4.84732
  0
LINE
  8
0
 10
5.5105
 20
4.84732
 11
5.44801
 21
4.85345
  0
LINE
  8
0
 10
5.44801
 20
4.85345
 11
5.38525
 21
4.85172
  0
LINE
  8
0
 10
5.38525
 20
4.85172
 11
5.3232
 21
4.84212
  0
LINE
  8
0
 10
5.3232
 20
4.84212
 11
5.26283
 21
4.82481
  0
LINE
  8
0
 10
5.26283
 20
4.82481
 11
5.20512
 21
4.80009
  0
LINE
  8
0
 10
5.20512
 20
4.80009
 11
5.15096
 21
4.76833
  0
LINE
  8
0
 10
5.15096
 20
4.76833
 11
5.1012
 21
4.73003
  0
LINE
  8
0
 10
5.1012
 20
4.73003
 11
5.05664
 21
4.68579
  0
LINE
  8
0
 10
5.05664
 20
4.68579
 11
5.01797
 21
4.63631
  0
LINE
  8
0
 10
5.01797
 20
4.63631
 11
4.98581
 21
4.58238
  0
LINE
  8
0
 10
4.98581
 20
4.58238
 11
4.96066
 21
4.52486
  0
LINE
  8
0
 10
4.96066
 20
4.52486
 11
4.94293
 21
4.46461
  0
LINE
  8
0
 10
4.94293
 20
4.46461
 11
3.71756
 21
-0.924652
  0
LINE
  8
0
 10
3.71756
 20
-0.924652
 11
3.7061
 21
-1.0041
  0
LINE
  8
0
 10
3.7061
 20
-1.0041
 11
3.7061
 21
-1.06691
  0
LINE
  8
0
 10
3.7061
 20
-1.06691
 11
3.71396
 21
-1.1292
  0
LINE
  8
0
 10
3.71396
 20
-1.1292
 11
3.72958
 21
-1.19002
  0
LINE
  8
0
 10
3.72958
 20
-1.19002
 11
3.7527
 21
-1.2484
  0
LINE
  8
0
 10
3.7527
 20
-1.2484
 11
3.78294
 21
-1.30342
  0
LINE
  8
0
 10
3.78294
 20
-1.30342
 11
3.81985
 21
-1.35422
  0
LINE
  8
0
 10
3.81985
 20
-1.35422
 11
3.86284
 21
-1.39999
  0
LINE
  8
0
 10
3.86284
 20
-1.39999
 11
3.91121
 21
-1.44002
  0
LINE
  8
0
 10
3.91121
 20
-1.44002
 11
3.96423
 21
-1.47366
  0
LINE
  8
0
 10
3.96423
 20
-1.47366
 11
4.02104
 21
-1.5004
  0
LINE
  8
0
 10
4.02104
 20
-1.5004
 11
4.08076
 21
-1.51981
  0
LINE
  8
0
 10
4.08076
 20
-1.51981
 11
4.14244
 21
-1.53157
  0
LINE
  8
0
 10
4.14244
 20
-1.53157
 11
4.20511
 21
-1.53551
  0
LINE
  8
0
 10
4.20511
 20
-1.53551
 11
6.66457
 21
-1.53551
  0
LINE
  8
0
 10
6.66457
 20
-1.53551
 11
6.74535
 21
-1.52893
  0
LINE
  8
0
 10
4.20511
 20
-1.03551
 11
5.43048
 21
4.35376
  0
LINE
  8
0
 10
5.43048
 20
4.35376
 11
6.66457
 21
-1.03551
  0
LINE
  8
0
 10
6.66457
 20
-1.03551
 11
4.20511
 21
-1.03551
  0
ENDSEC
  0
SECTION
  2
OBJECTS
  0
DICTIONARY
  0
ENDSEC
  0
EOF
