<?xml version="1.0" standalone="no"?>
<!DOCTYPE svg PUBLIC "-//W3C//DTD SVG 1.1//EN" "http://www.w3.org/Graphics/SVG/1.1/DTD/svg11.dtd">
<svg width="68mm" height="14mm" viewBox="-34 -7 68 14" xmlns="http://www.w3.org/2000/svg" version="1.1">
<title>OpenSCAD Model</title>
<path d="
M -14.7564,6.61786 L -14.439,6.58963 L -14.1297,6.54259 L -13.8283,6.47673 L -13.535,6.39204 L -13.2496,6.28854
 L -12.9722,6.16623 L -12.7059,6.02646 L -12.4537,5.87068 L -12.2155,5.6989 L -11.9916,5.51112 L -11.7817,5.30736
 L -11.586,5.08757 L -11.4043,4.85179 L -11.4043,6.28999 L -8.04971,6.28999 L -8.04971,-1.07541 L -8.07571,-1.97586
 L -8.1537,-2.79401 L -8.28368,-3.52985 L -8.46565,-4.18338 L -8.69962,-4.75459 L -8.98558,-5.2435 L -9.32352,-5.65012
 L -9.72571,-5.98946 L -10.2043,-6.2766 L -10.7595,-6.51154 L -11.391,-6.69426 L -12.0991,-6.82478 L -12.8836,-6.90309
 L -13.7445,-6.9292 L -14.1106,-6.9247 L -14.4711,-6.91124 L -14.8258,-6.88879 L -15.175,-6.85736 L -15.5184,-6.81696
 L -15.8563,-6.76758 L -16.1885,-6.70921 L -16.5171,-6.6414 L -16.8444,-6.56366 L -17.1702,-6.47601 L -17.4946,-6.37843
 L -17.8177,-6.27092 L -18.1393,-6.1535 L -18.4595,-6.02615 L -18.4595,-3.14296 L -18.1091,-3.32718 L -17.7626,-3.49654
 L -17.4202,-3.65103 L -17.0818,-3.79065 L -16.7474,-3.91539 L -16.417,-4.02527 L -16.0905,-4.12029 L -15.7646,-4.2016
 L -15.4355,-4.27042 L -15.1034,-4.32671 L -14.7683,-4.3705 L -14.4301,-4.40176 L -14.0889,-4.42053 L -13.7445,-4.42679
 L -13.4266,-4.4182 L -13.1315,-4.39243 L -12.8591,-4.34949 L -12.6097,-4.28935 L -12.383,-4.21204 L -12.1792,-4.11754
 L -11.9981,-4.00587 L -11.8406,-3.87753 L -11.7073,-3.73296 L -11.5982,-3.57213 L -11.5134,-3.39507 L -11.4528,-3.20175
 L -11.4164,-2.9922 L -11.4043,-2.7664 L -11.4043,-2.20728 L -13.7445,-2.20728 L -14.588,-2.18526 L -15.366,-2.11923
 L -16.0786,-2.00919 L -16.7259,-1.85512 L -17.3077,-1.65703 L -17.8242,-1.41492 L -18.2752,-1.1288 L -18.6636,-0.796585
 L -18.9923,-0.416107 L -19.2612,0.0125885 L -19.4704,0.489563 L -19.6197,1.01479 L -19.7094,1.58826 L -19.7393,2.20999
 L -19.7142,2.78761 L -19.639,3.32758 L -19.5137,3.82988 L -19.3384,4.29451 L -19.1129,4.72148 L -18.8372,5.11079
 L -18.5115,5.46243 L -18.1409,5.77147 L -17.7304,6.03296 L -17.2802,6.24692 L -16.7903,6.41331 L -16.2605,6.53218
 L -15.691,6.6035 L -15.0818,6.62727 z
M -15.6501,6.10472 L -16.1745,6.03905 L -16.6548,5.93127 L -17.0918,5.78287 L -17.4878,5.59465 L -17.8453,5.36691
 L -18.1666,5.09906 L -18.4481,4.79509 L -18.686,4.45915 L -18.8816,4.08871 L -19.0357,3.68054 L -19.1475,3.23233
 L -19.2157,2.74217 L -19.2387,2.21117 L -19.2112,1.63907 L -19.1304,1.12216 L -18.9988,0.659164 L -18.8181,0.24707
 L -18.589,-0.118164 L -18.31,-0.441147 L -17.9773,-0.725647 L -17.5832,-0.975647 L -17.1205,-1.19258 L -16.587,-1.37422
 L -15.9825,-1.51811 L -15.3068,-1.62245 L -14.5602,-1.68581 L -13.7379,-1.70728 L -11.4043,-1.70728 L -11.3106,-1.71613
 L -11.2498,-1.73175 L -11.1914,-1.75487 L -11.1364,-1.78511 L -11.0856,-1.82202 L -11.0398,-1.86501 L -10.9998,-1.91338
 L -10.9662,-1.9664 L -10.9394,-2.02321 L -10.92,-2.08293 L -10.9083,-2.14461 L -10.9043,-2.20728 L -10.9043,-2.7664
 L -10.905,-2.7932 L -10.9172,-3.019 L -10.9238,-3.07768 L -10.9602,-3.28723 L -10.9757,-3.3513 L -11.0363,-3.54462
 L -11.0625,-3.61108 L -11.1473,-3.78815 L -11.1844,-3.85277 L -11.2935,-4.0136 L -11.3397,-4.07188 L -11.473,-4.21646
 L -11.5248,-4.26518 L -11.6823,-4.39352 L -11.7356,-4.43143 L -11.9166,-4.54309 L -11.9689,-4.57117 L -12.1727,-4.66566
 L -12.2216,-4.68526 L -12.4482,-4.76257 L -12.4925,-4.77544 L -12.742,-4.83557 L -12.7813,-4.84338 L -13.0536,-4.88632
 L -13.088,-4.89053 L -13.3831,-4.91631 L -13.4131,-4.91801 L -13.731,-4.92661 L -13.7536,-4.92671 L -14.0979,-4.92046
 L -14.1163,-4.91978 L -14.4576,-4.90102 L -14.4761,-4.89964 L -14.8143,-4.86838 L -14.8331,-4.86629 L -15.1682,-4.82249
 L -15.187,-4.81967 L -15.5191,-4.76338 L -15.5379,-4.75983 L -15.8669,-4.69101 L -15.8856,-4.68674 L -16.2116,-4.60542
 L -16.2303,-4.60036 L -16.5567,-4.50534 L -16.5747,-4.49973 L -16.9052,-4.38985 L -16.9221,-4.38387 L -17.2565,-4.25912
 L -17.2725,-4.25285 L -17.6109,-4.11324 L -17.6258,-4.1068 L -17.9595,-3.95625 L -17.9595,-5.68686 L -17.6527,-5.79886
 L -17.3436,-5.90176 L -17.0334,-5.99506 L -16.7219,-6.07884 L -16.4086,-6.15327 L -16.0949,-6.218 L -15.7764,-6.27394
 L -15.4535,-6.32114 L -15.1231,-6.36 L -14.7878,-6.3902 L -14.4456,-6.41185 L -14.0986,-6.4248 L -13.7489,-6.42911
 L -12.916,-6.40384 L -12.1693,-6.32932 L -11.5061,-6.20705 L -10.927,-6.03952 L -10.4314,-5.82976 L -10.0175,-5.58142
 L -9.67975,-5.29648 L -9.39641,-4.95555 L -9.14897,-4.53252 L -8.93945,-4.021 L -8.77182,-3.41898 L -8.64955,-2.72675
 L -8.57503,-1.94485 L -8.54971,-1.06837 L -8.54971,5.78999 L -10.9043,5.78999 L -10.9043,4.85179 L -10.9067,4.80307
 L -10.9167,4.74109 L -10.9345,4.68085 L -10.9596,4.62331 L -10.9917,4.56937 L -11.0304,4.51988 L -11.0749,4.47563
 L -11.1247,4.43732 L -11.1788,4.40553 L -11.2365,4.38078 L -11.2969,4.36346 L -11.3589,4.35385 L -11.4217,4.3521
 L -11.4842,4.35822 L -11.5454,4.37212 L -11.6044,4.39359 L -11.6603,4.42227 L -11.7121,4.45775 L -11.7591,4.49942
 L -11.8004,4.54666 L -11.9713,4.76842 L -12.1429,4.9612 L -12.3268,5.13968 L -12.5228,5.30406 L -12.7318,5.45479
 L -12.9536,5.5918 L -13.1895,5.71558 L -13.4359,5.82422 L -13.6897,5.91629 L -13.9512,5.99176 L -14.2208,6.05069
 L -14.499,6.09299 L -14.7858,6.1185 L -15.0792,6.127 z
M -14.1894,4.78729 L -13.8195,4.76671 L -13.7593,4.75967 L -13.4139,4.69791 L -13.3492,4.68182 L -13.0283,4.57889
 L -12.9624,4.55246 L -12.666,4.40836 L -12.6031,4.3719 L -12.3311,4.18661 L -12.2751,4.14227 L -12.0276,3.9158
 L -11.9811,3.86703 L -11.758,3.59941 L -11.7215,3.54962 L -11.5258,3.24504 L -11.4976,3.19511 L -11.3319,2.85782
 L -11.3112,2.80937 L -11.1757,2.43938 L -11.1615,2.39403 L -11.0561,1.99133 L -11.0471,1.94992 L -10.9719,1.5145
 L -10.9669,1.47733 L -10.9217,1.0092 L -10.9196,0.976212 L -10.9046,0.475388 L -10.9043,0.460358 L -10.9043,0.229828
 L -10.9132,0.136139 L -10.9288,0.0753174 L -10.9519,0.0169373 L -10.9822,-0.0380859 L -11.0191,-0.0888824 L -11.0621,-0.134659
 L -11.1104,-0.174683 L -11.1635,-0.208328 L -11.2203,-0.235062 L -11.28,-0.254471 L -11.3417,-0.266235 L -11.4043,-0.270172
 L -12.7531,-0.270172 L -12.7627,-0.270081 L -13.2795,-0.260193 L -13.3014,-0.259293 L -13.7717,-0.229645 L -13.7982,-0.227264
 L -14.2219,-0.177841 L -14.2542,-0.173004 L -14.6314,-0.103806 L -14.6711,-0.0948334 L -15.0016,-0.00587463 L -15.0504,0.00999451
 L -15.3344,0.118713 L -15.3936,0.14595 L -15.631,0.274445 L -15.6973,0.317383 L -15.8961,0.469833 L -15.9578,0.525894
 L -16.126,0.706573 L -16.1776,0.772217 L -16.3152,0.98114 L -16.3534,1.05049 L -16.4605,1.28764 L -16.4852,1.35493
 L -16.5617,1.62032 L -16.5752,1.68155 L -16.6211,1.97517 L -16.6265,2.02864 L -16.6418,2.35048 L -16.6419,2.39597
 L -16.6313,2.63902 L -16.627,2.6861 L -16.5953,2.91455 L -16.5854,2.96581 L -16.5325,3.17967 L -16.5158,3.23383
 L -16.4417,3.43312 L -16.4174,3.4881 L -16.3221,3.67281 L -16.2904,3.726 L -16.174,3.8961 L -16.1358,3.94502
 L -15.9982,4.10056 L -15.9548,4.14388 L -15.7991,4.28154 L -15.7496,4.32001 L -15.5788,4.43648 L -15.5252,4.46831
 L -15.3393,4.5636 L -15.2843,4.58775 L -15.0834,4.66188 L -15.0293,4.67841 L -14.8133,4.73134 L -14.7624,4.74106
 L -14.5314,4.77283 L -14.4848,4.77702 L -14.2386,4.78761 z
M -14.4633,4.27748 L -14.6943,4.24571 L -14.9103,4.19278 L -15.1113,4.11865 L -15.2971,4.02336 L -15.468,3.90689
 L -15.6237,3.76923 L -15.7613,3.61369 L -15.8778,3.44359 L -15.973,3.25888 L -16.0471,3.05959 L -16.1001,2.84572
 L -16.1318,2.61726 L -16.1424,2.37421 L -16.1271,2.05237 L -16.0812,1.75874 L -16.0048,1.49336 L -15.8977,1.25621
 L -15.7601,1.04729 L -15.5918,0.866608 L -15.393,0.714157 L -15.1556,0.585663 L -14.8717,0.476944 L -14.5411,0.387985
 L -14.164,0.318787 L -13.7403,0.269363 L -13.27,0.239716 L -12.7531,0.229828 L -11.4043,0.229828 L -11.4043,0.460358
 L -11.4194,0.961182 L -11.4646,1.42931 L -11.5398,1.86473 L -11.6452,2.26743 L -11.7807,2.63742 L -11.9464,2.97472
 L -12.1421,3.2793 L -12.3652,3.54692 L -12.6127,3.77339 L -12.8846,3.95868 L -13.181,4.10278 L -13.502,4.20572
 L -13.8473,4.26749 L -14.2171,4.28807 z
M 14.8033,6.58998 L 15.5184,6.47812 L 16.1876,6.29167 L 16.8109,6.03065 L 17.3883,5.69505 L 17.9199,5.28487
 L 18.4056,4.80011 L 18.8353,4.2516 L 19.1989,3.65016 L 19.4964,2.99579 L 19.7278,2.2885 L 19.8931,1.52827
 L 19.9923,0.715118 L 20.0253,-0.150955 L 19.9923,-1.01704 L 19.8931,-1.83018 L 19.7278,-2.59042 L 19.4964,-3.29771
 L 19.1989,-3.95209 L 18.8353,-4.55353 L 18.4056,-5.10204 L 17.9199,-5.58679 L 17.3883,-5.99696 L 16.8109,-6.33257
 L 16.1876,-6.5936 L 15.5184,-6.78003 L 14.8033,-6.89191 L 14.0423,-6.9292 L 13.2844,-6.89191 L 12.5719,-6.78003
 L 11.9048,-6.5936 L 11.2831,-6.33257 L 10.7067,-5.99696 L 10.1758,-5.58679 L 9.69035,-5.10204 L 9.26067,-4.55353
 L 8.89708,-3.95209 L 8.59961,-3.29771 L 8.36824,-2.59042 L 8.20297,-1.83018 L 8.10381,-1.01704 L 8.07076,-0.150955
 L 8.10381,0.715118 L 8.20297,1.52827 L 8.36824,2.2885 L 8.59961,2.99579 L 8.89708,3.65016 L 9.26067,4.2516
 L 9.69035,4.80011 L 10.1758,5.28487 L 10.7067,5.69505 L 11.2831,6.03065 L 11.9048,6.29167 L 12.5719,6.47812
 L 13.2844,6.58998 L 14.0423,6.62727 z
M 13.3356,6.0919 L 12.6784,5.98872 L 12.0694,5.81851 L 11.5067,5.58228 L 10.9865,5.27937 L 10.5067,4.90865
 L 10.0651,4.46774 L 9.67293,3.96709 L 9.34013,3.41658 L 9.06624,2.81407 L 8.85139,2.1573 L 8.69649,1.44473
 L 8.60265,0.675217 L 8.57112,-0.150955 L 8.60265,-0.977142 L 8.69649,-1.74666 L 8.85139,-2.45923 L 9.06624,-3.116
 L 9.34013,-3.71851 L 9.67293,-4.26901 L 10.0651,-4.76967 L 10.5067,-5.21056 L 10.9865,-5.58128 L 11.5066,-5.88416
 L 12.0695,-6.12047 L 12.6784,-6.29063 L 13.3356,-6.39383 L 14.0423,-6.4286 L 14.7523,-6.3938 L 15.4123,-6.29056
 L 16.0233,-6.12033 L 16.5877,-5.88394 L 17.1089,-5.58105 L 17.5892,-5.21045 L 18.0308,-4.76967 L 18.4231,-4.26897
 L 18.7559,-3.71851 L 19.0298,-3.11597 L 19.2447,-2.45918 L 19.3996,-1.74664 L 19.4934,-0.977142 L 19.525,-0.150955
 L 19.4934,0.675217 L 19.3996,1.44473 L 19.2447,2.15724 L 19.0298,2.81404 L 18.7559,3.41658 L 18.4231,3.96704
 L 18.0308,4.46774 L 17.5892,4.90848 L 17.1088,5.27917 L 16.5877,5.58203 L 16.0233,5.81839 L 15.4122,5.98865
 L 14.7524,6.09187 L 14.0423,6.12668 z
M 14.4128,4.3627 L 14.4817,4.35344 L 14.7983,4.28813 L 14.8704,4.26752 L 15.1654,4.15866 L 15.2358,4.1263
 L 15.5091,3.97391 L 15.5728,3.93173 L 15.8245,3.73579 L 15.878,3.68764 L 16.108,3.44817 L 16.1501,3.39827
 L 16.3585,3.11525 L 16.3902,3.06642 L 16.5737,2.74458 L 16.5977,2.69684 L 16.753,2.34085 L 16.7701,2.29576
 L 16.8971,1.90564 L 16.9087,1.86426 L 17.0075,1.44002 L 17.0147,1.40265 L 17.0853,0.94426 L 17.0893,0.911026
 L 17.1316,0.418518 L 17.1333,0.389069 L 17.1474,-0.137558 L 17.1474,-0.164352 L 17.1333,-0.690994 L 17.1316,-0.720444
 L 17.0893,-1.21295 L 17.0853,-1.24619 L 17.0147,-1.70456 L 17.0075,-1.74191 L 16.9087,-2.16617 L 16.8971,-2.20757
 L 16.7701,-2.59767 L 16.753,-2.64276 L 16.5977,-2.99875 L 16.5737,-3.04649 L 16.3902,-3.36835 L 16.3585,-3.41718
 L 16.1501,-3.7002 L 16.108,-3.75009 L 15.878,-3.98956 L 15.8245,-4.03772 L 15.5728,-4.23366 L 15.5091,-4.27583
 L 15.2358,-4.42822 L 15.1654,-4.46059 L 14.8704,-4.56944 L 14.7983,-4.59006 L 14.4817,-4.65536 L 14.4128,-4.66463
 L 14.0745,-4.6864 L 14.0099,-4.68639 L 13.6747,-4.66461 L 13.6053,-4.6552 L 13.2912,-4.58989 L 13.2188,-4.56905
 L 12.9258,-4.46019 L 12.8555,-4.42761 L 12.5837,-4.27522 L 12.5203,-4.23299 L 12.2697,-4.03705 L 12.2166,-3.98906
 L 11.9872,-3.74959 L 11.9455,-3.70003 L 11.7373,-3.41701 L 11.7057,-3.3683 L 11.5222,-3.04645 L 11.4983,-2.99869
 L 11.343,-2.6427 L 11.3259,-2.59766 L 11.1989,-2.20755 L 11.1873,-2.16612 L 11.0885,-1.74187 L 11.0813,-1.70456
 L 11.0108,-1.24619 L 11.0068,-1.21294 L 10.9644,-0.720428 L 10.9628,-0.690994 L 10.9487,-0.164352 L 10.9487,-0.137558
 L 10.9628,0.389069 L 10.9644,0.418503 L 11.0068,0.911011 L 11.0108,0.94426 L 11.0813,1.40265 L 11.0885,1.43996
 L 11.1873,1.8642 L 11.1989,1.90561 L 11.3259,2.29573 L 11.343,2.34079 L 11.4983,2.69678 L 11.5222,2.74454
 L 11.7057,3.06638 L 11.7373,3.11508 L 11.9455,3.3981 L 11.9872,3.44766 L 12.2166,3.68713 L 12.2697,3.73512
 L 12.5203,3.93106 L 12.5837,3.9733 L 12.8555,4.12569 L 12.9258,4.15826 L 13.2188,4.26712 L 13.2912,4.28796
 L 13.6053,4.35327 L 13.6747,4.36269 L 14.0099,4.38446 L 14.0745,4.38448 z
M 13.7071,3.86374 L 13.3929,3.79843 L 13.1,3.68958 L 12.8283,3.53719 L 12.5777,3.34125 L 12.3483,3.10178
 L 12.14,2.81876 L 11.9566,2.49692 L 11.8013,2.14093 L 11.6743,1.75081 L 11.5755,1.32657 L 11.5049,0.868179
 L 11.4626,0.375671 L 11.4485,-0.150955 L 11.4626,-0.677597 L 11.5049,-1.1701 L 11.5755,-1.62848 L 11.6743,-2.05273
 L 11.8013,-2.44284 L 11.9566,-2.79883 L 12.14,-3.12068 L 12.3483,-3.4037 L 12.5777,-3.64317 L 12.8283,-3.83911
 L 13.1,-3.9915 L 13.3929,-4.10036 L 13.7071,-4.16566 L 14.0423,-4.18744 L 14.3807,-4.16566 L 14.6973,-4.10036
 L 14.9923,-3.9915 L 15.2657,-3.83911 L 15.5174,-3.64317 L 15.7475,-3.4037 L 15.9559,-3.12068 L 16.1394,-2.79883
 L 16.2947,-2.44284 L 16.4217,-2.05273 L 16.5206,-1.62848 L 16.5911,-1.1701 L 16.6335,-0.677597 L 16.6476,-0.150955
 L 16.6335,0.375671 L 16.5911,0.868179 L 16.5206,1.32657 L 16.4217,1.75081 L 16.2947,2.14093 L 16.1394,2.49692
 L 15.9559,2.81876 L 15.7475,3.10178 L 15.5174,3.34125 L 15.2657,3.53719 L 14.9923,3.68958 L 14.6973,3.79843
 L 14.3807,3.86374 L 14.0423,3.88551 z
M -28.6383,6.61786 L -28.3209,6.58963 L -28.0116,6.54259 L -27.7102,6.47673 L -27.4169,6.39204 L -27.1315,6.28854
 L -26.8541,6.16623 L -26.5878,6.02646 L -26.3356,5.87068 L -26.0974,5.6989 L -25.8735,5.51112 L -25.6636,5.30736
 L -25.4678,5.08757 L -25.2862,4.85179 L -25.2862,6.28999 L -21.9316,6.28999 L -21.9316,-1.07541 L -21.9576,-1.97586
 L -22.0356,-2.79401 L -22.1656,-3.52985 L -22.3475,-4.18338 L -22.5815,-4.75459 L -22.8675,-5.2435 L -23.2054,-5.65012
 L -23.6076,-5.98946 L -24.0862,-6.2766 L -24.6413,-6.51154 L -25.2729,-6.69426 L -25.981,-6.82478 L -26.7655,-6.90309
 L -27.6264,-6.9292 L -27.9925,-6.9247 L -28.3529,-6.91124 L -28.7077,-6.88879 L -29.0569,-6.85736 L -29.4003,-6.81696
 L -29.7382,-6.76758 L -30.0704,-6.70921 L -30.399,-6.6414 L -30.7263,-6.56366 L -31.0521,-6.47601 L -31.3765,-6.37843
 L -31.6996,-6.27092 L -32.0212,-6.1535 L -32.3414,-6.02615 L -32.3414,-3.14296 L -31.991,-3.32718 L -31.6445,-3.49654
 L -31.3021,-3.65103 L -30.9637,-3.79065 L -30.6293,-3.91539 L -30.2988,-4.02527 L -29.9724,-4.12029 L -29.6465,-4.2016
 L -29.3174,-4.27042 L -28.9853,-4.32671 L -28.6502,-4.3705 L -28.312,-4.40176 L -27.9707,-4.42053 L -27.6264,-4.42679
 L -27.3085,-4.4182 L -27.0134,-4.39243 L -26.741,-4.34949 L -26.4916,-4.28935 L -26.2649,-4.21204 L -26.0611,-4.11754
 L -25.88,-4.00587 L -25.7225,-3.87753 L -25.5892,-3.73296 L -25.4801,-3.57213 L -25.3953,-3.39507 L -25.3347,-3.20175
 L -25.2983,-2.9922 L -25.2862,-2.7664 L -25.2862,-2.20728 L -27.6264,-2.20728 L -28.4699,-2.18526 L -29.2479,-2.11923
 L -29.9605,-2.00919 L -30.6078,-1.85512 L -31.1896,-1.65703 L -31.7061,-1.41492 L -32.1571,-1.1288 L -32.5047,-0.831543
 L -32.4355,-0.722626 L -32.3553,-0.552185 L -32.2971,-0.373032 L -32.2887,-0.328995 L -32.1918,-0.441147 L -31.8592,-0.725647
 L -31.4651,-0.975647 L -31.0024,-1.19258 L -30.4689,-1.37422 L -29.8644,-1.51811 L -29.1887,-1.62245 L -28.4421,-1.68581
 L -27.6198,-1.70728 L -25.2862,-1.70728 L -25.1925,-1.71613 L -25.1317,-1.73175 L -25.0733,-1.75487 L -25.0183,-1.78511
 L -24.9675,-1.82202 L -24.9217,-1.86501 L -24.8817,-1.91338 L -24.8481,-1.9664 L -24.8213,-2.02321 L -24.8019,-2.08293
 L -24.7902,-2.14461 L -24.7862,-2.20728 L -24.7862,-2.7664 L -24.7869,-2.7932 L -24.7991,-3.019 L -24.8057,-3.07765
 L -24.842,-3.2872 L -24.8576,-3.3513 L -24.9182,-3.54462 L -24.9444,-3.61111 L -25.0292,-3.78818 L -25.0663,-3.85277
 L -25.1754,-4.0136 L -25.2216,-4.07188 L -25.3549,-4.21646 L -25.4067,-4.26518 L -25.5642,-4.39352 L -25.6175,-4.43143
 L -25.7985,-4.54309 L -25.8508,-4.57117 L -26.0546,-4.66566 L -26.1035,-4.68526 L -26.3301,-4.76257 L -26.3744,-4.77544
 L -26.6239,-4.83557 L -26.6632,-4.84338 L -26.9355,-4.88632 L -26.9698,-4.89053 L -27.265,-4.91631 L -27.295,-4.91801
 L -27.6129,-4.92661 L -27.6355,-4.92671 L -27.9798,-4.92046 L -27.9982,-4.91978 L -28.3394,-4.90102 L -28.358,-4.89964
 L -28.6962,-4.86838 L -28.715,-4.86629 L -29.0501,-4.82249 L -29.0689,-4.81967 L -29.401,-4.76338 L -29.4198,-4.75983
 L -29.7488,-4.69101 L -29.7675,-4.68674 L -30.0935,-4.60542 L -30.1122,-4.60036 L -30.4386,-4.50534 L -30.4566,-4.49973
 L -30.787,-4.38985 L -30.804,-4.38387 L -31.1384,-4.25912 L -31.1544,-4.25285 L -31.4928,-4.11324 L -31.5077,-4.1068
 L -31.8414,-3.95625 L -31.8414,-5.68686 L -31.5346,-5.79886 L -31.2254,-5.90176 L -30.9153,-5.99506 L -30.6038,-6.07884
 L -30.2905,-6.15327 L -29.9768,-6.218 L -29.6588,-6.27385 L -29.3349,-6.3212 L -29.005,-6.36 L -28.6697,-6.3902
 L -28.3275,-6.41185 L -27.9805,-6.4248 L -27.6308,-6.42911 L -26.7979,-6.40384 L -26.0512,-6.32932 L -25.388,-6.20705
 L -24.8089,-6.03952 L -24.3134,-5.82979 L -23.8992,-5.58134 L -23.5617,-5.29651 L -23.2783,-4.95554 L -23.0309,-4.53256
 L -22.8214,-4.021 L -22.6537,-3.41898 L -22.5314,-2.72675 L -22.4569,-1.94485 L -22.4316,-1.06837 L -22.4316,5.78999
 L -24.7862,5.78999 L -24.7862,4.85179 L -24.7886,4.80307 L -24.7986,4.74109 L -24.8164,4.68085 L -24.8415,4.62331
 L -24.8736,4.56937 L -24.9123,4.51988 L -24.9568,4.47563 L -25.0066,4.43732 L -25.0607,4.40553 L -25.1184,4.38078
 L -25.1788,4.36346 L -25.2408,4.35385 L -25.3036,4.3521 L -25.3661,4.35822 L -25.4273,4.37212 L -25.4863,4.39359
 L -25.5422,4.42227 L -25.594,4.45775 L -25.641,4.49942 L -25.6823,4.54666 L -25.8531,4.76842 L -26.0248,4.9612
 L -26.2087,5.13968 L -26.4047,5.30406 L -26.6137,5.45479 L -26.8355,5.5918 L -27.0714,5.71558 L -27.3177,5.82422
 L -27.5717,5.91634 L -27.8329,5.99173 L -28.1026,6.05069 L -28.3809,6.09299 L -28.6677,6.1185 L -28.9611,6.127
 L -29.532,6.10472 L -30.0564,6.03905 L -30.5367,5.93127 L -30.9736,5.78288 L -31.3698,5.59462 L -31.7272,5.36691
 L -32.0484,5.09906 L -32.33,4.79509 L -32.5679,4.45915 L -32.7635,4.08871 L -32.9176,3.68053 L -33.0293,3.23238
 L -33.0976,2.74216 L -33.1206,2.21117 L -33.0931,1.63904 L -33.0432,1.31979 L -33.1113,1.35724 L -33.2865,1.42657
 L -33.4689,1.47342 L -33.5754,1.48688 L -33.5913,1.58826 L -33.6212,2.20999 L -33.5961,2.78761 L -33.5209,3.32758
 L -33.3956,3.82988 L -33.2203,4.29451 L -32.9948,4.72148 L -32.7191,5.11079 L -32.3934,5.46243 L -32.0227,5.77147
 L -31.6123,6.03296 L -31.1621,6.24692 L -30.6721,6.41331 L -30.1424,6.53218 L -29.5729,6.6035 L -28.9637,6.62727
 z
M -0.208435,0.343567 L -0.206192,-0.00526428 L -0.199493,-0.327759 L -0.188324,-0.623932 L -0.172684,-0.893768 L -0.152573,-1.13728
 L -0.127991,-1.35445 L -0.0989532,-1.54529 L -0.0642548,-1.71925 L -0.0227356,-1.8857 L 0.0256042,-2.04462 L 0.08078,-2.19601
 L 0.142776,-2.33989 L 0.211609,-2.47624 L 0.287277,-2.60507 L 0.419846,-2.80214 L 0.567245,-2.98535 L 0.729446,-3.15468
 L 0.906464,-3.31017 L 1.0983,-3.45178 L 1.30495,-3.57953 L 1.5264,-3.69341 L 1.76085,-3.79272 L 2.00636,-3.87677
 L 2.26292,-3.94553 L 2.53056,-3.99899 L 2.80925,-4.0372 L 3.099,-4.06012 L 3.39981,-4.06775 L 3.65045,-4.06259
 L 3.89523,-4.0471 L 4.13412,-4.02129 L 4.36716,-3.98515 L 4.5943,-3.93869 L 4.81557,-3.8819 L 5.03096,-3.81479
 L 5.23952,-3.73735 L 5.44032,-3.6496 L 5.63336,-3.55151 L 5.81865,-3.4431 L 5.99615,-3.32436 L 6.16591,-3.1953
 L 6.32788,-3.05591 L 6.32788,-6.2764 L 6.15533,-6.36484 L 5.98018,-6.44699 L 5.80244,-6.52283 L 5.62213,-6.59236
 L 5.43922,-6.65558 L 5.25372,-6.71249 L 5.06563,-6.76311 L 4.87567,-6.80717 L 4.68451,-6.84445 L 4.49219,-6.87495
 L 4.29868,-6.89868 L 4.10399,-6.91563 L 3.90813,-6.9258 L 3.71107,-6.9292 L 3.32616,-6.91684 L 2.95537,-6.87976
 L 2.59871,-6.81798 L 2.25615,-6.73146 L 1.92772,-6.62024 L 1.61342,-6.4843 L 1.31323,-6.32365 L 1.03091,-6.14046
 L 0.770248,-5.93677 L 0.531235,-5.71262 L 0.313843,-5.46799 L 0.118103,-5.20288 L -0.0559692,-4.9173 L -0.208435,-4.61124
 L -0.208435,-6.62456 L -3.58633,-6.62456 L -3.58633,6.28999 L -0.208435,6.28999 z
M -3.08633,5.78999 L -3.08633,-6.12456 L -0.708435,-6.12456 L -0.708435,-4.61124 L -0.701553,-4.52855 L -0.687302,-4.46739
 L -0.665497,-4.40851 L -0.636475,-4.35283 L -0.600723,-4.30121 L -0.558762,-4.25449 L -0.511292,-4.21339 L -0.459045,-4.17857
 L -0.402847,-4.15057 L -0.343567,-4.12984 L -0.282166,-4.1167 L -0.219604,-4.11136 L -0.156876,-4.11391 L -0.0949402,-4.12428
 L -0.0348053,-4.14235 L 0.0225983,-4.16782 L 0.0763397,-4.20026 L 0.12561,-4.2392 L 0.169601,-4.284 L 0.207642,-4.33395
 L 0.239105,-4.38829 L 0.382034,-4.67522 L 0.533508,-4.92372 L 0.702621,-5.15276 L 0.889908,-5.36351 L 1.09584,-5.55664
 L 1.32147,-5.73296 L 1.56776,-5.89278 L 1.83104,-6.03366 L 2.10735,-6.15317 L 2.39789,-6.25156 L 2.7027,-6.32855
 L 3.02304,-6.38403 L 3.35904,-6.41763 L 3.71478,-6.42906 L 3.89079,-6.42603 L 4.06953,-6.41675 L 4.24654,-6.40134
 L 4.42261,-6.37975 L 4.59734,-6.35204 L 4.77136,-6.3181 L 4.94424,-6.278 L 5.11496,-6.23206 L 5.28453,-6.18002
 L 5.45049,-6.12267 L 5.61417,-6.05956 L 5.77573,-5.99062 L 5.82788,-5.96616 L 5.82788,-4.0135 L 5.66681,-4.09535
 L 5.64055,-4.10776 L 5.43974,-4.19551 L 5.41356,-4.20609 L 5.205,-4.28352 L 5.17969,-4.29216 L 4.96429,-4.35927
 L 4.93988,-4.3662 L 4.71861,-4.42299 L 4.6945,-4.42854 L 4.46736,-4.47501 L 4.44377,-4.47925 L 4.21074,-4.51538
 L 4.18785,-4.51839 L 3.94896,-4.5442 L 3.9268,-4.54611 L 3.68202,-4.5616 L 3.66074,-4.56248 L 3.4101,-4.56764
 L 3.38713,-4.56758 L 3.08632,-4.55995 L 3.05957,-4.55856 L 2.76982,-4.53564 L 2.74133,-4.53256 L 2.46265,-4.49435
 L 2.43262,-4.4893 L 2.16498,-4.43584 L 2.1335,-4.42848 L 1.87694,-4.35973 L 1.84442,-4.34982 L 1.59891,-4.26578
 L 1.56581,-4.25311 L 1.33136,-4.15379 L 1.29774,-4.13806 L 1.07629,-4.02419 L 1.04204,-4.00482 L 0.835388,-3.87708
 L 0.801331,-3.85405 L 0.609497,-3.71243 L 0.576492,-3.68582 L 0.399475,-3.53033 L 0.368378,-3.50055 L 0.206177,-3.33122
 L 0.177673,-3.29877 L 0.0302734,-3.11555 L 0.00497437,-3.08122 L -0.127594,-2.88416 L -0.14386,-2.85829 L -0.219528,-2.72946
 L -0.234741,-2.70157 L -0.303574,-2.56522 L -0.316406,-2.53775 L -0.378403,-2.39388 L -0.388992,-2.36722 L -0.444168,-2.21582
 L -0.452759,-2.19012 L -0.501099,-2.0312 L -0.507874,-2.00671 L -0.549393,-1.84027 L -0.554596,-1.81706 L -0.589294,-1.6431
 L -0.593262,-1.6205 L -0.622299,-1.42966 L -0.624817,-1.41069 L -0.649399,-1.19353 L -0.650879,-1.17844 L -0.67099,-0.934921
 L -0.671844,-0.922699 L -0.687485,-0.652863 L -0.687973,-0.642776 L -0.699142,-0.346603 L -0.699387,-0.338135 L -0.706085,-0.0156403
 L -0.706177,-0.00848389 L -0.70842,0.340347 L -0.708435,5.78999 z
M 26.1603,-1.09836 L 26.171,-1.50037 L 26.2031,-1.87651 L 26.2567,-2.22676 L 26.3316,-2.55115 L 26.4279,-2.84966
 L 26.5456,-3.1223 L 26.6848,-3.36905 L 26.8425,-3.58617 L 27.0161,-3.7699 L 27.2054,-3.92021 L 27.4104,-4.03712
 L 27.6312,-4.12062 L 27.8678,-4.17073 L 28.1201,-4.18744 L 28.3668,-4.17508 L 28.593,-4.13803 L 28.7988,-4.07628
 L 28.984,-3.98982 L 29.1488,-3.87866 L 29.2932,-3.7428 L 29.417,-3.58223 L 29.5226,-3.39302 L 29.6119,-3.1711
 L 29.6849,-2.91647 L 29.7417,-2.62915 L 29.7823,-2.30913 L 29.8067,-1.95639 L 29.8148,-1.57097 L 29.8148,6.28999
 L 32.8685,6.28999 L 32.9463,6.23351 L 33.1113,6.14275 L 33.1694,6.11975 L 33.1694,1.38023 L 33.1113,1.35724
 L 32.9463,1.26648 L 32.7939,1.15576 L 32.6694,1.03889 L 32.6694,5.78999 L 30.3148,5.78999 L 30.3148,-1.57097
 L 30.3147,-1.5815 L 30.3066,-1.96692 L 30.3055,-1.99084 L 30.2811,-2.34358 L 30.2784,-2.37204 L 30.2378,-2.69206
 L 30.2322,-2.72615 L 30.1754,-3.01347 L 30.1655,-3.05437 L 30.0925,-3.30899 L 30.0757,-3.35776 L 29.9864,-3.57968
 L 29.9592,-3.6366 L 29.8537,-3.82581 L 29.8129,-3.88759 L 29.6891,-4.04816 L 29.6359,-4.10686 L 29.4916,-4.24272
 L 29.4284,-4.29318 L 29.2636,-4.40434 L 29.1955,-4.44292 L 29.0102,-4.52937 L 28.9425,-4.55518 L 28.7368,-4.61693
 L 28.6738,-4.63145 L 28.4476,-4.6685 L 28.3918,-4.67445 L 28.1451,-4.68681 L 28.0871,-4.68634 L 27.8347,-4.66963
 L 27.7641,-4.65988 L 27.5276,-4.60977 L 27.4544,-4.5883 L 27.2336,-4.50481 L 27.1627,-4.47148 L 26.9577,-4.35457
 L 26.8944,-4.31177 L 26.7051,-4.16145 L 26.6526,-4.1132 L 26.479,-3.92947 L 26.4381,-3.8801 L 26.2803,-3.66298
 L 26.2492,-3.61462 L 26.1101,-3.36787 L 26.0866,-3.32053 L 25.9689,-3.04788 L 25.9521,-3.0032 L 25.8557,-2.7047
 L 25.8444,-2.66367 L 25.7695,-2.33928 L 25.7624,-2.30228 L 25.7089,-1.95203 L 25.705,-1.91905 L 25.6728,-1.54291
 L 25.6712,-1.51367 L 25.6605,-1.11166 L 25.6603,-1.09836 L 25.6603,5.78999 L 23.3057,5.78999 L 23.3057,-6.12456
 L 25.6603,-6.12456 L 25.6603,-4.68417 L 25.6652,-4.61459 L 25.6778,-4.55309 L 25.698,-4.49364 L 25.7256,-4.43721
 L 25.7599,-4.38466 L 25.8006,-4.33685 L 25.847,-4.29451 L 25.8983,-4.25832 L 25.9538,-4.22884 L 26.0125,-4.20654
 L 26.0735,-4.19177 L 26.1359,-4.18477 L 26.1987,-4.18565 L 26.2609,-4.19438 L 26.3215,-4.21085 L 26.3795,-4.23477
 L 26.4341,-4.26579 L 26.4844,-4.30341 L 26.5295,-4.34702 L 26.5689,-4.39595 L 26.6018,-4.44943 L 26.6277,-4.50662
 L 26.7325,-4.78252 L 26.8465,-5.01895 L 26.9763,-5.23552 L 27.1224,-5.43362 L 27.285,-5.61444 L 27.4651,-5.77901
 L 27.6635,-5.92795 L 27.8778,-6.05916 L 28.1048,-6.17047 L 28.3459,-6.26219 L 28.6021,-6.33427 L 28.8743,-6.38644
 L 29.1631,-6.41817 L 29.4653,-6.42877 L 29.9227,-6.40631 L 30.3342,-6.34096 L 30.7045,-6.2346 L 31.0361,-6.08891
 L 31.3332,-5.90387 L 31.5996,-5.67795 L 31.8385,-5.40785 L 32.05,-5.09053 L 32.233,-4.72356 L 32.3865,-4.3038
 L 32.5084,-3.83083 L 32.5971,-3.30357 L 32.651,-2.72301 L 32.6694,-2.08272 L 32.6694,-1.03889 L 32.7939,-1.15576
 L 32.9463,-1.26648 L 33.1113,-1.35724 L 33.1694,-1.38023 L 33.1694,-2.08963 L 33.1504,-2.75336 L 33.0932,-3.36841
 L 32.9979,-3.93478 L 32.8645,-4.45248 L 32.693,-4.92151 L 32.4834,-5.34186 L 32.2356,-5.71352 L 31.9505,-6.03604
 L 31.6286,-6.30896 L 31.2701,-6.53224 L 30.8748,-6.7059 L 30.4429,-6.82996 L 29.9742,-6.90439 L 29.4689,-6.9292
 L 29.127,-6.91721 L 28.7998,-6.88126 L 28.4871,-6.82135 L 28.189,-6.73746 L 27.9055,-6.62961 L 27.6366,-6.49779
 L 27.3823,-6.34201 L 27.1456,-6.16438 L 26.9296,-5.96701 L 26.7344,-5.74991 L 26.5598,-5.51308 L 26.4059,-5.25652
 L 26.2728,-4.98021 L 26.1603,-4.68417 L 26.1603,-6.62456 L 22.8057,-6.62456 L 22.8057,6.28999 L 26.1603,6.28999
 z
M -28.0713,4.78729 L -27.7014,4.76671 L -27.6412,4.75967 L -27.2958,4.69791 L -27.2311,4.68182 L -26.9102,4.57889
 L -26.8443,4.55246 L -26.5479,4.40836 L -26.485,4.37189 L -26.213,4.1866 L -26.157,4.14227 L -25.9095,3.9158
 L -25.863,3.86703 L -25.6399,3.59941 L -25.6034,3.54962 L -25.4077,3.24504 L -25.3795,3.19511 L -25.2138,2.85782
 L -25.1931,2.80937 L -25.0576,2.43938 L -25.0434,2.39403 L -24.938,1.99133 L -24.929,1.94992 L -24.8538,1.5145
 L -24.8488,1.47734 L -24.8036,1.00922 L -24.8015,0.976196 L -24.7865,0.475372 L -24.7862,0.460358 L -24.7862,0.229828
 L -24.7951,0.136139 L -24.8107,0.0753174 L -24.8338,0.0169373 L -24.8641,-0.0380859 L -24.901,-0.0888824 L -24.944,-0.134659
 L -24.9923,-0.174683 L -25.0453,-0.208328 L -25.1022,-0.235062 L -25.1619,-0.254471 L -25.2236,-0.266235 L -25.2862,-0.270172
 L -26.635,-0.270172 L -26.6446,-0.270081 L -27.1614,-0.260193 L -27.1833,-0.259293 L -27.6536,-0.229645 L -27.6801,-0.227264
 L -28.1038,-0.177841 L -28.1361,-0.173004 L -28.5132,-0.103806 L -28.5529,-0.0948334 L -28.8835,-0.00587463 L -28.9323,0.00999451
 L -29.2163,0.118713 L -29.2755,0.14595 L -29.5129,0.274445 L -29.5792,0.317383 L -29.778,0.469833 L -29.8397,0.525894
 L -30.0079,0.706573 L -30.0595,0.772217 L -30.1971,0.98114 L -30.2353,1.05049 L -30.3424,1.28764 L -30.3671,1.35493
 L -30.4436,1.62032 L -30.4571,1.68155 L -30.503,1.97517 L -30.5084,2.02864 L -30.5237,2.35048 L -30.5238,2.39597
 L -30.5132,2.63902 L -30.5089,2.6861 L -30.4772,2.91455 L -30.4673,2.96585 L -30.4144,3.17972 L -30.3977,3.2338
 L -30.3236,3.43309 L -30.2993,3.4881 L -30.204,3.67281 L -30.1723,3.72601 L -30.0558,3.89612 L -30.0177,3.94501
 L -29.8801,4.10054 L -29.8367,4.14388 L -29.681,4.28154 L -29.6315,4.32001 L -29.4607,4.43648 L -29.4071,4.46831
 L -29.2212,4.5636 L -29.1662,4.58775 L -28.9653,4.66188 L -28.9112,4.67841 L -28.6952,4.73134 L -28.6443,4.74106
 L -28.4133,4.77283 L -28.3667,4.77702 L -28.1205,4.78761 z
M -28.3452,4.27748 L -28.5762,4.24571 L -28.7922,4.19278 L -28.9931,4.11865 L -29.179,4.02336 L -29.3499,3.90689
 L -29.5056,3.76923 L -29.6432,3.61369 L -29.7597,3.44359 L -29.8549,3.25888 L -29.929,3.05959 L -29.9819,2.84572
 L -30.0137,2.61726 L -30.0243,2.37421 L -30.009,2.05237 L -29.9631,1.75874 L -29.8867,1.49336 L -29.7796,1.25621
 L -29.642,1.04729 L -29.4737,0.866608 L -29.2749,0.714157 L -29.0375,0.585663 L -28.7536,0.476944 L -28.423,0.387985
 L -28.0459,0.318787 L -27.6222,0.269363 L -27.1519,0.239716 L -26.635,0.229828 L -25.2862,0.229828 L -25.2862,0.460358
 L -25.3013,0.961182 L -25.3465,1.42931 L -25.4217,1.86473 L -25.5271,2.26743 L -25.6626,2.63742 L -25.8283,2.97472
 L -26.024,3.2793 L -26.2471,3.54692 L -26.4946,3.77339 L -26.7665,3.95868 L -27.0629,4.10278 L -27.3839,4.20572
 L -27.7292,4.26749 L -28.099,4.28807 z
" stroke="black" fill="lightgray" stroke-width="0.5"/>
</svg>
