  0
SECTION
  2
BLOCKS
  0
ENDSEC
  0
SECTION
  2
ENTITIES
  0
LINE
  8
0
 10
-14.7564
 20
-6.61786
 11
-14.439
 21
-6.58963
  0
LINE
  8
0
 10
-14.439
 20
-6.58963
 11
-14.1297
 21
-6.54259
  0
LINE
  8
0
 10
-14.1297
 20
-6.54259
 11
-13.8283
 21
-6.47673
  0
LINE
  8
0
 10
-13.8283
 20
-6.47673
 11
-13.535
 21
-6.39204
  0
LINE
  8
0
 10
-13.535
 20
-6.39204
 11
-13.2496
 21
-6.28854
  0
LINE
  8
0
 10
-13.2496
 20
-6.28854
 11
-12.9722
 21
-6.16623
  0
LINE
  8
0
 10
-12.9722
 20
-6.16623
 11
-12.7059
 21
-6.02646
  0
LINE
  8
0
 10
-12.7059
 20
-6.02646
 11
-12.4537
 21
-5.87068
  0
LINE
  8
0
 10
-12.4537
 20
-5.87068
 11
-12.2155
 21
-5.6989
  0
LINE
  8
0
 10
-12.2155
 20
-5.6989
 11
-11.9916
 21
-5.51112
  0
LINE
  8
0
 10
-11.9916
 20
-5.51112
 11
-11.7817
 21
-5.30736
  0
LINE
  8
0
 10
-11.7817
 20
-5.30736
 11
-11.586
 21
-5.08757
  0
LINE
  8
0
 10
-11.586
 20
-5.08757
 11
-11.4043
 21
-4.85179
  0
LINE
  8
0
 10
-11.4043
 20
-4.85179
 11
-11.4043
 21
-6.28999
  0
LINE
  8
0
 10
-11.4043
 20
-6.28999
 11
-8.04971
 21
-6.28999
  0
LINE
  8
0
 10
-8.04971
 20
-6.28999
 11
-8.04971
 21
1.07541
  0
LINE
  8
0
 10
-8.04971
 20
1.07541
 11
-8.07571
 21
1.97586
  0
LINE
  8
0
 10
-8.07571
 20
1.97586
 11
-8.1537
 21
2.79401
  0
LINE
  8
0
 10
-8.1537
 20
2.79401
 11
-8.28368
 21
3.52985
  0
LINE
  8
0
 10
-8.28368
 20
3.52985
 11
-8.46565
 21
4.18338
  0
LINE
  8
0
 10
-8.46565
 20
4.18338
 11
-8.69962
 21
4.75459
  0
LINE
  8
0
 10
-8.69962
 20
4.75459
 11
-8.98558
 21
5.2435
  0
LINE
  8
0
 10
-8.98558
 20
5.2435
 11
-9.32352
 21
5.65012
  0
LINE
  8
0
 10
-9.32352
 20
5.65012
 11
-9.72571
 21
5.98946
  0
LINE
  8
0
 10
-9.72571
 20
5.98946
 11
-10.2043
 21
6.2766
  0
LINE
  8
0
 10
-10.2043
 20
6.2766
 11
-10.7595
 21
6.51154
  0
LINE
  8
0
 10
-10.7595
 20
6.51154
 11
-11.391
 21
6.69426
  0
LINE
  8
0
 10
-11.391
 20
6.69426
 11
-12.0991
 21
6.82478
  0
LINE
  8
0
 10
-12.0991
 20
6.82478
 11
-12.8836
 21
6.90309
  0
LINE
  8
0
 10
-12.8836
 20
6.90309
 11
-13.7445
 21
6.9292
  0
LINE
  8
0
 10
-13.7445
 20
6.9292
 11
-14.1106
 21
6.9247
  0
LINE
  8
0
 10
-14.1106
 20
6.9247
 11
-14.4711
 21
6.91124
  0
LINE
  8
0
 10
-14.4711
 20
6.91124
 11
-14.8258
 21
6.88879
  0
LINE
  8
0
 10
-14.8258
 20
6.88879
 11
-15.175
 21
6.85736
  0
LINE
  8
0
 10
-15.175
 20
6.85736
 11
-15.5184
 21
6.81696
  0
LINE
  8
0
 10
-15.5184
 20
6.81696
 11
-15.8563
 21
6.76758
  0
LINE
  8
0
 10
-15.8563
 20
6.76758
 11
-16.1885
 21
6.70921
  0
LINE
  8
0
 10
-16.1885
 20
6.70921
 11
-16.5171
 21
6.6414
  0
LINE
  8
0
 10
-16.5171
 20
6.6414
 11
-16.8444
 21
6.56366
  0
LINE
  8
0
 10
-16.8444
 20
6.56366
 11
-17.1702
 21
6.47601
  0
LINE
  8
0
 10
-17.1702
 20
6.47601
 11
-17.4946
 21
6.37843
  0
LINE
  8
0
 10
-17.4946
 20
6.37843
 11
-17.8177
 21
6.27092
  0
LINE
  8
0
 10
-17.8177
 20
6.27092
 11
-18.1393
 21
6.1535
  0
LINE
  8
0
 10
-18.1393
 20
6.1535
 11
-18.4595
 21
6.02615
  0
LINE
  8
0
 10
-18.4595
 20
6.02615
 11
-18.4595
 21
3.14296
  0
LINE
  8
0
 10
-18.4595
 20
3.14296
 11
-18.1091
 21
3.32718
  0
LINE
  8
0
 10
-18.1091
 20
3.32718
 11
-17.7626
 21
3.49654
  0
LINE
  8
0
 10
-17.7626
 20
3.49654
 11
-17.4202
 21
3.65103
  0
LINE
  8
0
 10
-17.4202
 20
3.65103
 11
-17.0818
 21
3.79065
  0
LINE
  8
0
 10
-17.0818
 20
3.79065
 11
-16.7474
 21
3.91539
  0
LINE
  8
0
 10
-16.7474
 20
3.91539
 11
-16.417
 21
4.02527
  0
LINE
  8
0
 10
-16.417
 20
4.02527
 11
-16.0905
 21
4.12029
  0
LINE
  8
0
 10
-16.0905
 20
4.12029
 11
-15.7646
 21
4.2016
  0
LINE
  8
0
 10
-15.7646
 20
4.2016
 11
-15.4355
 21
4.27042
  0
LINE
  8
0
 10
-15.4355
 20
4.27042
 11
-15.1034
 21
4.32671
  0
LINE
  8
0
 10
-15.1034
 20
4.32671
 11
-14.7683
 21
4.3705
  0
LINE
  8
0
 10
-14.7683
 20
4.3705
 11
-14.4301
 21
4.40176
  0
LINE
  8
0
 10
-14.4301
 20
4.40176
 11
-14.0889
 21
4.42053
  0
LINE
  8
0
 10
-14.0889
 20
4.42053
 11
-13.7445
 21
4.42679
  0
LINE
  8
0
 10
-13.7445
 20
4.42679
 11
-13.4266
 21
4.4182
  0
LINE
  8
0
 10
-13.4266
 20
4.4182
 11
-13.1315
 21
4.39243
  0
LINE
  8
0
 10
-13.1315
 20
4.39243
 11
-12.8591
 21
4.34949
  0
LINE
  8
0
 10
-12.8591
 20
4.34949
 11
-12.6097
 21
4.28935
  0
LINE
  8
0
 10
-12.6097
 20
4.28935
 11
-12.383
 21
4.21204
  0
LINE
  8
0
 10
-12.383
 20
4.21204
 11
-12.1792
 21
4.11754
  0
LINE
  8
0
 10
-12.1792
 20
4.11754
 11
-11.9981
 21
4.00587
  0
LINE
  8
0
 10
-11.9981
 20
4.00587
 11
-11.8406
 21
3.87753
  0
LINE
  8
0
 10
-11.8406
 20
3.87753
 11
-11.7073
 21
3.73296
  0
LINE
  8
0
 10
-11.7073
 20
3.73296
 11
-11.5982
 21
3.57213
  0
LINE
  8
0
 10
-11.5982
 20
3.57213
 11
-11.5134
 21
3.39507
  0
LINE
  8
0
 10
-11.5134
 20
3.39507
 11
-11.4528
 21
3.20175
  0
LINE
  8
0
 10
-11.4528
 20
3.20175
 11
-11.4164
 21
2.9922
  0
LINE
  8
0
 10
-11.4164
 20
2.9922
 11
-11.4043
 21
2.7664
  0
LINE
  8
0
 10
-11.4043
 20
2.7664
 11
-11.4043
 21
2.20728
  0
LINE
  8
0
 10
-11.4043
 20
2.20728
 11
-13.7445
 21
2.20728
  0
LINE
  8
0
 10
-13.7445
 20
2.20728
 11
-14.588
 21
2.18526
  0
LINE
  8
0
 10
-14.588
 20
2.18526
 11
-15.366
 21
2.11923
  0
LINE
  8
0
 10
-15.366
 20
2.11923
 11
-16.0786
 21
2.00919
  0
LINE
  8
0
 10
-16.0786
 20
2.00919
 11
-16.7259
 21
1.85512
  0
LINE
  8
0
 10
-16.7259
 20
1.85512
 11
-17.3077
 21
1.65703
  0
LINE
  8
0
 10
-17.3077
 20
1.65703
 11
-17.8242
 21
1.41492
  0
LINE
  8
0
 10
-17.8242
 20
1.41492
 11
-18.2752
 21
1.1288
  0
LINE
  8
0
 10
-18.2752
 20
1.1288
 11
-18.6636
 21
0.796585
  0
LINE
  8
0
 10
-18.6636
 20
0.796585
 11
-18.9923
 21
0.416107
  0
LINE
  8
0
 10
-18.9923
 20
0.416107
 11
-19.2612
 21
-0.0125885
  0
LINE
  8
0
 10
-19.2612
 20
-0.0125885
 11
-19.4704
 21
-0.489563
  0
LINE
  8
0
 10
-19.4704
 20
-0.489563
 11
-19.6197
 21
-1.01479
  0
LINE
  8
0
 10
-19.6197
 20
-1.01479
 11
-19.7094
 21
-1.58826
  0
LINE
  8
0
 10
-19.7094
 20
-1.58826
 11
-19.7393
 21
-2.20999
  0
LINE
  8
0
 10
-19.7393
 20
-2.20999
 11
-19.7142
 21
-2.78761
  0
LINE
  8
0
 10
-19.7142
 20
-2.78761
 11
-19.639
 21
-3.32758
  0
LINE
  8
0
 10
-19.639
 20
-3.32758
 11
-19.5137
 21
-3.82988
  0
LINE
  8
0
 10
-19.5137
 20
-3.82988
 11
-19.3384
 21
-4.29451
  0
LINE
  8
0
 10
-19.3384
 20
-4.29451
 11
-19.1129
 21
-4.72148
  0
LINE
  8
0
 10
-19.1129
 20
-4.72148
 11
-18.8372
 21
-5.11079
  0
LINE
  8
0
 10
-18.8372
 20
-5.11079
 11
-18.5115
 21
-5.46243
  0
LINE
  8
0
 10
-18.5115
 20
-5.46243
 11
-18.1409
 21
-5.77147
  0
LINE
  8
0
 10
-18.1409
 20
-5.77147
 11
-17.7304
 21
-6.03296
  0
LINE
  8
0
 10
-17.7304
 20
-6.03296
 11
-17.2802
 21
-6.24692
  0
LINE
  8
0
 10
-17.2802
 20
-6.24692
 11
-16.7903
 21
-6.41331
  0
LINE
  8
0
 10
-16.7903
 20
-6.41331
 11
-16.2605
 21
-6.53218
  0
LINE
  8
0
 10
-16.2605
 20
-6.53218
 11
-15.691
 21
-6.6035
  0
LINE
  8
0
 10
-15.691
 20
-6.6035
 11
-15.0818
 21
-6.62727
  0
LINE
  8
0
 10
-15.0818
 20
-6.62727
 11
-14.7564
 21
-6.61786
  0
LINE
  8
0
 10
-15.6501
 20
-6.10472
 11
-16.1745
 21
-6.03905
  0
LINE
  8
0
 10
-16.1745
 20
-6.03905
 11
-16.6548
 21
-5.93127
  0
LINE
  8
0
 10
-16.6548
 20
-5.93127
 11
-17.0918
 21
-5.78287
  0
LINE
  8
0
 10
-17.0918
 20
-5.78287
 11
-17.4878
 21
-5.59465
  0
LINE
  8
0
 10
-17.4878
 20
-5.59465
 11
-17.8453
 21
-5.36691
  0
LINE
  8
0
 10
-17.8453
 20
-5.36691
 11
-18.1666
 21
-5.09906
  0
LINE
  8
0
 10
-18.1666
 20
-5.09906
 11
-18.4481
 21
-4.79509
  0
LINE
  8
0
 10
-18.4481
 20
-4.79509
 11
-18.686
 21
-4.45915
  0
LINE
  8
0
 10
-18.686
 20
-4.45915
 11
-18.8816
 21
-4.08871
  0
LINE
  8
0
 10
-18.8816
 20
-4.08871
 11
-19.0357
 21
-3.68054
  0
LINE
  8
0
 10
-19.0357
 20
-3.68054
 11
-19.1475
 21
-3.23233
  0
LINE
  8
0
 10
-19.1475
 20
-3.23233
 11
-19.2157
 21
-2.74217
  0
LINE
  8
0
 10
-19.2157
 20
-2.74217
 11
-19.2387
 21
-2.21117
  0
LINE
  8
0
 10
-19.2387
 20
-2.21117
 11
-19.2112
 21
-1.63907
  0
LINE
  8
0
 10
-19.2112
 20
-1.63907
 11
-19.1304
 21
-1.12216
  0
LINE
  8
0
 10
-19.1304
 20
-1.12216
 11
-18.9988
 21
-0.659164
  0
LINE
  8
0
 10
-18.9988
 20
-0.659164
 11
-18.8181
 21
-0.24707
  0
LINE
  8
0
 10
-18.8181
 20
-0.24707
 11
-18.589
 21
0.118164
  0
LINE
  8
0
 10
-18.589
 20
0.118164
 11
-18.31
 21
0.441147
  0
LINE
  8
0
 10
-18.31
 20
0.441147
 11
-17.9773
 21
0.725647
  0
LINE
  8
0
 10
-17.9773
 20
0.725647
 11
-17.5832
 21
0.975647
  0
LINE
  8
0
 10
-17.5832
 20
0.975647
 11
-17.1205
 21
1.19258
  0
LINE
  8
0
 10
-17.1205
 20
1.19258
 11
-16.587
 21
1.37422
  0
LINE
  8
0
 10
-16.587
 20
1.37422
 11
-15.9825
 21
1.51811
  0
LINE
  8
0
 10
-15.9825
 20
1.51811
 11
-15.3068
 21
1.62245
  0
LINE
  8
0
 10
-15.3068
 20
1.62245
 11
-14.5602
 21
1.68581
  0
LINE
  8
0
 10
-14.5602
 20
1.68581
 11
-13.7379
 21
1.70728
  0
LINE
  8
0
 10
-13.7379
 20
1.70728
 11
-11.4043
 21
1.70728
  0
LINE
  8
0
 10
-11.4043
 20
1.70728
 11
-11.3106
 21
1.71613
  0
LINE
  8
0
 10
-11.3106
 20
1.71613
 11
-11.2498
 21
1.73175
  0
LINE
  8
0
 10
-11.2498
 20
1.73175
 11
-11.1914
 21
1.75487
  0
LINE
  8
0
 10
-11.1914
 20
1.75487
 11
-11.1364
 21
1.78511
  0
LINE
  8
0
 10
-11.1364
 20
1.78511
 11
-11.0856
 21
1.82202
  0
LINE
  8
0
 10
-11.0856
 20
1.82202
 11
-11.0398
 21
1.86501
  0
LINE
  8
0
 10
-11.0398
 20
1.86501
 11
-10.9998
 21
1.91338
  0
LINE
  8
0
 10
-10.9998
 20
1.91338
 11
-10.9662
 21
1.9664
  0
LINE
  8
0
 10
-10.9662
 20
1.9664
 11
-10.9394
 21
2.02321
  0
LINE
  8
0
 10
-10.9394
 20
2.02321
 11
-10.92
 21
2.08293
  0
LINE
  8
0
 10
-10.92
 20
2.08293
 11
-10.9083
 21
2.14461
  0
LINE
  8
0
 10
-10.9083
 20
2.14461
 11
-10.9043
 21
2.20728
  0
LINE
  8
0
 10
-10.9043
 20
2.20728
 11
-10.9043
 21
2.7664
  0
LINE
  8
0
 10
-10.9043
 20
2.7664
 11
-10.905
 21
2.7932
  0
LINE
  8
0
 10
-10.905
 20
2.7932
 11
-10.9172
 21
3.019
  0
LINE
  8
0
 10
-10.9172
 20
3.019
 11
-10.9238
 21
3.07768
  0
LINE
  8
0
 10
-10.9238
 20
3.07768
 11
-10.9602
 21
3.28723
  0
LINE
  8
0
 10
-10.9602
 20
3.28723
 11
-10.9757
 21
3.3513
  0
LINE
  8
0
 10
-10.9757
 20
3.3513
 11
-11.0363
 21
3.54462
  0
LINE
  8
0
 10
-11.0363
 20
3.54462
 11
-11.0625
 21
3.61108
  0
LINE
  8
0
 10
-11.0625
 20
3.61108
 11
-11.1473
 21
3.78815
  0
LINE
  8
0
 10
-11.1473
 20
3.78815
 11
-11.1844
 21
3.85277
  0
LINE
  8
0
 10
-11.1844
 20
3.85277
 11
-11.2935
 21
4.0136
  0
LINE
  8
0
 10
-11.2935
 20
4.0136
 11
-11.3397
 21
4.07188
  0
LINE
  8
0
 10
-11.3397
 20
4.07188
 11
-11.473
 21
4.21646
  0
LINE
  8
0
 10
-11.473
 20
4.21646
 11
-11.5248
 21
4.26518
  0
LINE
  8
0
 10
-11.5248
 20
4.26518
 11
-11.6823
 21
4.39352
  0
LINE
  8
0
 10
-11.6823
 20
4.39352
 11
-11.7356
 21
4.43143
  0
LINE
  8
0
 10
-11.7356
 20
4.43143
 11
-11.9166
 21
4.54309
  0
LINE
  8
0
 10
-11.9166
 20
4.54309
 11
-11.9689
 21
4.57117
  0
LINE
  8
0
 10
-11.9689
 20
4.57117
 11
-12.1727
 21
4.66566
  0
LINE
  8
0
 10
-12.1727
 20
4.66566
 11
-12.2216
 21
4.68526
  0
LINE
  8
0
 10
-12.2216
 20
4.68526
 11
-12.4482
 21
4.76257
  0
LINE
  8
0
 10
-12.4482
 20
4.76257
 11
-12.4925
 21
4.77544
  0
LINE
  8
0
 10
-12.4925
 20
4.77544
 11
-12.742
 21
4.83557
  0
LINE
  8
0
 10
-12.742
 20
4.83557
 11
-12.7813
 21
4.84338
  0
LINE
  8
0
 10
-12.7813
 20
4.84338
 11
-13.0536
 21
4.88632
  0
LINE
  8
0
 10
-13.0536
 20
4.88632
 11
-13.088
 21
4.89053
  0
LINE
  8
0
 10
-13.088
 20
4.89053
 11
-13.3831
 21
4.91631
  0
LINE
  8
0
 10
-13.3831
 20
4.91631
 11
-13.4131
 21
4.91801
  0
LINE
  8
0
 10
-13.4131
 20
4.91801
 11
-13.731
 21
4.92661
  0
LINE
  8
0
 10
-13.731
 20
4.92661
 11
-13.7536
 21
4.92671
  0
LINE
  8
0
 10
-13.7536
 20
4.92671
 11
-14.0979
 21
4.92046
  0
LINE
  8
0
 10
-14.0979
 20
4.92046
 11
-14.1163
 21
4.91978
  0
LINE
  8
0
 10
-14.1163
 20
4.91978
 11
-14.4576
 21
4.90102
  0
LINE
  8
0
 10
-14.4576
 20
4.90102
 11
-14.4761
 21
4.89964
  0
LINE
  8
0
 10
-14.4761
 20
4.89964
 11
-14.8143
 21
4.86838
  0
LINE
  8
0
 10
-14.8143
 20
4.86838
 11
-14.8331
 21
4.86629
  0
LINE
  8
0
 10
-14.8331
 20
4.86629
 11
-15.1682
 21
4.82249
  0
LINE
  8
0
 10
-15.1682
 20
4.82249
 11
-15.187
 21
4.81967
  0
LINE
  8
0
 10
-15.187
 20
4.81967
 11
-15.5191
 21
4.76338
  0
LINE
  8
0
 10
-15.5191
 20
4.76338
 11
-15.5379
 21
4.75983
  0
LINE
  8
0
 10
-15.5379
 20
4.75983
 11
-15.8669
 21
4.69101
  0
LINE
  8
0
 10
-15.8669
 20
4.69101
 11
-15.8856
 21
4.68674
  0
LINE
  8
0
 10
-15.8856
 20
4.68674
 11
-16.2116
 21
4.60542
  0
LINE
  8
0
 10
-16.2116
 20
4.60542
 11
-16.2303
 21
4.60036
  0
LINE
  8
0
 10
-16.2303
 20
4.60036
 11
-16.5567
 21
4.50534
  0
LINE
  8
0
 10
-16.5567
 20
4.50534
 11
-16.5747
 21
4.49973
  0
LINE
  8
0
 10
-16.5747
 20
4.49973
 11
-16.9052
 21
4.38985
  0
LINE
  8
0
 10
-16.9052
 20
4.38985
 11
-16.9221
 21
4.38387
  0
LINE
  8
0
 10
-16.9221
 20
4.38387
 11
-17.2565
 21
4.25912
  0
LINE
  8
0
 10
-17.2565
 20
4.25912
 11
-17.2725
 21
4.25285
  0
LINE
  8
0
 10
-17.2725
 20
4.25285
 11
-17.6109
 21
4.11324
  0
LINE
  8
0
 10
-17.6109
 20
4.11324
 11
-17.6258
 21
4.1068
  0
LINE
  8
0
 10
-17.6258
 20
4.1068
 11
-17.9595
 21
3.95625
  0
LINE
  8
0
 10
-17.9595
 20
3.95625
 11
-17.9595
 21
5.68686
  0
LINE
  8
0
 10
-17.9595
 20
5.68686
 11
-17.6527
 21
5.79886
  0
LINE
  8
0
 10
-17.6527
 20
5.79886
 11
-17.3436
 21
5.90176
  0
LINE
  8
0
 10
-17.3436
 20
5.90176
 11
-17.0334
 21
5.99506
  0
LINE
  8
0
 10
-17.0334
 20
5.99506
 11
-16.7219
 21
6.07884
  0
LINE
  8
0
 10
-16.7219
 20
6.07884
 11
-16.4086
 21
6.15327
  0
LINE
  8
0
 10
-16.4086
 20
6.15327
 11
-16.0949
 21
6.218
  0
LINE
  8
0
 10
-16.0949
 20
6.218
 11
-15.7764
 21
6.27394
  0
LINE
  8
0
 10
-15.7764
 20
6.27394
 11
-15.4535
 21
6.32114
  0
LINE
  8
0
 10
-15.4535
 20
6.32114
 11
-15.1231
 21
6.36
  0
LINE
  8
0
 10
-15.1231
 20
6.36
 11
-14.7878
 21
6.3902
  0
LINE
  8
0
 10
-14.7878
 20
6.3902
 11
-14.4456
 21
6.41185
  0
LINE
  8
0
 10
-14.4456
 20
6.41185
 11
-14.0986
 21
6.4248
  0
LINE
  8
0
 10
-14.0986
 20
6.4248
 11
-13.7489
 21
6.42911
  0
LINE
  8
0
 10
-13.7489
 20
6.42911
 11
-12.916
 21
6.40384
  0
LINE
  8
0
 10
-12.916
 20
6.40384
 11
-12.1693
 21
6.32932
  0
LINE
  8
0
 10
-12.1693
 20
6.32932
 11
-11.5061
 21
6.20705
  0
LINE
  8
0
 10
-11.5061
 20
6.20705
 11
-10.927
 21
6.03952
  0
LINE
  8
0
 10
-10.927
 20
6.03952
 11
-10.4314
 21
5.82976
  0
LINE
  8
0
 10
-10.4314
 20
5.82976
 11
-10.0175
 21
5.58142
  0
LINE
  8
0
 10
-10.0175
 20
5.58142
 11
-9.67975
 21
5.29648
  0
LINE
  8
0
 10
-9.67975
 20
5.29648
 11
-9.39641
 21
4.95555
  0
LINE
  8
0
 10
-9.39641
 20
4.95555
 11
-9.14897
 21
4.53252
  0
LINE
  8
0
 10
-9.14897
 20
4.53252
 11
-8.93945
 21
4.021
  0
LINE
  8
0
 10
-8.93945
 20
4.021
 11
-8.77182
 21
3.41898
  0
LINE
  8
0
 10
-8.77182
 20
3.41898
 11
-8.64955
 21
2.72675
  0
LINE
  8
0
 10
-8.64955
 20
2.72675
 11
-8.57503
 21
1.94485
  0
LINE
  8
0
 10
-8.57503
 20
1.94485
 11
-8.54971
 21
1.06837
  0
LINE
  8
0
 10
-8.54971
 20
1.06837
 11
-8.54971
 21
-5.78999
  0
LINE
  8
0
 10
-8.54971
 20
-5.78999
 11
-10.9043
 21
-5.78999
  0
LINE
  8
0
 10
-10.9043
 20
-5.78999
 11
-10.9043
 21
-4.85179
  0
LINE
  8
0
 10
-10.9043
 20
-4.85179
 11
-10.9067
 21
-4.80307
  0
LINE
  8
0
 10
-10.9067
 20
-4.80307
 11
-10.9167
 21
-4.74109
  0
LINE
  8
0
 10
-10.9167
 20
-4.74109
 11
-10.9345
 21
-4.68085
  0
LINE
  8
0
 10
-10.9345
 20
-4.68085
 11
-10.9596
 21
-4.62331
  0
LINE
  8
0
 10
-10.9596
 20
-4.62331
 11
-10.9917
 21
-4.56937
  0
LINE
  8
0
 10
-10.9917
 20
-4.56937
 11
-11.0304
 21
-4.51988
  0
LINE
  8
0
 10
-11.0304
 20
-4.51988
 11
-11.0749
 21
-4.47563
  0
LINE
  8
0
 10
-11.0749
 20
-4.47563
 11
-11.1247
 21
-4.43732
  0
LINE
  8
0
 10
-11.1247
 20
-4.43732
 11
-11.1788
 21
-4.40553
  0
LINE
  8
0
 10
-11.1788
 20
-4.40553
 11
-11.2365
 21
-4.38078
  0
LINE
  8
0
 10
-11.2365
 20
-4.38078
 11
-11.2969
 21
-4.36346
  0
LINE
  8
0
 10
-11.2969
 20
-4.36346
 11
-11.3589
 21
-4.35385
  0
LINE
  8
0
 10
-11.3589
 20
-4.35385
 11
-11.4217
 21
-4.3521
  0
LINE
  8
0
 10
-11.4217
 20
-4.3521
 11
-11.4842
 21
-4.35822
  0
LINE
  8
0
 10
-11.4842
 20
-4.35822
 11
-11.5454
 21
-4.37212
  0
LINE
  8
0
 10
-11.5454
 20
-4.37212
 11
-11.6044
 21
-4.39359
  0
LINE
  8
0
 10
-11.6044
 20
-4.39359
 11
-11.6603
 21
-4.42227
  0
LINE
  8
0
 10
-11.6603
 20
-4.42227
 11
-11.7121
 21
-4.45775
  0
LINE
  8
0
 10
-11.7121
 20
-4.45775
 11
-11.7591
 21
-4.49942
  0
LINE
  8
0
 10
-11.7591
 20
-4.49942
 11
-11.8004
 21
-4.54666
  0
LINE
  8
0
 10
-11.8004
 20
-4.54666
 11
-11.9713
 21
-4.76842
  0
LINE
  8
0
 10
-11.9713
 20
-4.76842
 11
-12.1429
 21
-4.9612
  0
LINE
  8
0
 10
-12.1429
 20
-4.9612
 11
-12.3268
 21
-5.13968
  0
LINE
  8
0
 10
-12.3268
 20
-5.13968
 11
-12.5228
 21
-5.30406
  0
LINE
  8
0
 10
-12.5228
 20
-5.30406
 11
-12.7318
 21
-5.45479
  0
LINE
  8
0
 10
-12.7318
 20
-5.45479
 11
-12.9536
 21
-5.5918
  0
LINE
  8
0
 10
-12.9536
 20
-5.5918
 11
-13.1895
 21
-5.71558
  0
LINE
  8
0
 10
-13.1895
 20
-5.71558
 11
-13.4359
 21
-5.82422
  0
LINE
  8
0
 10
-13.4359
 20
-5.82422
 11
-13.6897
 21
-5.91629
  0
LINE
  8
0
 10
-13.6897
 20
-5.91629
 11
-13.9512
 21
-5.99176
  0
LINE
  8
0
 10
-13.9512
 20
-5.99176
 11
-14.2208
 21
-6.05069
  0
LINE
  8
0
 10
-14.2208
 20
-6.05069
 11
-14.499
 21
-6.09299
  0
LINE
  8
0
 10
-14.499
 20
-6.09299
 11
-14.7858
 21
-6.1185
  0
LINE
  8
0
 10
-14.7858
 20
-6.1185
 11
-15.0792
 21
-6.127
  0
LINE
  8
0
 10
-15.0792
 20
-6.127
 11
-15.6501
 21
-6.10472
  0
LINE
  8
0
 10
-14.1894
 20
-4.78729
 11
-13.8195
 21
-4.76671
  0
LINE
  8
0
 10
-13.8195
 20
-4.76671
 11
-13.7593
 21
-4.75967
  0
LINE
  8
0
 10
-13.7593
 20
-4.75967
 11
-13.4139
 21
-4.69791
  0
LINE
  8
0
 10
-13.4139
 20
-4.69791
 11
-13.3492
 21
-4.68182
  0
LINE
  8
0
 10
-13.3492
 20
-4.68182
 11
-13.0283
 21
-4.57889
  0
LINE
  8
0
 10
-13.0283
 20
-4.57889
 11
-12.9624
 21
-4.55246
  0
LINE
  8
0
 10
-12.9624
 20
-4.55246
 11
-12.666
 21
-4.40836
  0
LINE
  8
0
 10
-12.666
 20
-4.40836
 11
-12.6031
 21
-4.3719
  0
LINE
  8
0
 10
-12.6031
 20
-4.3719
 11
-12.3311
 21
-4.18661
  0
LINE
  8
0
 10
-12.3311
 20
-4.18661
 11
-12.2751
 21
-4.14227
  0
LINE
  8
0
 10
-12.2751
 20
-4.14227
 11
-12.0276
 21
-3.9158
  0
LINE
  8
0
 10
-12.0276
 20
-3.9158
 11
-11.9811
 21
-3.86703
  0
LINE
  8
0
 10
-11.9811
 20
-3.86703
 11
-11.758
 21
-3.59941
  0
LINE
  8
0
 10
-11.758
 20
-3.59941
 11
-11.7215
 21
-3.54962
  0
LINE
  8
0
 10
-11.7215
 20
-3.54962
 11
-11.5258
 21
-3.24504
  0
LINE
  8
0
 10
-11.5258
 20
-3.24504
 11
-11.4976
 21
-3.19511
  0
LINE
  8
0
 10
-11.4976
 20
-3.19511
 11
-11.3319
 21
-2.85782
  0
LINE
  8
0
 10
-11.3319
 20
-2.85782
 11
-11.3112
 21
-2.80937
  0
LINE
  8
0
 10
-11.3112
 20
-2.80937
 11
-11.1757
 21
-2.43938
  0
LINE
  8
0
 10
-11.1757
 20
-2.43938
 11
-11.1615
 21
-2.39403
  0
LINE
  8
0
 10
-11.1615
 20
-2.39403
 11
-11.0561
 21
-1.99133
  0
LINE
  8
0
 10
-11.0561
 20
-1.99133
 11
-11.0471
 21
-1.94992
  0
LINE
  8
0
 10
-11.0471
 20
-1.94992
 11
-10.9719
 21
-1.5145
  0
LINE
  8
0
 10
-10.9719
 20
-1.5145
 11
-10.9669
 21
-1.47733
  0
LINE
  8
0
 10
-10.9669
 20
-1.47733
 11
-10.9217
 21
-1.0092
  0
LINE
  8
0
 10
-10.9217
 20
-1.0092
 11
-10.9196
 21
-0.976212
  0
LINE
  8
0
 10
-10.9196
 20
-0.976212
 11
-10.9046
 21
-0.475388
  0
LINE
  8
0
 10
-10.9046
 20
-0.475388
 11
-10.9043
 21
-0.460358
  0
LINE
  8
0
 10
-10.9043
 20
-0.460358
 11
-10.9043
 21
-0.229828
  0
LINE
  8
0
 10
-10.9043
 20
-0.229828
 11
-10.9132
 21
-0.136139
  0
LINE
  8
0
 10
-10.9132
 20
-0.136139
 11
-10.9288
 21
-0.0753174
  0
LINE
  8
0
 10
-10.9288
 20
-0.0753174
 11
-10.9519
 21
-0.0169373
  0
LINE
  8
0
 10
-10.9519
 20
-0.0169373
 11
-10.9822
 21
0.0380859
  0
LINE
  8
0
 10
-10.9822
 20
0.0380859
 11
-11.0191
 21
0.0888824
  0
LINE
  8
0
 10
-11.0191
 20
0.0888824
 11
-11.0621
 21
0.134659
  0
LINE
  8
0
 10
-11.0621
 20
0.134659
 11
-11.1104
 21
0.174683
  0
LINE
  8
0
 10
-11.1104
 20
0.174683
 11
-11.1635
 21
0.208328
  0
LINE
  8
0
 10
-11.1635
 20
0.208328
 11
-11.2203
 21
0.235062
  0
LINE
  8
0
 10
-11.2203
 20
0.235062
 11
-11.28
 21
0.254471
  0
LINE
  8
0
 10
-11.28
 20
0.254471
 11
-11.3417
 21
0.266235
  0
LINE
  8
0
 10
-11.3417
 20
0.266235
 11
-11.4043
 21
0.270172
  0
LINE
  8
0
 10
-11.4043
 20
0.270172
 11
-12.7531
 21
0.270172
  0
LINE
  8
0
 10
-12.7531
 20
0.270172
 11
-12.7627
 21
0.270081
  0
LINE
  8
0
 10
-12.7627
 20
0.270081
 11
-13.2795
 21
0.260193
  0
LINE
  8
0
 10
-13.2795
 20
0.260193
 11
-13.3014
 21
0.259293
  0
LINE
  8
0
 10
-13.3014
 20
0.259293
 11
-13.7717
 21
0.229645
  0
LINE
  8
0
 10
-13.7717
 20
0.229645
 11
-13.7982
 21
0.227264
  0
LINE
  8
0
 10
-13.7982
 20
0.227264
 11
-14.2219
 21
0.177841
  0
LINE
  8
0
 10
-14.2219
 20
0.177841
 11
-14.2542
 21
0.173004
  0
LINE
  8
0
 10
-14.2542
 20
0.173004
 11
-14.6314
 21
0.103806
  0
LINE
  8
0
 10
-14.6314
 20
0.103806
 11
-14.6711
 21
0.0948334
  0
LINE
  8
0
 10
-14.6711
 20
0.0948334
 11
-15.0016
 21
0.00587463
  0
LINE
  8
0
 10
-15.0016
 20
0.00587463
 11
-15.0504
 21
-0.00999451
  0
LINE
  8
0
 10
-15.0504
 20
-0.00999451
 11
-15.3344
 21
-0.118713
  0
LINE
  8
0
 10
-15.3344
 20
-0.118713
 11
-15.3936
 21
-0.14595
  0
LINE
  8
0
 10
-15.3936
 20
-0.14595
 11
-15.631
 21
-0.274445
  0
LINE
  8
0
 10
-15.631
 20
-0.274445
 11
-15.6973
 21
-0.317383
  0
LINE
  8
0
 10
-15.6973
 20
-0.317383
 11
-15.8961
 21
-0.469833
  0
LINE
  8
0
 10
-15.8961
 20
-0.469833
 11
-15.9578
 21
-0.525894
  0
LINE
  8
0
 10
-15.9578
 20
-0.525894
 11
-16.126
 21
-0.706573
  0
LINE
  8
0
 10
-16.126
 20
-0.706573
 11
-16.1776
 21
-0.772217
  0
LINE
  8
0
 10
-16.1776
 20
-0.772217
 11
-16.3152
 21
-0.98114
  0
LINE
  8
0
 10
-16.3152
 20
-0.98114
 11
-16.3534
 21
-1.05049
  0
LINE
  8
0
 10
-16.3534
 20
-1.05049
 11
-16.4605
 21
-1.28764
  0
LINE
  8
0
 10
-16.4605
 20
-1.28764
 11
-16.4852
 21
-1.35493
  0
LINE
  8
0
 10
-16.4852
 20
-1.35493
 11
-16.5617
 21
-1.62032
  0
LINE
  8
0
 10
-16.5617
 20
-1.62032
 11
-16.5752
 21
-1.68155
  0
LINE
  8
0
 10
-16.5752
 20
-1.68155
 11
-16.6211
 21
-1.97517
  0
LINE
  8
0
 10
-16.6211
 20
-1.97517
 11
-16.6265
 21
-2.02864
  0
LINE
  8
0
 10
-16.6265
 20
-2.02864
 11
-16.6418
 21
-2.35048
  0
LINE
  8
0
 10
-16.6418
 20
-2.35048
 11
-16.6419
 21
-2.39597
  0
LINE
  8
0
 10
-16.6419
 20
-2.39597
 11
-16.6313
 21
-2.63902
  0
LINE
  8
0
 10
-16.6313
 20
-2.63902
 11
-16.627
 21
-2.6861
  0
LINE
  8
0
 10
-16.627
 20
-2.6861
 11
-16.5953
 21
-2.91455
  0
LINE
  8
0
 10
-16.5953
 20
-2.91455
 11
-16.5854
 21
-2.96581
  0
LINE
  8
0
 10
-16.5854
 20
-2.96581
 11
-16.5325
 21
-3.17967
  0
LINE
  8
0
 10
-16.5325
 20
-3.17967
 11
-16.5158
 21
-3.23383
  0
LINE
  8
0
 10
-16.5158
 20
-3.23383
 11
-16.4417
 21
-3.43312
  0
LINE
  8
0
 10
-16.4417
 20
-3.43312
 11
-16.4174
 21
-3.4881
  0
LINE
  8
0
 10
-16.4174
 20
-3.4881
 11
-16.3221
 21
-3.67281
  0
LINE
  8
0
 10
-16.3221
 20
-3.67281
 11
-16.2904
 21
-3.726
  0
LINE
  8
0
 10
-16.2904
 20
-3.726
 11
-16.174
 21
-3.8961
  0
LINE
  8
0
 10
-16.174
 20
-3.8961
 11
-16.1358
 21
-3.94502
  0
LINE
  8
0
 10
-16.1358
 20
-3.94502
 11
-15.9982
 21
-4.10056
  0
LINE
  8
0
 10
-15.9982
 20
-4.10056
 11
-15.9548
 21
-4.14388
  0
LINE
  8
0
 10
-15.9548
 20
-4.14388
 11
-15.7991
 21
-4.28154
  0
LINE
  8
0
 10
-15.7991
 20
-4.28154
 11
-15.7496
 21
-4.32001
  0
LINE
  8
0
 10
-15.7496
 20
-4.32001
 11
-15.5788
 21
-4.43648
  0
LINE
  8
0
 10
-15.5788
 20
-4.43648
 11
-15.5252
 21
-4.46831
  0
LINE
  8
0
 10
-15.5252
 20
-4.46831
 11
-15.3393
 21
-4.5636
  0
LINE
  8
0
 10
-15.3393
 20
-4.5636
 11
-15.2843
 21
-4.58775
  0
LINE
  8
0
 10
-15.2843
 20
-4.58775
 11
-15.0834
 21
-4.66188
  0
LINE
  8
0
 10
-15.0834
 20
-4.66188
 11
-15.0293
 21
-4.67841
  0
LINE
  8
0
 10
-15.0293
 20
-4.67841
 11
-14.8133
 21
-4.73134
  0
LINE
  8
0
 10
-14.8133
 20
-4.73134
 11
-14.7624
 21
-4.74106
  0
LINE
  8
0
 10
-14.7624
 20
-4.74106
 11
-14.5314
 21
-4.77283
  0
LINE
  8
0
 10
-14.5314
 20
-4.77283
 11
-14.4848
 21
-4.77702
  0
LINE
  8
0
 10
-14.4848
 20
-4.77702
 11
-14.2386
 21
-4.78761
  0
LINE
  8
0
 10
-14.2386
 20
-4.78761
 11
-14.1894
 21
-4.78729
  0
LINE
  8
0
 10
-14.4633
 20
-4.27748
 11
-14.6943
 21
-4.24571
  0
LINE
  8
0
 10
-14.6943
 20
-4.24571
 11
-14.9103
 21
-4.19278
  0
LINE
  8
0
 10
-14.9103
 20
-4.19278
 11
-15.1113
 21
-4.11865
  0
LINE
  8
0
 10
-15.1113
 20
-4.11865
 11
-15.2971
 21
-4.02336
  0
LINE
  8
0
 10
-15.2971
 20
-4.02336
 11
-15.468
 21
-3.90689
  0
LINE
  8
0
 10
-15.468
 20
-3.90689
 11
-15.6237
 21
-3.76923
  0
LINE
  8
0
 10
-15.6237
 20
-3.76923
 11
-15.7613
 21
-3.61369
  0
LINE
  8
0
 10
-15.7613
 20
-3.61369
 11
-15.8778
 21
-3.44359
  0
LINE
  8
0
 10
-15.8778
 20
-3.44359
 11
-15.973
 21
-3.25888
  0
LINE
  8
0
 10
-15.973
 20
-3.25888
 11
-16.0471
 21
-3.05959
  0
LINE
  8
0
 10
-16.0471
 20
-3.05959
 11
-16.1001
 21
-2.84572
  0
LINE
  8
0
 10
-16.1001
 20
-2.84572
 11
-16.1318
 21
-2.61726
  0
LINE
  8
0
 10
-16.1318
 20
-2.61726
 11
-16.1424
 21
-2.37421
  0
LINE
  8
0
 10
-16.1424
 20
-2.37421
 11
-16.1271
 21
-2.05237
  0
LINE
  8
0
 10
-16.1271
 20
-2.05237
 11
-16.0812
 21
-1.75874
  0
LINE
  8
0
 10
-16.0812
 20
-1.75874
 11
-16.0048
 21
-1.49336
  0
LINE
  8
0
 10
-16.0048
 20
-1.49336
 11
-15.8977
 21
-1.25621
  0
LINE
  8
0
 10
-15.8977
 20
-1.25621
 11
-15.7601
 21
-1.04729
  0
LINE
  8
0
 10
-15.7601
 20
-1.04729
 11
-15.5918
 21
-0.866608
  0
LINE
  8
0
 10
-15.5918
 20
-0.866608
 11
-15.393
 21
-0.714157
  0
LINE
  8
0
 10
-15.393
 20
-0.714157
 11
-15.1556
 21
-0.585663
  0
LINE
  8
0
 10
-15.1556
 20
-0.585663
 11
-14.8717
 21
-0.476944
  0
LINE
  8
0
 10
-14.8717
 20
-0.476944
 11
-14.5411
 21
-0.387985
  0
LINE
  8
0
 10
-14.5411
 20
-0.387985
 11
-14.164
 21
-0.318787
  0
LINE
  8
0
 10
-14.164
 20
-0.318787
 11
-13.7403
 21
-0.269363
  0
LINE
  8
0
 10
-13.7403
 20
-0.269363
 11
-13.27
 21
-0.239716
  0
LINE
  8
0
 10
-13.27
 20
-0.239716
 11
-12.7531
 21
-0.229828
  0
LINE
  8
0
 10
-12.7531
 20
-0.229828
 11
-11.4043
 21
-0.229828
  0
LINE
  8
0
 10
-11.4043
 20
-0.229828
 11
-11.4043
 21
-0.460358
  0
LINE
  8
0
 10
-11.4043
 20
-0.460358
 11
-11.4194
 21
-0.961182
  0
LINE
  8
0
 10
-11.4194
 20
-0.961182
 11
-11.4646
 21
-1.42931
  0
LINE
  8
0
 10
-11.4646
 20
-1.42931
 11
-11.5398
 21
-1.86473
  0
LINE
  8
0
 10
-11.5398
 20
-1.86473
 11
-11.6452
 21
-2.26743
  0
LINE
  8
0
 10
-11.6452
 20
-2.26743
 11
-11.7807
 21
-2.63742
  0
LINE
  8
0
 10
-11.7807
 20
-2.63742
 11
-11.9464
 21
-2.97472
  0
LINE
  8
0
 10
-11.9464
 20
-2.97472
 11
-12.1421
 21
-3.2793
  0
LINE
  8
0
 10
-12.1421
 20
-3.2793
 11
-12.3652
 21
-3.54692
  0
LINE
  8
0
 10
-12.3652
 20
-3.54692
 11
-12.6127
 21
-3.77339
  0
LINE
  8
0
 10
-12.6127
 20
-3.77339
 11
-12.8846
 21
-3.95868
  0
LINE
  8
0
 10
-12.8846
 20
-3.95868
 11
-13.181
 21
-4.10278
  0
LINE
  8
0
 10
-13.181
 20
-4.10278
 11
-13.502
 21
-4.20572
  0
LINE
  8
0
 10
-13.502
 20
-4.20572
 11
-13.8473
 21
-4.26749
  0
LINE
  8
0
 10
-13.8473
 20
-4.26749
 11
-14.2171
 21
-4.28807
  0
LINE
  8
0
 10
-14.2171
 20
-4.28807
 11
-14.4633
 21
-4.27748
  0
LINE
  8
0
 10
14.8033
 20
-6.58998
 11
15.5184
 21
-6.47812
  0
LINE
  8
0
 10
15.5184
 20
-6.47812
 11
16.1876
 21
-6.29167
  0
LINE
  8
0
 10
16.1876
 20
-6.29167
 11
16.8109
 21
-6.03065
  0
LINE
  8
0
 10
16.8109
 20
-6.03065
 11
17.3883
 21
-5.69505
  0
LINE
  8
0
 10
17.3883
 20
-5.69505
 11
17.9199
 21
-5.28487
  0
LINE
  8
0
 10
17.9199
 20
-5.28487
 11
18.4056
 21
-4.80011
  0
LINE
  8
0
 10
18.4056
 20
-4.80011
 11
18.8353
 21
-4.2516
  0
LINE
  8
0
 10
18.8353
 20
-4.2516
 11
19.1989
 21
-3.65016
  0
LINE
  8
0
 10
19.1989
 20
-3.65016
 11
19.4964
 21
-2.99579
  0
LINE
  8
0
 10
19.4964
 20
-2.99579
 11
19.7278
 21
-2.2885
  0
LINE
  8
0
 10
19.7278
 20
-2.2885
 11
19.8931
 21
-1.52827
  0
LINE
  8
0
 10
19.8931
 20
-1.52827
 11
19.9923
 21
-0.715118
  0
LINE
  8
0
 10
19.9923
 20
-0.715118
 11
20.0253
 21
0.150955
  0
LINE
  8
0
 10
20.0253
 20
0.150955
 11
19.9923
 21
1.01704
  0
LINE
  8
0
 10
19.9923
 20
1.01704
 11
19.8931
 21
1.83018
  0
LINE
  8
0
 10
19.8931
 20
1.83018
 11
19.7278
 21
2.59042
  0
LINE
  8
0
 10
19.7278
 20
2.59042
 11
19.4964
 21
3.29771
  0
LINE
  8
0
 10
19.4964
 20
3.29771
 11
19.1989
 21
3.95209
  0
LINE
  8
0
 10
19.1989
 20
3.95209
 11
18.8353
 21
4.55353
  0
LINE
  8
0
 10
18.8353
 20
4.55353
 11
18.4056
 21
5.10204
  0
LINE
  8
0
 10
18.4056
 20
5.10204
 11
17.9199
 21
5.58679
  0
LINE
  8
0
 10
17.9199
 20
5.58679
 11
17.3883
 21
5.99696
  0
LINE
  8
0
 10
17.3883
 20
5.99696
 11
16.8109
 21
6.33257
  0
LINE
  8
0
 10
16.8109
 20
6.33257
 11
16.1876
 21
6.5936
  0
LINE
  8
0
 10
16.1876
 20
6.5936
 11
15.5184
 21
6.78003
  0
LINE
  8
0
 10
15.5184
 20
6.78003
 11
14.8033
 21
6.89191
  0
LINE
  8
0
 10
14.8033
 20
6.89191
 11
14.0423
 21
6.9292
  0
LINE
  8
0
 10
14.0423
 20
6.9292
 11
13.2844
 21
6.89191
  0
LINE
  8
0
 10
13.2844
 20
6.89191
 11
12.5719
 21
6.78003
  0
LINE
  8
0
 10
12.5719
 20
6.78003
 11
11.9048
 21
6.5936
  0
LINE
  8
0
 10
11.9048
 20
6.5936
 11
11.2831
 21
6.33257
  0
LINE
  8
0
 10
11.2831
 20
6.33257
 11
10.7067
 21
5.99696
  0
LINE
  8
0
 10
10.7067
 20
5.99696
 11
10.1758
 21
5.58679
  0
LINE
  8
0
 10
10.1758
 20
5.58679
 11
9.69035
 21
5.10204
  0
LINE
  8
0
 10
9.69035
 20
5.10204
 11
9.26067
 21
4.55353
  0
LINE
  8
0
 10
9.26067
 20
4.55353
 11
8.89708
 21
3.95209
  0
LINE
  8
0
 10
8.89708
 20
3.95209
 11
8.59961
 21
3.29771
  0
LINE
  8
0
 10
8.59961
 20
3.29771
 11
8.36824
 21
2.59042
  0
LINE
  8
0
 10
8.36824
 20
2.59042
 11
8.20297
 21
1.83018
  0
LINE
  8
0
 10
8.20297
 20
1.83018
 11
8.10381
 21
1.01704
  0
LINE
  8
0
 10
8.10381
 20
1.01704
 11
8.07076
 21
0.150955
  0
LINE
  8
0
 10
8.07076
 20
0.150955
 11
8.10381
 21
-0.715118
  0
LINE
  8
0
 10
8.10381
 20
-0.715118
 11
8.20297
 21
-1.52827
  0
LINE
  8
0
 10
8.20297
 20
-1.52827
 11
8.36824
 21
-2.2885
  0
LINE
  8
0
 10
8.36824
 20
-2.2885
 11
8.59961
 21
-2.99579
  0
LINE
  8
0
 10
8.59961
 20
-2.99579
 11
8.89708
 21
-3.65016
  0
LINE
  8
0
 10
8.89708
 20
-3.65016
 11
9.26067
 21
-4.2516
  0
LINE
  8
0
 10
9.26067
 20
-4.2516
 11
9.69035
 21
-4.80011
  0
LINE
  8
0
 10
9.69035
 20
-4.80011
 11
10.1758
 21
-5.28487
  0
LINE
  8
0
 10
10.1758
 20
-5.28487
 11
10.7067
 21
-5.69505
  0
LINE
  8
0
 10
10.7067
 20
-5.69505
 11
11.2831
 21
-6.03065
  0
LINE
  8
0
 10
11.2831
 20
-6.03065
 11
11.9048
 21
-6.29167
  0
LINE
  8
0
 10
11.9048
 20
-6.29167
 11
12.5719
 21
-6.47812
  0
LINE
  8
0
 10
12.5719
 20
-6.47812
 11
13.2844
 21
-6.58998
  0
LINE
  8
0
 10
13.2844
 20
-6.58998
 11
14.0423
 21
-6.62727
  0
LINE
  8
0
 10
14.0423
 20
-6.62727
 11
14.8033
 21
-6.58998
  0
LINE
  8
0
 10
13.3356
 20
-6.0919
 11
12.6784
 21
-5.98872
  0
LINE
  8
0
 10
12.6784
 20
-5.98872
 11
12.0694
 21
-5.81851
  0
LINE
  8
0
 10
12.0694
 20
-5.81851
 11
11.5067
 21
-5.58228
  0
LINE
  8
0
 10
11.5067
 20
-5.58228
 11
10.9865
 21
-5.27937
  0
LINE
  8
0
 10
10.9865
 20
-5.27937
 11
10.5067
 21
-4.90865
  0
LINE
  8
0
 10
10.5067
 20
-4.90865
 11
10.0651
 21
-4.46774
  0
LINE
  8
0
 10
10.0651
 20
-4.46774
 11
9.67293
 21
-3.96709
  0
LINE
  8
0
 10
9.67293
 20
-3.96709
 11
9.34013
 21
-3.41658
  0
LINE
  8
0
 10
9.34013
 20
-3.41658
 11
9.06624
 21
-2.81407
  0
LINE
  8
0
 10
9.06624
 20
-2.81407
 11
8.85139
 21
-2.1573
  0
LINE
  8
0
 10
8.85139
 20
-2.1573
 11
8.69649
 21
-1.44473
  0
LINE
  8
0
 10
8.69649
 20
-1.44473
 11
8.60265
 21
-0.675217
  0
LINE
  8
0
 10
8.60265
 20
-0.675217
 11
8.57112
 21
0.150955
  0
LINE
  8
0
 10
8.57112
 20
0.150955
 11
8.60265
 21
0.977142
  0
LINE
  8
0
 10
8.60265
 20
0.977142
 11
8.69649
 21
1.74666
  0
LINE
  8
0
 10
8.69649
 20
1.74666
 11
8.85139
 21
2.45923
  0
LINE
  8
0
 10
8.85139
 20
2.45923
 11
9.06624
 21
3.116
  0
LINE
  8
0
 10
9.06624
 20
3.116
 11
9.34013
 21
3.71851
  0
LINE
  8
0
 10
9.34013
 20
3.71851
 11
9.67293
 21
4.26901
  0
LINE
  8
0
 10
9.67293
 20
4.26901
 11
10.0651
 21
4.76967
  0
LINE
  8
0
 10
10.0651
 20
4.76967
 11
10.5067
 21
5.21056
  0
LINE
  8
0
 10
10.5067
 20
5.21056
 11
10.9865
 21
5.58128
  0
LINE
  8
0
 10
10.9865
 20
5.58128
 11
11.5066
 21
5.88416
  0
LINE
  8
0
 10
11.5066
 20
5.88416
 11
12.0695
 21
6.12047
  0
LINE
  8
0
 10
12.0695
 20
6.12047
 11
12.6784
 21
6.29063
  0
LINE
  8
0
 10
12.6784
 20
6.29063
 11
13.3356
 21
6.39383
  0
LINE
  8
0
 10
13.3356
 20
6.39383
 11
14.0423
 21
6.4286
  0
LINE
  8
0
 10
14.0423
 20
6.4286
 11
14.7523
 21
6.3938
  0
LINE
  8
0
 10
14.7523
 20
6.3938
 11
15.4123
 21
6.29056
  0
LINE
  8
0
 10
15.4123
 20
6.29056
 11
16.0233
 21
6.12033
  0
LINE
  8
0
 10
16.0233
 20
6.12033
 11
16.5877
 21
5.88394
  0
LINE
  8
0
 10
16.5877
 20
5.88394
 11
17.1089
 21
5.58105
  0
LINE
  8
0
 10
17.1089
 20
5.58105
 11
17.5892
 21
5.21045
  0
LINE
  8
0
 10
17.5892
 20
5.21045
 11
18.0308
 21
4.76967
  0
LINE
  8
0
 10
18.0308
 20
4.76967
 11
18.4231
 21
4.26897
  0
LINE
  8
0
 10
18.4231
 20
4.26897
 11
18.7559
 21
3.71851
  0
LINE
  8
0
 10
18.7559
 20
3.71851
 11
19.0298
 21
3.11597
  0
LINE
  8
0
 10
19.0298
 20
3.11597
 11
19.2447
 21
2.45918
  0
LINE
  8
0
 10
19.2447
 20
2.45918
 11
19.3996
 21
1.74664
  0
LINE
  8
0
 10
19.3996
 20
1.74664
 11
19.4934
 21
0.977142
  0
LINE
  8
0
 10
19.4934
 20
0.977142
 11
19.525
 21
0.150955
  0
LINE
  8
0
 10
19.525
 20
0.150955
 11
19.4934
 21
-0.675217
  0
LINE
  8
0
 10
19.4934
 20
-0.675217
 11
19.3996
 21
-1.44473
  0
LINE
  8
0
 10
19.3996
 20
-1.44473
 11
19.2447
 21
-2.15724
  0
LINE
  8
0
 10
19.2447
 20
-2.15724
 11
19.0298
 21
-2.81404
  0
LINE
  8
0
 10
19.0298
 20
-2.81404
 11
18.7559
 21
-3.41658
  0
LINE
  8
0
 10
18.7559
 20
-3.41658
 11
18.4231
 21
-3.96704
  0
LINE
  8
0
 10
18.4231
 20
-3.96704
 11
18.0308
 21
-4.46774
  0
LINE
  8
0
 10
18.0308
 20
-4.46774
 11
17.5892
 21
-4.90848
  0
LINE
  8
0
 10
17.5892
 20
-4.90848
 11
17.1088
 21
-5.27917
  0
LINE
  8
0
 10
17.1088
 20
-5.27917
 11
16.5877
 21
-5.58203
  0
LINE
  8
0
 10
16.5877
 20
-5.58203
 11
16.0233
 21
-5.81839
  0
LINE
  8
0
 10
16.0233
 20
-5.81839
 11
15.4122
 21
-5.98865
  0
LINE
  8
0
 10
15.4122
 20
-5.98865
 11
14.7524
 21
-6.09187
  0
LINE
  8
0
 10
14.7524
 20
-6.09187
 11
14.0423
 21
-6.12668
  0
LINE
  8
0
 10
14.0423
 20
-6.12668
 11
13.3356
 21
-6.0919
  0
LINE
  8
0
 10
14.4128
 20
-4.3627
 11
14.4817
 21
-4.35344
  0
LINE
  8
0
 10
14.4817
 20
-4.35344
 11
14.7983
 21
-4.28813
  0
LINE
  8
0
 10
14.7983
 20
-4.28813
 11
14.8704
 21
-4.26752
  0
LINE
  8
0
 10
14.8704
 20
-4.26752
 11
15.1654
 21
-4.15866
  0
LINE
  8
0
 10
15.1654
 20
-4.15866
 11
15.2358
 21
-4.1263
  0
LINE
  8
0
 10
15.2358
 20
-4.1263
 11
15.5091
 21
-3.97391
  0
LINE
  8
0
 10
15.5091
 20
-3.97391
 11
15.5728
 21
-3.93173
  0
LINE
  8
0
 10
15.5728
 20
-3.93173
 11
15.8245
 21
-3.73579
  0
LINE
  8
0
 10
15.8245
 20
-3.73579
 11
15.878
 21
-3.68764
  0
LINE
  8
0
 10
15.878
 20
-3.68764
 11
16.108
 21
-3.44817
  0
LINE
  8
0
 10
16.108
 20
-3.44817
 11
16.1501
 21
-3.39827
  0
LINE
  8
0
 10
16.1501
 20
-3.39827
 11
16.3585
 21
-3.11525
  0
LINE
  8
0
 10
16.3585
 20
-3.11525
 11
16.3902
 21
-3.06642
  0
LINE
  8
0
 10
16.3902
 20
-3.06642
 11
16.5737
 21
-2.74458
  0
LINE
  8
0
 10
16.5737
 20
-2.74458
 11
16.5977
 21
-2.69684
  0
LINE
  8
0
 10
16.5977
 20
-2.69684
 11
16.753
 21
-2.34085
  0
LINE
  8
0
 10
16.753
 20
-2.34085
 11
16.7701
 21
-2.29576
  0
LINE
  8
0
 10
16.7701
 20
-2.29576
 11
16.8971
 21
-1.90564
  0
LINE
  8
0
 10
16.8971
 20
-1.90564
 11
16.9087
 21
-1.86426
  0
LINE
  8
0
 10
16.9087
 20
-1.86426
 11
17.0075
 21
-1.44002
  0
LINE
  8
0
 10
17.0075
 20
-1.44002
 11
17.0147
 21
-1.40265
  0
LINE
  8
0
 10
17.0147
 20
-1.40265
 11
17.0853
 21
-0.94426
  0
LINE
  8
0
 10
17.0853
 20
-0.94426
 11
17.0893
 21
-0.911026
  0
LINE
  8
0
 10
17.0893
 20
-0.911026
 11
17.1316
 21
-0.418518
  0
LINE
  8
0
 10
17.1316
 20
-0.418518
 11
17.1333
 21
-0.389069
  0
LINE
  8
0
 10
17.1333
 20
-0.389069
 11
17.1474
 21
0.137558
  0
LINE
  8
0
 10
17.1474
 20
0.137558
 11
17.1474
 21
0.164352
  0
LINE
  8
0
 10
17.1474
 20
0.164352
 11
17.1333
 21
0.690994
  0
LINE
  8
0
 10
17.1333
 20
0.690994
 11
17.1316
 21
0.720444
  0
LINE
  8
0
 10
17.1316
 20
0.720444
 11
17.0893
 21
1.21295
  0
LINE
  8
0
 10
17.0893
 20
1.21295
 11
17.0853
 21
1.24619
  0
LINE
  8
0
 10
17.0853
 20
1.24619
 11
17.0147
 21
1.70456
  0
LINE
  8
0
 10
17.0147
 20
1.70456
 11
17.0075
 21
1.74191
  0
LINE
  8
0
 10
17.0075
 20
1.74191
 11
16.9087
 21
2.16617
  0
LINE
  8
0
 10
16.9087
 20
2.16617
 11
16.8971
 21
2.20757
  0
LINE
  8
0
 10
16.8971
 20
2.20757
 11
16.7701
 21
2.59767
  0
LINE
  8
0
 10
16.7701
 20
2.59767
 11
16.753
 21
2.64276
  0
LINE
  8
0
 10
16.753
 20
2.64276
 11
16.5977
 21
2.99875
  0
LINE
  8
0
 10
16.5977
 20
2.99875
 11
16.5737
 21
3.04649
  0
LINE
  8
0
 10
16.5737
 20
3.04649
 11
16.3902
 21
3.36835
  0
LINE
  8
0
 10
16.3902
 20
3.36835
 11
16.3585
 21
3.41718
  0
LINE
  8
0
 10
16.3585
 20
3.41718
 11
16.1501
 21
3.7002
  0
LINE
  8
0
 10
16.1501
 20
3.7002
 11
16.108
 21
3.75009
  0
LINE
  8
0
 10
16.108
 20
3.75009
 11
15.878
 21
3.98956
  0
LINE
  8
0
 10
15.878
 20
3.98956
 11
15.8245
 21
4.03772
  0
LINE
  8
0
 10
15.8245
 20
4.03772
 11
15.5728
 21
4.23366
  0
LINE
  8
0
 10
15.5728
 20
4.23366
 11
15.5091
 21
4.27583
  0
LINE
  8
0
 10
15.5091
 20
4.27583
 11
15.2358
 21
4.42822
  0
LINE
  8
0
 10
15.2358
 20
4.42822
 11
15.1654
 21
4.46059
  0
LINE
  8
0
 10
15.1654
 20
4.46059
 11
14.8704
 21
4.56944
  0
LINE
  8
0
 10
14.8704
 20
4.56944
 11
14.7983
 21
4.59006
  0
LINE
  8
0
 10
14.7983
 20
4.59006
 11
14.4817
 21
4.65536
  0
LINE
  8
0
 10
14.4817
 20
4.65536
 11
14.4128
 21
4.66463
  0
LINE
  8
0
 10
14.4128
 20
4.66463
 11
14.0745
 21
4.6864
  0
LINE
  8
0
 10
14.0745
 20
4.6864
 11
14.0099
 21
4.68639
  0
LINE
  8
0
 10
14.0099
 20
4.68639
 11
13.6747
 21
4.66461
  0
LINE
  8
0
 10
13.6747
 20
4.66461
 11
13.6053
 21
4.6552
  0
LINE
  8
0
 10
13.6053
 20
4.6552
 11
13.2912
 21
4.58989
  0
LINE
  8
0
 10
13.2912
 20
4.58989
 11
13.2188
 21
4.56905
  0
LINE
  8
0
 10
13.2188
 20
4.56905
 11
12.9258
 21
4.46019
  0
LINE
  8
0
 10
12.9258
 20
4.46019
 11
12.8555
 21
4.42761
  0
LINE
  8
0
 10
12.8555
 20
4.42761
 11
12.5837
 21
4.27522
  0
LINE
  8
0
 10
12.5837
 20
4.27522
 11
12.5203
 21
4.23299
  0
LINE
  8
0
 10
12.5203
 20
4.23299
 11
12.2697
 21
4.03705
  0
LINE
  8
0
 10
12.2697
 20
4.03705
 11
12.2166
 21
3.98906
  0
LINE
  8
0
 10
12.2166
 20
3.98906
 11
11.9872
 21
3.74959
  0
LINE
  8
0
 10
11.9872
 20
3.74959
 11
11.9455
 21
3.70003
  0
LINE
  8
0
 10
11.9455
 20
3.70003
 11
11.7373
 21
3.41701
  0
LINE
  8
0
 10
11.7373
 20
3.41701
 11
11.7057
 21
3.3683
  0
LINE
  8
0
 10
11.7057
 20
3.3683
 11
11.5222
 21
3.04645
  0
LINE
  8
0
 10
11.5222
 20
3.04645
 11
11.4983
 21
2.99869
  0
LINE
  8
0
 10
11.4983
 20
2.99869
 11
11.343
 21
2.6427
  0
LINE
  8
0
 10
11.343
 20
2.6427
 11
11.3259
 21
2.59766
  0
LINE
  8
0
 10
11.3259
 20
2.59766
 11
11.1989
 21
2.20755
  0
LINE
  8
0
 10
11.1989
 20
2.20755
 11
11.1873
 21
2.16612
  0
LINE
  8
0
 10
11.1873
 20
2.16612
 11
11.0885
 21
1.74187
  0
LINE
  8
0
 10
11.0885
 20
1.74187
 11
11.0813
 21
1.70456
  0
LINE
  8
0
 10
11.0813
 20
1.70456
 11
11.0108
 21
1.24619
  0
LINE
  8
0
 10
11.0108
 20
1.24619
 11
11.0068
 21
1.21294
  0
LINE
  8
0
 10
11.0068
 20
1.21294
 11
10.9644
 21
0.720428
  0
LINE
  8
0
 10
10.9644
 20
0.720428
 11
10.9628
 21
0.690994
  0
LINE
  8
0
 10
10.9628
 20
0.690994
 11
10.9487
 21
0.164352
  0
LINE
  8
0
 10
10.9487
 20
0.164352
 11
10.9487
 21
0.137558
  0
LINE
  8
0
 10
10.9487
 20
0.137558
 11
10.9628
 21
-0.389069
  0
LINE
  8
0
 10
10.9628
 20
-0.389069
 11
10.9644
 21
-0.418503
  0
LINE
  8
0
 10
10.9644
 20
-0.418503
 11
11.0068
 21
-0.911011
  0
LINE
  8
0
 10
11.0068
 20
-0.911011
 11
11.0108
 21
-0.94426
  0
LINE
  8
0
 10
11.0108
 20
-0.94426
 11
11.0813
 21
-1.40265
  0
LINE
  8
0
 10
11.0813
 20
-1.40265
 11
11.0885
 21
-1.43996
  0
LINE
  8
0
 10
11.0885
 20
-1.43996
 11
11.1873
 21
-1.8642
  0
LINE
  8
0
 10
11.1873
 20
-1.8642
 11
11.1989
 21
-1.90561
  0
LINE
  8
0
 10
11.1989
 20
-1.90561
 11
11.3259
 21
-2.29573
  0
LINE
  8
0
 10
11.3259
 20
-2.29573
 11
11.343
 21
-2.34079
  0
LINE
  8
0
 10
11.343
 20
-2.34079
 11
11.4983
 21
-2.69678
  0
LINE
  8
0
 10
11.4983
 20
-2.69678
 11
11.5222
 21
-2.74454
  0
LINE
  8
0
 10
11.5222
 20
-2.74454
 11
11.7057
 21
-3.06638
  0
LINE
  8
0
 10
11.7057
 20
-3.06638
 11
11.7373
 21
-3.11508
  0
LINE
  8
0
 10
11.7373
 20
-3.11508
 11
11.9455
 21
-3.3981
  0
LINE
  8
0
 10
11.9455
 20
-3.3981
 11
11.9872
 21
-3.44766
  0
LINE
  8
0
 10
11.9872
 20
-3.44766
 11
12.2166
 21
-3.68713
  0
LINE
  8
0
 10
12.2166
 20
-3.68713
 11
12.2697
 21
-3.73512
  0
LINE
  8
0
 10
12.2697
 20
-3.73512
 11
12.5203
 21
-3.93106
  0
LINE
  8
0
 10
12.5203
 20
-3.93106
 11
12.5837
 21
-3.9733
  0
LINE
  8
0
 10
12.5837
 20
-3.9733
 11
12.8555
 21
-4.12569
  0
LINE
  8
0
 10
12.8555
 20
-4.12569
 11
12.9258
 21
-4.15826
  0
LINE
  8
0
 10
12.9258
 20
-4.15826
 11
13.2188
 21
-4.26712
  0
LINE
  8
0
 10
13.2188
 20
-4.26712
 11
13.2912
 21
-4.28796
  0
LINE
  8
0
 10
13.2912
 20
-4.28796
 11
13.6053
 21
-4.35327
  0
LINE
  8
0
 10
13.6053
 20
-4.35327
 11
13.6747
 21
-4.36269
  0
LINE
  8
0
 10
13.6747
 20
-4.36269
 11
14.0099
 21
-4.38446
  0
LINE
  8
0
 10
14.0099
 20
-4.38446
 11
14.0745
 21
-4.38448
  0
LINE
  8
0
 10
14.0745
 20
-4.38448
 11
14.4128
 21
-4.3627
  0
LINE
  8
0
 10
13.7071
 20
-3.86374
 11
13.3929
 21
-3.79843
  0
LINE
  8
0
 10
13.3929
 20
-3.79843
 11
13.1
 21
-3.68958
  0
LINE
  8
0
 10
13.1
 20
-3.68958
 11
12.8283
 21
-3.53719
  0
LINE
  8
0
 10
12.8283
 20
-3.53719
 11
12.5777
 21
-3.34125
  0
LINE
  8
0
 10
12.5777
 20
-3.34125
 11
12.3483
 21
-3.10178
  0
LINE
  8
0
 10
12.3483
 20
-3.10178
 11
12.14
 21
-2.81876
  0
LINE
  8
0
 10
12.14
 20
-2.81876
 11
11.9566
 21
-2.49692
  0
LINE
  8
0
 10
11.9566
 20
-2.49692
 11
11.8013
 21
-2.14093
  0
LINE
  8
0
 10
11.8013
 20
-2.14093
 11
11.6743
 21
-1.75081
  0
LINE
  8
0
 10
11.6743
 20
-1.75081
 11
11.5755
 21
-1.32657
  0
LINE
  8
0
 10
11.5755
 20
-1.32657
 11
11.5049
 21
-0.868179
  0
LINE
  8
0
 10
11.5049
 20
-0.868179
 11
11.4626
 21
-0.375671
  0
LINE
  8
0
 10
11.4626
 20
-0.375671
 11
11.4485
 21
0.150955
  0
LINE
  8
0
 10
11.4485
 20
0.150955
 11
11.4626
 21
0.677597
  0
LINE
  8
0
 10
11.4626
 20
0.677597
 11
11.5049
 21
1.1701
  0
LINE
  8
0
 10
11.5049
 20
1.1701
 11
11.5755
 21
1.62848
  0
LINE
  8
0
 10
11.5755
 20
1.62848
 11
11.6743
 21
2.05273
  0
LINE
  8
0
 10
11.6743
 20
2.05273
 11
11.8013
 21
2.44284
  0
LINE
  8
0
 10
11.8013
 20
2.44284
 11
11.9566
 21
2.79883
  0
LINE
  8
0
 10
11.9566
 20
2.79883
 11
12.14
 21
3.12068
  0
LINE
  8
0
 10
12.14
 20
3.12068
 11
12.3483
 21
3.4037
  0
LINE
  8
0
 10
12.3483
 20
3.4037
 11
12.5777
 21
3.64317
  0
LINE
  8
0
 10
12.5777
 20
3.64317
 11
12.8283
 21
3.83911
  0
LINE
  8
0
 10
12.8283
 20
3.83911
 11
13.1
 21
3.9915
  0
LINE
  8
0
 10
13.1
 20
3.9915
 11
13.3929
 21
4.10036
  0
LINE
  8
0
 10
13.3929
 20
4.10036
 11
13.7071
 21
4.16566
  0
LINE
  8
0
 10
13.7071
 20
4.16566
 11
14.0423
 21
4.18744
  0
LINE
  8
0
 10
14.0423
 20
4.18744
 11
14.3807
 21
4.16566
  0
LINE
  8
0
 10
14.3807
 20
4.16566
 11
14.6973
 21
4.10036
  0
LINE
  8
0
 10
14.6973
 20
4.10036
 11
14.9923
 21
3.9915
  0
LINE
  8
0
 10
14.9923
 20
3.9915
 11
15.2657
 21
3.83911
  0
LINE
  8
0
 10
15.2657
 20
3.83911
 11
15.5174
 21
3.64317
  0
LINE
  8
0
 10
15.5174
 20
3.64317
 11
15.7475
 21
3.4037
  0
LINE
  8
0
 10
15.7475
 20
3.4037
 11
15.9559
 21
3.12068
  0
LINE
  8
0
 10
15.9559
 20
3.12068
 11
16.1394
 21
2.79883
  0
LINE
  8
0
 10
16.1394
 20
2.79883
 11
16.2947
 21
2.44284
  0
LINE
  8
0
 10
16.2947
 20
2.44284
 11
16.4217
 21
2.05273
  0
LINE
  8
0
 10
16.4217
 20
2.05273
 11
16.5206
 21
1.62848
  0
LINE
  8
0
 10
16.5206
 20
1.62848
 11
16.5911
 21
1.1701
  0
LINE
  8
0
 10
16.5911
 20
1.1701
 11
16.6335
 21
0.677597
  0
LINE
  8
0
 10
16.6335
 20
0.677597
 11
16.6476
 21
0.150955
  0
LINE
  8
0
 10
16.6476
 20
0.150955
 11
16.6335
 21
-0.375671
  0
LINE
  8
0
 10
16.6335
 20
-0.375671
 11
16.5911
 21
-0.868179
  0
LINE
  8
0
 10
16.5911
 20
-0.868179
 11
16.5206
 21
-1.32657
  0
LINE
  8
0
 10
16.5206
 20
-1.32657
 11
16.4217
 21
-1.75081
  0
LINE
  8
0
 10
16.4217
 20
-1.75081
 11
16.2947
 21
-2.14093
  0
LINE
  8
0
 10
16.2947
 20
-2.14093
 11
16.1394
 21
-2.49692
  0
LINE
  8
0
 10
16.1394
 20
-2.49692
 11
15.9559
 21
-2.81876
  0
LINE
  8
0
 10
15.9559
 20
-2.81876
 11
15.7475
 21
-3.10178
  0
LINE
  8
0
 10
15.7475
 20
-3.10178
 11
15.5174
 21
-3.34125
  0
LINE
  8
0
 10
15.5174
 20
-3.34125
 11
15.2657
 21
-3.53719
  0
LINE
  8
0
 10
15.2657
 20
-3.53719
 11
14.9923
 21
-3.68958
  0
LINE
  8
0
 10
14.9923
 20
-3.68958
 11
14.6973
 21
-3.79843
  0
LINE
  8
0
 10
14.6973
 20
-3.79843
 11
14.3807
 21
-3.86374
  0
LINE
  8
0
 10
14.3807
 20
-3.86374
 11
14.0423
 21
-3.88551
  0
LINE
  8
0
 10
14.0423
 20
-3.88551
 11
13.7071
 21
-3.86374
  0
LINE
  8
0
 10
-28.6383
 20
-6.61786
 11
-28.3209
 21
-6.58963
  0
LINE
  8
0
 10
-28.3209
 20
-6.58963
 11
-28.0116
 21
-6.54259
  0
LINE
  8
0
 10
-28.0116
 20
-6.54259
 11
-27.7102
 21
-6.47673
  0
LINE
  8
0
 10
-27.7102
 20
-6.47673
 11
-27.4169
 21
-6.39204
  0
LINE
  8
0
 10
-27.4169
 20
-6.39204
 11
-27.1315
 21
-6.28854
  0
LINE
  8
0
 10
-27.1315
 20
-6.28854
 11
-26.8541
 21
-6.16623
  0
LINE
  8
0
 10
-26.8541
 20
-6.16623
 11
-26.5878
 21
-6.02646
  0
LINE
  8
0
 10
-26.5878
 20
-6.02646
 11
-26.3356
 21
-5.87068
  0
LINE
  8
0
 10
-26.3356
 20
-5.87068
 11
-26.0974
 21
-5.6989
  0
LINE
  8
0
 10
-26.0974
 20
-5.6989
 11
-25.8735
 21
-5.51112
  0
LINE
  8
0
 10
-25.8735
 20
-5.51112
 11
-25.6636
 21
-5.30736
  0
LINE
  8
0
 10
-25.6636
 20
-5.30736
 11
-25.4678
 21
-5.08757
  0
LINE
  8
0
 10
-25.4678
 20
-5.08757
 11
-25.2862
 21
-4.85179
  0
LINE
  8
0
 10
-25.2862
 20
-4.85179
 11
-25.2862
 21
-6.28999
  0
LINE
  8
0
 10
-25.2862
 20
-6.28999
 11
-21.9316
 21
-6.28999
  0
LINE
  8
0
 10
-21.9316
 20
-6.28999
 11
-21.9316
 21
1.07541
  0
LINE
  8
0
 10
-21.9316
 20
1.07541
 11
-21.9576
 21
1.97586
  0
LINE
  8
0
 10
-21.9576
 20
1.97586
 11
-22.0356
 21
2.79401
  0
LINE
  8
0
 10
-22.0356
 20
2.79401
 11
-22.1656
 21
3.52985
  0
LINE
  8
0
 10
-22.1656
 20
3.52985
 11
-22.3475
 21
4.18338
  0
LINE
  8
0
 10
-22.3475
 20
4.18338
 11
-22.5815
 21
4.75459
  0
LINE
  8
0
 10
-22.5815
 20
4.75459
 11
-22.8675
 21
5.2435
  0
LINE
  8
0
 10
-22.8675
 20
5.2435
 11
-23.2054
 21
5.65012
  0
LINE
  8
0
 10
-23.2054
 20
5.65012
 11
-23.6076
 21
5.98946
  0
LINE
  8
0
 10
-23.6076
 20
5.98946
 11
-24.0862
 21
6.2766
  0
LINE
  8
0
 10
-24.0862
 20
6.2766
 11
-24.6413
 21
6.51154
  0
LINE
  8
0
 10
-24.6413
 20
6.51154
 11
-25.2729
 21
6.69426
  0
LINE
  8
0
 10
-25.2729
 20
6.69426
 11
-25.981
 21
6.82478
  0
LINE
  8
0
 10
-25.981
 20
6.82478
 11
-26.7655
 21
6.90309
  0
LINE
  8
0
 10
-26.7655
 20
6.90309
 11
-27.6264
 21
6.9292
  0
LINE
  8
0
 10
-27.6264
 20
6.9292
 11
-27.9925
 21
6.9247
  0
LINE
  8
0
 10
-27.9925
 20
6.9247
 11
-28.3529
 21
6.91124
  0
LINE
  8
0
 10
-28.3529
 20
6.91124
 11
-28.7077
 21
6.88879
  0
LINE
  8
0
 10
-28.7077
 20
6.88879
 11
-29.0569
 21
6.85736
  0
LINE
  8
0
 10
-29.0569
 20
6.85736
 11
-29.4003
 21
6.81696
  0
LINE
  8
0
 10
-29.4003
 20
6.81696
 11
-29.7382
 21
6.76758
  0
LINE
  8
0
 10
-29.7382
 20
6.76758
 11
-30.0704
 21
6.70921
  0
LINE
  8
0
 10
-30.0704
 20
6.70921
 11
-30.399
 21
6.6414
  0
LINE
  8
0
 10
-30.399
 20
6.6414
 11
-30.7263
 21
6.56366
  0
LINE
  8
0
 10
-30.7263
 20
6.56366
 11
-31.0521
 21
6.47601
  0
LINE
  8
0
 10
-31.0521
 20
6.47601
 11
-31.3765
 21
6.37843
  0
LINE
  8
0
 10
-31.3765
 20
6.37843
 11
-31.6996
 21
6.27092
  0
LINE
  8
0
 10
-31.6996
 20
6.27092
 11
-32.0212
 21
6.1535
  0
LINE
  8
0
 10
-32.0212
 20
6.1535
 11
-32.3414
 21
6.02615
  0
LINE
  8
0
 10
-32.3414
 20
6.02615
 11
-32.3414
 21
3.14296
  0
LINE
  8
0
 10
-32.3414
 20
3.14296
 11
-31.991
 21
3.32718
  0
LINE
  8
0
 10
-31.991
 20
3.32718
 11
-31.6445
 21
3.49654
  0
LINE
  8
0
 10
-31.6445
 20
3.49654
 11
-31.3021
 21
3.65103
  0
LINE
  8
0
 10
-31.3021
 20
3.65103
 11
-30.9637
 21
3.79065
  0
LINE
  8
0
 10
-30.9637
 20
3.79065
 11
-30.6293
 21
3.91539
  0
LINE
  8
0
 10
-30.6293
 20
3.91539
 11
-30.2988
 21
4.02527
  0
LINE
  8
0
 10
-30.2988
 20
4.02527
 11
-29.9724
 21
4.12029
  0
LINE
  8
0
 10
-29.9724
 20
4.12029
 11
-29.6465
 21
4.2016
  0
LINE
  8
0
 10
-29.6465
 20
4.2016
 11
-29.3174
 21
4.27042
  0
LINE
  8
0
 10
-29.3174
 20
4.27042
 11
-28.9853
 21
4.32671
  0
LINE
  8
0
 10
-28.9853
 20
4.32671
 11
-28.6502
 21
4.3705
  0
LINE
  8
0
 10
-28.6502
 20
4.3705
 11
-28.312
 21
4.40176
  0
LINE
  8
0
 10
-28.312
 20
4.40176
 11
-27.9707
 21
4.42053
  0
LINE
  8
0
 10
-27.9707
 20
4.42053
 11
-27.6264
 21
4.42679
  0
LINE
  8
0
 10
-27.6264
 20
4.42679
 11
-27.3085
 21
4.4182
  0
LINE
  8
0
 10
-27.3085
 20
4.4182
 11
-27.0134
 21
4.39243
  0
LINE
  8
0
 10
-27.0134
 20
4.39243
 11
-26.741
 21
4.34949
  0
LINE
  8
0
 10
-26.741
 20
4.34949
 11
-26.4916
 21
4.28935
  0
LINE
  8
0
 10
-26.4916
 20
4.28935
 11
-26.2649
 21
4.21204
  0
LINE
  8
0
 10
-26.2649
 20
4.21204
 11
-26.0611
 21
4.11754
  0
LINE
  8
0
 10
-26.0611
 20
4.11754
 11
-25.88
 21
4.00587
  0
LINE
  8
0
 10
-25.88
 20
4.00587
 11
-25.7225
 21
3.87753
  0
LINE
  8
0
 10
-25.7225
 20
3.87753
 11
-25.5892
 21
3.73296
  0
LINE
  8
0
 10
-25.5892
 20
3.73296
 11
-25.4801
 21
3.57213
  0
LINE
  8
0
 10
-25.4801
 20
3.57213
 11
-25.3953
 21
3.39507
  0
LINE
  8
0
 10
-25.3953
 20
3.39507
 11
-25.3347
 21
3.20175
  0
LINE
  8
0
 10
-25.3347
 20
3.20175
 11
-25.2983
 21
2.9922
  0
LINE
  8
0
 10
-25.2983
 20
2.9922
 11
-25.2862
 21
2.7664
  0
LINE
  8
0
 10
-25.2862
 20
2.7664
 11
-25.2862
 21
2.20728
  0
LINE
  8
0
 10
-25.2862
 20
2.20728
 11
-27.6264
 21
2.20728
  0
LINE
  8
0
 10
-27.6264
 20
2.20728
 11
-28.4699
 21
2.18526
  0
LINE
  8
0
 10
-28.4699
 20
2.18526
 11
-29.2479
 21
2.11923
  0
LINE
  8
0
 10
-29.2479
 20
2.11923
 11
-29.9605
 21
2.00919
  0
LINE
  8
0
 10
-29.9605
 20
2.00919
 11
-30.6078
 21
1.85512
  0
LINE
  8
0
 10
-30.6078
 20
1.85512
 11
-31.1896
 21
1.65703
  0
LINE
  8
0
 10
-31.1896
 20
1.65703
 11
-31.7061
 21
1.41492
  0
LINE
  8
0
 10
-31.7061
 20
1.41492
 11
-32.1571
 21
1.1288
  0
LINE
  8
0
 10
-32.1571
 20
1.1288
 11
-32.5047
 21
0.831543
  0
LINE
  8
0
 10
-32.5047
 20
0.831543
 11
-32.4355
 21
0.722626
  0
LINE
  8
0
 10
-32.4355
 20
0.722626
 11
-32.3553
 21
0.552185
  0
LINE
  8
0
 10
-32.3553
 20
0.552185
 11
-32.2971
 21
0.373032
  0
LINE
  8
0
 10
-32.2971
 20
0.373032
 11
-32.2887
 21
0.328995
  0
LINE
  8
0
 10
-32.2887
 20
0.328995
 11
-32.1918
 21
0.441147
  0
LINE
  8
0
 10
-32.1918
 20
0.441147
 11
-31.8592
 21
0.725647
  0
LINE
  8
0
 10
-31.8592
 20
0.725647
 11
-31.4651
 21
0.975647
  0
LINE
  8
0
 10
-31.4651
 20
0.975647
 11
-31.0024
 21
1.19258
  0
LINE
  8
0
 10
-31.0024
 20
1.19258
 11
-30.4689
 21
1.37422
  0
LINE
  8
0
 10
-30.4689
 20
1.37422
 11
-29.8644
 21
1.51811
  0
LINE
  8
0
 10
-29.8644
 20
1.51811
 11
-29.1887
 21
1.62245
  0
LINE
  8
0
 10
-29.1887
 20
1.62245
 11
-28.4421
 21
1.68581
  0
LINE
  8
0
 10
-28.4421
 20
1.68581
 11
-27.6198
 21
1.70728
  0
LINE
  8
0
 10
-27.6198
 20
1.70728
 11
-25.2862
 21
1.70728
  0
LINE
  8
0
 10
-25.2862
 20
1.70728
 11
-25.1925
 21
1.71613
  0
LINE
  8
0
 10
-25.1925
 20
1.71613
 11
-25.1317
 21
1.73175
  0
LINE
  8
0
 10
-25.1317
 20
1.73175
 11
-25.0733
 21
1.75487
  0
LINE
  8
0
 10
-25.0733
 20
1.75487
 11
-25.0183
 21
1.78511
  0
LINE
  8
0
 10
-25.0183
 20
1.78511
 11
-24.9675
 21
1.82202
  0
LINE
  8
0
 10
-24.9675
 20
1.82202
 11
-24.9217
 21
1.86501
  0
LINE
  8
0
 10
-24.9217
 20
1.86501
 11
-24.8817
 21
1.91338
  0
LINE
  8
0
 10
-24.8817
 20
1.91338
 11
-24.8481
 21
1.9664
  0
LINE
  8
0
 10
-24.8481
 20
1.9664
 11
-24.8213
 21
2.02321
  0
LINE
  8
0
 10
-24.8213
 20
2.02321
 11
-24.8019
 21
2.08293
  0
LINE
  8
0
 10
-24.8019
 20
2.08293
 11
-24.7902
 21
2.14461
  0
LINE
  8
0
 10
-24.7902
 20
2.14461
 11
-24.7862
 21
2.20728
  0
LINE
  8
0
 10
-24.7862
 20
2.20728
 11
-24.7862
 21
2.7664
  0
LINE
  8
0
 10
-24.7862
 20
2.7664
 11
-24.7869
 21
2.7932
  0
LINE
  8
0
 10
-24.7869
 20
2.7932
 11
-24.7991
 21
3.019
  0
LINE
  8
0
 10
-24.7991
 20
3.019
 11
-24.8057
 21
3.07765
  0
LINE
  8
0
 10
-24.8057
 20
3.07765
 11
-24.842
 21
3.2872
  0
LINE
  8
0
 10
-24.842
 20
3.2872
 11
-24.8576
 21
3.3513
  0
LINE
  8
0
 10
-24.8576
 20
3.3513
 11
-24.9182
 21
3.54462
  0
LINE
  8
0
 10
-24.9182
 20
3.54462
 11
-24.9444
 21
3.61111
  0
LINE
  8
0
 10
-24.9444
 20
3.61111
 11
-25.0292
 21
3.78818
  0
LINE
  8
0
 10
-25.0292
 20
3.78818
 11
-25.0663
 21
3.85277
  0
LINE
  8
0
 10
-25.0663
 20
3.85277
 11
-25.1754
 21
4.0136
  0
LINE
  8
0
 10
-25.1754
 20
4.0136
 11
-25.2216
 21
4.07188
  0
LINE
  8
0
 10
-25.2216
 20
4.07188
 11
-25.3549
 21
4.21646
  0
LINE
  8
0
 10
-25.3549
 20
4.21646
 11
-25.4067
 21
4.26518
  0
LINE
  8
0
 10
-25.4067
 20
4.26518
 11
-25.5642
 21
4.39352
  0
LINE
  8
0
 10
-25.5642
 20
4.39352
 11
-25.6175
 21
4.43143
  0
LINE
  8
0
 10
-25.6175
 20
4.43143
 11
-25.7985
 21
4.54309
  0
LINE
  8
0
 10
-25.7985
 20
4.54309
 11
-25.8508
 21
4.57117
  0
LINE
  8
0
 10
-25.8508
 20
4.57117
 11
-26.0546
 21
4.66566
  0
LINE
  8
0
 10
-26.0546
 20
4.66566
 11
-26.1035
 21
4.68526
  0
LINE
  8
0
 10
-26.1035
 20
4.68526
 11
-26.3301
 21
4.76257
  0
LINE
  8
0
 10
-26.3301
 20
4.76257
 11
-26.3744
 21
4.77544
  0
LINE
  8
0
 10
-26.3744
 20
4.77544
 11
-26.6239
 21
4.83557
  0
LINE
  8
0
 10
-26.6239
 20
4.83557
 11
-26.6632
 21
4.84338
  0
LINE
  8
0
 10
-26.6632
 20
4.84338
 11
-26.9355
 21
4.88632
  0
LINE
  8
0
 10
-26.9355
 20
4.88632
 11
-26.9698
 21
4.89053
  0
LINE
  8
0
 10
-26.9698
 20
4.89053
 11
-27.265
 21
4.91631
  0
LINE
  8
0
 10
-27.265
 20
4.91631
 11
-27.295
 21
4.91801
  0
LINE
  8
0
 10
-27.295
 20
4.91801
 11
-27.6129
 21
4.92661
  0
LINE
  8
0
 10
-27.6129
 20
4.92661
 11
-27.6355
 21
4.92671
  0
LINE
  8
0
 10
-27.6355
 20
4.92671
 11
-27.9798
 21
4.92046
  0
LINE
  8
0
 10
-27.9798
 20
4.92046
 11
-27.9982
 21
4.91978
  0
LINE
  8
0
 10
-27.9982
 20
4.91978
 11
-28.3394
 21
4.90102
  0
LINE
  8
0
 10
-28.3394
 20
4.90102
 11
-28.358
 21
4.89964
  0
LINE
  8
0
 10
-28.358
 20
4.89964
 11
-28.6962
 21
4.86838
  0
LINE
  8
0
 10
-28.6962
 20
4.86838
 11
-28.715
 21
4.86629
  0
LINE
  8
0
 10
-28.715
 20
4.86629
 11
-29.0501
 21
4.82249
  0
LINE
  8
0
 10
-29.0501
 20
4.82249
 11
-29.0689
 21
4.81967
  0
LINE
  8
0
 10
-29.0689
 20
4.81967
 11
-29.401
 21
4.76338
  0
LINE
  8
0
 10
-29.401
 20
4.76338
 11
-29.4198
 21
4.75983
  0
LINE
  8
0
 10
-29.4198
 20
4.75983
 11
-29.7488
 21
4.69101
  0
LINE
  8
0
 10
-29.7488
 20
4.69101
 11
-29.7675
 21
4.68674
  0
LINE
  8
0
 10
-29.7675
 20
4.68674
 11
-30.0935
 21
4.60542
  0
LINE
  8
0
 10
-30.0935
 20
4.60542
 11
-30.1122
 21
4.60036
  0
LINE
  8
0
 10
-30.1122
 20
4.60036
 11
-30.4386
 21
4.50534
  0
LINE
  8
0
 10
-30.4386
 20
4.50534
 11
-30.4566
 21
4.49973
  0
LINE
  8
0
 10
-30.4566
 20
4.49973
 11
-30.787
 21
4.38985
  0
LINE
  8
0
 10
-30.787
 20
4.38985
 11
-30.804
 21
4.38387
  0
LINE
  8
0
 10
-30.804
 20
4.38387
 11
-31.1384
 21
4.25912
  0
LINE
  8
0
 10
-31.1384
 20
4.25912
 11
-31.1544
 21
4.25285
  0
LINE
  8
0
 10
-31.1544
 20
4.25285
 11
-31.4928
 21
4.11324
  0
LINE
  8
0
 10
-31.4928
 20
4.11324
 11
-31.5077
 21
4.1068
  0
LINE
  8
0
 10
-31.5077
 20
4.1068
 11
-31.8414
 21
3.95625
  0
LINE
  8
0
 10
-31.8414
 20
3.95625
 11
-31.8414
 21
5.68686
  0
LINE
  8
0
 10
-31.8414
 20
5.68686
 11
-31.5346
 21
5.79886
  0
LINE
  8
0
 10
-31.5346
 20
5.79886
 11
-31.2254
 21
5.90176
  0
LINE
  8
0
 10
-31.2254
 20
5.90176
 11
-30.9153
 21
5.99506
  0
LINE
  8
0
 10
-30.9153
 20
5.99506
 11
-30.6038
 21
6.07884
  0
LINE
  8
0
 10
-30.6038
 20
6.07884
 11
-30.2905
 21
6.15327
  0
LINE
  8
0
 10
-30.2905
 20
6.15327
 11
-29.9768
 21
6.218
  0
LINE
  8
0
 10
-29.9768
 20
6.218
 11
-29.6588
 21
6.27385
  0
LINE
  8
0
 10
-29.6588
 20
6.27385
 11
-29.3349
 21
6.3212
  0
LINE
  8
0
 10
-29.3349
 20
6.3212
 11
-29.005
 21
6.36
  0
LINE
  8
0
 10
-29.005
 20
6.36
 11
-28.6697
 21
6.3902
  0
LINE
  8
0
 10
-28.6697
 20
6.3902
 11
-28.3275
 21
6.41185
  0
LINE
  8
0
 10
-28.3275
 20
6.41185
 11
-27.9805
 21
6.4248
  0
LINE
  8
0
 10
-27.9805
 20
6.4248
 11
-27.6308
 21
6.42911
  0
LINE
  8
0
 10
-27.6308
 20
6.42911
 11
-26.7979
 21
6.40384
  0
LINE
  8
0
 10
-26.7979
 20
6.40384
 11
-26.0512
 21
6.32932
  0
LINE
  8
0
 10
-26.0512
 20
6.32932
 11
-25.388
 21
6.20705
  0
LINE
  8
0
 10
-25.388
 20
6.20705
 11
-24.8089
 21
6.03952
  0
LINE
  8
0
 10
-24.8089
 20
6.03952
 11
-24.3134
 21
5.82979
  0
LINE
  8
0
 10
-24.3134
 20
5.82979
 11
-23.8992
 21
5.58134
  0
LINE
  8
0
 10
-23.8992
 20
5.58134
 11
-23.5617
 21
5.29651
  0
LINE
  8
0
 10
-23.5617
 20
5.29651
 11
-23.2783
 21
4.95554
  0
LINE
  8
0
 10
-23.2783
 20
4.95554
 11
-23.0309
 21
4.53256
  0
LINE
  8
0
 10
-23.0309
 20
4.53256
 11
-22.8214
 21
4.021
  0
LINE
  8
0
 10
-22.8214
 20
4.021
 11
-22.6537
 21
3.41898
  0
LINE
  8
0
 10
-22.6537
 20
3.41898
 11
-22.5314
 21
2.72675
  0
LINE
  8
0
 10
-22.5314
 20
2.72675
 11
-22.4569
 21
1.94485
  0
LINE
  8
0
 10
-22.4569
 20
1.94485
 11
-22.4316
 21
1.06837
  0
LINE
  8
0
 10
-22.4316
 20
1.06837
 11
-22.4316
 21
-5.78999
  0
LINE
  8
0
 10
-22.4316
 20
-5.78999
 11
-24.7862
 21
-5.78999
  0
LINE
  8
0
 10
-24.7862
 20
-5.78999
 11
-24.7862
 21
-4.85179
  0
LINE
  8
0
 10
-24.7862
 20
-4.85179
 11
-24.7886
 21
-4.80307
  0
LINE
  8
0
 10
-24.7886
 20
-4.80307
 11
-24.7986
 21
-4.74109
  0
LINE
  8
0
 10
-24.7986
 20
-4.74109
 11
-24.8164
 21
-4.68085
  0
LINE
  8
0
 10
-24.8164
 20
-4.68085
 11
-24.8415
 21
-4.62331
  0
LINE
  8
0
 10
-24.8415
 20
-4.62331
 11
-24.8736
 21
-4.56937
  0
LINE
  8
0
 10
-24.8736
 20
-4.56937
 11
-24.9123
 21
-4.51988
  0
LINE
  8
0
 10
-24.9123
 20
-4.51988
 11
-24.9568
 21
-4.47563
  0
LINE
  8
0
 10
-24.9568
 20
-4.47563
 11
-25.0066
 21
-4.43732
  0
LINE
  8
0
 10
-25.0066
 20
-4.43732
 11
-25.0607
 21
-4.40553
  0
LINE
  8
0
 10
-25.0607
 20
-4.40553
 11
-25.1184
 21
-4.38078
  0
LINE
  8
0
 10
-25.1184
 20
-4.38078
 11
-25.1788
 21
-4.36346
  0
LINE
  8
0
 10
-25.1788
 20
-4.36346
 11
-25.2408
 21
-4.35385
  0
LINE
  8
0
 10
-25.2408
 20
-4.35385
 11
-25.3036
 21
-4.3521
  0
LINE
  8
0
 10
-25.3036
 20
-4.3521
 11
-25.3661
 21
-4.35822
  0
LINE
  8
0
 10
-25.3661
 20
-4.35822
 11
-25.4273
 21
-4.37212
  0
LINE
  8
0
 10
-25.4273
 20
-4.37212
 11
-25.4863
 21
-4.39359
  0
LINE
  8
0
 10
-25.4863
 20
-4.39359
 11
-25.5422
 21
-4.42227
  0
LINE
  8
0
 10
-25.5422
 20
-4.42227
 11
-25.594
 21
-4.45775
  0
LINE
  8
0
 10
-25.594
 20
-4.45775
 11
-25.641
 21
-4.49942
  0
LINE
  8
0
 10
-25.641
 20
-4.49942
 11
-25.6823
 21
-4.54666
  0
LINE
  8
0
 10
-25.6823
 20
-4.54666
 11
-25.8531
 21
-4.76842
  0
LINE
  8
0
 10
-25.8531
 20
-4.76842
 11
-26.0248
 21
-4.9612
  0
LINE
  8
0
 10
-26.0248
 20
-4.9612
 11
-26.2087
 21
-5.13968
  0
LINE
  8
0
 10
-26.2087
 20
-5.13968
 11
-26.4047
 21
-5.30406
  0
LINE
  8
0
 10
-26.4047
 20
-5.30406
 11
-26.6137
 21
-5.45479
  0
LINE
  8
0
 10
-26.6137
 20
-5.45479
 11
-26.8355
 21
-5.5918
  0
LINE
  8
0
 10
-26.8355
 20
-5.5918
 11
-27.0714
 21
-5.71558
  0
LINE
  8
0
 10
-27.0714
 20
-5.71558
 11
-27.3177
 21
-5.82422
  0
LINE
  8
0
 10
-27.3177
 20
-5.82422
 11
-27.5717
 21
-5.91634
  0
LINE
  8
0
 10
-27.5717
 20
-5.91634
 11
-27.8329
 21
-5.99173
  0
LINE
  8
0
 10
-27.8329
 20
-5.99173
 11
-28.1026
 21
-6.05069
  0
LINE
  8
0
 10
-28.1026
 20
-6.05069
 11
-28.3809
 21
-6.09299
  0
LINE
  8
0
 10
-28.3809
 20
-6.09299
 11
-28.6677
 21
-6.1185
  0
LINE
  8
0
 10
-28.6677
 20
-6.1185
 11
-28.9611
 21
-6.127
  0
LINE
  8
0
 10
-28.9611
 20
-6.127
 11
-29.532
 21
-6.10472
  0
LINE
  8
0
 10
-29.532
 20
-6.10472
 11
-30.0564
 21
-6.03905
  0
LINE
  8
0
 10
-30.0564
 20
-6.03905
 11
-30.5367
 21
-5.93127
  0
LINE
  8
0
 10
-30.5367
 20
-5.93127
 11
-30.9736
 21
-5.78288
  0
LINE
  8
0
 10
-30.9736
 20
-5.78288
 11
-31.3698
 21
-5.59462
  0
LINE
  8
0
 10
-31.3698
 20
-5.59462
 11
-31.7272
 21
-5.36691
  0
LINE
  8
0
 10
-31.7272
 20
-5.36691
 11
-32.0484
 21
-5.09906
  0
LINE
  8
0
 10
-32.0484
 20
-5.09906
 11
-32.33
 21
-4.79509
  0
LINE
  8
0
 10
-32.33
 20
-4.79509
 11
-32.5679
 21
-4.45915
  0
LINE
  8
0
 10
-32.5679
 20
-4.45915
 11
-32.7635
 21
-4.08871
  0
LINE
  8
0
 10
-32.7635
 20
-4.08871
 11
-32.9176
 21
-3.68053
  0
LINE
  8
0
 10
-32.9176
 20
-3.68053
 11
-33.0293
 21
-3.23238
  0
LINE
  8
0
 10
-33.0293
 20
-3.23238
 11
-33.0976
 21
-2.74216
  0
LINE
  8
0
 10
-33.0976
 20
-2.74216
 11
-33.1206
 21
-2.21117
  0
LINE
  8
0
 10
-33.1206
 20
-2.21117
 11
-33.0931
 21
-1.63904
  0
LINE
  8
0
 10
-33.0931
 20
-1.63904
 11
-33.0432
 21
-1.31979
  0
LINE
  8
0
 10
-33.0432
 20
-1.31979
 11
-33.1113
 21
-1.35724
  0
LINE
  8
0
 10
-33.1113
 20
-1.35724
 11
-33.2865
 21
-1.42657
  0
LINE
  8
0
 10
-33.2865
 20
-1.42657
 11
-33.4689
 21
-1.47342
  0
LINE
  8
0
 10
-33.4689
 20
-1.47342
 11
-33.5754
 21
-1.48688
  0
LINE
  8
0
 10
-33.5754
 20
-1.48688
 11
-33.5913
 21
-1.58826
  0
LINE
  8
0
 10
-33.5913
 20
-1.58826
 11
-33.6212
 21
-2.20999
  0
LINE
  8
0
 10
-33.6212
 20
-2.20999
 11
-33.5961
 21
-2.78761
  0
LINE
  8
0
 10
-33.5961
 20
-2.78761
 11
-33.5209
 21
-3.32758
  0
LINE
  8
0
 10
-33.5209
 20
-3.32758
 11
-33.3956
 21
-3.82988
  0
LINE
  8
0
 10
-33.3956
 20
-3.82988
 11
-33.2203
 21
-4.29451
  0
LINE
  8
0
 10
-33.2203
 20
-4.29451
 11
-32.9948
 21
-4.72148
  0
LINE
  8
0
 10
-32.9948
 20
-4.72148
 11
-32.7191
 21
-5.11079
  0
LINE
  8
0
 10
-32.7191
 20
-5.11079
 11
-32.3934
 21
-5.46243
  0
LINE
  8
0
 10
-32.3934
 20
-5.46243
 11
-32.0227
 21
-5.77147
  0
LINE
  8
0
 10
-32.0227
 20
-5.77147
 11
-31.6123
 21
-6.03296
  0
LINE
  8
0
 10
-31.6123
 20
-6.03296
 11
-31.1621
 21
-6.24692
  0
LINE
  8
0
 10
-31.1621
 20
-6.24692
 11
-30.6721
 21
-6.41331
  0
LINE
  8
0
 10
-30.6721
 20
-6.41331
 11
-30.1424
 21
-6.53218
  0
LINE
  8
0
 10
-30.1424
 20
-6.53218
 11
-29.5729
 21
-6.6035
  0
LINE
  8
0
 10
-29.5729
 20
-6.6035
 11
-28.9637
 21
-6.62727
  0
LINE
  8
0
 10
-28.9637
 20
-6.62727
 11
-28.6383
 21
-6.61786
  0
LINE
  8
0
 10
-0.208435
 20
-0.343567
 11
-0.206192
 21
0.00526428
  0
LINE
  8
0
 10
-0.206192
 20
0.00526428
 11
-0.199493
 21
0.327759
  0
LINE
  8
0
 10
-0.199493
 20
0.327759
 11
-0.188324
 21
0.623932
  0
LINE
  8
0
 10
-0.188324
 20
0.623932
 11
-0.172684
 21
0.893768
  0
LINE
  8
0
 10
-0.172684
 20
0.893768
 11
-0.152573
 21
1.13728
  0
LINE
  8
0
 10
-0.152573
 20
1.13728
 11
-0.127991
 21
1.35445
  0
LINE
  8
0
 10
-0.127991
 20
1.35445
 11
-0.0989532
 21
1.54529
  0
LINE
  8
0
 10
-0.0989532
 20
1.54529
 11
-0.0642548
 21
1.71925
  0
LINE
  8
0
 10
-0.0642548
 20
1.71925
 11
-0.0227356
 21
1.8857
  0
LINE
  8
0
 10
-0.0227356
 20
1.8857
 11
0.0256042
 21
2.04462
  0
LINE
  8
0
 10
0.0256042
 20
2.04462
 11
0.08078
 21
2.19601
  0
LINE
  8
0
 10
0.08078
 20
2.19601
 11
0.142776
 21
2.33989
  0
LINE
  8
0
 10
0.142776
 20
2.33989
 11
0.211609
 21
2.47624
  0
LINE
  8
0
 10
0.211609
 20
2.47624
 11
0.287277
 21
2.60507
  0
LINE
  8
0
 10
0.287277
 20
2.60507
 11
0.419846
 21
2.80214
  0
LINE
  8
0
 10
0.419846
 20
2.80214
 11
0.567245
 21
2.98535
  0
LINE
  8
0
 10
0.567245
 20
2.98535
 11
0.729446
 21
3.15468
  0
LINE
  8
0
 10
0.729446
 20
3.15468
 11
0.906464
 21
3.31017
  0
LINE
  8
0
 10
0.906464
 20
3.31017
 11
1.0983
 21
3.45178
  0
LINE
  8
0
 10
1.0983
 20
3.45178
 11
1.30495
 21
3.57953
  0
LINE
  8
0
 10
1.30495
 20
3.57953
 11
1.5264
 21
3.69341
  0
LINE
  8
0
 10
1.5264
 20
3.69341
 11
1.76085
 21
3.79272
  0
LINE
  8
0
 10
1.76085
 20
3.79272
 11
2.00636
 21
3.87677
  0
LINE
  8
0
 10
2.00636
 20
3.87677
 11
2.26292
 21
3.94553
  0
LINE
  8
0
 10
2.26292
 20
3.94553
 11
2.53056
 21
3.99899
  0
LINE
  8
0
 10
2.53056
 20
3.99899
 11
2.80925
 21
4.0372
  0
LINE
  8
0
 10
2.80925
 20
4.0372
 11
3.099
 21
4.06012
  0
LINE
  8
0
 10
3.099
 20
4.06012
 11
3.39981
 21
4.06775
  0
LINE
  8
0
 10
3.39981
 20
4.06775
 11
3.65045
 21
4.06259
  0
LINE
  8
0
 10
3.65045
 20
4.06259
 11
3.89523
 21
4.0471
  0
LINE
  8
0
 10
3.89523
 20
4.0471
 11
4.13412
 21
4.02129
  0
LINE
  8
0
 10
4.13412
 20
4.02129
 11
4.36716
 21
3.98515
  0
LINE
  8
0
 10
4.36716
 20
3.98515
 11
4.5943
 21
3.93869
  0
LINE
  8
0
 10
4.5943
 20
3.93869
 11
4.81557
 21
3.8819
  0
LINE
  8
0
 10
4.81557
 20
3.8819
 11
5.03096
 21
3.81479
  0
LINE
  8
0
 10
5.03096
 20
3.81479
 11
5.23952
 21
3.73735
  0
LINE
  8
0
 10
5.23952
 20
3.73735
 11
5.44032
 21
3.6496
  0
LINE
  8
0
 10
5.44032
 20
3.6496
 11
5.63336
 21
3.55151
  0
LINE
  8
0
 10
5.63336
 20
3.55151
 11
5.81865
 21
3.4431
  0
LINE
  8
0
 10
5.81865
 20
3.4431
 11
5.99615
 21
3.32436
  0
LINE
  8
0
 10
5.99615
 20
3.32436
 11
6.16591
 21
3.1953
  0
LINE
  8
0
 10
6.16591
 20
3.1953
 11
6.32788
 21
3.05591
  0
LINE
  8
0
 10
6.32788
 20
3.05591
 11
6.32788
 21
6.2764
  0
LINE
  8
0
 10
6.32788
 20
6.2764
 11
6.15533
 21
6.36484
  0
LINE
  8
0
 10
6.15533
 20
6.36484
 11
5.98018
 21
6.44699
  0
LINE
  8
0
 10
5.98018
 20
6.44699
 11
5.80244
 21
6.52283
  0
LINE
  8
0
 10
5.80244
 20
6.52283
 11
5.62213
 21
6.59236
  0
LINE
  8
0
 10
5.62213
 20
6.59236
 11
5.43922
 21
6.65558
  0
LINE
  8
0
 10
5.43922
 20
6.65558
 11
5.25372
 21
6.71249
  0
LINE
  8
0
 10
5.25372
 20
6.71249
 11
5.06563
 21
6.76311
  0
LINE
  8
0
 10
5.06563
 20
6.76311
 11
4.87567
 21
6.80717
  0
LINE
  8
0
 10
4.87567
 20
6.80717
 11
4.68451
 21
6.84445
  0
LINE
  8
0
 10
4.68451
 20
6.84445
 11
4.49219
 21
6.87495
  0
LINE
  8
0
 10
4.49219
 20
6.87495
 11
4.29868
 21
6.89868
  0
LINE
  8
0
 10
4.29868
 20
6.89868
 11
4.10399
 21
6.91563
  0
LINE
  8
0
 10
4.10399
 20
6.91563
 11
3.90813
 21
6.9258
  0
LINE
  8
0
 10
3.90813
 20
6.9258
 11
3.71107
 21
6.9292
  0
LINE
  8
0
 10
3.71107
 20
6.9292
 11
3.32616
 21
6.91684
  0
LINE
  8
0
 10
3.32616
 20
6.91684
 11
2.95537
 21
6.87976
  0
LINE
  8
0
 10
2.95537
 20
6.87976
 11
2.59871
 21
6.81798
  0
LINE
  8
0
 10
2.59871
 20
6.81798
 11
2.25615
 21
6.73146
  0
LINE
  8
0
 10
2.25615
 20
6.73146
 11
1.92772
 21
6.62024
  0
LINE
  8
0
 10
1.92772
 20
6.62024
 11
1.61342
 21
6.4843
  0
LINE
  8
0
 10
1.61342
 20
6.4843
 11
1.31323
 21
6.32365
  0
LINE
  8
0
 10
1.31323
 20
6.32365
 11
1.03091
 21
6.14046
  0
LINE
  8
0
 10
1.03091
 20
6.14046
 11
0.770248
 21
5.93677
  0
LINE
  8
0
 10
0.770248
 20
5.93677
 11
0.531235
 21
5.71262
  0
LINE
  8
0
 10
0.531235
 20
5.71262
 11
0.313843
 21
5.46799
  0
LINE
  8
0
 10
0.313843
 20
5.46799
 11
0.118103
 21
5.20288
  0
LINE
  8
0
 10
0.118103
 20
5.20288
 11
-0.0559692
 21
4.9173
  0
LINE
  8
0
 10
-0.0559692
 20
4.9173
 11
-0.208435
 21
4.61124
  0
LINE
  8
0
 10
-0.208435
 20
4.61124
 11
-0.208435
 21
6.62456
  0
LINE
  8
0
 10
-0.208435
 20
6.62456
 11
-3.58633
 21
6.62456
  0
LINE
  8
0
 10
-3.58633
 20
6.62456
 11
-3.58633
 21
-6.28999
  0
LINE
  8
0
 10
-3.58633
 20
-6.28999
 11
-0.208435
 21
-6.28999
  0
LINE
  8
0
 10
-0.208435
 20
-6.28999
 11
-0.208435
 21
-0.343567
  0
LINE
  8
0
 10
-3.08633
 20
-5.78999
 11
-3.08633
 21
6.12456
  0
LINE
  8
0
 10
-3.08633
 20
6.12456
 11
-0.708435
 21
6.12456
  0
LINE
  8
0
 10
-0.708435
 20
6.12456
 11
-0.708435
 21
4.61124
  0
LINE
  8
0
 10
-0.708435
 20
4.61124
 11
-0.701553
 21
4.52855
  0
LINE
  8
0
 10
-0.701553
 20
4.52855
 11
-0.687302
 21
4.46739
  0
LINE
  8
0
 10
-0.687302
 20
4.46739
 11
-0.665497
 21
4.40851
  0
LINE
  8
0
 10
-0.665497
 20
4.40851
 11
-0.636475
 21
4.35283
  0
LINE
  8
0
 10
-0.636475
 20
4.35283
 11
-0.600723
 21
4.30121
  0
LINE
  8
0
 10
-0.600723
 20
4.30121
 11
-0.558762
 21
4.25449
  0
LINE
  8
0
 10
-0.558762
 20
4.25449
 11
-0.511292
 21
4.21339
  0
LINE
  8
0
 10
-0.511292
 20
4.21339
 11
-0.459045
 21
4.17857
  0
LINE
  8
0
 10
-0.459045
 20
4.17857
 11
-0.402847
 21
4.15057
  0
LINE
  8
0
 10
-0.402847
 20
4.15057
 11
-0.343567
 21
4.12984
  0
LINE
  8
0
 10
-0.343567
 20
4.12984
 11
-0.282166
 21
4.1167
  0
LINE
  8
0
 10
-0.282166
 20
4.1167
 11
-0.219604
 21
4.11136
  0
LINE
  8
0
 10
-0.219604
 20
4.11136
 11
-0.156876
 21
4.11391
  0
LINE
  8
0
 10
-0.156876
 20
4.11391
 11
-0.0949402
 21
4.12428
  0
LINE
  8
0
 10
-0.0949402
 20
4.12428
 11
-0.0348053
 21
4.14235
  0
LINE
  8
0
 10
-0.0348053
 20
4.14235
 11
0.0225983
 21
4.16782
  0
LINE
  8
0
 10
0.0225983
 20
4.16782
 11
0.0763397
 21
4.20026
  0
LINE
  8
0
 10
0.0763397
 20
4.20026
 11
0.12561
 21
4.2392
  0
LINE
  8
0
 10
0.12561
 20
4.2392
 11
0.169601
 21
4.284
  0
LINE
  8
0
 10
0.169601
 20
4.284
 11
0.207642
 21
4.33395
  0
LINE
  8
0
 10
0.207642
 20
4.33395
 11
0.239105
 21
4.38829
  0
LINE
  8
0
 10
0.239105
 20
4.38829
 11
0.382034
 21
4.67522
  0
LINE
  8
0
 10
0.382034
 20
4.67522
 11
0.533508
 21
4.92372
  0
LINE
  8
0
 10
0.533508
 20
4.92372
 11
0.702621
 21
5.15276
  0
LINE
  8
0
 10
0.702621
 20
5.15276
 11
0.889908
 21
5.36351
  0
LINE
  8
0
 10
0.889908
 20
5.36351
 11
1.09584
 21
5.55664
  0
LINE
  8
0
 10
1.09584
 20
5.55664
 11
1.32147
 21
5.73296
  0
LINE
  8
0
 10
1.32147
 20
5.73296
 11
1.56776
 21
5.89278
  0
LINE
  8
0
 10
1.56776
 20
5.89278
 11
1.83104
 21
6.03366
  0
LINE
  8
0
 10
1.83104
 20
6.03366
 11
2.10735
 21
6.15317
  0
LINE
  8
0
 10
2.10735
 20
6.15317
 11
2.39789
 21
6.25156
  0
LINE
  8
0
 10
2.39789
 20
6.25156
 11
2.7027
 21
6.32855
  0
LINE
  8
0
 10
2.7027
 20
6.32855
 11
3.02304
 21
6.38403
  0
LINE
  8
0
 10
3.02304
 20
6.38403
 11
3.35904
 21
6.41763
  0
LINE
  8
0
 10
3.35904
 20
6.41763
 11
3.71478
 21
6.42906
  0
LINE
  8
0
 10
3.71478
 20
6.42906
 11
3.89079
 21
6.42603
  0
LINE
  8
0
 10
3.89079
 20
6.42603
 11
4.06953
 21
6.41675
  0
LINE
  8
0
 10
4.06953
 20
6.41675
 11
4.24654
 21
6.40134
  0
LINE
  8
0
 10
4.24654
 20
6.40134
 11
4.42261
 21
6.37975
  0
LINE
  8
0
 10
4.42261
 20
6.37975
 11
4.59734
 21
6.35204
  0
LINE
  8
0
 10
4.59734
 20
6.35204
 11
4.77136
 21
6.3181
  0
LINE
  8
0
 10
4.77136
 20
6.3181
 11
4.94424
 21
6.278
  0
LINE
  8
0
 10
4.94424
 20
6.278
 11
5.11496
 21
6.23206
  0
LINE
  8
0
 10
5.11496
 20
6.23206
 11
5.28453
 21
6.18002
  0
LINE
  8
0
 10
5.28453
 20
6.18002
 11
5.45049
 21
6.12267
  0
LINE
  8
0
 10
5.45049
 20
6.12267
 11
5.61417
 21
6.05956
  0
LINE
  8
0
 10
5.61417
 20
6.05956
 11
5.77573
 21
5.99062
  0
LINE
  8
0
 10
5.77573
 20
5.99062
 11
5.82788
 21
5.96616
  0
LINE
  8
0
 10
5.82788
 20
5.96616
 11
5.82788
 21
4.0135
  0
LINE
  8
0
 10
5.82788
 20
4.0135
 11
5.66681
 21
4.09535
  0
LINE
  8
0
 10
5.66681
 20
4.09535
 11
5.64055
 21
4.10776
  0
LINE
  8
0
 10
5.64055
 20
4.10776
 11
5.43974
 21
4.19551
  0
LINE
  8
0
 10
5.43974
 20
4.19551
 11
5.41356
 21
4.20609
  0
LINE
  8
0
 10
5.41356
 20
4.20609
 11
5.205
 21
4.28352
  0
LINE
  8
0
 10
5.205
 20
4.28352
 11
5.17969
 21
4.29216
  0
LINE
  8
0
 10
5.17969
 20
4.29216
 11
4.96429
 21
4.35927
  0
LINE
  8
0
 10
4.96429
 20
4.35927
 11
4.93988
 21
4.3662
  0
LINE
  8
0
 10
4.93988
 20
4.3662
 11
4.71861
 21
4.42299
  0
LINE
  8
0
 10
4.71861
 20
4.42299
 11
4.6945
 21
4.42854
  0
LINE
  8
0
 10
4.6945
 20
4.42854
 11
4.46736
 21
4.47501
  0
LINE
  8
0
 10
4.46736
 20
4.47501
 11
4.44377
 21
4.47925
  0
LINE
  8
0
 10
4.44377
 20
4.47925
 11
4.21074
 21
4.51538
  0
LINE
  8
0
 10
4.21074
 20
4.51538
 11
4.18785
 21
4.51839
  0
LINE
  8
0
 10
4.18785
 20
4.51839
 11
3.94896
 21
4.5442
  0
LINE
  8
0
 10
3.94896
 20
4.5442
 11
3.9268
 21
4.54611
  0
LINE
  8
0
 10
3.9268
 20
4.54611
 11
3.68202
 21
4.5616
  0
LINE
  8
0
 10
3.68202
 20
4.5616
 11
3.66074
 21
4.56248
  0
LINE
  8
0
 10
3.66074
 20
4.56248
 11
3.4101
 21
4.56764
  0
LINE
  8
0
 10
3.4101
 20
4.56764
 11
3.38713
 21
4.56758
  0
LINE
  8
0
 10
3.38713
 20
4.56758
 11
3.08632
 21
4.55995
  0
LINE
  8
0
 10
3.08632
 20
4.55995
 11
3.05957
 21
4.55856
  0
LINE
  8
0
 10
3.05957
 20
4.55856
 11
2.76982
 21
4.53564
  0
LINE
  8
0
 10
2.76982
 20
4.53564
 11
2.74133
 21
4.53256
  0
LINE
  8
0
 10
2.74133
 20
4.53256
 11
2.46265
 21
4.49435
  0
LINE
  8
0
 10
2.46265
 20
4.49435
 11
2.43262
 21
4.4893
  0
LINE
  8
0
 10
2.43262
 20
4.4893
 11
2.16498
 21
4.43584
  0
LINE
  8
0
 10
2.16498
 20
4.43584
 11
2.1335
 21
4.42848
  0
LINE
  8
0
 10
2.1335
 20
4.42848
 11
1.87694
 21
4.35973
  0
LINE
  8
0
 10
1.87694
 20
4.35973
 11
1.84442
 21
4.34982
  0
LINE
  8
0
 10
1.84442
 20
4.34982
 11
1.59891
 21
4.26578
  0
LINE
  8
0
 10
1.59891
 20
4.26578
 11
1.56581
 21
4.25311
  0
LINE
  8
0
 10
1.56581
 20
4.25311
 11
1.33136
 21
4.15379
  0
LINE
  8
0
 10
1.33136
 20
4.15379
 11
1.29774
 21
4.13806
  0
LINE
  8
0
 10
1.29774
 20
4.13806
 11
1.07629
 21
4.02419
  0
LINE
  8
0
 10
1.07629
 20
4.02419
 11
1.04204
 21
4.00482
  0
LINE
  8
0
 10
1.04204
 20
4.00482
 11
0.835388
 21
3.87708
  0
LINE
  8
0
 10
0.835388
 20
3.87708
 11
0.801331
 21
3.85405
  0
LINE
  8
0
 10
0.801331
 20
3.85405
 11
0.609497
 21
3.71243
  0
LINE
  8
0
 10
0.609497
 20
3.71243
 11
0.576492
 21
3.68582
  0
LINE
  8
0
 10
0.576492
 20
3.68582
 11
0.399475
 21
3.53033
  0
LINE
  8
0
 10
0.399475
 20
3.53033
 11
0.368378
 21
3.50055
  0
LINE
  8
0
 10
0.368378
 20
3.50055
 11
0.206177
 21
3.33122
  0
LINE
  8
0
 10
0.206177
 20
3.33122
 11
0.177673
 21
3.29877
  0
LINE
  8
0
 10
0.177673
 20
3.29877
 11
0.0302734
 21
3.11555
  0
LINE
  8
0
 10
0.0302734
 20
3.11555
 11
0.00497437
 21
3.08122
  0
LINE
  8
0
 10
0.00497437
 20
3.08122
 11
-0.127594
 21
2.88416
  0
LINE
  8
0
 10
-0.127594
 20
2.88416
 11
-0.14386
 21
2.85829
  0
LINE
  8
0
 10
-0.14386
 20
2.85829
 11
-0.219528
 21
2.72946
  0
LINE
  8
0
 10
-0.219528
 20
2.72946
 11
-0.234741
 21
2.70157
  0
LINE
  8
0
 10
-0.234741
 20
2.70157
 11
-0.303574
 21
2.56522
  0
LINE
  8
0
 10
-0.303574
 20
2.56522
 11
-0.316406
 21
2.53775
  0
LINE
  8
0
 10
-0.316406
 20
2.53775
 11
-0.378403
 21
2.39388
  0
LINE
  8
0
 10
-0.378403
 20
2.39388
 11
-0.388992
 21
2.36722
  0
LINE
  8
0
 10
-0.388992
 20
2.36722
 11
-0.444168
 21
2.21582
  0
LINE
  8
0
 10
-0.444168
 20
2.21582
 11
-0.452759
 21
2.19012
  0
LINE
  8
0
 10
-0.452759
 20
2.19012
 11
-0.501099
 21
2.0312
  0
LINE
  8
0
 10
-0.501099
 20
2.0312
 11
-0.507874
 21
2.00671
  0
LINE
  8
0
 10
-0.507874
 20
2.00671
 11
-0.549393
 21
1.84027
  0
LINE
  8
0
 10
-0.549393
 20
1.84027
 11
-0.554596
 21
1.81706
  0
LINE
  8
0
 10
-0.554596
 20
1.81706
 11
-0.589294
 21
1.6431
  0
LINE
  8
0
 10
-0.589294
 20
1.6431
 11
-0.593262
 21
1.6205
  0
LINE
  8
0
 10
-0.593262
 20
1.6205
 11
-0.622299
 21
1.42966
  0
LINE
  8
0
 10
-0.622299
 20
1.42966
 11
-0.624817
 21
1.41069
  0
LINE
  8
0
 10
-0.624817
 20
1.41069
 11
-0.649399
 21
1.19353
  0
LINE
  8
0
 10
-0.649399
 20
1.19353
 11
-0.650879
 21
1.17844
  0
LINE
  8
0
 10
-0.650879
 20
1.17844
 11
-0.67099
 21
0.934921
  0
LINE
  8
0
 10
-0.67099
 20
0.934921
 11
-0.671844
 21
0.922699
  0
LINE
  8
0
 10
-0.671844
 20
0.922699
 11
-0.687485
 21
0.652863
  0
LINE
  8
0
 10
-0.687485
 20
0.652863
 11
-0.687973
 21
0.642776
  0
LINE
  8
0
 10
-0.687973
 20
0.642776
 11
-0.699142
 21
0.346603
  0
LINE
  8
0
 10
-0.699142
 20
0.346603
 11
-0.699387
 21
0.338135
  0
LINE
  8
0
 10
-0.699387
 20
0.338135
 11
-0.706085
 21
0.0156403
  0
LINE
  8
0
 10
-0.706085
 20
0.0156403
 11
-0.706177
 21
0.00848389
  0
LINE
  8
0
 10
-0.706177
 20
0.00848389
 11
-0.70842
 21
-0.340347
  0
LINE
  8
0
 10
-0.70842
 20
-0.340347
 11
-0.708435
 21
-5.78999
  0
LINE
  8
0
 10
-0.708435
 20
-5.78999
 11
-3.08633
 21
-5.78999
  0
LINE
  8
0
 10
26.1603
 20
1.09836
 11
26.171
 21
1.50037
  0
LINE
  8
0
 10
26.171
 20
1.50037
 11
26.2031
 21
1.87651
  0
LINE
  8
0
 10
26.2031
 20
1.87651
 11
26.2567
 21
2.22676
  0
LINE
  8
0
 10
26.2567
 20
2.22676
 11
26.3316
 21
2.55115
  0
LINE
  8
0
 10
26.3316
 20
2.55115
 11
26.4279
 21
2.84966
  0
LINE
  8
0
 10
26.4279
 20
2.84966
 11
26.5456
 21
3.1223
  0
LINE
  8
0
 10
26.5456
 20
3.1223
 11
26.6848
 21
3.36905
  0
LINE
  8
0
 10
26.6848
 20
3.36905
 11
26.8425
 21
3.58617
  0
LINE
  8
0
 10
26.8425
 20
3.58617
 11
27.0161
 21
3.7699
  0
LINE
  8
0
 10
27.0161
 20
3.7699
 11
27.2054
 21
3.92021
  0
LINE
  8
0
 10
27.2054
 20
3.92021
 11
27.4104
 21
4.03712
  0
LINE
  8
0
 10
27.4104
 20
4.03712
 11
27.6312
 21
4.12062
  0
LINE
  8
0
 10
27.6312
 20
4.12062
 11
27.8678
 21
4.17073
  0
LINE
  8
0
 10
27.8678
 20
4.17073
 11
28.1201
 21
4.18744
  0
LINE
  8
0
 10
28.1201
 20
4.18744
 11
28.3668
 21
4.17508
  0
LINE
  8
0
 10
28.3668
 20
4.17508
 11
28.593
 21
4.13803
  0
LINE
  8
0
 10
28.593
 20
4.13803
 11
28.7988
 21
4.07628
  0
LINE
  8
0
 10
28.7988
 20
4.07628
 11
28.984
 21
3.98982
  0
LINE
  8
0
 10
28.984
 20
3.98982
 11
29.1488
 21
3.87866
  0
LINE
  8
0
 10
29.1488
 20
3.87866
 11
29.2932
 21
3.7428
  0
LINE
  8
0
 10
29.2932
 20
3.7428
 11
29.417
 21
3.58223
  0
LINE
  8
0
 10
29.417
 20
3.58223
 11
29.5226
 21
3.39302
  0
LINE
  8
0
 10
29.5226
 20
3.39302
 11
29.6119
 21
3.1711
  0
LINE
  8
0
 10
29.6119
 20
3.1711
 11
29.6849
 21
2.91647
  0
LINE
  8
0
 10
29.6849
 20
2.91647
 11
29.7417
 21
2.62915
  0
LINE
  8
0
 10
29.7417
 20
2.62915
 11
29.7823
 21
2.30913
  0
LINE
  8
0
 10
29.7823
 20
2.30913
 11
29.8067
 21
1.95639
  0
LINE
  8
0
 10
29.8067
 20
1.95639
 11
29.8148
 21
1.57097
  0
LINE
  8
0
 10
29.8148
 20
1.57097
 11
29.8148
 21
-6.28999
  0
LINE
  8
0
 10
29.8148
 20
-6.28999
 11
32.8685
 21
-6.28999
  0
LINE
  8
0
 10
32.8685
 20
-6.28999
 11
32.9463
 21
-6.23351
  0
LINE
  8
0
 10
32.9463
 20
-6.23351
 11
33.1113
 21
-6.14275
  0
LINE
  8
0
 10
33.1113
 20
-6.14275
 11
33.1694
 21
-6.11975
  0
LINE
  8
0
 10
33.1694
 20
-6.11975
 11
33.1694
 21
-1.38023
  0
LINE
  8
0
 10
33.1694
 20
-1.38023
 11
33.1113
 21
-1.35724
  0
LINE
  8
0
 10
33.1113
 20
-1.35724
 11
32.9463
 21
-1.26648
  0
LINE
  8
0
 10
32.9463
 20
-1.26648
 11
32.7939
 21
-1.15576
  0
LINE
  8
0
 10
32.7939
 20
-1.15576
 11
32.6694
 21
-1.03889
  0
LINE
  8
0
 10
32.6694
 20
-1.03889
 11
32.6694
 21
-5.78999
  0
LINE
  8
0
 10
32.6694
 20
-5.78999
 11
30.3148
 21
-5.78999
  0
LINE
  8
0
 10
30.3148
 20
-5.78999
 11
30.3148
 21
1.57097
  0
LINE
  8
0
 10
30.3148
 20
1.57097
 11
30.3147
 21
1.5815
  0
LINE
  8
0
 10
30.3147
 20
1.5815
 11
30.3066
 21
1.96692
  0
LINE
  8
0
 10
30.3066
 20
1.96692
 11
30.3055
 21
1.99084
  0
LINE
  8
0
 10
30.3055
 20
1.99084
 11
30.2811
 21
2.34358
  0
LINE
  8
0
 10
30.2811
 20
2.34358
 11
30.2784
 21
2.37204
  0
LINE
  8
0
 10
30.2784
 20
2.37204
 11
30.2378
 21
2.69206
  0
LINE
  8
0
 10
30.2378
 20
2.69206
 11
30.2322
 21
2.72615
  0
LINE
  8
0
 10
30.2322
 20
2.72615
 11
30.1754
 21
3.01347
  0
LINE
  8
0
 10
30.1754
 20
3.01347
 11
30.1655
 21
3.05437
  0
LINE
  8
0
 10
30.1655
 20
3.05437
 11
30.0925
 21
3.30899
  0
LINE
  8
0
 10
30.0925
 20
3.30899
 11
30.0757
 21
3.35776
  0
LINE
  8
0
 10
30.0757
 20
3.35776
 11
29.9864
 21
3.57968
  0
LINE
  8
0
 10
29.9864
 20
3.57968
 11
29.9592
 21
3.6366
  0
LINE
  8
0
 10
29.9592
 20
3.6366
 11
29.8537
 21
3.82581
  0
LINE
  8
0
 10
29.8537
 20
3.82581
 11
29.8129
 21
3.88759
  0
LINE
  8
0
 10
29.8129
 20
3.88759
 11
29.6891
 21
4.04816
  0
LINE
  8
0
 10
29.6891
 20
4.04816
 11
29.6359
 21
4.10686
  0
LINE
  8
0
 10
29.6359
 20
4.10686
 11
29.4916
 21
4.24272
  0
LINE
  8
0
 10
29.4916
 20
4.24272
 11
29.4284
 21
4.29318
  0
LINE
  8
0
 10
29.4284
 20
4.29318
 11
29.2636
 21
4.40434
  0
LINE
  8
0
 10
29.2636
 20
4.40434
 11
29.1955
 21
4.44292
  0
LINE
  8
0
 10
29.1955
 20
4.44292
 11
29.0102
 21
4.52937
  0
LINE
  8
0
 10
29.0102
 20
4.52937
 11
28.9425
 21
4.55518
  0
LINE
  8
0
 10
28.9425
 20
4.55518
 11
28.7368
 21
4.61693
  0
LINE
  8
0
 10
28.7368
 20
4.61693
 11
28.6738
 21
4.63145
  0
LINE
  8
0
 10
28.6738
 20
4.63145
 11
28.4476
 21
4.6685
  0
LINE
  8
0
 10
28.4476
 20
4.6685
 11
28.3918
 21
4.67445
  0
LINE
  8
0
 10
28.3918
 20
4.67445
 11
28.1451
 21
4.68681
  0
LINE
  8
0
 10
28.1451
 20
4.68681
 11
28.0871
 21
4.68634
  0
LINE
  8
0
 10
28.0871
 20
4.68634
 11
27.8347
 21
4.66963
  0
LINE
  8
0
 10
27.8347
 20
4.66963
 11
27.7641
 21
4.65988
  0
LINE
  8
0
 10
27.7641
 20
4.65988
 11
27.5276
 21
4.60977
  0
LINE
  8
0
 10
27.5276
 20
4.60977
 11
27.4544
 21
4.5883
  0
LINE
  8
0
 10
27.4544
 20
4.5883
 11
27.2336
 21
4.50481
  0
LINE
  8
0
 10
27.2336
 20
4.50481
 11
27.1627
 21
4.47148
  0
LINE
  8
0
 10
27.1627
 20
4.47148
 11
26.9577
 21
4.35457
  0
LINE
  8
0
 10
26.9577
 20
4.35457
 11
26.8944
 21
4.31177
  0
LINE
  8
0
 10
26.8944
 20
4.31177
 11
26.7051
 21
4.16145
  0
LINE
  8
0
 10
26.7051
 20
4.16145
 11
26.6526
 21
4.1132
  0
LINE
  8
0
 10
26.6526
 20
4.1132
 11
26.479
 21
3.92947
  0
LINE
  8
0
 10
26.479
 20
3.92947
 11
26.4381
 21
3.8801
  0
LINE
  8
0
 10
26.4381
 20
3.8801
 11
26.2803
 21
3.66298
  0
LINE
  8
0
 10
26.2803
 20
3.66298
 11
26.2492
 21
3.61462
  0
LINE
  8
0
 10
26.2492
 20
3.61462
 11
26.1101
 21
3.36787
  0
LINE
  8
0
 10
26.1101
 20
3.36787
 11
26.0866
 21
3.32053
  0
LINE
  8
0
 10
26.0866
 20
3.32053
 11
25.9689
 21
3.04788
  0
LINE
  8
0
 10
25.9689
 20
3.04788
 11
25.9521
 21
3.0032
  0
LINE
  8
0
 10
25.9521
 20
3.0032
 11
25.8557
 21
2.7047
  0
LINE
  8
0
 10
25.8557
 20
2.7047
 11
25.8444
 21
2.66367
  0
LINE
  8
0
 10
25.8444
 20
2.66367
 11
25.7695
 21
2.33928
  0
LINE
  8
0
 10
25.7695
 20
2.33928
 11
25.7624
 21
2.30228
  0
LINE
  8
0
 10
25.7624
 20
2.30228
 11
25.7089
 21
1.95203
  0
LINE
  8
0
 10
25.7089
 20
1.95203
 11
25.705
 21
1.91905
  0
LINE
  8
0
 10
25.705
 20
1.91905
 11
25.6728
 21
1.54291
  0
LINE
  8
0
 10
25.6728
 20
1.54291
 11
25.6712
 21
1.51367
  0
LINE
  8
0
 10
25.6712
 20
1.51367
 11
25.6605
 21
1.11166
  0
LINE
  8
0
 10
25.6605
 20
1.11166
 11
25.6603
 21
1.09836
  0
LINE
  8
0
 10
25.6603
 20
1.09836
 11
25.6603
 21
-5.78999
  0
LINE
  8
0
 10
25.6603
 20
-5.78999
 11
23.3057
 21
-5.78999
  0
LINE
  8
0
 10
23.3057
 20
-5.78999
 11
23.3057
 21
6.12456
  0
LINE
  8
0
 10
23.3057
 20
6.12456
 11
25.6603
 21
6.12456
  0
LINE
  8
0
 10
25.6603
 20
6.12456
 11
25.6603
 21
4.68417
  0
LINE
  8
0
 10
25.6603
 20
4.68417
 11
25.6652
 21
4.61459
  0
LINE
  8
0
 10
25.6652
 20
4.61459
 11
25.6778
 21
4.55309
  0
LINE
  8
0
 10
25.6778
 20
4.55309
 11
25.698
 21
4.49364
  0
LINE
  8
0
 10
25.698
 20
4.49364
 11
25.7256
 21
4.43721
  0
LINE
  8
0
 10
25.7256
 20
4.43721
 11
25.7599
 21
4.38466
  0
LINE
  8
0
 10
25.7599
 20
4.38466
 11
25.8006
 21
4.33685
  0
LINE
  8
0
 10
25.8006
 20
4.33685
 11
25.847
 21
4.29451
  0
LINE
  8
0
 10
25.847
 20
4.29451
 11
25.8983
 21
4.25832
  0
LINE
  8
0
 10
25.8983
 20
4.25832
 11
25.9538
 21
4.22884
  0
LINE
  8
0
 10
25.9538
 20
4.22884
 11
26.0125
 21
4.20654
  0
LINE
  8
0
 10
26.0125
 20
4.20654
 11
26.0735
 21
4.19177
  0
LINE
  8
0
 10
26.0735
 20
4.19177
 11
26.1359
 21
4.18477
  0
LINE
  8
0
 10
26.1359
 20
4.18477
 11
26.1987
 21
4.18565
  0
LINE
  8
0
 10
26.1987
 20
4.18565
 11
26.2609
 21
4.19438
  0
LINE
  8
0
 10
26.2609
 20
4.19438
 11
26.3215
 21
4.21085
  0
LINE
  8
0
 10
26.3215
 20
4.21085
 11
26.3795
 21
4.23477
  0
LINE
  8
0
 10
26.3795
 20
4.23477
 11
26.4341
 21
4.26579
  0
LINE
  8
0
 10
26.4341
 20
4.26579
 11
26.4844
 21
4.30341
  0
LINE
  8
0
 10
26.4844
 20
4.30341
 11
26.5295
 21
4.34702
  0
LINE
  8
0
 10
26.5295
 20
4.34702
 11
26.5689
 21
4.39595
  0
LINE
  8
0
 10
26.5689
 20
4.39595
 11
26.6018
 21
4.44943
  0
LINE
  8
0
 10
26.6018
 20
4.44943
 11
26.6277
 21
4.50662
  0
LINE
  8
0
 10
26.6277
 20
4.50662
 11
26.7325
 21
4.78252
  0
LINE
  8
0
 10
26.7325
 20
4.78252
 11
26.8465
 21
5.01895
  0
LINE
  8
0
 10
26.8465
 20
5.01895
 11
26.9763
 21
5.23552
  0
LINE
  8
0
 10
26.9763
 20
5.23552
 11
27.1224
 21
5.43362
  0
LINE
  8
0
 10
27.1224
 20
5.43362
 11
27.285
 21
5.61444
  0
LINE
  8
0
 10
27.285
 20
5.61444
 11
27.4651
 21
5.77901
  0
LINE
  8
0
 10
27.4651
 20
5.77901
 11
27.6635
 21
5.92795
  0
LINE
  8
0
 10
27.6635
 20
5.92795
 11
27.8778
 21
6.05916
  0
LINE
  8
0
 10
27.8778
 20
6.05916
 11
28.1048
 21
6.17047
  0
LINE
  8
0
 10
28.1048
 20
6.17047
 11
28.3459
 21
6.26219
  0
LINE
  8
0
 10
28.3459
 20
6.26219
 11
28.6021
 21
6.33427
  0
LINE
  8
0
 10
28.6021
 20
6.33427
 11
28.8743
 21
6.38644
  0
LINE
  8
0
 10
28.8743
 20
6.38644
 11
29.1631
 21
6.41817
  0
LINE
  8
0
 10
29.1631
 20
6.41817
 11
29.4653
 21
6.42877
  0
LINE
  8
0
 10
29.4653
 20
6.42877
 11
29.9227
 21
6.40631
  0
LINE
  8
0
 10
29.9227
 20
6.40631
 11
30.3342
 21
6.34096
  0
LINE
  8
0
 10
30.3342
 20
6.34096
 11
30.7045
 21
6.2346
  0
LINE
  8
0
 10
30.7045
 20
6.2346
 11
31.0361
 21
6.08891
  0
LINE
  8
0
 10
31.0361
 20
6.08891
 11
31.3332
 21
5.90387
  0
LINE
  8
0
 10
31.3332
 20
5.90387
 11
31.5996
 21
5.67795
  0
LINE
  8
0
 10
31.5996
 20
5.67795
 11
31.8385
 21
5.40785
  0
LINE
  8
0
 10
31.8385
 20
5.40785
 11
32.05
 21
5.09053
  0
LINE
  8
0
 10
32.05
 20
5.09053
 11
32.233
 21
4.72356
  0
LINE
  8
0
 10
32.233
 20
4.72356
 11
32.3865
 21
4.3038
  0
LINE
  8
0
 10
32.3865
 20
4.3038
 11
32.5084
 21
3.83083
  0
LINE
  8
0
 10
32.5084
 20
3.83083
 11
32.5971
 21
3.30357
  0
LINE
  8
0
 10
32.5971
 20
3.30357
 11
32.651
 21
2.72301
  0
LINE
  8
0
 10
32.651
 20
2.72301
 11
32.6694
 21
2.08272
  0
LINE
  8
0
 10
32.6694
 20
2.08272
 11
32.6694
 21
1.03889
  0
LINE
  8
0
 10
32.6694
 20
1.03889
 11
32.7939
 21
1.15576
  0
LINE
  8
0
 10
32.7939
 20
1.15576
 11
32.9463
 21
1.26648
  0
LINE
  8
0
 10
32.9463
 20
1.26648
 11
33.1113
 21
1.35724
  0
LINE
  8
0
 10
33.1113
 20
1.35724
 11
33.1694
 21
1.38023
  0
LINE
  8
0
 10
33.1694
 20
1.38023
 11
33.1694
 21
2.08963
  0
LINE
  8
0
 10
33.1694
 20
2.08963
 11
33.1504
 21
2.75336
  0
LINE
  8
0
 10
33.1504
 20
2.75336
 11
33.0932
 21
3.36841
  0
LINE
  8
0
 10
33.0932
 20
3.36841
 11
32.9979
 21
3.93478
  0
LINE
  8
0
 10
32.9979
 20
3.93478
 11
32.8645
 21
4.45248
  0
LINE
  8
0
 10
32.8645
 20
4.45248
 11
32.693
 21
4.92151
  0
LINE
  8
0
 10
32.693
 20
4.92151
 11
32.4834
 21
5.34186
  0
LINE
  8
0
 10
32.4834
 20
5.34186
 11
32.2356
 21
5.71352
  0
LINE
  8
0
 10
32.2356
 20
5.71352
 11
31.9505
 21
6.03604
  0
LINE
  8
0
 10
31.9505
 20
6.03604
 11
31.6286
 21
6.30896
  0
LINE
  8
0
 10
31.6286
 20
6.30896
 11
31.2701
 21
6.53224
  0
LINE
  8
0
 10
31.2701
 20
6.53224
 11
30.8748
 21
6.7059
  0
LINE
  8
0
 10
30.8748
 20
6.7059
 11
30.4429
 21
6.82996
  0
LINE
  8
0
 10
30.4429
 20
6.82996
 11
29.9742
 21
6.90439
  0
LINE
  8
0
 10
29.9742
 20
6.90439
 11
29.4689
 21
6.9292
  0
LINE
  8
0
 10
29.4689
 20
6.9292
 11
29.127
 21
6.91721
  0
LINE
  8
0
 10
29.127
 20
6.91721
 11
28.7998
 21
6.88126
  0
LINE
  8
0
 10
28.7998
 20
6.88126
 11
28.4871
 21
6.82135
  0
LINE
  8
0
 10
28.4871
 20
6.82135
 11
28.189
 21
6.73746
  0
LINE
  8
0
 10
28.189
 20
6.73746
 11
27.9055
 21
6.62961
  0
LINE
  8
0
 10
27.9055
 20
6.62961
 11
27.6366
 21
6.49779
  0
LINE
  8
0
 10
27.6366
 20
6.49779
 11
27.3823
 21
6.34201
  0
LINE
  8
0
 10
27.3823
 20
6.34201
 11
27.1456
 21
6.16438
  0
LINE
  8
0
 10
27.1456
 20
6.16438
 11
26.9296
 21
5.96701
  0
LINE
  8
0
 10
26.9296
 20
5.96701
 11
26.7344
 21
5.74991
  0
LINE
  8
0
 10
26.7344
 20
5.74991
 11
26.5598
 21
5.51308
  0
LINE
  8
0
 10
26.5598
 20
5.51308
 11
26.4059
 21
5.25652
  0
LINE
  8
0
 10
26.4059
 20
5.25652
 11
26.2728
 21
4.98021
  0
LINE
  8
0
 10
26.2728
 20
4.98021
 11
26.1603
 21
4.68417
  0
LINE
  8
0
 10
26.1603
 20
4.68417
 11
26.1603
 21
6.62456
  0
LINE
  8
0
 10
26.1603
 20
6.62456
 11
22.8057
 21
6.62456
  0
LINE
  8
0
 10
22.8057
 20
6.62456
 11
22.8057
 21
-6.28999
  0
LINE
  8
0
 10
22.8057
 20
-6.28999
 11
26.1603
 21
-6.28999
  0
LINE
  8
0
 10
26.1603
 20
-6.28999
 11
26.1603
 21
1.09836
  0
LINE
  8
0
 10
-28.0713
 20
-4.78729
 11
-27.7014
 21
-4.76671
  0
LINE
  8
0
 10
-27.7014
 20
-4.76671
 11
-27.6412
 21
-4.75967
  0
LINE
  8
0
 10
-27.6412
 20
-4.75967
 11
-27.2958
 21
-4.69791
  0
LINE
  8
0
 10
-27.2958
 20
-4.69791
 11
-27.2311
 21
-4.68182
  0
LINE
  8
0
 10
-27.2311
 20
-4.68182
 11
-26.9102
 21
-4.57889
  0
LINE
  8
0
 10
-26.9102
 20
-4.57889
 11
-26.8443
 21
-4.55246
  0
LINE
  8
0
 10
-26.8443
 20
-4.55246
 11
-26.5479
 21
-4.40836
  0
LINE
  8
0
 10
-26.5479
 20
-4.40836
 11
-26.485
 21
-4.37189
  0
LINE
  8
0
 10
-26.485
 20
-4.37189
 11
-26.213
 21
-4.1866
  0
LINE
  8
0
 10
-26.213
 20
-4.1866
 11
-26.157
 21
-4.14227
  0
LINE
  8
0
 10
-26.157
 20
-4.14227
 11
-25.9095
 21
-3.9158
  0
LINE
  8
0
 10
-25.9095
 20
-3.9158
 11
-25.863
 21
-3.86703
  0
LINE
  8
0
 10
-25.863
 20
-3.86703
 11
-25.6399
 21
-3.59941
  0
LINE
  8
0
 10
-25.6399
 20
-3.59941
 11
-25.6034
 21
-3.54962
  0
LINE
  8
0
 10
-25.6034
 20
-3.54962
 11
-25.4077
 21
-3.24504
  0
LINE
  8
0
 10
-25.4077
 20
-3.24504
 11
-25.3795
 21
-3.19511
  0
LINE
  8
0
 10
-25.3795
 20
-3.19511
 11
-25.2138
 21
-2.85782
  0
LINE
  8
0
 10
-25.2138
 20
-2.85782
 11
-25.1931
 21
-2.80937
  0
LINE
  8
0
 10
-25.1931
 20
-2.80937
 11
-25.0576
 21
-2.43938
  0
LINE
  8
0
 10
-25.0576
 20
-2.43938
 11
-25.0434
 21
-2.39403
  0
LINE
  8
0
 10
-25.0434
 20
-2.39403
 11
-24.938
 21
-1.99133
  0
LINE
  8
0
 10
-24.938
 20
-1.99133
 11
-24.929
 21
-1.94992
  0
LINE
  8
0
 10
-24.929
 20
-1.94992
 11
-24.8538
 21
-1.5145
  0
LINE
  8
0
 10
-24.8538
 20
-1.5145
 11
-24.8488
 21
-1.47734
  0
LINE
  8
0
 10
-24.8488
 20
-1.47734
 11
-24.8036
 21
-1.00922
  0
LINE
  8
0
 10
-24.8036
 20
-1.00922
 11
-24.8015
 21
-0.976196
  0
LINE
  8
0
 10
-24.8015
 20
-0.976196
 11
-24.7865
 21
-0.475372
  0
LINE
  8
0
 10
-24.7865
 20
-0.475372
 11
-24.7862
 21
-0.460358
  0
LINE
  8
0
 10
-24.7862
 20
-0.460358
 11
-24.7862
 21
-0.229828
  0
LINE
  8
0
 10
-24.7862
 20
-0.229828
 11
-24.7951
 21
-0.136139
  0
LINE
  8
0
 10
-24.7951
 20
-0.136139
 11
-24.8107
 21
-0.0753174
  0
LINE
  8
0
 10
-24.8107
 20
-0.0753174
 11
-24.8338
 21
-0.0169373
  0
LINE
  8
0
 10
-24.8338
 20
-0.0169373
 11
-24.8641
 21
0.0380859
  0
LINE
  8
0
 10
-24.8641
 20
0.0380859
 11
-24.901
 21
0.0888824
  0
LINE
  8
0
 10
-24.901
 20
0.0888824
 11
-24.944
 21
0.134659
  0
LINE
  8
0
 10
-24.944
 20
0.134659
 11
-24.9923
 21
0.174683
  0
LINE
  8
0
 10
-24.9923
 20
0.174683
 11
-25.0453
 21
0.208328
  0
LINE
  8
0
 10
-25.0453
 20
0.208328
 11
-25.1022
 21
0.235062
  0
LINE
  8
0
 10
-25.1022
 20
0.235062
 11
-25.1619
 21
0.254471
  0
LINE
  8
0
 10
-25.1619
 20
0.254471
 11
-25.2236
 21
0.266235
  0
LINE
  8
0
 10
-25.2236
 20
0.266235
 11
-25.2862
 21
0.270172
  0
LINE
  8
0
 10
-25.2862
 20
0.270172
 11
-26.635
 21
0.270172
  0
LINE
  8
0
 10
-26.635
 20
0.270172
 11
-26.6446
 21
0.270081
  0
LINE
  8
0
 10
-26.6446
 20
0.270081
 11
-27.1614
 21
0.260193
  0
LINE
  8
0
 10
-27.1614
 20
0.260193
 11
-27.1833
 21
0.259293
  0
LINE
  8
0
 10
-27.1833
 20
0.259293
 11
-27.6536
 21
0.229645
  0
LINE
  8
0
 10
-27.6536
 20
0.229645
 11
-27.6801
 21
0.227264
  0
LINE
  8
0
 10
-27.6801
 20
0.227264
 11
-28.1038
 21
0.177841
  0
LINE
  8
0
 10
-28.1038
 20
0.177841
 11
-28.1361
 21
0.173004
  0
LINE
  8
0
 10
-28.1361
 20
0.173004
 11
-28.5132
 21
0.103806
  0
LINE
  8
0
 10
-28.5132
 20
0.103806
 11
-28.5529
 21
0.0948334
  0
LINE
  8
0
 10
-28.5529
 20
0.0948334
 11
-28.8835
 21
0.00587463
  0
LINE
  8
0
 10
-28.8835
 20
0.00587463
 11
-28.9323
 21
-0.00999451
  0
LINE
  8
0
 10
-28.9323
 20
-0.00999451
 11
-29.2163
 21
-0.118713
  0
LINE
  8
0
 10
-29.2163
 20
-0.118713
 11
-29.2755
 21
-0.14595
  0
LINE
  8
0
 10
-29.2755
 20
-0.14595
 11
-29.5129
 21
-0.274445
  0
LINE
  8
0
 10
-29.5129
 20
-0.274445
 11
-29.5792
 21
-0.317383
  0
LINE
  8
0
 10
-29.5792
 20
-0.317383
 11
-29.778
 21
-0.469833
  0
LINE
  8
0
 10
-29.778
 20
-0.469833
 11
-29.8397
 21
-0.525894
  0
LINE
  8
0
 10
-29.8397
 20
-0.525894
 11
-30.0079
 21
-0.706573
  0
LINE
  8
0
 10
-30.0079
 20
-0.706573
 11
-30.0595
 21
-0.772217
  0
LINE
  8
0
 10
-30.0595
 20
-0.772217
 11
-30.1971
 21
-0.98114
  0
LINE
  8
0
 10
-30.1971
 20
-0.98114
 11
-30.2353
 21
-1.05049
  0
LINE
  8
0
 10
-30.2353
 20
-1.05049
 11
-30.3424
 21
-1.28764
  0
LINE
  8
0
 10
-30.3424
 20
-1.28764
 11
-30.3671
 21
-1.35493
  0
LINE
  8
0
 10
-30.3671
 20
-1.35493
 11
-30.4436
 21
-1.62032
  0
LINE
  8
0
 10
-30.4436
 20
-1.62032
 11
-30.4571
 21
-1.68155
  0
LINE
  8
0
 10
-30.4571
 20
-1.68155
 11
-30.503
 21
-1.97517
  0
LINE
  8
0
 10
-30.503
 20
-1.97517
 11
-30.5084
 21
-2.02864
  0
LINE
  8
0
 10
-30.5084
 20
-2.02864
 11
-30.5237
 21
-2.35048
  0
LINE
  8
0
 10
-30.5237
 20
-2.35048
 11
-30.5238
 21
-2.39597
  0
LINE
  8
0
 10
-30.5238
 20
-2.39597
 11
-30.5132
 21
-2.63902
  0
LINE
  8
0
 10
-30.5132
 20
-2.63902
 11
-30.5089
 21
-2.6861
  0
LINE
  8
0
 10
-30.5089
 20
-2.6861
 11
-30.4772
 21
-2.91455
  0
LINE
  8
0
 10
-30.4772
 20
-2.91455
 11
-30.4673
 21
-2.96585
  0
LINE
  8
0
 10
-30.4673
 20
-2.96585
 11
-30.4144
 21
-3.17972
  0
LINE
  8
0
 10
-30.4144
 20
-3.17972
 11
-30.3977
 21
-3.2338
  0
LINE
  8
0
 10
-30.3977
 20
-3.2338
 11
-30.3236
 21
-3.43309
  0
LINE
  8
0
 10
-30.3236
 20
-3.43309
 11
-30.2993
 21
-3.4881
  0
LINE
  8
0
 10
-30.2993
 20
-3.4881
 11
-30.204
 21
-3.67281
  0
LINE
  8
0
 10
-30.204
 20
-3.67281
 11
-30.1723
 21
-3.72601
  0
LINE
  8
0
 10
-30.1723
 20
-3.72601
 11
-30.0558
 21
-3.89612
  0
LINE
  8
0
 10
-30.0558
 20
-3.89612
 11
-30.0177
 21
-3.94501
  0
LINE
  8
0
 10
-30.0177
 20
-3.94501
 11
-29.8801
 21
-4.10054
  0
LINE
  8
0
 10
-29.8801
 20
-4.10054
 11
-29.8367
 21
-4.14388
  0
LINE
  8
0
 10
-29.8367
 20
-4.14388
 11
-29.681
 21
-4.28154
  0
LINE
  8
0
 10
-29.681
 20
-4.28154
 11
-29.6315
 21
-4.32001
  0
LINE
  8
0
 10
-29.6315
 20
-4.32001
 11
-29.4607
 21
-4.43648
  0
LINE
  8
0
 10
-29.4607
 20
-4.43648
 11
-29.4071
 21
-4.46831
  0
LINE
  8
0
 10
-29.4071
 20
-4.46831
 11
-29.2212
 21
-4.5636
  0
LINE
  8
0
 10
-29.2212
 20
-4.5636
 11
-29.1662
 21
-4.58775
  0
LINE
  8
0
 10
-29.1662
 20
-4.58775
 11
-28.9653
 21
-4.66188
  0
LINE
  8
0
 10
-28.9653
 20
-4.66188
 11
-28.9112
 21
-4.67841
  0
LINE
  8
0
 10
-28.9112
 20
-4.67841
 11
-28.6952
 21
-4.73134
  0
LINE
  8
0
 10
-28.6952
 20
-4.73134
 11
-28.6443
 21
-4.74106
  0
LINE
  8
0
 10
-28.6443
 20
-4.74106
 11
-28.4133
 21
-4.77283
  0
LINE
  8
0
 10
-28.4133
 20
-4.77283
 11
-28.3667
 21
-4.77702
  0
LINE
  8
0
 10
-28.3667
 20
-4.77702
 11
-28.1205
 21
-4.78761
  0
LINE
  8
0
 10
-28.1205
 20
-4.78761
 11
-28.0713
 21
-4.78729
  0
LINE
  8
0
 10
-28.3452
 20
-4.27748
 11
-28.5762
 21
-4.24571
  0
LINE
  8
0
 10
-28.5762
 20
-4.24571
 11
-28.7922
 21
-4.19278
  0
LINE
  8
0
 10
-28.7922
 20
-4.19278
 11
-28.9931
 21
-4.11865
  0
LINE
  8
0
 10
-28.9931
 20
-4.11865
 11
-29.179
 21
-4.02336
  0
LINE
  8
0
 10
-29.179
 20
-4.02336
 11
-29.3499
 21
-3.90689
  0
LINE
  8
0
 10
-29.3499
 20
-3.90689
 11
-29.5056
 21
-3.76923
  0
LINE
  8
0
 10
-29.5056
 20
-3.76923
 11
-29.6432
 21
-3.61369
  0
LINE
  8
0
 10
-29.6432
 20
-3.61369
 11
-29.7597
 21
-3.44359
  0
LINE
  8
0
 10
-29.7597
 20
-3.44359
 11
-29.8549
 21
-3.25888
  0
LINE
  8
0
 10
-29.8549
 20
-3.25888
 11
-29.929
 21
-3.05959
  0
LINE
  8
0
 10
-29.929
 20
-3.05959
 11
-29.9819
 21
-2.84572
  0
LINE
  8
0
 10
-29.9819
 20
-2.84572
 11
-30.0137
 21
-2.61726
  0
LINE
  8
0
 10
-30.0137
 20
-2.61726
 11
-30.0243
 21
-2.37421
  0
LINE
  8
0
 10
-30.0243
 20
-2.37421
 11
-30.009
 21
-2.05237
  0
LINE
  8
0
 10
-30.009
 20
-2.05237
 11
-29.9631
 21
-1.75874
  0
LINE
  8
0
 10
-29.9631
 20
-1.75874
 11
-29.8867
 21
-1.49336
  0
LINE
  8
0
 10
-29.8867
 20
-1.49336
 11
-29.7796
 21
-1.25621
  0
LINE
  8
0
 10
-29.7796
 20
-1.25621
 11
-29.642
 21
-1.04729
  0
LINE
  8
0
 10
-29.642
 20
-1.04729
 11
-29.4737
 21
-0.866608
  0
LINE
  8
0
 10
-29.4737
 20
-0.866608
 11
-29.2749
 21
-0.714157
  0
LINE
  8
0
 10
-29.2749
 20
-0.714157
 11
-29.0375
 21
-0.585663
  0
LINE
  8
0
 10
-29.0375
 20
-0.585663
 11
-28.7536
 21
-0.476944
  0
LINE
  8
0
 10
-28.7536
 20
-0.476944
 11
-28.423
 21
-0.387985
  0
LINE
  8
0
 10
-28.423
 20
-0.387985
 11
-28.0459
 21
-0.318787
  0
LINE
  8
0
 10
-28.0459
 20
-0.318787
 11
-27.6222
 21
-0.269363
  0
LINE
  8
0
 10
-27.6222
 20
-0.269363
 11
-27.1519
 21
-0.239716
  0
LINE
  8
0
 10
-27.1519
 20
-0.239716
 11
-26.635
 21
-0.229828
  0
LINE
  8
0
 10
-26.635
 20
-0.229828
 11
-25.2862
 21
-0.229828
  0
LINE
  8
0
 10
-25.2862
 20
-0.229828
 11
-25.2862
 21
-0.460358
  0
LINE
  8
0
 10
-25.2862
 20
-0.460358
 11
-25.3013
 21
-0.961182
  0
LINE
  8
0
 10
-25.3013
 20
-0.961182
 11
-25.3465
 21
-1.42931
  0
LINE
  8
0
 10
-25.3465
 20
-1.42931
 11
-25.4217
 21
-1.86473
  0
LINE
  8
0
 10
-25.4217
 20
-1.86473
 11
-25.5271
 21
-2.26743
  0
LINE
  8
0
 10
-25.5271
 20
-2.26743
 11
-25.6626
 21
-2.63742
  0
LINE
  8
0
 10
-25.6626
 20
-2.63742
 11
-25.8283
 21
-2.97472
  0
LINE
  8
0
 10
-25.8283
 20
-2.97472
 11
-26.024
 21
-3.2793
  0
LINE
  8
0
 10
-26.024
 20
-3.2793
 11
-26.2471
 21
-3.54692
  0
LINE
  8
0
 10
-26.2471
 20
-3.54692
 11
-26.4946
 21
-3.77339
  0
LINE
  8
0
 10
-26.4946
 20
-3.77339
 11
-26.7665
 21
-3.95868
  0
LINE
  8
0
 10
-26.7665
 20
-3.95868
 11
-27.0629
 21
-4.10278
  0
LINE
  8
0
 10
-27.0629
 20
-4.10278
 11
-27.3839
 21
-4.20572
  0
LINE
  8
0
 10
-27.3839
 20
-4.20572
 11
-27.7292
 21
-4.26749
  0
LINE
  8
0
 10
-27.7292
 20
-4.26749
 11
-28.099
 21
-4.28807
  0
LINE
  8
0
 10
-28.099
 20
-4.28807
 11
-28.3452
 21
-4.27748
  0
ENDSEC
  0
SECTION
  2
OBJECTS
  0
DICTIONARY
  0
ENDSEC
  0
EOF
