<?xml version="1.0" standalone="no"?>
<!DOCTYPE svg PUBLIC "-//W3C//DTD SVG 1.1//EN" "http://www.w3.org/Graphics/SVG/1.1/DTD/svg11.dtd">
<svg width="53mm" height="14mm" viewBox="-27 -7 53 14" xmlns="http://www.w3.org/2000/svg" version="1.1">
<title>OpenSCAD Model</title>
<path d="
M 11.3702,6.64139 L 11.9562,6.53555 L 12.4964,6.35916 L 12.9907,6.11221 L 13.4391,5.79472 L 13.8417,5.40666
 L 14.1983,4.94806 L 14.5082,4.42068 L 14.7704,3.82635 L 14.985,3.16507 L 15.1519,2.43683 L 15.271,1.64163
 L 15.3426,0.77948 L 15.3664,-0.149628 L 15.3426,-1.08109 L 15.271,-1.94522 L 15.1519,-2.74205 L 14.985,-3.47156
 L 14.7704,-4.13374 L 14.5082,-4.72861 L 14.1983,-5.25615 L 13.8417,-5.71477 L 13.4391,-6.10281 L 12.9907,-6.42032
 L 12.4964,-6.66727 L 11.9562,-6.84366 L 11.3702,-6.94948 L 10.7383,-6.98476 L 10.1086,-6.94948 L 9.52455,-6.84366
 L 8.98598,-6.66727 L 8.49292,-6.42032 L 8.04539,-6.10281 L 7.64339,-5.71477 L 7.2869,-5.25615 L 6.97701,-4.72861
 L 6.71478,-4.13374 L 6.50024,-3.47156 L 6.33339,-2.74205 L 6.2142,-1.94522 L 6.14268,-1.08109 L 6.11885,-0.149628
 L 6.14268,0.77948 L 6.2142,1.64163 L 6.33339,2.43683 L 6.50024,3.16507 L 6.71478,3.82635 L 6.97701,4.42068
 L 7.2869,4.94806 L 7.64339,5.40666 L 8.04539,5.79472 L 8.49292,6.11221 L 8.98598,6.35916 L 9.52455,6.53555
 L 10.1086,6.64139 L 10.7383,6.67667 z
M 10.1674,6.14389 L 9.64748,6.04968 L 9.17683,5.89554 L 8.75104,5.68228 L 8.36549,5.40875 L 8.0163,5.07167
 L 7.70157,4.66681 L 7.42276,4.19232 L 7.18253,3.64784 L 6.98264,3.03172 L 6.82504,2.34387 L 6.71114,1.58389
 L 6.64215,0.752274 L 6.619,-0.149658 L 6.64215,-1.05406 L 6.71114,-1.8876 L 6.82504,-2.64911 L 6.9827,-3.33842
 L 7.18262,-3.95546 L 7.42281,-4.50034 L 7.7016,-4.97496 L 8.01628,-5.37979 L 8.36545,-5.71683 L 8.75102,-5.99037
 L 9.17683,-6.20364 L 9.64749,-6.35779 L 10.1674,-6.45198 L 10.7384,-6.48398 L 11.3115,-6.45198 L 11.8337,-6.35768
 L 12.306,-6.20345 L 12.733,-5.99014 L 13.1193,-5.71661 L 13.4689,-5.37961 L 13.7837,-4.97487 L 14.0624,-4.50035
 L 14.3026,-3.95547 L 14.5025,-3.33846 L 14.6602,-2.64906 L 14.7741,-1.8876 L 14.8431,-1.05406 L 14.8662,-0.149658
 L 14.8431,0.752274 L 14.7741,1.58389 L 14.6602,2.34383 L 14.5026,3.03175 L 14.3027,3.64784 L 14.0625,4.19232
 L 13.7837,4.66678 L 13.4689,5.0715 L 13.1194,5.40846 L 12.733,5.68207 L 12.306,5.89534 L 11.8336,6.04962
 L 11.3117,6.14388 L 10.7384,6.17589 z
M 11.0534,4.81552 L 11.1384,4.80139 L 11.3921,4.73634 L 11.4801,4.70476 L 11.7114,4.59633 L 11.74,4.58182
 L 11.793,4.54819 L 12.002,4.39641 L 12.0695,4.33749 L 12.2563,4.14235 L 12.3067,4.08044 L 12.4711,3.84192
 L 12.5059,3.78322 L 12.648,3.50133 L 12.6707,3.44913 L 12.7924,3.11899 L 12.8061,3.07579 L 12.909,2.69255
 L 12.9171,2.65764 L 13.0013,2.22131 L 13.0059,2.19286 L 13.0714,1.70345 L 13.074,1.68008 L 13.1208,1.13757
 L 13.1221,1.11816 L 13.1501,0.522583 L 13.1507,0.506241 L 13.16,-0.142426 L 13.16,-0.156815 L 13.1507,-0.807831
 L 13.1501,-0.824112 L 13.1221,-1.42168 L 13.1208,-1.44104 L 13.074,-1.98515 L 13.0714,-2.00847 L 13.006,-2.49911
 L 13.0013,-2.52756 L 12.9171,-2.96477 L 12.909,-2.99969 L 12.8061,-3.38344 L 12.7924,-3.42673 L 12.6707,-3.75703
 L 12.648,-3.8093 L 12.5059,-4.0912 L 12.4711,-4.14989 L 12.3067,-4.38844 L 12.2563,-4.45035 L 12.0695,-4.64552
 L 12.002,-4.70445 L 11.793,-4.85625 L 11.7665,-4.87422 L 11.7114,-4.90439 L 11.4801,-5.01283 L 11.3921,-5.04443
 L 11.1384,-5.10948 L 11.0534,-5.12361 L 10.7774,-5.14529 L 10.6988,-5.14528 L 10.4251,-5.1236 L 10.3395,-5.10925
 L 10.0878,-5.0442 L 9.9995,-5.01227 L 9.76973,-4.90382 L 9.74115,-4.88919 L 9.68822,-4.85542 L 9.48041,-4.70363
 L 9.41325,-4.64468 L 9.22739,-4.44951 L 9.17737,-4.38786 L 9.01344,-4.14931 L 8.97897,-4.09103 L 8.83701,-3.80913
 L 8.81436,-3.75699 L 8.69275,-3.42668 L 8.67902,-3.38342 L 8.57611,-2.99968 L 8.56807,-2.96474 L 8.48387,-2.52753
 L 8.47925,-2.4991 L 8.41377,-2.00845 L 8.41121,-1.98514 L 8.36444,-1.44102 L 8.36316,-1.42168 L 8.33508,-0.824112
 L 8.33458,-0.807831 L 8.32523,-0.156815 L 8.32523,-0.142426 L 8.33458,0.506241 L 8.33508,0.522583 L 8.36316,1.11816
 L 8.36446,1.13756 L 8.41122,1.68007 L 8.41379,1.70343 L 8.47926,2.19284 L 8.48392,2.22128 L 8.56812,2.65761
 L 8.57616,2.69254 L 8.67906,3.07578 L 8.69278,3.11894 L 8.81439,3.44908 L 8.83701,3.50114 L 8.97897,3.78304
 L 9.01347,3.84132 L 9.1774,4.07985 L 9.2274,4.14151 L 9.41327,4.33665 L 9.48042,4.39558 L 9.68823,4.54736
 L 9.71477,4.56546 L 9.76974,4.59576 L 9.99951,4.70419 L 10.0878,4.73611 L 10.3395,4.80116 L 10.4251,4.81551
 L 10.6988,4.83719 L 10.7774,4.8372 z
M 10.4646,4.31706 L 10.2129,4.25201 L 9.98314,4.14359 L 9.77533,3.99181 L 9.58946,3.79666 L 9.42554,3.55814
 L 9.28357,3.27625 L 9.16196,2.94611 L 9.05905,2.56287 L 8.97485,2.12654 L 8.90938,1.63713 L 8.86261,1.09462
 L 8.83453,0.499039 L 8.82518,-0.149628 L 8.83453,-0.800644 L 8.86261,-1.39821 L 8.90938,-1.94232 L 8.97485,-2.43297
 L 9.05905,-2.87018 L 9.16196,-3.25392 L 9.28357,-3.58423 L 9.42554,-3.86613 L 9.58946,-4.10469 L 9.77533,-4.29987
 L 9.98314,-4.45166 L 10.2129,-4.5601 L 10.4646,-4.62515 L 10.7383,-4.64684 L 11.0142,-4.62515 L 11.2679,-4.5601
 L 11.4992,-4.45166 L 11.7083,-4.29987 L 11.895,-4.10469 L 12.0594,-3.86613 L 12.2015,-3.58423 L 12.3232,-3.25392
 L 12.4261,-2.87018 L 12.5103,-2.43297 L 12.5758,-1.94232 L 12.6226,-1.39821 L 12.6507,-0.800644 L 12.66,-0.149628
 L 12.6507,0.499039 L 12.6226,1.09462 L 12.5758,1.63713 L 12.5103,2.12654 L 12.4261,2.56287 L 12.3232,2.94611
 L 12.2015,3.27625 L 12.0594,3.55814 L 11.895,3.79666 L 11.7083,3.99181 L 11.4992,4.14359 L 11.2679,4.25201
 L 11.0142,4.31706 L 10.7383,4.33875 z
M -1.53465,1.21873 L -0.706039,1.21873 L -0.441559,1.24915 L -0.187164,1.34033 L 0.0571289,1.49232 L 0.291367,1.70512
 L 0.515533,1.97871 L 0.72963,2.3131 L 0.93364,2.70828 L 0.9655,2.77663 L 0.995544,2.84065 L 1.0238,2.90036
 L 1.05025,2.95576 L 1.07489,3.00685 L 1.09773,3.05362 L 1.11876,3.09607 L 2.70567,6.41875 L 5.5619,6.41875
 L 3.18159,1.68584 L 3.06583,1.46004 L 2.95528,1.25639 L 2.84995,1.07487 L 2.74983,0.915497 L 2.65492,0.778244
 L 2.56525,0.663147 L 2.48077,0.570175 L 2.39687,0.492508 L 2.30882,0.423294 L 2.21664,0.362534 L 2.12032,0.310242
 L 2.01984,0.266403 L 1.91522,0.231018 L 1.80646,0.204086 L 2.1497,0.145615 L 2.46921,0.0608521 L 2.76497,-0.0501404
 L 3.03699,-0.187424 L 3.28526,-0.350967 L 3.50978,-0.540771 L 3.71057,-0.756851 L 3.88599,-0.997437 L 4.03441,-1.2607
 L 4.15585,-1.54662 L 4.25031,-1.85522 L 4.31778,-2.18649 L 4.35826,-2.54044 L 4.37175,-2.91707 L 4.34917,-3.47339
 L 4.28143,-3.98366 L 4.16853,-4.44786 L 4.01047,-4.86603 L 3.80725,-5.23811 L 3.55887,-5.56416 L 3.26532,-5.84415
 L 2.92,-6.08275 L 2.5162,-6.28464 L 2.05392,-6.44981 L 1.53319,-6.57829 L 0.953979,-6.67007 L 0.316284,-6.72513
 L -0.379868,-6.74348 L -4.1353,-6.74348 L -4.1353,6.41875 L -1.53465,6.41875 z
M -3.6353,5.91875 L -3.6353,-6.24348 L -0.386688,-6.24348 L 0.288162,-6.22569 L 0.893417,-6.17343 L 1.43396,-6.08778
 L 1.90958,-5.97044 L 2.31952,-5.82396 L 2.66483,-5.65132 L 2.94872,-5.45515 L 3.18513,-5.22968 L 3.38658,-4.96523
 L 3.55504,-4.65678 L 3.68994,-4.2999 L 3.78929,-3.89139 L 3.85051,-3.43027 L 3.87138,-2.91588 L 3.85928,-2.57791
 L 3.82349,-2.26494 L 3.76514,-1.97849 L 3.68542,-1.71803 L 3.58513,-1.4819 L 3.46475,-1.26837 L 3.32411,-1.07549
 L 3.16397,-0.903152 L 2.98534,-0.752136 L 2.78598,-0.620819 L 2.56386,-0.508713 L 2.31683,-0.416016 L 2.0435,-0.343506
 L 1.72249,-0.288818 L 1.67795,-0.279114 L 1.61841,-0.259201 L 1.56183,-0.231979 L 1.50909,-0.197876 L 1.46106,-0.15744
 L 1.41847,-0.111298 L 1.382,-0.0601959 L 1.35223,-0.00491333 L 1.32962,0.0536652 L 1.31453,0.114624 L 1.30719,0.176987
 L 1.30774,0.239777 L 1.31613,0.302002 L 1.33228,0.362671 L 1.3559,0.420853 L 1.38661,0.475616 L 1.42395,0.526093
 L 1.46733,0.571503 L 1.51605,0.611099 L 1.56935,0.644287 L 1.6264,0.670532 L 1.68628,0.689423 L 1.77481,0.711349
 L 1.83932,0.73317 L 1.90077,0.759979 L 1.95926,0.791733 L 2.01624,0.829285 L 2.07193,0.873062 L 2.12538,0.922546
 L 2.18236,0.98526 L 2.25177,1.07433 L 2.33228,1.19077 L 2.42194,1.3335 L 2.51935,1.50136 L 2.62343,1.6931
 L 2.73599,1.91266 L 4.75076,5.91875 L 3.02098,5.91875 L 1.56995,2.88058 L 1.5668,2.87415 L 1.54701,2.83418
 L 1.52524,2.78961 L 1.5006,2.73853 L 1.47574,2.68646 L 1.44748,2.62675 L 1.41814,2.56422 L 1.38681,2.49702
 L 1.37793,2.47893 L 1.17392,2.08374 L 1.15071,2.04349 L 0.936615,1.70911 L 0.902283,1.66182 L 0.678116,1.38823
 L 0.627579,1.33504 L 0.393341,1.12224 L 0.321259,1.06779 L 0.0769653,0.915802 L 0.0392151,0.894516 L -0.0184479,0.869659
 L -0.272842,0.778473 L -0.322632,0.763489 L -0.384445,0.752411 L -0.648926,0.722 L -0.706039,0.718735 L -1.53465,0.718735
 L -1.62834,0.727585 L -1.68916,0.74321 L -1.74754,0.766327 L -1.80257,0.79657 L -1.85336,0.833481 L -1.89914,0.876465
 L -1.93916,0.924835 L -1.97281,0.977859 L -1.99954,1.03467 L -2.01895,1.09439 L -2.03072,1.15607 L -2.03465,1.21873
 L -2.03465,5.91875 z
M -0.294708,-0.46962 L -0.00227356,-0.478149 L 0.0308075,-0.480209 L 0.298584,-0.505844 L 0.337402,-0.511108 L 0.580536,-0.553802
 L 0.626022,-0.563995 L 0.844513,-0.623779 L 0.896835,-0.641251 L 1.09068,-0.718109 L 1.14912,-0.745773 L 1.31833,-0.839722
 L 1.38017,-0.880325 L 1.52472,-0.991348 L 1.58449,-1.04546 L 1.70728,-1.1761 L 1.75639,-1.23735 L 1.86029,-1.39012
 L 1.89653,-1.45271 L 1.98154,-1.62759 L 2.00586,-1.68707 L 2.07198,-1.88405 L 2.08675,-1.93784 L 2.13396,-2.15694
 L 2.14175,-2.20392 L 2.17009,-2.44513 L 2.17319,-2.48553 L 2.18263,-2.74886 L 2.18263,-2.78455 L 2.17328,-3.04778
 L 2.17024,-3.08786 L 2.14218,-3.32878 L 2.13448,-3.37552 L 2.08771,-3.59416 L 2.07307,-3.6478 L 2.00758,-3.84413
 L 1.98338,-3.90363 L 1.8992,-4.07767 L 1.8629,-4.14059 L 1.75999,-4.29233 L 1.71062,-4.35403 L 1.589,-4.48349
 L 1.52849,-4.53819 L 1.38493,-4.64807 L 1.32234,-4.68893 L 1.15359,-4.78192 L 1.09485,-4.80949 L 0.900909,-4.88556
 L 0.848694,-4.90279 L 0.629562,-4.96196 L 0.584442,-4.97192 L 0.340134,-5.01419 L 0.301743,-5.01932 L 0.0322571,-5.04468
 L -0.000244141,-5.04668 L -0.294937,-5.05513 L -0.30928,-5.05533 L -1.53465,-5.05533 L -1.62834,-5.04648 L -1.68916,-5.03085
 L -1.74754,-5.00774 L -1.80257,-4.97749 L -1.85336,-4.94058 L -1.89914,-4.8976 L -1.93916,-4.84923 L -1.97281,-4.7962
 L -1.99954,-4.7394 L -2.01895,-4.67967 L -2.03072,-4.618 L -2.03465,-4.55533 L -2.03465,-0.969406 L -2.0258,-0.875717
 L -2.01018,-0.814896 L -1.98706,-0.756516 L -1.95682,-0.701492 L -1.91991,-0.650696 L -1.87692,-0.604919 L -1.82855,-0.564896
 L -1.77553,-0.53125 L -1.71872,-0.504517 L -1.659,-0.485107 L -1.59732,-0.473343 L -1.53465,-0.469406 L -0.30928,-0.469406
 z
M -1.53465,-0.969406 L -1.53465,-4.55533 L -0.30928,-4.55533 L -0.0145874,-4.54688 L 0.254898,-4.52151 L 0.499207,-4.47925
 L 0.718338,-4.42007 L 0.912277,-4.34401 L 1.08102,-4.25102 L 1.22458,-4.14114 L 1.34619,-4.01169 L 1.4491,-3.85995
 L 1.53328,-3.68591 L 1.59877,-3.48958 L 1.64554,-3.27094 L 1.6736,-3.03001 L 1.68295,-2.76678 L 1.67351,-2.50346
 L 1.64517,-2.26225 L 1.59796,-2.04315 L 1.53185,-1.84618 L 1.44684,-1.6713 L 1.34294,-1.51852 L 1.22015,-1.38788
 L 1.07561,-1.27686 L 0.906403,-1.18291 L 0.712555,-1.10605 L 0.494064,-1.04626 L 0.250931,-1.00357 L -0.0168457,-0.977936
 L -0.30928,-0.969406 z
M -12.2384,3.16562 L -8.75618,3.16562 L -7.94524,6.41875 L -5.34459,6.41875 L -8.89723,-6.74348 L -12.0798,-6.74348
 L -15.6324,6.41875 L -13.0318,6.41875 z
M -14.9796,5.91875 L -11.6968,-6.24348 L -9.28017,-6.24348 L -5.99744,5.91875 L -7.55458,5.91875 L -8.27103,3.04468
 L -8.28065,3.01111 L -8.30377,2.95273 L -8.33401,2.89771 L -8.37093,2.84691 L -8.41391,2.80113 L -8.46228,2.76111
 L -8.5153,2.72746 L -8.57211,2.70073 L -8.63184,2.68132 L -8.69351,2.66956 L -8.75618,2.66562 L -12.2384,2.66562
 L -12.2758,2.66702 L -12.338,2.67564 L -12.3986,2.692 L -12.4567,2.71582 L -12.5114,2.74673 L -12.5617,2.78426
 L -12.607,2.82779 L -12.6464,2.87665 L -12.6794,2.93007 L -12.7054,2.9872 L -12.7241,3.04715 L -13.4245,5.91875
 z
M -9.17798,1.52081 L -9.11678,1.50681 L -9.0578,1.48523 L -9.002,1.45644 L -8.95026,1.42087 L -8.90337,1.3791
 L -8.86209,1.33179 L -8.82707,1.27966 L -8.79886,1.22357 L -8.77789,1.16438 L -8.76451,1.10304 L -8.75893,1.0405
 L -8.76123,0.977753 L -8.77138,0.915787 L -10.0055,-4.47348 L -10.0333,-4.55878 L -10.0616,-4.61482 L -10.0967,-4.66689
 L -10.138,-4.71414 L -10.185,-4.75583 L -10.2368,-4.79132 L -10.2926,-4.82002 L -10.3516,-4.84151 L -10.4128,-4.85544
 L -10.4753,-4.86157 L -10.5381,-4.85983 L -10.6001,-4.85023 L -10.6605,-4.83293 L -10.7182,-4.80821 L -10.7724,-4.77644
 L -10.8221,-4.73814 L -10.8667,-4.69391 L -10.9054,-4.64442 L -10.9375,-4.5905 L -10.9627,-4.53297 L -10.9804,-4.47273
 L -12.2058,0.916534 L -12.2172,0.995987 L -12.2172,1.05879 L -12.2094,1.12108 L -12.1938,1.1819 L -12.1706,1.24028
 L -12.1404,1.2953 L -12.1035,1.3461 L -12.0605,1.39188 L -12.0121,1.4319 L -11.9591,1.46555 L -11.9023,1.49228
 L -11.8426,1.51169 L -11.7809,1.52345 L -11.7182,1.52739 L -9.25876,1.52739 z
M -11.7182,1.02739 L -10.4929,-4.36188 L -9.25876,1.02739 z
M -22.8539,3.16562 L -19.3717,3.16562 L -18.5608,6.41875 L -15.9602,6.41875 L -19.5128,-6.74348 L -22.6953,-6.74348
 L -26.248,6.41875 L -23.6473,6.41875 z
M -25.5951,5.91875 L -22.3124,-6.24348 L -19.8957,-6.24348 L -16.613,5.91875 L -18.1702,5.91875 L -18.8866,3.04468
 L -18.8962,3.01111 L -18.9193,2.95273 L -18.9496,2.89771 L -18.9865,2.84691 L -19.0295,2.80113 L -19.0779,2.76111
 L -19.1309,2.72746 L -19.1877,2.70073 L -19.2474,2.68132 L -19.3091,2.66956 L -19.3717,2.66562 L -22.8539,2.66562
 L -22.8914,2.66702 L -22.9536,2.67564 L -23.0142,2.692 L -23.0723,2.71582 L -23.1269,2.74673 L -23.1773,2.78426
 L -23.2225,2.82779 L -23.262,2.87665 L -23.295,2.93007 L -23.321,2.9872 L -23.3397,3.04715 L -24.04,5.91875
 z
M -19.7935,1.52081 L -19.7323,1.50681 L -19.6734,1.48523 L -19.6176,1.45644 L -19.5658,1.42087 L -19.5189,1.3791
 L -19.4777,1.33179 L -19.4426,1.27966 L -19.4144,1.22357 L -19.3935,1.16438 L -19.3801,1.10304 L -19.3745,1.0405
 L -19.3768,0.977753 L -19.3869,0.915787 L -20.621,-4.47348 L -20.6488,-4.55878 L -20.6771,-4.61482 L -20.7122,-4.66689
 L -20.7536,-4.71413 L -20.8005,-4.75583 L -20.8523,-4.79132 L -20.9082,-4.82002 L -20.9672,-4.84151 L -21.0284,-4.85544
 L -21.0909,-4.86157 L -21.1536,-4.85983 L -21.2157,-4.85023 L -21.2761,-4.83293 L -21.3338,-4.80821 L -21.3879,-4.77644
 L -21.4377,-4.73814 L -21.4823,-4.69391 L -21.5209,-4.64442 L -21.5531,-4.5905 L -21.5782,-4.53297 L -21.596,-4.47273
 L -22.8214,0.916534 L -22.8328,0.995987 L -22.8328,1.05879 L -22.825,1.12108 L -22.8093,1.1819 L -22.7862,1.24028
 L -22.756,1.2953 L -22.7191,1.3461 L -22.6761,1.39188 L -22.6277,1.4319 L -22.5747,1.46555 L -22.5179,1.49228
 L -22.4581,1.51169 L -22.3965,1.52345 L -22.3338,1.52739 L -19.8743,1.52739 z
M -22.3338,1.02739 L -21.1084,-4.36188 L -19.8743,1.02739 z
M 19.2645,-3.14651 L 22.9494,6.41875 L 25.7264,6.41875 L 25.7264,-6.74348 L 23.4342,-6.74348 L 23.4342,2.82178
 L 19.7669,-6.74348 L 16.9724,-6.74348 L 16.9724,6.41875 L 19.2645,6.41875 z
M 17.4724,5.91875 L 17.4724,-6.24348 L 19.4231,-6.24348 L 22.9674,3.00078 L 22.9961,3.06265 L 23.0297,3.11568
 L 23.0697,3.16405 L 23.1155,3.20703 L 23.1663,3.24394 L 23.2213,3.27419 L 23.2797,3.2973 L 23.3405,3.31293
 L 23.4028,3.32079 L 23.4656,3.32079 L 23.5279,3.31293 L 23.5887,3.2973 L 23.6471,3.27419 L 23.7021,3.24394
 L 23.7529,3.20703 L 23.7987,3.16405 L 23.8387,3.11568 L 23.8724,3.06265 L 23.8991,3.00584 L 23.9185,2.94612
 L 23.9303,2.88445 L 23.9342,2.82178 L 23.9342,-6.24348 L 25.2264,-6.24348 L 25.2264,5.91875 L 23.2926,5.91875
 L 19.731,-3.32626 L 19.7026,-3.38739 L 19.669,-3.44041 L 19.629,-3.48878 L 19.5832,-3.53177 L 19.5324,-3.56868
 L 19.4774,-3.59892 L 19.419,-3.62204 L 19.3582,-3.63766 L 19.2959,-3.64552 L 19.2331,-3.64552 L 19.1708,-3.63766
 L 19.11,-3.62204 L 19.0516,-3.59892 L 18.9966,-3.56868 L 18.9458,-3.53177 L 18.9,-3.48878 L 18.86,-3.44041
 L 18.8263,-3.38739 L 18.7996,-3.33058 L 18.7802,-3.27086 L 18.7684,-3.20918 L 18.7645,-3.14651 L 18.7645,5.91875
 z
" stroke="black" fill="lightgray" stroke-width="0.5"/>
</svg>
