  0
SECTION
  2
BLOCKS
  0
ENDSEC
  0
SECTION
  2
ENTITIES
  0
LINE
  8
0
 10
11.3702
 20
-6.64139
 11
11.9562
 21
-6.53555
  0
LINE
  8
0
 10
11.9562
 20
-6.53555
 11
12.4964
 21
-6.35916
  0
LINE
  8
0
 10
12.4964
 20
-6.35916
 11
12.9907
 21
-6.11221
  0
LINE
  8
0
 10
12.9907
 20
-6.11221
 11
13.4391
 21
-5.79472
  0
LINE
  8
0
 10
13.4391
 20
-5.79472
 11
13.8417
 21
-5.40666
  0
LINE
  8
0
 10
13.8417
 20
-5.40666
 11
14.1983
 21
-4.94806
  0
LINE
  8
0
 10
14.1983
 20
-4.94806
 11
14.5082
 21
-4.42068
  0
LINE
  8
0
 10
14.5082
 20
-4.42068
 11
14.7704
 21
-3.82635
  0
LINE
  8
0
 10
14.7704
 20
-3.82635
 11
14.985
 21
-3.16507
  0
LINE
  8
0
 10
14.985
 20
-3.16507
 11
15.1519
 21
-2.43683
  0
LINE
  8
0
 10
15.1519
 20
-2.43683
 11
15.271
 21
-1.64163
  0
LINE
  8
0
 10
15.271
 20
-1.64163
 11
15.3426
 21
-0.77948
  0
LINE
  8
0
 10
15.3426
 20
-0.77948
 11
15.3664
 21
0.149628
  0
LINE
  8
0
 10
15.3664
 20
0.149628
 11
15.3426
 21
1.08109
  0
LINE
  8
0
 10
15.3426
 20
1.08109
 11
15.271
 21
1.94522
  0
LINE
  8
0
 10
15.271
 20
1.94522
 11
15.1519
 21
2.74205
  0
LINE
  8
0
 10
15.1519
 20
2.74205
 11
14.985
 21
3.47156
  0
LINE
  8
0
 10
14.985
 20
3.47156
 11
14.7704
 21
4.13374
  0
LINE
  8
0
 10
14.7704
 20
4.13374
 11
14.5082
 21
4.72861
  0
LINE
  8
0
 10
14.5082
 20
4.72861
 11
14.1983
 21
5.25615
  0
LINE
  8
0
 10
14.1983
 20
5.25615
 11
13.8417
 21
5.71477
  0
LINE
  8
0
 10
13.8417
 20
5.71477
 11
13.4391
 21
6.10281
  0
LINE
  8
0
 10
13.4391
 20
6.10281
 11
12.9907
 21
6.42032
  0
LINE
  8
0
 10
12.9907
 20
6.42032
 11
12.4964
 21
6.66727
  0
LINE
  8
0
 10
12.4964
 20
6.66727
 11
11.9562
 21
6.84366
  0
LINE
  8
0
 10
11.9562
 20
6.84366
 11
11.3702
 21
6.94948
  0
LINE
  8
0
 10
11.3702
 20
6.94948
 11
10.7383
 21
6.98476
  0
LINE
  8
0
 10
10.7383
 20
6.98476
 11
10.1086
 21
6.94948
  0
LINE
  8
0
 10
10.1086
 20
6.94948
 11
9.52455
 21
6.84366
  0
LINE
  8
0
 10
9.52455
 20
6.84366
 11
8.98598
 21
6.66727
  0
LINE
  8
0
 10
8.98598
 20
6.66727
 11
8.49292
 21
6.42032
  0
LINE
  8
0
 10
8.49292
 20
6.42032
 11
8.04539
 21
6.10281
  0
LINE
  8
0
 10
8.04539
 20
6.10281
 11
7.64339
 21
5.71477
  0
LINE
  8
0
 10
7.64339
 20
5.71477
 11
7.2869
 21
5.25615
  0
LINE
  8
0
 10
7.2869
 20
5.25615
 11
6.97701
 21
4.72861
  0
LINE
  8
0
 10
6.97701
 20
4.72861
 11
6.71478
 21
4.13374
  0
LINE
  8
0
 10
6.71478
 20
4.13374
 11
6.50024
 21
3.47156
  0
LINE
  8
0
 10
6.50024
 20
3.47156
 11
6.33339
 21
2.74205
  0
LINE
  8
0
 10
6.33339
 20
2.74205
 11
6.2142
 21
1.94522
  0
LINE
  8
0
 10
6.2142
 20
1.94522
 11
6.14268
 21
1.08109
  0
LINE
  8
0
 10
6.14268
 20
1.08109
 11
6.11885
 21
0.149628
  0
LINE
  8
0
 10
6.11885
 20
0.149628
 11
6.14268
 21
-0.77948
  0
LINE
  8
0
 10
6.14268
 20
-0.77948
 11
6.2142
 21
-1.64163
  0
LINE
  8
0
 10
6.2142
 20
-1.64163
 11
6.33339
 21
-2.43683
  0
LINE
  8
0
 10
6.33339
 20
-2.43683
 11
6.50024
 21
-3.16507
  0
LINE
  8
0
 10
6.50024
 20
-3.16507
 11
6.71478
 21
-3.82635
  0
LINE
  8
0
 10
6.71478
 20
-3.82635
 11
6.97701
 21
-4.42068
  0
LINE
  8
0
 10
6.97701
 20
-4.42068
 11
7.2869
 21
-4.94806
  0
LINE
  8
0
 10
7.2869
 20
-4.94806
 11
7.64339
 21
-5.40666
  0
LINE
  8
0
 10
7.64339
 20
-5.40666
 11
8.04539
 21
-5.79472
  0
LINE
  8
0
 10
8.04539
 20
-5.79472
 11
8.49292
 21
-6.11221
  0
LINE
  8
0
 10
8.49292
 20
-6.11221
 11
8.98598
 21
-6.35916
  0
LINE
  8
0
 10
8.98598
 20
-6.35916
 11
9.52455
 21
-6.53555
  0
LINE
  8
0
 10
9.52455
 20
-6.53555
 11
10.1086
 21
-6.64139
  0
LINE
  8
0
 10
10.1086
 20
-6.64139
 11
10.7383
 21
-6.67667
  0
LINE
  8
0
 10
10.7383
 20
-6.67667
 11
11.3702
 21
-6.64139
  0
LINE
  8
0
 10
10.1674
 20
-6.14389
 11
9.64748
 21
-6.04968
  0
LINE
  8
0
 10
9.64748
 20
-6.04968
 11
9.17683
 21
-5.89554
  0
LINE
  8
0
 10
9.17683
 20
-5.89554
 11
8.75104
 21
-5.68228
  0
LINE
  8
0
 10
8.75104
 20
-5.68228
 11
8.36549
 21
-5.40875
  0
LINE
  8
0
 10
8.36549
 20
-5.40875
 11
8.0163
 21
-5.07167
  0
LINE
  8
0
 10
8.0163
 20
-5.07167
 11
7.70157
 21
-4.66681
  0
LINE
  8
0
 10
7.70157
 20
-4.66681
 11
7.42276
 21
-4.19232
  0
LINE
  8
0
 10
7.42276
 20
-4.19232
 11
7.18253
 21
-3.64784
  0
LINE
  8
0
 10
7.18253
 20
-3.64784
 11
6.98264
 21
-3.03172
  0
LINE
  8
0
 10
6.98264
 20
-3.03172
 11
6.82504
 21
-2.34387
  0
LINE
  8
0
 10
6.82504
 20
-2.34387
 11
6.71114
 21
-1.58389
  0
LINE
  8
0
 10
6.71114
 20
-1.58389
 11
6.64215
 21
-0.752274
  0
LINE
  8
0
 10
6.64215
 20
-0.752274
 11
6.619
 21
0.149658
  0
LINE
  8
0
 10
6.619
 20
0.149658
 11
6.64215
 21
1.05406
  0
LINE
  8
0
 10
6.64215
 20
1.05406
 11
6.71114
 21
1.8876
  0
LINE
  8
0
 10
6.71114
 20
1.8876
 11
6.82504
 21
2.64911
  0
LINE
  8
0
 10
6.82504
 20
2.64911
 11
6.9827
 21
3.33842
  0
LINE
  8
0
 10
6.9827
 20
3.33842
 11
7.18262
 21
3.95546
  0
LINE
  8
0
 10
7.18262
 20
3.95546
 11
7.42281
 21
4.50034
  0
LINE
  8
0
 10
7.42281
 20
4.50034
 11
7.7016
 21
4.97496
  0
LINE
  8
0
 10
7.7016
 20
4.97496
 11
8.01628
 21
5.37979
  0
LINE
  8
0
 10
8.01628
 20
5.37979
 11
8.36545
 21
5.71683
  0
LINE
  8
0
 10
8.36545
 20
5.71683
 11
8.75102
 21
5.99037
  0
LINE
  8
0
 10
8.75102
 20
5.99037
 11
9.17683
 21
6.20364
  0
LINE
  8
0
 10
9.17683
 20
6.20364
 11
9.64749
 21
6.35779
  0
LINE
  8
0
 10
9.64749
 20
6.35779
 11
10.1674
 21
6.45198
  0
LINE
  8
0
 10
10.1674
 20
6.45198
 11
10.7384
 21
6.48398
  0
LINE
  8
0
 10
10.7384
 20
6.48398
 11
11.3115
 21
6.45198
  0
LINE
  8
0
 10
11.3115
 20
6.45198
 11
11.8337
 21
6.35768
  0
LINE
  8
0
 10
11.8337
 20
6.35768
 11
12.306
 21
6.20345
  0
LINE
  8
0
 10
12.306
 20
6.20345
 11
12.733
 21
5.99014
  0
LINE
  8
0
 10
12.733
 20
5.99014
 11
13.1193
 21
5.71661
  0
LINE
  8
0
 10
13.1193
 20
5.71661
 11
13.4689
 21
5.37961
  0
LINE
  8
0
 10
13.4689
 20
5.37961
 11
13.7837
 21
4.97487
  0
LINE
  8
0
 10
13.7837
 20
4.97487
 11
14.0624
 21
4.50035
  0
LINE
  8
0
 10
14.0624
 20
4.50035
 11
14.3026
 21
3.95547
  0
LINE
  8
0
 10
14.3026
 20
3.95547
 11
14.5025
 21
3.33846
  0
LINE
  8
0
 10
14.5025
 20
3.33846
 11
14.6602
 21
2.64906
  0
LINE
  8
0
 10
14.6602
 20
2.64906
 11
14.7741
 21
1.8876
  0
LINE
  8
0
 10
14.7741
 20
1.8876
 11
14.8431
 21
1.05406
  0
LINE
  8
0
 10
14.8431
 20
1.05406
 11
14.8662
 21
0.149658
  0
LINE
  8
0
 10
14.8662
 20
0.149658
 11
14.8431
 21
-0.752274
  0
LINE
  8
0
 10
14.8431
 20
-0.752274
 11
14.7741
 21
-1.58389
  0
LINE
  8
0
 10
14.7741
 20
-1.58389
 11
14.6602
 21
-2.34383
  0
LINE
  8
0
 10
14.6602
 20
-2.34383
 11
14.5026
 21
-3.03175
  0
LINE
  8
0
 10
14.5026
 20
-3.03175
 11
14.3027
 21
-3.64784
  0
LINE
  8
0
 10
14.3027
 20
-3.64784
 11
14.0625
 21
-4.19232
  0
LINE
  8
0
 10
14.0625
 20
-4.19232
 11
13.7837
 21
-4.66678
  0
LINE
  8
0
 10
13.7837
 20
-4.66678
 11
13.4689
 21
-5.0715
  0
LINE
  8
0
 10
13.4689
 20
-5.0715
 11
13.1194
 21
-5.40846
  0
LINE
  8
0
 10
13.1194
 20
-5.40846
 11
12.733
 21
-5.68207
  0
LINE
  8
0
 10
12.733
 20
-5.68207
 11
12.306
 21
-5.89534
  0
LINE
  8
0
 10
12.306
 20
-5.89534
 11
11.8336
 21
-6.04962
  0
LINE
  8
0
 10
11.8336
 20
-6.04962
 11
11.3117
 21
-6.14388
  0
LINE
  8
0
 10
11.3117
 20
-6.14388
 11
10.7384
 21
-6.17589
  0
LINE
  8
0
 10
10.7384
 20
-6.17589
 11
10.1674
 21
-6.14389
  0
LINE
  8
0
 10
11.0534
 20
-4.81552
 11
11.1384
 21
-4.80139
  0
LINE
  8
0
 10
11.1384
 20
-4.80139
 11
11.3921
 21
-4.73634
  0
LINE
  8
0
 10
11.3921
 20
-4.73634
 11
11.4801
 21
-4.70476
  0
LINE
  8
0
 10
11.4801
 20
-4.70476
 11
11.7114
 21
-4.59633
  0
LINE
  8
0
 10
11.7114
 20
-4.59633
 11
11.74
 21
-4.58182
  0
LINE
  8
0
 10
11.74
 20
-4.58182
 11
11.793
 21
-4.54819
  0
LINE
  8
0
 10
11.793
 20
-4.54819
 11
12.002
 21
-4.39641
  0
LINE
  8
0
 10
12.002
 20
-4.39641
 11
12.0695
 21
-4.33749
  0
LINE
  8
0
 10
12.0695
 20
-4.33749
 11
12.2563
 21
-4.14235
  0
LINE
  8
0
 10
12.2563
 20
-4.14235
 11
12.3067
 21
-4.08044
  0
LINE
  8
0
 10
12.3067
 20
-4.08044
 11
12.4711
 21
-3.84192
  0
LINE
  8
0
 10
12.4711
 20
-3.84192
 11
12.5059
 21
-3.78322
  0
LINE
  8
0
 10
12.5059
 20
-3.78322
 11
12.648
 21
-3.50133
  0
LINE
  8
0
 10
12.648
 20
-3.50133
 11
12.6707
 21
-3.44913
  0
LINE
  8
0
 10
12.6707
 20
-3.44913
 11
12.7924
 21
-3.11899
  0
LINE
  8
0
 10
12.7924
 20
-3.11899
 11
12.8061
 21
-3.07579
  0
LINE
  8
0
 10
12.8061
 20
-3.07579
 11
12.909
 21
-2.69255
  0
LINE
  8
0
 10
12.909
 20
-2.69255
 11
12.9171
 21
-2.65764
  0
LINE
  8
0
 10
12.9171
 20
-2.65764
 11
13.0013
 21
-2.22131
  0
LINE
  8
0
 10
13.0013
 20
-2.22131
 11
13.0059
 21
-2.19286
  0
LINE
  8
0
 10
13.0059
 20
-2.19286
 11
13.0714
 21
-1.70345
  0
LINE
  8
0
 10
13.0714
 20
-1.70345
 11
13.074
 21
-1.68008
  0
LINE
  8
0
 10
13.074
 20
-1.68008
 11
13.1208
 21
-1.13757
  0
LINE
  8
0
 10
13.1208
 20
-1.13757
 11
13.1221
 21
-1.11816
  0
LINE
  8
0
 10
13.1221
 20
-1.11816
 11
13.1501
 21
-0.522583
  0
LINE
  8
0
 10
13.1501
 20
-0.522583
 11
13.1507
 21
-0.506241
  0
LINE
  8
0
 10
13.1507
 20
-0.506241
 11
13.16
 21
0.142426
  0
LINE
  8
0
 10
13.16
 20
0.142426
 11
13.16
 21
0.156815
  0
LINE
  8
0
 10
13.16
 20
0.156815
 11
13.1507
 21
0.807831
  0
LINE
  8
0
 10
13.1507
 20
0.807831
 11
13.1501
 21
0.824112
  0
LINE
  8
0
 10
13.1501
 20
0.824112
 11
13.1221
 21
1.42168
  0
LINE
  8
0
 10
13.1221
 20
1.42168
 11
13.1208
 21
1.44104
  0
LINE
  8
0
 10
13.1208
 20
1.44104
 11
13.074
 21
1.98515
  0
LINE
  8
0
 10
13.074
 20
1.98515
 11
13.0714
 21
2.00847
  0
LINE
  8
0
 10
13.0714
 20
2.00847
 11
13.006
 21
2.49911
  0
LINE
  8
0
 10
13.006
 20
2.49911
 11
13.0013
 21
2.52756
  0
LINE
  8
0
 10
13.0013
 20
2.52756
 11
12.9171
 21
2.96477
  0
LINE
  8
0
 10
12.9171
 20
2.96477
 11
12.909
 21
2.99969
  0
LINE
  8
0
 10
12.909
 20
2.99969
 11
12.8061
 21
3.38344
  0
LINE
  8
0
 10
12.8061
 20
3.38344
 11
12.7924
 21
3.42673
  0
LINE
  8
0
 10
12.7924
 20
3.42673
 11
12.6707
 21
3.75703
  0
LINE
  8
0
 10
12.6707
 20
3.75703
 11
12.648
 21
3.8093
  0
LINE
  8
0
 10
12.648
 20
3.8093
 11
12.5059
 21
4.0912
  0
LINE
  8
0
 10
12.5059
 20
4.0912
 11
12.4711
 21
4.14989
  0
LINE
  8
0
 10
12.4711
 20
4.14989
 11
12.3067
 21
4.38844
  0
LINE
  8
0
 10
12.3067
 20
4.38844
 11
12.2563
 21
4.45035
  0
LINE
  8
0
 10
12.2563
 20
4.45035
 11
12.0695
 21
4.64552
  0
LINE
  8
0
 10
12.0695
 20
4.64552
 11
12.002
 21
4.70445
  0
LINE
  8
0
 10
12.002
 20
4.70445
 11
11.793
 21
4.85625
  0
LINE
  8
0
 10
11.793
 20
4.85625
 11
11.7665
 21
4.87422
  0
LINE
  8
0
 10
11.7665
 20
4.87422
 11
11.7114
 21
4.90439
  0
LINE
  8
0
 10
11.7114
 20
4.90439
 11
11.4801
 21
5.01283
  0
LINE
  8
0
 10
11.4801
 20
5.01283
 11
11.3921
 21
5.04443
  0
LINE
  8
0
 10
11.3921
 20
5.04443
 11
11.1384
 21
5.10948
  0
LINE
  8
0
 10
11.1384
 20
5.10948
 11
11.0534
 21
5.12361
  0
LINE
  8
0
 10
11.0534
 20
5.12361
 11
10.7774
 21
5.14529
  0
LINE
  8
0
 10
10.7774
 20
5.14529
 11
10.6988
 21
5.14528
  0
LINE
  8
0
 10
10.6988
 20
5.14528
 11
10.4251
 21
5.1236
  0
LINE
  8
0
 10
10.4251
 20
5.1236
 11
10.3395
 21
5.10925
  0
LINE
  8
0
 10
10.3395
 20
5.10925
 11
10.0878
 21
5.0442
  0
LINE
  8
0
 10
10.0878
 20
5.0442
 11
9.9995
 21
5.01227
  0
LINE
  8
0
 10
9.9995
 20
5.01227
 11
9.76973
 21
4.90382
  0
LINE
  8
0
 10
9.76973
 20
4.90382
 11
9.74115
 21
4.88919
  0
LINE
  8
0
 10
9.74115
 20
4.88919
 11
9.68822
 21
4.85542
  0
LINE
  8
0
 10
9.68822
 20
4.85542
 11
9.48041
 21
4.70363
  0
LINE
  8
0
 10
9.48041
 20
4.70363
 11
9.41325
 21
4.64468
  0
LINE
  8
0
 10
9.41325
 20
4.64468
 11
9.22739
 21
4.44951
  0
LINE
  8
0
 10
9.22739
 20
4.44951
 11
9.17737
 21
4.38786
  0
LINE
  8
0
 10
9.17737
 20
4.38786
 11
9.01344
 21
4.14931
  0
LINE
  8
0
 10
9.01344
 20
4.14931
 11
8.97897
 21
4.09103
  0
LINE
  8
0
 10
8.97897
 20
4.09103
 11
8.83701
 21
3.80913
  0
LINE
  8
0
 10
8.83701
 20
3.80913
 11
8.81436
 21
3.75699
  0
LINE
  8
0
 10
8.81436
 20
3.75699
 11
8.69275
 21
3.42668
  0
LINE
  8
0
 10
8.69275
 20
3.42668
 11
8.67902
 21
3.38342
  0
LINE
  8
0
 10
8.67902
 20
3.38342
 11
8.57611
 21
2.99968
  0
LINE
  8
0
 10
8.57611
 20
2.99968
 11
8.56807
 21
2.96474
  0
LINE
  8
0
 10
8.56807
 20
2.96474
 11
8.48387
 21
2.52753
  0
LINE
  8
0
 10
8.48387
 20
2.52753
 11
8.47925
 21
2.4991
  0
LINE
  8
0
 10
8.47925
 20
2.4991
 11
8.41377
 21
2.00845
  0
LINE
  8
0
 10
8.41377
 20
2.00845
 11
8.41121
 21
1.98514
  0
LINE
  8
0
 10
8.41121
 20
1.98514
 11
8.36444
 21
1.44102
  0
LINE
  8
0
 10
8.36444
 20
1.44102
 11
8.36316
 21
1.42168
  0
LINE
  8
0
 10
8.36316
 20
1.42168
 11
8.33508
 21
0.824112
  0
LINE
  8
0
 10
8.33508
 20
0.824112
 11
8.33458
 21
0.807831
  0
LINE
  8
0
 10
8.33458
 20
0.807831
 11
8.32523
 21
0.156815
  0
LINE
  8
0
 10
8.32523
 20
0.156815
 11
8.32523
 21
0.142426
  0
LINE
  8
0
 10
8.32523
 20
0.142426
 11
8.33458
 21
-0.506241
  0
LINE
  8
0
 10
8.33458
 20
-0.506241
 11
8.33508
 21
-0.522583
  0
LINE
  8
0
 10
8.33508
 20
-0.522583
 11
8.36316
 21
-1.11816
  0
LINE
  8
0
 10
8.36316
 20
-1.11816
 11
8.36446
 21
-1.13756
  0
LINE
  8
0
 10
8.36446
 20
-1.13756
 11
8.41122
 21
-1.68007
  0
LINE
  8
0
 10
8.41122
 20
-1.68007
 11
8.41379
 21
-1.70343
  0
LINE
  8
0
 10
8.41379
 20
-1.70343
 11
8.47926
 21
-2.19284
  0
LINE
  8
0
 10
8.47926
 20
-2.19284
 11
8.48392
 21
-2.22128
  0
LINE
  8
0
 10
8.48392
 20
-2.22128
 11
8.56812
 21
-2.65761
  0
LINE
  8
0
 10
8.56812
 20
-2.65761
 11
8.57616
 21
-2.69254
  0
LINE
  8
0
 10
8.57616
 20
-2.69254
 11
8.67906
 21
-3.07578
  0
LINE
  8
0
 10
8.67906
 20
-3.07578
 11
8.69278
 21
-3.11894
  0
LINE
  8
0
 10
8.69278
 20
-3.11894
 11
8.81439
 21
-3.44908
  0
LINE
  8
0
 10
8.81439
 20
-3.44908
 11
8.83701
 21
-3.50114
  0
LINE
  8
0
 10
8.83701
 20
-3.50114
 11
8.97897
 21
-3.78304
  0
LINE
  8
0
 10
8.97897
 20
-3.78304
 11
9.01347
 21
-3.84132
  0
LINE
  8
0
 10
9.01347
 20
-3.84132
 11
9.1774
 21
-4.07985
  0
LINE
  8
0
 10
9.1774
 20
-4.07985
 11
9.2274
 21
-4.14151
  0
LINE
  8
0
 10
9.2274
 20
-4.14151
 11
9.41327
 21
-4.33665
  0
LINE
  8
0
 10
9.41327
 20
-4.33665
 11
9.48042
 21
-4.39558
  0
LINE
  8
0
 10
9.48042
 20
-4.39558
 11
9.68823
 21
-4.54736
  0
LINE
  8
0
 10
9.68823
 20
-4.54736
 11
9.71477
 21
-4.56546
  0
LINE
  8
0
 10
9.71477
 20
-4.56546
 11
9.76974
 21
-4.59576
  0
LINE
  8
0
 10
9.76974
 20
-4.59576
 11
9.99951
 21
-4.70419
  0
LINE
  8
0
 10
9.99951
 20
-4.70419
 11
10.0878
 21
-4.73611
  0
LINE
  8
0
 10
10.0878
 20
-4.73611
 11
10.3395
 21
-4.80116
  0
LINE
  8
0
 10
10.3395
 20
-4.80116
 11
10.4251
 21
-4.81551
  0
LINE
  8
0
 10
10.4251
 20
-4.81551
 11
10.6988
 21
-4.83719
  0
LINE
  8
0
 10
10.6988
 20
-4.83719
 11
10.7774
 21
-4.8372
  0
LINE
  8
0
 10
10.7774
 20
-4.8372
 11
11.0534
 21
-4.81552
  0
LINE
  8
0
 10
10.4646
 20
-4.31706
 11
10.2129
 21
-4.25201
  0
LINE
  8
0
 10
10.2129
 20
-4.25201
 11
9.98314
 21
-4.14359
  0
LINE
  8
0
 10
9.98314
 20
-4.14359
 11
9.77533
 21
-3.99181
  0
LINE
  8
0
 10
9.77533
 20
-3.99181
 11
9.58946
 21
-3.79666
  0
LINE
  8
0
 10
9.58946
 20
-3.79666
 11
9.42554
 21
-3.55814
  0
LINE
  8
0
 10
9.42554
 20
-3.55814
 11
9.28357
 21
-3.27625
  0
LINE
  8
0
 10
9.28357
 20
-3.27625
 11
9.16196
 21
-2.94611
  0
LINE
  8
0
 10
9.16196
 20
-2.94611
 11
9.05905
 21
-2.56287
  0
LINE
  8
0
 10
9.05905
 20
-2.56287
 11
8.97485
 21
-2.12654
  0
LINE
  8
0
 10
8.97485
 20
-2.12654
 11
8.90938
 21
-1.63713
  0
LINE
  8
0
 10
8.90938
 20
-1.63713
 11
8.86261
 21
-1.09462
  0
LINE
  8
0
 10
8.86261
 20
-1.09462
 11
8.83453
 21
-0.499039
  0
LINE
  8
0
 10
8.83453
 20
-0.499039
 11
8.82518
 21
0.149628
  0
LINE
  8
0
 10
8.82518
 20
0.149628
 11
8.83453
 21
0.800644
  0
LINE
  8
0
 10
8.83453
 20
0.800644
 11
8.86261
 21
1.39821
  0
LINE
  8
0
 10
8.86261
 20
1.39821
 11
8.90938
 21
1.94232
  0
LINE
  8
0
 10
8.90938
 20
1.94232
 11
8.97485
 21
2.43297
  0
LINE
  8
0
 10
8.97485
 20
2.43297
 11
9.05905
 21
2.87018
  0
LINE
  8
0
 10
9.05905
 20
2.87018
 11
9.16196
 21
3.25392
  0
LINE
  8
0
 10
9.16196
 20
3.25392
 11
9.28357
 21
3.58423
  0
LINE
  8
0
 10
9.28357
 20
3.58423
 11
9.42554
 21
3.86613
  0
LINE
  8
0
 10
9.42554
 20
3.86613
 11
9.58946
 21
4.10469
  0
LINE
  8
0
 10
9.58946
 20
4.10469
 11
9.77533
 21
4.29987
  0
LINE
  8
0
 10
9.77533
 20
4.29987
 11
9.98314
 21
4.45166
  0
LINE
  8
0
 10
9.98314
 20
4.45166
 11
10.2129
 21
4.5601
  0
LINE
  8
0
 10
10.2129
 20
4.5601
 11
10.4646
 21
4.62515
  0
LINE
  8
0
 10
10.4646
 20
4.62515
 11
10.7383
 21
4.64684
  0
LINE
  8
0
 10
10.7383
 20
4.64684
 11
11.0142
 21
4.62515
  0
LINE
  8
0
 10
11.0142
 20
4.62515
 11
11.2679
 21
4.5601
  0
LINE
  8
0
 10
11.2679
 20
4.5601
 11
11.4992
 21
4.45166
  0
LINE
  8
0
 10
11.4992
 20
4.45166
 11
11.7083
 21
4.29987
  0
LINE
  8
0
 10
11.7083
 20
4.29987
 11
11.895
 21
4.10469
  0
LINE
  8
0
 10
11.895
 20
4.10469
 11
12.0594
 21
3.86613
  0
LINE
  8
0
 10
12.0594
 20
3.86613
 11
12.2015
 21
3.58423
  0
LINE
  8
0
 10
12.2015
 20
3.58423
 11
12.3232
 21
3.25392
  0
LINE
  8
0
 10
12.3232
 20
3.25392
 11
12.4261
 21
2.87018
  0
LINE
  8
0
 10
12.4261
 20
2.87018
 11
12.5103
 21
2.43297
  0
LINE
  8
0
 10
12.5103
 20
2.43297
 11
12.5758
 21
1.94232
  0
LINE
  8
0
 10
12.5758
 20
1.94232
 11
12.6226
 21
1.39821
  0
LINE
  8
0
 10
12.6226
 20
1.39821
 11
12.6507
 21
0.800644
  0
LINE
  8
0
 10
12.6507
 20
0.800644
 11
12.66
 21
0.149628
  0
LINE
  8
0
 10
12.66
 20
0.149628
 11
12.6507
 21
-0.499039
  0
LINE
  8
0
 10
12.6507
 20
-0.499039
 11
12.6226
 21
-1.09462
  0
LINE
  8
0
 10
12.6226
 20
-1.09462
 11
12.5758
 21
-1.63713
  0
LINE
  8
0
 10
12.5758
 20
-1.63713
 11
12.5103
 21
-2.12654
  0
LINE
  8
0
 10
12.5103
 20
-2.12654
 11
12.4261
 21
-2.56287
  0
LINE
  8
0
 10
12.4261
 20
-2.56287
 11
12.3232
 21
-2.94611
  0
LINE
  8
0
 10
12.3232
 20
-2.94611
 11
12.2015
 21
-3.27625
  0
LINE
  8
0
 10
12.2015
 20
-3.27625
 11
12.0594
 21
-3.55814
  0
LINE
  8
0
 10
12.0594
 20
-3.55814
 11
11.895
 21
-3.79666
  0
LINE
  8
0
 10
11.895
 20
-3.79666
 11
11.7083
 21
-3.99181
  0
LINE
  8
0
 10
11.7083
 20
-3.99181
 11
11.4992
 21
-4.14359
  0
LINE
  8
0
 10
11.4992
 20
-4.14359
 11
11.2679
 21
-4.25201
  0
LINE
  8
0
 10
11.2679
 20
-4.25201
 11
11.0142
 21
-4.31706
  0
LINE
  8
0
 10
11.0142
 20
-4.31706
 11
10.7383
 21
-4.33875
  0
LINE
  8
0
 10
10.7383
 20
-4.33875
 11
10.4646
 21
-4.31706
  0
LINE
  8
0
 10
-1.53465
 20
-1.21873
 11
-0.706039
 21
-1.21873
  0
LINE
  8
0
 10
-0.706039
 20
-1.21873
 11
-0.441559
 21
-1.24915
  0
LINE
  8
0
 10
-0.441559
 20
-1.24915
 11
-0.187164
 21
-1.34033
  0
LINE
  8
0
 10
-0.187164
 20
-1.34033
 11
0.0571289
 21
-1.49232
  0
LINE
  8
0
 10
0.0571289
 20
-1.49232
 11
0.291367
 21
-1.70512
  0
LINE
  8
0
 10
0.291367
 20
-1.70512
 11
0.515533
 21
-1.97871
  0
LINE
  8
0
 10
0.515533
 20
-1.97871
 11
0.72963
 21
-2.3131
  0
LINE
  8
0
 10
0.72963
 20
-2.3131
 11
0.93364
 21
-2.70828
  0
LINE
  8
0
 10
0.93364
 20
-2.70828
 11
0.9655
 21
-2.77663
  0
LINE
  8
0
 10
0.9655
 20
-2.77663
 11
0.995544
 21
-2.84065
  0
LINE
  8
0
 10
0.995544
 20
-2.84065
 11
1.0238
 21
-2.90036
  0
LINE
  8
0
 10
1.0238
 20
-2.90036
 11
1.05025
 21
-2.95576
  0
LINE
  8
0
 10
1.05025
 20
-2.95576
 11
1.07489
 21
-3.00685
  0
LINE
  8
0
 10
1.07489
 20
-3.00685
 11
1.09773
 21
-3.05362
  0
LINE
  8
0
 10
1.09773
 20
-3.05362
 11
1.11876
 21
-3.09607
  0
LINE
  8
0
 10
1.11876
 20
-3.09607
 11
2.70567
 21
-6.41875
  0
LINE
  8
0
 10
2.70567
 20
-6.41875
 11
5.5619
 21
-6.41875
  0
LINE
  8
0
 10
5.5619
 20
-6.41875
 11
3.18159
 21
-1.68584
  0
LINE
  8
0
 10
3.18159
 20
-1.68584
 11
3.06583
 21
-1.46004
  0
LINE
  8
0
 10
3.06583
 20
-1.46004
 11
2.95528
 21
-1.25639
  0
LINE
  8
0
 10
2.95528
 20
-1.25639
 11
2.84995
 21
-1.07487
  0
LINE
  8
0
 10
2.84995
 20
-1.07487
 11
2.74983
 21
-0.915497
  0
LINE
  8
0
 10
2.74983
 20
-0.915497
 11
2.65492
 21
-0.778244
  0
LINE
  8
0
 10
2.65492
 20
-0.778244
 11
2.56525
 21
-0.663147
  0
LINE
  8
0
 10
2.56525
 20
-0.663147
 11
2.48077
 21
-0.570175
  0
LINE
  8
0
 10
2.48077
 20
-0.570175
 11
2.39687
 21
-0.492508
  0
LINE
  8
0
 10
2.39687
 20
-0.492508
 11
2.30882
 21
-0.423294
  0
LINE
  8
0
 10
2.30882
 20
-0.423294
 11
2.21664
 21
-0.362534
  0
LINE
  8
0
 10
2.21664
 20
-0.362534
 11
2.12032
 21
-0.310242
  0
LINE
  8
0
 10
2.12032
 20
-0.310242
 11
2.01984
 21
-0.266403
  0
LINE
  8
0
 10
2.01984
 20
-0.266403
 11
1.91522
 21
-0.231018
  0
LINE
  8
0
 10
1.91522
 20
-0.231018
 11
1.80646
 21
-0.204086
  0
LINE
  8
0
 10
1.80646
 20
-0.204086
 11
2.1497
 21
-0.145615
  0
LINE
  8
0
 10
2.1497
 20
-0.145615
 11
2.46921
 21
-0.0608521
  0
LINE
  8
0
 10
2.46921
 20
-0.0608521
 11
2.76497
 21
0.0501404
  0
LINE
  8
0
 10
2.76497
 20
0.0501404
 11
3.03699
 21
0.187424
  0
LINE
  8
0
 10
3.03699
 20
0.187424
 11
3.28526
 21
0.350967
  0
LINE
  8
0
 10
3.28526
 20
0.350967
 11
3.50978
 21
0.540771
  0
LINE
  8
0
 10
3.50978
 20
0.540771
 11
3.71057
 21
0.756851
  0
LINE
  8
0
 10
3.71057
 20
0.756851
 11
3.88599
 21
0.997437
  0
LINE
  8
0
 10
3.88599
 20
0.997437
 11
4.03441
 21
1.2607
  0
LINE
  8
0
 10
4.03441
 20
1.2607
 11
4.15585
 21
1.54662
  0
LINE
  8
0
 10
4.15585
 20
1.54662
 11
4.25031
 21
1.85522
  0
LINE
  8
0
 10
4.25031
 20
1.85522
 11
4.31778
 21
2.18649
  0
LINE
  8
0
 10
4.31778
 20
2.18649
 11
4.35826
 21
2.54044
  0
LINE
  8
0
 10
4.35826
 20
2.54044
 11
4.37175
 21
2.91707
  0
LINE
  8
0
 10
4.37175
 20
2.91707
 11
4.34917
 21
3.47339
  0
LINE
  8
0
 10
4.34917
 20
3.47339
 11
4.28143
 21
3.98366
  0
LINE
  8
0
 10
4.28143
 20
3.98366
 11
4.16853
 21
4.44786
  0
LINE
  8
0
 10
4.16853
 20
4.44786
 11
4.01047
 21
4.86603
  0
LINE
  8
0
 10
4.01047
 20
4.86603
 11
3.80725
 21
5.23811
  0
LINE
  8
0
 10
3.80725
 20
5.23811
 11
3.55887
 21
5.56416
  0
LINE
  8
0
 10
3.55887
 20
5.56416
 11
3.26532
 21
5.84415
  0
LINE
  8
0
 10
3.26532
 20
5.84415
 11
2.92
 21
6.08275
  0
LINE
  8
0
 10
2.92
 20
6.08275
 11
2.5162
 21
6.28464
  0
LINE
  8
0
 10
2.5162
 20
6.28464
 11
2.05392
 21
6.44981
  0
LINE
  8
0
 10
2.05392
 20
6.44981
 11
1.53319
 21
6.57829
  0
LINE
  8
0
 10
1.53319
 20
6.57829
 11
0.953979
 21
6.67007
  0
LINE
  8
0
 10
0.953979
 20
6.67007
 11
0.316284
 21
6.72513
  0
LINE
  8
0
 10
0.316284
 20
6.72513
 11
-0.379868
 21
6.74348
  0
LINE
  8
0
 10
-0.379868
 20
6.74348
 11
-4.1353
 21
6.74348
  0
LINE
  8
0
 10
-4.1353
 20
6.74348
 11
-4.1353
 21
-6.41875
  0
LINE
  8
0
 10
-4.1353
 20
-6.41875
 11
-1.53465
 21
-6.41875
  0
LINE
  8
0
 10
-1.53465
 20
-6.41875
 11
-1.53465
 21
-1.21873
  0
LINE
  8
0
 10
-3.6353
 20
-5.91875
 11
-3.6353
 21
6.24348
  0
LINE
  8
0
 10
-3.6353
 20
6.24348
 11
-0.386688
 21
6.24348
  0
LINE
  8
0
 10
-0.386688
 20
6.24348
 11
0.288162
 21
6.22569
  0
LINE
  8
0
 10
0.288162
 20
6.22569
 11
0.893417
 21
6.17343
  0
LINE
  8
0
 10
0.893417
 20
6.17343
 11
1.43396
 21
6.08778
  0
LINE
  8
0
 10
1.43396
 20
6.08778
 11
1.90958
 21
5.97044
  0
LINE
  8
0
 10
1.90958
 20
5.97044
 11
2.31952
 21
5.82396
  0
LINE
  8
0
 10
2.31952
 20
5.82396
 11
2.66483
 21
5.65132
  0
LINE
  8
0
 10
2.66483
 20
5.65132
 11
2.94872
 21
5.45515
  0
LINE
  8
0
 10
2.94872
 20
5.45515
 11
3.18513
 21
5.22968
  0
LINE
  8
0
 10
3.18513
 20
5.22968
 11
3.38658
 21
4.96523
  0
LINE
  8
0
 10
3.38658
 20
4.96523
 11
3.55504
 21
4.65678
  0
LINE
  8
0
 10
3.55504
 20
4.65678
 11
3.68994
 21
4.2999
  0
LINE
  8
0
 10
3.68994
 20
4.2999
 11
3.78929
 21
3.89139
  0
LINE
  8
0
 10
3.78929
 20
3.89139
 11
3.85051
 21
3.43027
  0
LINE
  8
0
 10
3.85051
 20
3.43027
 11
3.87138
 21
2.91588
  0
LINE
  8
0
 10
3.87138
 20
2.91588
 11
3.85928
 21
2.57791
  0
LINE
  8
0
 10
3.85928
 20
2.57791
 11
3.82349
 21
2.26494
  0
LINE
  8
0
 10
3.82349
 20
2.26494
 11
3.76514
 21
1.97849
  0
LINE
  8
0
 10
3.76514
 20
1.97849
 11
3.68542
 21
1.71803
  0
LINE
  8
0
 10
3.68542
 20
1.71803
 11
3.58513
 21
1.4819
  0
LINE
  8
0
 10
3.58513
 20
1.4819
 11
3.46475
 21
1.26837
  0
LINE
  8
0
 10
3.46475
 20
1.26837
 11
3.32411
 21
1.07549
  0
LINE
  8
0
 10
3.32411
 20
1.07549
 11
3.16397
 21
0.903152
  0
LINE
  8
0
 10
3.16397
 20
0.903152
 11
2.98534
 21
0.752136
  0
LINE
  8
0
 10
2.98534
 20
0.752136
 11
2.78598
 21
0.620819
  0
LINE
  8
0
 10
2.78598
 20
0.620819
 11
2.56386
 21
0.508713
  0
LINE
  8
0
 10
2.56386
 20
0.508713
 11
2.31683
 21
0.416016
  0
LINE
  8
0
 10
2.31683
 20
0.416016
 11
2.0435
 21
0.343506
  0
LINE
  8
0
 10
2.0435
 20
0.343506
 11
1.72249
 21
0.288818
  0
LINE
  8
0
 10
1.72249
 20
0.288818
 11
1.67795
 21
0.279114
  0
LINE
  8
0
 10
1.67795
 20
0.279114
 11
1.61841
 21
0.259201
  0
LINE
  8
0
 10
1.61841
 20
0.259201
 11
1.56183
 21
0.231979
  0
LINE
  8
0
 10
1.56183
 20
0.231979
 11
1.50909
 21
0.197876
  0
LINE
  8
0
 10
1.50909
 20
0.197876
 11
1.46106
 21
0.15744
  0
LINE
  8
0
 10
1.46106
 20
0.15744
 11
1.41847
 21
0.111298
  0
LINE
  8
0
 10
1.41847
 20
0.111298
 11
1.382
 21
0.0601959
  0
LINE
  8
0
 10
1.382
 20
0.0601959
 11
1.35223
 21
0.00491333
  0
LINE
  8
0
 10
1.35223
 20
0.00491333
 11
1.32962
 21
-0.0536652
  0
LINE
  8
0
 10
1.32962
 20
-0.0536652
 11
1.31453
 21
-0.114624
  0
LINE
  8
0
 10
1.31453
 20
-0.114624
 11
1.30719
 21
-0.176987
  0
LINE
  8
0
 10
1.30719
 20
-0.176987
 11
1.30774
 21
-0.239777
  0
LINE
  8
0
 10
1.30774
 20
-0.239777
 11
1.31613
 21
-0.302002
  0
LINE
  8
0
 10
1.31613
 20
-0.302002
 11
1.33228
 21
-0.362671
  0
LINE
  8
0
 10
1.33228
 20
-0.362671
 11
1.3559
 21
-0.420853
  0
LINE
  8
0
 10
1.3559
 20
-0.420853
 11
1.38661
 21
-0.475616
  0
LINE
  8
0
 10
1.38661
 20
-0.475616
 11
1.42395
 21
-0.526093
  0
LINE
  8
0
 10
1.42395
 20
-0.526093
 11
1.46733
 21
-0.571503
  0
LINE
  8
0
 10
1.46733
 20
-0.571503
 11
1.51605
 21
-0.611099
  0
LINE
  8
0
 10
1.51605
 20
-0.611099
 11
1.56935
 21
-0.644287
  0
LINE
  8
0
 10
1.56935
 20
-0.644287
 11
1.6264
 21
-0.670532
  0
LINE
  8
0
 10
1.6264
 20
-0.670532
 11
1.68628
 21
-0.689423
  0
LINE
  8
0
 10
1.68628
 20
-0.689423
 11
1.77481
 21
-0.711349
  0
LINE
  8
0
 10
1.77481
 20
-0.711349
 11
1.83932
 21
-0.73317
  0
LINE
  8
0
 10
1.83932
 20
-0.73317
 11
1.90077
 21
-0.759979
  0
LINE
  8
0
 10
1.90077
 20
-0.759979
 11
1.95926
 21
-0.791733
  0
LINE
  8
0
 10
1.95926
 20
-0.791733
 11
2.01624
 21
-0.829285
  0
LINE
  8
0
 10
2.01624
 20
-0.829285
 11
2.07193
 21
-0.873062
  0
LINE
  8
0
 10
2.07193
 20
-0.873062
 11
2.12538
 21
-0.922546
  0
LINE
  8
0
 10
2.12538
 20
-0.922546
 11
2.18236
 21
-0.98526
  0
LINE
  8
0
 10
2.18236
 20
-0.98526
 11
2.25177
 21
-1.07433
  0
LINE
  8
0
 10
2.25177
 20
-1.07433
 11
2.33228
 21
-1.19077
  0
LINE
  8
0
 10
2.33228
 20
-1.19077
 11
2.42194
 21
-1.3335
  0
LINE
  8
0
 10
2.42194
 20
-1.3335
 11
2.51935
 21
-1.50136
  0
LINE
  8
0
 10
2.51935
 20
-1.50136
 11
2.62343
 21
-1.6931
  0
LINE
  8
0
 10
2.62343
 20
-1.6931
 11
2.73599
 21
-1.91266
  0
LINE
  8
0
 10
2.73599
 20
-1.91266
 11
4.75076
 21
-5.91875
  0
LINE
  8
0
 10
4.75076
 20
-5.91875
 11
3.02098
 21
-5.91875
  0
LINE
  8
0
 10
3.02098
 20
-5.91875
 11
1.56995
 21
-2.88058
  0
LINE
  8
0
 10
1.56995
 20
-2.88058
 11
1.5668
 21
-2.87415
  0
LINE
  8
0
 10
1.5668
 20
-2.87415
 11
1.54701
 21
-2.83418
  0
LINE
  8
0
 10
1.54701
 20
-2.83418
 11
1.52524
 21
-2.78961
  0
LINE
  8
0
 10
1.52524
 20
-2.78961
 11
1.5006
 21
-2.73853
  0
LINE
  8
0
 10
1.5006
 20
-2.73853
 11
1.47574
 21
-2.68646
  0
LINE
  8
0
 10
1.47574
 20
-2.68646
 11
1.44748
 21
-2.62675
  0
LINE
  8
0
 10
1.44748
 20
-2.62675
 11
1.41814
 21
-2.56422
  0
LINE
  8
0
 10
1.41814
 20
-2.56422
 11
1.38681
 21
-2.49702
  0
LINE
  8
0
 10
1.38681
 20
-2.49702
 11
1.37793
 21
-2.47893
  0
LINE
  8
0
 10
1.37793
 20
-2.47893
 11
1.17392
 21
-2.08374
  0
LINE
  8
0
 10
1.17392
 20
-2.08374
 11
1.15071
 21
-2.04349
  0
LINE
  8
0
 10
1.15071
 20
-2.04349
 11
0.936615
 21
-1.70911
  0
LINE
  8
0
 10
0.936615
 20
-1.70911
 11
0.902283
 21
-1.66182
  0
LINE
  8
0
 10
0.902283
 20
-1.66182
 11
0.678116
 21
-1.38823
  0
LINE
  8
0
 10
0.678116
 20
-1.38823
 11
0.627579
 21
-1.33504
  0
LINE
  8
0
 10
0.627579
 20
-1.33504
 11
0.393341
 21
-1.12224
  0
LINE
  8
0
 10
0.393341
 20
-1.12224
 11
0.321259
 21
-1.06779
  0
LINE
  8
0
 10
0.321259
 20
-1.06779
 11
0.0769653
 21
-0.915802
  0
LINE
  8
0
 10
0.0769653
 20
-0.915802
 11
0.0392151
 21
-0.894516
  0
LINE
  8
0
 10
0.0392151
 20
-0.894516
 11
-0.0184479
 21
-0.869659
  0
LINE
  8
0
 10
-0.0184479
 20
-0.869659
 11
-0.272842
 21
-0.778473
  0
LINE
  8
0
 10
-0.272842
 20
-0.778473
 11
-0.322632
 21
-0.763489
  0
LINE
  8
0
 10
-0.322632
 20
-0.763489
 11
-0.384445
 21
-0.752411
  0
LINE
  8
0
 10
-0.384445
 20
-0.752411
 11
-0.648926
 21
-0.722
  0
LINE
  8
0
 10
-0.648926
 20
-0.722
 11
-0.706039
 21
-0.718735
  0
LINE
  8
0
 10
-0.706039
 20
-0.718735
 11
-1.53465
 21
-0.718735
  0
LINE
  8
0
 10
-1.53465
 20
-0.718735
 11
-1.62834
 21
-0.727585
  0
LINE
  8
0
 10
-1.62834
 20
-0.727585
 11
-1.68916
 21
-0.74321
  0
LINE
  8
0
 10
-1.68916
 20
-0.74321
 11
-1.74754
 21
-0.766327
  0
LINE
  8
0
 10
-1.74754
 20
-0.766327
 11
-1.80257
 21
-0.79657
  0
LINE
  8
0
 10
-1.80257
 20
-0.79657
 11
-1.85336
 21
-0.833481
  0
LINE
  8
0
 10
-1.85336
 20
-0.833481
 11
-1.89914
 21
-0.876465
  0
LINE
  8
0
 10
-1.89914
 20
-0.876465
 11
-1.93916
 21
-0.924835
  0
LINE
  8
0
 10
-1.93916
 20
-0.924835
 11
-1.97281
 21
-0.977859
  0
LINE
  8
0
 10
-1.97281
 20
-0.977859
 11
-1.99954
 21
-1.03467
  0
LINE
  8
0
 10
-1.99954
 20
-1.03467
 11
-2.01895
 21
-1.09439
  0
LINE
  8
0
 10
-2.01895
 20
-1.09439
 11
-2.03072
 21
-1.15607
  0
LINE
  8
0
 10
-2.03072
 20
-1.15607
 11
-2.03465
 21
-1.21873
  0
LINE
  8
0
 10
-2.03465
 20
-1.21873
 11
-2.03465
 21
-5.91875
  0
LINE
  8
0
 10
-2.03465
 20
-5.91875
 11
-3.6353
 21
-5.91875
  0
LINE
  8
0
 10
-0.294708
 20
0.46962
 11
-0.00227356
 21
0.478149
  0
LINE
  8
0
 10
-0.00227356
 20
0.478149
 11
0.0308075
 21
0.480209
  0
LINE
  8
0
 10
0.0308075
 20
0.480209
 11
0.298584
 21
0.505844
  0
LINE
  8
0
 10
0.298584
 20
0.505844
 11
0.337402
 21
0.511108
  0
LINE
  8
0
 10
0.337402
 20
0.511108
 11
0.580536
 21
0.553802
  0
LINE
  8
0
 10
0.580536
 20
0.553802
 11
0.626022
 21
0.563995
  0
LINE
  8
0
 10
0.626022
 20
0.563995
 11
0.844513
 21
0.623779
  0
LINE
  8
0
 10
0.844513
 20
0.623779
 11
0.896835
 21
0.641251
  0
LINE
  8
0
 10
0.896835
 20
0.641251
 11
1.09068
 21
0.718109
  0
LINE
  8
0
 10
1.09068
 20
0.718109
 11
1.14912
 21
0.745773
  0
LINE
  8
0
 10
1.14912
 20
0.745773
 11
1.31833
 21
0.839722
  0
LINE
  8
0
 10
1.31833
 20
0.839722
 11
1.38017
 21
0.880325
  0
LINE
  8
0
 10
1.38017
 20
0.880325
 11
1.52472
 21
0.991348
  0
LINE
  8
0
 10
1.52472
 20
0.991348
 11
1.58449
 21
1.04546
  0
LINE
  8
0
 10
1.58449
 20
1.04546
 11
1.70728
 21
1.1761
  0
LINE
  8
0
 10
1.70728
 20
1.1761
 11
1.75639
 21
1.23735
  0
LINE
  8
0
 10
1.75639
 20
1.23735
 11
1.86029
 21
1.39012
  0
LINE
  8
0
 10
1.86029
 20
1.39012
 11
1.89653
 21
1.45271
  0
LINE
  8
0
 10
1.89653
 20
1.45271
 11
1.98154
 21
1.62759
  0
LINE
  8
0
 10
1.98154
 20
1.62759
 11
2.00586
 21
1.68707
  0
LINE
  8
0
 10
2.00586
 20
1.68707
 11
2.07198
 21
1.88405
  0
LINE
  8
0
 10
2.07198
 20
1.88405
 11
2.08675
 21
1.93784
  0
LINE
  8
0
 10
2.08675
 20
1.93784
 11
2.13396
 21
2.15694
  0
LINE
  8
0
 10
2.13396
 20
2.15694
 11
2.14175
 21
2.20392
  0
LINE
  8
0
 10
2.14175
 20
2.20392
 11
2.17009
 21
2.44513
  0
LINE
  8
0
 10
2.17009
 20
2.44513
 11
2.17319
 21
2.48553
  0
LINE
  8
0
 10
2.17319
 20
2.48553
 11
2.18263
 21
2.74886
  0
LINE
  8
0
 10
2.18263
 20
2.74886
 11
2.18263
 21
2.78455
  0
LINE
  8
0
 10
2.18263
 20
2.78455
 11
2.17328
 21
3.04778
  0
LINE
  8
0
 10
2.17328
 20
3.04778
 11
2.17024
 21
3.08786
  0
LINE
  8
0
 10
2.17024
 20
3.08786
 11
2.14218
 21
3.32878
  0
LINE
  8
0
 10
2.14218
 20
3.32878
 11
2.13448
 21
3.37552
  0
LINE
  8
0
 10
2.13448
 20
3.37552
 11
2.08771
 21
3.59416
  0
LINE
  8
0
 10
2.08771
 20
3.59416
 11
2.07307
 21
3.6478
  0
LINE
  8
0
 10
2.07307
 20
3.6478
 11
2.00758
 21
3.84413
  0
LINE
  8
0
 10
2.00758
 20
3.84413
 11
1.98338
 21
3.90363
  0
LINE
  8
0
 10
1.98338
 20
3.90363
 11
1.8992
 21
4.07767
  0
LINE
  8
0
 10
1.8992
 20
4.07767
 11
1.8629
 21
4.14059
  0
LINE
  8
0
 10
1.8629
 20
4.14059
 11
1.75999
 21
4.29233
  0
LINE
  8
0
 10
1.75999
 20
4.29233
 11
1.71062
 21
4.35403
  0
LINE
  8
0
 10
1.71062
 20
4.35403
 11
1.589
 21
4.48349
  0
LINE
  8
0
 10
1.589
 20
4.48349
 11
1.52849
 21
4.53819
  0
LINE
  8
0
 10
1.52849
 20
4.53819
 11
1.38493
 21
4.64807
  0
LINE
  8
0
 10
1.38493
 20
4.64807
 11
1.32234
 21
4.68893
  0
LINE
  8
0
 10
1.32234
 20
4.68893
 11
1.15359
 21
4.78192
  0
LINE
  8
0
 10
1.15359
 20
4.78192
 11
1.09485
 21
4.80949
  0
LINE
  8
0
 10
1.09485
 20
4.80949
 11
0.900909
 21
4.88556
  0
LINE
  8
0
 10
0.900909
 20
4.88556
 11
0.848694
 21
4.90279
  0
LINE
  8
0
 10
0.848694
 20
4.90279
 11
0.629562
 21
4.96196
  0
LINE
  8
0
 10
0.629562
 20
4.96196
 11
0.584442
 21
4.97192
  0
LINE
  8
0
 10
0.584442
 20
4.97192
 11
0.340134
 21
5.01419
  0
LINE
  8
0
 10
0.340134
 20
5.01419
 11
0.301743
 21
5.01932
  0
LINE
  8
0
 10
0.301743
 20
5.01932
 11
0.0322571
 21
5.04468
  0
LINE
  8
0
 10
0.0322571
 20
5.04468
 11
-0.000244141
 21
5.04668
  0
LINE
  8
0
 10
-0.000244141
 20
5.04668
 11
-0.294937
 21
5.05513
  0
LINE
  8
0
 10
-0.294937
 20
5.05513
 11
-0.30928
 21
5.05533
  0
LINE
  8
0
 10
-0.30928
 20
5.05533
 11
-1.53465
 21
5.05533
  0
LINE
  8
0
 10
-1.53465
 20
5.05533
 11
-1.62834
 21
5.04648
  0
LINE
  8
0
 10
-1.62834
 20
5.04648
 11
-1.68916
 21
5.03085
  0
LINE
  8
0
 10
-1.68916
 20
5.03085
 11
-1.74754
 21
5.00774
  0
LINE
  8
0
 10
-1.74754
 20
5.00774
 11
-1.80257
 21
4.97749
  0
LINE
  8
0
 10
-1.80257
 20
4.97749
 11
-1.85336
 21
4.94058
  0
LINE
  8
0
 10
-1.85336
 20
4.94058
 11
-1.89914
 21
4.8976
  0
LINE
  8
0
 10
-1.89914
 20
4.8976
 11
-1.93916
 21
4.84923
  0
LINE
  8
0
 10
-1.93916
 20
4.84923
 11
-1.97281
 21
4.7962
  0
LINE
  8
0
 10
-1.97281
 20
4.7962
 11
-1.99954
 21
4.7394
  0
LINE
  8
0
 10
-1.99954
 20
4.7394
 11
-2.01895
 21
4.67967
  0
LINE
  8
0
 10
-2.01895
 20
4.67967
 11
-2.03072
 21
4.618
  0
LINE
  8
0
 10
-2.03072
 20
4.618
 11
-2.03465
 21
4.55533
  0
LINE
  8
0
 10
-2.03465
 20
4.55533
 11
-2.03465
 21
0.969406
  0
LINE
  8
0
 10
-2.03465
 20
0.969406
 11
-2.0258
 21
0.875717
  0
LINE
  8
0
 10
-2.0258
 20
0.875717
 11
-2.01018
 21
0.814896
  0
LINE
  8
0
 10
-2.01018
 20
0.814896
 11
-1.98706
 21
0.756516
  0
LINE
  8
0
 10
-1.98706
 20
0.756516
 11
-1.95682
 21
0.701492
  0
LINE
  8
0
 10
-1.95682
 20
0.701492
 11
-1.91991
 21
0.650696
  0
LINE
  8
0
 10
-1.91991
 20
0.650696
 11
-1.87692
 21
0.604919
  0
LINE
  8
0
 10
-1.87692
 20
0.604919
 11
-1.82855
 21
0.564896
  0
LINE
  8
0
 10
-1.82855
 20
0.564896
 11
-1.77553
 21
0.53125
  0
LINE
  8
0
 10
-1.77553
 20
0.53125
 11
-1.71872
 21
0.504517
  0
LINE
  8
0
 10
-1.71872
 20
0.504517
 11
-1.659
 21
0.485107
  0
LINE
  8
0
 10
-1.659
 20
0.485107
 11
-1.59732
 21
0.473343
  0
LINE
  8
0
 10
-1.59732
 20
0.473343
 11
-1.53465
 21
0.469406
  0
LINE
  8
0
 10
-1.53465
 20
0.469406
 11
-0.30928
 21
0.469406
  0
LINE
  8
0
 10
-0.30928
 20
0.469406
 11
-0.294708
 21
0.46962
  0
LINE
  8
0
 10
-1.53465
 20
0.969406
 11
-1.53465
 21
4.55533
  0
LINE
  8
0
 10
-1.53465
 20
4.55533
 11
-0.30928
 21
4.55533
  0
LINE
  8
0
 10
-0.30928
 20
4.55533
 11
-0.0145874
 21
4.54688
  0
LINE
  8
0
 10
-0.0145874
 20
4.54688
 11
0.254898
 21
4.52151
  0
LINE
  8
0
 10
0.254898
 20
4.52151
 11
0.499207
 21
4.47925
  0
LINE
  8
0
 10
0.499207
 20
4.47925
 11
0.718338
 21
4.42007
  0
LINE
  8
0
 10
0.718338
 20
4.42007
 11
0.912277
 21
4.34401
  0
LINE
  8
0
 10
0.912277
 20
4.34401
 11
1.08102
 21
4.25102
  0
LINE
  8
0
 10
1.08102
 20
4.25102
 11
1.22458
 21
4.14114
  0
LINE
  8
0
 10
1.22458
 20
4.14114
 11
1.34619
 21
4.01169
  0
LINE
  8
0
 10
1.34619
 20
4.01169
 11
1.4491
 21
3.85995
  0
LINE
  8
0
 10
1.4491
 20
3.85995
 11
1.53328
 21
3.68591
  0
LINE
  8
0
 10
1.53328
 20
3.68591
 11
1.59877
 21
3.48958
  0
LINE
  8
0
 10
1.59877
 20
3.48958
 11
1.64554
 21
3.27094
  0
LINE
  8
0
 10
1.64554
 20
3.27094
 11
1.6736
 21
3.03001
  0
LINE
  8
0
 10
1.6736
 20
3.03001
 11
1.68295
 21
2.76678
  0
LINE
  8
0
 10
1.68295
 20
2.76678
 11
1.67351
 21
2.50346
  0
LINE
  8
0
 10
1.67351
 20
2.50346
 11
1.64517
 21
2.26225
  0
LINE
  8
0
 10
1.64517
 20
2.26225
 11
1.59796
 21
2.04315
  0
LINE
  8
0
 10
1.59796
 20
2.04315
 11
1.53185
 21
1.84618
  0
LINE
  8
0
 10
1.53185
 20
1.84618
 11
1.44684
 21
1.6713
  0
LINE
  8
0
 10
1.44684
 20
1.6713
 11
1.34294
 21
1.51852
  0
LINE
  8
0
 10
1.34294
 20
1.51852
 11
1.22015
 21
1.38788
  0
LINE
  8
0
 10
1.22015
 20
1.38788
 11
1.07561
 21
1.27686
  0
LINE
  8
0
 10
1.07561
 20
1.27686
 11
0.906403
 21
1.18291
  0
LINE
  8
0
 10
0.906403
 20
1.18291
 11
0.712555
 21
1.10605
  0
LINE
  8
0
 10
0.712555
 20
1.10605
 11
0.494064
 21
1.04626
  0
LINE
  8
0
 10
0.494064
 20
1.04626
 11
0.250931
 21
1.00357
  0
LINE
  8
0
 10
0.250931
 20
1.00357
 11
-0.0168457
 21
0.977936
  0
LINE
  8
0
 10
-0.0168457
 20
0.977936
 11
-0.30928
 21
0.969406
  0
LINE
  8
0
 10
-0.30928
 20
0.969406
 11
-1.53465
 21
0.969406
  0
LINE
  8
0
 10
-12.2384
 20
-3.16562
 11
-8.75618
 21
-3.16562
  0
LINE
  8
0
 10
-8.75618
 20
-3.16562
 11
-7.94524
 21
-6.41875
  0
LINE
  8
0
 10
-7.94524
 20
-6.41875
 11
-5.34459
 21
-6.41875
  0
LINE
  8
0
 10
-5.34459
 20
-6.41875
 11
-8.89723
 21
6.74348
  0
LINE
  8
0
 10
-8.89723
 20
6.74348
 11
-12.0798
 21
6.74348
  0
LINE
  8
0
 10
-12.0798
 20
6.74348
 11
-15.6324
 21
-6.41875
  0
LINE
  8
0
 10
-15.6324
 20
-6.41875
 11
-13.0318
 21
-6.41875
  0
LINE
  8
0
 10
-13.0318
 20
-6.41875
 11
-12.2384
 21
-3.16562
  0
LINE
  8
0
 10
-14.9796
 20
-5.91875
 11
-11.6968
 21
6.24348
  0
LINE
  8
0
 10
-11.6968
 20
6.24348
 11
-9.28017
 21
6.24348
  0
LINE
  8
0
 10
-9.28017
 20
6.24348
 11
-5.99744
 21
-5.91875
  0
LINE
  8
0
 10
-5.99744
 20
-5.91875
 11
-7.55458
 21
-5.91875
  0
LINE
  8
0
 10
-7.55458
 20
-5.91875
 11
-8.27103
 21
-3.04468
  0
LINE
  8
0
 10
-8.27103
 20
-3.04468
 11
-8.28065
 21
-3.01111
  0
LINE
  8
0
 10
-8.28065
 20
-3.01111
 11
-8.30377
 21
-2.95273
  0
LINE
  8
0
 10
-8.30377
 20
-2.95273
 11
-8.33401
 21
-2.89771
  0
LINE
  8
0
 10
-8.33401
 20
-2.89771
 11
-8.37093
 21
-2.84691
  0
LINE
  8
0
 10
-8.37093
 20
-2.84691
 11
-8.41391
 21
-2.80113
  0
LINE
  8
0
 10
-8.41391
 20
-2.80113
 11
-8.46228
 21
-2.76111
  0
LINE
  8
0
 10
-8.46228
 20
-2.76111
 11
-8.5153
 21
-2.72746
  0
LINE
  8
0
 10
-8.5153
 20
-2.72746
 11
-8.57211
 21
-2.70073
  0
LINE
  8
0
 10
-8.57211
 20
-2.70073
 11
-8.63184
 21
-2.68132
  0
LINE
  8
0
 10
-8.63184
 20
-2.68132
 11
-8.69351
 21
-2.66956
  0
LINE
  8
0
 10
-8.69351
 20
-2.66956
 11
-8.75618
 21
-2.66562
  0
LINE
  8
0
 10
-8.75618
 20
-2.66562
 11
-12.2384
 21
-2.66562
  0
LINE
  8
0
 10
-12.2384
 20
-2.66562
 11
-12.2758
 21
-2.66702
  0
LINE
  8
0
 10
-12.2758
 20
-2.66702
 11
-12.338
 21
-2.67564
  0
LINE
  8
0
 10
-12.338
 20
-2.67564
 11
-12.3986
 21
-2.692
  0
LINE
  8
0
 10
-12.3986
 20
-2.692
 11
-12.4567
 21
-2.71582
  0
LINE
  8
0
 10
-12.4567
 20
-2.71582
 11
-12.5114
 21
-2.74673
  0
LINE
  8
0
 10
-12.5114
 20
-2.74673
 11
-12.5617
 21
-2.78426
  0
LINE
  8
0
 10
-12.5617
 20
-2.78426
 11
-12.607
 21
-2.82779
  0
LINE
  8
0
 10
-12.607
 20
-2.82779
 11
-12.6464
 21
-2.87665
  0
LINE
  8
0
 10
-12.6464
 20
-2.87665
 11
-12.6794
 21
-2.93007
  0
LINE
  8
0
 10
-12.6794
 20
-2.93007
 11
-12.7054
 21
-2.9872
  0
LINE
  8
0
 10
-12.7054
 20
-2.9872
 11
-12.7241
 21
-3.04715
  0
LINE
  8
0
 10
-12.7241
 20
-3.04715
 11
-13.4245
 21
-5.91875
  0
LINE
  8
0
 10
-13.4245
 20
-5.91875
 11
-14.9796
 21
-5.91875
  0
LINE
  8
0
 10
-9.17798
 20
-1.52081
 11
-9.11678
 21
-1.50681
  0
LINE
  8
0
 10
-9.11678
 20
-1.50681
 11
-9.0578
 21
-1.48523
  0
LINE
  8
0
 10
-9.0578
 20
-1.48523
 11
-9.002
 21
-1.45644
  0
LINE
  8
0
 10
-9.002
 20
-1.45644
 11
-8.95026
 21
-1.42087
  0
LINE
  8
0
 10
-8.95026
 20
-1.42087
 11
-8.90337
 21
-1.3791
  0
LINE
  8
0
 10
-8.90337
 20
-1.3791
 11
-8.86209
 21
-1.33179
  0
LINE
  8
0
 10
-8.86209
 20
-1.33179
 11
-8.82707
 21
-1.27966
  0
LINE
  8
0
 10
-8.82707
 20
-1.27966
 11
-8.79886
 21
-1.22357
  0
LINE
  8
0
 10
-8.79886
 20
-1.22357
 11
-8.77789
 21
-1.16438
  0
LINE
  8
0
 10
-8.77789
 20
-1.16438
 11
-8.76451
 21
-1.10304
  0
LINE
  8
0
 10
-8.76451
 20
-1.10304
 11
-8.75893
 21
-1.0405
  0
LINE
  8
0
 10
-8.75893
 20
-1.0405
 11
-8.76123
 21
-0.977753
  0
LINE
  8
0
 10
-8.76123
 20
-0.977753
 11
-8.77138
 21
-0.915787
  0
LINE
  8
0
 10
-8.77138
 20
-0.915787
 11
-10.0055
 21
4.47348
  0
LINE
  8
0
 10
-10.0055
 20
4.47348
 11
-10.0333
 21
4.55878
  0
LINE
  8
0
 10
-10.0333
 20
4.55878
 11
-10.0616
 21
4.61482
  0
LINE
  8
0
 10
-10.0616
 20
4.61482
 11
-10.0967
 21
4.66689
  0
LINE
  8
0
 10
-10.0967
 20
4.66689
 11
-10.138
 21
4.71414
  0
LINE
  8
0
 10
-10.138
 20
4.71414
 11
-10.185
 21
4.75583
  0
LINE
  8
0
 10
-10.185
 20
4.75583
 11
-10.2368
 21
4.79132
  0
LINE
  8
0
 10
-10.2368
 20
4.79132
 11
-10.2926
 21
4.82002
  0
LINE
  8
0
 10
-10.2926
 20
4.82002
 11
-10.3516
 21
4.84151
  0
LINE
  8
0
 10
-10.3516
 20
4.84151
 11
-10.4128
 21
4.85544
  0
LINE
  8
0
 10
-10.4128
 20
4.85544
 11
-10.4753
 21
4.86157
  0
LINE
  8
0
 10
-10.4753
 20
4.86157
 11
-10.5381
 21
4.85983
  0
LINE
  8
0
 10
-10.5381
 20
4.85983
 11
-10.6001
 21
4.85023
  0
LINE
  8
0
 10
-10.6001
 20
4.85023
 11
-10.6605
 21
4.83293
  0
LINE
  8
0
 10
-10.6605
 20
4.83293
 11
-10.7182
 21
4.80821
  0
LINE
  8
0
 10
-10.7182
 20
4.80821
 11
-10.7724
 21
4.77644
  0
LINE
  8
0
 10
-10.7724
 20
4.77644
 11
-10.8221
 21
4.73814
  0
LINE
  8
0
 10
-10.8221
 20
4.73814
 11
-10.8667
 21
4.69391
  0
LINE
  8
0
 10
-10.8667
 20
4.69391
 11
-10.9054
 21
4.64442
  0
LINE
  8
0
 10
-10.9054
 20
4.64442
 11
-10.9375
 21
4.5905
  0
LINE
  8
0
 10
-10.9375
 20
4.5905
 11
-10.9627
 21
4.53297
  0
LINE
  8
0
 10
-10.9627
 20
4.53297
 11
-10.9804
 21
4.47273
  0
LINE
  8
0
 10
-10.9804
 20
4.47273
 11
-12.2058
 21
-0.916534
  0
LINE
  8
0
 10
-12.2058
 20
-0.916534
 11
-12.2172
 21
-0.995987
  0
LINE
  8
0
 10
-12.2172
 20
-0.995987
 11
-12.2172
 21
-1.05879
  0
LINE
  8
0
 10
-12.2172
 20
-1.05879
 11
-12.2094
 21
-1.12108
  0
LINE
  8
0
 10
-12.2094
 20
-1.12108
 11
-12.1938
 21
-1.1819
  0
LINE
  8
0
 10
-12.1938
 20
-1.1819
 11
-12.1706
 21
-1.24028
  0
LINE
  8
0
 10
-12.1706
 20
-1.24028
 11
-12.1404
 21
-1.2953
  0
LINE
  8
0
 10
-12.1404
 20
-1.2953
 11
-12.1035
 21
-1.3461
  0
LINE
  8
0
 10
-12.1035
 20
-1.3461
 11
-12.0605
 21
-1.39188
  0
LINE
  8
0
 10
-12.0605
 20
-1.39188
 11
-12.0121
 21
-1.4319
  0
LINE
  8
0
 10
-12.0121
 20
-1.4319
 11
-11.9591
 21
-1.46555
  0
LINE
  8
0
 10
-11.9591
 20
-1.46555
 11
-11.9023
 21
-1.49228
  0
LINE
  8
0
 10
-11.9023
 20
-1.49228
 11
-11.8426
 21
-1.51169
  0
LINE
  8
0
 10
-11.8426
 20
-1.51169
 11
-11.7809
 21
-1.52345
  0
LINE
  8
0
 10
-11.7809
 20
-1.52345
 11
-11.7182
 21
-1.52739
  0
LINE
  8
0
 10
-11.7182
 20
-1.52739
 11
-9.25876
 21
-1.52739
  0
LINE
  8
0
 10
-9.25876
 20
-1.52739
 11
-9.17798
 21
-1.52081
  0
LINE
  8
0
 10
-11.7182
 20
-1.02739
 11
-10.4929
 21
4.36188
  0
LINE
  8
0
 10
-10.4929
 20
4.36188
 11
-9.25876
 21
-1.02739
  0
LINE
  8
0
 10
-9.25876
 20
-1.02739
 11
-11.7182
 21
-1.02739
  0
LINE
  8
0
 10
-22.8539
 20
-3.16562
 11
-19.3717
 21
-3.16562
  0
LINE
  8
0
 10
-19.3717
 20
-3.16562
 11
-18.5608
 21
-6.41875
  0
LINE
  8
0
 10
-18.5608
 20
-6.41875
 11
-15.9602
 21
-6.41875
  0
LINE
  8
0
 10
-15.9602
 20
-6.41875
 11
-19.5128
 21
6.74348
  0
LINE
  8
0
 10
-19.5128
 20
6.74348
 11
-22.6953
 21
6.74348
  0
LINE
  8
0
 10
-22.6953
 20
6.74348
 11
-26.248
 21
-6.41875
  0
LINE
  8
0
 10
-26.248
 20
-6.41875
 11
-23.6473
 21
-6.41875
  0
LINE
  8
0
 10
-23.6473
 20
-6.41875
 11
-22.8539
 21
-3.16562
  0
LINE
  8
0
 10
-25.5951
 20
-5.91875
 11
-22.3124
 21
6.24348
  0
LINE
  8
0
 10
-22.3124
 20
6.24348
 11
-19.8957
 21
6.24348
  0
LINE
  8
0
 10
-19.8957
 20
6.24348
 11
-16.613
 21
-5.91875
  0
LINE
  8
0
 10
-16.613
 20
-5.91875
 11
-18.1702
 21
-5.91875
  0
LINE
  8
0
 10
-18.1702
 20
-5.91875
 11
-18.8866
 21
-3.04468
  0
LINE
  8
0
 10
-18.8866
 20
-3.04468
 11
-18.8962
 21
-3.01111
  0
LINE
  8
0
 10
-18.8962
 20
-3.01111
 11
-18.9193
 21
-2.95273
  0
LINE
  8
0
 10
-18.9193
 20
-2.95273
 11
-18.9496
 21
-2.89771
  0
LINE
  8
0
 10
-18.9496
 20
-2.89771
 11
-18.9865
 21
-2.84691
  0
LINE
  8
0
 10
-18.9865
 20
-2.84691
 11
-19.0295
 21
-2.80113
  0
LINE
  8
0
 10
-19.0295
 20
-2.80113
 11
-19.0779
 21
-2.76111
  0
LINE
  8
0
 10
-19.0779
 20
-2.76111
 11
-19.1309
 21
-2.72746
  0
LINE
  8
0
 10
-19.1309
 20
-2.72746
 11
-19.1877
 21
-2.70073
  0
LINE
  8
0
 10
-19.1877
 20
-2.70073
 11
-19.2474
 21
-2.68132
  0
LINE
  8
0
 10
-19.2474
 20
-2.68132
 11
-19.3091
 21
-2.66956
  0
LINE
  8
0
 10
-19.3091
 20
-2.66956
 11
-19.3717
 21
-2.66562
  0
LINE
  8
0
 10
-19.3717
 20
-2.66562
 11
-22.8539
 21
-2.66562
  0
LINE
  8
0
 10
-22.8539
 20
-2.66562
 11
-22.8914
 21
-2.66702
  0
LINE
  8
0
 10
-22.8914
 20
-2.66702
 11
-22.9536
 21
-2.67564
  0
LINE
  8
0
 10
-22.9536
 20
-2.67564
 11
-23.0142
 21
-2.692
  0
LINE
  8
0
 10
-23.0142
 20
-2.692
 11
-23.0723
 21
-2.71582
  0
LINE
  8
0
 10
-23.0723
 20
-2.71582
 11
-23.1269
 21
-2.74673
  0
LINE
  8
0
 10
-23.1269
 20
-2.74673
 11
-23.1773
 21
-2.78426
  0
LINE
  8
0
 10
-23.1773
 20
-2.78426
 11
-23.2225
 21
-2.82779
  0
LINE
  8
0
 10
-23.2225
 20
-2.82779
 11
-23.262
 21
-2.87665
  0
LINE
  8
0
 10
-23.262
 20
-2.87665
 11
-23.295
 21
-2.93007
  0
LINE
  8
0
 10
-23.295
 20
-2.93007
 11
-23.321
 21
-2.9872
  0
LINE
  8
0
 10
-23.321
 20
-2.9872
 11
-23.3397
 21
-3.04715
  0
LINE
  8
0
 10
-23.3397
 20
-3.04715
 11
-24.04
 21
-5.91875
  0
LINE
  8
0
 10
-24.04
 20
-5.91875
 11
-25.5951
 21
-5.91875
  0
LINE
  8
0
 10
-19.7935
 20
-1.52081
 11
-19.7323
 21
-1.50681
  0
LINE
  8
0
 10
-19.7323
 20
-1.50681
 11
-19.6734
 21
-1.48523
  0
LINE
  8
0
 10
-19.6734
 20
-1.48523
 11
-19.6176
 21
-1.45644
  0
LINE
  8
0
 10
-19.6176
 20
-1.45644
 11
-19.5658
 21
-1.42087
  0
LINE
  8
0
 10
-19.5658
 20
-1.42087
 11
-19.5189
 21
-1.3791
  0
LINE
  8
0
 10
-19.5189
 20
-1.3791
 11
-19.4777
 21
-1.33179
  0
LINE
  8
0
 10
-19.4777
 20
-1.33179
 11
-19.4426
 21
-1.27966
  0
LINE
  8
0
 10
-19.4426
 20
-1.27966
 11
-19.4144
 21
-1.22357
  0
LINE
  8
0
 10
-19.4144
 20
-1.22357
 11
-19.3935
 21
-1.16438
  0
LINE
  8
0
 10
-19.3935
 20
-1.16438
 11
-19.3801
 21
-1.10304
  0
LINE
  8
0
 10
-19.3801
 20
-1.10304
 11
-19.3745
 21
-1.0405
  0
LINE
  8
0
 10
-19.3745
 20
-1.0405
 11
-19.3768
 21
-0.977753
  0
LINE
  8
0
 10
-19.3768
 20
-0.977753
 11
-19.3869
 21
-0.915787
  0
LINE
  8
0
 10
-19.3869
 20
-0.915787
 11
-20.621
 21
4.47348
  0
LINE
  8
0
 10
-20.621
 20
4.47348
 11
-20.6488
 21
4.55878
  0
LINE
  8
0
 10
-20.6488
 20
4.55878
 11
-20.6771
 21
4.61482
  0
LINE
  8
0
 10
-20.6771
 20
4.61482
 11
-20.7122
 21
4.66689
  0
LINE
  8
0
 10
-20.7122
 20
4.66689
 11
-20.7536
 21
4.71413
  0
LINE
  8
0
 10
-20.7536
 20
4.71413
 11
-20.8005
 21
4.75583
  0
LINE
  8
0
 10
-20.8005
 20
4.75583
 11
-20.8523
 21
4.79132
  0
LINE
  8
0
 10
-20.8523
 20
4.79132
 11
-20.9082
 21
4.82002
  0
LINE
  8
0
 10
-20.9082
 20
4.82002
 11
-20.9672
 21
4.84151
  0
LINE
  8
0
 10
-20.9672
 20
4.84151
 11
-21.0284
 21
4.85544
  0
LINE
  8
0
 10
-21.0284
 20
4.85544
 11
-21.0909
 21
4.86157
  0
LINE
  8
0
 10
-21.0909
 20
4.86157
 11
-21.1536
 21
4.85983
  0
LINE
  8
0
 10
-21.1536
 20
4.85983
 11
-21.2157
 21
4.85023
  0
LINE
  8
0
 10
-21.2157
 20
4.85023
 11
-21.2761
 21
4.83293
  0
LINE
  8
0
 10
-21.2761
 20
4.83293
 11
-21.3338
 21
4.80821
  0
LINE
  8
0
 10
-21.3338
 20
4.80821
 11
-21.3879
 21
4.77644
  0
LINE
  8
0
 10
-21.3879
 20
4.77644
 11
-21.4377
 21
4.73814
  0
LINE
  8
0
 10
-21.4377
 20
4.73814
 11
-21.4823
 21
4.69391
  0
LINE
  8
0
 10
-21.4823
 20
4.69391
 11
-21.5209
 21
4.64442
  0
LINE
  8
0
 10
-21.5209
 20
4.64442
 11
-21.5531
 21
4.5905
  0
LINE
  8
0
 10
-21.5531
 20
4.5905
 11
-21.5782
 21
4.53297
  0
LINE
  8
0
 10
-21.5782
 20
4.53297
 11
-21.596
 21
4.47273
  0
LINE
  8
0
 10
-21.596
 20
4.47273
 11
-22.8214
 21
-0.916534
  0
LINE
  8
0
 10
-22.8214
 20
-0.916534
 11
-22.8328
 21
-0.995987
  0
LINE
  8
0
 10
-22.8328
 20
-0.995987
 11
-22.8328
 21
-1.05879
  0
LINE
  8
0
 10
-22.8328
 20
-1.05879
 11
-22.825
 21
-1.12108
  0
LINE
  8
0
 10
-22.825
 20
-1.12108
 11
-22.8093
 21
-1.1819
  0
LINE
  8
0
 10
-22.8093
 20
-1.1819
 11
-22.7862
 21
-1.24028
  0
LINE
  8
0
 10
-22.7862
 20
-1.24028
 11
-22.756
 21
-1.2953
  0
LINE
  8
0
 10
-22.756
 20
-1.2953
 11
-22.7191
 21
-1.3461
  0
LINE
  8
0
 10
-22.7191
 20
-1.3461
 11
-22.6761
 21
-1.39188
  0
LINE
  8
0
 10
-22.6761
 20
-1.39188
 11
-22.6277
 21
-1.4319
  0
LINE
  8
0
 10
-22.6277
 20
-1.4319
 11
-22.5747
 21
-1.46555
  0
LINE
  8
0
 10
-22.5747
 20
-1.46555
 11
-22.5179
 21
-1.49228
  0
LINE
  8
0
 10
-22.5179
 20
-1.49228
 11
-22.4581
 21
-1.51169
  0
LINE
  8
0
 10
-22.4581
 20
-1.51169
 11
-22.3965
 21
-1.52345
  0
LINE
  8
0
 10
-22.3965
 20
-1.52345
 11
-22.3338
 21
-1.52739
  0
LINE
  8
0
 10
-22.3338
 20
-1.52739
 11
-19.8743
 21
-1.52739
  0
LINE
  8
0
 10
-19.8743
 20
-1.52739
 11
-19.7935
 21
-1.52081
  0
LINE
  8
0
 10
-22.3338
 20
-1.02739
 11
-21.1084
 21
4.36188
  0
LINE
  8
0
 10
-21.1084
 20
4.36188
 11
-19.8743
 21
-1.02739
  0
LINE
  8
0
 10
-19.8743
 20
-1.02739
 11
-22.3338
 21
-1.02739
  0
LINE
  8
0
 10
19.2645
 20
3.14651
 11
22.9494
 21
-6.41875
  0
LINE
  8
0
 10
22.9494
 20
-6.41875
 11
25.7264
 21
-6.41875
  0
LINE
  8
0
 10
25.7264
 20
-6.41875
 11
25.7264
 21
6.74348
  0
LINE
  8
0
 10
25.7264
 20
6.74348
 11
23.4342
 21
6.74348
  0
LINE
  8
0
 10
23.4342
 20
6.74348
 11
23.4342
 21
-2.82178
  0
LINE
  8
0
 10
23.4342
 20
-2.82178
 11
19.7669
 21
6.74348
  0
LINE
  8
0
 10
19.7669
 20
6.74348
 11
16.9724
 21
6.74348
  0
LINE
  8
0
 10
16.9724
 20
6.74348
 11
16.9724
 21
-6.41875
  0
LINE
  8
0
 10
16.9724
 20
-6.41875
 11
19.2645
 21
-6.41875
  0
LINE
  8
0
 10
19.2645
 20
-6.41875
 11
19.2645
 21
3.14651
  0
LINE
  8
0
 10
17.4724
 20
-5.91875
 11
17.4724
 21
6.24348
  0
LINE
  8
0
 10
17.4724
 20
6.24348
 11
19.4231
 21
6.24348
  0
LINE
  8
0
 10
19.4231
 20
6.24348
 11
22.9674
 21
-3.00078
  0
LINE
  8
0
 10
22.9674
 20
-3.00078
 11
22.9961
 21
-3.06265
  0
LINE
  8
0
 10
22.9961
 20
-3.06265
 11
23.0297
 21
-3.11568
  0
LINE
  8
0
 10
23.0297
 20
-3.11568
 11
23.0697
 21
-3.16405
  0
LINE
  8
0
 10
23.0697
 20
-3.16405
 11
23.1155
 21
-3.20703
  0
LINE
  8
0
 10
23.1155
 20
-3.20703
 11
23.1663
 21
-3.24394
  0
LINE
  8
0
 10
23.1663
 20
-3.24394
 11
23.2213
 21
-3.27419
  0
LINE
  8
0
 10
23.2213
 20
-3.27419
 11
23.2797
 21
-3.2973
  0
LINE
  8
0
 10
23.2797
 20
-3.2973
 11
23.3405
 21
-3.31293
  0
LINE
  8
0
 10
23.3405
 20
-3.31293
 11
23.4028
 21
-3.32079
  0
LINE
  8
0
 10
23.4028
 20
-3.32079
 11
23.4656
 21
-3.32079
  0
LINE
  8
0
 10
23.4656
 20
-3.32079
 11
23.5279
 21
-3.31293
  0
LINE
  8
0
 10
23.5279
 20
-3.31293
 11
23.5887
 21
-3.2973
  0
LINE
  8
0
 10
23.5887
 20
-3.2973
 11
23.6471
 21
-3.27419
  0
LINE
  8
0
 10
23.6471
 20
-3.27419
 11
23.7021
 21
-3.24394
  0
LINE
  8
0
 10
23.7021
 20
-3.24394
 11
23.7529
 21
-3.20703
  0
LINE
  8
0
 10
23.7529
 20
-3.20703
 11
23.7987
 21
-3.16405
  0
LINE
  8
0
 10
23.7987
 20
-3.16405
 11
23.8387
 21
-3.11568
  0
LINE
  8
0
 10
23.8387
 20
-3.11568
 11
23.8724
 21
-3.06265
  0
LINE
  8
0
 10
23.8724
 20
-3.06265
 11
23.8991
 21
-3.00584
  0
LINE
  8
0
 10
23.8991
 20
-3.00584
 11
23.9185
 21
-2.94612
  0
LINE
  8
0
 10
23.9185
 20
-2.94612
 11
23.9303
 21
-2.88445
  0
LINE
  8
0
 10
23.9303
 20
-2.88445
 11
23.9342
 21
-2.82178
  0
LINE
  8
0
 10
23.9342
 20
-2.82178
 11
23.9342
 21
6.24348
  0
LINE
  8
0
 10
23.9342
 20
6.24348
 11
25.2264
 21
6.24348
  0
LINE
  8
0
 10
25.2264
 20
6.24348
 11
25.2264
 21
-5.91875
  0
LINE
  8
0
 10
25.2264
 20
-5.91875
 11
23.2926
 21
-5.91875
  0
LINE
  8
0
 10
23.2926
 20
-5.91875
 11
19.731
 21
3.32626
  0
LINE
  8
0
 10
19.731
 20
3.32626
 11
19.7026
 21
3.38739
  0
LINE
  8
0
 10
19.7026
 20
3.38739
 11
19.669
 21
3.44041
  0
LINE
  8
0
 10
19.669
 20
3.44041
 11
19.629
 21
3.48878
  0
LINE
  8
0
 10
19.629
 20
3.48878
 11
19.5832
 21
3.53177
  0
LINE
  8
0
 10
19.5832
 20
3.53177
 11
19.5324
 21
3.56868
  0
LINE
  8
0
 10
19.5324
 20
3.56868
 11
19.4774
 21
3.59892
  0
LINE
  8
0
 10
19.4774
 20
3.59892
 11
19.419
 21
3.62204
  0
LINE
  8
0
 10
19.419
 20
3.62204
 11
19.3582
 21
3.63766
  0
LINE
  8
0
 10
19.3582
 20
3.63766
 11
19.2959
 21
3.64552
  0
LINE
  8
0
 10
19.2959
 20
3.64552
 11
19.2331
 21
3.64552
  0
LINE
  8
0
 10
19.2331
 20
3.64552
 11
19.1708
 21
3.63766
  0
LINE
  8
0
 10
19.1708
 20
3.63766
 11
19.11
 21
3.62204
  0
LINE
  8
0
 10
19.11
 20
3.62204
 11
19.0516
 21
3.59892
  0
LINE
  8
0
 10
19.0516
 20
3.59892
 11
18.9966
 21
3.56868
  0
LINE
  8
0
 10
18.9966
 20
3.56868
 11
18.9458
 21
3.53177
  0
LINE
  8
0
 10
18.9458
 20
3.53177
 11
18.9
 21
3.48878
  0
LINE
  8
0
 10
18.9
 20
3.48878
 11
18.86
 21
3.44041
  0
LINE
  8
0
 10
18.86
 20
3.44041
 11
18.8263
 21
3.38739
  0
LINE
  8
0
 10
18.8263
 20
3.38739
 11
18.7996
 21
3.33058
  0
LINE
  8
0
 10
18.7996
 20
3.33058
 11
18.7802
 21
3.27086
  0
LINE
  8
0
 10
18.7802
 20
3.27086
 11
18.7684
 21
3.20918
  0
LINE
  8
0
 10
18.7684
 20
3.20918
 11
18.7645
 21
3.14651
  0
LINE
  8
0
 10
18.7645
 20
3.14651
 11
18.7645
 21
-5.91875
  0
LINE
  8
0
 10
18.7645
 20
-5.91875
 11
17.4724
 21
-5.91875
  0
ENDSEC
  0
SECTION
  2
OBJECTS
  0
DICTIONARY
  0
ENDSEC
  0
EOF
