  0
SECTION
  2
BLOCKS
  0
ENDSEC
  0
SECTION
  2
ENTITIES
  0
LINE
  8
0
 10
8.10962
 20
-6.62233
 11
8.48981
 21
-6.60751
  0
LINE
  8
0
 10
8.48981
 20
-6.60751
 11
8.86436
 21
-6.58281
  0
LINE
  8
0
 10
8.86436
 20
-6.58281
 11
9.23326
 21
-6.54823
  0
LINE
  8
0
 10
9.23326
 20
-6.54823
 11
9.59651
 21
-6.50377
  0
LINE
  8
0
 10
9.59651
 20
-6.50377
 11
9.95412
 21
-6.44942
  0
LINE
  8
0
 10
9.95412
 20
-6.44942
 11
10.3061
 21
-6.38519
  0
LINE
  8
0
 10
10.3061
 20
-6.38519
 11
10.6543
 21
-6.31108
  0
LINE
  8
0
 10
10.6543
 20
-6.31108
 11
11.0006
 21
-6.2271
  0
LINE
  8
0
 10
11.0006
 20
-6.2271
 11
11.345
 21
-6.13322
  0
LINE
  8
0
 10
11.345
 20
-6.13322
 11
11.6876
 21
-6.02948
  0
LINE
  8
0
 10
11.6876
 20
-6.02948
 11
12.0282
 21
-5.91585
  0
LINE
  8
0
 10
12.0282
 20
-5.91585
 11
12.367
 21
-5.79234
  0
LINE
  8
0
 10
12.367
 20
-5.79234
 11
12.7039
 21
-5.65895
  0
LINE
  8
0
 10
12.7039
 20
-5.65895
 11
12.7039
 21
-2.55815
  0
LINE
  8
0
 10
12.7039
 20
-2.55815
 11
12.3536
 21
-2.75732
  0
LINE
  8
0
 10
12.3536
 20
-2.75732
 11
12.0075
 21
-2.94054
  0
LINE
  8
0
 10
12.0075
 20
-2.94054
 11
11.6657
 21
-3.10777
  0
LINE
  8
0
 10
11.6657
 20
-3.10777
 11
11.328
 21
-3.25905
  0
LINE
  8
0
 10
11.328
 20
-3.25905
 11
10.9947
 21
-3.39436
  0
LINE
  8
0
 10
10.9947
 20
-3.39436
 11
10.6655
 21
-3.5137
  0
LINE
  8
0
 10
10.6655
 20
-3.5137
 11
10.3406
 21
-3.61708
  0
LINE
  8
0
 10
10.3406
 20
-3.61708
 11
10.0171
 21
-3.70561
  0
LINE
  8
0
 10
10.0171
 20
-3.70561
 11
9.69223
 21
-3.78053
  0
LINE
  8
0
 10
9.69223
 20
-3.78053
 11
9.36594
 21
-3.84183
  0
LINE
  8
0
 10
9.36594
 20
-3.84183
 11
9.03822
 21
-3.8895
  0
LINE
  8
0
 10
9.03822
 20
-3.8895
 11
8.70911
 21
-3.92355
  0
LINE
  8
0
 10
8.70911
 20
-3.92355
 11
8.37856
 21
-3.94398
  0
LINE
  8
0
 10
8.37856
 20
-3.94398
 11
8.0466
 21
-3.95079
  0
LINE
  8
0
 10
8.0466
 20
-3.95079
 11
7.56055
 21
-3.93553
  0
LINE
  8
0
 10
7.56055
 20
-3.93553
 11
7.11026
 21
-3.88976
  0
LINE
  8
0
 10
7.11026
 20
-3.88976
 11
6.69571
 21
-3.81346
  0
LINE
  8
0
 10
6.69571
 20
-3.81346
 11
6.31693
 21
-3.70667
  0
LINE
  8
0
 10
6.31693
 20
-3.70667
 11
5.97391
 21
-3.56934
  0
LINE
  8
0
 10
5.97391
 20
-3.56934
 11
5.66663
 21
-3.40149
  0
LINE
  8
0
 10
5.66663
 20
-3.40149
 11
5.39511
 21
-3.20312
  0
LINE
  8
0
 10
5.39511
 20
-3.20312
 11
5.15939
 21
-2.97379
  0
LINE
  8
0
 10
5.15939
 20
-2.97379
 11
4.95944
 21
-2.71298
  0
LINE
  8
0
 10
4.95944
 20
-2.71298
 11
4.79524
 21
-2.42072
  0
LINE
  8
0
 10
4.79524
 20
-2.42072
 11
4.66679
 21
-2.09698
  0
LINE
  8
0
 10
4.66679
 20
-2.09698
 11
4.5741
 21
-1.74179
  0
LINE
  8
0
 10
4.5741
 20
-1.74179
 11
4.51717
 21
-1.35515
  0
LINE
  8
0
 10
4.51717
 20
-1.35515
 11
4.49599
 21
-0.937027
  0
LINE
  8
0
 10
4.49599
 20
-0.937027
 11
13.2459
 21
-0.937027
  0
LINE
  8
0
 10
13.2459
 20
-0.937027
 11
13.2459
 21
0.434174
  0
LINE
  8
0
 10
13.2459
 20
0.434174
 11
13.2135
 21
1.28917
  0
LINE
  8
0
 10
13.2135
 20
1.28917
 11
13.1165
 21
2.08742
  0
LINE
  8
0
 10
13.1165
 20
2.08742
 11
12.9547
 21
2.82892
  0
LINE
  8
0
 10
12.9547
 20
2.82892
 11
12.7283
 21
3.51369
  0
LINE
  8
0
 10
12.7283
 20
3.51369
 11
12.4372
 21
4.14169
  0
LINE
  8
0
 10
12.4372
 20
4.14169
 11
12.0813
 21
4.71297
  0
LINE
  8
0
 10
12.0813
 20
4.71297
 11
11.6608
 21
5.22749
  0
LINE
  8
0
 10
11.6608
 20
5.22749
 11
11.1817
 21
5.67897
  0
LINE
  8
0
 10
11.1817
 20
5.67897
 11
10.6501
 21
6.06097
  0
LINE
  8
0
 10
10.6501
 20
6.06097
 11
10.066
 21
6.37354
  0
LINE
  8
0
 10
10.066
 20
6.37354
 11
9.42952
 21
6.61664
  0
LINE
  8
0
 10
9.42952
 20
6.61664
 11
8.74051
 21
6.79028
  0
LINE
  8
0
 10
8.74051
 20
6.79028
 11
7.99904
 21
6.89447
  0
LINE
  8
0
 10
7.99904
 20
6.89447
 11
7.20511
 21
6.9292
  0
LINE
  8
0
 10
7.20511
 20
6.9292
 11
6.416
 21
6.89178
  0
LINE
  8
0
 10
6.416
 20
6.89178
 11
5.67584
 21
6.77957
  0
LINE
  8
0
 10
5.67584
 20
6.77957
 11
4.98462
 21
6.59253
  0
LINE
  8
0
 10
4.98462
 20
6.59253
 11
4.34233
 21
6.33069
  0
LINE
  8
0
 10
4.34233
 20
6.33069
 11
3.74898
 21
5.99402
  0
LINE
  8
0
 10
3.74898
 20
5.99402
 11
3.20457
 21
5.58255
  0
LINE
  8
0
 10
3.20457
 20
5.58255
 11
2.70911
 21
5.09625
  0
LINE
  8
0
 10
2.70911
 20
5.09625
 11
2.27176
 21
4.54555
  0
LINE
  8
0
 10
2.27176
 20
4.54555
 11
1.90169
 21
3.94072
  0
LINE
  8
0
 10
1.90169
 20
3.94072
 11
1.59891
 21
3.28178
  0
LINE
  8
0
 10
1.59891
 20
3.28178
 11
1.3634
 21
2.56874
  0
LINE
  8
0
 10
1.3634
 20
2.56874
 11
1.19519
 21
1.80156
  0
LINE
  8
0
 10
1.19519
 20
1.80156
 11
1.09427
 21
0.980286
  0
LINE
  8
0
 10
1.09427
 20
0.980286
 11
1.06062
 21
0.104889
  0
LINE
  8
0
 10
1.06062
 20
0.104889
 11
1.09557
 21
-0.796021
  0
LINE
  8
0
 10
1.09557
 20
-0.796021
 11
1.20036
 21
-1.6346
  0
LINE
  8
0
 10
1.20036
 20
-1.6346
 11
1.37505
 21
-2.41084
  0
LINE
  8
0
 10
1.37505
 20
-2.41084
 11
1.61961
 21
-3.12474
  0
LINE
  8
0
 10
1.61961
 20
-3.12474
 11
1.93404
 21
-3.77631
  0
LINE
  8
0
 10
1.93404
 20
-3.77631
 11
2.31834
 21
-4.36554
  0
LINE
  8
0
 10
2.31834
 20
-4.36554
 11
2.77252
 21
-4.89243
  0
LINE
  8
0
 10
2.77252
 20
-4.89243
 11
3.29282
 21
-5.35269
  0
LINE
  8
0
 10
3.29282
 20
-5.35269
 11
3.87544
 21
-5.74214
  0
LINE
  8
0
 10
3.87544
 20
-5.74214
 11
4.52042
 21
-6.06079
  0
LINE
  8
0
 10
4.52042
 20
-6.06079
 11
5.22774
 21
-6.30862
  0
LINE
  8
0
 10
5.22774
 20
-6.30862
 11
5.99741
 21
-6.48566
  0
LINE
  8
0
 10
5.99741
 20
-6.48566
 11
6.82942
 21
-6.59187
  0
LINE
  8
0
 10
6.82942
 20
-6.59187
 11
7.72377
 21
-6.62727
  0
LINE
  8
0
 10
7.72377
 20
-6.62727
 11
8.10962
 21
-6.62233
  0
LINE
  8
0
 10
6.87108
 20
-6.09314
 11
6.08531
 21
-5.99283
  0
LINE
  8
0
 10
6.08531
 20
-5.99283
 11
5.36691
 21
-5.82759
  0
LINE
  8
0
 10
5.36691
 20
-5.82759
 11
4.71449
 21
-5.59898
  0
LINE
  8
0
 10
4.71449
 20
-5.59898
 11
4.12617
 21
-5.30833
  0
LINE
  8
0
 10
4.12617
 20
-5.30833
 11
3.59877
 21
-4.9558
  0
LINE
  8
0
 10
3.59877
 20
-4.9558
 11
3.12921
 21
-4.54041
  0
LINE
  8
0
 10
3.12921
 20
-4.54041
 11
2.71883
 21
-4.06433
  0
LINE
  8
0
 10
2.71883
 20
-4.06433
 11
2.37042
 21
-3.53012
  0
LINE
  8
0
 10
2.37042
 20
-3.53012
 11
2.0829
 21
-2.93431
  0
LINE
  8
0
 10
2.0829
 20
-2.93431
 11
1.8569
 21
-2.27463
  0
LINE
  8
0
 10
1.8569
 20
-2.27463
 11
1.69348
 21
-1.54842
  0
LINE
  8
0
 10
1.69348
 20
-1.54842
 11
1.59436
 21
-0.755219
  0
LINE
  8
0
 10
1.59436
 20
-0.755219
 11
1.56099
 21
0.104874
  0
LINE
  8
0
 10
1.56099
 20
0.104874
 11
1.59309
 21
0.940201
  0
LINE
  8
0
 10
1.59309
 20
0.940201
 11
1.68858
 21
1.71724
  0
LINE
  8
0
 10
1.68858
 20
1.71724
 11
1.84628
 21
2.43645
  0
LINE
  8
0
 10
1.84628
 20
2.43645
 11
2.06493
 21
3.09845
  0
LINE
  8
0
 10
2.06493
 20
3.09845
 11
2.34366
 21
3.70505
  0
LINE
  8
0
 10
2.34366
 20
3.70505
 11
2.68234
 21
4.25859
  0
LINE
  8
0
 10
2.68234
 20
4.25859
 11
3.08136
 21
4.76102
  0
LINE
  8
0
 10
3.08136
 20
4.76102
 11
3.53181
 21
5.20314
  0
LINE
  8
0
 10
3.53181
 20
5.20314
 11
4.02425
 21
5.57532
  0
LINE
  8
0
 10
4.02425
 20
5.57532
 11
4.56105
 21
5.87991
  0
LINE
  8
0
 10
4.56105
 20
5.87991
 11
5.1449
 21
6.11792
  0
LINE
  8
0
 10
5.1449
 20
6.11792
 11
5.77885
 21
6.28947
  0
LINE
  8
0
 10
5.77885
 20
6.28947
 11
6.46552
 21
6.39357
  0
LINE
  8
0
 10
6.46552
 20
6.39357
 11
7.20593
 21
6.42868
  0
LINE
  8
0
 10
7.20593
 20
6.42868
 11
7.95329
 21
6.39598
  0
LINE
  8
0
 10
7.95329
 20
6.39598
 11
8.64438
 21
6.29887
  0
LINE
  8
0
 10
8.64438
 20
6.29887
 11
9.27872
 21
6.13902
  0
LINE
  8
0
 10
9.27872
 20
6.13902
 11
9.85802
 21
5.91777
  0
LINE
  8
0
 10
9.85802
 20
5.91777
 11
10.3851
 21
5.6357
  0
LINE
  8
0
 10
10.3851
 20
5.6357
 11
10.8629
 21
5.29233
  0
LINE
  8
0
 10
10.8629
 20
5.29233
 11
11.2942
 21
4.88589
  0
LINE
  8
0
 10
11.2942
 20
4.88589
 11
11.6739
 21
4.4214
  0
LINE
  8
0
 10
11.6739
 20
4.4214
 11
11.9965
 21
3.90344
  0
LINE
  8
0
 10
11.9965
 20
3.90344
 11
12.2626
 21
3.32941
  0
LINE
  8
0
 10
12.2626
 20
3.32941
 11
12.4718
 21
2.69676
  0
LINE
  8
0
 10
12.4718
 20
2.69676
 11
12.623
 21
2.00375
  0
LINE
  8
0
 10
12.623
 20
2.00375
 11
12.7147
 21
1.24963
  0
LINE
  8
0
 10
12.7147
 20
1.24963
 11
12.7459
 21
0.424545
  0
LINE
  8
0
 10
12.7459
 20
0.424545
 11
12.7459
 21
-0.437027
  0
LINE
  8
0
 10
12.7459
 20
-0.437027
 11
4.49599
 21
-0.437027
  0
LINE
  8
0
 10
4.49599
 20
-0.437027
 11
4.43939
 21
-0.440247
  0
LINE
  8
0
 10
4.43939
 20
-0.440247
 11
4.37756
 21
-0.451248
  0
LINE
  8
0
 10
4.37756
 20
-0.451248
 11
4.31763
 21
-0.469925
  0
LINE
  8
0
 10
4.31763
 20
-0.469925
 11
4.26048
 21
-0.495956
  0
LINE
  8
0
 10
4.26048
 20
-0.495956
 11
4.20706
 21
-0.528961
  0
LINE
  8
0
 10
4.20706
 20
-0.528961
 11
4.15819
 21
-0.56839
  0
LINE
  8
0
 10
4.15819
 20
-0.56839
 11
4.11465
 21
-0.613632
  0
LINE
  8
0
 10
4.11465
 20
-0.613632
 11
4.07713
 21
-0.663971
  0
LINE
  8
0
 10
4.07713
 20
-0.663971
 11
4.0462
 21
-0.718628
  0
LINE
  8
0
 10
4.0462
 20
-0.718628
 11
4.02238
 21
-0.776718
  0
LINE
  8
0
 10
4.02238
 20
-0.776718
 11
4.00603
 21
-0.837341
  0
LINE
  8
0
 10
4.00603
 20
-0.837341
 11
3.99739
 21
-0.899536
  0
LINE
  8
0
 10
3.99739
 20
-0.899536
 11
3.99663
 21
-0.962326
  0
LINE
  8
0
 10
3.99663
 20
-0.962326
 11
4.01781
 21
-1.38045
  0
LINE
  8
0
 10
4.01781
 20
-1.38045
 11
4.02251
 21
-1.42798
  0
LINE
  8
0
 10
4.02251
 20
-1.42798
 11
4.07944
 21
-1.81462
  0
LINE
  8
0
 10
4.07944
 20
-1.81462
 11
4.0903
 21
-1.86806
  0
LINE
  8
0
 10
4.0903
 20
-1.86806
 11
4.183
 21
-2.22325
  0
LINE
  8
0
 10
4.183
 20
-2.22325
 11
4.20204
 21
-2.28139
  0
LINE
  8
0
 10
4.20204
 20
-2.28139
 11
4.33049
 21
-2.60512
  0
LINE
  8
0
 10
4.33049
 20
-2.60512
 11
4.35933
 21
-2.66562
  0
LINE
  8
0
 10
4.35933
 20
-2.66562
 11
4.52353
 21
-2.95789
  0
LINE
  8
0
 10
4.52353
 20
-2.95789
 11
4.56264
 21
-3.0172
  0
LINE
  8
0
 10
4.56264
 20
-3.0172
 11
4.76259
 21
-3.278
  0
LINE
  8
0
 10
4.76259
 20
-3.278
 11
4.81071
 21
-3.33215
  0
LINE
  8
0
 10
4.81071
 20
-3.33215
 11
5.04643
 21
-3.56149
  0
LINE
  8
0
 10
5.04643
 20
-3.56149
 11
5.10016
 21
-3.60686
  0
LINE
  8
0
 10
5.10016
 20
-3.60686
 11
5.37167
 21
-3.80522
  0
LINE
  8
0
 10
5.37167
 20
-3.80522
 11
5.42694
 21
-3.84029
  0
LINE
  8
0
 10
5.42694
 20
-3.84029
 11
5.73422
 21
-4.00813
  0
LINE
  8
0
 10
5.73422
 20
-4.00813
 11
5.78807
 21
-4.03352
  0
LINE
  8
0
 10
5.78807
 20
-4.03352
 11
6.13109
 21
-4.17085
  0
LINE
  8
0
 10
6.13109
 20
-4.17085
 11
6.18124
 21
-4.1879
  0
LINE
  8
0
 10
6.18124
 20
-4.1879
 11
6.56003
 21
-4.29469
  0
LINE
  8
0
 10
6.56003
 20
-4.29469
 11
6.60521
 21
-4.30521
  0
LINE
  8
0
 10
6.60521
 20
-4.30521
 11
7.01976
 21
-4.3815
  0
LINE
  8
0
 10
7.01976
 20
-4.3815
 11
7.05969
 21
-4.38719
  0
LINE
  8
0
 10
7.05969
 20
-4.38719
 11
7.50998
 21
-4.43297
  0
LINE
  8
0
 10
7.50998
 20
-4.43297
 11
7.54486
 21
-4.43529
  0
LINE
  8
0
 10
7.54486
 20
-4.43529
 11
8.03091
 21
-4.45055
  0
LINE
  8
0
 10
8.03091
 20
-4.45055
 11
8.05685
 21
-4.45068
  0
LINE
  8
0
 10
8.05685
 20
-4.45068
 11
8.38881
 21
-4.44388
  0
LINE
  8
0
 10
8.38881
 20
-4.44388
 11
8.40941
 21
-4.44304
  0
LINE
  8
0
 10
8.40941
 20
-4.44304
 11
8.73996
 21
-4.42261
  0
LINE
  8
0
 10
8.73996
 20
-4.42261
 11
8.76057
 21
-4.4209
  0
LINE
  8
0
 10
8.76057
 20
-4.4209
 11
9.08969
 21
-4.38684
  0
LINE
  8
0
 10
9.08969
 20
-4.38684
 11
9.1102
 21
-4.38429
  0
LINE
  8
0
 10
9.1102
 20
-4.38429
 11
9.43791
 21
-4.33662
  0
LINE
  8
0
 10
9.43791
 20
-4.33662
 11
9.45825
 21
-4.33324
  0
LINE
  8
0
 10
9.45825
 20
-4.33324
 11
9.78455
 21
-4.27194
  0
LINE
  8
0
 10
9.78455
 20
-4.27194
 11
9.80458
 21
-4.26775
  0
LINE
  8
0
 10
9.80458
 20
-4.26775
 11
10.1295
 21
-4.19283
  0
LINE
  8
0
 10
10.1295
 20
-4.19283
 11
10.1491
 21
-4.18788
  0
LINE
  8
0
 10
10.1491
 20
-4.18788
 11
10.4726
 21
-4.09935
  0
LINE
  8
0
 10
10.4726
 20
-4.09935
 11
10.4922
 21
-4.09355
  0
LINE
  8
0
 10
10.4922
 20
-4.09355
 11
10.8171
 21
-3.99017
  0
LINE
  8
0
 10
10.8171
 20
-3.99017
 11
10.8359
 21
-3.98376
  0
LINE
  8
0
 10
10.8359
 20
-3.98376
 11
11.1651
 21
-3.86443
  0
LINE
  8
0
 10
11.1651
 20
-3.86443
 11
11.1827
 21
-3.85765
  0
LINE
  8
0
 10
11.1827
 20
-3.85765
 11
11.5161
 21
-3.72234
  0
LINE
  8
0
 10
11.5161
 20
-3.72234
 11
11.5325
 21
-3.71533
  0
LINE
  8
0
 10
11.5325
 20
-3.71533
 11
11.8701
 21
-3.56406
  0
LINE
  8
0
 10
11.8701
 20
-3.56406
 11
11.8854
 21
-3.55692
  0
LINE
  8
0
 10
11.8854
 20
-3.55692
 11
12.2039
 21
-3.40108
  0
LINE
  8
0
 10
12.2039
 20
-3.40108
 11
12.2039
 21
-5.31915
  0
LINE
  8
0
 10
12.2039
 20
-5.31915
 11
12.1892
 21
-5.325
  0
LINE
  8
0
 10
12.1892
 20
-5.325
 11
11.8633
 21
-5.44379
  0
LINE
  8
0
 10
11.8633
 20
-5.44379
 11
11.5361
 21
-5.55293
  0
LINE
  8
0
 10
11.5361
 20
-5.55293
 11
11.2071
 21
-5.65257
  0
LINE
  8
0
 10
11.2071
 20
-5.65257
 11
10.8758
 21
-5.74286
  0
LINE
  8
0
 10
10.8758
 20
-5.74286
 11
10.5432
 21
-5.82352
  0
LINE
  8
0
 10
10.5432
 20
-5.82352
 11
10.2092
 21
-5.89461
  0
LINE
  8
0
 10
10.2092
 20
-5.89461
 11
9.87157
 21
-5.95622
  0
LINE
  8
0
 10
9.87157
 20
-5.95622
 11
9.52838
 21
-6.00838
  0
LINE
  8
0
 10
9.52838
 20
-6.00838
 11
9.17969
 21
-6.05106
  0
LINE
  8
0
 10
9.17969
 20
-6.05106
 11
8.82462
 21
-6.08435
  0
LINE
  8
0
 10
8.82462
 20
-6.08435
 11
8.46349
 21
-6.10815
  0
LINE
  8
0
 10
8.46349
 20
-6.10815
 11
8.09659
 21
-6.12247
  0
LINE
  8
0
 10
8.09659
 20
-6.12247
 11
7.73044
 21
-6.12715
  0
LINE
  8
0
 10
7.73044
 20
-6.12715
 11
6.87108
 21
-6.09314
  0
LINE
  8
0
 10
9.84612
 20
1.09799
 11
9.90294
 21
1.10136
  0
LINE
  8
0
 10
9.90294
 20
1.10136
 11
9.96472
 21
1.11253
  0
LINE
  8
0
 10
9.96472
 20
1.11253
 11
10.0246
 21
1.13136
  0
LINE
  8
0
 10
10.0246
 20
1.13136
 11
10.0817
 21
1.15755
  0
LINE
  8
0
 10
10.0817
 20
1.15755
 11
10.135
 21
1.19069
  0
LINE
  8
0
 10
10.135
 20
1.19069
 11
10.1838
 21
1.23024
  0
LINE
  8
0
 10
10.1838
 20
1.23024
 11
10.2272
 21
1.2756
  0
LINE
  8
0
 10
10.2272
 20
1.2756
 11
10.2646
 21
1.32605
  0
LINE
  8
0
 10
10.2646
 20
1.32605
 11
10.2954
 21
1.38077
  0
LINE
  8
0
 10
10.2954
 20
1.38077
 11
10.3191
 21
1.43893
  0
LINE
  8
0
 10
10.3191
 20
1.43893
 11
10.3353
 21
1.4996
  0
LINE
  8
0
 10
10.3353
 20
1.4996
 11
10.3437
 21
1.56181
  0
LINE
  8
0
 10
10.3437
 20
1.56181
 11
10.3443
 21
1.6246
  0
LINE
  8
0
 10
10.3443
 20
1.6246
 11
10.3247
 21
1.99338
  0
LINE
  8
0
 10
10.3247
 20
1.99338
 11
10.321
 21
2.03307
  0
LINE
  8
0
 10
10.321
 20
2.03307
 11
10.2752
 21
2.37526
  0
LINE
  8
0
 10
10.2752
 20
2.37526
 11
10.2671
 21
2.42
  0
LINE
  8
0
 10
10.2671
 20
2.42
 11
10.1952
 21
2.7356
  0
LINE
  8
0
 10
10.1952
 20
2.7356
 11
10.1812
 21
2.7851
  0
LINE
  8
0
 10
10.1812
 20
2.7851
 11
10.0833
 21
3.07413
  0
LINE
  8
0
 10
10.0833
 20
3.07413
 11
10.0617
 21
3.12733
  0
LINE
  8
0
 10
10.0617
 20
3.12733
 11
9.93764
 21
3.38977
  0
LINE
  8
0
 10
9.93764
 20
3.38977
 11
9.90735
 21
3.44463
  0
LINE
  8
0
 10
9.90735
 20
3.44463
 11
9.75713
 21
3.68048
  0
LINE
  8
0
 10
9.75713
 20
3.68048
 11
9.71779
 21
3.73404
  0
LINE
  8
0
 10
9.71779
 20
3.73404
 11
9.54147
 21
3.94331
  0
LINE
  8
0
 10
9.54147
 20
3.94331
 11
9.49358
 21
3.9928
  0
LINE
  8
0
 10
9.49358
 20
3.9928
 11
9.29137
 21
4.17479
  0
LINE
  8
0
 10
9.29137
 20
4.17479
 11
9.23686
 21
4.21741
  0
LINE
  8
0
 10
9.23686
 20
4.21741
 11
9.00902
 21
4.3714
  0
LINE
  8
0
 10
9.00902
 20
4.3714
 11
8.95157
 21
4.40488
  0
LINE
  8
0
 10
8.95157
 20
4.40488
 11
8.69807
 21
4.53087
  0
LINE
  8
0
 10
8.69807
 20
4.53087
 11
8.64116
 21
4.5549
  0
LINE
  8
0
 10
8.64116
 20
4.5549
 11
8.36201
 21
4.65289
  0
LINE
  8
0
 10
8.36201
 20
4.65289
 11
8.3083
 21
4.66844
  0
LINE
  8
0
 10
8.3083
 20
4.66844
 11
8.00352
 21
4.73843
  0
LINE
  8
0
 10
8.00352
 20
4.73843
 11
7.95465
 21
4.74713
  0
LINE
  8
0
 10
7.95465
 20
4.74713
 11
7.62421
 21
4.78912
  0
LINE
  8
0
 10
7.62421
 20
4.78912
 11
7.58083
 21
4.79272
  0
LINE
  8
0
 10
7.58083
 20
4.79272
 11
7.22476
 21
4.80673
  0
LINE
  8
0
 10
7.22476
 20
4.80673
 11
7.18274
 21
4.80661
  0
LINE
  8
0
 10
7.18274
 20
4.80661
 11
6.85971
 21
4.79214
  0
LINE
  8
0
 10
6.85971
 20
4.79214
 11
6.81131
 21
4.78761
  0
LINE
  8
0
 10
6.81131
 20
4.78761
 11
6.50758
 21
4.74419
  0
LINE
  8
0
 10
6.50758
 20
4.74419
 11
6.45511
 21
4.7338
  0
LINE
  8
0
 10
6.45511
 20
4.7338
 11
6.17067
 21
4.66145
  0
LINE
  8
0
 10
6.17067
 20
4.66145
 11
6.11546
 21
4.64395
  0
LINE
  8
0
 10
6.11546
 20
4.64395
 11
5.85031
 21
4.54265
  0
LINE
  8
0
 10
5.85031
 20
4.54265
 11
5.79472
 21
4.51743
  0
LINE
  8
0
 10
5.79472
 20
4.51743
 11
5.54886
 21
4.38719
  0
LINE
  8
0
 10
5.54886
 20
4.38719
 11
5.49547
 21
4.35448
  0
LINE
  8
0
 10
5.49547
 20
4.35448
 11
5.26889
 21
4.1953
  0
LINE
  8
0
 10
5.26889
 20
4.1953
 11
5.22029
 21
4.1564
  0
LINE
  8
0
 10
5.22029
 20
4.1564
 11
5.01302
 21
3.96828
  0
LINE
  8
0
 10
5.01302
 20
3.96828
 11
4.97127
 21
3.92558
  0
LINE
  8
0
 10
4.97127
 20
3.92558
 11
4.78516
 21
3.71092
  0
LINE
  8
0
 10
4.78516
 20
3.71092
 11
4.74995
 21
3.66525
  0
LINE
  8
0
 10
4.74995
 20
3.66525
 11
4.5869
 21
3.42636
  0
LINE
  8
0
 10
4.5869
 20
3.42636
 11
4.55846
 21
3.37932
  0
LINE
  8
0
 10
4.55846
 20
3.37932
 11
4.41847
 21
3.11618
  0
LINE
  8
0
 10
4.41847
 20
3.11618
 11
4.39677
 21
3.06981
  0
LINE
  8
0
 10
4.39677
 20
3.06981
 11
4.27983
 21
2.78244
  0
LINE
  8
0
 10
4.27983
 20
2.78244
 11
4.26421
 21
2.7382
  0
LINE
  8
0
 10
4.26421
 20
2.7382
 11
4.17033
 21
2.42659
  0
LINE
  8
0
 10
4.17033
 20
2.42659
 11
4.15984
 21
2.38553
  0
LINE
  8
0
 10
4.15984
 20
2.38553
 11
4.08902
 21
2.04968
  0
LINE
  8
0
 10
4.08902
 20
2.04968
 11
4.08261
 21
2.01228
  0
LINE
  8
0
 10
4.08261
 20
2.01228
 11
4.03484
 21
1.65219
  0
LINE
  8
0
 10
4.03484
 20
1.65219
 11
4.0314
 21
1.61673
  0
LINE
  8
0
 10
4.0314
 20
1.61673
 11
4.03154
 21
1.55394
  0
LINE
  8
0
 10
4.03154
 20
1.55394
 11
4.03955
 21
1.49167
  0
LINE
  8
0
 10
4.03955
 20
1.49167
 11
4.0553
 21
1.43088
  0
LINE
  8
0
 10
4.0553
 20
1.43088
 11
4.07854
 21
1.37256
  0
LINE
  8
0
 10
4.07854
 20
1.37256
 11
4.1089
 21
1.3176
  0
LINE
  8
0
 10
4.1089
 20
1.3176
 11
4.14592
 21
1.26688
  0
LINE
  8
0
 10
4.14592
 20
1.26688
 11
4.18901
 21
1.22119
  0
LINE
  8
0
 10
4.18901
 20
1.22119
 11
4.23747
 21
1.18127
  0
LINE
  8
0
 10
4.23747
 20
1.18127
 11
4.29056
 21
1.14775
  0
LINE
  8
0
 10
4.29056
 20
1.14775
 11
4.34744
 21
1.12114
  0
LINE
  8
0
 10
4.34744
 20
1.12114
 11
4.4072
 21
1.10187
  0
LINE
  8
0
 10
4.4072
 20
1.10187
 11
4.4689
 21
1.09024
  0
LINE
  8
0
 10
4.4689
 20
1.09024
 11
4.53157
 21
1.08643
  0
LINE
  8
0
 10
4.53157
 20
1.08643
 11
9.84612
 21
1.09799
  0
LINE
  8
0
 10
4.57826
 20
1.94652
 11
4.64908
 21
2.28236
  0
LINE
  8
0
 10
4.64908
 20
2.28236
 11
4.74295
 21
2.59398
  0
LINE
  8
0
 10
4.74295
 20
2.59398
 11
4.85989
 21
2.88135
  0
LINE
  8
0
 10
4.85989
 20
2.88135
 11
4.99988
 21
3.14449
  0
LINE
  8
0
 10
4.99988
 20
3.14449
 11
5.16293
 21
3.38338
  0
LINE
  8
0
 10
5.16293
 20
3.38338
 11
5.34904
 21
3.59804
  0
LINE
  8
0
 10
5.34904
 20
3.59804
 11
5.55632
 21
3.78616
  0
LINE
  8
0
 10
5.55632
 20
3.78616
 11
5.7829
 21
3.94534
  0
LINE
  8
0
 10
5.7829
 20
3.94534
 11
6.02876
 21
4.07558
  0
LINE
  8
0
 10
6.02876
 20
4.07558
 11
6.29391
 21
4.17688
  0
LINE
  8
0
 10
6.29391
 20
4.17688
 11
6.57835
 21
4.24922
  0
LINE
  8
0
 10
6.57835
 20
4.24922
 11
6.88208
 21
4.29265
  0
LINE
  8
0
 10
6.88208
 20
4.29265
 11
7.20511
 21
4.30711
  0
LINE
  8
0
 10
7.20511
 20
4.30711
 11
7.56117
 21
4.29311
  0
LINE
  8
0
 10
7.56117
 20
4.29311
 11
7.89162
 21
4.25111
  0
LINE
  8
0
 10
7.89162
 20
4.25111
 11
8.1964
 21
4.18112
  0
LINE
  8
0
 10
8.1964
 20
4.18112
 11
8.47554
 21
4.08313
  0
LINE
  8
0
 10
8.47554
 20
4.08313
 11
8.72903
 21
3.95714
  0
LINE
  8
0
 10
8.72903
 20
3.95714
 11
8.95688
 21
3.80315
  0
LINE
  8
0
 10
8.95688
 20
3.80315
 11
9.15909
 21
3.62115
  0
LINE
  8
0
 10
9.15909
 20
3.62115
 11
9.3354
 21
3.41188
  0
LINE
  8
0
 10
9.3354
 20
3.41188
 11
9.48563
 21
3.17603
  0
LINE
  8
0
 10
9.48563
 20
3.17603
 11
9.60973
 21
2.91359
  0
LINE
  8
0
 10
9.60973
 20
2.91359
 11
9.70772
 21
2.62456
  0
LINE
  8
0
 10
9.70772
 20
2.62456
 11
9.7796
 21
2.30896
  0
LINE
  8
0
 10
9.7796
 20
2.30896
 11
9.82538
 21
1.96677
  0
LINE
  8
0
 10
9.82538
 20
1.96677
 11
9.84503
 21
1.59799
  0
LINE
  8
0
 10
9.84503
 20
1.59799
 11
4.53049
 21
1.58643
  0
LINE
  8
0
 10
4.53049
 20
1.58643
 11
4.57826
 21
1.94652
  0
LINE
  8
0
 10
-19.9014
 20
-6.58998
 11
-19.1863
 21
-6.47812
  0
LINE
  8
0
 10
-19.1863
 20
-6.47812
 11
-18.5172
 21
-6.29167
  0
LINE
  8
0
 10
-18.5172
 20
-6.29167
 11
-17.8938
 21
-6.03065
  0
LINE
  8
0
 10
-17.8938
 20
-6.03065
 11
-17.3164
 21
-5.69505
  0
LINE
  8
0
 10
-17.3164
 20
-5.69505
 11
-16.7848
 21
-5.28487
  0
LINE
  8
0
 10
-16.7848
 20
-5.28487
 11
-16.2991
 21
-4.80011
  0
LINE
  8
0
 10
-16.2991
 20
-4.80011
 11
-15.8694
 21
-4.2516
  0
LINE
  8
0
 10
-15.8694
 20
-4.2516
 11
-15.5058
 21
-3.65016
  0
LINE
  8
0
 10
-15.5058
 20
-3.65016
 11
-15.2083
 21
-2.99579
  0
LINE
  8
0
 10
-15.2083
 20
-2.99579
 11
-14.9769
 21
-2.2885
  0
LINE
  8
0
 10
-14.9769
 20
-2.2885
 11
-14.8116
 21
-1.52827
  0
LINE
  8
0
 10
-14.8116
 20
-1.52827
 11
-14.7124
 21
-0.715118
  0
LINE
  8
0
 10
-14.7124
 20
-0.715118
 11
-14.6794
 21
0.150955
  0
LINE
  8
0
 10
-14.6794
 20
0.150955
 11
-14.7124
 21
1.01704
  0
LINE
  8
0
 10
-14.7124
 20
1.01704
 11
-14.8116
 21
1.83018
  0
LINE
  8
0
 10
-14.8116
 20
1.83018
 11
-14.9769
 21
2.59042
  0
LINE
  8
0
 10
-14.9769
 20
2.59042
 11
-15.2083
 21
3.29771
  0
LINE
  8
0
 10
-15.2083
 20
3.29771
 11
-15.5058
 21
3.95209
  0
LINE
  8
0
 10
-15.5058
 20
3.95209
 11
-15.8694
 21
4.55353
  0
LINE
  8
0
 10
-15.8694
 20
4.55353
 11
-16.2991
 21
5.10204
  0
LINE
  8
0
 10
-16.2991
 20
5.10204
 11
-16.7848
 21
5.58679
  0
LINE
  8
0
 10
-16.7848
 20
5.58679
 11
-17.3164
 21
5.99696
  0
LINE
  8
0
 10
-17.3164
 20
5.99696
 11
-17.8938
 21
6.33257
  0
LINE
  8
0
 10
-17.8938
 20
6.33257
 11
-18.5172
 21
6.5936
  0
LINE
  8
0
 10
-18.5172
 20
6.5936
 11
-19.1863
 21
6.78003
  0
LINE
  8
0
 10
-19.1863
 20
6.78003
 11
-19.9014
 21
6.89191
  0
LINE
  8
0
 10
-19.9014
 20
6.89191
 11
-20.6624
 21
6.9292
  0
LINE
  8
0
 10
-20.6624
 20
6.9292
 11
-21.4203
 21
6.89191
  0
LINE
  8
0
 10
-21.4203
 20
6.89191
 11
-22.1328
 21
6.78003
  0
LINE
  8
0
 10
-22.1328
 20
6.78003
 11
-22.8
 21
6.5936
  0
LINE
  8
0
 10
-22.8
 20
6.5936
 11
-23.4217
 21
6.33257
  0
LINE
  8
0
 10
-23.4217
 20
6.33257
 11
-23.998
 21
5.99696
  0
LINE
  8
0
 10
-23.998
 20
5.99696
 11
-24.5289
 21
5.58679
  0
LINE
  8
0
 10
-24.5289
 20
5.58679
 11
-25.0144
 21
5.10204
  0
LINE
  8
0
 10
-25.0144
 20
5.10204
 11
-25.4441
 21
4.55353
  0
LINE
  8
0
 10
-25.4441
 20
4.55353
 11
-25.8076
 21
3.95209
  0
LINE
  8
0
 10
-25.8076
 20
3.95209
 11
-26.1051
 21
3.29771
  0
LINE
  8
0
 10
-26.1051
 20
3.29771
 11
-26.3365
 21
2.59042
  0
LINE
  8
0
 10
-26.3365
 20
2.59042
 11
-26.5018
 21
1.83018
  0
LINE
  8
0
 10
-26.5018
 20
1.83018
 11
-26.6009
 21
1.01704
  0
LINE
  8
0
 10
-26.6009
 20
1.01704
 11
-26.634
 21
0.150955
  0
LINE
  8
0
 10
-26.634
 20
0.150955
 11
-26.6009
 21
-0.715118
  0
LINE
  8
0
 10
-26.6009
 20
-0.715118
 11
-26.5018
 21
-1.52827
  0
LINE
  8
0
 10
-26.5018
 20
-1.52827
 11
-26.3365
 21
-2.2885
  0
LINE
  8
0
 10
-26.3365
 20
-2.2885
 11
-26.1051
 21
-2.99579
  0
LINE
  8
0
 10
-26.1051
 20
-2.99579
 11
-25.8076
 21
-3.65016
  0
LINE
  8
0
 10
-25.8076
 20
-3.65016
 11
-25.4441
 21
-4.2516
  0
LINE
  8
0
 10
-25.4441
 20
-4.2516
 11
-25.0144
 21
-4.80011
  0
LINE
  8
0
 10
-25.0144
 20
-4.80011
 11
-24.5289
 21
-5.28487
  0
LINE
  8
0
 10
-24.5289
 20
-5.28487
 11
-23.998
 21
-5.69505
  0
LINE
  8
0
 10
-23.998
 20
-5.69505
 11
-23.4217
 21
-6.03065
  0
LINE
  8
0
 10
-23.4217
 20
-6.03065
 11
-22.8
 21
-6.29167
  0
LINE
  8
0
 10
-22.8
 20
-6.29167
 11
-22.1328
 21
-6.47812
  0
LINE
  8
0
 10
-22.1328
 20
-6.47812
 11
-21.4203
 21
-6.58998
  0
LINE
  8
0
 10
-21.4203
 20
-6.58998
 11
-20.6624
 21
-6.62727
  0
LINE
  8
0
 10
-20.6624
 20
-6.62727
 11
-19.9014
 21
-6.58998
  0
LINE
  8
0
 10
-21.369
 20
-6.0919
 11
-22.0264
 21
-5.98869
  0
LINE
  8
0
 10
-22.0264
 20
-5.98869
 11
-22.6353
 21
-5.81851
  0
LINE
  8
0
 10
-22.6353
 20
-5.81851
 11
-23.1981
 21
-5.58228
  0
LINE
  8
0
 10
-23.1981
 20
-5.58228
 11
-23.7182
 21
-5.27937
  0
LINE
  8
0
 10
-23.7182
 20
-5.27937
 11
-24.198
 21
-4.90865
  0
LINE
  8
0
 10
-24.198
 20
-4.90865
 11
-24.6396
 21
-4.46774
  0
LINE
  8
0
 10
-24.6396
 20
-4.46774
 11
-25.0318
 21
-3.9671
  0
LINE
  8
0
 10
-25.0318
 20
-3.9671
 11
-25.3646
 21
-3.41658
  0
LINE
  8
0
 10
-25.3646
 20
-3.41658
 11
-25.6385
 21
-2.81407
  0
LINE
  8
0
 10
-25.6385
 20
-2.81407
 11
-25.8533
 21
-2.1573
  0
LINE
  8
0
 10
-25.8533
 20
-2.1573
 11
-26.0082
 21
-1.44473
  0
LINE
  8
0
 10
-26.0082
 20
-1.44473
 11
-26.1021
 21
-0.675247
  0
LINE
  8
0
 10
-26.1021
 20
-0.675247
 11
-26.1336
 21
0.150955
  0
LINE
  8
0
 10
-26.1336
 20
0.150955
 11
-26.1021
 21
0.977173
  0
LINE
  8
0
 10
-26.1021
 20
0.977173
 11
-26.0082
 21
1.74664
  0
LINE
  8
0
 10
-26.0082
 20
1.74664
 11
-25.8533
 21
2.45923
  0
LINE
  8
0
 10
-25.8533
 20
2.45923
 11
-25.6385
 21
3.116
  0
LINE
  8
0
 10
-25.6385
 20
3.116
 11
-25.3646
 21
3.71851
  0
LINE
  8
0
 10
-25.3646
 20
3.71851
 11
-25.0318
 21
4.26903
  0
LINE
  8
0
 10
-25.0318
 20
4.26903
 11
-24.6396
 21
4.76967
  0
LINE
  8
0
 10
-24.6396
 20
4.76967
 11
-24.198
 21
5.21056
  0
LINE
  8
0
 10
-24.198
 20
5.21056
 11
-23.7182
 21
5.58128
  0
LINE
  8
0
 10
-23.7182
 20
5.58128
 11
-23.1981
 21
5.88416
  0
LINE
  8
0
 10
-23.1981
 20
5.88416
 11
-22.6353
 21
6.12047
  0
LINE
  8
0
 10
-22.6353
 20
6.12047
 11
-22.0264
 21
6.29063
  0
LINE
  8
0
 10
-22.0264
 20
6.29063
 11
-21.3691
 21
6.39383
  0
LINE
  8
0
 10
-21.3691
 20
6.39383
 11
-20.6624
 21
6.4286
  0
LINE
  8
0
 10
-20.6624
 20
6.4286
 11
-19.9524
 21
6.3938
  0
LINE
  8
0
 10
-19.9524
 20
6.3938
 11
-19.2925
 21
6.29056
  0
LINE
  8
0
 10
-19.2925
 20
6.29056
 11
-18.6815
 21
6.12033
  0
LINE
  8
0
 10
-18.6815
 20
6.12033
 11
-18.117
 21
5.88394
  0
LINE
  8
0
 10
-18.117
 20
5.88394
 11
-17.5958
 21
5.58105
  0
LINE
  8
0
 10
-17.5958
 20
5.58105
 11
-17.1156
 21
5.21045
  0
LINE
  8
0
 10
-17.1156
 20
5.21045
 11
-16.6739
 21
4.76967
  0
LINE
  8
0
 10
-16.6739
 20
4.76967
 11
-16.2817
 21
4.269
  0
LINE
  8
0
 10
-16.2817
 20
4.269
 11
-15.9488
 21
3.71848
  0
LINE
  8
0
 10
-15.9488
 20
3.71848
 11
-15.6749
 21
3.11597
  0
LINE
  8
0
 10
-15.6749
 20
3.11597
 11
-15.46
 21
2.45917
  0
LINE
  8
0
 10
-15.46
 20
2.45917
 11
-15.3051
 21
1.74664
  0
LINE
  8
0
 10
-15.3051
 20
1.74664
 11
-15.2113
 21
0.977142
  0
LINE
  8
0
 10
-15.2113
 20
0.977142
 11
-15.1798
 21
0.150955
  0
LINE
  8
0
 10
-15.1798
 20
0.150955
 11
-15.2113
 21
-0.675217
  0
LINE
  8
0
 10
-15.2113
 20
-0.675217
 11
-15.3051
 21
-1.4447
  0
LINE
  8
0
 10
-15.3051
 20
-1.4447
 11
-15.4601
 21
-2.15727
  0
LINE
  8
0
 10
-15.4601
 20
-2.15727
 11
-15.6749
 21
-2.81404
  0
LINE
  8
0
 10
-15.6749
 20
-2.81404
 11
-15.9488
 21
-3.41655
  0
LINE
  8
0
 10
-15.9488
 20
-3.41655
 11
-16.2817
 21
-3.96707
  0
LINE
  8
0
 10
-16.2817
 20
-3.96707
 11
-16.6739
 21
-4.46774
  0
LINE
  8
0
 10
-16.6739
 20
-4.46774
 11
-17.1155
 21
-4.90848
  0
LINE
  8
0
 10
-17.1155
 20
-4.90848
 11
-17.5959
 21
-5.27917
  0
LINE
  8
0
 10
-17.5959
 20
-5.27917
 11
-18.117
 21
-5.58203
  0
LINE
  8
0
 10
-18.117
 20
-5.58203
 11
-18.6814
 21
-5.81839
  0
LINE
  8
0
 10
-18.6814
 20
-5.81839
 11
-19.2925
 21
-5.98865
  0
LINE
  8
0
 10
-19.2925
 20
-5.98865
 11
-19.9523
 21
-6.09187
  0
LINE
  8
0
 10
-19.9523
 20
-6.09187
 11
-20.6624
 21
-6.12668
  0
LINE
  8
0
 10
-20.6624
 20
-6.12668
 11
-21.369
 21
-6.0919
  0
LINE
  8
0
 10
-20.2919
 20
-4.3627
 11
-20.2231
 21
-4.35344
  0
LINE
  8
0
 10
-20.2231
 20
-4.35344
 11
-19.9064
 21
-4.28813
  0
LINE
  8
0
 10
-19.9064
 20
-4.28813
 11
-19.8343
 21
-4.26752
  0
LINE
  8
0
 10
-19.8343
 20
-4.26752
 11
-19.5393
 21
-4.15866
  0
LINE
  8
0
 10
-19.5393
 20
-4.15866
 11
-19.4689
 21
-4.1263
  0
LINE
  8
0
 10
-19.4689
 20
-4.1263
 11
-19.1956
 21
-3.97391
  0
LINE
  8
0
 10
-19.1956
 20
-3.97391
 11
-19.1319
 21
-3.93173
  0
LINE
  8
0
 10
-19.1319
 20
-3.93173
 11
-18.8802
 21
-3.73579
  0
LINE
  8
0
 10
-18.8802
 20
-3.73579
 11
-18.8268
 21
-3.68765
  0
LINE
  8
0
 10
-18.8268
 20
-3.68765
 11
-18.5967
 21
-3.44818
  0
LINE
  8
0
 10
-18.5967
 20
-3.44818
 11
-18.5546
 21
-3.39825
  0
LINE
  8
0
 10
-18.5546
 20
-3.39825
 11
-18.3462
 21
-3.11523
  0
LINE
  8
0
 10
-18.3462
 20
-3.11523
 11
-18.3145
 21
-3.06642
  0
LINE
  8
0
 10
-18.3145
 20
-3.06642
 11
-18.131
 21
-2.74458
  0
LINE
  8
0
 10
-18.131
 20
-2.74458
 11
-18.107
 21
-2.69684
  0
LINE
  8
0
 10
-18.107
 20
-2.69684
 11
-17.9518
 21
-2.34085
  0
LINE
  8
0
 10
-17.9518
 20
-2.34085
 11
-17.9346
 21
-2.29578
  0
LINE
  8
0
 10
-17.9346
 20
-2.29578
 11
-17.8076
 21
-1.90565
  0
LINE
  8
0
 10
-17.8076
 20
-1.90565
 11
-17.796
 21
-1.86423
  0
LINE
  8
0
 10
-17.796
 20
-1.86423
 11
-17.6972
 21
-1.43999
  0
LINE
  8
0
 10
-17.6972
 20
-1.43999
 11
-17.69
 21
-1.40266
  0
LINE
  8
0
 10
-17.69
 20
-1.40266
 11
-17.6194
 21
-0.944275
  0
LINE
  8
0
 10
-17.6194
 20
-0.944275
 11
-17.6154
 21
-0.911011
  0
LINE
  8
0
 10
-17.6154
 20
-0.911011
 11
-17.5731
 21
-0.418503
  0
LINE
  8
0
 10
-17.5731
 20
-0.418503
 11
-17.5714
 21
-0.389069
  0
LINE
  8
0
 10
-17.5714
 20
-0.389069
 11
-17.5573
 21
0.137558
  0
LINE
  8
0
 10
-17.5573
 20
0.137558
 11
-17.5573
 21
0.164352
  0
LINE
  8
0
 10
-17.5573
 20
0.164352
 11
-17.5714
 21
0.690994
  0
LINE
  8
0
 10
-17.5714
 20
0.690994
 11
-17.5731
 21
0.720428
  0
LINE
  8
0
 10
-17.5731
 20
0.720428
 11
-17.6154
 21
1.21294
  0
LINE
  8
0
 10
-17.6154
 20
1.21294
 11
-17.6194
 21
1.2462
  0
LINE
  8
0
 10
-17.6194
 20
1.2462
 11
-17.69
 21
1.70457
  0
LINE
  8
0
 10
-17.69
 20
1.70457
 11
-17.6972
 21
1.7419
  0
LINE
  8
0
 10
-17.6972
 20
1.7419
 11
-17.796
 21
2.16615
  0
LINE
  8
0
 10
-17.796
 20
2.16615
 11
-17.8076
 21
2.20758
  0
LINE
  8
0
 10
-17.8076
 20
2.20758
 11
-17.9346
 21
2.59769
  0
LINE
  8
0
 10
-17.9346
 20
2.59769
 11
-17.9518
 21
2.64276
  0
LINE
  8
0
 10
-17.9518
 20
2.64276
 11
-18.107
 21
2.99875
  0
LINE
  8
0
 10
-18.107
 20
2.99875
 11
-18.131
 21
3.04649
  0
LINE
  8
0
 10
-18.131
 20
3.04649
 11
-18.3145
 21
3.36835
  0
LINE
  8
0
 10
-18.3145
 20
3.36835
 11
-18.3462
 21
3.41716
  0
LINE
  8
0
 10
-18.3462
 20
3.41716
 11
-18.5546
 21
3.70018
  0
LINE
  8
0
 10
-18.5546
 20
3.70018
 11
-18.5967
 21
3.75011
  0
LINE
  8
0
 10
-18.5967
 20
3.75011
 11
-18.8268
 21
3.98958
  0
LINE
  8
0
 10
-18.8268
 20
3.98958
 11
-18.8802
 21
4.03772
  0
LINE
  8
0
 10
-18.8802
 20
4.03772
 11
-19.1319
 21
4.23366
  0
LINE
  8
0
 10
-19.1319
 20
4.23366
 11
-19.1956
 21
4.27583
  0
LINE
  8
0
 10
-19.1956
 20
4.27583
 11
-19.4689
 21
4.42822
  0
LINE
  8
0
 10
-19.4689
 20
4.42822
 11
-19.5393
 21
4.46059
  0
LINE
  8
0
 10
-19.5393
 20
4.46059
 11
-19.8343
 21
4.56944
  0
LINE
  8
0
 10
-19.8343
 20
4.56944
 11
-19.9064
 21
4.59006
  0
LINE
  8
0
 10
-19.9064
 20
4.59006
 11
-20.2231
 21
4.65536
  0
LINE
  8
0
 10
-20.2231
 20
4.65536
 11
-20.2919
 21
4.66463
  0
LINE
  8
0
 10
-20.2919
 20
4.66463
 11
-20.6302
 21
4.6864
  0
LINE
  8
0
 10
-20.6302
 20
4.6864
 11
-20.6948
 21
4.68639
  0
LINE
  8
0
 10
-20.6948
 20
4.68639
 11
-21.0301
 21
4.66461
  0
LINE
  8
0
 10
-21.0301
 20
4.66461
 11
-21.0994
 21
4.6552
  0
LINE
  8
0
 10
-21.0994
 20
4.6552
 11
-21.4135
 21
4.58989
  0
LINE
  8
0
 10
-21.4135
 20
4.58989
 11
-21.4859
 21
4.56905
  0
LINE
  8
0
 10
-21.4859
 20
4.56905
 11
-21.7789
 21
4.46019
  0
LINE
  8
0
 10
-21.7789
 20
4.46019
 11
-21.8493
 21
4.42761
  0
LINE
  8
0
 10
-21.8493
 20
4.42761
 11
-22.121
 21
4.27522
  0
LINE
  8
0
 10
-22.121
 20
4.27522
 11
-22.1844
 21
4.23299
  0
LINE
  8
0
 10
-22.1844
 20
4.23299
 11
-22.435
 21
4.03705
  0
LINE
  8
0
 10
-22.435
 20
4.03705
 11
-22.4881
 21
3.98906
  0
LINE
  8
0
 10
-22.4881
 20
3.98906
 11
-22.7175
 21
3.74959
  0
LINE
  8
0
 10
-22.7175
 20
3.74959
 11
-22.7592
 21
3.70001
  0
LINE
  8
0
 10
-22.7592
 20
3.70001
 11
-22.9674
 21
3.41699
  0
LINE
  8
0
 10
-22.9674
 20
3.41699
 11
-22.999
 21
3.36832
  0
LINE
  8
0
 10
-22.999
 20
3.36832
 11
-23.1825
 21
3.04646
  0
LINE
  8
0
 10
-23.1825
 20
3.04646
 11
-23.2065
 21
2.99869
  0
LINE
  8
0
 10
-23.2065
 20
2.99869
 11
-23.3617
 21
2.6427
  0
LINE
  8
0
 10
-23.3617
 20
2.6427
 11
-23.3788
 21
2.59764
  0
LINE
  8
0
 10
-23.3788
 20
2.59764
 11
-23.5058
 21
2.20753
  0
LINE
  8
0
 10
-23.5058
 20
2.20753
 11
-23.5174
 21
2.16614
  0
LINE
  8
0
 10
-23.5174
 20
2.16614
 11
-23.6162
 21
1.74188
  0
LINE
  8
0
 10
-23.6162
 20
1.74188
 11
-23.6234
 21
1.70456
  0
LINE
  8
0
 10
-23.6234
 20
1.70456
 11
-23.694
 21
1.24619
  0
LINE
  8
0
 10
-23.694
 20
1.24619
 11
-23.698
 21
1.21292
  0
LINE
  8
0
 10
-23.698
 20
1.21292
 11
-23.7403
 21
0.720413
  0
LINE
  8
0
 10
-23.7403
 20
0.720413
 11
-23.7419
 21
0.690994
  0
LINE
  8
0
 10
-23.7419
 20
0.690994
 11
-23.756
 21
0.164352
  0
LINE
  8
0
 10
-23.756
 20
0.164352
 11
-23.756
 21
0.137558
  0
LINE
  8
0
 10
-23.756
 20
0.137558
 11
-23.7419
 21
-0.389069
  0
LINE
  8
0
 10
-23.7419
 20
-0.389069
 11
-23.7403
 21
-0.418488
  0
LINE
  8
0
 10
-23.7403
 20
-0.418488
 11
-23.698
 21
-0.910995
  0
LINE
  8
0
 10
-23.698
 20
-0.910995
 11
-23.694
 21
-0.94426
  0
LINE
  8
0
 10
-23.694
 20
-0.94426
 11
-23.6234
 21
-1.40265
  0
LINE
  8
0
 10
-23.6234
 20
-1.40265
 11
-23.6162
 21
-1.43997
  0
LINE
  8
0
 10
-23.6162
 20
-1.43997
 11
-23.5174
 21
-1.86421
  0
LINE
  8
0
 10
-23.5174
 20
-1.86421
 11
-23.5058
 21
-1.90559
  0
LINE
  8
0
 10
-23.5058
 20
-1.90559
 11
-23.3788
 21
-2.29572
  0
LINE
  8
0
 10
-23.3788
 20
-2.29572
 11
-23.3617
 21
-2.34079
  0
LINE
  8
0
 10
-23.3617
 20
-2.34079
 11
-23.2065
 21
-2.69678
  0
LINE
  8
0
 10
-23.2065
 20
-2.69678
 11
-23.1825
 21
-2.74455
  0
LINE
  8
0
 10
-23.1825
 20
-2.74455
 11
-22.999
 21
-3.06639
  0
LINE
  8
0
 10
-22.999
 20
-3.06639
 11
-22.9674
 21
-3.11507
  0
LINE
  8
0
 10
-22.9674
 20
-3.11507
 11
-22.7592
 21
-3.39809
  0
LINE
  8
0
 10
-22.7592
 20
-3.39809
 11
-22.7175
 21
-3.44766
  0
LINE
  8
0
 10
-22.7175
 20
-3.44766
 11
-22.4881
 21
-3.68713
  0
LINE
  8
0
 10
-22.4881
 20
-3.68713
 11
-22.435
 21
-3.73512
  0
LINE
  8
0
 10
-22.435
 20
-3.73512
 11
-22.1844
 21
-3.93106
  0
LINE
  8
0
 10
-22.1844
 20
-3.93106
 11
-22.121
 21
-3.9733
  0
LINE
  8
0
 10
-22.121
 20
-3.9733
 11
-21.8493
 21
-4.12569
  0
LINE
  8
0
 10
-21.8493
 20
-4.12569
 11
-21.7789
 21
-4.15826
  0
LINE
  8
0
 10
-21.7789
 20
-4.15826
 11
-21.4859
 21
-4.26712
  0
LINE
  8
0
 10
-21.4859
 20
-4.26712
 11
-21.4135
 21
-4.28796
  0
LINE
  8
0
 10
-21.4135
 20
-4.28796
 11
-21.0994
 21
-4.35327
  0
LINE
  8
0
 10
-21.0994
 20
-4.35327
 11
-21.0301
 21
-4.36269
  0
LINE
  8
0
 10
-21.0301
 20
-4.36269
 11
-20.6948
 21
-4.38446
  0
LINE
  8
0
 10
-20.6948
 20
-4.38446
 11
-20.6302
 21
-4.38448
  0
LINE
  8
0
 10
-20.6302
 20
-4.38448
 11
-20.2919
 21
-4.3627
  0
LINE
  8
0
 10
-20.9977
 20
-3.86374
 11
-21.3118
 21
-3.79843
  0
LINE
  8
0
 10
-21.3118
 20
-3.79843
 11
-21.6047
 21
-3.68958
  0
LINE
  8
0
 10
-21.6047
 20
-3.68958
 11
-21.8765
 21
-3.53719
  0
LINE
  8
0
 10
-21.8765
 20
-3.53719
 11
-22.127
 21
-3.34125
  0
LINE
  8
0
 10
-22.127
 20
-3.34125
 11
-22.3564
 21
-3.10178
  0
LINE
  8
0
 10
-22.3564
 20
-3.10178
 11
-22.5647
 21
-2.81876
  0
LINE
  8
0
 10
-22.5647
 20
-2.81876
 11
-22.7482
 21
-2.49692
  0
LINE
  8
0
 10
-22.7482
 20
-2.49692
 11
-22.9034
 21
-2.14093
  0
LINE
  8
0
 10
-22.9034
 20
-2.14093
 11
-23.0304
 21
-1.75081
  0
LINE
  8
0
 10
-23.0304
 20
-1.75081
 11
-23.1292
 21
-1.32657
  0
LINE
  8
0
 10
-23.1292
 20
-1.32657
 11
-23.1998
 21
-0.868179
  0
LINE
  8
0
 10
-23.1998
 20
-0.868179
 11
-23.2421
 21
-0.375671
  0
LINE
  8
0
 10
-23.2421
 20
-0.375671
 11
-23.2562
 21
0.150955
  0
LINE
  8
0
 10
-23.2562
 20
0.150955
 11
-23.2421
 21
0.677597
  0
LINE
  8
0
 10
-23.2421
 20
0.677597
 11
-23.1998
 21
1.1701
  0
LINE
  8
0
 10
-23.1998
 20
1.1701
 11
-23.1292
 21
1.62848
  0
LINE
  8
0
 10
-23.1292
 20
1.62848
 11
-23.0304
 21
2.05273
  0
LINE
  8
0
 10
-23.0304
 20
2.05273
 11
-22.9034
 21
2.44284
  0
LINE
  8
0
 10
-22.9034
 20
2.44284
 11
-22.7482
 21
2.79883
  0
LINE
  8
0
 10
-22.7482
 20
2.79883
 11
-22.5647
 21
3.12068
  0
LINE
  8
0
 10
-22.5647
 20
3.12068
 11
-22.3564
 21
3.4037
  0
LINE
  8
0
 10
-22.3564
 20
3.4037
 11
-22.127
 21
3.64317
  0
LINE
  8
0
 10
-22.127
 20
3.64317
 11
-21.8765
 21
3.83911
  0
LINE
  8
0
 10
-21.8765
 20
3.83911
 11
-21.6047
 21
3.9915
  0
LINE
  8
0
 10
-21.6047
 20
3.9915
 11
-21.3118
 21
4.10036
  0
LINE
  8
0
 10
-21.3118
 20
4.10036
 11
-20.9977
 21
4.16566
  0
LINE
  8
0
 10
-20.9977
 20
4.16566
 11
-20.6624
 21
4.18744
  0
LINE
  8
0
 10
-20.6624
 20
4.18744
 11
-20.3241
 21
4.16566
  0
LINE
  8
0
 10
-20.3241
 20
4.16566
 11
-20.0074
 21
4.10036
  0
LINE
  8
0
 10
-20.0074
 20
4.10036
 11
-19.7124
 21
3.9915
  0
LINE
  8
0
 10
-19.7124
 20
3.9915
 11
-19.439
 21
3.83911
  0
LINE
  8
0
 10
-19.439
 20
3.83911
 11
-19.1873
 21
3.64317
  0
LINE
  8
0
 10
-19.1873
 20
3.64317
 11
-18.9573
 21
3.4037
  0
LINE
  8
0
 10
-18.9573
 20
3.4037
 11
-18.7489
 21
3.12068
  0
LINE
  8
0
 10
-18.7489
 20
3.12068
 11
-18.5653
 21
2.79883
  0
LINE
  8
0
 10
-18.5653
 20
2.79883
 11
-18.41
 21
2.44284
  0
LINE
  8
0
 10
-18.41
 20
2.44284
 11
-18.283
 21
2.05273
  0
LINE
  8
0
 10
-18.283
 20
2.05273
 11
-18.1842
 21
1.62848
  0
LINE
  8
0
 10
-18.1842
 20
1.62848
 11
-18.1136
 21
1.1701
  0
LINE
  8
0
 10
-18.1136
 20
1.1701
 11
-18.0712
 21
0.677597
  0
LINE
  8
0
 10
-18.0712
 20
0.677597
 11
-18.0571
 21
0.150955
  0
LINE
  8
0
 10
-18.0571
 20
0.150955
 11
-18.0712
 21
-0.375671
  0
LINE
  8
0
 10
-18.0712
 20
-0.375671
 11
-18.1136
 21
-0.868179
  0
LINE
  8
0
 10
-18.1136
 20
-0.868179
 11
-18.1842
 21
-1.32657
  0
LINE
  8
0
 10
-18.1842
 20
-1.32657
 11
-18.283
 21
-1.75081
  0
LINE
  8
0
 10
-18.283
 20
-1.75081
 11
-18.41
 21
-2.14093
  0
LINE
  8
0
 10
-18.41
 20
-2.14093
 11
-18.5653
 21
-2.49692
  0
LINE
  8
0
 10
-18.5653
 20
-2.49692
 11
-18.7489
 21
-2.81876
  0
LINE
  8
0
 10
-18.7489
 20
-2.81876
 11
-18.9573
 21
-3.10178
  0
LINE
  8
0
 10
-18.9573
 20
-3.10178
 11
-19.1873
 21
-3.34125
  0
LINE
  8
0
 10
-19.1873
 20
-3.34125
 11
-19.439
 21
-3.53719
  0
LINE
  8
0
 10
-19.439
 20
-3.53719
 11
-19.7124
 21
-3.68958
  0
LINE
  8
0
 10
-19.7124
 20
-3.68958
 11
-20.0074
 21
-3.79843
  0
LINE
  8
0
 10
-20.0074
 20
-3.79843
 11
-20.3241
 21
-3.86374
  0
LINE
  8
0
 10
-20.3241
 20
-3.86374
 11
-20.6624
 21
-3.88551
  0
LINE
  8
0
 10
-20.6624
 20
-3.88551
 11
-20.9977
 21
-3.86374
  0
LINE
  8
0
 10
-10.1698
 20
1.99631
 11
-10.1653
 21
2.38838
  0
LINE
  8
0
 10
-10.1653
 20
2.38838
 11
-10.1519
 21
2.74141
  0
LINE
  8
0
 10
-10.1519
 20
2.74141
 11
-10.1295
 21
3.05539
  0
LINE
  8
0
 10
-10.1295
 20
3.05539
 11
-10.0983
 21
3.33032
  0
LINE
  8
0
 10
-10.0983
 20
3.33032
 11
-10.0581
 21
3.56622
  0
LINE
  8
0
 10
-10.0581
 20
3.56622
 11
-10.0089
 21
3.76306
  0
LINE
  8
0
 10
-10.0089
 20
3.76306
 11
-9.95081
 21
3.92087
  0
LINE
  8
0
 10
-9.95081
 20
3.92087
 11
-9.88091
 21
4.04932
  0
LINE
  8
0
 10
-9.88091
 20
4.04932
 11
-9.79643
 21
4.158
  0
LINE
  8
0
 10
-9.79643
 20
4.158
 11
-9.69737
 21
4.24693
  0
LINE
  8
0
 10
-9.69737
 20
4.24693
 11
-9.58374
 21
4.3161
  0
LINE
  8
0
 10
-9.58374
 20
4.3161
 11
-9.45554
 21
4.36551
  0
LINE
  8
0
 10
-9.45554
 20
4.36551
 11
-9.31274
 21
4.39516
  0
LINE
  8
0
 10
-9.31274
 20
4.39516
 11
-9.15538
 21
4.40503
  0
LINE
  8
0
 10
-9.15538
 20
4.40503
 11
-8.99773
 21
4.39491
  0
LINE
  8
0
 10
-8.99773
 20
4.39491
 11
-8.8542
 21
4.36458
  0
LINE
  8
0
 10
-8.8542
 20
4.36458
 11
-8.72481
 21
4.31401
  0
LINE
  8
0
 10
-8.72481
 20
4.31401
 11
-8.60951
 21
4.24323
  0
LINE
  8
0
 10
-8.60951
 20
4.24323
 11
-8.50835
 21
4.15221
  0
LINE
  8
0
 10
-8.50835
 20
4.15221
 11
-8.42131
 21
4.04095
  0
LINE
  8
0
 10
-8.42131
 20
4.04095
 11
-8.34839
 21
3.90948
  0
LINE
  8
0
 10
-8.34839
 20
3.90948
 11
-8.28723
 21
3.74908
  0
LINE
  8
0
 10
-8.28723
 20
3.74908
 11
-8.23547
 21
3.55104
  0
LINE
  8
0
 10
-8.23547
 20
3.55104
 11
-8.19315
 21
3.31537
  0
LINE
  8
0
 10
-8.19315
 20
3.31537
 11
-8.1602
 21
3.04205
  0
LINE
  8
0
 10
-8.1602
 20
3.04205
 11
-8.13669
 21
2.73111
  0
LINE
  8
0
 10
-8.13669
 20
2.73111
 11
-8.12257
 21
2.38252
  0
LINE
  8
0
 10
-8.12257
 20
2.38252
 11
-8.11787
 21
1.99631
  0
LINE
  8
0
 10
-8.11787
 20
1.99631
 11
-8.11787
 21
-6.28999
  0
LINE
  8
0
 10
-8.11787
 20
-6.28999
 11
-5.38562
 21
-6.28999
  0
LINE
  8
0
 10
-5.38562
 20
-6.28999
 11
-5.38562
 21
1.99631
  0
LINE
  8
0
 10
-5.38562
 20
1.99631
 11
-5.38092
 21
2.38252
  0
LINE
  8
0
 10
-5.38092
 20
2.38252
 11
-5.36681
 21
2.73111
  0
LINE
  8
0
 10
-5.36681
 20
2.73111
 11
-5.34329
 21
3.04205
  0
LINE
  8
0
 10
-5.34329
 20
3.04205
 11
-5.31035
 21
3.31537
  0
LINE
  8
0
 10
-5.31035
 20
3.31537
 11
-5.26802
 21
3.55104
  0
LINE
  8
0
 10
-5.26802
 20
3.55104
 11
-5.21626
 21
3.74908
  0
LINE
  8
0
 10
-5.21626
 20
3.74908
 11
-5.15511
 21
3.90948
  0
LINE
  8
0
 10
-5.15511
 20
3.90948
 11
-5.08218
 21
4.04095
  0
LINE
  8
0
 10
-5.08218
 20
4.04095
 11
-4.99515
 21
4.15221
  0
LINE
  8
0
 10
-4.99515
 20
4.15221
 11
-4.89398
 21
4.24323
  0
LINE
  8
0
 10
-4.89398
 20
4.24323
 11
-4.77869
 21
4.31401
  0
LINE
  8
0
 10
-4.77869
 20
4.31401
 11
-4.64929
 21
4.36458
  0
LINE
  8
0
 10
-4.64929
 20
4.36458
 11
-4.50577
 21
4.39491
  0
LINE
  8
0
 10
-4.50577
 20
4.39491
 11
-4.34811
 21
4.40503
  0
LINE
  8
0
 10
-4.34811
 20
4.40503
 11
-4.19075
 21
4.39516
  0
LINE
  8
0
 10
-4.19075
 20
4.39516
 11
-4.04797
 21
4.36551
  0
LINE
  8
0
 10
-4.04797
 20
4.36551
 11
-3.91978
 21
4.3161
  0
LINE
  8
0
 10
-3.91978
 20
4.3161
 11
-3.80617
 21
4.24693
  0
LINE
  8
0
 10
-3.80617
 20
4.24693
 11
-3.70715
 21
4.158
  0
LINE
  8
0
 10
-3.70715
 20
4.158
 11
-3.62271
 21
4.04932
  0
LINE
  8
0
 10
-3.62271
 20
4.04932
 11
-3.55286
 21
3.92087
  0
LINE
  8
0
 10
-3.55286
 20
3.92087
 11
-3.49472
 21
3.76306
  0
LINE
  8
0
 10
-3.49472
 20
3.76306
 11
-3.44553
 21
3.56622
  0
LINE
  8
0
 10
-3.44553
 20
3.56622
 11
-3.40527
 21
3.33032
  0
LINE
  8
0
 10
-3.40527
 20
3.33032
 11
-3.37398
 21
3.05539
  0
LINE
  8
0
 10
-3.37398
 20
3.05539
 11
-3.35161
 21
2.74141
  0
LINE
  8
0
 10
-3.35161
 20
2.74141
 11
-3.3382
 21
2.38838
  0
LINE
  8
0
 10
-3.3382
 20
2.38838
 11
-3.33372
 21
1.99631
  0
LINE
  8
0
 10
-3.33372
 20
1.99631
 11
-3.33372
 21
-6.28999
  0
LINE
  8
0
 10
-3.33372
 20
-6.28999
 11
-0.566971
 21
-6.28999
  0
LINE
  8
0
 10
-0.566971
 20
-6.28999
 11
-0.566971
 21
0.982086
  0
LINE
  8
0
 10
-0.566971
 20
0.982086
 11
-0.580032
 21
1.97186
  0
LINE
  8
0
 10
-0.580032
 20
1.97186
 11
-0.619217
 21
2.86003
  0
LINE
  8
0
 10
-0.619217
 20
2.86003
 11
-0.684509
 21
3.64658
  0
LINE
  8
0
 10
-0.684509
 20
3.64658
 11
-0.775925
 21
4.33151
  0
LINE
  8
0
 10
-0.775925
 20
4.33151
 11
-0.893448
 21
4.91483
  0
LINE
  8
0
 10
-0.893448
 20
4.91483
 11
-1.03709
 21
5.39651
  0
LINE
  8
0
 10
-1.03709
 20
5.39651
 11
-1.20686
 21
5.7766
  0
LINE
  8
0
 10
-1.20686
 20
5.7766
 11
-1.41069
 21
6.08238
  0
LINE
  8
0
 10
-1.41069
 20
6.08238
 11
-1.65665
 21
6.34113
  0
LINE
  8
0
 10
-1.65665
 20
6.34113
 11
-1.94472
 21
6.55283
  0
LINE
  8
0
 10
-1.94472
 20
6.55283
 11
-2.2749
 21
6.71748
  0
LINE
  8
0
 10
-2.2749
 20
6.71748
 11
-2.6472
 21
6.8351
  0
LINE
  8
0
 10
-2.6472
 20
6.8351
 11
-3.06163
 21
6.90567
  0
LINE
  8
0
 10
-3.06163
 20
6.90567
 11
-3.51817
 21
6.9292
  0
LINE
  8
0
 10
-3.51817
 20
6.9292
 11
-3.7565
 21
6.9212
  0
LINE
  8
0
 10
-3.7565
 20
6.9212
 11
-3.98399
 21
6.89726
  0
LINE
  8
0
 10
-3.98399
 20
6.89726
 11
-4.20067
 21
6.85735
  0
LINE
  8
0
 10
-4.20067
 20
6.85735
 11
-4.40651
 21
6.80147
  0
LINE
  8
0
 10
-4.40651
 20
6.80147
 11
-4.60153
 21
6.72961
  0
LINE
  8
0
 10
-4.60153
 20
6.72961
 11
-4.78572
 21
6.6418
  0
LINE
  8
0
 10
-4.78572
 20
6.6418
 11
-4.95909
 21
6.53802
  0
LINE
  8
0
 10
-4.95909
 20
6.53802
 11
-5.12282
 21
6.41757
  0
LINE
  8
0
 10
-5.12282
 20
6.41757
 11
-5.27809
 21
6.27974
  0
LINE
  8
0
 10
-5.27809
 20
6.27974
 11
-5.42488
 21
6.12451
  0
LINE
  8
0
 10
-5.42488
 20
6.12451
 11
-5.56322
 21
5.95192
  0
LINE
  8
0
 10
-5.56322
 20
5.95192
 11
-5.69308
 21
5.76193
  0
LINE
  8
0
 10
-5.69308
 20
5.76193
 11
-5.81448
 21
5.55458
  0
LINE
  8
0
 10
-5.81448
 20
5.55458
 11
-5.92741
 21
5.32983
  0
LINE
  8
0
 10
-5.92741
 20
5.32983
 11
-5.97731
 21
5.51642
  0
LINE
  8
0
 10
-5.97731
 20
5.51642
 11
-6.0479
 21
5.69476
  0
LINE
  8
0
 10
-6.0479
 20
5.69476
 11
-6.13921
 21
5.8649
  0
LINE
  8
0
 10
-6.13921
 20
5.8649
 11
-6.25121
 21
6.02682
  0
LINE
  8
0
 10
-6.25121
 20
6.02682
 11
-6.38393
 21
6.18051
  0
LINE
  8
0
 10
-6.38393
 20
6.18051
 11
-6.53734
 21
6.32597
  0
LINE
  8
0
 10
-6.53734
 20
6.32597
 11
-6.71146
 21
6.46323
  0
LINE
  8
0
 10
-6.71146
 20
6.46323
 11
-6.89871
 21
6.58685
  0
LINE
  8
0
 10
-6.89871
 20
6.58685
 11
-7.0916
 21
6.69145
  0
LINE
  8
0
 10
-7.0916
 20
6.69145
 11
-7.29015
 21
6.77704
  0
LINE
  8
0
 10
-7.29015
 20
6.77704
 11
-7.49434
 21
6.84361
  0
LINE
  8
0
 10
-7.49434
 20
6.84361
 11
-7.70419
 21
6.89116
  0
LINE
  8
0
 10
-7.70419
 20
6.89116
 11
-7.91968
 21
6.91968
  0
LINE
  8
0
 10
-7.91968
 20
6.91968
 11
-8.14082
 21
6.9292
  0
LINE
  8
0
 10
-8.14082
 20
6.9292
 11
-8.36172
 21
6.92015
  0
LINE
  8
0
 10
-8.36172
 20
6.92015
 11
-8.57652
 21
6.89302
  0
LINE
  8
0
 10
-8.57652
 20
6.89302
 11
-8.7852
 21
6.84782
  0
LINE
  8
0
 10
-8.7852
 20
6.84782
 11
-8.98776
 21
6.78453
  0
LINE
  8
0
 10
-8.98776
 20
6.78453
 11
-9.18422
 21
6.70316
  0
LINE
  8
0
 10
-9.18422
 20
6.70316
 11
-9.37456
 21
6.60371
  0
LINE
  8
0
 10
-9.37456
 20
6.60371
 11
-9.55879
 21
6.48618
  0
LINE
  8
0
 10
-9.55879
 20
6.48618
 11
-9.73289
 21
6.35313
  0
LINE
  8
0
 10
-9.73289
 20
6.35313
 11
-9.89288
 21
6.20718
  0
LINE
  8
0
 10
-9.89288
 20
6.20718
 11
-10.0388
 21
6.04829
  0
LINE
  8
0
 10
-10.0388
 20
6.04829
 11
-10.1705
 21
5.87651
  0
LINE
  8
0
 10
-10.1705
 20
5.87651
 11
-10.2881
 21
5.69179
  0
LINE
  8
0
 10
-10.2881
 20
5.69179
 11
-10.3916
 21
5.49416
  0
LINE
  8
0
 10
-10.3916
 20
5.49416
 11
-10.481
 21
5.2836
  0
LINE
  8
0
 10
-10.481
 20
5.2836
 11
-10.481
 21
6.62456
  0
LINE
  8
0
 10
-10.481
 20
6.62456
 11
-12.9365
 21
6.62456
  0
LINE
  8
0
 10
-12.9365
 20
6.62456
 11
-12.9365
 21
-6.28999
  0
LINE
  8
0
 10
-12.9365
 20
-6.28999
 11
-10.1698
 21
-6.28999
  0
LINE
  8
0
 10
-10.1698
 20
-6.28999
 11
-10.1698
 21
1.99631
  0
LINE
  8
0
 10
-12.4365
 20
-5.78999
 11
-12.4365
 21
6.12456
  0
LINE
  8
0
 10
-12.4365
 20
6.12456
 11
-10.981
 21
6.12456
  0
LINE
  8
0
 10
-10.981
 20
6.12456
 11
-10.981
 21
5.2836
  0
LINE
  8
0
 10
-10.981
 20
5.2836
 11
-10.9785
 21
5.23309
  0
LINE
  8
0
 10
-10.9785
 20
5.23309
 11
-10.9682
 21
5.17114
  0
LINE
  8
0
 10
-10.9682
 20
5.17114
 11
-10.9503
 21
5.11098
  0
LINE
  8
0
 10
-10.9503
 20
5.11098
 11
-10.925
 21
5.05351
  0
LINE
  8
0
 10
-10.925
 20
5.05351
 11
-10.8926
 21
4.99969
  0
LINE
  8
0
 10
-10.8926
 20
4.99969
 11
-10.8538
 21
4.95035
  0
LINE
  8
0
 10
-10.8538
 20
4.95035
 11
-10.8091
 21
4.90627
  0
LINE
  8
0
 10
-10.8091
 20
4.90627
 11
-10.7592
 21
4.86812
  0
LINE
  8
0
 10
-10.7592
 20
4.86812
 11
-10.7049
 21
4.83653
  0
LINE
  8
0
 10
-10.7049
 20
4.83653
 11
-10.6471
 21
4.812
  0
LINE
  8
0
 10
-10.6471
 20
4.812
 11
-10.5867
 21
4.79489
  0
LINE
  8
0
 10
-10.5867
 20
4.79489
 11
-10.5246
 21
4.78551
  0
LINE
  8
0
 10
-10.5246
 20
4.78551
 11
-10.4619
 21
4.78397
  0
LINE
  8
0
 10
-10.4619
 20
4.78397
 11
-10.3994
 21
4.79031
  0
LINE
  8
0
 10
-10.3994
 20
4.79031
 11
-10.3382
 21
4.80443
  0
LINE
  8
0
 10
-10.3382
 20
4.80443
 11
-10.2793
 21
4.82611
  0
LINE
  8
0
 10
-10.2793
 20
4.82611
 11
-10.2235
 21
4.85501
  0
LINE
  8
0
 10
-10.2235
 20
4.85501
 11
-10.1718
 21
4.89066
  0
LINE
  8
0
 10
-10.1718
 20
4.89066
 11
-10.125
 21
4.93251
  0
LINE
  8
0
 10
-10.125
 20
4.93251
 11
-10.0838
 21
4.97989
  0
LINE
  8
0
 10
-10.0838
 20
4.97989
 11
-10.0489
 21
5.03207
  0
LINE
  8
0
 10
-10.0489
 20
5.03207
 11
-10.0208
 21
5.08821
  0
LINE
  8
0
 10
-10.0208
 20
5.08821
 11
-9.93927
 21
5.28023
  0
LINE
  8
0
 10
-9.93927
 20
5.28023
 11
-9.85504
 21
5.44102
  0
LINE
  8
0
 10
-9.85504
 20
5.44102
 11
-9.76051
 21
5.58948
  0
LINE
  8
0
 10
-9.76051
 20
5.58948
 11
-9.65544
 21
5.72649
  0
LINE
  8
0
 10
-9.65544
 20
5.72649
 11
-9.53951
 21
5.85277
  0
LINE
  8
0
 10
-9.53951
 20
5.85277
 11
-9.412
 21
5.96909
  0
LINE
  8
0
 10
-9.412
 20
5.96909
 11
-9.27208
 21
6.076
  0
LINE
  8
0
 10
-9.27208
 20
6.076
 11
-9.12386
 21
6.17056
  0
LINE
  8
0
 10
-9.12386
 20
6.17056
 11
-8.97241
 21
6.24968
  0
LINE
  8
0
 10
-8.97241
 20
6.24968
 11
-8.81717
 21
6.314
  0
LINE
  8
0
 10
-8.81717
 20
6.314
 11
-8.65733
 21
6.36394
  0
LINE
  8
0
 10
-8.65733
 20
6.36394
 11
-8.49225
 21
6.39969
  0
LINE
  8
0
 10
-8.49225
 20
6.39969
 11
-8.32013
 21
6.42143
  0
LINE
  8
0
 10
-8.32013
 20
6.42143
 11
-8.14133
 21
6.42876
  0
LINE
  8
0
 10
-8.14133
 20
6.42876
 11
-7.9633
 21
6.42108
  0
LINE
  8
0
 10
-7.9633
 20
6.42108
 11
-7.79239
 21
6.39847
  0
LINE
  8
0
 10
-7.79239
 20
6.39847
 11
-7.62733
 21
6.36107
  0
LINE
  8
0
 10
-7.62733
 20
6.36107
 11
-7.46692
 21
6.30878
  0
LINE
  8
0
 10
-7.46692
 20
6.30878
 11
-7.3102
 21
6.24121
  0
LINE
  8
0
 10
-7.3102
 20
6.24121
 11
-7.15613
 21
6.15765
  0
LINE
  8
0
 10
-7.15613
 20
6.15765
 11
-7.00441
 21
6.0575
  0
LINE
  8
0
 10
-7.00441
 20
6.0575
 11
-6.86479
 21
5.94743
  0
LINE
  8
0
 10
-6.86479
 20
5.94743
 11
-6.74606
 21
5.83487
  0
LINE
  8
0
 10
-6.74606
 20
5.83487
 11
-6.6472
 21
5.72037
  0
LINE
  8
0
 10
-6.6472
 20
5.72037
 11
-6.56644
 21
5.60362
  0
LINE
  8
0
 10
-6.56644
 20
5.60362
 11
-6.50212
 21
5.48378
  0
LINE
  8
0
 10
-6.50212
 20
5.48378
 11
-6.4529
 21
5.35938
  0
LINE
  8
0
 10
-6.4529
 20
5.35938
 11
-6.41045
 21
5.20067
  0
LINE
  8
0
 10
-6.41045
 20
5.20067
 11
-6.38516
 21
5.12869
  0
LINE
  8
0
 10
-6.38516
 20
5.12869
 11
-6.35635
 21
5.07291
  0
LINE
  8
0
 10
-6.35635
 20
5.07291
 11
-6.32077
 21
5.02116
  0
LINE
  8
0
 10
-6.32077
 20
5.02116
 11
-6.27898
 21
4.9743
  0
LINE
  8
0
 10
-6.27898
 20
4.9743
 11
-6.23164
 21
4.93304
  0
LINE
  8
0
 10
-6.23164
 20
4.93304
 11
-6.17952
 21
4.89804
  0
LINE
  8
0
 10
-6.17952
 20
4.89804
 11
-6.12341
 21
4.86984
  0
LINE
  8
0
 10
-6.12341
 20
4.86984
 11
-6.06421
 21
4.84891
  0
LINE
  8
0
 10
-6.06421
 20
4.84891
 11
-6.00285
 21
4.83556
  0
LINE
  8
0
 10
-6.00285
 20
4.83556
 11
-5.94031
 21
4.83
  0
LINE
  8
0
 10
-5.94031
 20
4.83
 11
-5.87756
 21
4.83232
  0
LINE
  8
0
 10
-5.87756
 20
4.83232
 11
-5.81561
 21
4.8425
  0
LINE
  8
0
 10
-5.81561
 20
4.8425
 11
-5.7554
 21
4.86035
  0
LINE
  8
0
 10
-5.7554
 20
4.86035
 11
-5.69792
 21
4.8856
  0
LINE
  8
0
 10
-5.69792
 20
4.8856
 11
-5.64406
 21
4.91788
  0
LINE
  8
0
 10
-5.64406
 20
4.91788
 11
-5.59467
 21
4.95663
  0
LINE
  8
0
 10
-5.59467
 20
4.95663
 11
-5.55051
 21
5.00128
  0
LINE
  8
0
 10
-5.55051
 20
5.00128
 11
-5.5123
 21
5.05112
  0
LINE
  8
0
 10
-5.5123
 20
5.05112
 11
-5.48064
 21
5.10535
  0
LINE
  8
0
 10
-5.48064
 20
5.10535
 11
-5.37488
 21
5.31583
  0
LINE
  8
0
 10
-5.37488
 20
5.31583
 11
-5.27046
 21
5.49416
  0
LINE
  8
0
 10
-5.27046
 20
5.49416
 11
-5.16119
 21
5.65402
  0
LINE
  8
0
 10
-5.16119
 20
5.65402
 11
-5.04747
 21
5.7959
  0
LINE
  8
0
 10
-5.04747
 20
5.7959
 11
-4.92979
 21
5.92033
  0
LINE
  8
0
 10
-4.92979
 20
5.92033
 11
-4.80807
 21
6.02838
  0
LINE
  8
0
 10
-4.80807
 20
6.02838
 11
-4.68193
 21
6.1212
  0
LINE
  8
0
 10
-4.68193
 20
6.1212
 11
-4.54913
 21
6.20068
  0
LINE
  8
0
 10
-4.54913
 20
6.20068
 11
-4.4071
 21
6.2684
  0
LINE
  8
0
 10
-4.4071
 20
6.2684
 11
-4.25443
 21
6.32465
  0
LINE
  8
0
 10
-4.25443
 20
6.32465
 11
-4.08965
 21
6.36938
  0
LINE
  8
0
 10
-4.08965
 20
6.36938
 11
-3.91237
 21
6.40204
  0
LINE
  8
0
 10
-3.91237
 20
6.40204
 11
-3.722
 21
6.42207
  0
LINE
  8
0
 10
-3.722
 20
6.42207
 11
-3.52267
 21
6.42876
  0
LINE
  8
0
 10
-3.52267
 20
6.42876
 11
-3.11661
 21
6.40784
  0
LINE
  8
0
 10
-3.11661
 20
6.40784
 11
-2.76505
 21
6.34796
  0
LINE
  8
0
 10
-2.76505
 20
6.34796
 11
-2.46291
 21
6.25252
  0
LINE
  8
0
 10
-2.46291
 20
6.25252
 11
-2.2063
 21
6.12456
  0
LINE
  8
0
 10
-2.2063
 20
6.12456
 11
-1.98845
 21
5.96445
  0
LINE
  8
0
 10
-1.98845
 20
5.96445
 11
-1.80283
 21
5.7692
  0
LINE
  8
0
 10
-1.80283
 20
5.7692
 11
-1.64622
 21
5.53424
  0
LINE
  8
0
 10
-1.64622
 20
5.53424
 11
-1.5069
 21
5.22232
  0
LINE
  8
0
 10
-1.5069
 20
5.22232
 11
-1.37915
 21
4.79391
  0
LINE
  8
0
 10
-1.37915
 20
4.79391
 11
-1.26933
 21
4.24886
  0
LINE
  8
0
 10
-1.26933
 20
4.24886
 11
-1.18178
 21
3.59288
  0
LINE
  8
0
 10
-1.18178
 20
3.59288
 11
-1.11829
 21
2.82812
  0
LINE
  8
0
 10
-1.11829
 20
2.82812
 11
-1.07988
 21
1.95755
  0
LINE
  8
0
 10
-1.07988
 20
1.95755
 11
-1.06697
 21
0.978958
  0
LINE
  8
0
 10
-1.06697
 20
0.978958
 11
-1.06697
 21
-5.78999
  0
LINE
  8
0
 10
-1.06697
 20
-5.78999
 11
-2.83372
 21
-5.78999
  0
LINE
  8
0
 10
-2.83372
 20
-5.78999
 11
-2.83372
 21
1.99631
  0
LINE
  8
0
 10
-2.83372
 20
1.99631
 11
-2.83376
 21
2.00201
  0
LINE
  8
0
 10
-2.83376
 20
2.00201
 11
-2.83823
 21
2.39409
  0
LINE
  8
0
 10
-2.83823
 20
2.39409
 11
-2.83856
 21
2.40736
  0
LINE
  8
0
 10
-2.83856
 20
2.40736
 11
-2.85197
 21
2.76039
  0
LINE
  8
0
 10
-2.85197
 20
2.76039
 11
-2.85287
 21
2.77695
  0
LINE
  8
0
 10
-2.85287
 20
2.77695
 11
-2.87524
 21
3.09093
  0
LINE
  8
0
 10
-2.87524
 20
3.09093
 11
-2.87718
 21
3.11194
  0
LINE
  8
0
 10
-2.87718
 20
3.11194
 11
-2.90848
 21
3.38687
  0
LINE
  8
0
 10
-2.90848
 20
3.38687
 11
-2.9124
 21
3.41443
  0
LINE
  8
0
 10
-2.9124
 20
3.41443
 11
-2.95265
 21
3.65033
  0
LINE
  8
0
 10
-2.95265
 20
3.65033
 11
-2.96045
 21
3.68745
  0
LINE
  8
0
 10
-2.96045
 20
3.68745
 11
-3.00964
 21
3.88429
  0
LINE
  8
0
 10
-3.00964
 20
3.88429
 11
-3.02554
 21
3.93591
  0
LINE
  8
0
 10
-3.02554
 20
3.93591
 11
-3.08368
 21
4.09372
  0
LINE
  8
0
 10
-3.08368
 20
4.09372
 11
-3.11362
 21
4.15974
  0
LINE
  8
0
 10
-3.11362
 20
4.15974
 11
-3.18347
 21
4.28819
  0
LINE
  8
0
 10
-3.18347
 20
4.28819
 11
-3.22787
 21
4.35608
  0
LINE
  8
0
 10
-3.22787
 20
4.35608
 11
-3.31232
 21
4.46477
  0
LINE
  8
0
 10
-3.31232
 20
4.46477
 11
-3.37305
 21
4.53
  0
LINE
  8
0
 10
-3.37305
 20
4.53
 11
-3.47206
 21
4.61893
  0
LINE
  8
0
 10
-3.47206
 20
4.61893
 11
-3.54617
 21
4.67401
  0
LINE
  8
0
 10
-3.54617
 20
4.67401
 11
-3.65979
 21
4.74318
  0
LINE
  8
0
 10
-3.65979
 20
4.74318
 11
-3.73996
 21
4.78265
  0
LINE
  8
0
 10
-3.73996
 20
4.78265
 11
-3.86815
 21
4.83206
  0
LINE
  8
0
 10
-3.86815
 20
4.83206
 11
-3.94632
 21
4.85507
  0
LINE
  8
0
 10
-3.94632
 20
4.85507
 11
-4.0891
 21
4.88472
  0
LINE
  8
0
 10
-4.0891
 20
4.88472
 11
-4.15944
 21
4.89418
  0
LINE
  8
0
 10
-4.15944
 20
4.89418
 11
-4.3168
 21
4.90405
  0
LINE
  8
0
 10
-4.3168
 20
4.90405
 11
-4.38013
 21
4.90401
  0
LINE
  8
0
 10
-4.38013
 20
4.90401
 11
-4.53778
 21
4.89389
  0
LINE
  8
0
 10
-4.53778
 20
4.89389
 11
-4.60916
 21
4.88411
  0
LINE
  8
0
 10
-4.60916
 20
4.88411
 11
-4.75269
 21
4.85378
  0
LINE
  8
0
 10
-4.75269
 20
4.85378
 11
-4.83128
 21
4.83028
  0
LINE
  8
0
 10
-4.83128
 20
4.83028
 11
-4.96068
 21
4.77971
  0
LINE
  8
0
 10
-4.96068
 20
4.77971
 11
-5.0403
 21
4.74011
  0
LINE
  8
0
 10
-5.0403
 20
4.74011
 11
-5.15559
 21
4.66933
  0
LINE
  8
0
 10
-5.15559
 20
4.66933
 11
-5.22841
 21
4.61493
  0
LINE
  8
0
 10
-5.22841
 20
4.61493
 11
-5.32957
 21
4.52391
  0
LINE
  8
0
 10
-5.32957
 20
4.52391
 11
-5.38895
 21
4.4603
  0
LINE
  8
0
 10
-5.38895
 20
4.4603
 11
-5.47598
 21
4.34904
  0
LINE
  8
0
 10
-5.47598
 20
4.34904
 11
-5.51942
 21
4.28348
  0
LINE
  8
0
 10
-5.51942
 20
4.28348
 11
-5.59235
 21
4.15201
  0
LINE
  8
0
 10
-5.59235
 20
4.15201
 11
-5.6223
 21
4.08762
  0
LINE
  8
0
 10
-5.6223
 20
4.08762
 11
-5.68346
 21
3.92722
  0
LINE
  8
0
 10
-5.68346
 20
3.92722
 11
-5.70001
 21
3.8755
  0
LINE
  8
0
 10
-5.70001
 20
3.8755
 11
-5.75177
 21
3.67746
  0
LINE
  8
0
 10
-5.75177
 20
3.67746
 11
-5.76015
 21
3.63943
  0
LINE
  8
0
 10
-5.76015
 20
3.63943
 11
-5.80247
 21
3.40376
  0
LINE
  8
0
 10
-5.80247
 20
3.40376
 11
-5.80676
 21
3.3752
  0
LINE
  8
0
 10
-5.80676
 20
3.3752
 11
-5.83971
 21
3.10188
  0
LINE
  8
0
 10
-5.83971
 20
3.10188
 11
-5.84187
 21
3.07976
  0
LINE
  8
0
 10
-5.84187
 20
3.07976
 11
-5.86539
 21
2.76881
  0
LINE
  8
0
 10
-5.86539
 20
2.76881
 11
-5.86639
 21
2.75134
  0
LINE
  8
0
 10
-5.86639
 20
2.75134
 11
-5.88051
 21
2.40276
  0
LINE
  8
0
 10
-5.88051
 20
2.40276
 11
-5.88089
 21
2.38861
  0
LINE
  8
0
 10
-5.88089
 20
2.38861
 11
-5.88559
 21
2.0024
  0
LINE
  8
0
 10
-5.88559
 20
2.0024
 11
-5.88562
 21
1.99631
  0
LINE
  8
0
 10
-5.88562
 20
1.99631
 11
-5.88562
 21
-5.78999
  0
LINE
  8
0
 10
-5.88562
 20
-5.78999
 11
-7.61787
 21
-5.78999
  0
LINE
  8
0
 10
-7.61787
 20
-5.78999
 11
-7.61787
 21
1.99631
  0
LINE
  8
0
 10
-7.61787
 20
1.99631
 11
-7.6179
 21
2.0024
  0
LINE
  8
0
 10
-7.6179
 20
2.0024
 11
-7.6226
 21
2.38861
  0
LINE
  8
0
 10
-7.6226
 20
2.38861
 11
-7.62299
 21
2.40276
  0
LINE
  8
0
 10
-7.62299
 20
2.40276
 11
-7.6371
 21
2.75134
  0
LINE
  8
0
 10
-7.6371
 20
2.75134
 11
-7.63811
 21
2.76881
  0
LINE
  8
0
 10
-7.63811
 20
2.76881
 11
-7.66162
 21
3.07976
  0
LINE
  8
0
 10
-7.66162
 20
3.07976
 11
-7.66379
 21
3.10188
  0
LINE
  8
0
 10
-7.66379
 20
3.10188
 11
-7.69673
 21
3.3752
  0
LINE
  8
0
 10
-7.69673
 20
3.3752
 11
-7.70102
 21
3.40376
  0
LINE
  8
0
 10
-7.70102
 20
3.40376
 11
-7.74335
 21
3.63943
  0
LINE
  8
0
 10
-7.74335
 20
3.63943
 11
-7.75172
 21
3.67746
  0
LINE
  8
0
 10
-7.75172
 20
3.67746
 11
-7.80348
 21
3.8755
  0
LINE
  8
0
 10
-7.80348
 20
3.8755
 11
-7.82004
 21
3.92722
  0
LINE
  8
0
 10
-7.82004
 20
3.92722
 11
-7.8812
 21
4.08762
  0
LINE
  8
0
 10
-7.8812
 20
4.08762
 11
-7.91115
 21
4.15201
  0
LINE
  8
0
 10
-7.91115
 20
4.15201
 11
-7.98407
 21
4.28348
  0
LINE
  8
0
 10
-7.98407
 20
4.28348
 11
-8.02751
 21
4.34904
  0
LINE
  8
0
 10
-8.02751
 20
4.34904
 11
-8.11455
 21
4.4603
  0
LINE
  8
0
 10
-8.11455
 20
4.4603
 11
-8.17392
 21
4.52391
  0
LINE
  8
0
 10
-8.17392
 20
4.52391
 11
-8.27509
 21
4.61493
  0
LINE
  8
0
 10
-8.27509
 20
4.61493
 11
-8.3479
 21
4.66933
  0
LINE
  8
0
 10
-8.3479
 20
4.66933
 11
-8.4632
 21
4.74011
  0
LINE
  8
0
 10
-8.4632
 20
4.74011
 11
-8.54282
 21
4.77971
  0
LINE
  8
0
 10
-8.54282
 20
4.77971
 11
-8.67221
 21
4.83028
  0
LINE
  8
0
 10
-8.67221
 20
4.83028
 11
-8.75081
 21
4.85378
  0
LINE
  8
0
 10
-8.75081
 20
4.85378
 11
-8.89433
 21
4.88411
  0
LINE
  8
0
 10
-8.89433
 20
4.88411
 11
-8.96571
 21
4.89389
  0
LINE
  8
0
 10
-8.96571
 20
4.89389
 11
-9.12337
 21
4.90401
  0
LINE
  8
0
 10
-9.12337
 20
4.90401
 11
-9.18669
 21
4.90405
  0
LINE
  8
0
 10
-9.18669
 20
4.90405
 11
-9.34406
 21
4.89418
  0
LINE
  8
0
 10
-9.34406
 20
4.89418
 11
-9.4144
 21
4.88472
  0
LINE
  8
0
 10
-9.4144
 20
4.88472
 11
-9.55719
 21
4.85507
  0
LINE
  8
0
 10
-9.55719
 20
4.85507
 11
-9.63535
 21
4.83206
  0
LINE
  8
0
 10
-9.63535
 20
4.83206
 11
-9.76355
 21
4.78265
  0
LINE
  8
0
 10
-9.76355
 20
4.78265
 11
-9.84372
 21
4.74319
  0
LINE
  8
0
 10
-9.84372
 20
4.74319
 11
-9.95735
 21
4.67403
  0
LINE
  8
0
 10
-9.95735
 20
4.67403
 11
-10.0314
 21
4.619
  0
LINE
  8
0
 10
-10.0314
 20
4.619
 11
-10.1304
 21
4.53008
  0
LINE
  8
0
 10
-10.1304
 20
4.53008
 11
-10.1912
 21
4.46483
  0
LINE
  8
0
 10
-10.1912
 20
4.46483
 11
-10.2757
 21
4.35614
  0
LINE
  8
0
 10
-10.2757
 20
4.35614
 11
-10.3201
 21
4.28831
  0
LINE
  8
0
 10
-10.3201
 20
4.28831
 11
-10.39
 21
4.15987
  0
LINE
  8
0
 10
-10.39
 20
4.15987
 11
-10.42
 21
4.0936
  0
LINE
  8
0
 10
-10.42
 20
4.0936
 11
-10.4781
 21
3.93579
  0
LINE
  8
0
 10
-10.4781
 20
3.93579
 11
-10.494
 21
3.88422
  0
LINE
  8
0
 10
-10.494
 20
3.88422
 11
-10.5432
 21
3.68738
  0
LINE
  8
0
 10
-10.5432
 20
3.68738
 11
-10.5509
 21
3.65024
  0
LINE
  8
0
 10
-10.5509
 20
3.65024
 11
-10.5912
 21
3.41434
  0
LINE
  8
0
 10
-10.5912
 20
3.41434
 11
-10.5951
 21
3.38684
  0
LINE
  8
0
 10
-10.5951
 20
3.38684
 11
-10.6263
 21
3.11191
  0
LINE
  8
0
 10
-10.6263
 20
3.11191
 11
-10.6283
 21
3.09087
  0
LINE
  8
0
 10
-10.6283
 20
3.09087
 11
-10.6506
 21
2.77689
  0
LINE
  8
0
 10
-10.6506
 20
2.77689
 11
-10.6515
 21
2.76039
  0
LINE
  8
0
 10
-10.6515
 20
2.76039
 11
-10.6649
 21
2.40736
  0
LINE
  8
0
 10
-10.6649
 20
2.40736
 11
-10.6653
 21
2.39409
  0
LINE
  8
0
 10
-10.6653
 20
2.39409
 11
-10.6697
 21
2.00201
  0
LINE
  8
0
 10
-10.6697
 20
2.00201
 11
-10.6698
 21
1.99631
  0
LINE
  8
0
 10
-10.6698
 20
1.99631
 11
-10.6698
 21
-5.78999
  0
LINE
  8
0
 10
-10.6698
 20
-5.78999
 11
-12.4365
 21
-5.78999
  0
LINE
  8
0
 10
20.6144
 20
-0.343567
 11
20.6166
 21
0.00526428
  0
LINE
  8
0
 10
20.6166
 20
0.00526428
 11
20.6233
 21
0.327759
  0
LINE
  8
0
 10
20.6233
 20
0.327759
 11
20.6345
 21
0.623932
  0
LINE
  8
0
 10
20.6345
 20
0.623932
 11
20.6501
 21
0.893768
  0
LINE
  8
0
 10
20.6501
 20
0.893768
 11
20.6703
 21
1.13728
  0
LINE
  8
0
 10
20.6703
 20
1.13728
 11
20.6948
 21
1.35445
  0
LINE
  8
0
 10
20.6948
 20
1.35445
 11
20.7239
 21
1.54529
  0
LINE
  8
0
 10
20.7239
 20
1.54529
 11
20.7586
 21
1.71925
  0
LINE
  8
0
 10
20.7586
 20
1.71925
 11
20.8001
 21
1.8857
  0
LINE
  8
0
 10
20.8001
 20
1.8857
 11
20.8484
 21
2.04462
  0
LINE
  8
0
 10
20.8484
 20
2.04462
 11
20.9036
 21
2.19601
  0
LINE
  8
0
 10
20.9036
 20
2.19601
 11
20.9656
 21
2.33989
  0
LINE
  8
0
 10
20.9656
 20
2.33989
 11
21.0345
 21
2.47624
  0
LINE
  8
0
 10
21.0345
 20
2.47624
 11
21.1101
 21
2.60507
  0
LINE
  8
0
 10
21.1101
 20
2.60507
 11
21.2427
 21
2.80214
  0
LINE
  8
0
 10
21.2427
 20
2.80214
 11
21.3901
 21
2.98535
  0
LINE
  8
0
 10
21.3901
 20
2.98535
 11
21.5523
 21
3.15468
  0
LINE
  8
0
 10
21.5523
 20
3.15468
 11
21.7293
 21
3.31017
  0
LINE
  8
0
 10
21.7293
 20
3.31017
 11
21.9211
 21
3.45178
  0
LINE
  8
0
 10
21.9211
 20
3.45178
 11
22.1278
 21
3.57953
  0
LINE
  8
0
 10
22.1278
 20
3.57953
 11
22.3492
 21
3.69341
  0
LINE
  8
0
 10
22.3492
 20
3.69341
 11
22.5837
 21
3.79272
  0
LINE
  8
0
 10
22.5837
 20
3.79272
 11
22.8292
 21
3.87677
  0
LINE
  8
0
 10
22.8292
 20
3.87677
 11
23.0858
 21
3.94553
  0
LINE
  8
0
 10
23.0858
 20
3.94553
 11
23.3534
 21
3.99899
  0
LINE
  8
0
 10
23.3534
 20
3.99899
 11
23.6321
 21
4.0372
  0
LINE
  8
0
 10
23.6321
 20
4.0372
 11
23.9218
 21
4.06012
  0
LINE
  8
0
 10
23.9218
 20
4.06012
 11
24.2226
 21
4.06775
  0
LINE
  8
0
 10
24.2226
 20
4.06775
 11
24.4733
 21
4.06259
  0
LINE
  8
0
 10
24.4733
 20
4.06259
 11
24.7181
 21
4.0471
  0
LINE
  8
0
 10
24.7181
 20
4.0471
 11
24.957
 21
4.02129
  0
LINE
  8
0
 10
24.957
 20
4.02129
 11
25.19
 21
3.98515
  0
LINE
  8
0
 10
25.19
 20
3.98515
 11
25.4171
 21
3.93869
  0
LINE
  8
0
 10
25.4171
 20
3.93869
 11
25.6384
 21
3.8819
  0
LINE
  8
0
 10
25.6384
 20
3.8819
 11
25.8538
 21
3.81479
  0
LINE
  8
0
 10
25.8538
 20
3.81479
 11
26.0624
 21
3.73735
  0
LINE
  8
0
 10
26.0624
 20
3.73735
 11
26.2632
 21
3.6496
  0
LINE
  8
0
 10
26.2632
 20
3.6496
 11
26.4562
 21
3.55151
  0
LINE
  8
0
 10
26.4562
 20
3.55151
 11
26.6415
 21
3.4431
  0
LINE
  8
0
 10
26.6415
 20
3.4431
 11
26.819
 21
3.32436
  0
LINE
  8
0
 10
26.819
 20
3.32436
 11
26.9887
 21
3.1953
  0
LINE
  8
0
 10
26.9887
 20
3.1953
 11
27.1507
 21
3.05591
  0
LINE
  8
0
 10
27.1507
 20
3.05591
 11
27.1507
 21
6.2764
  0
LINE
  8
0
 10
27.1507
 20
6.2764
 11
26.9782
 21
6.36484
  0
LINE
  8
0
 10
26.9782
 20
6.36484
 11
26.803
 21
6.44699
  0
LINE
  8
0
 10
26.803
 20
6.44699
 11
26.6253
 21
6.52283
  0
LINE
  8
0
 10
26.6253
 20
6.52283
 11
26.445
 21
6.59236
  0
LINE
  8
0
 10
26.445
 20
6.59236
 11
26.2621
 21
6.65558
  0
LINE
  8
0
 10
26.2621
 20
6.65558
 11
26.0766
 21
6.71249
  0
LINE
  8
0
 10
26.0766
 20
6.71249
 11
25.8885
 21
6.76311
  0
LINE
  8
0
 10
25.8885
 20
6.76311
 11
25.6985
 21
6.80717
  0
LINE
  8
0
 10
25.6985
 20
6.80717
 11
25.5074
 21
6.84445
  0
LINE
  8
0
 10
25.5074
 20
6.84445
 11
25.315
 21
6.87495
  0
LINE
  8
0
 10
25.315
 20
6.87495
 11
25.1215
 21
6.89868
  0
LINE
  8
0
 10
25.1215
 20
6.89868
 11
24.9268
 21
6.91563
  0
LINE
  8
0
 10
24.9268
 20
6.91563
 11
24.731
 21
6.9258
  0
LINE
  8
0
 10
24.731
 20
6.9258
 11
24.5339
 21
6.9292
  0
LINE
  8
0
 10
24.5339
 20
6.9292
 11
24.149
 21
6.91684
  0
LINE
  8
0
 10
24.149
 20
6.91684
 11
23.7782
 21
6.87976
  0
LINE
  8
0
 10
23.7782
 20
6.87976
 11
23.4215
 21
6.81798
  0
LINE
  8
0
 10
23.4215
 20
6.81798
 11
23.079
 21
6.73146
  0
LINE
  8
0
 10
23.079
 20
6.73146
 11
22.7506
 21
6.62024
  0
LINE
  8
0
 10
22.7506
 20
6.62024
 11
22.4362
 21
6.4843
  0
LINE
  8
0
 10
22.4362
 20
6.4843
 11
22.1361
 21
6.32365
  0
LINE
  8
0
 10
22.1361
 20
6.32365
 11
21.8538
 21
6.14046
  0
LINE
  8
0
 10
21.8538
 20
6.14046
 11
21.5931
 21
5.93677
  0
LINE
  8
0
 10
21.5931
 20
5.93677
 11
21.3541
 21
5.71262
  0
LINE
  8
0
 10
21.3541
 20
5.71262
 11
21.1367
 21
5.46799
  0
LINE
  8
0
 10
21.1367
 20
5.46799
 11
20.9409
 21
5.20288
  0
LINE
  8
0
 10
20.9409
 20
5.20288
 11
20.7668
 21
4.9173
  0
LINE
  8
0
 10
20.7668
 20
4.9173
 11
20.6144
 21
4.61124
  0
LINE
  8
0
 10
20.6144
 20
4.61124
 11
20.6144
 21
6.62456
  0
LINE
  8
0
 10
20.6144
 20
6.62456
 11
17.2365
 21
6.62456
  0
LINE
  8
0
 10
17.2365
 20
6.62456
 11
17.2365
 21
-6.28999
  0
LINE
  8
0
 10
17.2365
 20
-6.28999
 11
20.6144
 21
-6.28999
  0
LINE
  8
0
 10
20.6144
 20
-6.28999
 11
20.6144
 21
-0.343567
  0
LINE
  8
0
 10
17.7365
 20
-5.78999
 11
17.7365
 21
6.12456
  0
LINE
  8
0
 10
17.7365
 20
6.12456
 11
20.1144
 21
6.12456
  0
LINE
  8
0
 10
20.1144
 20
6.12456
 11
20.1144
 21
4.61124
  0
LINE
  8
0
 10
20.1144
 20
4.61124
 11
20.1213
 21
4.52852
  0
LINE
  8
0
 10
20.1213
 20
4.52852
 11
20.1355
 21
4.46738
  0
LINE
  8
0
 10
20.1355
 20
4.46738
 11
20.1573
 21
4.40849
  0
LINE
  8
0
 10
20.1573
 20
4.40849
 11
20.1864
 21
4.35281
  0
LINE
  8
0
 10
20.1864
 20
4.35281
 11
20.2221
 21
4.30119
  0
LINE
  8
0
 10
20.2221
 20
4.30119
 11
20.2641
 21
4.25447
  0
LINE
  8
0
 10
20.2641
 20
4.25447
 11
20.3116
 21
4.21338
  0
LINE
  8
0
 10
20.3116
 20
4.21338
 11
20.3638
 21
4.17856
  0
LINE
  8
0
 10
20.3638
 20
4.17856
 11
20.42
 21
4.15057
  0
LINE
  8
0
 10
20.42
 20
4.15057
 11
20.4793
 21
4.12984
  0
LINE
  8
0
 10
20.4793
 20
4.12984
 11
20.5407
 21
4.1167
  0
LINE
  8
0
 10
20.5407
 20
4.1167
 11
20.6032
 21
4.11136
  0
LINE
  8
0
 10
20.6032
 20
4.11136
 11
20.666
 21
4.11391
  0
LINE
  8
0
 10
20.666
 20
4.11391
 11
20.7279
 21
4.1243
  0
LINE
  8
0
 10
20.7279
 20
4.1243
 11
20.788
 21
4.14236
  0
LINE
  8
0
 10
20.788
 20
4.14236
 11
20.8454
 21
4.16782
  0
LINE
  8
0
 10
20.8454
 20
4.16782
 11
20.8992
 21
4.20027
  0
LINE
  8
0
 10
20.8992
 20
4.20027
 11
20.9485
 21
4.23921
  0
LINE
  8
0
 10
20.9485
 20
4.23921
 11
20.9924
 21
4.28401
  0
LINE
  8
0
 10
20.9924
 20
4.28401
 11
21.0305
 21
4.33397
  0
LINE
  8
0
 10
21.0305
 20
4.33397
 11
21.062
 21
4.38831
  0
LINE
  8
0
 10
21.062
 20
4.38831
 11
21.2049
 21
4.67525
  0
LINE
  8
0
 10
21.2049
 20
4.67525
 11
21.3564
 21
4.92374
  0
LINE
  8
0
 10
21.3564
 20
4.92374
 11
21.5255
 21
5.15276
  0
LINE
  8
0
 10
21.5255
 20
5.15276
 11
21.7127
 21
5.36353
  0
LINE
  8
0
 10
21.7127
 20
5.36353
 11
21.9187
 21
5.55664
  0
LINE
  8
0
 10
21.9187
 20
5.55664
 11
22.1444
 21
5.733
  0
LINE
  8
0
 10
22.1444
 20
5.733
 11
22.3905
 21
5.89275
  0
LINE
  8
0
 10
22.3905
 20
5.89275
 11
22.6537
 21
6.03358
  0
LINE
  8
0
 10
22.6537
 20
6.03358
 11
22.9303
 21
6.15323
  0
LINE
  8
0
 10
22.9303
 20
6.15323
 11
23.2207
 21
6.25156
  0
LINE
  8
0
 10
23.2207
 20
6.25156
 11
23.5255
 21
6.32855
  0
LINE
  8
0
 10
23.5255
 20
6.32855
 11
23.8459
 21
6.38403
  0
LINE
  8
0
 10
23.8459
 20
6.38403
 11
24.1819
 21
6.41763
  0
LINE
  8
0
 10
24.1819
 20
6.41763
 11
24.5376
 21
6.42906
  0
LINE
  8
0
 10
24.5376
 20
6.42906
 11
24.7136
 21
6.42603
  0
LINE
  8
0
 10
24.7136
 20
6.42603
 11
24.8924
 21
6.41675
  0
LINE
  8
0
 10
24.8924
 20
6.41675
 11
25.0694
 21
6.40134
  0
LINE
  8
0
 10
25.0694
 20
6.40134
 11
25.2455
 21
6.37975
  0
LINE
  8
0
 10
25.2455
 20
6.37975
 11
25.4202
 21
6.35204
  0
LINE
  8
0
 10
25.4202
 20
6.35204
 11
25.5942
 21
6.3181
  0
LINE
  8
0
 10
25.5942
 20
6.3181
 11
25.7671
 21
6.278
  0
LINE
  8
0
 10
25.7671
 20
6.278
 11
25.9382
 21
6.23195
  0
LINE
  8
0
 10
25.9382
 20
6.23195
 11
26.1067
 21
6.18025
  0
LINE
  8
0
 10
26.1067
 20
6.18025
 11
26.2736
 21
6.12257
  0
LINE
  8
0
 10
26.2736
 20
6.12257
 11
26.437
 21
6.05956
  0
LINE
  8
0
 10
26.437
 20
6.05956
 11
26.5988
 21
5.99054
  0
LINE
  8
0
 10
26.5988
 20
5.99054
 11
26.6507
 21
5.96616
  0
LINE
  8
0
 10
26.6507
 20
5.96616
 11
26.6507
 21
4.0135
  0
LINE
  8
0
 10
26.6507
 20
4.0135
 11
26.4897
 21
4.09535
  0
LINE
  8
0
 10
26.4897
 20
4.09535
 11
26.4634
 21
4.10776
  0
LINE
  8
0
 10
26.4634
 20
4.10776
 11
26.2626
 21
4.19551
  0
LINE
  8
0
 10
26.2626
 20
4.19551
 11
26.2364
 21
4.20609
  0
LINE
  8
0
 10
26.2364
 20
4.20609
 11
26.0278
 21
4.28352
  0
LINE
  8
0
 10
26.0278
 20
4.28352
 11
26.0025
 21
4.29216
  0
LINE
  8
0
 10
26.0025
 20
4.29216
 11
25.7872
 21
4.35927
  0
LINE
  8
0
 10
25.7872
 20
4.35927
 11
25.7627
 21
4.3662
  0
LINE
  8
0
 10
25.7627
 20
4.3662
 11
25.5415
 21
4.42299
  0
LINE
  8
0
 10
25.5415
 20
4.42299
 11
25.5173
 21
4.42854
  0
LINE
  8
0
 10
25.5173
 20
4.42854
 11
25.2902
 21
4.47501
  0
LINE
  8
0
 10
25.2902
 20
4.47501
 11
25.2666
 21
4.47925
  0
LINE
  8
0
 10
25.2666
 20
4.47925
 11
25.0336
 21
4.51538
  0
LINE
  8
0
 10
25.0336
 20
4.51538
 11
25.0107
 21
4.51839
  0
LINE
  8
0
 10
25.0107
 20
4.51839
 11
24.7718
 21
4.5442
  0
LINE
  8
0
 10
24.7718
 20
4.5442
 11
24.7496
 21
4.54611
  0
LINE
  8
0
 10
24.7496
 20
4.54611
 11
24.5049
 21
4.5616
  0
LINE
  8
0
 10
24.5049
 20
4.5616
 11
24.4836
 21
4.56248
  0
LINE
  8
0
 10
24.4836
 20
4.56248
 11
24.2329
 21
4.56764
  0
LINE
  8
0
 10
24.2329
 20
4.56764
 11
24.21
 21
4.56758
  0
LINE
  8
0
 10
24.21
 20
4.56758
 11
23.9092
 21
4.55995
  0
LINE
  8
0
 10
23.9092
 20
4.55995
 11
23.8824
 21
4.55856
  0
LINE
  8
0
 10
23.8824
 20
4.55856
 11
23.5927
 21
4.53564
  0
LINE
  8
0
 10
23.5927
 20
4.53564
 11
23.5642
 21
4.53256
  0
LINE
  8
0
 10
23.5642
 20
4.53256
 11
23.2855
 21
4.49435
  0
LINE
  8
0
 10
23.2855
 20
4.49435
 11
23.2554
 21
4.4893
  0
LINE
  8
0
 10
23.2554
 20
4.4893
 11
22.9878
 21
4.43584
  0
LINE
  8
0
 10
22.9878
 20
4.43584
 11
22.9563
 21
4.42848
  0
LINE
  8
0
 10
22.9563
 20
4.42848
 11
22.6998
 21
4.35973
  0
LINE
  8
0
 10
22.6998
 20
4.35973
 11
22.6673
 21
4.34982
  0
LINE
  8
0
 10
22.6673
 20
4.34982
 11
22.4218
 21
4.26578
  0
LINE
  8
0
 10
22.4218
 20
4.26578
 11
22.3887
 21
4.25311
  0
LINE
  8
0
 10
22.3887
 20
4.25311
 11
22.1542
 21
4.15379
  0
LINE
  8
0
 10
22.1542
 20
4.15379
 11
22.1206
 21
4.13806
  0
LINE
  8
0
 10
22.1206
 20
4.13806
 11
21.8991
 21
4.02419
  0
LINE
  8
0
 10
21.8991
 20
4.02419
 11
21.8649
 21
4.00482
  0
LINE
  8
0
 10
21.8649
 20
4.00482
 11
21.6582
 21
3.87708
  0
LINE
  8
0
 10
21.6582
 20
3.87708
 11
21.6242
 21
3.85405
  0
LINE
  8
0
 10
21.6242
 20
3.85405
 11
21.4323
 21
3.71243
  0
LINE
  8
0
 10
21.4323
 20
3.71243
 11
21.3993
 21
3.68582
  0
LINE
  8
0
 10
21.3993
 20
3.68582
 11
21.2223
 21
3.53033
  0
LINE
  8
0
 10
21.2223
 20
3.53033
 11
21.1912
 21
3.50056
  0
LINE
  8
0
 10
21.1912
 20
3.50056
 11
21.029
 21
3.33124
  0
LINE
  8
0
 10
21.029
 20
3.33124
 11
21.0005
 21
3.29875
  0
LINE
  8
0
 10
21.0005
 20
3.29875
 11
20.8531
 21
3.11554
  0
LINE
  8
0
 10
20.8531
 20
3.11554
 11
20.8278
 21
3.08122
  0
LINE
  8
0
 10
20.8278
 20
3.08122
 11
20.6953
 21
2.88416
  0
LINE
  8
0
 10
20.6953
 20
2.88416
 11
20.679
 21
2.85829
  0
LINE
  8
0
 10
20.679
 20
2.85829
 11
20.6033
 21
2.72946
  0
LINE
  8
0
 10
20.6033
 20
2.72946
 11
20.5881
 21
2.70157
  0
LINE
  8
0
 10
20.5881
 20
2.70157
 11
20.5193
 21
2.56522
  0
LINE
  8
0
 10
20.5193
 20
2.56522
 11
20.5064
 21
2.53775
  0
LINE
  8
0
 10
20.5064
 20
2.53775
 11
20.4444
 21
2.39388
  0
LINE
  8
0
 10
20.4444
 20
2.39388
 11
20.4339
 21
2.36726
  0
LINE
  8
0
 10
20.4339
 20
2.36726
 11
20.3787
 21
2.21587
  0
LINE
  8
0
 10
20.3787
 20
2.21587
 11
20.3701
 21
2.19012
  0
LINE
  8
0
 10
20.3701
 20
2.19012
 11
20.3217
 21
2.0312
  0
LINE
  8
0
 10
20.3217
 20
2.0312
 11
20.315
 21
2.00671
  0
LINE
  8
0
 10
20.315
 20
2.00671
 11
20.2734
 21
1.84027
  0
LINE
  8
0
 10
20.2734
 20
1.84027
 11
20.2682
 21
1.81706
  0
LINE
  8
0
 10
20.2682
 20
1.81706
 11
20.2335
 21
1.6431
  0
LINE
  8
0
 10
20.2335
 20
1.6431
 11
20.2296
 21
1.62054
  0
LINE
  8
0
 10
20.2296
 20
1.62054
 11
20.2005
 21
1.4297
  0
LINE
  8
0
 10
20.2005
 20
1.4297
 11
20.198
 21
1.41064
  0
LINE
  8
0
 10
20.198
 20
1.41064
 11
20.1734
 21
1.19348
  0
LINE
  8
0
 10
20.1734
 20
1.19348
 11
20.172
 21
1.17844
  0
LINE
  8
0
 10
20.172
 20
1.17844
 11
20.1518
 21
0.934921
  0
LINE
  8
0
 10
20.1518
 20
0.934921
 11
20.151
 21
0.922699
  0
LINE
  8
0
 10
20.151
 20
0.922699
 11
20.1353
 21
0.652863
  0
LINE
  8
0
 10
20.1353
 20
0.652863
 11
20.1349
 21
0.642776
  0
LINE
  8
0
 10
20.1349
 20
0.642776
 11
20.1237
 21
0.346603
  0
LINE
  8
0
 10
20.1237
 20
0.346603
 11
20.1234
 21
0.338135
  0
LINE
  8
0
 10
20.1234
 20
0.338135
 11
20.1167
 21
0.0156403
  0
LINE
  8
0
 10
20.1167
 20
0.0156403
 11
20.1167
 21
0.00848389
  0
LINE
  8
0
 10
20.1167
 20
0.00848389
 11
20.1144
 21
-0.340347
  0
LINE
  8
0
 10
20.1144
 20
-0.340347
 11
20.1144
 21
-5.78999
  0
LINE
  8
0
 10
20.1144
 20
-5.78999
 11
17.7365
 21
-5.78999
  0
ENDSEC
  0
SECTION
  2
OBJECTS
  0
DICTIONARY
  0
ENDSEC
  0
EOF
