  0
SECTION
  2
BLOCKS
  0
ENDSEC
  0
SECTION
  2
ENTITIES
  0
LINE
  8
0
 10
-15.1687
 20
-6.64139
 11
-14.5827
 21
-6.53555
  0
LINE
  8
0
 10
-14.5827
 20
-6.53555
 11
-14.0425
 21
-6.35916
  0
LINE
  8
0
 10
-14.0425
 20
-6.35916
 11
-13.5482
 21
-6.11221
  0
LINE
  8
0
 10
-13.5482
 20
-6.11221
 11
-13.0998
 21
-5.79472
  0
LINE
  8
0
 10
-13.0998
 20
-5.79472
 11
-12.6972
 21
-5.40666
  0
LINE
  8
0
 10
-12.6972
 20
-5.40666
 11
-12.3406
 21
-4.94806
  0
LINE
  8
0
 10
-12.3406
 20
-4.94806
 11
-12.0307
 21
-4.42068
  0
LINE
  8
0
 10
-12.0307
 20
-4.42068
 11
-11.7684
 21
-3.82635
  0
LINE
  8
0
 10
-11.7684
 20
-3.82635
 11
-11.5539
 21
-3.16507
  0
LINE
  8
0
 10
-11.5539
 20
-3.16507
 11
-11.387
 21
-2.43683
  0
LINE
  8
0
 10
-11.387
 20
-2.43683
 11
-11.2679
 21
-1.64163
  0
LINE
  8
0
 10
-11.2679
 20
-1.64163
 11
-11.1964
 21
-0.77948
  0
LINE
  8
0
 10
-11.1964
 20
-0.77948
 11
-11.1725
 21
0.149628
  0
LINE
  8
0
 10
-11.1725
 20
0.149628
 11
-11.1964
 21
1.08109
  0
LINE
  8
0
 10
-11.1964
 20
1.08109
 11
-11.2679
 21
1.94522
  0
LINE
  8
0
 10
-11.2679
 20
1.94522
 11
-11.387
 21
2.74205
  0
LINE
  8
0
 10
-11.387
 20
2.74205
 11
-11.5539
 21
3.47156
  0
LINE
  8
0
 10
-11.5539
 20
3.47156
 11
-11.7684
 21
4.13374
  0
LINE
  8
0
 10
-11.7684
 20
4.13374
 11
-12.0307
 21
4.72861
  0
LINE
  8
0
 10
-12.0307
 20
4.72861
 11
-12.3406
 21
5.25615
  0
LINE
  8
0
 10
-12.3406
 20
5.25615
 11
-12.6972
 21
5.71477
  0
LINE
  8
0
 10
-12.6972
 20
5.71477
 11
-13.0998
 21
6.10281
  0
LINE
  8
0
 10
-13.0998
 20
6.10281
 11
-13.5482
 21
6.42032
  0
LINE
  8
0
 10
-13.5482
 20
6.42032
 11
-14.0425
 21
6.66727
  0
LINE
  8
0
 10
-14.0425
 20
6.66727
 11
-14.5827
 21
6.84366
  0
LINE
  8
0
 10
-14.5827
 20
6.84366
 11
-15.1687
 21
6.94948
  0
LINE
  8
0
 10
-15.1687
 20
6.94948
 11
-15.8006
 21
6.98476
  0
LINE
  8
0
 10
-15.8006
 20
6.98476
 11
-16.4303
 21
6.94948
  0
LINE
  8
0
 10
-16.4303
 20
6.94948
 11
-17.0143
 21
6.84366
  0
LINE
  8
0
 10
-17.0143
 20
6.84366
 11
-17.5529
 21
6.66727
  0
LINE
  8
0
 10
-17.5529
 20
6.66727
 11
-18.046
 21
6.42032
  0
LINE
  8
0
 10
-18.046
 20
6.42032
 11
-18.4935
 21
6.10281
  0
LINE
  8
0
 10
-18.4935
 20
6.10281
 11
-18.8955
 21
5.71477
  0
LINE
  8
0
 10
-18.8955
 20
5.71477
 11
-19.252
 21
5.25615
  0
LINE
  8
0
 10
-19.252
 20
5.25615
 11
-19.5619
 21
4.72861
  0
LINE
  8
0
 10
-19.5619
 20
4.72861
 11
-19.8241
 21
4.13374
  0
LINE
  8
0
 10
-19.8241
 20
4.13374
 11
-20.0387
 21
3.47156
  0
LINE
  8
0
 10
-20.0387
 20
3.47156
 11
-20.2055
 21
2.74205
  0
LINE
  8
0
 10
-20.2055
 20
2.74205
 11
-20.3247
 21
1.94522
  0
LINE
  8
0
 10
-20.3247
 20
1.94522
 11
-20.3962
 21
1.08109
  0
LINE
  8
0
 10
-20.3962
 20
1.08109
 11
-20.4201
 21
0.149628
  0
LINE
  8
0
 10
-20.4201
 20
0.149628
 11
-20.3962
 21
-0.77948
  0
LINE
  8
0
 10
-20.3962
 20
-0.77948
 11
-20.3247
 21
-1.64163
  0
LINE
  8
0
 10
-20.3247
 20
-1.64163
 11
-20.2055
 21
-2.43683
  0
LINE
  8
0
 10
-20.2055
 20
-2.43683
 11
-20.0387
 21
-3.16507
  0
LINE
  8
0
 10
-20.0387
 20
-3.16507
 11
-19.8241
 21
-3.82635
  0
LINE
  8
0
 10
-19.8241
 20
-3.82635
 11
-19.5619
 21
-4.42068
  0
LINE
  8
0
 10
-19.5619
 20
-4.42068
 11
-19.252
 21
-4.94806
  0
LINE
  8
0
 10
-19.252
 20
-4.94806
 11
-18.8955
 21
-5.40666
  0
LINE
  8
0
 10
-18.8955
 20
-5.40666
 11
-18.4935
 21
-5.79472
  0
LINE
  8
0
 10
-18.4935
 20
-5.79472
 11
-18.046
 21
-6.11221
  0
LINE
  8
0
 10
-18.046
 20
-6.11221
 11
-17.5529
 21
-6.35916
  0
LINE
  8
0
 10
-17.5529
 20
-6.35916
 11
-17.0143
 21
-6.53555
  0
LINE
  8
0
 10
-17.0143
 20
-6.53555
 11
-16.4303
 21
-6.64139
  0
LINE
  8
0
 10
-16.4303
 20
-6.64139
 11
-15.8006
 21
-6.67667
  0
LINE
  8
0
 10
-15.8006
 20
-6.67667
 11
-15.1687
 21
-6.64139
  0
LINE
  8
0
 10
-16.3715
 20
-6.14389
 11
-16.8914
 21
-6.04968
  0
LINE
  8
0
 10
-16.8914
 20
-6.04968
 11
-17.3621
 21
-5.89554
  0
LINE
  8
0
 10
-17.3621
 20
-5.89554
 11
-17.7879
 21
-5.68228
  0
LINE
  8
0
 10
-17.7879
 20
-5.68228
 11
-18.1735
 21
-5.40871
  0
LINE
  8
0
 10
-18.1735
 20
-5.40871
 11
-18.5226
 21
-5.07169
  0
LINE
  8
0
 10
-18.5226
 20
-5.07169
 11
-18.8373
 21
-4.66687
  0
LINE
  8
0
 10
-18.8373
 20
-4.66687
 11
-19.1161
 21
-4.19232
  0
LINE
  8
0
 10
-19.1161
 20
-4.19232
 11
-19.3564
 21
-3.64784
  0
LINE
  8
0
 10
-19.3564
 20
-3.64784
 11
-19.5562
 21
-3.03175
  0
LINE
  8
0
 10
-19.5562
 20
-3.03175
 11
-19.7139
 21
-2.34383
  0
LINE
  8
0
 10
-19.7139
 20
-2.34383
 11
-19.8278
 21
-1.58389
  0
LINE
  8
0
 10
-19.8278
 20
-1.58389
 11
-19.8968
 21
-0.752274
  0
LINE
  8
0
 10
-19.8968
 20
-0.752274
 11
-19.9199
 21
0.149658
  0
LINE
  8
0
 10
-19.9199
 20
0.149658
 11
-19.8968
 21
1.05406
  0
LINE
  8
0
 10
-19.8968
 20
1.05406
 11
-19.8278
 21
1.8876
  0
LINE
  8
0
 10
-19.8278
 20
1.8876
 11
-19.7139
 21
2.64906
  0
LINE
  8
0
 10
-19.7139
 20
2.64906
 11
-19.5562
 21
3.33846
  0
LINE
  8
0
 10
-19.5562
 20
3.33846
 11
-19.3563
 21
3.95546
  0
LINE
  8
0
 10
-19.3563
 20
3.95546
 11
-19.1161
 21
4.50034
  0
LINE
  8
0
 10
-19.1161
 20
4.50034
 11
-18.8373
 21
4.97488
  0
LINE
  8
0
 10
-18.8373
 20
4.97488
 11
-18.5226
 21
5.37979
  0
LINE
  8
0
 10
-18.5226
 20
5.37979
 11
-18.1734
 21
5.71686
  0
LINE
  8
0
 10
-18.1734
 20
5.71686
 11
-17.7879
 21
5.99037
  0
LINE
  8
0
 10
-17.7879
 20
5.99037
 11
-17.3621
 21
6.20364
  0
LINE
  8
0
 10
-17.3621
 20
6.20364
 11
-16.8914
 21
6.35779
  0
LINE
  8
0
 10
-16.8914
 20
6.35779
 11
-16.3715
 21
6.45198
  0
LINE
  8
0
 10
-16.3715
 20
6.45198
 11
-15.8005
 21
6.48398
  0
LINE
  8
0
 10
-15.8005
 20
6.48398
 11
-15.2274
 21
6.45198
  0
LINE
  8
0
 10
-15.2274
 20
6.45198
 11
-14.7052
 21
6.35768
  0
LINE
  8
0
 10
-14.7052
 20
6.35768
 11
-14.2328
 21
6.20345
  0
LINE
  8
0
 10
-14.2328
 20
6.20345
 11
-13.8059
 21
5.99014
  0
LINE
  8
0
 10
-13.8059
 20
5.99014
 11
-13.4196
 21
5.71661
  0
LINE
  8
0
 10
-13.4196
 20
5.71661
 11
-13.07
 21
5.37962
  0
LINE
  8
0
 10
-13.07
 20
5.37962
 11
-12.7552
 21
4.97485
  0
LINE
  8
0
 10
-12.7552
 20
4.97485
 11
-12.4765
 21
4.50034
  0
LINE
  8
0
 10
-12.4765
 20
4.50034
 11
-12.2363
 21
3.95546
  0
LINE
  8
0
 10
-12.2363
 20
3.95546
 11
-12.0364
 21
3.33846
  0
LINE
  8
0
 10
-12.0364
 20
3.33846
 11
-11.8787
 21
2.64906
  0
LINE
  8
0
 10
-11.8787
 20
2.64906
 11
-11.7648
 21
1.88759
  0
LINE
  8
0
 10
-11.7648
 20
1.88759
 11
-11.6958
 21
1.05409
  0
LINE
  8
0
 10
-11.6958
 20
1.05409
 11
-11.6727
 21
0.149658
  0
LINE
  8
0
 10
-11.6727
 20
0.149658
 11
-11.6958
 21
-0.752304
  0
LINE
  8
0
 10
-11.6958
 20
-0.752304
 11
-11.7648
 21
-1.58388
  0
LINE
  8
0
 10
-11.7648
 20
-1.58388
 11
-11.8787
 21
-2.34383
  0
LINE
  8
0
 10
-11.8787
 20
-2.34383
 11
-12.0363
 21
-3.03175
  0
LINE
  8
0
 10
-12.0363
 20
-3.03175
 11
-12.2362
 21
-3.64784
  0
LINE
  8
0
 10
-12.2362
 20
-3.64784
 11
-12.4764
 21
-4.19232
  0
LINE
  8
0
 10
-12.4764
 20
-4.19232
 11
-12.7552
 21
-4.66684
  0
LINE
  8
0
 10
-12.7552
 20
-4.66684
 11
-13.0699
 21
-5.07146
  0
LINE
  8
0
 10
-13.0699
 20
-5.07146
 11
-13.4195
 21
-5.40846
  0
LINE
  8
0
 10
-13.4195
 20
-5.40846
 11
-13.8059
 21
-5.68207
  0
LINE
  8
0
 10
-13.8059
 20
-5.68207
 11
-14.2328
 21
-5.89534
  0
LINE
  8
0
 10
-14.2328
 20
-5.89534
 11
-14.7053
 21
-6.04962
  0
LINE
  8
0
 10
-14.7053
 20
-6.04962
 11
-15.2272
 21
-6.14388
  0
LINE
  8
0
 10
-15.2272
 20
-6.14388
 11
-15.8005
 21
-6.17589
  0
LINE
  8
0
 10
-15.8005
 20
-6.17589
 11
-16.3715
 21
-6.14389
  0
LINE
  8
0
 10
-15.4855
 20
-4.81552
 11
-15.4005
 21
-4.80139
  0
LINE
  8
0
 10
-15.4005
 20
-4.80139
 11
-15.1468
 21
-4.73634
  0
LINE
  8
0
 10
-15.1468
 20
-4.73634
 11
-15.0588
 21
-4.70476
  0
LINE
  8
0
 10
-15.0588
 20
-4.70476
 11
-14.8275
 21
-4.59633
  0
LINE
  8
0
 10
-14.8275
 20
-4.59633
 11
-14.7989
 21
-4.58182
  0
LINE
  8
0
 10
-14.7989
 20
-4.58182
 11
-14.7459
 21
-4.54819
  0
LINE
  8
0
 10
-14.7459
 20
-4.54819
 11
-14.5369
 21
-4.39641
  0
LINE
  8
0
 10
-14.5369
 20
-4.39641
 11
-14.4694
 21
-4.33748
  0
LINE
  8
0
 10
-14.4694
 20
-4.33748
 11
-14.2826
 21
-4.14233
  0
LINE
  8
0
 10
-14.2826
 20
-4.14233
 11
-14.2322
 21
-4.08044
  0
LINE
  8
0
 10
-14.2322
 20
-4.08044
 11
-14.0678
 21
-3.84192
  0
LINE
  8
0
 10
-14.0678
 20
-3.84192
 11
-14.033
 21
-3.78323
  0
LINE
  8
0
 10
-14.033
 20
-3.78323
 11
-13.8909
 21
-3.50134
  0
LINE
  8
0
 10
-13.8909
 20
-3.50134
 11
-13.8682
 21
-3.44911
  0
LINE
  8
0
 10
-13.8682
 20
-3.44911
 11
-13.7466
 21
-3.11897
  0
LINE
  8
0
 10
-13.7466
 20
-3.11897
 11
-13.7328
 21
-3.07581
  0
LINE
  8
0
 10
-13.7328
 20
-3.07581
 11
-13.6299
 21
-2.69257
  0
LINE
  8
0
 10
-13.6299
 20
-2.69257
 11
-13.6218
 21
-2.65762
  0
LINE
  8
0
 10
-13.6218
 20
-2.65762
 11
-13.5376
 21
-2.2213
  0
LINE
  8
0
 10
-13.5376
 20
-2.2213
 11
-13.533
 21
-2.19287
  0
LINE
  8
0
 10
-13.533
 20
-2.19287
 11
-13.4675
 21
-1.70346
  0
LINE
  8
0
 10
-13.4675
 20
-1.70346
 11
-13.4649
 21
-1.68008
  0
LINE
  8
0
 10
-13.4649
 20
-1.68008
 11
-13.4181
 21
-1.13757
  0
LINE
  8
0
 10
-13.4181
 20
-1.13757
 11
-13.4168
 21
-1.11816
  0
LINE
  8
0
 10
-13.4168
 20
-1.11816
 11
-13.3887
 21
-0.522583
  0
LINE
  8
0
 10
-13.3887
 20
-0.522583
 11
-13.3882
 21
-0.506241
  0
LINE
  8
0
 10
-13.3882
 20
-0.506241
 11
-13.3789
 21
0.142426
  0
LINE
  8
0
 10
-13.3789
 20
0.142426
 11
-13.3789
 21
0.156815
  0
LINE
  8
0
 10
-13.3789
 20
0.156815
 11
-13.3882
 21
0.807831
  0
LINE
  8
0
 10
-13.3882
 20
0.807831
 11
-13.3887
 21
0.824112
  0
LINE
  8
0
 10
-13.3887
 20
0.824112
 11
-13.4168
 21
1.42168
  0
LINE
  8
0
 10
-13.4168
 20
1.42168
 11
-13.4181
 21
1.44104
  0
LINE
  8
0
 10
-13.4181
 20
1.44104
 11
-13.4649
 21
1.98515
  0
LINE
  8
0
 10
-13.4649
 20
1.98515
 11
-13.4675
 21
2.00848
  0
LINE
  8
0
 10
-13.4675
 20
2.00848
 11
-13.533
 21
2.49913
  0
LINE
  8
0
 10
-13.533
 20
2.49913
 11
-13.5376
 21
2.52754
  0
LINE
  8
0
 10
-13.5376
 20
2.52754
 11
-13.6218
 21
2.96475
  0
LINE
  8
0
 10
-13.6218
 20
2.96475
 11
-13.6299
 21
2.99973
  0
LINE
  8
0
 10
-13.6299
 20
2.99973
 11
-13.7328
 21
3.38347
  0
LINE
  8
0
 10
-13.7328
 20
3.38347
 11
-13.7465
 21
3.42671
  0
LINE
  8
0
 10
-13.7465
 20
3.42671
 11
-13.8682
 21
3.75702
  0
LINE
  8
0
 10
-13.8682
 20
3.75702
 11
-13.8909
 21
3.80931
  0
LINE
  8
0
 10
-13.8909
 20
3.80931
 11
-14.033
 21
4.09122
  0
LINE
  8
0
 10
-14.033
 20
4.09122
 11
-14.0678
 21
4.14989
  0
LINE
  8
0
 10
-14.0678
 20
4.14989
 11
-14.2322
 21
4.38844
  0
LINE
  8
0
 10
-14.2322
 20
4.38844
 11
-14.2826
 21
4.45033
  0
LINE
  8
0
 10
-14.2826
 20
4.45033
 11
-14.4693
 21
4.64551
  0
LINE
  8
0
 10
-14.4693
 20
4.64551
 11
-14.5368
 21
4.70445
  0
LINE
  8
0
 10
-14.5368
 20
4.70445
 11
-14.7459
 21
4.85625
  0
LINE
  8
0
 10
-14.7459
 20
4.85625
 11
-14.7724
 21
4.87422
  0
LINE
  8
0
 10
-14.7724
 20
4.87422
 11
-14.8275
 21
4.90439
  0
LINE
  8
0
 10
-14.8275
 20
4.90439
 11
-15.0588
 21
5.01283
  0
LINE
  8
0
 10
-15.0588
 20
5.01283
 11
-15.1468
 21
5.04443
  0
LINE
  8
0
 10
-15.1468
 20
5.04443
 11
-15.4005
 21
5.10948
  0
LINE
  8
0
 10
-15.4005
 20
5.10948
 11
-15.4855
 21
5.12361
  0
LINE
  8
0
 10
-15.4855
 20
5.12361
 11
-15.7615
 21
5.14529
  0
LINE
  8
0
 10
-15.7615
 20
5.14529
 11
-15.8401
 21
5.14528
  0
LINE
  8
0
 10
-15.8401
 20
5.14528
 11
-16.1138
 21
5.1236
  0
LINE
  8
0
 10
-16.1138
 20
5.1236
 11
-16.1994
 21
5.10925
  0
LINE
  8
0
 10
-16.1994
 20
5.10925
 11
-16.4511
 21
5.0442
  0
LINE
  8
0
 10
-16.4511
 20
5.0442
 11
-16.5394
 21
5.01227
  0
LINE
  8
0
 10
-16.5394
 20
5.01227
 11
-16.7692
 21
4.90382
  0
LINE
  8
0
 10
-16.7692
 20
4.90382
 11
-16.7977
 21
4.88919
  0
LINE
  8
0
 10
-16.7977
 20
4.88919
 11
-16.8507
 21
4.85542
  0
LINE
  8
0
 10
-16.8507
 20
4.85542
 11
-17.0585
 21
4.70363
  0
LINE
  8
0
 10
-17.0585
 20
4.70363
 11
-17.1256
 21
4.64468
  0
LINE
  8
0
 10
-17.1256
 20
4.64468
 11
-17.3115
 21
4.44951
  0
LINE
  8
0
 10
-17.3115
 20
4.44951
 11
-17.3615
 21
4.38786
  0
LINE
  8
0
 10
-17.3615
 20
4.38786
 11
-17.5255
 21
4.14931
  0
LINE
  8
0
 10
-17.5255
 20
4.14931
 11
-17.5599
 21
4.09105
  0
LINE
  8
0
 10
-17.5599
 20
4.09105
 11
-17.7019
 21
3.80914
  0
LINE
  8
0
 10
-17.7019
 20
3.80914
 11
-17.7245
 21
3.75699
  0
LINE
  8
0
 10
-17.7245
 20
3.75699
 11
-17.8462
 21
3.42668
  0
LINE
  8
0
 10
-17.8462
 20
3.42668
 11
-17.8599
 21
3.38341
  0
LINE
  8
0
 10
-17.8599
 20
3.38341
 11
-17.9628
 21
2.99966
  0
LINE
  8
0
 10
-17.9628
 20
2.99966
 11
-17.9708
 21
2.96474
  0
LINE
  8
0
 10
-17.9708
 20
2.96474
 11
-18.055
 21
2.52753
  0
LINE
  8
0
 10
-18.055
 20
2.52753
 11
-18.0596
 21
2.4991
  0
LINE
  8
0
 10
-18.0596
 20
2.4991
 11
-18.1251
 21
2.00845
  0
LINE
  8
0
 10
-18.1251
 20
2.00845
 11
-18.1277
 21
1.98515
  0
LINE
  8
0
 10
-18.1277
 20
1.98515
 11
-18.1745
 21
1.44104
  0
LINE
  8
0
 10
-18.1745
 20
1.44104
 11
-18.1758
 21
1.42166
  0
LINE
  8
0
 10
-18.1758
 20
1.42166
 11
-18.2038
 21
0.824097
  0
LINE
  8
0
 10
-18.2038
 20
0.824097
 11
-18.2043
 21
0.807831
  0
LINE
  8
0
 10
-18.2043
 20
0.807831
 11
-18.2137
 21
0.156815
  0
LINE
  8
0
 10
-18.2137
 20
0.156815
 11
-18.2137
 21
0.142426
  0
LINE
  8
0
 10
-18.2137
 20
0.142426
 11
-18.2043
 21
-0.506241
  0
LINE
  8
0
 10
-18.2043
 20
-0.506241
 11
-18.2038
 21
-0.522568
  0
LINE
  8
0
 10
-18.2038
 20
-0.522568
 11
-18.1758
 21
-1.11815
  0
LINE
  8
0
 10
-18.1758
 20
-1.11815
 11
-18.1745
 21
-1.13757
  0
LINE
  8
0
 10
-18.1745
 20
-1.13757
 11
-18.1277
 21
-1.68008
  0
LINE
  8
0
 10
-18.1277
 20
-1.68008
 11
-18.1251
 21
-1.70343
  0
LINE
  8
0
 10
-18.1251
 20
-1.70343
 11
-18.0596
 21
-2.19284
  0
LINE
  8
0
 10
-18.0596
 20
-2.19284
 11
-18.055
 21
-2.22128
  0
LINE
  8
0
 10
-18.055
 20
-2.22128
 11
-17.9708
 21
-2.65761
  0
LINE
  8
0
 10
-17.9708
 20
-2.65761
 11
-17.9627
 21
-2.6925
  0
LINE
  8
0
 10
-17.9627
 20
-2.6925
 11
-17.8598
 21
-3.07574
  0
LINE
  8
0
 10
-17.8598
 20
-3.07574
 11
-17.8461
 21
-3.11894
  0
LINE
  8
0
 10
-17.8461
 20
-3.11894
 11
-17.7245
 21
-3.44908
  0
LINE
  8
0
 10
-17.7245
 20
-3.44908
 11
-17.7019
 21
-3.50116
  0
LINE
  8
0
 10
-17.7019
 20
-3.50116
 11
-17.5599
 21
-3.78305
  0
LINE
  8
0
 10
-17.5599
 20
-3.78305
 11
-17.5254
 21
-3.84132
  0
LINE
  8
0
 10
-17.5254
 20
-3.84132
 11
-17.3615
 21
-4.07985
  0
LINE
  8
0
 10
-17.3615
 20
-4.07985
 11
-17.3115
 21
-4.14151
  0
LINE
  8
0
 10
-17.3115
 20
-4.14151
 11
-17.1256
 21
-4.33665
  0
LINE
  8
0
 10
-17.1256
 20
-4.33665
 11
-17.0585
 21
-4.39558
  0
LINE
  8
0
 10
-17.0585
 20
-4.39558
 11
-16.8507
 21
-4.54736
  0
LINE
  8
0
 10
-16.8507
 20
-4.54736
 11
-16.8241
 21
-4.56546
  0
LINE
  8
0
 10
-16.8241
 20
-4.56546
 11
-16.7691
 21
-4.59576
  0
LINE
  8
0
 10
-16.7691
 20
-4.59576
 11
-16.5394
 21
-4.70419
  0
LINE
  8
0
 10
-16.5394
 20
-4.70419
 11
-16.4511
 21
-4.73611
  0
LINE
  8
0
 10
-16.4511
 20
-4.73611
 11
-16.1994
 21
-4.80116
  0
LINE
  8
0
 10
-16.1994
 20
-4.80116
 11
-16.1138
 21
-4.81551
  0
LINE
  8
0
 10
-16.1138
 20
-4.81551
 11
-15.8401
 21
-4.83719
  0
LINE
  8
0
 10
-15.8401
 20
-4.83719
 11
-15.7615
 21
-4.8372
  0
LINE
  8
0
 10
-15.7615
 20
-4.8372
 11
-15.4855
 21
-4.81552
  0
LINE
  8
0
 10
-16.0743
 20
-4.31706
 11
-16.326
 21
-4.25201
  0
LINE
  8
0
 10
-16.326
 20
-4.25201
 11
-16.5558
 21
-4.14359
  0
LINE
  8
0
 10
-16.5558
 20
-4.14359
 11
-16.7636
 21
-3.99181
  0
LINE
  8
0
 10
-16.7636
 20
-3.99181
 11
-16.9494
 21
-3.79666
  0
LINE
  8
0
 10
-16.9494
 20
-3.79666
 11
-17.1134
 21
-3.55814
  0
LINE
  8
0
 10
-17.1134
 20
-3.55814
 11
-17.2553
 21
-3.27625
  0
LINE
  8
0
 10
-17.2553
 20
-3.27625
 11
-17.377
 21
-2.94611
  0
LINE
  8
0
 10
-17.377
 20
-2.94611
 11
-17.4798
 21
-2.56287
  0
LINE
  8
0
 10
-17.4798
 20
-2.56287
 11
-17.564
 21
-2.12654
  0
LINE
  8
0
 10
-17.564
 20
-2.12654
 11
-17.6295
 21
-1.63713
  0
LINE
  8
0
 10
-17.6295
 20
-1.63713
 11
-17.6763
 21
-1.09462
  0
LINE
  8
0
 10
-17.6763
 20
-1.09462
 11
-17.7044
 21
-0.499039
  0
LINE
  8
0
 10
-17.7044
 20
-0.499039
 11
-17.7137
 21
0.149628
  0
LINE
  8
0
 10
-17.7137
 20
0.149628
 11
-17.7044
 21
0.800644
  0
LINE
  8
0
 10
-17.7044
 20
0.800644
 11
-17.6763
 21
1.39821
  0
LINE
  8
0
 10
-17.6763
 20
1.39821
 11
-17.6295
 21
1.94232
  0
LINE
  8
0
 10
-17.6295
 20
1.94232
 11
-17.564
 21
2.43297
  0
LINE
  8
0
 10
-17.564
 20
2.43297
 11
-17.4798
 21
2.87018
  0
LINE
  8
0
 10
-17.4798
 20
2.87018
 11
-17.377
 21
3.25392
  0
LINE
  8
0
 10
-17.377
 20
3.25392
 11
-17.2553
 21
3.58423
  0
LINE
  8
0
 10
-17.2553
 20
3.58423
 11
-17.1134
 21
3.86613
  0
LINE
  8
0
 10
-17.1134
 20
3.86613
 11
-16.9494
 21
4.10469
  0
LINE
  8
0
 10
-16.9494
 20
4.10469
 11
-16.7636
 21
4.29987
  0
LINE
  8
0
 10
-16.7636
 20
4.29987
 11
-16.5558
 21
4.45166
  0
LINE
  8
0
 10
-16.5558
 20
4.45166
 11
-16.326
 21
4.5601
  0
LINE
  8
0
 10
-16.326
 20
4.5601
 11
-16.0743
 21
4.62515
  0
LINE
  8
0
 10
-16.0743
 20
4.62515
 11
-15.8006
 21
4.64684
  0
LINE
  8
0
 10
-15.8006
 20
4.64684
 11
-15.5247
 21
4.62515
  0
LINE
  8
0
 10
-15.5247
 20
4.62515
 11
-15.271
 21
4.5601
  0
LINE
  8
0
 10
-15.271
 20
4.5601
 11
-15.0397
 21
4.45166
  0
LINE
  8
0
 10
-15.0397
 20
4.45166
 11
-14.8306
 21
4.29987
  0
LINE
  8
0
 10
-14.8306
 20
4.29987
 11
-14.6439
 21
4.10469
  0
LINE
  8
0
 10
-14.6439
 20
4.10469
 11
-14.4795
 21
3.86613
  0
LINE
  8
0
 10
-14.4795
 20
3.86613
 11
-14.3374
 21
3.58423
  0
LINE
  8
0
 10
-14.3374
 20
3.58423
 11
-14.2157
 21
3.25392
  0
LINE
  8
0
 10
-14.2157
 20
3.25392
 11
-14.1128
 21
2.87018
  0
LINE
  8
0
 10
-14.1128
 20
2.87018
 11
-14.0286
 21
2.43297
  0
LINE
  8
0
 10
-14.0286
 20
2.43297
 11
-13.9631
 21
1.94232
  0
LINE
  8
0
 10
-13.9631
 20
1.94232
 11
-13.9163
 21
1.39821
  0
LINE
  8
0
 10
-13.9163
 20
1.39821
 11
-13.8882
 21
0.800644
  0
LINE
  8
0
 10
-13.8882
 20
0.800644
 11
-13.8788
 21
0.149628
  0
LINE
  8
0
 10
-13.8788
 20
0.149628
 11
-13.8882
 21
-0.499039
  0
LINE
  8
0
 10
-13.8882
 20
-0.499039
 11
-13.9163
 21
-1.09462
  0
LINE
  8
0
 10
-13.9163
 20
-1.09462
 11
-13.9631
 21
-1.63713
  0
LINE
  8
0
 10
-13.9631
 20
-1.63713
 11
-14.0286
 21
-2.12654
  0
LINE
  8
0
 10
-14.0286
 20
-2.12654
 11
-14.1128
 21
-2.56287
  0
LINE
  8
0
 10
-14.1128
 20
-2.56287
 11
-14.2157
 21
-2.94611
  0
LINE
  8
0
 10
-14.2157
 20
-2.94611
 11
-14.3374
 21
-3.27625
  0
LINE
  8
0
 10
-14.3374
 20
-3.27625
 11
-14.4795
 21
-3.55814
  0
LINE
  8
0
 10
-14.4795
 20
-3.55814
 11
-14.6439
 21
-3.79666
  0
LINE
  8
0
 10
-14.6439
 20
-3.79666
 11
-14.8306
 21
-3.99181
  0
LINE
  8
0
 10
-14.8306
 20
-3.99181
 11
-15.0397
 21
-4.14359
  0
LINE
  8
0
 10
-15.0397
 20
-4.14359
 11
-15.271
 21
-4.25201
  0
LINE
  8
0
 10
-15.271
 20
-4.25201
 11
-15.5247
 21
-4.31706
  0
LINE
  8
0
 10
-15.5247
 20
-4.31706
 11
-15.8006
 21
-4.33875
  0
LINE
  8
0
 10
-15.8006
 20
-4.33875
 11
-16.0743
 21
-4.31706
  0
LINE
  8
0
 10
14.3887
 20
-1.21873
 11
15.2173
 21
-1.21873
  0
LINE
  8
0
 10
15.2173
 20
-1.21873
 11
15.4818
 21
-1.24915
  0
LINE
  8
0
 10
15.4818
 20
-1.24915
 11
15.7362
 21
-1.34033
  0
LINE
  8
0
 10
15.7362
 20
-1.34033
 11
15.9805
 21
-1.49232
  0
LINE
  8
0
 10
15.9805
 20
-1.49232
 11
16.2147
 21
-1.70512
  0
LINE
  8
0
 10
16.2147
 20
-1.70512
 11
16.4389
 21
-1.97871
  0
LINE
  8
0
 10
16.4389
 20
-1.97871
 11
16.653
 21
-2.3131
  0
LINE
  8
0
 10
16.653
 20
-2.3131
 11
16.857
 21
-2.70828
  0
LINE
  8
0
 10
16.857
 20
-2.70828
 11
16.8888
 21
-2.77663
  0
LINE
  8
0
 10
16.8888
 20
-2.77663
 11
16.9189
 21
-2.84065
  0
LINE
  8
0
 10
16.9189
 20
-2.84065
 11
16.9471
 21
-2.90036
  0
LINE
  8
0
 10
16.9471
 20
-2.90036
 11
16.9736
 21
-2.95576
  0
LINE
  8
0
 10
16.9736
 20
-2.95576
 11
16.9982
 21
-3.00685
  0
LINE
  8
0
 10
16.9982
 20
-3.00685
 11
17.0211
 21
-3.05362
  0
LINE
  8
0
 10
17.0211
 20
-3.05362
 11
17.0421
 21
-3.09607
  0
LINE
  8
0
 10
17.0421
 20
-3.09607
 11
18.629
 21
-6.41875
  0
LINE
  8
0
 10
18.629
 20
-6.41875
 11
21.4852
 21
-6.41875
  0
LINE
  8
0
 10
21.4852
 20
-6.41875
 11
19.1049
 21
-1.68584
  0
LINE
  8
0
 10
19.1049
 20
-1.68584
 11
18.9892
 21
-1.46004
  0
LINE
  8
0
 10
18.9892
 20
-1.46004
 11
18.8786
 21
-1.25639
  0
LINE
  8
0
 10
18.8786
 20
-1.25639
 11
18.7733
 21
-1.07487
  0
LINE
  8
0
 10
18.7733
 20
-1.07487
 11
18.6732
 21
-0.915497
  0
LINE
  8
0
 10
18.6732
 20
-0.915497
 11
18.5783
 21
-0.778244
  0
LINE
  8
0
 10
18.5783
 20
-0.778244
 11
18.4886
 21
-0.663147
  0
LINE
  8
0
 10
18.4886
 20
-0.663147
 11
18.4041
 21
-0.570175
  0
LINE
  8
0
 10
18.4041
 20
-0.570175
 11
18.3202
 21
-0.492508
  0
LINE
  8
0
 10
18.3202
 20
-0.492508
 11
18.2322
 21
-0.423294
  0
LINE
  8
0
 10
18.2322
 20
-0.423294
 11
18.14
 21
-0.362534
  0
LINE
  8
0
 10
18.14
 20
-0.362534
 11
18.0437
 21
-0.310242
  0
LINE
  8
0
 10
18.0437
 20
-0.310242
 11
17.9432
 21
-0.266403
  0
LINE
  8
0
 10
17.9432
 20
-0.266403
 11
17.8386
 21
-0.231018
  0
LINE
  8
0
 10
17.8386
 20
-0.231018
 11
17.7298
 21
-0.204086
  0
LINE
  8
0
 10
17.7298
 20
-0.204086
 11
18.0731
 21
-0.145615
  0
LINE
  8
0
 10
18.0731
 20
-0.145615
 11
18.3926
 21
-0.0608521
  0
LINE
  8
0
 10
18.3926
 20
-0.0608521
 11
18.6883
 21
0.0501404
  0
LINE
  8
0
 10
18.6883
 20
0.0501404
 11
18.9603
 21
0.187424
  0
LINE
  8
0
 10
18.9603
 20
0.187424
 11
19.2086
 21
0.350967
  0
LINE
  8
0
 10
19.2086
 20
0.350967
 11
19.4331
 21
0.540771
  0
LINE
  8
0
 10
19.4331
 20
0.540771
 11
19.6339
 21
0.756851
  0
LINE
  8
0
 10
19.6339
 20
0.756851
 11
19.8093
 21
0.997437
  0
LINE
  8
0
 10
19.8093
 20
0.997437
 11
19.9578
 21
1.2607
  0
LINE
  8
0
 10
19.9578
 20
1.2607
 11
20.0792
 21
1.54662
  0
LINE
  8
0
 10
20.0792
 20
1.54662
 11
20.1737
 21
1.85522
  0
LINE
  8
0
 10
20.1737
 20
1.85522
 11
20.2411
 21
2.18649
  0
LINE
  8
0
 10
20.2411
 20
2.18649
 11
20.2816
 21
2.54044
  0
LINE
  8
0
 10
20.2816
 20
2.54044
 11
20.2951
 21
2.91707
  0
LINE
  8
0
 10
20.2951
 20
2.91707
 11
20.2725
 21
3.47339
  0
LINE
  8
0
 10
20.2725
 20
3.47339
 11
20.2048
 21
3.98366
  0
LINE
  8
0
 10
20.2048
 20
3.98366
 11
20.0919
 21
4.44786
  0
LINE
  8
0
 10
20.0919
 20
4.44786
 11
19.9338
 21
4.86603
  0
LINE
  8
0
 10
19.9338
 20
4.86603
 11
19.7306
 21
5.23811
  0
LINE
  8
0
 10
19.7306
 20
5.23811
 11
19.4822
 21
5.56416
  0
LINE
  8
0
 10
19.4822
 20
5.56416
 11
19.1887
 21
5.84415
  0
LINE
  8
0
 10
19.1887
 20
5.84415
 11
18.8434
 21
6.08275
  0
LINE
  8
0
 10
18.8434
 20
6.08275
 11
18.4395
 21
6.28464
  0
LINE
  8
0
 10
18.4395
 20
6.28464
 11
17.9773
 21
6.44981
  0
LINE
  8
0
 10
17.9773
 20
6.44981
 11
17.4565
 21
6.57829
  0
LINE
  8
0
 10
17.4565
 20
6.57829
 11
16.8773
 21
6.67007
  0
LINE
  8
0
 10
16.8773
 20
6.67007
 11
16.2396
 21
6.72513
  0
LINE
  8
0
 10
16.2396
 20
6.72513
 11
15.5435
 21
6.74348
  0
LINE
  8
0
 10
15.5435
 20
6.74348
 11
11.788
 21
6.74348
  0
LINE
  8
0
 10
11.788
 20
6.74348
 11
11.788
 21
-6.41875
  0
LINE
  8
0
 10
11.788
 20
-6.41875
 11
14.3887
 21
-6.41875
  0
LINE
  8
0
 10
14.3887
 20
-6.41875
 11
14.3887
 21
-1.21873
  0
LINE
  8
0
 10
12.288
 20
-5.91875
 11
12.288
 21
6.24348
  0
LINE
  8
0
 10
12.288
 20
6.24348
 11
15.5367
 21
6.24348
  0
LINE
  8
0
 10
15.5367
 20
6.24348
 11
16.2115
 21
6.22569
  0
LINE
  8
0
 10
16.2115
 20
6.22569
 11
16.8168
 21
6.17343
  0
LINE
  8
0
 10
16.8168
 20
6.17343
 11
17.3573
 21
6.08778
  0
LINE
  8
0
 10
17.3573
 20
6.08778
 11
17.8329
 21
5.97044
  0
LINE
  8
0
 10
17.8329
 20
5.97044
 11
18.2429
 21
5.82394
  0
LINE
  8
0
 10
18.2429
 20
5.82394
 11
18.5881
 21
5.65134
  0
LINE
  8
0
 10
18.5881
 20
5.65134
 11
18.8721
 21
5.45515
  0
LINE
  8
0
 10
18.8721
 20
5.45515
 11
19.1085
 21
5.22968
  0
LINE
  8
0
 10
19.1085
 20
5.22968
 11
19.3099
 21
4.96523
  0
LINE
  8
0
 10
19.3099
 20
4.96523
 11
19.4784
 21
4.65683
  0
LINE
  8
0
 10
19.4784
 20
4.65683
 11
19.6133
 21
4.29984
  0
LINE
  8
0
 10
19.6133
 20
4.29984
 11
19.7126
 21
3.89139
  0
LINE
  8
0
 10
19.7126
 20
3.89139
 11
19.7739
 21
3.43024
  0
LINE
  8
0
 10
19.7739
 20
3.43024
 11
19.7947
 21
2.91589
  0
LINE
  8
0
 10
19.7947
 20
2.91589
 11
19.7826
 21
2.57791
  0
LINE
  8
0
 10
19.7826
 20
2.57791
 11
19.7468
 21
2.26489
  0
LINE
  8
0
 10
19.7468
 20
2.26489
 11
19.6885
 21
1.97852
  0
LINE
  8
0
 10
19.6885
 20
1.97852
 11
19.6088
 21
1.71803
  0
LINE
  8
0
 10
19.6088
 20
1.71803
 11
19.5085
 21
1.4819
  0
LINE
  8
0
 10
19.5085
 20
1.4819
 11
19.3881
 21
1.26837
  0
LINE
  8
0
 10
19.3881
 20
1.26837
 11
19.2475
 21
1.07549
  0
LINE
  8
0
 10
19.2475
 20
1.07549
 11
19.0873
 21
0.903152
  0
LINE
  8
0
 10
19.0873
 20
0.903152
 11
18.9087
 21
0.752136
  0
LINE
  8
0
 10
18.9087
 20
0.752136
 11
18.7093
 21
0.620819
  0
LINE
  8
0
 10
18.7093
 20
0.620819
 11
18.4872
 21
0.508713
  0
LINE
  8
0
 10
18.4872
 20
0.508713
 11
18.2402
 21
0.416016
  0
LINE
  8
0
 10
18.2402
 20
0.416016
 11
17.9669
 21
0.343506
  0
LINE
  8
0
 10
17.9669
 20
0.343506
 11
17.6458
 21
0.288818
  0
LINE
  8
0
 10
17.6458
 20
0.288818
 11
17.6013
 21
0.279114
  0
LINE
  8
0
 10
17.6013
 20
0.279114
 11
17.5418
 21
0.259201
  0
LINE
  8
0
 10
17.5418
 20
0.259201
 11
17.4852
 21
0.231979
  0
LINE
  8
0
 10
17.4852
 20
0.231979
 11
17.4324
 21
0.197876
  0
LINE
  8
0
 10
17.4324
 20
0.197876
 11
17.3844
 21
0.15744
  0
LINE
  8
0
 10
17.3844
 20
0.15744
 11
17.3418
 21
0.111298
  0
LINE
  8
0
 10
17.3418
 20
0.111298
 11
17.3054
 21
0.0601959
  0
LINE
  8
0
 10
17.3054
 20
0.0601959
 11
17.2756
 21
0.00491333
  0
LINE
  8
0
 10
17.2756
 20
0.00491333
 11
17.253
 21
-0.0536652
  0
LINE
  8
0
 10
17.253
 20
-0.0536652
 11
17.2379
 21
-0.114624
  0
LINE
  8
0
 10
17.2379
 20
-0.114624
 11
17.2305
 21
-0.176987
  0
LINE
  8
0
 10
17.2305
 20
-0.176987
 11
17.2311
 21
-0.239777
  0
LINE
  8
0
 10
17.2311
 20
-0.239777
 11
17.2395
 21
-0.302002
  0
LINE
  8
0
 10
17.2395
 20
-0.302002
 11
17.2556
 21
-0.362671
  0
LINE
  8
0
 10
17.2556
 20
-0.362671
 11
17.2793
 21
-0.420853
  0
LINE
  8
0
 10
17.2793
 20
-0.420853
 11
17.31
 21
-0.475616
  0
LINE
  8
0
 10
17.31
 20
-0.475616
 11
17.3473
 21
-0.526093
  0
LINE
  8
0
 10
17.3473
 20
-0.526093
 11
17.3907
 21
-0.571503
  0
LINE
  8
0
 10
17.3907
 20
-0.571503
 11
17.4394
 21
-0.611099
  0
LINE
  8
0
 10
17.4394
 20
-0.611099
 11
17.4927
 21
-0.644287
  0
LINE
  8
0
 10
17.4927
 20
-0.644287
 11
17.5498
 21
-0.670532
  0
LINE
  8
0
 10
17.5498
 20
-0.670532
 11
17.6096
 21
-0.689423
  0
LINE
  8
0
 10
17.6096
 20
-0.689423
 11
17.6982
 21
-0.711349
  0
LINE
  8
0
 10
17.6982
 20
-0.711349
 11
17.7627
 21
-0.73317
  0
LINE
  8
0
 10
17.7627
 20
-0.73317
 11
17.8241
 21
-0.759979
  0
LINE
  8
0
 10
17.8241
 20
-0.759979
 11
17.8826
 21
-0.791733
  0
LINE
  8
0
 10
17.8826
 20
-0.791733
 11
17.9396
 21
-0.829285
  0
LINE
  8
0
 10
17.9396
 20
-0.829285
 11
17.9954
 21
-0.873154
  0
LINE
  8
0
 10
17.9954
 20
-0.873154
 11
18.0486
 21
-0.922424
  0
LINE
  8
0
 10
18.0486
 20
-0.922424
 11
18.1057
 21
-0.985229
  0
LINE
  8
0
 10
18.1057
 20
-0.985229
 11
18.1752
 21
-1.07446
  0
LINE
  8
0
 10
18.1752
 20
-1.07446
 11
18.2555
 21
-1.19061
  0
LINE
  8
0
 10
18.2555
 20
-1.19061
 11
18.3454
 21
-1.3336
  0
LINE
  8
0
 10
18.3454
 20
-1.3336
 11
18.4427
 21
-1.50136
  0
LINE
  8
0
 10
18.4427
 20
-1.50136
 11
18.5468
 21
-1.6931
  0
LINE
  8
0
 10
18.5468
 20
-1.6931
 11
18.6593
 21
-1.91264
  0
LINE
  8
0
 10
18.6593
 20
-1.91264
 11
20.6741
 21
-5.91875
  0
LINE
  8
0
 10
20.6741
 20
-5.91875
 11
18.9443
 21
-5.91875
  0
LINE
  8
0
 10
18.9443
 20
-5.91875
 11
17.4933
 21
-2.88058
  0
LINE
  8
0
 10
17.4933
 20
-2.88058
 11
17.4901
 21
-2.87401
  0
LINE
  8
0
 10
17.4901
 20
-2.87401
 11
17.4704
 21
-2.8343
  0
LINE
  8
0
 10
17.4704
 20
-2.8343
 11
17.4476
 21
-2.78754
  0
LINE
  8
0
 10
17.4476
 20
-2.78754
 11
17.424
 21
-2.73853
  0
LINE
  8
0
 10
17.424
 20
-2.73853
 11
17.3983
 21
-2.68489
  0
LINE
  8
0
 10
17.3983
 20
-2.68489
 11
17.3715
 21
-2.62816
  0
LINE
  8
0
 10
17.3715
 20
-2.62816
 11
17.3414
 21
-2.56413
  0
LINE
  8
0
 10
17.3414
 20
-2.56413
 11
17.3102
 21
-2.4971
  0
LINE
  8
0
 10
17.3102
 20
-2.4971
 11
17.3013
 21
-2.47891
  0
LINE
  8
0
 10
17.3013
 20
-2.47891
 11
17.0973
 21
-2.08372
  0
LINE
  8
0
 10
17.0973
 20
-2.08372
 11
17.0741
 21
-2.0435
  0
LINE
  8
0
 10
17.0741
 20
-2.0435
 11
16.86
 21
-1.70912
  0
LINE
  8
0
 10
16.86
 20
-1.70912
 11
16.8256
 21
-1.66182
  0
LINE
  8
0
 10
16.8256
 20
-1.66182
 11
16.6015
 21
-1.38823
  0
LINE
  8
0
 10
16.6015
 20
-1.38823
 11
16.5509
 21
-1.33504
  0
LINE
  8
0
 10
16.5509
 20
-1.33504
 11
16.3167
 21
-1.12224
  0
LINE
  8
0
 10
16.3167
 20
-1.12224
 11
16.2446
 21
-1.06778
  0
LINE
  8
0
 10
16.2446
 20
-1.06778
 11
16.0003
 21
-0.915787
  0
LINE
  8
0
 10
16.0003
 20
-0.915787
 11
15.9625
 21
-0.894516
  0
LINE
  8
0
 10
15.9625
 20
-0.894516
 11
15.9049
 21
-0.869659
  0
LINE
  8
0
 10
15.9049
 20
-0.869659
 11
15.6505
 21
-0.778473
  0
LINE
  8
0
 10
15.6505
 20
-0.778473
 11
15.6007
 21
-0.763489
  0
LINE
  8
0
 10
15.6007
 20
-0.763489
 11
15.5389
 21
-0.752426
  0
LINE
  8
0
 10
15.5389
 20
-0.752426
 11
15.2744
 21
-0.722015
  0
LINE
  8
0
 10
15.2744
 20
-0.722015
 11
15.2173
 21
-0.718735
  0
LINE
  8
0
 10
15.2173
 20
-0.718735
 11
14.3887
 21
-0.718735
  0
LINE
  8
0
 10
14.3887
 20
-0.718735
 11
14.295
 21
-0.727585
  0
LINE
  8
0
 10
14.295
 20
-0.727585
 11
14.2342
 21
-0.74321
  0
LINE
  8
0
 10
14.2342
 20
-0.74321
 11
14.1758
 21
-0.766327
  0
LINE
  8
0
 10
14.1758
 20
-0.766327
 11
14.1208
 21
-0.79657
  0
LINE
  8
0
 10
14.1208
 20
-0.79657
 11
14.07
 21
-0.833481
  0
LINE
  8
0
 10
14.07
 20
-0.833481
 11
14.0242
 21
-0.876465
  0
LINE
  8
0
 10
14.0242
 20
-0.876465
 11
13.9842
 21
-0.924835
  0
LINE
  8
0
 10
13.9842
 20
-0.924835
 11
13.9505
 21
-0.977859
  0
LINE
  8
0
 10
13.9505
 20
-0.977859
 11
13.9238
 21
-1.03467
  0
LINE
  8
0
 10
13.9238
 20
-1.03467
 11
13.9044
 21
-1.09439
  0
LINE
  8
0
 10
13.9044
 20
-1.09439
 11
13.8926
 21
-1.15607
  0
LINE
  8
0
 10
13.8926
 20
-1.15607
 11
13.8887
 21
-1.21873
  0
LINE
  8
0
 10
13.8887
 20
-1.21873
 11
13.8887
 21
-5.91875
  0
LINE
  8
0
 10
13.8887
 20
-5.91875
 11
12.288
 21
-5.91875
  0
LINE
  8
0
 10
15.6286
 20
0.46962
 11
15.9211
 21
0.478149
  0
LINE
  8
0
 10
15.9211
 20
0.478149
 11
15.9541
 21
0.480209
  0
LINE
  8
0
 10
15.9541
 20
0.480209
 11
16.2219
 21
0.505844
  0
LINE
  8
0
 10
16.2219
 20
0.505844
 11
16.2608
 21
0.511108
  0
LINE
  8
0
 10
16.2608
 20
0.511108
 11
16.5039
 21
0.553802
  0
LINE
  8
0
 10
16.5039
 20
0.553802
 11
16.5494
 21
0.563995
  0
LINE
  8
0
 10
16.5494
 20
0.563995
 11
16.7679
 21
0.623779
  0
LINE
  8
0
 10
16.7679
 20
0.623779
 11
16.8202
 21
0.641251
  0
LINE
  8
0
 10
16.8202
 20
0.641251
 11
17.014
 21
0.718109
  0
LINE
  8
0
 10
17.014
 20
0.718109
 11
17.0725
 21
0.745773
  0
LINE
  8
0
 10
17.0725
 20
0.745773
 11
17.2417
 21
0.839722
  0
LINE
  8
0
 10
17.2417
 20
0.839722
 11
17.3035
 21
0.880325
  0
LINE
  8
0
 10
17.3035
 20
0.880325
 11
17.4481
 21
0.991348
  0
LINE
  8
0
 10
17.4481
 20
0.991348
 11
17.5078
 21
1.04546
  0
LINE
  8
0
 10
17.5078
 20
1.04546
 11
17.6306
 21
1.1761
  0
LINE
  8
0
 10
17.6306
 20
1.1761
 11
17.6797
 21
1.23735
  0
LINE
  8
0
 10
17.6797
 20
1.23735
 11
17.7836
 21
1.39012
  0
LINE
  8
0
 10
17.7836
 20
1.39012
 11
17.8199
 21
1.45274
  0
LINE
  8
0
 10
17.8199
 20
1.45274
 11
17.9049
 21
1.62762
  0
LINE
  8
0
 10
17.9049
 20
1.62762
 11
17.9292
 21
1.68707
  0
LINE
  8
0
 10
17.9292
 20
1.68707
 11
17.9953
 21
1.88405
  0
LINE
  8
0
 10
17.9953
 20
1.88405
 11
18.0101
 21
1.93781
  0
LINE
  8
0
 10
18.0101
 20
1.93781
 11
18.0573
 21
2.15691
  0
LINE
  8
0
 10
18.0573
 20
2.15691
 11
18.0651
 21
2.20392
  0
LINE
  8
0
 10
18.0651
 20
2.20392
 11
18.0934
 21
2.44513
  0
LINE
  8
0
 10
18.0934
 20
2.44513
 11
18.0965
 21
2.48553
  0
LINE
  8
0
 10
18.0965
 20
2.48553
 11
18.106
 21
2.74886
  0
LINE
  8
0
 10
18.106
 20
2.74886
 11
18.106
 21
2.78455
  0
LINE
  8
0
 10
18.106
 20
2.78455
 11
18.0966
 21
3.04778
  0
LINE
  8
0
 10
18.0966
 20
3.04778
 11
18.0936
 21
3.08786
  0
LINE
  8
0
 10
18.0936
 20
3.08786
 11
18.0655
 21
3.32878
  0
LINE
  8
0
 10
18.0655
 20
3.32878
 11
18.0578
 21
3.37555
  0
LINE
  8
0
 10
18.0578
 20
3.37555
 11
18.011
 21
3.59419
  0
LINE
  8
0
 10
18.011
 20
3.59419
 11
17.9964
 21
3.64775
  0
LINE
  8
0
 10
17.9964
 20
3.64775
 11
17.931
 21
3.84409
  0
LINE
  8
0
 10
17.931
 20
3.84409
 11
17.9067
 21
3.90366
  0
LINE
  8
0
 10
17.9067
 20
3.90366
 11
17.8225
 21
4.0777
  0
LINE
  8
0
 10
17.8225
 20
4.0777
 11
17.7863
 21
4.14056
  0
LINE
  8
0
 10
17.7863
 20
4.14056
 11
17.6834
 21
4.2923
  0
LINE
  8
0
 10
17.6834
 20
4.2923
 11
17.634
 21
4.35403
  0
LINE
  8
0
 10
17.634
 20
4.35403
 11
17.5124
 21
4.48349
  0
LINE
  8
0
 10
17.5124
 20
4.48349
 11
17.4518
 21
4.53821
  0
LINE
  8
0
 10
17.4518
 20
4.53821
 11
17.3082
 21
4.64809
  0
LINE
  8
0
 10
17.3082
 20
4.64809
 11
17.2457
 21
4.68893
  0
LINE
  8
0
 10
17.2457
 20
4.68893
 11
17.0769
 21
4.78192
  0
LINE
  8
0
 10
17.0769
 20
4.78192
 11
17.0182
 21
4.80949
  0
LINE
  8
0
 10
17.0182
 20
4.80949
 11
16.8242
 21
4.88556
  0
LINE
  8
0
 10
16.8242
 20
4.88556
 11
16.772
 21
4.90279
  0
LINE
  8
0
 10
16.772
 20
4.90279
 11
16.5529
 21
4.96196
  0
LINE
  8
0
 10
16.5529
 20
4.96196
 11
16.5078
 21
4.97192
  0
LINE
  8
0
 10
16.5078
 20
4.97192
 11
16.2635
 21
5.01419
  0
LINE
  8
0
 10
16.2635
 20
5.01419
 11
16.2251
 21
5.01932
  0
LINE
  8
0
 10
16.2251
 20
5.01932
 11
15.9556
 21
5.04468
  0
LINE
  8
0
 10
15.9556
 20
5.04468
 11
15.9231
 21
5.04668
  0
LINE
  8
0
 10
15.9231
 20
5.04668
 11
15.6284
 21
5.05513
  0
LINE
  8
0
 10
15.6284
 20
5.05513
 11
15.6141
 21
5.05533
  0
LINE
  8
0
 10
15.6141
 20
5.05533
 11
14.3887
 21
5.05533
  0
LINE
  8
0
 10
14.3887
 20
5.05533
 11
14.295
 21
5.04648
  0
LINE
  8
0
 10
14.295
 20
5.04648
 11
14.2342
 21
5.03085
  0
LINE
  8
0
 10
14.2342
 20
5.03085
 11
14.1758
 21
5.00774
  0
LINE
  8
0
 10
14.1758
 20
5.00774
 11
14.1208
 21
4.97749
  0
LINE
  8
0
 10
14.1208
 20
4.97749
 11
14.07
 21
4.94058
  0
LINE
  8
0
 10
14.07
 20
4.94058
 11
14.0242
 21
4.8976
  0
LINE
  8
0
 10
14.0242
 20
4.8976
 11
13.9842
 21
4.84923
  0
LINE
  8
0
 10
13.9842
 20
4.84923
 11
13.9505
 21
4.7962
  0
LINE
  8
0
 10
13.9505
 20
4.7962
 11
13.9238
 21
4.7394
  0
LINE
  8
0
 10
13.9238
 20
4.7394
 11
13.9044
 21
4.67967
  0
LINE
  8
0
 10
13.9044
 20
4.67967
 11
13.8926
 21
4.618
  0
LINE
  8
0
 10
13.8926
 20
4.618
 11
13.8887
 21
4.55533
  0
LINE
  8
0
 10
13.8887
 20
4.55533
 11
13.8887
 21
0.969406
  0
LINE
  8
0
 10
13.8887
 20
0.969406
 11
13.8975
 21
0.875717
  0
LINE
  8
0
 10
13.8975
 20
0.875717
 11
13.9131
 21
0.814896
  0
LINE
  8
0
 10
13.9131
 20
0.814896
 11
13.9363
 21
0.756516
  0
LINE
  8
0
 10
13.9363
 20
0.756516
 11
13.9665
 21
0.701492
  0
LINE
  8
0
 10
13.9665
 20
0.701492
 11
14.0034
 21
0.650696
  0
LINE
  8
0
 10
14.0034
 20
0.650696
 11
14.0464
 21
0.604919
  0
LINE
  8
0
 10
14.0464
 20
0.604919
 11
14.0948
 21
0.564896
  0
LINE
  8
0
 10
14.0948
 20
0.564896
 11
14.1478
 21
0.53125
  0
LINE
  8
0
 10
14.1478
 20
0.53125
 11
14.2046
 21
0.504517
  0
LINE
  8
0
 10
14.2046
 20
0.504517
 11
14.2643
 21
0.485107
  0
LINE
  8
0
 10
14.2643
 20
0.485107
 11
14.326
 21
0.473343
  0
LINE
  8
0
 10
14.326
 20
0.473343
 11
14.3887
 21
0.469406
  0
LINE
  8
0
 10
14.3887
 20
0.469406
 11
15.6141
 21
0.469406
  0
LINE
  8
0
 10
15.6141
 20
0.469406
 11
15.6286
 21
0.46962
  0
LINE
  8
0
 10
14.3887
 20
0.969406
 11
14.3887
 21
4.55533
  0
LINE
  8
0
 10
14.3887
 20
4.55533
 11
15.6141
 21
4.55533
  0
LINE
  8
0
 10
15.6141
 20
4.55533
 11
15.9088
 21
4.54688
  0
LINE
  8
0
 10
15.9088
 20
4.54688
 11
16.1783
 21
4.52151
  0
LINE
  8
0
 10
16.1783
 20
4.52151
 11
16.4226
 21
4.47925
  0
LINE
  8
0
 10
16.4226
 20
4.47925
 11
16.6417
 21
4.42007
  0
LINE
  8
0
 10
16.6417
 20
4.42007
 11
16.8356
 21
4.34401
  0
LINE
  8
0
 10
16.8356
 20
4.34401
 11
17.0044
 21
4.25102
  0
LINE
  8
0
 10
17.0044
 20
4.25102
 11
17.1479
 21
4.14114
  0
LINE
  8
0
 10
17.1479
 20
4.14114
 11
17.2695
 21
4.01169
  0
LINE
  8
0
 10
17.2695
 20
4.01169
 11
17.3724
 21
3.85995
  0
LINE
  8
0
 10
17.3724
 20
3.85995
 11
17.4566
 21
3.68591
  0
LINE
  8
0
 10
17.4566
 20
3.68591
 11
17.5221
 21
3.48958
  0
LINE
  8
0
 10
17.5221
 20
3.48958
 11
17.5689
 21
3.27094
  0
LINE
  8
0
 10
17.5689
 20
3.27094
 11
17.597
 21
3.03001
  0
LINE
  8
0
 10
17.597
 20
3.03001
 11
17.6063
 21
2.76678
  0
LINE
  8
0
 10
17.6063
 20
2.76678
 11
17.5969
 21
2.50346
  0
LINE
  8
0
 10
17.5969
 20
2.50346
 11
17.5685
 21
2.26225
  0
LINE
  8
0
 10
17.5685
 20
2.26225
 11
17.5213
 21
2.04315
  0
LINE
  8
0
 10
17.5213
 20
2.04315
 11
17.4552
 21
1.84618
  0
LINE
  8
0
 10
17.4552
 20
1.84618
 11
17.3702
 21
1.6713
  0
LINE
  8
0
 10
17.3702
 20
1.6713
 11
17.2663
 21
1.51852
  0
LINE
  8
0
 10
17.2663
 20
1.51852
 11
17.1435
 21
1.38788
  0
LINE
  8
0
 10
17.1435
 20
1.38788
 11
16.999
 21
1.27686
  0
LINE
  8
0
 10
16.999
 20
1.27686
 11
16.8298
 21
1.18291
  0
LINE
  8
0
 10
16.8298
 20
1.18291
 11
16.6359
 21
1.10605
  0
LINE
  8
0
 10
16.6359
 20
1.10605
 11
16.4174
 21
1.04626
  0
LINE
  8
0
 10
16.4174
 20
1.04626
 11
16.1743
 21
1.00357
  0
LINE
  8
0
 10
16.1743
 20
1.00357
 11
15.9065
 21
0.977936
  0
LINE
  8
0
 10
15.9065
 20
0.977936
 11
15.6141
 21
0.969406
  0
LINE
  8
0
 10
15.6141
 20
0.969406
 11
14.3887
 21
0.969406
  0
LINE
  8
0
 10
-7.61829
 20
4.12424
 11
-6.20778
 21
-1.63474
  0
LINE
  8
0
 10
-6.20778
 20
-1.63474
 11
-4.13609
 21
-1.63474
  0
LINE
  8
0
 10
-4.13609
 20
-1.63474
 11
-2.74315
 21
4.12424
  0
LINE
  8
0
 10
-2.74315
 20
4.12424
 11
-2.74315
 21
-6.41875
  0
LINE
  8
0
 10
-2.74315
 20
-6.41875
 11
-0.504028
 21
-6.41875
  0
LINE
  8
0
 10
-0.504028
 20
-6.41875
 11
-0.504028
 21
6.74348
  0
LINE
  8
0
 10
-0.504028
 20
6.74348
 11
-3.6248
 21
6.74348
  0
LINE
  8
0
 10
-3.6248
 20
6.74348
 11
-5.18507
 21
0.966934
  0
LINE
  8
0
 10
-5.18507
 20
0.966934
 11
-6.7543
 21
6.74348
  0
LINE
  8
0
 10
-6.7543
 20
6.74348
 11
-9.85739
 21
6.74348
  0
LINE
  8
0
 10
-9.85739
 20
6.74348
 11
-9.85739
 21
-6.41875
  0
LINE
  8
0
 10
-9.85739
 20
-6.41875
 11
-7.61829
 21
-6.41875
  0
LINE
  8
0
 10
-7.61829
 20
-6.41875
 11
-7.61829
 21
4.12424
  0
LINE
  8
0
 10
-9.35739
 20
-5.91875
 11
-9.35739
 21
6.24348
  0
LINE
  8
0
 10
-9.35739
 20
6.24348
 11
-7.1366
 21
6.24348
  0
LINE
  8
0
 10
-7.1366
 20
6.24348
 11
-5.66759
 21
0.835861
  0
LINE
  8
0
 10
-5.66759
 20
0.835861
 11
-5.65222
 21
0.788696
  0
LINE
  8
0
 10
-5.65222
 20
0.788696
 11
-5.62621
 21
0.731552
  0
LINE
  8
0
 10
-5.62621
 20
0.731552
 11
-5.59322
 21
0.678116
  0
LINE
  8
0
 10
-5.59322
 20
0.678116
 11
-5.5538
 21
0.629242
  0
LINE
  8
0
 10
-5.5538
 20
0.629242
 11
-5.50858
 21
0.585678
  0
LINE
  8
0
 10
-5.50858
 20
0.585678
 11
-5.45824
 21
0.548141
  0
LINE
  8
0
 10
-5.45824
 20
0.548141
 11
-5.40359
 21
0.517212
  0
LINE
  8
0
 10
-5.40359
 20
0.517212
 11
-5.3455
 21
0.493378
  0
LINE
  8
0
 10
-5.3455
 20
0.493378
 11
-5.28488
 21
0.477005
  0
LINE
  8
0
 10
-5.28488
 20
0.477005
 11
-5.2227
 21
0.468353
  0
LINE
  8
0
 10
-5.2227
 20
0.468353
 11
-5.15991
 21
0.467575
  0
LINE
  8
0
 10
-5.15991
 20
0.467575
 11
-5.09752
 21
0.474655
  0
LINE
  8
0
 10
-5.09752
 20
0.474655
 11
-5.03651
 21
0.489517
  0
LINE
  8
0
 10
-5.03651
 20
0.489517
 11
-4.97784
 21
0.511902
  0
LINE
  8
0
 10
-4.97784
 20
0.511902
 11
-4.92245
 21
0.541458
  0
LINE
  8
0
 10
-4.92245
 20
0.541458
 11
-4.8712
 21
0.577728
  0
LINE
  8
0
 10
-4.8712
 20
0.577728
 11
-4.82489
 21
0.620132
  0
LINE
  8
0
 10
-4.82489
 20
0.620132
 11
-4.78427
 21
0.668015
  0
LINE
  8
0
 10
-4.78427
 20
0.668015
 11
-4.74995
 21
0.720612
  0
LINE
  8
0
 10
-4.74995
 20
0.720612
 11
-4.72252
 21
0.777084
  0
LINE
  8
0
 10
-4.72252
 20
0.777084
 11
-4.70238
 21
0.836548
  0
LINE
  8
0
 10
-4.70238
 20
0.836548
 11
-3.24194
 21
6.24348
  0
LINE
  8
0
 10
-3.24194
 20
6.24348
 11
-1.00403
 21
6.24348
  0
LINE
  8
0
 10
-1.00403
 20
6.24348
 11
-1.00403
 21
-5.91875
  0
LINE
  8
0
 10
-1.00403
 20
-5.91875
 11
-2.24315
 21
-5.91875
  0
LINE
  8
0
 10
-2.24315
 20
-5.91875
 11
-2.24315
 21
4.12424
  0
LINE
  8
0
 10
-2.24315
 20
4.12424
 11
-2.24802
 21
4.19385
  0
LINE
  8
0
 10
-2.24802
 20
4.19385
 11
-2.26065
 21
4.25536
  0
LINE
  8
0
 10
-2.26065
 20
4.25536
 11
-2.28088
 21
4.31479
  0
LINE
  8
0
 10
-2.28088
 20
4.31479
 11
-2.30841
 21
4.37123
  0
LINE
  8
0
 10
-2.30841
 20
4.37123
 11
-2.3428
 21
4.42377
  0
LINE
  8
0
 10
-2.3428
 20
4.42377
 11
-2.3835
 21
4.47159
  0
LINE
  8
0
 10
-2.3835
 20
4.47159
 11
-2.42987
 21
4.51392
  0
LINE
  8
0
 10
-2.42987
 20
4.51392
 11
-2.48117
 21
4.55011
  0
LINE
  8
0
 10
-2.48117
 20
4.55011
 11
-2.53662
 21
4.57959
  0
LINE
  8
0
 10
-2.53662
 20
4.57959
 11
-2.59532
 21
4.60188
  0
LINE
  8
0
 10
-2.59532
 20
4.60188
 11
-2.65634
 21
4.61664
  0
LINE
  8
0
 10
-2.65634
 20
4.61664
 11
-2.71875
 21
4.62364
  0
LINE
  8
0
 10
-2.71875
 20
4.62364
 11
-2.78154
 21
4.62276
  0
LINE
  8
0
 10
-2.78154
 20
4.62276
 11
-2.8437
 21
4.61401
  0
LINE
  8
0
 10
-2.8437
 20
4.61401
 11
-2.90431
 21
4.59755
  0
LINE
  8
0
 10
-2.90431
 20
4.59755
 11
-2.96236
 21
4.57362
  0
LINE
  8
0
 10
-2.96236
 20
4.57362
 11
-3.01695
 21
4.5426
  0
LINE
  8
0
 10
-3.01695
 20
4.5426
 11
-3.06723
 21
4.50499
  0
LINE
  8
0
 10
-3.06723
 20
4.50499
 11
-3.1124
 21
4.46136
  0
LINE
  8
0
 10
-3.1124
 20
4.46136
 11
-3.15173
 21
4.41243
  0
LINE
  8
0
 10
-3.15173
 20
4.41243
 11
-3.18463
 21
4.35895
  0
LINE
  8
0
 10
-3.18463
 20
4.35895
 11
-3.21057
 21
4.30177
  0
LINE
  8
0
 10
-3.21057
 20
4.30177
 11
-3.22914
 21
4.24179
  0
LINE
  8
0
 10
-3.22914
 20
4.24179
 11
-4.52959
 21
-1.13474
  0
LINE
  8
0
 10
-4.52959
 20
-1.13474
 11
-5.81546
 21
-1.13474
  0
LINE
  8
0
 10
-5.81546
 20
-1.13474
 11
-7.13264
 21
4.24318
  0
LINE
  8
0
 10
-7.13264
 20
4.24318
 11
-7.1534
 21
4.3083
  0
LINE
  8
0
 10
-7.1534
 20
4.3083
 11
-7.18013
 21
4.36511
  0
LINE
  8
0
 10
-7.18013
 20
4.36511
 11
-7.21378
 21
4.41814
  0
LINE
  8
0
 10
-7.21378
 20
4.41814
 11
-7.2538
 21
4.46651
  0
LINE
  8
0
 10
-7.2538
 20
4.46651
 11
-7.29958
 21
4.50949
  0
LINE
  8
0
 10
-7.29958
 20
4.50949
 11
-7.35037
 21
4.5464
  0
LINE
  8
0
 10
-7.35037
 20
4.5464
 11
-7.4054
 21
4.57664
  0
LINE
  8
0
 10
-7.4054
 20
4.57664
 11
-7.46378
 21
4.59976
  0
LINE
  8
0
 10
-7.46378
 20
4.59976
 11
-7.5246
 21
4.61539
  0
LINE
  8
0
 10
-7.5246
 20
4.61539
 11
-7.58688
 21
4.62325
  0
LINE
  8
0
 10
-7.58688
 20
4.62325
 11
-7.64969
 21
4.62325
  0
LINE
  8
0
 10
-7.64969
 20
4.62325
 11
-7.71198
 21
4.61539
  0
LINE
  8
0
 10
-7.71198
 20
4.61539
 11
-7.7728
 21
4.59976
  0
LINE
  8
0
 10
-7.7728
 20
4.59976
 11
-7.83118
 21
4.57664
  0
LINE
  8
0
 10
-7.83118
 20
4.57664
 11
-7.8862
 21
4.5464
  0
LINE
  8
0
 10
-7.8862
 20
4.5464
 11
-7.937
 21
4.50949
  0
LINE
  8
0
 10
-7.937
 20
4.50949
 11
-7.98277
 21
4.46651
  0
LINE
  8
0
 10
-7.98277
 20
4.46651
 11
-8.0228
 21
4.41814
  0
LINE
  8
0
 10
-8.0228
 20
4.41814
 11
-8.05644
 21
4.36511
  0
LINE
  8
0
 10
-8.05644
 20
4.36511
 11
-8.08318
 21
4.3083
  0
LINE
  8
0
 10
-8.08318
 20
4.3083
 11
-8.10258
 21
4.24858
  0
LINE
  8
0
 10
-8.10258
 20
4.24858
 11
-8.11435
 21
4.1869
  0
LINE
  8
0
 10
-8.11435
 20
4.1869
 11
-8.11829
 21
4.12424
  0
LINE
  8
0
 10
-8.11829
 20
4.12424
 11
-8.11829
 21
-5.91875
  0
LINE
  8
0
 10
-8.11829
 20
-5.91875
 11
-9.35739
 21
-5.91875
  0
LINE
  8
0
 10
9.67953
 20
-4.13074
 11
4.0816
 21
-4.13074
  0
LINE
  8
0
 10
4.0816
 20
-4.13074
 11
4.0816
 21
-0.677948
  0
LINE
  8
0
 10
4.0816
 20
-0.677948
 11
9.15056
 21
-0.677948
  0
LINE
  8
0
 10
9.15056
 20
-0.677948
 11
9.15056
 21
1.61005
  0
LINE
  8
0
 10
9.15056
 20
1.61005
 11
4.0816
 21
1.61005
  0
LINE
  8
0
 10
4.0816
 20
1.61005
 11
4.0816
 21
4.45547
  0
LINE
  8
0
 10
4.0816
 20
4.45547
 11
9.67953
 21
4.45547
  0
LINE
  8
0
 10
9.67953
 20
4.45547
 11
9.67953
 21
6.74348
  0
LINE
  8
0
 10
9.67953
 20
6.74348
 11
1.48108
 21
6.74348
  0
LINE
  8
0
 10
1.48108
 20
6.74348
 11
1.48108
 21
-6.41875
  0
LINE
  8
0
 10
1.48108
 20
-6.41875
 11
9.67953
 21
-6.41875
  0
LINE
  8
0
 10
9.67953
 20
-6.41875
 11
9.67953
 21
-4.13074
  0
LINE
  8
0
 10
1.98108
 20
-5.91875
 11
1.98108
 21
6.24348
  0
LINE
  8
0
 10
1.98108
 20
6.24348
 11
9.17953
 21
6.24348
  0
LINE
  8
0
 10
9.17953
 20
6.24348
 11
9.17953
 21
4.95547
  0
LINE
  8
0
 10
9.17953
 20
4.95547
 11
4.0816
 21
4.95547
  0
LINE
  8
0
 10
4.0816
 20
4.95547
 11
3.98792
 21
4.94662
  0
LINE
  8
0
 10
3.98792
 20
4.94662
 11
3.92709
 21
4.931
  0
LINE
  8
0
 10
3.92709
 20
4.931
 11
3.86871
 21
4.90788
  0
LINE
  8
0
 10
3.86871
 20
4.90788
 11
3.81369
 21
4.87764
  0
LINE
  8
0
 10
3.81369
 20
4.87764
 11
3.76289
 21
4.84073
  0
LINE
  8
0
 10
3.76289
 20
4.84073
 11
3.71712
 21
4.79774
  0
LINE
  8
0
 10
3.71712
 20
4.79774
 11
3.67709
 21
4.74937
  0
LINE
  8
0
 10
3.67709
 20
4.74937
 11
3.64345
 21
4.69635
  0
LINE
  8
0
 10
3.64345
 20
4.69635
 11
3.61671
 21
4.63954
  0
LINE
  8
0
 10
3.61671
 20
4.63954
 11
3.59731
 21
4.57982
  0
LINE
  8
0
 10
3.59731
 20
4.57982
 11
3.58554
 21
4.51814
  0
LINE
  8
0
 10
3.58554
 20
4.51814
 11
3.5816
 21
4.45547
  0
LINE
  8
0
 10
3.5816
 20
4.45547
 11
3.5816
 21
1.61005
  0
LINE
  8
0
 10
3.5816
 20
1.61005
 11
3.59045
 21
1.51636
  0
LINE
  8
0
 10
3.59045
 20
1.51636
 11
3.60608
 21
1.45554
  0
LINE
  8
0
 10
3.60608
 20
1.45554
 11
3.6292
 21
1.39716
  0
LINE
  8
0
 10
3.6292
 20
1.39716
 11
3.65944
 21
1.34213
  0
LINE
  8
0
 10
3.65944
 20
1.34213
 11
3.69635
 21
1.29134
  0
LINE
  8
0
 10
3.69635
 20
1.29134
 11
3.73933
 21
1.24556
  0
LINE
  8
0
 10
3.73933
 20
1.24556
 11
3.7877
 21
1.20554
  0
LINE
  8
0
 10
3.7877
 20
1.20554
 11
3.84073
 21
1.17189
  0
LINE
  8
0
 10
3.84073
 20
1.17189
 11
3.89754
 21
1.14516
  0
LINE
  8
0
 10
3.89754
 20
1.14516
 11
3.95726
 21
1.12575
  0
LINE
  8
0
 10
3.95726
 20
1.12575
 11
4.01894
 21
1.11398
  0
LINE
  8
0
 10
4.01894
 20
1.11398
 11
4.0816
 21
1.11005
  0
LINE
  8
0
 10
4.0816
 20
1.11005
 11
8.65056
 21
1.11005
  0
LINE
  8
0
 10
8.65056
 20
1.11005
 11
8.65056
 21
-0.177948
  0
LINE
  8
0
 10
8.65056
 20
-0.177948
 11
4.0816
 21
-0.177948
  0
LINE
  8
0
 10
4.0816
 20
-0.177948
 11
3.98792
 21
-0.186798
  0
LINE
  8
0
 10
3.98792
 20
-0.186798
 11
3.92709
 21
-0.202423
  0
LINE
  8
0
 10
3.92709
 20
-0.202423
 11
3.86871
 21
-0.22554
  0
LINE
  8
0
 10
3.86871
 20
-0.22554
 11
3.81369
 21
-0.255783
  0
LINE
  8
0
 10
3.81369
 20
-0.255783
 11
3.76289
 21
-0.292694
  0
LINE
  8
0
 10
3.76289
 20
-0.292694
 11
3.71712
 21
-0.335678
  0
LINE
  8
0
 10
3.71712
 20
-0.335678
 11
3.67709
 21
-0.384048
  0
LINE
  8
0
 10
3.67709
 20
-0.384048
 11
3.64345
 21
-0.437073
  0
LINE
  8
0
 10
3.64345
 20
-0.437073
 11
3.61671
 21
-0.493881
  0
LINE
  8
0
 10
3.61671
 20
-0.493881
 11
3.59731
 21
-0.553604
  0
LINE
  8
0
 10
3.59731
 20
-0.553604
 11
3.58554
 21
-0.61528
  0
LINE
  8
0
 10
3.58554
 20
-0.61528
 11
3.5816
 21
-0.677948
  0
LINE
  8
0
 10
3.5816
 20
-0.677948
 11
3.5816
 21
-4.13074
  0
LINE
  8
0
 10
3.5816
 20
-4.13074
 11
3.59045
 21
-4.22443
  0
LINE
  8
0
 10
3.59045
 20
-4.22443
 11
3.60608
 21
-4.28525
  0
LINE
  8
0
 10
3.60608
 20
-4.28525
 11
3.6292
 21
-4.34363
  0
LINE
  8
0
 10
3.6292
 20
-4.34363
 11
3.65944
 21
-4.39865
  0
LINE
  8
0
 10
3.65944
 20
-4.39865
 11
3.69635
 21
-4.44945
  0
LINE
  8
0
 10
3.69635
 20
-4.44945
 11
3.73933
 21
-4.49522
  0
LINE
  8
0
 10
3.73933
 20
-4.49522
 11
3.7877
 21
-4.53525
  0
LINE
  8
0
 10
3.7877
 20
-4.53525
 11
3.84073
 21
-4.56889
  0
LINE
  8
0
 10
3.84073
 20
-4.56889
 11
3.89754
 21
-4.59563
  0
LINE
  8
0
 10
3.89754
 20
-4.59563
 11
3.95726
 21
-4.61504
  0
LINE
  8
0
 10
3.95726
 20
-4.61504
 11
4.01894
 21
-4.6268
  0
LINE
  8
0
 10
4.01894
 20
-4.6268
 11
4.0816
 21
-4.63074
  0
LINE
  8
0
 10
4.0816
 20
-4.63074
 11
9.17953
 21
-4.63074
  0
LINE
  8
0
 10
9.17953
 20
-4.63074
 11
9.17953
 21
-5.91875
  0
LINE
  8
0
 10
9.17953
 20
-5.91875
 11
1.98108
 21
-5.91875
  0
ENDSEC
  0
SECTION
  2
OBJECTS
  0
DICTIONARY
  0
ENDSEC
  0
EOF
