<?xml version="1.0" standalone="no"?>
<!DOCTYPE svg PUBLIC "-//W3C//DTD SVG 1.1//EN" "http://www.w3.org/Graphics/SVG/1.1/DTD/svg11.dtd">
<svg width="43mm" height="14mm" viewBox="-21 -7 43 14" xmlns="http://www.w3.org/2000/svg" version="1.1">
<title>OpenSCAD Model</title>
<path d="
M -15.1687,6.64139 L -14.5827,6.53555 L -14.0425,6.35916 L -13.5482,6.11221 L -13.0998,5.79472 L -12.6972,5.40666
 L -12.3406,4.94806 L -12.0307,4.42068 L -11.7684,3.82635 L -11.5539,3.16507 L -11.387,2.43683 L -11.2679,1.64163
 L -11.1964,0.77948 L -11.1725,-0.149628 L -11.1964,-1.08109 L -11.2679,-1.94522 L -11.387,-2.74205 L -11.5539,-3.47156
 L -11.7684,-4.13374 L -12.0307,-4.72861 L -12.3406,-5.25615 L -12.6972,-5.71477 L -13.0998,-6.10281 L -13.5482,-6.42032
 L -14.0425,-6.66727 L -14.5827,-6.84366 L -15.1687,-6.94948 L -15.8006,-6.98476 L -16.4303,-6.94948 L -17.0143,-6.84366
 L -17.5529,-6.66727 L -18.046,-6.42032 L -18.4935,-6.10281 L -18.8955,-5.71477 L -19.252,-5.25615 L -19.5619,-4.72861
 L -19.8241,-4.13374 L -20.0387,-3.47156 L -20.2055,-2.74205 L -20.3247,-1.94522 L -20.3962,-1.08109 L -20.4201,-0.149628
 L -20.3962,0.77948 L -20.3247,1.64163 L -20.2055,2.43683 L -20.0387,3.16507 L -19.8241,3.82635 L -19.5619,4.42068
 L -19.252,4.94806 L -18.8955,5.40666 L -18.4935,5.79472 L -18.046,6.11221 L -17.5529,6.35916 L -17.0143,6.53555
 L -16.4303,6.64139 L -15.8006,6.67667 z
M -16.3715,6.14389 L -16.8914,6.04968 L -17.3621,5.89554 L -17.7879,5.68228 L -18.1735,5.40871 L -18.5226,5.07169
 L -18.8373,4.66687 L -19.1161,4.19232 L -19.3564,3.64784 L -19.5562,3.03175 L -19.7139,2.34383 L -19.8278,1.58389
 L -19.8968,0.752274 L -19.9199,-0.149658 L -19.8968,-1.05406 L -19.8278,-1.8876 L -19.7139,-2.64906 L -19.5562,-3.33846
 L -19.3563,-3.95546 L -19.1161,-4.50034 L -18.8373,-4.97488 L -18.5226,-5.37979 L -18.1734,-5.71686 L -17.7879,-5.99037
 L -17.3621,-6.20364 L -16.8914,-6.35779 L -16.3715,-6.45198 L -15.8005,-6.48398 L -15.2274,-6.45198 L -14.7052,-6.35768
 L -14.2328,-6.20345 L -13.8059,-5.99014 L -13.4196,-5.71661 L -13.07,-5.37962 L -12.7552,-4.97485 L -12.4765,-4.50034
 L -12.2363,-3.95546 L -12.0364,-3.33846 L -11.8787,-2.64906 L -11.7648,-1.88759 L -11.6958,-1.05409 L -11.6727,-0.149658
 L -11.6958,0.752304 L -11.7648,1.58388 L -11.8787,2.34383 L -12.0363,3.03175 L -12.2362,3.64784 L -12.4764,4.19232
 L -12.7552,4.66684 L -13.0699,5.07146 L -13.4195,5.40846 L -13.8059,5.68207 L -14.2328,5.89534 L -14.7053,6.04962
 L -15.2272,6.14388 L -15.8005,6.17589 z
M -15.4855,4.81552 L -15.4005,4.80139 L -15.1468,4.73634 L -15.0588,4.70476 L -14.8275,4.59633 L -14.7989,4.58182
 L -14.7459,4.54819 L -14.5369,4.39641 L -14.4694,4.33748 L -14.2826,4.14233 L -14.2322,4.08044 L -14.0678,3.84192
 L -14.033,3.78323 L -13.8909,3.50134 L -13.8682,3.44911 L -13.7466,3.11897 L -13.7328,3.07581 L -13.6299,2.69257
 L -13.6218,2.65762 L -13.5376,2.2213 L -13.533,2.19287 L -13.4675,1.70346 L -13.4649,1.68008 L -13.4181,1.13757
 L -13.4168,1.11816 L -13.3887,0.522583 L -13.3882,0.506241 L -13.3789,-0.142426 L -13.3789,-0.156815 L -13.3882,-0.807831
 L -13.3887,-0.824112 L -13.4168,-1.42168 L -13.4181,-1.44104 L -13.4649,-1.98515 L -13.4675,-2.00848 L -13.533,-2.49913
 L -13.5376,-2.52754 L -13.6218,-2.96475 L -13.6299,-2.99973 L -13.7328,-3.38347 L -13.7465,-3.42671 L -13.8682,-3.75702
 L -13.8909,-3.80931 L -14.033,-4.09122 L -14.0678,-4.14989 L -14.2322,-4.38844 L -14.2826,-4.45033 L -14.4693,-4.64551
 L -14.5368,-4.70445 L -14.7459,-4.85625 L -14.7724,-4.87422 L -14.8275,-4.90439 L -15.0588,-5.01283 L -15.1468,-5.04443
 L -15.4005,-5.10948 L -15.4855,-5.12361 L -15.7615,-5.14529 L -15.8401,-5.14528 L -16.1138,-5.1236 L -16.1994,-5.10925
 L -16.4511,-5.0442 L -16.5394,-5.01227 L -16.7692,-4.90382 L -16.7977,-4.88919 L -16.8507,-4.85542 L -17.0585,-4.70363
 L -17.1256,-4.64468 L -17.3115,-4.44951 L -17.3615,-4.38786 L -17.5255,-4.14931 L -17.5599,-4.09105 L -17.7019,-3.80914
 L -17.7245,-3.75699 L -17.8462,-3.42668 L -17.8599,-3.38341 L -17.9628,-2.99966 L -17.9708,-2.96474 L -18.055,-2.52753
 L -18.0596,-2.4991 L -18.1251,-2.00845 L -18.1277,-1.98515 L -18.1745,-1.44104 L -18.1758,-1.42166 L -18.2038,-0.824097
 L -18.2043,-0.807831 L -18.2137,-0.156815 L -18.2137,-0.142426 L -18.2043,0.506241 L -18.2038,0.522568 L -18.1758,1.11815
 L -18.1745,1.13757 L -18.1277,1.68008 L -18.1251,1.70343 L -18.0596,2.19284 L -18.055,2.22128 L -17.9708,2.65761
 L -17.9627,2.6925 L -17.8598,3.07574 L -17.8461,3.11894 L -17.7245,3.44908 L -17.7019,3.50116 L -17.5599,3.78305
 L -17.5254,3.84132 L -17.3615,4.07985 L -17.3115,4.14151 L -17.1256,4.33665 L -17.0585,4.39558 L -16.8507,4.54736
 L -16.8241,4.56546 L -16.7691,4.59576 L -16.5394,4.70419 L -16.4511,4.73611 L -16.1994,4.80116 L -16.1138,4.81551
 L -15.8401,4.83719 L -15.7615,4.8372 z
M -16.0743,4.31706 L -16.326,4.25201 L -16.5558,4.14359 L -16.7636,3.99181 L -16.9494,3.79666 L -17.1134,3.55814
 L -17.2553,3.27625 L -17.377,2.94611 L -17.4798,2.56287 L -17.564,2.12654 L -17.6295,1.63713 L -17.6763,1.09462
 L -17.7044,0.499039 L -17.7137,-0.149628 L -17.7044,-0.800644 L -17.6763,-1.39821 L -17.6295,-1.94232 L -17.564,-2.43297
 L -17.4798,-2.87018 L -17.377,-3.25392 L -17.2553,-3.58423 L -17.1134,-3.86613 L -16.9494,-4.10469 L -16.7636,-4.29987
 L -16.5558,-4.45166 L -16.326,-4.5601 L -16.0743,-4.62515 L -15.8006,-4.64684 L -15.5247,-4.62515 L -15.271,-4.5601
 L -15.0397,-4.45166 L -14.8306,-4.29987 L -14.6439,-4.10469 L -14.4795,-3.86613 L -14.3374,-3.58423 L -14.2157,-3.25392
 L -14.1128,-2.87018 L -14.0286,-2.43297 L -13.9631,-1.94232 L -13.9163,-1.39821 L -13.8882,-0.800644 L -13.8788,-0.149628
 L -13.8882,0.499039 L -13.9163,1.09462 L -13.9631,1.63713 L -14.0286,2.12654 L -14.1128,2.56287 L -14.2157,2.94611
 L -14.3374,3.27625 L -14.4795,3.55814 L -14.6439,3.79666 L -14.8306,3.99181 L -15.0397,4.14359 L -15.271,4.25201
 L -15.5247,4.31706 L -15.8006,4.33875 z
M 14.3887,1.21873 L 15.2173,1.21873 L 15.4818,1.24915 L 15.7362,1.34033 L 15.9805,1.49232 L 16.2147,1.70512
 L 16.4389,1.97871 L 16.653,2.3131 L 16.857,2.70828 L 16.8888,2.77663 L 16.9189,2.84065 L 16.9471,2.90036
 L 16.9736,2.95576 L 16.9982,3.00685 L 17.0211,3.05362 L 17.0421,3.09607 L 18.629,6.41875 L 21.4852,6.41875
 L 19.1049,1.68584 L 18.9892,1.46004 L 18.8786,1.25639 L 18.7733,1.07487 L 18.6732,0.915497 L 18.5783,0.778244
 L 18.4886,0.663147 L 18.4041,0.570175 L 18.3202,0.492508 L 18.2322,0.423294 L 18.14,0.362534 L 18.0437,0.310242
 L 17.9432,0.266403 L 17.8386,0.231018 L 17.7298,0.204086 L 18.0731,0.145615 L 18.3926,0.0608521 L 18.6883,-0.0501404
 L 18.9603,-0.187424 L 19.2086,-0.350967 L 19.4331,-0.540771 L 19.6339,-0.756851 L 19.8093,-0.997437 L 19.9578,-1.2607
 L 20.0792,-1.54662 L 20.1737,-1.85522 L 20.2411,-2.18649 L 20.2816,-2.54044 L 20.2951,-2.91707 L 20.2725,-3.47339
 L 20.2048,-3.98366 L 20.0919,-4.44786 L 19.9338,-4.86603 L 19.7306,-5.23811 L 19.4822,-5.56416 L 19.1887,-5.84415
 L 18.8434,-6.08275 L 18.4395,-6.28464 L 17.9773,-6.44981 L 17.4565,-6.57829 L 16.8773,-6.67007 L 16.2396,-6.72513
 L 15.5435,-6.74348 L 11.788,-6.74348 L 11.788,6.41875 L 14.3887,6.41875 z
M 12.288,5.91875 L 12.288,-6.24348 L 15.5367,-6.24348 L 16.2115,-6.22569 L 16.8168,-6.17343 L 17.3573,-6.08778
 L 17.8329,-5.97044 L 18.2429,-5.82394 L 18.5881,-5.65134 L 18.8721,-5.45515 L 19.1085,-5.22968 L 19.3099,-4.96523
 L 19.4784,-4.65683 L 19.6133,-4.29984 L 19.7126,-3.89139 L 19.7739,-3.43024 L 19.7947,-2.91589 L 19.7826,-2.57791
 L 19.7468,-2.26489 L 19.6885,-1.97852 L 19.6088,-1.71803 L 19.5085,-1.4819 L 19.3881,-1.26837 L 19.2475,-1.07549
 L 19.0873,-0.903152 L 18.9087,-0.752136 L 18.7093,-0.620819 L 18.4872,-0.508713 L 18.2402,-0.416016 L 17.9669,-0.343506
 L 17.6458,-0.288818 L 17.6013,-0.279114 L 17.5418,-0.259201 L 17.4852,-0.231979 L 17.4324,-0.197876 L 17.3844,-0.15744
 L 17.3418,-0.111298 L 17.3054,-0.0601959 L 17.2756,-0.00491333 L 17.253,0.0536652 L 17.2379,0.114624 L 17.2305,0.176987
 L 17.2311,0.239777 L 17.2395,0.302002 L 17.2556,0.362671 L 17.2793,0.420853 L 17.31,0.475616 L 17.3473,0.526093
 L 17.3907,0.571503 L 17.4394,0.611099 L 17.4927,0.644287 L 17.5498,0.670532 L 17.6096,0.689423 L 17.6982,0.711349
 L 17.7627,0.73317 L 17.8241,0.759979 L 17.8826,0.791733 L 17.9396,0.829285 L 17.9954,0.873154 L 18.0486,0.922424
 L 18.1057,0.985229 L 18.1752,1.07446 L 18.2555,1.19061 L 18.3454,1.3336 L 18.4427,1.50136 L 18.5468,1.6931
 L 18.6593,1.91264 L 20.6741,5.91875 L 18.9443,5.91875 L 17.4933,2.88058 L 17.4901,2.87401 L 17.4704,2.8343
 L 17.4476,2.78754 L 17.424,2.73853 L 17.3983,2.68489 L 17.3715,2.62816 L 17.3414,2.56413 L 17.3102,2.4971
 L 17.3013,2.47891 L 17.0973,2.08372 L 17.0741,2.0435 L 16.86,1.70912 L 16.8256,1.66182 L 16.6015,1.38823
 L 16.5509,1.33504 L 16.3167,1.12224 L 16.2446,1.06778 L 16.0003,0.915787 L 15.9625,0.894516 L 15.9049,0.869659
 L 15.6505,0.778473 L 15.6007,0.763489 L 15.5389,0.752426 L 15.2744,0.722015 L 15.2173,0.718735 L 14.3887,0.718735
 L 14.295,0.727585 L 14.2342,0.74321 L 14.1758,0.766327 L 14.1208,0.79657 L 14.07,0.833481 L 14.0242,0.876465
 L 13.9842,0.924835 L 13.9505,0.977859 L 13.9238,1.03467 L 13.9044,1.09439 L 13.8926,1.15607 L 13.8887,1.21873
 L 13.8887,5.91875 z
M 15.6286,-0.46962 L 15.9211,-0.478149 L 15.9541,-0.480209 L 16.2219,-0.505844 L 16.2608,-0.511108 L 16.5039,-0.553802
 L 16.5494,-0.563995 L 16.7679,-0.623779 L 16.8202,-0.641251 L 17.014,-0.718109 L 17.0725,-0.745773 L 17.2417,-0.839722
 L 17.3035,-0.880325 L 17.4481,-0.991348 L 17.5078,-1.04546 L 17.6306,-1.1761 L 17.6797,-1.23735 L 17.7836,-1.39012
 L 17.8199,-1.45274 L 17.9049,-1.62762 L 17.9292,-1.68707 L 17.9953,-1.88405 L 18.0101,-1.93781 L 18.0573,-2.15691
 L 18.0651,-2.20392 L 18.0934,-2.44513 L 18.0965,-2.48553 L 18.106,-2.74886 L 18.106,-2.78455 L 18.0966,-3.04778
 L 18.0936,-3.08786 L 18.0655,-3.32878 L 18.0578,-3.37555 L 18.011,-3.59419 L 17.9964,-3.64775 L 17.931,-3.84409
 L 17.9067,-3.90366 L 17.8225,-4.0777 L 17.7863,-4.14056 L 17.6834,-4.2923 L 17.634,-4.35403 L 17.5124,-4.48349
 L 17.4518,-4.53821 L 17.3082,-4.64809 L 17.2457,-4.68893 L 17.0769,-4.78192 L 17.0182,-4.80949 L 16.8242,-4.88556
 L 16.772,-4.90279 L 16.5529,-4.96196 L 16.5078,-4.97192 L 16.2635,-5.01419 L 16.2251,-5.01932 L 15.9556,-5.04468
 L 15.9231,-5.04668 L 15.6284,-5.05513 L 15.6141,-5.05533 L 14.3887,-5.05533 L 14.295,-5.04648 L 14.2342,-5.03085
 L 14.1758,-5.00774 L 14.1208,-4.97749 L 14.07,-4.94058 L 14.0242,-4.8976 L 13.9842,-4.84923 L 13.9505,-4.7962
 L 13.9238,-4.7394 L 13.9044,-4.67967 L 13.8926,-4.618 L 13.8887,-4.55533 L 13.8887,-0.969406 L 13.8975,-0.875717
 L 13.9131,-0.814896 L 13.9363,-0.756516 L 13.9665,-0.701492 L 14.0034,-0.650696 L 14.0464,-0.604919 L 14.0948,-0.564896
 L 14.1478,-0.53125 L 14.2046,-0.504517 L 14.2643,-0.485107 L 14.326,-0.473343 L 14.3887,-0.469406 L 15.6141,-0.469406
 z
M 14.3887,-0.969406 L 14.3887,-4.55533 L 15.6141,-4.55533 L 15.9088,-4.54688 L 16.1783,-4.52151 L 16.4226,-4.47925
 L 16.6417,-4.42007 L 16.8356,-4.34401 L 17.0044,-4.25102 L 17.1479,-4.14114 L 17.2695,-4.01169 L 17.3724,-3.85995
 L 17.4566,-3.68591 L 17.5221,-3.48958 L 17.5689,-3.27094 L 17.597,-3.03001 L 17.6063,-2.76678 L 17.5969,-2.50346
 L 17.5685,-2.26225 L 17.5213,-2.04315 L 17.4552,-1.84618 L 17.3702,-1.6713 L 17.2663,-1.51852 L 17.1435,-1.38788
 L 16.999,-1.27686 L 16.8298,-1.18291 L 16.6359,-1.10605 L 16.4174,-1.04626 L 16.1743,-1.00357 L 15.9065,-0.977936
 L 15.6141,-0.969406 z
M -7.61829,-4.12424 L -6.20778,1.63474 L -4.13609,1.63474 L -2.74315,-4.12424 L -2.74315,6.41875 L -0.504028,6.41875
 L -0.504028,-6.74348 L -3.6248,-6.74348 L -5.18507,-0.966934 L -6.7543,-6.74348 L -9.85739,-6.74348 L -9.85739,6.41875
 L -7.61829,6.41875 z
M -9.35739,5.91875 L -9.35739,-6.24348 L -7.1366,-6.24348 L -5.66759,-0.835861 L -5.65222,-0.788696 L -5.62621,-0.731552
 L -5.59322,-0.678116 L -5.5538,-0.629242 L -5.50858,-0.585678 L -5.45824,-0.548141 L -5.40359,-0.517212 L -5.3455,-0.493378
 L -5.28488,-0.477005 L -5.2227,-0.468353 L -5.15991,-0.467575 L -5.09752,-0.474655 L -5.03651,-0.489517 L -4.97784,-0.511902
 L -4.92245,-0.541458 L -4.8712,-0.577728 L -4.82489,-0.620132 L -4.78427,-0.668015 L -4.74995,-0.720612 L -4.72252,-0.777084
 L -4.70238,-0.836548 L -3.24194,-6.24348 L -1.00403,-6.24348 L -1.00403,5.91875 L -2.24315,5.91875 L -2.24315,-4.12424
 L -2.24802,-4.19385 L -2.26065,-4.25536 L -2.28088,-4.31479 L -2.30841,-4.37123 L -2.3428,-4.42377 L -2.3835,-4.47159
 L -2.42987,-4.51392 L -2.48117,-4.55011 L -2.53662,-4.57959 L -2.59532,-4.60188 L -2.65634,-4.61664 L -2.71875,-4.62364
 L -2.78154,-4.62276 L -2.8437,-4.61401 L -2.90431,-4.59755 L -2.96236,-4.57362 L -3.01695,-4.5426 L -3.06723,-4.50499
 L -3.1124,-4.46136 L -3.15173,-4.41243 L -3.18463,-4.35895 L -3.21057,-4.30177 L -3.22914,-4.24179 L -4.52959,1.13474
 L -5.81546,1.13474 L -7.13264,-4.24318 L -7.1534,-4.3083 L -7.18013,-4.36511 L -7.21378,-4.41814 L -7.2538,-4.46651
 L -7.29958,-4.50949 L -7.35037,-4.5464 L -7.4054,-4.57664 L -7.46378,-4.59976 L -7.5246,-4.61539 L -7.58688,-4.62325
 L -7.64969,-4.62325 L -7.71198,-4.61539 L -7.7728,-4.59976 L -7.83118,-4.57664 L -7.8862,-4.5464 L -7.937,-4.50949
 L -7.98277,-4.46651 L -8.0228,-4.41814 L -8.05644,-4.36511 L -8.08318,-4.3083 L -8.10258,-4.24858 L -8.11435,-4.1869
 L -8.11829,-4.12424 L -8.11829,5.91875 z
M 9.67953,4.13074 L 4.0816,4.13074 L 4.0816,0.677948 L 9.15056,0.677948 L 9.15056,-1.61005 L 4.0816,-1.61005
 L 4.0816,-4.45547 L 9.67953,-4.45547 L 9.67953,-6.74348 L 1.48108,-6.74348 L 1.48108,6.41875 L 9.67953,6.41875
 z
M 1.98108,5.91875 L 1.98108,-6.24348 L 9.17953,-6.24348 L 9.17953,-4.95547 L 4.0816,-4.95547 L 3.98792,-4.94662
 L 3.92709,-4.931 L 3.86871,-4.90788 L 3.81369,-4.87764 L 3.76289,-4.84073 L 3.71712,-4.79774 L 3.67709,-4.74937
 L 3.64345,-4.69635 L 3.61671,-4.63954 L 3.59731,-4.57982 L 3.58554,-4.51814 L 3.5816,-4.45547 L 3.5816,-1.61005
 L 3.59045,-1.51636 L 3.60608,-1.45554 L 3.6292,-1.39716 L 3.65944,-1.34213 L 3.69635,-1.29134 L 3.73933,-1.24556
 L 3.7877,-1.20554 L 3.84073,-1.17189 L 3.89754,-1.14516 L 3.95726,-1.12575 L 4.01894,-1.11398 L 4.0816,-1.11005
 L 8.65056,-1.11005 L 8.65056,0.177948 L 4.0816,0.177948 L 3.98792,0.186798 L 3.92709,0.202423 L 3.86871,0.22554
 L 3.81369,0.255783 L 3.76289,0.292694 L 3.71712,0.335678 L 3.67709,0.384048 L 3.64345,0.437073 L 3.61671,0.493881
 L 3.59731,0.553604 L 3.58554,0.61528 L 3.5816,0.677948 L 3.5816,4.13074 L 3.59045,4.22443 L 3.60608,4.28525
 L 3.6292,4.34363 L 3.65944,4.39865 L 3.69635,4.44945 L 3.73933,4.49522 L 3.7877,4.53525 L 3.84073,4.56889
 L 3.89754,4.59563 L 3.95726,4.61504 L 4.01894,4.6268 L 4.0816,4.63074 L 9.17953,4.63074 L 9.17953,5.91875
 z
" stroke="black" fill="lightgray" stroke-width="0.5"/>
</svg>
