<?xml version="1.0" standalone="no"?>
<!DOCTYPE svg PUBLIC "-//W3C//DTD SVG 1.1//EN" "http://www.w3.org/Graphics/SVG/1.1/DTD/svg11.dtd">
<svg width="68mm" height="14mm" viewBox="-34 -7 68 14" xmlns="http://www.w3.org/2000/svg" version="1.1">
<title>OpenSCAD Model</title>
<path d="
M 14.8033,6.58998 L 15.5184,6.47812 L 16.1876,6.29167 L 16.8109,6.03065 L 17.2365,5.78329 L 17.2365,6.28999
 L 20.6144,6.28999 L 20.6144,0.343567 L 20.6166,-0.00526428 L 20.6233,-0.327759 L 20.6345,-0.623932 L 20.6501,-0.893768
 L 20.6703,-1.13728 L 20.6948,-1.35445 L 20.7239,-1.54529 L 20.7586,-1.71925 L 20.8001,-1.8857 L 20.8484,-2.04462
 L 20.9036,-2.19601 L 20.9656,-2.33989 L 21.0345,-2.47624 L 21.1101,-2.60507 L 21.2427,-2.80214 L 21.3901,-2.98535
 L 21.5523,-3.15468 L 21.7293,-3.31017 L 21.9211,-3.45178 L 22.1278,-3.57953 L 22.3492,-3.69341 L 22.5837,-3.79272
 L 22.8057,-3.86871 L 22.8057,6.28999 L 26.1603,6.28999 L 26.1603,-1.09836 L 26.171,-1.50037 L 26.2031,-1.87651
 L 26.2567,-2.22676 L 26.3316,-2.55115 L 26.4279,-2.84966 L 26.5456,-3.1223 L 26.6848,-3.36905 L 26.7068,-3.39938
 L 26.819,-3.32436 L 26.9887,-3.1953 L 27.1507,-3.05591 L 27.1507,-3.87683 L 27.2054,-3.92021 L 27.4104,-4.03712
 L 27.6312,-4.12062 L 27.8678,-4.17073 L 28.1201,-4.18744 L 28.3668,-4.17508 L 28.593,-4.13803 L 28.7988,-4.07628
 L 28.984,-3.98982 L 29.1488,-3.87866 L 29.2932,-3.7428 L 29.417,-3.58223 L 29.5226,-3.39302 L 29.6119,-3.1711
 L 29.6849,-2.91647 L 29.7417,-2.62915 L 29.7823,-2.30913 L 29.8067,-1.95639 L 29.8148,-1.57097 L 29.8148,6.28999
 L 32.8685,6.28999 L 32.9463,6.23351 L 33.1113,6.14275 L 33.1694,6.11975 L 33.1694,1.38023 L 33.1113,1.35724
 L 32.9463,1.26648 L 32.7939,1.15576 L 32.6694,1.03889 L 32.6694,5.78999 L 30.3148,5.78999 L 30.3148,-1.57097
 L 30.3147,-1.5815 L 30.3066,-1.96692 L 30.3055,-1.99084 L 30.2811,-2.34358 L 30.2784,-2.37204 L 30.2378,-2.69206
 L 30.2322,-2.72615 L 30.1754,-3.01347 L 30.1655,-3.05437 L 30.0925,-3.30899 L 30.0757,-3.35776 L 29.9864,-3.57968
 L 29.9592,-3.6366 L 29.8537,-3.82581 L 29.8129,-3.88759 L 29.6891,-4.04816 L 29.6359,-4.10686 L 29.4916,-4.24272
 L 29.4284,-4.29318 L 29.2636,-4.40434 L 29.1955,-4.44292 L 29.0102,-4.52937 L 28.9425,-4.55518 L 28.7368,-4.61693
 L 28.6738,-4.63145 L 28.4476,-4.6685 L 28.3918,-4.67445 L 28.1451,-4.68681 L 28.0871,-4.68634 L 27.8347,-4.66963
 L 27.7641,-4.65988 L 27.5276,-4.60977 L 27.4544,-4.5883 L 27.2336,-4.50481 L 27.1627,-4.47148 L 27.1507,-4.46463
 L 27.1507,-5.46513 L 27.285,-5.61444 L 27.4651,-5.77901 L 27.6635,-5.92795 L 27.8778,-6.05916 L 28.1048,-6.17047
 L 28.3459,-6.26219 L 28.6021,-6.33427 L 28.8743,-6.38644 L 29.1631,-6.41817 L 29.4653,-6.42877 L 29.9227,-6.40631
 L 30.3342,-6.34096 L 30.7045,-6.2346 L 31.0361,-6.08891 L 31.3332,-5.90387 L 31.5996,-5.67795 L 31.8385,-5.40785
 L 32.05,-5.09053 L 32.233,-4.72356 L 32.3865,-4.3038 L 32.5084,-3.83083 L 32.5971,-3.30357 L 32.651,-2.72301
 L 32.6694,-2.08272 L 32.6694,-1.03889 L 32.7939,-1.15576 L 32.9463,-1.26648 L 33.1113,-1.35724 L 33.1694,-1.38023
 L 33.1694,-2.08963 L 33.1504,-2.75336 L 33.0932,-3.36841 L 32.9979,-3.93478 L 32.8645,-4.45248 L 32.693,-4.92151
 L 32.4834,-5.34186 L 32.2356,-5.71352 L 31.9505,-6.03604 L 31.6286,-6.30896 L 31.2701,-6.53224 L 30.8748,-6.7059
 L 30.4429,-6.82996 L 29.9742,-6.90439 L 29.4689,-6.9292 L 29.127,-6.91721 L 28.7998,-6.88126 L 28.4871,-6.82135
 L 28.189,-6.73746 L 27.9055,-6.62961 L 27.6366,-6.49779 L 27.3823,-6.34201 L 27.1507,-6.16823 L 27.1507,-6.2764
 L 26.9782,-6.36484 L 26.803,-6.44699 L 26.6253,-6.52283 L 26.445,-6.59236 L 26.2621,-6.65558 L 26.0766,-6.71249
 L 25.8885,-6.76311 L 25.6985,-6.80717 L 25.5074,-6.84445 L 25.315,-6.87495 L 25.1215,-6.89868 L 24.9268,-6.91563
 L 24.731,-6.9258 L 24.5339,-6.9292 L 24.149,-6.91684 L 23.7782,-6.87976 L 23.4215,-6.81798 L 23.079,-6.73146
 L 22.7506,-6.62024 L 22.4362,-6.4843 L 22.1361,-6.32365 L 21.8538,-6.14046 L 21.5931,-5.93677 L 21.3541,-5.71262
 L 21.1367,-5.46799 L 20.9409,-5.20288 L 20.7668,-4.9173 L 20.6144,-4.61124 L 20.6144,-6.62456 L 17.2365,-6.62456
 L 17.2365,-6.08521 L 16.8109,-6.33257 L 16.1876,-6.5936 L 15.5184,-6.78003 L 14.8033,-6.89191 L 14.0423,-6.9292
 L 13.2844,-6.89191 L 12.5719,-6.78003 L 11.9048,-6.5936 L 11.2831,-6.33257 L 10.7247,-6.00739 L 10.6501,-6.06097
 L 10.066,-6.37354 L 9.42952,-6.61664 L 8.74051,-6.79028 L 7.99904,-6.89447 L 7.20511,-6.9292 L 6.416,-6.89178
 L 5.67584,-6.77957 L 5.33537,-6.68744 L 5.25372,-6.71249 L 5.06563,-6.76311 L 4.87567,-6.80717 L 4.68451,-6.84445
 L 4.49219,-6.87495 L 4.29868,-6.89868 L 4.10399,-6.91563 L 3.90813,-6.9258 L 3.71107,-6.9292 L 3.32616,-6.91684
 L 2.95537,-6.87976 L 2.59871,-6.81798 L 2.25615,-6.73146 L 1.92772,-6.62024 L 1.61342,-6.4843 L 1.31323,-6.32365
 L 1.03091,-6.14046 L 0.770248,-5.93677 L 0.531235,-5.71262 L 0.313843,-5.46799 L 0.118103,-5.20288 L -0.0559692,-4.9173
 L -0.208435,-4.61124 L -0.208435,-6.62456 L -2.08855,-6.62456 L -2.2749,-6.71748 L -2.6472,-6.8351 L -3.06163,-6.90567
 L -3.51817,-6.9292 L -3.7565,-6.9212 L -3.98399,-6.89726 L -4.20067,-6.85735 L -4.40651,-6.80147 L -4.60153,-6.72961
 L -4.78572,-6.6418 L -4.95909,-6.53802 L -5.12282,-6.41757 L -5.27809,-6.27974 L -5.42488,-6.12451 L -5.56322,-5.95192
 L -5.69308,-5.76193 L -5.81448,-5.55458 L -5.92741,-5.32983 L -5.97731,-5.51642 L -6.0479,-5.69476 L -6.13921,-5.8649
 L -6.25121,-6.02682 L -6.38393,-6.18051 L -6.53734,-6.32597 L -6.71146,-6.46323 L -6.89871,-6.58685 L -7.0916,-6.69145
 L -7.29015,-6.77704 L -7.49434,-6.84361 L -7.70419,-6.89116 L -7.91968,-6.91968 L -8.14082,-6.9292 L -8.36172,-6.92015
 L -8.57652,-6.89302 L -8.7852,-6.84782 L -8.98776,-6.78453 L -9.18422,-6.70316 L -9.37456,-6.60371 L -9.55879,-6.48618
 L -9.73289,-6.35313 L -9.89288,-6.20718 L -9.9624,-6.13145 L -10.2043,-6.2766 L -10.481,-6.39369 L -10.481,-6.62456
 L -11.1501,-6.62456 L -11.391,-6.69426 L -12.0991,-6.82478 L -12.8836,-6.90309 L -13.7445,-6.9292 L -14.1106,-6.9247
 L -14.4711,-6.91124 L -14.8258,-6.88879 L -15.175,-6.85736 L -15.5184,-6.81696 L -15.8563,-6.76758 L -16.1885,-6.70921
 L -16.5171,-6.6414 L -16.8444,-6.56366 L -17.1702,-6.47601 L -17.4946,-6.37843 L -17.7986,-6.27724 L -17.8938,-6.33257
 L -18.5172,-6.5936 L -19.1863,-6.78003 L -19.9014,-6.89191 L -20.6624,-6.9292 L -21.4203,-6.89191 L -22.1328,-6.78003
 L -22.8,-6.5936 L -23.4217,-6.33257 L -23.8062,-6.10861 L -24.0862,-6.2766 L -24.6413,-6.51154 L -25.2729,-6.69426
 L -25.981,-6.82478 L -26.7655,-6.90309 L -27.6264,-6.9292 L -27.9925,-6.9247 L -28.3529,-6.91124 L -28.7077,-6.88879
 L -29.0569,-6.85736 L -29.4003,-6.81696 L -29.7382,-6.76758 L -30.0704,-6.70921 L -30.399,-6.6414 L -30.7263,-6.56366
 L -31.0521,-6.47601 L -31.3765,-6.37843 L -31.6996,-6.27092 L -32.0212,-6.1535 L -32.3414,-6.02615 L -32.3414,-3.14296
 L -31.991,-3.32718 L -31.6445,-3.49654 L -31.3021,-3.65103 L -30.9637,-3.79065 L -30.6293,-3.91539 L -30.2988,-4.02527
 L -29.9724,-4.12029 L -29.6465,-4.2016 L -29.3174,-4.27042 L -28.9853,-4.32671 L -28.6502,-4.3705 L -28.312,-4.40176
 L -27.9707,-4.42053 L -27.6264,-4.42679 L -27.3085,-4.4182 L -27.0134,-4.39243 L -26.741,-4.34949 L -26.4916,-4.28935
 L -26.2649,-4.21204 L -26.0611,-4.11754 L -25.88,-4.00587 L -25.8093,-3.94829 L -26.1051,-3.29771 L -26.3365,-2.59042
 L -26.4198,-2.20728 L -27.6264,-2.20728 L -28.4699,-2.18526 L -29.2479,-2.11923 L -29.9605,-2.00919 L -30.6078,-1.85512
 L -31.1896,-1.65703 L -31.7061,-1.41492 L -32.1571,-1.1288 L -32.5047,-0.831543 L -32.4355,-0.722626 L -32.3553,-0.552185
 L -32.2971,-0.373032 L -32.2887,-0.328995 L -32.1918,-0.441147 L -31.8592,-0.725647 L -31.4651,-0.975647 L -31.0024,-1.19258
 L -30.4689,-1.37422 L -29.8644,-1.51811 L -29.1887,-1.62245 L -28.4421,-1.68581 L -27.6198,-1.70728 L -26.5167,-1.70728
 L -26.6009,-1.01704 L -26.6294,-0.270172 L -26.635,-0.270172 L -26.6446,-0.270081 L -27.1614,-0.260193 L -27.1833,-0.259293
 L -27.6536,-0.229645 L -27.6801,-0.227264 L -28.1038,-0.177841 L -28.1361,-0.173004 L -28.5132,-0.103806 L -28.5529,-0.0948334
 L -28.8835,-0.00587463 L -28.9323,0.00999451 L -29.2163,0.118713 L -29.2755,0.14595 L -29.5129,0.274445 L -29.5792,0.317383
 L -29.778,0.469833 L -29.8397,0.525894 L -30.0079,0.706573 L -30.0595,0.772217 L -30.1971,0.98114 L -30.2353,1.05049
 L -30.3424,1.28764 L -30.3671,1.35493 L -30.4436,1.62032 L -30.4571,1.68155 L -30.503,1.97517 L -30.5084,2.02864
 L -30.5237,2.35048 L -30.5238,2.39597 L -30.5132,2.63902 L -30.5089,2.6861 L -30.4772,2.91455 L -30.4673,2.96585
 L -30.4144,3.17972 L -30.3977,3.2338 L -30.3236,3.43309 L -30.2993,3.4881 L -30.204,3.67281 L -30.1723,3.72601
 L -30.0558,3.89612 L -30.0177,3.94501 L -29.8801,4.10054 L -29.8367,4.14388 L -29.681,4.28154 L -29.6315,4.32001
 L -29.4607,4.43648 L -29.4071,4.46831 L -29.2212,4.5636 L -29.1662,4.58775 L -28.9653,4.66188 L -28.9112,4.67841
 L -28.6952,4.73134 L -28.6443,4.74106 L -28.4133,4.77283 L -28.3667,4.77702 L -28.1205,4.78761 L -28.0713,4.78729
 L -27.7014,4.76671 L -27.6412,4.75967 L -27.2958,4.69791 L -27.2311,4.68182 L -26.9102,4.57889 L -26.8443,4.55246
 L -26.5479,4.40836 L -26.485,4.37189 L -26.213,4.1866 L -26.157,4.14227 L -25.9095,3.9158 L -25.863,3.86703
 L -25.7549,3.73738 L -25.4441,4.2516 L -25.3609,4.3577 L -25.3661,4.35822 L -25.4273,4.37212 L -25.4863,4.39359
 L -25.5422,4.42227 L -25.594,4.45775 L -25.641,4.49942 L -25.6823,4.54666 L -25.8531,4.76842 L -26.0248,4.9612
 L -26.2087,5.13968 L -26.4047,5.30406 L -26.6137,5.45479 L -26.8355,5.5918 L -27.0714,5.71558 L -27.3177,5.82422
 L -27.5717,5.91634 L -27.8329,5.99173 L -28.1026,6.05069 L -28.3809,6.09299 L -28.6677,6.1185 L -28.9611,6.127
 L -29.532,6.10472 L -30.0564,6.03905 L -30.5367,5.93127 L -30.9736,5.78288 L -31.3698,5.59462 L -31.7272,5.36691
 L -32.0484,5.09906 L -32.33,4.79509 L -32.5679,4.45915 L -32.7635,4.08871 L -32.9176,3.68053 L -33.0293,3.23238
 L -33.0976,2.74216 L -33.1206,2.21117 L -33.0931,1.63904 L -33.0432,1.31979 L -33.1113,1.35724 L -33.2865,1.42657
 L -33.4689,1.47342 L -33.5754,1.48688 L -33.5913,1.58826 L -33.6212,2.20999 L -33.5961,2.78761 L -33.5209,3.32758
 L -33.3956,3.82988 L -33.2203,4.29451 L -32.9948,4.72148 L -32.7191,5.11079 L -32.3934,5.46243 L -32.0227,5.77147
 L -31.6123,6.03296 L -31.1621,6.24692 L -30.6721,6.41331 L -30.1424,6.53218 L -29.5729,6.6035 L -28.9637,6.62727
 L -28.6383,6.61786 L -28.3209,6.58963 L -28.0116,6.54259 L -27.7102,6.47673 L -27.4169,6.39204 L -27.1315,6.28854
 L -26.8541,6.16623 L -26.5878,6.02646 L -26.3356,5.87068 L -26.0974,5.6989 L -25.8735,5.51112 L -25.6636,5.30736
 L -25.4678,5.08757 L -25.2862,4.85179 L -25.2862,6.28999 L -22.804,6.28999 L -22.8,6.29167 L -22.1328,6.47812
 L -21.4203,6.58998 L -20.6624,6.62727 L -19.9014,6.58998 L -19.1863,6.47812 L -18.5172,6.29167 L -17.8938,6.03065
 L -17.8103,5.98209 L -17.7304,6.03296 L -17.2802,6.24692 L -16.7903,6.41331 L -16.2605,6.53218 L -15.691,6.6035
 L -15.0818,6.62727 L -14.7564,6.61786 L -14.439,6.58963 L -14.1297,6.54259 L -13.8283,6.47673 L -13.535,6.39204
 L -13.2496,6.28854 L -12.9722,6.16623 L -12.9365,6.14749 L -12.9365,6.28999 L -5.38562,6.28999 L -5.38562,-1.99631
 L -5.38092,-2.38252 L -5.36681,-2.73111 L -5.34329,-3.04205 L -5.31035,-3.31537 L -5.26802,-3.55104 L -5.21626,-3.74908
 L -5.15511,-3.90948 L -5.08218,-4.04095 L -4.99515,-4.15221 L -4.89398,-4.24323 L -4.77869,-4.31401 L -4.64929,-4.36458
 L -4.50577,-4.39491 L -4.34811,-4.40503 L -4.19075,-4.39516 L -4.04797,-4.36551 L -3.91978,-4.3161 L -3.80617,-4.24693
 L -3.70715,-4.158 L -3.62271,-4.04932 L -3.58633,-3.98242 L -3.58633,6.28999 L -0.208435,6.28999 L -0.208435,0.343567
 L -0.206192,-0.00526428 L -0.199493,-0.327759 L -0.188324,-0.623932 L -0.172684,-0.893768 L -0.152573,-1.13728 L -0.127991,-1.35445
 L -0.0989532,-1.54529 L -0.0642548,-1.71925 L -0.0227356,-1.8857 L 0.0256042,-2.04462 L 0.08078,-2.19601 L 0.142776,-2.33989
 L 0.211609,-2.47624 L 0.287277,-2.60507 L 0.419846,-2.80214 L 0.567245,-2.98535 L 0.729446,-3.15468 L 0.906464,-3.31017
 L 1.0983,-3.45178 L 1.30495,-3.57953 L 1.5264,-3.69341 L 1.76085,-3.79272 L 1.84727,-3.82231 L 1.59891,-3.28178
 L 1.3634,-2.56874 L 1.19519,-1.80156 L 1.09427,-0.980286 L 1.06062,-0.104889 L 1.09557,0.796021 L 1.20036,1.6346
 L 1.37505,2.41084 L 1.61961,3.12474 L 1.93404,3.77631 L 2.31834,4.36554 L 2.77252,4.89243 L 3.29282,5.35269
 L 3.87544,5.74214 L 4.52042,6.06079 L 5.22774,6.30862 L 5.99741,6.48566 L 6.82942,6.59187 L 7.72377,6.62727
 L 8.10962,6.62233 L 8.48981,6.60751 L 8.86436,6.58281 L 9.23326,6.54823 L 9.59651,6.50377 L 9.95412,6.44942
 L 10.3061,6.38519 L 10.6543,6.31108 L 11.0006,6.2271 L 11.345,6.13322 L 11.4509,6.10114 L 11.9048,6.29167
 L 12.5719,6.47812 L 13.2844,6.58998 L 14.0423,6.62727 z
M -31.8414,-5.68686 L -31.5346,-5.79886 L -31.2254,-5.90176 L -30.9153,-5.99506 L -30.6038,-6.07884 L -30.2905,-6.15327
 L -29.9768,-6.218 L -29.6588,-6.27385 L -29.3349,-6.3212 L -29.005,-6.36 L -28.6697,-6.3902 L -28.3275,-6.41185
 L -27.9805,-6.4248 L -27.6308,-6.42911 L -26.7979,-6.40384 L -26.0512,-6.32932 L -25.388,-6.20705 L -24.8089,-6.03952
 L -24.3134,-5.82979 L -24.2576,-5.79634 L -24.5289,-5.58679 L -25.0144,-5.10204 L -25.4441,-4.55353 L -25.5485,-4.38071
 L -25.5642,-4.39352 L -25.6175,-4.43143 L -25.7985,-4.54309 L -25.8508,-4.57117 L -26.0546,-4.66566 L -26.1035,-4.68526
 L -26.3301,-4.76257 L -26.3744,-4.77544 L -26.6239,-4.83557 L -26.6632,-4.84338 L -26.9355,-4.88632 L -26.9698,-4.89053
 L -27.265,-4.91631 L -27.295,-4.91801 L -27.6129,-4.92661 L -27.6355,-4.92671 L -27.9798,-4.92046 L -27.9982,-4.91978
 L -28.3394,-4.90102 L -28.358,-4.89964 L -28.6962,-4.86838 L -28.715,-4.86629 L -29.0501,-4.82249 L -29.0689,-4.81967
 L -29.401,-4.76338 L -29.4198,-4.75983 L -29.7488,-4.69101 L -29.7675,-4.68674 L -30.0935,-4.60542 L -30.1122,-4.60036
 L -30.4386,-4.50534 L -30.4566,-4.49973 L -30.787,-4.38985 L -30.804,-4.38387 L -31.1384,-4.25912 L -31.1544,-4.25285
 L -31.4928,-4.11324 L -31.5077,-4.1068 L -31.8414,-3.95625 z
M -16.2991,-5.10204 L -16.7848,-5.58679 L -17.2352,-5.93433 L -17.0334,-5.99506 L -16.7219,-6.07884 L -16.4086,-6.15327
 L -16.0949,-6.218 L -15.7764,-6.27394 L -15.4535,-6.32114 L -15.1231,-6.36 L -14.7878,-6.3902 L -14.4456,-6.41185
 L -14.0986,-6.4248 L -13.7489,-6.42911 L -12.9365,-6.40445 L -12.9365,-4.86786 L -13.0536,-4.88632 L -13.088,-4.89053
 L -13.3831,-4.91631 L -13.4131,-4.91801 L -13.731,-4.92661 L -13.7536,-4.92671 L -14.0979,-4.92046 L -14.1163,-4.91978
 L -14.4576,-4.90102 L -14.4761,-4.89964 L -14.8143,-4.86838 L -14.8331,-4.86629 L -15.1682,-4.82249 L -15.187,-4.81967
 L -15.5191,-4.76338 L -15.5379,-4.75983 L -15.8669,-4.69101 L -15.8856,-4.68674 L -15.9594,-4.66832 z
M -0.580032,-1.97186 L -0.619217,-2.86003 L -0.684509,-3.64658 L -0.775925,-4.33151 L -0.893448,-4.91483 L -1.03709,-5.39651
 L -1.20686,-5.7766 L -1.41069,-6.08238 L -1.45078,-6.12456 L -0.708435,-6.12456 L -0.708435,-4.61124 L -0.701553,-4.52855
 L -0.687302,-4.46739 L -0.665497,-4.40851 L -0.636475,-4.35283 L -0.600723,-4.30121 L -0.558762,-4.25449 L -0.511292,-4.21339
 L -0.459045,-4.17857 L -0.402847,-4.15057 L -0.343567,-4.12984 L -0.282166,-4.1167 L -0.219604,-4.11136 L -0.156876,-4.11391
 L -0.0949402,-4.12428 L -0.0348053,-4.14235 L 0.0225983,-4.16782 L 0.0763397,-4.20026 L 0.12561,-4.2392 L 0.169601,-4.284
 L 0.207642,-4.33395 L 0.239105,-4.38829 L 0.382034,-4.67522 L 0.533508,-4.92372 L 0.702621,-5.15276 L 0.889908,-5.36351
 L 1.09584,-5.55664 L 1.32147,-5.73296 L 1.56776,-5.89278 L 1.83104,-6.03366 L 2.10735,-6.15317 L 2.39789,-6.25156
 L 2.7027,-6.32855 L 3.02304,-6.38403 L 3.35904,-6.41763 L 3.71478,-6.42906 L 3.89079,-6.42603 L 4.06953,-6.41675
 L 4.24654,-6.40134 L 4.42261,-6.37975 L 4.45145,-6.37517 L 4.34233,-6.33069 L 3.74898,-5.99402 L 3.20457,-5.58255
 L 2.70911,-5.09625 L 2.27176,-4.54555 L 2.21014,-4.44485 L 2.16498,-4.43584 L 2.1335,-4.42848 L 1.87694,-4.35973
 L 1.84442,-4.34982 L 1.59891,-4.26578 L 1.56581,-4.25311 L 1.33136,-4.15379 L 1.29774,-4.13806 L 1.07629,-4.02419
 L 1.04204,-4.00482 L 0.835388,-3.87708 L 0.801331,-3.85405 L 0.609497,-3.71243 L 0.576492,-3.68582 L 0.399475,-3.53033
 L 0.368378,-3.50055 L 0.206177,-3.33122 L 0.177673,-3.29877 L 0.0302734,-3.11555 L 0.00497437,-3.08122 L -0.127594,-2.88416
 L -0.14386,-2.85829 L -0.219528,-2.72946 L -0.234741,-2.70157 L -0.303574,-2.56522 L -0.316406,-2.53775 L -0.378403,-2.39388
 L -0.388992,-2.36722 L -0.444168,-2.21582 L -0.452759,-2.19012 L -0.501099,-2.0312 L -0.507874,-2.00671 L -0.549393,-1.84027
 L -0.554596,-1.81706 L -0.576523,-1.70705 z
M -7.61787,5.78999 L -7.61787,-1.99631 L -7.6179,-2.0024 L -7.6226,-2.38861 L -7.62299,-2.40276 L -7.6371,-2.75134
 L -7.63811,-2.76881 L -7.66162,-3.07976 L -7.66379,-3.10188 L -7.69673,-3.3752 L -7.70102,-3.40376 L -7.74335,-3.63943
 L -7.75172,-3.67746 L -7.80348,-3.8755 L -7.82004,-3.92722 L -7.8812,-4.08762 L -7.91115,-4.15201 L -7.98407,-4.28348
 L -8.02751,-4.34904 L -8.11455,-4.4603 L -8.17392,-4.52391 L -8.27509,-4.61493 L -8.3479,-4.66933 L -8.4632,-4.74011
 L -8.54282,-4.77971 L -8.67221,-4.83028 L -8.75081,-4.85378 L -8.75858,-4.85541 L -8.98558,-5.2435 L -9.32352,-5.65012
 L -9.55006,-5.84126 L -9.53951,-5.85277 L -9.412,-5.96909 L -9.27208,-6.076 L -9.12386,-6.17056 L -8.97241,-6.24968
 L -8.81717,-6.314 L -8.65733,-6.36394 L -8.49225,-6.39969 L -8.32013,-6.42143 L -8.14133,-6.42876 L -7.9633,-6.42108
 L -7.79239,-6.39847 L -7.62733,-6.36107 L -7.46692,-6.30878 L -7.3102,-6.24121 L -7.15613,-6.15765 L -7.00441,-6.0575
 L -6.86479,-5.94743 L -6.74606,-5.83487 L -6.6472,-5.72037 L -6.56644,-5.60362 L -6.50212,-5.48378 L -6.4529,-5.35938
 L -6.41045,-5.20067 L -6.38516,-5.12869 L -6.35635,-5.07291 L -6.32077,-5.02116 L -6.27898,-4.9743 L -6.23164,-4.93304
 L -6.17952,-4.89804 L -6.12341,-4.86984 L -6.06421,-4.84891 L -6.00285,-4.83556 L -5.94031,-4.83 L -5.87756,-4.83232
 L -5.81561,-4.8425 L -5.7554,-4.86035 L -5.69792,-4.8856 L -5.64406,-4.91788 L -5.59467,-4.95663 L -5.55051,-5.00128
 L -5.5123,-5.05112 L -5.48064,-5.10535 L -5.37488,-5.31583 L -5.27046,-5.49416 L -5.16119,-5.65402 L -5.04747,-5.7959
 L -4.92979,-5.92033 L -4.80807,-6.02838 L -4.68193,-6.1212 L -4.54913,-6.20068 L -4.4071,-6.2684 L -4.25443,-6.32465
 L -4.08965,-6.36938 L -3.91237,-6.40204 L -3.722,-6.42207 L -3.58633,-6.42662 L -3.58633,-4.69846 L -3.65979,-4.74318
 L -3.73996,-4.78265 L -3.86815,-4.83206 L -3.94632,-4.85507 L -4.0891,-4.88472 L -4.15944,-4.89418 L -4.3168,-4.90405
 L -4.38013,-4.90401 L -4.53778,-4.89389 L -4.60916,-4.88411 L -4.75269,-4.85378 L -4.83128,-4.83028 L -4.96068,-4.77971
 L -5.0403,-4.74011 L -5.15559,-4.66933 L -5.22841,-4.61493 L -5.32957,-4.52391 L -5.38895,-4.4603 L -5.47598,-4.34904
 L -5.51942,-4.28348 L -5.59235,-4.15201 L -5.6223,-4.08762 L -5.68346,-3.92722 L -5.70001,-3.8755 L -5.75177,-3.67746
 L -5.76015,-3.63943 L -5.80247,-3.40376 L -5.80676,-3.3752 L -5.83971,-3.10188 L -5.84187,-3.07976 L -5.86539,-2.76881
 L -5.86639,-2.75134 L -5.88051,-2.40276 L -5.88089,-2.38861 L -5.88559,-2.0024 L -5.88562,-1.99631 L -5.88562,5.78999
 z
M 9.00902,-4.3714 L 8.95157,-4.40488 L 8.69807,-4.53087 L 8.64116,-4.5549 L 8.36201,-4.65289 L 8.3083,-4.66844
 L 8.00352,-4.73843 L 7.95465,-4.74713 L 7.62421,-4.78912 L 7.58083,-4.79272 L 7.22476,-4.80673 L 7.18274,-4.80661
 L 6.85971,-4.79214 L 6.81131,-4.78761 L 6.50758,-4.74419 L 6.45511,-4.7338 L 6.32788,-4.70143 L 6.32788,-6.2764
 L 6.18286,-6.35071 L 6.46552,-6.39357 L 7.20593,-6.42868 L 7.95329,-6.39598 L 8.64438,-6.29887 L 9.27872,-6.13902
 L 9.85802,-5.91777 L 10.2989,-5.68184 L 10.1758,-5.58679 L 9.69035,-5.10204 L 9.26067,-4.55353 L 9.1095,-4.30348
 z
M -18.5546,-3.70018 L -18.5967,-3.75011 L -18.8268,-3.98958 L -18.8802,-4.03772 L -19.1319,-4.23366 L -19.1956,-4.27583
 L -19.4689,-4.42822 L -19.5393,-4.46059 L -19.8343,-4.56944 L -19.9064,-4.59006 L -20.2231,-4.65536 L -20.2919,-4.66463
 L -20.6302,-4.6864 L -20.6948,-4.68639 L -21.0301,-4.66461 L -21.0994,-4.6552 L -21.4135,-4.58989 L -21.4859,-4.56905
 L -21.7789,-4.46019 L -21.8493,-4.42761 L -22.121,-4.27522 L -22.1844,-4.23299 L -22.3297,-4.11938 L -22.3475,-4.18338
 L -22.5815,-4.75459 L -22.8675,-5.2435 L -23.2054,-5.65012 L -23.3665,-5.78606 L -23.1981,-5.88416 L -22.6353,-6.12047
 L -22.0264,-6.29063 L -21.3691,-6.39383 L -20.6624,-6.4286 L -19.9524,-6.3938 L -19.2925,-6.29056 L -18.6815,-6.12033
 L -18.458,-6.02673 L -18.4595,-6.02615 L -18.4595,-3.57095 z
M 13.3356,6.0919 L 12.6784,5.98872 L 12.1972,5.85423 L 12.367,5.79234 L 12.7039,5.65895 L 12.7039,4.0407
 L 12.8555,4.12569 L 12.9258,4.15826 L 13.2188,4.26712 L 13.2912,4.28796 L 13.6053,4.35327 L 13.6747,4.36269
 L 14.0099,4.38446 L 14.0745,4.38448 L 14.4128,4.3627 L 14.4817,4.35344 L 14.7983,4.28813 L 14.8704,4.26752
 L 15.1654,4.15866 L 15.2358,4.1263 L 15.5091,3.97391 L 15.5728,3.93173 L 15.8245,3.73579 L 15.878,3.68764
 L 16.108,3.44817 L 16.1501,3.39827 L 16.3585,3.11525 L 16.3902,3.06642 L 16.5737,2.74458 L 16.5977,2.69684
 L 16.753,2.34085 L 16.7701,2.29576 L 16.8971,1.90564 L 16.9087,1.86426 L 17.0075,1.44002 L 17.0147,1.40265
 L 17.0853,0.94426 L 17.0893,0.911026 L 17.1316,0.418518 L 17.1333,0.389069 L 17.1474,-0.137558 L 17.1474,-0.164352
 L 17.1333,-0.690994 L 17.1316,-0.720444 L 17.0893,-1.21295 L 17.0853,-1.24619 L 17.0147,-1.70456 L 17.0075,-1.74191
 L 16.9087,-2.16617 L 16.8971,-2.20757 L 16.7701,-2.59767 L 16.753,-2.64276 L 16.5977,-2.99875 L 16.5737,-3.04649
 L 16.3902,-3.36835 L 16.3585,-3.41718 L 16.1501,-3.7002 L 16.108,-3.75009 L 15.878,-3.98956 L 15.8245,-4.03772
 L 15.5728,-4.23366 L 15.5091,-4.27583 L 15.2358,-4.42822 L 15.1654,-4.46059 L 14.8704,-4.56944 L 14.7983,-4.59006
 L 14.4817,-4.65536 L 14.4128,-4.66463 L 14.0745,-4.6864 L 14.0099,-4.68639 L 13.6747,-4.66461 L 13.6053,-4.6552
 L 13.2912,-4.58989 L 13.2188,-4.56905 L 12.9258,-4.46019 L 12.8555,-4.42761 L 12.5837,-4.27522 L 12.5203,-4.23299
 L 12.4261,-4.15938 L 12.0813,-4.71297 L 11.6608,-5.22749 L 11.1817,-5.67897 L 11.1694,-5.68777 L 11.5066,-5.88416
 L 12.0695,-6.12047 L 12.6784,-6.29063 L 13.3356,-6.39383 L 14.0423,-6.4286 L 14.7523,-6.3938 L 15.4123,-6.29056
 L 16.0233,-6.12033 L 16.5877,-5.88394 L 17.1089,-5.58105 L 17.2365,-5.48257 L 17.2365,5.18065 L 17.1088,5.27917
 L 16.5877,5.58203 L 16.0233,5.81839 L 15.4122,5.98865 L 14.7524,6.09187 L 14.0423,6.12668 z
M 5.205,-4.28352 L 5.17969,-4.29216 L 4.96429,-4.35927 L 4.93988,-4.3662 L 4.71861,-4.42299 L 4.6945,-4.42854
 L 4.46736,-4.47501 L 4.44377,-4.47925 L 4.21074,-4.51538 L 4.18785,-4.51839 L 3.94896,-4.5442 L 3.9268,-4.54611
 L 3.68202,-4.5616 L 3.66074,-4.56248 L 3.4101,-4.56764 L 3.38713,-4.56758 L 3.08632,-4.55995 L 3.05957,-4.55856
 L 2.91125,-4.54683 L 3.08136,-4.76102 L 3.53181,-5.20314 L 4.02425,-5.57532 L 4.56105,-5.87991 L 5.1449,-6.11792
 L 5.32399,-6.16638 L 5.45049,-6.12267 L 5.61417,-6.05956 L 5.77573,-5.99062 L 5.82788,-5.96616 L 5.82788,-4.53247
 L 5.79472,-4.51743 L 5.54886,-4.38719 L 5.49547,-4.35448 L 5.32895,-4.23749 z
M 26.1603,-6.16171 L 26.2736,-6.12257 L 26.437,-6.05956 L 26.5988,-5.99054 L 26.6507,-5.96616 L 26.6507,-5.63644
 L 26.5598,-5.51308 L 26.4059,-5.25652 L 26.2728,-4.98021 L 26.1603,-4.68417 z
M 25.7627,-4.3662 L 25.5415,-4.42299 L 25.5173,-4.42854 L 25.2902,-4.47501 L 25.2666,-4.47925 L 25.0336,-4.51538
 L 25.0107,-4.51839 L 24.7718,-4.5442 L 24.7496,-4.54611 L 24.5049,-4.5616 L 24.4836,-4.56248 L 24.2329,-4.56764
 L 24.21,-4.56758 L 23.9092,-4.55995 L 23.8824,-4.55856 L 23.5927,-4.53564 L 23.5642,-4.53256 L 23.3057,-4.49712
 L 23.3057,-6.12456 L 25.6603,-6.12456 L 25.6603,-4.68417 L 25.6652,-4.61459 L 25.6778,-4.55309 L 25.698,-4.49364
 L 25.7256,-4.43721 L 25.7599,-4.38466 L 25.7798,-4.36136 z
M -10.9043,5.78999 L -10.9043,4.85179 L -10.9067,4.80307 L -10.9167,4.74109 L -10.9345,4.68085 L -10.9596,4.62331
 L -10.9917,4.56937 L -11.0304,4.51988 L -11.0749,4.47563 L -11.1247,4.43732 L -11.1788,4.40553 L -11.2365,4.38078
 L -11.2969,4.36346 L -11.3589,4.35385 L -11.4217,4.3521 L -11.4842,4.35822 L -11.5454,4.37212 L -11.6044,4.39359
 L -11.6603,4.42227 L -11.7121,4.45775 L -11.7591,4.49942 L -11.8004,4.54666 L -11.9713,4.76842 L -12.1429,4.9612
 L -12.3268,5.13968 L -12.4365,5.23169 L -12.4365,4.25839 L -12.3311,4.18661 L -12.2751,4.14227 L -12.0276,3.9158
 L -11.9811,3.86703 L -11.758,3.59941 L -11.7215,3.54962 L -11.5258,3.24504 L -11.4976,3.19511 L -11.3319,2.85782
 L -11.3112,2.80937 L -11.1757,2.43938 L -11.1615,2.39403 L -11.0561,1.99133 L -11.0471,1.94992 L -10.9719,1.5145
 L -10.9669,1.47733 L -10.9217,1.0092 L -10.9196,0.976212 L -10.9046,0.475388 L -10.9043,0.460358 L -10.9043,0.229828
 L -10.9132,0.136139 L -10.9288,0.0753174 L -10.9519,0.0169373 L -10.9822,-0.0380859 L -11.0191,-0.0888824 L -11.0621,-0.134659
 L -11.1104,-0.174683 L -11.1635,-0.208328 L -11.2203,-0.235062 L -11.28,-0.254471 L -11.3417,-0.266235 L -11.4043,-0.270172
 L -12.4365,-0.270172 L -12.4365,-1.70728 L -11.4043,-1.70728 L -11.3106,-1.71613 L -11.2498,-1.73175 L -11.1914,-1.75487
 L -11.1364,-1.78511 L -11.0856,-1.82202 L -11.0398,-1.86501 L -10.9998,-1.91338 L -10.9662,-1.9664 L -10.9394,-2.02321
 L -10.92,-2.08293 L -10.9083,-2.14461 L -10.9043,-2.20728 L -10.9043,-2.7664 L -10.905,-2.7932 L -10.9172,-3.019
 L -10.9238,-3.07768 L -10.9602,-3.28723 L -10.9757,-3.3513 L -11.0363,-3.54462 L -11.0625,-3.61108 L -11.1473,-3.78815
 L -11.1844,-3.85277 L -11.2935,-4.0136 L -11.3397,-4.07188 L -11.473,-4.21646 L -11.5248,-4.26518 L -11.6823,-4.39352
 L -11.7356,-4.43143 L -11.9166,-4.54309 L -11.9689,-4.57117 L -12.1727,-4.66566 L -12.2216,-4.68526 L -12.4365,-4.75858
 L -12.4365,-6.12456 L -11.221,-6.12456 L -10.981,-6.05513 L -10.981,-5.2836 L -10.9785,-5.23309 L -10.9682,-5.17114
 L -10.9503,-5.11098 L -10.925,-5.05351 L -10.8926,-4.99969 L -10.8538,-4.95035 L -10.8091,-4.90627 L -10.7592,-4.86812
 L -10.7049,-4.83653 L -10.6471,-4.812 L -10.5867,-4.79489 L -10.5246,-4.78551 L -10.4619,-4.78397 L -10.3994,-4.79031
 L -10.3382,-4.80443 L -10.2793,-4.82611 L -10.2235,-4.85501 L -10.1718,-4.89066 L -10.125,-4.93251 L -10.0838,-4.97989
 L -10.0489,-5.03207 L -10.0208,-5.08821 L -9.93927,-5.28023 L -9.85504,-5.44102 L -9.85365,-5.44319 L -9.67975,-5.29648
 L -9.39641,-4.95555 L -9.3593,-4.89212 L -9.4144,-4.88472 L -9.55719,-4.85507 L -9.63535,-4.83206 L -9.76355,-4.78265
 L -9.84372,-4.74319 L -9.95735,-4.67403 L -10.0314,-4.619 L -10.1304,-4.53008 L -10.1912,-4.46483 L -10.2757,-4.35614
 L -10.3201,-4.28831 L -10.39,-4.15987 L -10.42,-4.0936 L -10.4781,-3.93579 L -10.494,-3.88422 L -10.5432,-3.68738
 L -10.5509,-3.65024 L -10.5912,-3.41434 L -10.5951,-3.38684 L -10.6263,-3.11191 L -10.6283,-3.09087 L -10.6506,-2.77689
 L -10.6515,-2.76039 L -10.6649,-2.40736 L -10.6653,-2.39409 L -10.6697,-2.00201 L -10.6698,-1.99631 L -10.6698,5.78999
 z
M -2.83372,5.78999 L -2.83372,-1.99631 L -2.83376,-2.00201 L -2.83823,-2.39409 L -2.83856,-2.40736 L -2.85197,-2.76039
 L -2.85287,-2.77695 L -2.87524,-3.09093 L -2.87718,-3.11194 L -2.90848,-3.38687 L -2.9124,-3.41443 L -2.95265,-3.65033
 L -2.96045,-3.68745 L -3.00964,-3.88429 L -3.02554,-3.93591 L -3.08368,-4.09372 L -3.08633,-4.09956 L -3.08633,-6.12456
 L -2.2063,-6.12456 L -1.98845,-5.96445 L -1.80283,-5.7692 L -1.64622,-5.53424 L -1.5069,-5.22232 L -1.37915,-4.79391
 L -1.26933,-4.24886 L -1.18178,-3.59288 L -1.11829,-2.82812 L -1.07988,-1.95755 L -1.06697,-0.978958 L -1.06697,5.78999
 z
M 17.7365,5.78999 L 17.7365,5.42638 L 17.9199,5.28487 L 18.4056,4.80011 L 18.8353,4.2516 L 19.1989,3.65016
 L 19.4964,2.99579 L 19.7278,2.2885 L 19.8931,1.52827 L 19.9923,0.715118 L 20.0253,-0.150955 L 19.9923,-1.01704
 L 19.8931,-1.83018 L 19.7278,-2.59042 L 19.4964,-3.29771 L 19.1989,-3.95209 L 18.8353,-4.55353 L 18.4056,-5.10204
 L 17.9199,-5.58679 L 17.7365,-5.7283 L 17.7365,-6.12456 L 20.1144,-6.12456 L 20.1144,-4.61124 L 20.1213,-4.52852
 L 20.1355,-4.46738 L 20.1573,-4.40849 L 20.1864,-4.35281 L 20.2221,-4.30119 L 20.2641,-4.25447 L 20.3116,-4.21338
 L 20.3638,-4.17856 L 20.42,-4.15057 L 20.4793,-4.12984 L 20.5407,-4.1167 L 20.6032,-4.11136 L 20.666,-4.11391
 L 20.7279,-4.1243 L 20.788,-4.14236 L 20.8454,-4.16782 L 20.8992,-4.20027 L 20.9485,-4.23921 L 20.9924,-4.28401
 L 21.0305,-4.33397 L 21.062,-4.38831 L 21.2049,-4.67525 L 21.3564,-4.92374 L 21.5255,-5.15276 L 21.7127,-5.36353
 L 21.9187,-5.55664 L 22.1444,-5.733 L 22.3905,-5.89275 L 22.6537,-6.03358 L 22.8057,-6.09932 L 22.8057,-4.38811
 L 22.6998,-4.35973 L 22.6673,-4.34982 L 22.4218,-4.26578 L 22.3887,-4.25311 L 22.1542,-4.15379 L 22.1206,-4.13806
 L 21.8991,-4.02419 L 21.8649,-4.00482 L 21.6582,-3.87708 L 21.6242,-3.85405 L 21.4323,-3.71243 L 21.3993,-3.68582
 L 21.2223,-3.53033 L 21.1912,-3.50056 L 21.029,-3.33124 L 21.0005,-3.29875 L 20.8531,-3.11554 L 20.8278,-3.08122
 L 20.6953,-2.88416 L 20.679,-2.85829 L 20.6033,-2.72946 L 20.5881,-2.70157 L 20.5193,-2.56522 L 20.5064,-2.53775
 L 20.4444,-2.39388 L 20.4339,-2.36726 L 20.3787,-2.21587 L 20.3701,-2.19012 L 20.3217,-2.0312 L 20.315,-2.00671
 L 20.2734,-1.84027 L 20.2682,-1.81706 L 20.2335,-1.6431 L 20.2296,-1.62054 L 20.2005,-1.4297 L 20.198,-1.41064
 L 20.1734,-1.19348 L 20.172,-1.17844 L 20.1518,-0.934921 L 20.151,-0.922699 L 20.1353,-0.652863 L 20.1349,-0.642776
 L 20.1237,-0.346603 L 20.1234,-0.338135 L 20.1167,-0.0156403 L 20.1167,-0.00848389 L 20.1144,0.340347 L 20.1144,5.78999
 z
M -10.481,-5.85075 L -10.4314,-5.82976 L -10.2642,-5.72942 L -10.2881,-5.69179 L -10.3916,-5.49416 L -10.481,-5.2836
 z
M -17.9595,-5.68686 L -17.8479,-5.72757 L -17.5958,-5.58105 L -17.1156,-5.21045 L -16.6739,-4.76967 L -16.4835,-4.52664
 L -16.5567,-4.50534 L -16.5747,-4.49973 L -16.9052,-4.38985 L -16.9221,-4.38387 L -17.2565,-4.25912 L -17.2725,-4.25285
 L -17.6109,-4.11324 L -17.6258,-4.1068 L -17.9595,-3.95625 z
M -22.7033,5.78999 L -23.1981,5.58228 L -23.7182,5.27937 L -24.198,4.90865 L -24.6396,4.46774 L -25.0318,3.9671
 L -25.3646,3.41658 L -25.4281,3.27686 L -25.4077,3.24504 L -25.3795,3.19511 L -25.2138,2.85782 L -25.1931,2.80937
 L -25.0576,2.43938 L -25.0434,2.39403 L -24.938,1.99133 L -24.929,1.94992 L -24.8538,1.5145 L -24.8488,1.47734
 L -24.8036,1.00922 L -24.8015,0.976196 L -24.7865,0.475372 L -24.7862,0.460358 L -24.7862,0.229828 L -24.7951,0.136139
 L -24.8107,0.0753174 L -24.8338,0.0169373 L -24.8641,-0.0380859 L -24.901,-0.0888824 L -24.944,-0.134659 L -24.9923,-0.174683
 L -25.0453,-0.208328 L -25.1022,-0.235062 L -25.1619,-0.254471 L -25.2236,-0.266235 L -25.2862,-0.270172 L -26.129,-0.270172
 L -26.1021,-0.977173 L -26.013,-1.70728 L -25.2862,-1.70728 L -25.1925,-1.71613 L -25.1317,-1.73175 L -25.0733,-1.75487
 L -25.0183,-1.78511 L -24.9675,-1.82202 L -24.9217,-1.86501 L -24.8817,-1.91338 L -24.8481,-1.9664 L -24.8213,-2.02321
 L -24.8019,-2.08293 L -24.7902,-2.14461 L -24.7862,-2.20728 L -24.7862,-2.7664 L -24.7869,-2.7932 L -24.7991,-3.019
 L -24.8057,-3.07765 L -24.842,-3.2872 L -24.8576,-3.3513 L -24.9182,-3.54462 L -24.9444,-3.61111 L -25.0292,-3.78818
 L -25.0663,-3.85277 L -25.1754,-4.0136 L -25.1815,-4.02135 L -25.0318,-4.26903 L -24.6396,-4.76967 L -24.198,-5.21056
 L -23.8127,-5.5083 L -23.5617,-5.29651 L -23.2783,-4.95554 L -23.0309,-4.53256 L -22.8214,-4.021 L -22.7387,-3.72432
 L -22.7592,-3.70001 L -22.9674,-3.41699 L -22.999,-3.36832 L -23.1825,-3.04646 L -23.2065,-2.99869 L -23.3617,-2.6427
 L -23.3788,-2.59764 L -23.5058,-2.20753 L -23.5174,-2.16614 L -23.6162,-1.74188 L -23.6234,-1.70456 L -23.694,-1.24619
 L -23.698,-1.21292 L -23.7403,-0.720413 L -23.7419,-0.690994 L -23.756,-0.164352 L -23.756,-0.137558 L -23.7419,0.389069
 L -23.7403,0.418488 L -23.698,0.910995 L -23.694,0.94426 L -23.6234,1.40265 L -23.6162,1.43997 L -23.5174,1.86421
 L -23.5058,1.90559 L -23.3788,2.29572 L -23.3617,2.34079 L -23.2065,2.69678 L -23.1825,2.74455 L -22.999,3.06639
 L -22.9674,3.11507 L -22.7592,3.39809 L -22.7175,3.44766 L -22.4881,3.68713 L -22.435,3.73512 L -22.4316,3.73779
 L -22.4316,5.78999 z
M 8.59355,0.437027 L 8.57112,-0.150955 L 8.60265,-0.977142 L 8.61705,-1.09531 L 9.84612,-1.09799 L 9.90294,-1.10136
 L 9.96472,-1.11253 L 10.0246,-1.13136 L 10.0817,-1.15755 L 10.135,-1.19069 L 10.1838,-1.23024 L 10.2272,-1.2756
 L 10.2646,-1.32605 L 10.2954,-1.38077 L 10.3191,-1.43893 L 10.3353,-1.4996 L 10.3437,-1.56181 L 10.3443,-1.6246
 L 10.3247,-1.99338 L 10.321,-2.03307 L 10.2752,-2.37526 L 10.2671,-2.42 L 10.1952,-2.7356 L 10.1812,-2.7851
 L 10.0833,-3.07413 L 10.0617,-3.12733 L 9.93764,-3.38977 L 9.90735,-3.44463 L 9.75713,-3.68048 L 9.71779,-3.73404
 L 9.54147,-3.94331 L 9.50119,-3.98492 L 9.67293,-4.26901 L 10.0651,-4.76967 L 10.5067,-5.21056 L 10.7332,-5.38554
 L 10.8629,-5.29233 L 11.2942,-4.88589 L 11.6739,-4.4214 L 11.9965,-3.90344 L 12.0415,-3.80629 L 11.9872,-3.74959
 L 11.9455,-3.70003 L 11.7373,-3.41701 L 11.7057,-3.3683 L 11.5222,-3.04645 L 11.4983,-2.99869 L 11.343,-2.6427
 L 11.3259,-2.59766 L 11.1989,-2.20755 L 11.1873,-2.16612 L 11.0885,-1.74187 L 11.0813,-1.70456 L 11.0108,-1.24619
 L 11.0068,-1.21294 L 10.9644,-0.720428 L 10.9628,-0.690994 L 10.9487,-0.164352 L 10.9487,-0.137558 L 10.9628,0.389069
 L 10.9644,0.418503 L 10.966,0.437027 z
M 17.7365,-5.0634 L 18.0308,-4.76967 L 18.4231,-4.26897 L 18.7559,-3.71851 L 19.0298,-3.11597 L 19.2447,-2.45918
 L 19.3996,-1.74664 L 19.4934,-0.977142 L 19.525,-0.150955 L 19.4934,0.675217 L 19.3996,1.44473 L 19.2447,2.15724
 L 19.0298,2.81404 L 18.7559,3.41658 L 18.4231,3.96704 L 18.0308,4.46774 L 17.7365,4.76147 z
M 26.4897,-4.09535 L 26.4634,-4.10776 L 26.2635,-4.1951 L 26.3215,-4.21085 L 26.3795,-4.23477 L 26.4341,-4.26579
 L 26.4844,-4.30341 L 26.5295,-4.34702 L 26.5689,-4.39595 L 26.6018,-4.44943 L 26.6277,-4.50662 L 26.6507,-4.56714
 L 26.6507,-4.11125 L 26.5883,-4.0452 z
M -14.9769,-2.59042 L -15.2083,-3.29771 L -15.5058,-3.95209 L -15.6687,-4.22163 L -15.4355,-4.27042 L -15.1034,-4.32671
 L -14.7683,-4.3705 L -14.4301,-4.40176 L -14.0889,-4.42053 L -13.7445,-4.42679 L -13.4266,-4.4182 L -13.1315,-4.39243
 L -12.9365,-4.36168 L -12.9365,-2.20728 L -13.7445,-2.20728 L -14.588,-2.18526 L -14.8834,-2.16019 z
M -10.1698,5.78999 L -10.1698,-1.99631 L -10.1653,-2.38838 L -10.1519,-2.74141 L -10.1295,-3.05539 L -10.0983,-3.33032
 L -10.0581,-3.56622 L -10.0089,-3.76306 L -9.95081,-3.92087 L -9.88091,-4.04932 L -9.79643,-4.158 L -9.69737,-4.24693
 L -9.58374,-4.3161 L -9.45554,-4.36551 L -9.31274,-4.39516 L -9.15538,-4.40503 L -9.09517,-4.40115 L -8.93945,-4.021
 L -8.77182,-3.41898 L -8.64955,-2.72675 L -8.57503,-1.94485 L -8.54971,-1.06837 L -8.54971,5.78999 z
M 4.57826,-1.94652 L 4.64908,-2.28236 L 4.74295,-2.59398 L 4.85989,-2.88135 L 4.99988,-3.14449 L 5.16293,-3.38338
 L 5.34904,-3.59804 L 5.41705,-3.65976 L 5.44032,-3.6496 L 5.63336,-3.55151 L 5.81865,-3.4431 L 5.99615,-3.32436
 L 6.16591,-3.1953 L 6.32788,-3.05591 L 6.32788,-4.18552 L 6.57835,-4.24922 L 6.88208,-4.29265 L 7.20511,-4.30711
 L 7.56117,-4.29311 L 7.89162,-4.25111 L 8.1964,-4.18112 L 8.47554,-4.08313 L 8.72903,-3.95714 L 8.85933,-3.86906
 L 8.59961,-3.29771 L 8.36824,-2.59042 L 8.20297,-1.83018 L 8.17421,-1.59435 L 4.53049,-1.58643 z
M -12.4365,-2.20728 L -12.4365,-4.23029 L -12.383,-4.21204 L -12.1792,-4.11754 L -11.9981,-4.00587 L -11.8406,-3.87753
 L -11.7073,-3.73296 L -11.5982,-3.57213 L -11.5134,-3.39507 L -11.4528,-3.20175 L -11.4164,-2.9922 L -11.4043,-2.7664
 L -11.4043,-2.20728 z
M -20.9977,3.86374 L -21.3118,3.79843 L -21.6047,3.68958 L -21.8765,3.53719 L -21.9316,3.49406 L -21.9316,-1.07541
 L -21.9576,-1.97586 L -22.0356,-2.79401 L -22.1656,-3.52985 L -22.1813,-3.58649 L -22.127,-3.64317 L -21.8765,-3.83911
 L -21.6047,-3.9915 L -21.3118,-4.10036 L -20.9977,-4.16566 L -20.6624,-4.18744 L -20.3241,-4.16566 L -20.0074,-4.10036
 L -19.7124,-3.9915 L -19.439,-3.83911 L -19.1873,-3.64317 L -18.9573,-3.4037 L -18.7489,-3.12068 L -18.5653,-2.79883
 L -18.41,-2.44284 L -18.283,-2.05273 L -18.1842,-1.62848 L -18.1222,-1.22588 L -18.2752,-1.1288 L -18.6636,-0.796585
 L -18.9923,-0.416107 L -19.2612,0.0125885 L -19.4704,0.489563 L -19.6197,1.01479 L -19.7094,1.58826 L -19.7393,2.20999
 L -19.7142,2.78761 L -19.639,3.32758 L -19.5687,3.60947 L -19.7124,3.68958 L -20.0074,3.79843 L -20.3241,3.86374
 L -20.6624,3.88551 z
M 13.7071,3.86374 L 13.3929,3.79843 L 13.1,3.68958 L 12.8283,3.53719 L 12.7039,3.43994 L 12.7039,2.55815
 L 12.3536,2.75732 L 12.1674,2.8559 L 12.14,2.81876 L 11.9566,2.49692 L 11.8013,2.14093 L 11.6743,1.75081
 L 11.5755,1.32657 L 11.5155,0.937027 L 13.2459,0.937027 L 13.2459,-0.434174 L 13.2135,-1.28917 L 13.1165,-2.08742
 L 12.9547,-2.82892 L 12.7283,-3.51369 L 12.6442,-3.69516 L 12.8283,-3.83911 L 13.1,-3.9915 L 13.3929,-4.10036
 L 13.7071,-4.16566 L 14.0423,-4.18744 L 14.3807,-4.16566 L 14.6973,-4.10036 L 14.9923,-3.9915 L 15.2657,-3.83911
 L 15.5174,-3.64317 L 15.7475,-3.4037 L 15.9559,-3.12068 L 16.1394,-2.79883 L 16.2947,-2.44284 L 16.4217,-2.05273
 L 16.5206,-1.62848 L 16.5911,-1.1701 L 16.6335,-0.677597 L 16.6476,-0.150955 L 16.6335,0.375671 L 16.5911,0.868179
 L 16.5206,1.32657 L 16.4217,1.75081 L 16.2947,2.14093 L 16.1394,2.49692 L 15.9559,2.81876 L 15.7475,3.10178
 L 15.5174,3.34125 L 15.2657,3.53719 L 14.9923,3.68958 L 14.6973,3.79843 L 14.3807,3.86374 L 14.0423,3.88551
 z
M -17.69,-1.70457 L -17.6972,-1.7419 L -17.796,-2.16615 L -17.8076,-2.20758 L -17.9346,-2.59769 L -17.9518,-2.64276
 L -18.107,-2.99875 L -18.131,-3.04649 L -18.2491,-3.25357 L -18.1091,-3.32718 L -17.7626,-3.49654 L -17.4202,-3.65103
 L -17.0818,-3.79065 L -16.7474,-3.91539 L -16.417,-4.02527 L -16.1766,-4.09521 L -15.9488,-3.71848 L -15.6749,-3.11597
 L -15.46,-2.45917 L -15.3855,-2.11621 L -16.0786,-2.00919 L -16.7259,-1.85512 L -17.3077,-1.65703 L -17.6574,-1.49307
 z
M 6.87108,6.09314 L 6.08531,5.99283 L 5.36691,5.82759 L 4.71449,5.59898 L 4.12617,5.30833 L 3.59877,4.9558
 L 3.12921,4.54041 L 2.71883,4.06433 L 2.37042,3.53012 L 2.0829,2.93431 L 1.8569,2.27463 L 1.69348,1.54842
 L 1.59436,0.755219 L 1.56099,-0.104874 L 1.59309,-0.940201 L 1.68858,-1.71724 L 1.84628,-2.43645 L 2.06493,-3.09845
 L 2.34366,-3.70505 L 2.52252,-3.99738 L 2.53056,-3.99899 L 2.80925,-4.0372 L 3.099,-4.06012 L 3.39981,-4.06775
 L 3.65045,-4.06259 L 3.89523,-4.0471 L 4.13412,-4.02129 L 4.36716,-3.98515 L 4.5943,-3.93869 L 4.81557,-3.8819
 L 4.90833,-3.85298 L 4.78516,-3.71092 L 4.74995,-3.66525 L 4.5869,-3.42636 L 4.55846,-3.37932 L 4.41847,-3.11618
 L 4.39677,-3.06981 L 4.27983,-2.78244 L 4.26421,-2.7382 L 4.17033,-2.42659 L 4.15984,-2.38553 L 4.08902,-2.04968
 L 4.08261,-2.01228 L 4.03484,-1.65219 L 4.0314,-1.61673 L 4.03154,-1.55394 L 4.03955,-1.49167 L 4.0553,-1.43088
 L 4.07854,-1.37256 L 4.1089,-1.3176 L 4.14592,-1.26688 L 4.18901,-1.22119 L 4.23747,-1.18127 L 4.29056,-1.14775
 L 4.34744,-1.12114 L 4.4072,-1.10187 L 4.4689,-1.09024 L 4.53157,-1.08643 L 8.1132,-1.09421 L 8.10381,-1.01704
 L 8.07076,-0.150955 L 8.09319,0.437027 L 4.49599,0.437027 L 4.43939,0.440247 L 4.37756,0.451248 L 4.31763,0.469925
 L 4.26048,0.495956 L 4.20706,0.528961 L 4.15819,0.56839 L 4.11465,0.613632 L 4.07713,0.663971 L 4.0462,0.718628
 L 4.02238,0.776718 L 4.00603,0.837341 L 3.99739,0.899536 L 3.99663,0.962326 L 4.01781,1.38045 L 4.02251,1.42798
 L 4.07944,1.81462 L 4.0903,1.86806 L 4.183,2.22325 L 4.20204,2.28139 L 4.33049,2.60512 L 4.35933,2.66562
 L 4.52353,2.95789 L 4.56264,3.0172 L 4.76259,3.278 L 4.81071,3.33215 L 5.04643,3.56149 L 5.10016,3.60686
 L 5.37167,3.80522 L 5.42694,3.84029 L 5.73422,4.00813 L 5.78807,4.03352 L 6.13109,4.17085 L 6.18124,4.1879
 L 6.56003,4.29469 L 6.60521,4.30521 L 7.01976,4.3815 L 7.05969,4.38719 L 7.50998,4.43297 L 7.54486,4.43529
 L 8.03091,4.45055 L 8.05685,4.45068 L 8.38881,4.44388 L 8.40941,4.44304 L 8.73996,4.42261 L 8.76057,4.4209
 L 9.08969,4.38684 L 9.1102,4.38429 L 9.33858,4.35106 L 9.69035,4.80011 L 10.1758,5.28487 L 10.7067,5.69505
 L 10.8144,5.75774 L 10.5432,5.82352 L 10.2092,5.89461 L 9.87157,5.95622 L 9.52838,6.00838 L 9.17969,6.05106
 L 8.82462,6.08435 L 8.46349,6.10815 L 8.09659,6.12247 L 7.73044,6.12715 z
M 23.3057,5.78999 L 23.3057,-3.98946 L 23.3534,-3.99899 L 23.6321,-4.0372 L 23.9218,-4.06012 L 24.2226,-4.06775
 L 24.4733,-4.06259 L 24.7181,-4.0471 L 24.957,-4.02129 L 25.19,-3.98515 L 25.4171,-3.93869 L 25.6384,-3.8819
 L 25.8538,-3.81479 L 26.0624,-3.73735 L 26.2632,-3.6496 L 26.2696,-3.64632 L 26.2492,-3.61462 L 26.1101,-3.36787
 L 26.0866,-3.32053 L 25.9689,-3.04788 L 25.9521,-3.0032 L 25.8557,-2.7047 L 25.8444,-2.66367 L 25.7695,-2.33928
 L 25.7624,-2.30228 L 25.7089,-1.95203 L 25.705,-1.91905 L 25.6728,-1.54291 L 25.6712,-1.51367 L 25.6605,-1.11166
 L 25.6603,-1.09836 L 25.6603,5.78999 z
M -8.1537,-2.79401 L -8.28368,-3.52985 L -8.42857,-4.05025 L -8.42131,-4.04095 L -8.34839,-3.90948 L -8.28723,-3.74908
 L -8.23547,-3.55104 L -8.19315,-3.31537 L -8.1602,-3.04205 L -8.13669,-2.73111 L -8.12854,-2.53017 z
M -25.9081,-2.20728 L -25.8533,-2.45923 L -25.6385,-3.116 L -25.455,-3.51965 L -25.3953,-3.39507 L -25.3347,-3.20175
 L -25.2983,-2.9922 L -25.2862,-2.7664 L -25.2862,-2.20728 z
M 8.69649,-1.74666 L 8.85139,-2.45923 L 9.06624,-3.116 L 9.24792,-3.51569 L 9.3354,-3.41188 L 9.48563,-3.17603
 L 9.60973,-2.91359 L 9.70772,-2.62456 L 9.7796,-2.30896 L 9.82538,-1.96677 L 9.84503,-1.59799 L 8.67804,-1.59544
 z
M 11.4679,0.437027 L 11.4626,0.375671 L 11.4485,-0.150955 L 11.4626,-0.677597 L 11.5049,-1.1701 L 11.5755,-1.62848
 L 11.6743,-2.05273 L 11.8013,-2.44284 L 11.9566,-2.79883 L 12.14,-3.12068 L 12.2722,-3.30034 L 12.4718,-2.69676
 L 12.623,-2.00375 L 12.7147,-1.24963 L 12.7459,-0.424545 L 12.7459,0.437027 z
M -22.5647,2.81876 L -22.7482,2.49692 L -22.9034,2.14093 L -23.0304,1.75081 L -23.1292,1.32657 L -23.1998,0.868179
 L -23.2421,0.375671 L -23.2562,-0.150955 L -23.2421,-0.677597 L -23.1998,-1.1701 L -23.1292,-1.62848 L -23.0304,-2.05273
 L -22.9034,-2.44284 L -22.7482,-2.79883 L -22.5924,-3.07198 L -22.5314,-2.72675 L -22.4569,-1.94485 L -22.4316,-1.06837
 L -22.4316,2.9996 z
M -14.6794,-0.150955 L -14.7124,-1.01704 L -14.7916,-1.66617 L -14.5602,-1.68581 L -13.7379,-1.70728 L -12.9365,-1.70728
 L -12.9365,-0.266754 L -13.2795,-0.260193 L -13.3014,-0.259293 L -13.7717,-0.229645 L -13.7982,-0.227264 L -14.2219,-0.177841
 L -14.2542,-0.173004 L -14.6314,-0.103806 L -14.6711,-0.0948334 L -14.6816,-0.09198 z
M -17.8453,5.36691 L -18.1666,5.09906 L -18.4481,4.79509 L -18.686,4.45915 L -18.8816,4.08871 L -18.9842,3.81677
 L -18.8802,3.73579 L -18.8268,3.68765 L -18.5967,3.44818 L -18.5546,3.39825 L -18.3462,3.11523 L -18.3145,3.06642
 L -18.131,2.74458 L -18.107,2.69684 L -17.9518,2.34085 L -17.9346,2.29578 L -17.8076,1.90565 L -17.796,1.86423
 L -17.6972,1.43999 L -17.69,1.40266 L -17.6194,0.944275 L -17.6154,0.911011 L -17.5731,0.418503 L -17.5714,0.389069
 L -17.5573,-0.137558 L -17.5573,-0.164352 L -17.5714,-0.690994 L -17.5731,-0.720428 L -17.5944,-0.968552 L -17.5832,-0.975647
 L -17.1205,-1.19258 L -16.587,-1.37422 L -15.9825,-1.51811 L -15.3068,-1.62245 L -15.2901,-1.62386 L -15.2113,-0.977142
 L -15.1798,-0.150955 L -15.1879,0.0626221 L -15.3344,0.118713 L -15.3936,0.14595 L -15.631,0.274445 L -15.6973,0.317383
 L -15.8961,0.469833 L -15.9578,0.525894 L -16.126,0.706573 L -16.1776,0.772217 L -16.3152,0.98114 L -16.3534,1.05049
 L -16.4605,1.28764 L -16.4852,1.35493 L -16.5617,1.62032 L -16.5752,1.68155 L -16.6211,1.97517 L -16.6265,2.02864
 L -16.6418,2.35048 L -16.6419,2.39597 L -16.6313,2.63902 L -16.627,2.6861 L -16.5953,2.91455 L -16.5854,2.96581
 L -16.5325,3.17967 L -16.5158,3.23383 L -16.4417,3.43312 L -16.4174,3.4881 L -16.3221,3.67281 L -16.2904,3.726
 L -16.2084,3.84581 L -16.2817,3.96707 L -16.6739,4.46774 L -17.1155,4.90848 L -17.5959,5.27917 L -17.7983,5.39682
 z
M -19.1475,3.23233 L -19.2157,2.74217 L -19.2387,2.21117 L -19.2112,1.63907 L -19.1304,1.12216 L -18.9988,0.659164
 L -18.8181,0.24707 L -18.589,-0.118164 L -18.31,-0.441147 L -18.0704,-0.646027 L -18.0571,-0.150955 L -18.0712,0.375671
 L -18.1136,0.868179 L -18.1842,1.32657 L -18.283,1.75081 L -18.41,2.14093 L -18.5653,2.49692 L -18.7489,2.81876
 L -18.9573,3.10178 L -19.1341,3.28586 z
M -28.3452,4.27748 L -28.5762,4.24571 L -28.7922,4.19278 L -28.9931,4.11865 L -29.179,4.02336 L -29.3499,3.90689
 L -29.5056,3.76923 L -29.6432,3.61369 L -29.7597,3.44359 L -29.8549,3.25888 L -29.929,3.05959 L -29.9819,2.84572
 L -30.0137,2.61726 L -30.0243,2.37421 L -30.009,2.05237 L -29.9631,1.75874 L -29.8867,1.49336 L -29.7796,1.25621
 L -29.642,1.04729 L -29.4737,0.866608 L -29.2749,0.714157 L -29.0375,0.585663 L -28.7536,0.476944 L -28.423,0.387985
 L -28.0459,0.318787 L -27.6222,0.269363 L -27.1519,0.239716 L -26.635,0.229828 L -26.6194,0.229828 L -26.6009,0.715118
 L -26.5018,1.52827 L -26.3365,2.2885 L -26.1051,2.99579 L -25.996,3.23573 L -26.024,3.2793 L -26.2471,3.54692
 L -26.4946,3.77339 L -26.7665,3.95868 L -27.0629,4.10278 L -27.3839,4.20572 L -27.7292,4.26749 L -28.099,4.28807
 z
M -25.8533,2.1573 L -26.0082,1.44473 L -26.1021,0.675247 L -26.119,0.229828 L -25.2862,0.229828 L -25.2862,0.460358
 L -25.3013,0.961182 L -25.3465,1.42931 L -25.4217,1.86473 L -25.5271,2.26743 L -25.6626,2.63742 L -25.6828,2.67851
 z
M -12.4365,0.229828 L -11.4043,0.229828 L -11.4043,0.460358 L -11.4194,0.961182 L -11.4646,1.42931 L -11.5398,1.86473
 L -11.6452,2.26743 L -11.7807,2.63742 L -11.9464,2.97472 L -12.1421,3.2793 L -12.3652,3.54692 L -12.4365,3.61221
 z
M -14.4633,4.27748 L -14.6943,4.24571 L -14.9103,4.19278 L -15.1113,4.11865 L -15.2971,4.02336 L -15.468,3.90689
 L -15.5938,3.79568 L -15.5058,3.65016 L -15.2083,2.99579 L -14.9769,2.2885 L -14.8116,1.52827 L -14.7124,0.715118
 L -14.7016,0.431168 L -14.5411,0.387985 L -14.164,0.318787 L -13.7403,0.269363 L -13.27,0.239716 L -12.9365,0.233322
 L -12.9365,3.9839 L -13.181,4.10278 L -13.502,4.20572 L -13.8473,4.26749 L -14.2171,4.28807 z
M -15.973,3.25888 L -16.0471,3.05959 L -16.1001,2.84572 L -16.1318,2.61726 L -16.1424,2.37421 L -16.1271,2.05237
 L -16.0812,1.75874 L -16.0048,1.49336 L -15.8977,1.25621 L -15.7601,1.04729 L -15.5918,0.866608 L -15.393,0.714157
 L -15.209,0.614517 L -15.2113,0.675217 L -15.3051,1.4447 L -15.4601,2.15727 L -15.6749,2.81404 L -15.9221,3.35767
 z
M 9.34013,3.41658 L 9.06624,2.81407 L 8.85139,2.1573 L 8.69649,1.44473 L 8.63457,0.937027 L 11.0099,0.937027
 L 11.0108,0.94426 L 11.0813,1.40265 L 11.0885,1.43996 L 11.1873,1.8642 L 11.1989,1.90561 L 11.3259,2.29573
 L 11.343,2.34079 L 11.4983,2.69678 L 11.5222,2.74454 L 11.7057,3.06638 L 11.7164,3.08293 L 11.6657,3.10777
 L 11.328,3.25905 L 10.9947,3.39436 L 10.6655,3.5137 L 10.3406,3.61708 L 10.0171,3.70561 L 9.69223,3.78053
 L 9.57361,3.80281 z
M 7.56055,3.93553 L 7.11026,3.88976 L 6.69571,3.81346 L 6.31693,3.70667 L 5.97391,3.56934 L 5.66663,3.40149
 L 5.39511,3.20312 L 5.15939,2.97379 L 4.95944,2.71298 L 4.79524,2.42072 L 4.66679,2.09698 L 4.5741,1.74179
 L 4.51717,1.35515 L 4.49599,0.937027 L 8.13086,0.937027 L 8.20297,1.52827 L 8.36824,2.2885 L 8.59961,2.99579
 L 8.89708,3.65016 L 9.04147,3.88901 L 9.03822,3.8895 L 8.70911,3.92355 L 8.37856,3.94398 L 8.0466,3.95079
 z
M 10.9865,5.27937 L 10.5067,4.90865 L 10.0651,4.46774 L 9.89255,4.24745 L 10.1295,4.19283 L 10.1491,4.18788
 L 10.4726,4.09935 L 10.4922,4.09355 L 10.8171,3.99017 L 10.8359,3.98376 L 11.1651,3.86443 L 11.1827,3.85765
 L 11.5161,3.72234 L 11.5325,3.71533 L 11.8701,3.56406 L 11.8854,3.55692 L 12.026,3.48813 L 12.2039,3.67387
 L 12.2039,5.31915 L 12.1892,5.325 L 11.8633,5.44379 L 11.5361,5.55293 L 11.4836,5.56882 z
M -21.369,6.0919 L -21.9316,6.00357 L -21.9316,4.0795 L -21.8493,4.12569 L -21.7789,4.15826 L -21.4859,4.26712
 L -21.4135,4.28796 L -21.0994,4.35327 L -21.0301,4.36269 L -20.6948,4.38446 L -20.6302,4.38448 L -20.2919,4.3627
 L -20.2231,4.35344 L -19.9064,4.28813 L -19.8343,4.26752 L -19.5393,4.15866 L -19.4689,4.1263 L -19.4135,4.0954
 L -19.3384,4.29451 L -19.1129,4.72148 L -18.8372,5.11079 L -18.5115,5.46243 L -18.2841,5.65201 L -18.6814,5.81839
 L -19.2925,5.98865 L -19.9523,6.09187 L -20.6624,6.12668 z
M -15.6501,6.10472 L -16.1745,6.03905 L -16.6548,5.93127 L -17.0918,5.78287 L -17.3012,5.68333 L -16.7848,5.28487
 L -16.2991,4.80011 L -15.8694,4.2516 L -15.8567,4.23059 L -15.7991,4.28154 L -15.7496,4.32001 L -15.5788,4.43648
 L -15.5252,4.46831 L -15.3393,4.5636 L -15.2843,4.58775 L -15.0834,4.66188 L -15.0293,4.67841 L -14.8133,4.73134
 L -14.7624,4.74106 L -14.5314,4.77283 L -14.4848,4.77702 L -14.2386,4.78761 L -14.1894,4.78729 L -13.8195,4.76671
 L -13.7593,4.75967 L -13.4139,4.69791 L -13.3492,4.68182 L -13.0283,4.57889 L -12.9624,4.55246 L -12.9365,4.53986
 L -12.9365,5.58122 L -12.9536,5.5918 L -13.1895,5.71558 L -13.4359,5.82422 L -13.6897,5.91629 L -13.9512,5.99176
 L -14.2208,6.05069 L -14.499,6.09299 L -14.7858,6.1185 L -15.0792,6.127 z
M -12.3418,5.78999 L -12.2155,5.6989 L -11.9916,5.51112 L -11.7817,5.30736 L -11.586,5.08757 L -11.4043,4.85179
 L -11.4043,5.78999 z
M -24.7862,5.78999 L -24.7862,5.02791 L -24.5289,5.28487 L -23.998,5.69505 L -23.8349,5.78999 z
" stroke="black" fill="lightgray" stroke-width="0.5"/>
</svg>
