<?xml version="1.0" standalone="no"?>
<!DOCTYPE svg PUBLIC "-//W3C//DTD SVG 1.1//EN" "http://www.w3.org/Graphics/SVG/1.1/DTD/svg11.dtd">
<svg width="55mm" height="14mm" viewBox="-27 -7 55 14" xmlns="http://www.w3.org/2000/svg" version="1.1">
<title>OpenSCAD Model</title>
<path d="
M 8.10962,6.62233 L 8.48981,6.60751 L 8.86436,6.58281 L 9.23326,6.54823 L 9.59651,6.50377 L 9.95412,6.44942
 L 10.3061,6.38519 L 10.6543,6.31108 L 11.0006,6.2271 L 11.345,6.13322 L 11.6876,6.02948 L 12.0282,5.91585
 L 12.367,5.79234 L 12.7039,5.65895 L 12.7039,2.55815 L 12.3536,2.75732 L 12.0075,2.94054 L 11.6657,3.10777
 L 11.328,3.25905 L 10.9947,3.39436 L 10.6655,3.5137 L 10.3406,3.61708 L 10.0171,3.70561 L 9.69223,3.78053
 L 9.36594,3.84183 L 9.03822,3.8895 L 8.70911,3.92355 L 8.37856,3.94398 L 8.0466,3.95079 L 7.56055,3.93553
 L 7.11026,3.88976 L 6.69571,3.81346 L 6.31693,3.70667 L 5.97391,3.56934 L 5.66663,3.40149 L 5.39511,3.20312
 L 5.15939,2.97379 L 4.95944,2.71298 L 4.79524,2.42072 L 4.66679,2.09698 L 4.5741,1.74179 L 4.51717,1.35515
 L 4.49599,0.937027 L 13.2459,0.937027 L 13.2459,-0.434174 L 13.2135,-1.28917 L 13.1165,-2.08742 L 12.9547,-2.82892
 L 12.7283,-3.51369 L 12.4372,-4.14169 L 12.0813,-4.71297 L 11.6608,-5.22749 L 11.1817,-5.67897 L 10.6501,-6.06097
 L 10.066,-6.37354 L 9.42952,-6.61664 L 8.74051,-6.79028 L 7.99904,-6.89447 L 7.20511,-6.9292 L 6.416,-6.89178
 L 5.67584,-6.77957 L 4.98462,-6.59253 L 4.34233,-6.33069 L 3.74898,-5.99402 L 3.20457,-5.58255 L 2.70911,-5.09625
 L 2.27176,-4.54555 L 1.90169,-3.94072 L 1.59891,-3.28178 L 1.3634,-2.56874 L 1.19519,-1.80156 L 1.09427,-0.980286
 L 1.06062,-0.104889 L 1.09557,0.796021 L 1.20036,1.6346 L 1.37505,2.41084 L 1.61961,3.12474 L 1.93404,3.77631
 L 2.31834,4.36554 L 2.77252,4.89243 L 3.29282,5.35269 L 3.87544,5.74214 L 4.52042,6.06079 L 5.22774,6.30862
 L 5.99741,6.48566 L 6.82942,6.59187 L 7.72377,6.62727 z
M 6.87108,6.09314 L 6.08531,5.99283 L 5.36691,5.82759 L 4.71449,5.59898 L 4.12617,5.30833 L 3.59877,4.9558
 L 3.12921,4.54041 L 2.71883,4.06433 L 2.37042,3.53012 L 2.0829,2.93431 L 1.8569,2.27463 L 1.69348,1.54842
 L 1.59436,0.755219 L 1.56099,-0.104874 L 1.59309,-0.940201 L 1.68858,-1.71724 L 1.84628,-2.43645 L 2.06493,-3.09845
 L 2.34366,-3.70505 L 2.68234,-4.25859 L 3.08136,-4.76102 L 3.53181,-5.20314 L 4.02425,-5.57532 L 4.56105,-5.87991
 L 5.1449,-6.11792 L 5.77885,-6.28947 L 6.46552,-6.39357 L 7.20593,-6.42868 L 7.95329,-6.39598 L 8.64438,-6.29887
 L 9.27872,-6.13902 L 9.85802,-5.91777 L 10.3851,-5.6357 L 10.8629,-5.29233 L 11.2942,-4.88589 L 11.6739,-4.4214
 L 11.9965,-3.90344 L 12.2626,-3.32941 L 12.4718,-2.69676 L 12.623,-2.00375 L 12.7147,-1.24963 L 12.7459,-0.424545
 L 12.7459,0.437027 L 4.49599,0.437027 L 4.43939,0.440247 L 4.37756,0.451248 L 4.31763,0.469925 L 4.26048,0.495956
 L 4.20706,0.528961 L 4.15819,0.56839 L 4.11465,0.613632 L 4.07713,0.663971 L 4.0462,0.718628 L 4.02238,0.776718
 L 4.00603,0.837341 L 3.99739,0.899536 L 3.99663,0.962326 L 4.01781,1.38045 L 4.02251,1.42798 L 4.07944,1.81462
 L 4.0903,1.86806 L 4.183,2.22325 L 4.20204,2.28139 L 4.33049,2.60512 L 4.35933,2.66562 L 4.52353,2.95789
 L 4.56264,3.0172 L 4.76259,3.278 L 4.81071,3.33215 L 5.04643,3.56149 L 5.10016,3.60686 L 5.37167,3.80522
 L 5.42694,3.84029 L 5.73422,4.00813 L 5.78807,4.03352 L 6.13109,4.17085 L 6.18124,4.1879 L 6.56003,4.29469
 L 6.60521,4.30521 L 7.01976,4.3815 L 7.05969,4.38719 L 7.50998,4.43297 L 7.54486,4.43529 L 8.03091,4.45055
 L 8.05685,4.45068 L 8.38881,4.44388 L 8.40941,4.44304 L 8.73996,4.42261 L 8.76057,4.4209 L 9.08969,4.38684
 L 9.1102,4.38429 L 9.43791,4.33662 L 9.45825,4.33324 L 9.78455,4.27194 L 9.80458,4.26775 L 10.1295,4.19283
 L 10.1491,4.18788 L 10.4726,4.09935 L 10.4922,4.09355 L 10.8171,3.99017 L 10.8359,3.98376 L 11.1651,3.86443
 L 11.1827,3.85765 L 11.5161,3.72234 L 11.5325,3.71533 L 11.8701,3.56406 L 11.8854,3.55692 L 12.2039,3.40108
 L 12.2039,5.31915 L 12.1892,5.325 L 11.8633,5.44379 L 11.5361,5.55293 L 11.2071,5.65257 L 10.8758,5.74286
 L 10.5432,5.82352 L 10.2092,5.89461 L 9.87157,5.95622 L 9.52838,6.00838 L 9.17969,6.05106 L 8.82462,6.08435
 L 8.46349,6.10815 L 8.09659,6.12247 L 7.73044,6.12715 z
M 9.84612,-1.09799 L 9.90294,-1.10136 L 9.96472,-1.11253 L 10.0246,-1.13136 L 10.0817,-1.15755 L 10.135,-1.19069
 L 10.1838,-1.23024 L 10.2272,-1.2756 L 10.2646,-1.32605 L 10.2954,-1.38077 L 10.3191,-1.43893 L 10.3353,-1.4996
 L 10.3437,-1.56181 L 10.3443,-1.6246 L 10.3247,-1.99338 L 10.321,-2.03307 L 10.2752,-2.37526 L 10.2671,-2.42
 L 10.1952,-2.7356 L 10.1812,-2.7851 L 10.0833,-3.07413 L 10.0617,-3.12733 L 9.93764,-3.38977 L 9.90735,-3.44463
 L 9.75713,-3.68048 L 9.71779,-3.73404 L 9.54147,-3.94331 L 9.49358,-3.9928 L 9.29137,-4.17479 L 9.23686,-4.21741
 L 9.00902,-4.3714 L 8.95157,-4.40488 L 8.69807,-4.53087 L 8.64116,-4.5549 L 8.36201,-4.65289 L 8.3083,-4.66844
 L 8.00352,-4.73843 L 7.95465,-4.74713 L 7.62421,-4.78912 L 7.58083,-4.79272 L 7.22476,-4.80673 L 7.18274,-4.80661
 L 6.85971,-4.79214 L 6.81131,-4.78761 L 6.50758,-4.74419 L 6.45511,-4.7338 L 6.17067,-4.66145 L 6.11546,-4.64395
 L 5.85031,-4.54265 L 5.79472,-4.51743 L 5.54886,-4.38719 L 5.49547,-4.35448 L 5.26889,-4.1953 L 5.22029,-4.1564
 L 5.01302,-3.96828 L 4.97127,-3.92558 L 4.78516,-3.71092 L 4.74995,-3.66525 L 4.5869,-3.42636 L 4.55846,-3.37932
 L 4.41847,-3.11618 L 4.39677,-3.06981 L 4.27983,-2.78244 L 4.26421,-2.7382 L 4.17033,-2.42659 L 4.15984,-2.38553
 L 4.08902,-2.04968 L 4.08261,-2.01228 L 4.03484,-1.65219 L 4.0314,-1.61673 L 4.03154,-1.55394 L 4.03955,-1.49167
 L 4.0553,-1.43088 L 4.07854,-1.37256 L 4.1089,-1.3176 L 4.14592,-1.26688 L 4.18901,-1.22119 L 4.23747,-1.18127
 L 4.29056,-1.14775 L 4.34744,-1.12114 L 4.4072,-1.10187 L 4.4689,-1.09024 L 4.53157,-1.08643 z
M 4.57826,-1.94652 L 4.64908,-2.28236 L 4.74295,-2.59398 L 4.85989,-2.88135 L 4.99988,-3.14449 L 5.16293,-3.38338
 L 5.34904,-3.59804 L 5.55632,-3.78616 L 5.7829,-3.94534 L 6.02876,-4.07558 L 6.29391,-4.17688 L 6.57835,-4.24922
 L 6.88208,-4.29265 L 7.20511,-4.30711 L 7.56117,-4.29311 L 7.89162,-4.25111 L 8.1964,-4.18112 L 8.47554,-4.08313
 L 8.72903,-3.95714 L 8.95688,-3.80315 L 9.15909,-3.62115 L 9.3354,-3.41188 L 9.48563,-3.17603 L 9.60973,-2.91359
 L 9.70772,-2.62456 L 9.7796,-2.30896 L 9.82538,-1.96677 L 9.84503,-1.59799 L 4.53049,-1.58643 z
M -19.9014,6.58998 L -19.1863,6.47812 L -18.5172,6.29167 L -17.8938,6.03065 L -17.3164,5.69505 L -16.7848,5.28487
 L -16.2991,4.80011 L -15.8694,4.2516 L -15.5058,3.65016 L -15.2083,2.99579 L -14.9769,2.2885 L -14.8116,1.52827
 L -14.7124,0.715118 L -14.6794,-0.150955 L -14.7124,-1.01704 L -14.8116,-1.83018 L -14.9769,-2.59042 L -15.2083,-3.29771
 L -15.5058,-3.95209 L -15.8694,-4.55353 L -16.2991,-5.10204 L -16.7848,-5.58679 L -17.3164,-5.99696 L -17.8938,-6.33257
 L -18.5172,-6.5936 L -19.1863,-6.78003 L -19.9014,-6.89191 L -20.6624,-6.9292 L -21.4203,-6.89191 L -22.1328,-6.78003
 L -22.8,-6.5936 L -23.4217,-6.33257 L -23.998,-5.99696 L -24.5289,-5.58679 L -25.0144,-5.10204 L -25.4441,-4.55353
 L -25.8076,-3.95209 L -26.1051,-3.29771 L -26.3365,-2.59042 L -26.5018,-1.83018 L -26.6009,-1.01704 L -26.634,-0.150955
 L -26.6009,0.715118 L -26.5018,1.52827 L -26.3365,2.2885 L -26.1051,2.99579 L -25.8076,3.65016 L -25.4441,4.2516
 L -25.0144,4.80011 L -24.5289,5.28487 L -23.998,5.69505 L -23.4217,6.03065 L -22.8,6.29167 L -22.1328,6.47812
 L -21.4203,6.58998 L -20.6624,6.62727 z
M -21.369,6.0919 L -22.0264,5.98869 L -22.6353,5.81851 L -23.1981,5.58228 L -23.7182,5.27937 L -24.198,4.90865
 L -24.6396,4.46774 L -25.0318,3.9671 L -25.3646,3.41658 L -25.6385,2.81407 L -25.8533,2.1573 L -26.0082,1.44473
 L -26.1021,0.675247 L -26.1336,-0.150955 L -26.1021,-0.977173 L -26.0082,-1.74664 L -25.8533,-2.45923 L -25.6385,-3.116
 L -25.3646,-3.71851 L -25.0318,-4.26903 L -24.6396,-4.76967 L -24.198,-5.21056 L -23.7182,-5.58128 L -23.1981,-5.88416
 L -22.6353,-6.12047 L -22.0264,-6.29063 L -21.3691,-6.39383 L -20.6624,-6.4286 L -19.9524,-6.3938 L -19.2925,-6.29056
 L -18.6815,-6.12033 L -18.117,-5.88394 L -17.5958,-5.58105 L -17.1156,-5.21045 L -16.6739,-4.76967 L -16.2817,-4.269
 L -15.9488,-3.71848 L -15.6749,-3.11597 L -15.46,-2.45917 L -15.3051,-1.74664 L -15.2113,-0.977142 L -15.1798,-0.150955
 L -15.2113,0.675217 L -15.3051,1.4447 L -15.4601,2.15727 L -15.6749,2.81404 L -15.9488,3.41655 L -16.2817,3.96707
 L -16.6739,4.46774 L -17.1155,4.90848 L -17.5959,5.27917 L -18.117,5.58203 L -18.6814,5.81839 L -19.2925,5.98865
 L -19.9523,6.09187 L -20.6624,6.12668 z
M -20.2919,4.3627 L -20.2231,4.35344 L -19.9064,4.28813 L -19.8343,4.26752 L -19.5393,4.15866 L -19.4689,4.1263
 L -19.1956,3.97391 L -19.1319,3.93173 L -18.8802,3.73579 L -18.8268,3.68765 L -18.5967,3.44818 L -18.5546,3.39825
 L -18.3462,3.11523 L -18.3145,3.06642 L -18.131,2.74458 L -18.107,2.69684 L -17.9518,2.34085 L -17.9346,2.29578
 L -17.8076,1.90565 L -17.796,1.86423 L -17.6972,1.43999 L -17.69,1.40266 L -17.6194,0.944275 L -17.6154,0.911011
 L -17.5731,0.418503 L -17.5714,0.389069 L -17.5573,-0.137558 L -17.5573,-0.164352 L -17.5714,-0.690994 L -17.5731,-0.720428
 L -17.6154,-1.21294 L -17.6194,-1.2462 L -17.69,-1.70457 L -17.6972,-1.7419 L -17.796,-2.16615 L -17.8076,-2.20758
 L -17.9346,-2.59769 L -17.9518,-2.64276 L -18.107,-2.99875 L -18.131,-3.04649 L -18.3145,-3.36835 L -18.3462,-3.41716
 L -18.5546,-3.70018 L -18.5967,-3.75011 L -18.8268,-3.98958 L -18.8802,-4.03772 L -19.1319,-4.23366 L -19.1956,-4.27583
 L -19.4689,-4.42822 L -19.5393,-4.46059 L -19.8343,-4.56944 L -19.9064,-4.59006 L -20.2231,-4.65536 L -20.2919,-4.66463
 L -20.6302,-4.6864 L -20.6948,-4.68639 L -21.0301,-4.66461 L -21.0994,-4.6552 L -21.4135,-4.58989 L -21.4859,-4.56905
 L -21.7789,-4.46019 L -21.8493,-4.42761 L -22.121,-4.27522 L -22.1844,-4.23299 L -22.435,-4.03705 L -22.4881,-3.98906
 L -22.7175,-3.74959 L -22.7592,-3.70001 L -22.9674,-3.41699 L -22.999,-3.36832 L -23.1825,-3.04646 L -23.2065,-2.99869
 L -23.3617,-2.6427 L -23.3788,-2.59764 L -23.5058,-2.20753 L -23.5174,-2.16614 L -23.6162,-1.74188 L -23.6234,-1.70456
 L -23.694,-1.24619 L -23.698,-1.21292 L -23.7403,-0.720413 L -23.7419,-0.690994 L -23.756,-0.164352 L -23.756,-0.137558
 L -23.7419,0.389069 L -23.7403,0.418488 L -23.698,0.910995 L -23.694,0.94426 L -23.6234,1.40265 L -23.6162,1.43997
 L -23.5174,1.86421 L -23.5058,1.90559 L -23.3788,2.29572 L -23.3617,2.34079 L -23.2065,2.69678 L -23.1825,2.74455
 L -22.999,3.06639 L -22.9674,3.11507 L -22.7592,3.39809 L -22.7175,3.44766 L -22.4881,3.68713 L -22.435,3.73512
 L -22.1844,3.93106 L -22.121,3.9733 L -21.8493,4.12569 L -21.7789,4.15826 L -21.4859,4.26712 L -21.4135,4.28796
 L -21.0994,4.35327 L -21.0301,4.36269 L -20.6948,4.38446 L -20.6302,4.38448 z
M -20.9977,3.86374 L -21.3118,3.79843 L -21.6047,3.68958 L -21.8765,3.53719 L -22.127,3.34125 L -22.3564,3.10178
 L -22.5647,2.81876 L -22.7482,2.49692 L -22.9034,2.14093 L -23.0304,1.75081 L -23.1292,1.32657 L -23.1998,0.868179
 L -23.2421,0.375671 L -23.2562,-0.150955 L -23.2421,-0.677597 L -23.1998,-1.1701 L -23.1292,-1.62848 L -23.0304,-2.05273
 L -22.9034,-2.44284 L -22.7482,-2.79883 L -22.5647,-3.12068 L -22.3564,-3.4037 L -22.127,-3.64317 L -21.8765,-3.83911
 L -21.6047,-3.9915 L -21.3118,-4.10036 L -20.9977,-4.16566 L -20.6624,-4.18744 L -20.3241,-4.16566 L -20.0074,-4.10036
 L -19.7124,-3.9915 L -19.439,-3.83911 L -19.1873,-3.64317 L -18.9573,-3.4037 L -18.7489,-3.12068 L -18.5653,-2.79883
 L -18.41,-2.44284 L -18.283,-2.05273 L -18.1842,-1.62848 L -18.1136,-1.1701 L -18.0712,-0.677597 L -18.0571,-0.150955
 L -18.0712,0.375671 L -18.1136,0.868179 L -18.1842,1.32657 L -18.283,1.75081 L -18.41,2.14093 L -18.5653,2.49692
 L -18.7489,2.81876 L -18.9573,3.10178 L -19.1873,3.34125 L -19.439,3.53719 L -19.7124,3.68958 L -20.0074,3.79843
 L -20.3241,3.86374 L -20.6624,3.88551 z
M -10.1698,-1.99631 L -10.1653,-2.38838 L -10.1519,-2.74141 L -10.1295,-3.05539 L -10.0983,-3.33032 L -10.0581,-3.56622
 L -10.0089,-3.76306 L -9.95081,-3.92087 L -9.88091,-4.04932 L -9.79643,-4.158 L -9.69737,-4.24693 L -9.58374,-4.3161
 L -9.45554,-4.36551 L -9.31274,-4.39516 L -9.15538,-4.40503 L -8.99773,-4.39491 L -8.8542,-4.36458 L -8.72481,-4.31401
 L -8.60951,-4.24323 L -8.50835,-4.15221 L -8.42131,-4.04095 L -8.34839,-3.90948 L -8.28723,-3.74908 L -8.23547,-3.55104
 L -8.19315,-3.31537 L -8.1602,-3.04205 L -8.13669,-2.73111 L -8.12257,-2.38252 L -8.11787,-1.99631 L -8.11787,6.28999
 L -5.38562,6.28999 L -5.38562,-1.99631 L -5.38092,-2.38252 L -5.36681,-2.73111 L -5.34329,-3.04205 L -5.31035,-3.31537
 L -5.26802,-3.55104 L -5.21626,-3.74908 L -5.15511,-3.90948 L -5.08218,-4.04095 L -4.99515,-4.15221 L -4.89398,-4.24323
 L -4.77869,-4.31401 L -4.64929,-4.36458 L -4.50577,-4.39491 L -4.34811,-4.40503 L -4.19075,-4.39516 L -4.04797,-4.36551
 L -3.91978,-4.3161 L -3.80617,-4.24693 L -3.70715,-4.158 L -3.62271,-4.04932 L -3.55286,-3.92087 L -3.49472,-3.76306
 L -3.44553,-3.56622 L -3.40527,-3.33032 L -3.37398,-3.05539 L -3.35161,-2.74141 L -3.3382,-2.38838 L -3.33372,-1.99631
 L -3.33372,6.28999 L -0.566971,6.28999 L -0.566971,-0.982086 L -0.580032,-1.97186 L -0.619217,-2.86003 L -0.684509,-3.64658
 L -0.775925,-4.33151 L -0.893448,-4.91483 L -1.03709,-5.39651 L -1.20686,-5.7766 L -1.41069,-6.08238 L -1.65665,-6.34113
 L -1.94472,-6.55283 L -2.2749,-6.71748 L -2.6472,-6.8351 L -3.06163,-6.90567 L -3.51817,-6.9292 L -3.7565,-6.9212
 L -3.98399,-6.89726 L -4.20067,-6.85735 L -4.40651,-6.80147 L -4.60153,-6.72961 L -4.78572,-6.6418 L -4.95909,-6.53802
 L -5.12282,-6.41757 L -5.27809,-6.27974 L -5.42488,-6.12451 L -5.56322,-5.95192 L -5.69308,-5.76193 L -5.81448,-5.55458
 L -5.92741,-5.32983 L -5.97731,-5.51642 L -6.0479,-5.69476 L -6.13921,-5.8649 L -6.25121,-6.02682 L -6.38393,-6.18051
 L -6.53734,-6.32597 L -6.71146,-6.46323 L -6.89871,-6.58685 L -7.0916,-6.69145 L -7.29015,-6.77704 L -7.49434,-6.84361
 L -7.70419,-6.89116 L -7.91968,-6.91968 L -8.14082,-6.9292 L -8.36172,-6.92015 L -8.57652,-6.89302 L -8.7852,-6.84782
 L -8.98776,-6.78453 L -9.18422,-6.70316 L -9.37456,-6.60371 L -9.55879,-6.48618 L -9.73289,-6.35313 L -9.89288,-6.20718
 L -10.0388,-6.04829 L -10.1705,-5.87651 L -10.2881,-5.69179 L -10.3916,-5.49416 L -10.481,-5.2836 L -10.481,-6.62456
 L -12.9365,-6.62456 L -12.9365,6.28999 L -10.1698,6.28999 z
M -12.4365,5.78999 L -12.4365,-6.12456 L -10.981,-6.12456 L -10.981,-5.2836 L -10.9785,-5.23309 L -10.9682,-5.17114
 L -10.9503,-5.11098 L -10.925,-5.05351 L -10.8926,-4.99969 L -10.8538,-4.95035 L -10.8091,-4.90627 L -10.7592,-4.86812
 L -10.7049,-4.83653 L -10.6471,-4.812 L -10.5867,-4.79489 L -10.5246,-4.78551 L -10.4619,-4.78397 L -10.3994,-4.79031
 L -10.3382,-4.80443 L -10.2793,-4.82611 L -10.2235,-4.85501 L -10.1718,-4.89066 L -10.125,-4.93251 L -10.0838,-4.97989
 L -10.0489,-5.03207 L -10.0208,-5.08821 L -9.93927,-5.28023 L -9.85504,-5.44102 L -9.76051,-5.58948 L -9.65544,-5.72649
 L -9.53951,-5.85277 L -9.412,-5.96909 L -9.27208,-6.076 L -9.12386,-6.17056 L -8.97241,-6.24968 L -8.81717,-6.314
 L -8.65733,-6.36394 L -8.49225,-6.39969 L -8.32013,-6.42143 L -8.14133,-6.42876 L -7.9633,-6.42108 L -7.79239,-6.39847
 L -7.62733,-6.36107 L -7.46692,-6.30878 L -7.3102,-6.24121 L -7.15613,-6.15765 L -7.00441,-6.0575 L -6.86479,-5.94743
 L -6.74606,-5.83487 L -6.6472,-5.72037 L -6.56644,-5.60362 L -6.50212,-5.48378 L -6.4529,-5.35938 L -6.41045,-5.20067
 L -6.38516,-5.12869 L -6.35635,-5.07291 L -6.32077,-5.02116 L -6.27898,-4.9743 L -6.23164,-4.93304 L -6.17952,-4.89804
 L -6.12341,-4.86984 L -6.06421,-4.84891 L -6.00285,-4.83556 L -5.94031,-4.83 L -5.87756,-4.83232 L -5.81561,-4.8425
 L -5.7554,-4.86035 L -5.69792,-4.8856 L -5.64406,-4.91788 L -5.59467,-4.95663 L -5.55051,-5.00128 L -5.5123,-5.05112
 L -5.48064,-5.10535 L -5.37488,-5.31583 L -5.27046,-5.49416 L -5.16119,-5.65402 L -5.04747,-5.7959 L -4.92979,-5.92033
 L -4.80807,-6.02838 L -4.68193,-6.1212 L -4.54913,-6.20068 L -4.4071,-6.2684 L -4.25443,-6.32465 L -4.08965,-6.36938
 L -3.91237,-6.40204 L -3.722,-6.42207 L -3.52267,-6.42876 L -3.11661,-6.40784 L -2.76505,-6.34796 L -2.46291,-6.25252
 L -2.2063,-6.12456 L -1.98845,-5.96445 L -1.80283,-5.7692 L -1.64622,-5.53424 L -1.5069,-5.22232 L -1.37915,-4.79391
 L -1.26933,-4.24886 L -1.18178,-3.59288 L -1.11829,-2.82812 L -1.07988,-1.95755 L -1.06697,-0.978958 L -1.06697,5.78999
 L -2.83372,5.78999 L -2.83372,-1.99631 L -2.83376,-2.00201 L -2.83823,-2.39409 L -2.83856,-2.40736 L -2.85197,-2.76039
 L -2.85287,-2.77695 L -2.87524,-3.09093 L -2.87718,-3.11194 L -2.90848,-3.38687 L -2.9124,-3.41443 L -2.95265,-3.65033
 L -2.96045,-3.68745 L -3.00964,-3.88429 L -3.02554,-3.93591 L -3.08368,-4.09372 L -3.11362,-4.15974 L -3.18347,-4.28819
 L -3.22787,-4.35608 L -3.31232,-4.46477 L -3.37305,-4.53 L -3.47206,-4.61893 L -3.54617,-4.67401 L -3.65979,-4.74318
 L -3.73996,-4.78265 L -3.86815,-4.83206 L -3.94632,-4.85507 L -4.0891,-4.88472 L -4.15944,-4.89418 L -4.3168,-4.90405
 L -4.38013,-4.90401 L -4.53778,-4.89389 L -4.60916,-4.88411 L -4.75269,-4.85378 L -4.83128,-4.83028 L -4.96068,-4.77971
 L -5.0403,-4.74011 L -5.15559,-4.66933 L -5.22841,-4.61493 L -5.32957,-4.52391 L -5.38895,-4.4603 L -5.47598,-4.34904
 L -5.51942,-4.28348 L -5.59235,-4.15201 L -5.6223,-4.08762 L -5.68346,-3.92722 L -5.70001,-3.8755 L -5.75177,-3.67746
 L -5.76015,-3.63943 L -5.80247,-3.40376 L -5.80676,-3.3752 L -5.83971,-3.10188 L -5.84187,-3.07976 L -5.86539,-2.76881
 L -5.86639,-2.75134 L -5.88051,-2.40276 L -5.88089,-2.38861 L -5.88559,-2.0024 L -5.88562,-1.99631 L -5.88562,5.78999
 L -7.61787,5.78999 L -7.61787,-1.99631 L -7.6179,-2.0024 L -7.6226,-2.38861 L -7.62299,-2.40276 L -7.6371,-2.75134
 L -7.63811,-2.76881 L -7.66162,-3.07976 L -7.66379,-3.10188 L -7.69673,-3.3752 L -7.70102,-3.40376 L -7.74335,-3.63943
 L -7.75172,-3.67746 L -7.80348,-3.8755 L -7.82004,-3.92722 L -7.8812,-4.08762 L -7.91115,-4.15201 L -7.98407,-4.28348
 L -8.02751,-4.34904 L -8.11455,-4.4603 L -8.17392,-4.52391 L -8.27509,-4.61493 L -8.3479,-4.66933 L -8.4632,-4.74011
 L -8.54282,-4.77971 L -8.67221,-4.83028 L -8.75081,-4.85378 L -8.89433,-4.88411 L -8.96571,-4.89389 L -9.12337,-4.90401
 L -9.18669,-4.90405 L -9.34406,-4.89418 L -9.4144,-4.88472 L -9.55719,-4.85507 L -9.63535,-4.83206 L -9.76355,-4.78265
 L -9.84372,-4.74319 L -9.95735,-4.67403 L -10.0314,-4.619 L -10.1304,-4.53008 L -10.1912,-4.46483 L -10.2757,-4.35614
 L -10.3201,-4.28831 L -10.39,-4.15987 L -10.42,-4.0936 L -10.4781,-3.93579 L -10.494,-3.88422 L -10.5432,-3.68738
 L -10.5509,-3.65024 L -10.5912,-3.41434 L -10.5951,-3.38684 L -10.6263,-3.11191 L -10.6283,-3.09087 L -10.6506,-2.77689
 L -10.6515,-2.76039 L -10.6649,-2.40736 L -10.6653,-2.39409 L -10.6697,-2.00201 L -10.6698,-1.99631 L -10.6698,5.78999
 z
M 20.6144,0.343567 L 20.6166,-0.00526428 L 20.6233,-0.327759 L 20.6345,-0.623932 L 20.6501,-0.893768 L 20.6703,-1.13728
 L 20.6948,-1.35445 L 20.7239,-1.54529 L 20.7586,-1.71925 L 20.8001,-1.8857 L 20.8484,-2.04462 L 20.9036,-2.19601
 L 20.9656,-2.33989 L 21.0345,-2.47624 L 21.1101,-2.60507 L 21.2427,-2.80214 L 21.3901,-2.98535 L 21.5523,-3.15468
 L 21.7293,-3.31017 L 21.9211,-3.45178 L 22.1278,-3.57953 L 22.3492,-3.69341 L 22.5837,-3.79272 L 22.8292,-3.87677
 L 23.0858,-3.94553 L 23.3534,-3.99899 L 23.6321,-4.0372 L 23.9218,-4.06012 L 24.2226,-4.06775 L 24.4733,-4.06259
 L 24.7181,-4.0471 L 24.957,-4.02129 L 25.19,-3.98515 L 25.4171,-3.93869 L 25.6384,-3.8819 L 25.8538,-3.81479
 L 26.0624,-3.73735 L 26.2632,-3.6496 L 26.4562,-3.55151 L 26.6415,-3.4431 L 26.819,-3.32436 L 26.9887,-3.1953
 L 27.1507,-3.05591 L 27.1507,-6.2764 L 26.9782,-6.36484 L 26.803,-6.44699 L 26.6253,-6.52283 L 26.445,-6.59236
 L 26.2621,-6.65558 L 26.0766,-6.71249 L 25.8885,-6.76311 L 25.6985,-6.80717 L 25.5074,-6.84445 L 25.315,-6.87495
 L 25.1215,-6.89868 L 24.9268,-6.91563 L 24.731,-6.9258 L 24.5339,-6.9292 L 24.149,-6.91684 L 23.7782,-6.87976
 L 23.4215,-6.81798 L 23.079,-6.73146 L 22.7506,-6.62024 L 22.4362,-6.4843 L 22.1361,-6.32365 L 21.8538,-6.14046
 L 21.5931,-5.93677 L 21.3541,-5.71262 L 21.1367,-5.46799 L 20.9409,-5.20288 L 20.7668,-4.9173 L 20.6144,-4.61124
 L 20.6144,-6.62456 L 17.2365,-6.62456 L 17.2365,6.28999 L 20.6144,6.28999 z
M 17.7365,5.78999 L 17.7365,-6.12456 L 20.1144,-6.12456 L 20.1144,-4.61124 L 20.1213,-4.52852 L 20.1355,-4.46738
 L 20.1573,-4.40849 L 20.1864,-4.35281 L 20.2221,-4.30119 L 20.2641,-4.25447 L 20.3116,-4.21338 L 20.3638,-4.17856
 L 20.42,-4.15057 L 20.4793,-4.12984 L 20.5407,-4.1167 L 20.6032,-4.11136 L 20.666,-4.11391 L 20.7279,-4.1243
 L 20.788,-4.14236 L 20.8454,-4.16782 L 20.8992,-4.20027 L 20.9485,-4.23921 L 20.9924,-4.28401 L 21.0305,-4.33397
 L 21.062,-4.38831 L 21.2049,-4.67525 L 21.3564,-4.92374 L 21.5255,-5.15276 L 21.7127,-5.36353 L 21.9187,-5.55664
 L 22.1444,-5.733 L 22.3905,-5.89275 L 22.6537,-6.03358 L 22.9303,-6.15323 L 23.2207,-6.25156 L 23.5255,-6.32855
 L 23.8459,-6.38403 L 24.1819,-6.41763 L 24.5376,-6.42906 L 24.7136,-6.42603 L 24.8924,-6.41675 L 25.0694,-6.40134
 L 25.2455,-6.37975 L 25.4202,-6.35204 L 25.5942,-6.3181 L 25.7671,-6.278 L 25.9382,-6.23195 L 26.1067,-6.18025
 L 26.2736,-6.12257 L 26.437,-6.05956 L 26.5988,-5.99054 L 26.6507,-5.96616 L 26.6507,-4.0135 L 26.4897,-4.09535
 L 26.4634,-4.10776 L 26.2626,-4.19551 L 26.2364,-4.20609 L 26.0278,-4.28352 L 26.0025,-4.29216 L 25.7872,-4.35927
 L 25.7627,-4.3662 L 25.5415,-4.42299 L 25.5173,-4.42854 L 25.2902,-4.47501 L 25.2666,-4.47925 L 25.0336,-4.51538
 L 25.0107,-4.51839 L 24.7718,-4.5442 L 24.7496,-4.54611 L 24.5049,-4.5616 L 24.4836,-4.56248 L 24.2329,-4.56764
 L 24.21,-4.56758 L 23.9092,-4.55995 L 23.8824,-4.55856 L 23.5927,-4.53564 L 23.5642,-4.53256 L 23.2855,-4.49435
 L 23.2554,-4.4893 L 22.9878,-4.43584 L 22.9563,-4.42848 L 22.6998,-4.35973 L 22.6673,-4.34982 L 22.4218,-4.26578
 L 22.3887,-4.25311 L 22.1542,-4.15379 L 22.1206,-4.13806 L 21.8991,-4.02419 L 21.8649,-4.00482 L 21.6582,-3.87708
 L 21.6242,-3.85405 L 21.4323,-3.71243 L 21.3993,-3.68582 L 21.2223,-3.53033 L 21.1912,-3.50056 L 21.029,-3.33124
 L 21.0005,-3.29875 L 20.8531,-3.11554 L 20.8278,-3.08122 L 20.6953,-2.88416 L 20.679,-2.85829 L 20.6033,-2.72946
 L 20.5881,-2.70157 L 20.5193,-2.56522 L 20.5064,-2.53775 L 20.4444,-2.39388 L 20.4339,-2.36726 L 20.3787,-2.21587
 L 20.3701,-2.19012 L 20.3217,-2.0312 L 20.315,-2.00671 L 20.2734,-1.84027 L 20.2682,-1.81706 L 20.2335,-1.6431
 L 20.2296,-1.62054 L 20.2005,-1.4297 L 20.198,-1.41064 L 20.1734,-1.19348 L 20.172,-1.17844 L 20.1518,-0.934921
 L 20.151,-0.922699 L 20.1353,-0.652863 L 20.1349,-0.642776 L 20.1237,-0.346603 L 20.1234,-0.338135 L 20.1167,-0.0156403
 L 20.1167,-0.00848389 L 20.1144,0.340347 L 20.1144,5.78999 z
" stroke="black" fill="lightgray" stroke-width="0.5"/>
</svg>
