  0
SECTION
  2
BLOCKS
  0
ENDSEC
  0
SECTION
  2
ENTITIES
  0
LINE
  8
0
 10
14.8033
 20
-6.58998
 11
15.5184
 21
-6.47812
  0
LINE
  8
0
 10
15.5184
 20
-6.47812
 11
16.1876
 21
-6.29167
  0
LINE
  8
0
 10
16.1876
 20
-6.29167
 11
16.8109
 21
-6.03065
  0
LINE
  8
0
 10
16.8109
 20
-6.03065
 11
17.2365
 21
-5.78329
  0
LINE
  8
0
 10
17.2365
 20
-5.78329
 11
17.2365
 21
-6.28999
  0
LINE
  8
0
 10
17.2365
 20
-6.28999
 11
20.6144
 21
-6.28999
  0
LINE
  8
0
 10
20.6144
 20
-6.28999
 11
20.6144
 21
-0.343567
  0
LINE
  8
0
 10
20.6144
 20
-0.343567
 11
20.6166
 21
0.00526428
  0
LINE
  8
0
 10
20.6166
 20
0.00526428
 11
20.6233
 21
0.327759
  0
LINE
  8
0
 10
20.6233
 20
0.327759
 11
20.6345
 21
0.623932
  0
LINE
  8
0
 10
20.6345
 20
0.623932
 11
20.6501
 21
0.893768
  0
LINE
  8
0
 10
20.6501
 20
0.893768
 11
20.6703
 21
1.13728
  0
LINE
  8
0
 10
20.6703
 20
1.13728
 11
20.6948
 21
1.35445
  0
LINE
  8
0
 10
20.6948
 20
1.35445
 11
20.7239
 21
1.54529
  0
LINE
  8
0
 10
20.7239
 20
1.54529
 11
20.7586
 21
1.71925
  0
LINE
  8
0
 10
20.7586
 20
1.71925
 11
20.8001
 21
1.8857
  0
LINE
  8
0
 10
20.8001
 20
1.8857
 11
20.8484
 21
2.04462
  0
LINE
  8
0
 10
20.8484
 20
2.04462
 11
20.9036
 21
2.19601
  0
LINE
  8
0
 10
20.9036
 20
2.19601
 11
20.9656
 21
2.33989
  0
LINE
  8
0
 10
20.9656
 20
2.33989
 11
21.0345
 21
2.47624
  0
LINE
  8
0
 10
21.0345
 20
2.47624
 11
21.1101
 21
2.60507
  0
LINE
  8
0
 10
21.1101
 20
2.60507
 11
21.2427
 21
2.80214
  0
LINE
  8
0
 10
21.2427
 20
2.80214
 11
21.3901
 21
2.98535
  0
LINE
  8
0
 10
21.3901
 20
2.98535
 11
21.5523
 21
3.15468
  0
LINE
  8
0
 10
21.5523
 20
3.15468
 11
21.7293
 21
3.31017
  0
LINE
  8
0
 10
21.7293
 20
3.31017
 11
21.9211
 21
3.45178
  0
LINE
  8
0
 10
21.9211
 20
3.45178
 11
22.1278
 21
3.57953
  0
LINE
  8
0
 10
22.1278
 20
3.57953
 11
22.3492
 21
3.69341
  0
LINE
  8
0
 10
22.3492
 20
3.69341
 11
22.5837
 21
3.79272
  0
LINE
  8
0
 10
22.5837
 20
3.79272
 11
22.8057
 21
3.86871
  0
LINE
  8
0
 10
22.8057
 20
3.86871
 11
22.8057
 21
-6.28999
  0
LINE
  8
0
 10
22.8057
 20
-6.28999
 11
26.1603
 21
-6.28999
  0
LINE
  8
0
 10
26.1603
 20
-6.28999
 11
26.1603
 21
1.09836
  0
LINE
  8
0
 10
26.1603
 20
1.09836
 11
26.171
 21
1.50037
  0
LINE
  8
0
 10
26.171
 20
1.50037
 11
26.2031
 21
1.87651
  0
LINE
  8
0
 10
26.2031
 20
1.87651
 11
26.2567
 21
2.22676
  0
LINE
  8
0
 10
26.2567
 20
2.22676
 11
26.3316
 21
2.55115
  0
LINE
  8
0
 10
26.3316
 20
2.55115
 11
26.4279
 21
2.84966
  0
LINE
  8
0
 10
26.4279
 20
2.84966
 11
26.5456
 21
3.1223
  0
LINE
  8
0
 10
26.5456
 20
3.1223
 11
26.6848
 21
3.36905
  0
LINE
  8
0
 10
26.6848
 20
3.36905
 11
26.7068
 21
3.39938
  0
LINE
  8
0
 10
26.7068
 20
3.39938
 11
26.819
 21
3.32436
  0
LINE
  8
0
 10
26.819
 20
3.32436
 11
26.9887
 21
3.1953
  0
LINE
  8
0
 10
26.9887
 20
3.1953
 11
27.1507
 21
3.05591
  0
LINE
  8
0
 10
27.1507
 20
3.05591
 11
27.1507
 21
3.87683
  0
LINE
  8
0
 10
27.1507
 20
3.87683
 11
27.2054
 21
3.92021
  0
LINE
  8
0
 10
27.2054
 20
3.92021
 11
27.4104
 21
4.03712
  0
LINE
  8
0
 10
27.4104
 20
4.03712
 11
27.6312
 21
4.12062
  0
LINE
  8
0
 10
27.6312
 20
4.12062
 11
27.8678
 21
4.17073
  0
LINE
  8
0
 10
27.8678
 20
4.17073
 11
28.1201
 21
4.18744
  0
LINE
  8
0
 10
28.1201
 20
4.18744
 11
28.3668
 21
4.17508
  0
LINE
  8
0
 10
28.3668
 20
4.17508
 11
28.593
 21
4.13803
  0
LINE
  8
0
 10
28.593
 20
4.13803
 11
28.7988
 21
4.07628
  0
LINE
  8
0
 10
28.7988
 20
4.07628
 11
28.984
 21
3.98982
  0
LINE
  8
0
 10
28.984
 20
3.98982
 11
29.1488
 21
3.87866
  0
LINE
  8
0
 10
29.1488
 20
3.87866
 11
29.2932
 21
3.7428
  0
LINE
  8
0
 10
29.2932
 20
3.7428
 11
29.417
 21
3.58223
  0
LINE
  8
0
 10
29.417
 20
3.58223
 11
29.5226
 21
3.39302
  0
LINE
  8
0
 10
29.5226
 20
3.39302
 11
29.6119
 21
3.1711
  0
LINE
  8
0
 10
29.6119
 20
3.1711
 11
29.6849
 21
2.91647
  0
LINE
  8
0
 10
29.6849
 20
2.91647
 11
29.7417
 21
2.62915
  0
LINE
  8
0
 10
29.7417
 20
2.62915
 11
29.7823
 21
2.30913
  0
LINE
  8
0
 10
29.7823
 20
2.30913
 11
29.8067
 21
1.95639
  0
LINE
  8
0
 10
29.8067
 20
1.95639
 11
29.8148
 21
1.57097
  0
LINE
  8
0
 10
29.8148
 20
1.57097
 11
29.8148
 21
-6.28999
  0
LINE
  8
0
 10
29.8148
 20
-6.28999
 11
32.8685
 21
-6.28999
  0
LINE
  8
0
 10
32.8685
 20
-6.28999
 11
32.9463
 21
-6.23351
  0
LINE
  8
0
 10
32.9463
 20
-6.23351
 11
33.1113
 21
-6.14275
  0
LINE
  8
0
 10
33.1113
 20
-6.14275
 11
33.1694
 21
-6.11975
  0
LINE
  8
0
 10
33.1694
 20
-6.11975
 11
33.1694
 21
-1.38023
  0
LINE
  8
0
 10
33.1694
 20
-1.38023
 11
33.1113
 21
-1.35724
  0
LINE
  8
0
 10
33.1113
 20
-1.35724
 11
32.9463
 21
-1.26648
  0
LINE
  8
0
 10
32.9463
 20
-1.26648
 11
32.7939
 21
-1.15576
  0
LINE
  8
0
 10
32.7939
 20
-1.15576
 11
32.6694
 21
-1.03889
  0
LINE
  8
0
 10
32.6694
 20
-1.03889
 11
32.6694
 21
-5.78999
  0
LINE
  8
0
 10
32.6694
 20
-5.78999
 11
30.3148
 21
-5.78999
  0
LINE
  8
0
 10
30.3148
 20
-5.78999
 11
30.3148
 21
1.57097
  0
LINE
  8
0
 10
30.3148
 20
1.57097
 11
30.3147
 21
1.5815
  0
LINE
  8
0
 10
30.3147
 20
1.5815
 11
30.3066
 21
1.96692
  0
LINE
  8
0
 10
30.3066
 20
1.96692
 11
30.3055
 21
1.99084
  0
LINE
  8
0
 10
30.3055
 20
1.99084
 11
30.2811
 21
2.34358
  0
LINE
  8
0
 10
30.2811
 20
2.34358
 11
30.2784
 21
2.37204
  0
LINE
  8
0
 10
30.2784
 20
2.37204
 11
30.2378
 21
2.69206
  0
LINE
  8
0
 10
30.2378
 20
2.69206
 11
30.2322
 21
2.72615
  0
LINE
  8
0
 10
30.2322
 20
2.72615
 11
30.1754
 21
3.01347
  0
LINE
  8
0
 10
30.1754
 20
3.01347
 11
30.1655
 21
3.05437
  0
LINE
  8
0
 10
30.1655
 20
3.05437
 11
30.0925
 21
3.30899
  0
LINE
  8
0
 10
30.0925
 20
3.30899
 11
30.0757
 21
3.35776
  0
LINE
  8
0
 10
30.0757
 20
3.35776
 11
29.9864
 21
3.57968
  0
LINE
  8
0
 10
29.9864
 20
3.57968
 11
29.9592
 21
3.6366
  0
LINE
  8
0
 10
29.9592
 20
3.6366
 11
29.8537
 21
3.82581
  0
LINE
  8
0
 10
29.8537
 20
3.82581
 11
29.8129
 21
3.88759
  0
LINE
  8
0
 10
29.8129
 20
3.88759
 11
29.6891
 21
4.04816
  0
LINE
  8
0
 10
29.6891
 20
4.04816
 11
29.6359
 21
4.10686
  0
LINE
  8
0
 10
29.6359
 20
4.10686
 11
29.4916
 21
4.24272
  0
LINE
  8
0
 10
29.4916
 20
4.24272
 11
29.4284
 21
4.29318
  0
LINE
  8
0
 10
29.4284
 20
4.29318
 11
29.2636
 21
4.40434
  0
LINE
  8
0
 10
29.2636
 20
4.40434
 11
29.1955
 21
4.44292
  0
LINE
  8
0
 10
29.1955
 20
4.44292
 11
29.0102
 21
4.52937
  0
LINE
  8
0
 10
29.0102
 20
4.52937
 11
28.9425
 21
4.55518
  0
LINE
  8
0
 10
28.9425
 20
4.55518
 11
28.7368
 21
4.61693
  0
LINE
  8
0
 10
28.7368
 20
4.61693
 11
28.6738
 21
4.63145
  0
LINE
  8
0
 10
28.6738
 20
4.63145
 11
28.4476
 21
4.6685
  0
LINE
  8
0
 10
28.4476
 20
4.6685
 11
28.3918
 21
4.67445
  0
LINE
  8
0
 10
28.3918
 20
4.67445
 11
28.1451
 21
4.68681
  0
LINE
  8
0
 10
28.1451
 20
4.68681
 11
28.0871
 21
4.68634
  0
LINE
  8
0
 10
28.0871
 20
4.68634
 11
27.8347
 21
4.66963
  0
LINE
  8
0
 10
27.8347
 20
4.66963
 11
27.7641
 21
4.65988
  0
LINE
  8
0
 10
27.7641
 20
4.65988
 11
27.5276
 21
4.60977
  0
LINE
  8
0
 10
27.5276
 20
4.60977
 11
27.4544
 21
4.5883
  0
LINE
  8
0
 10
27.4544
 20
4.5883
 11
27.2336
 21
4.50481
  0
LINE
  8
0
 10
27.2336
 20
4.50481
 11
27.1627
 21
4.47148
  0
LINE
  8
0
 10
27.1627
 20
4.47148
 11
27.1507
 21
4.46463
  0
LINE
  8
0
 10
27.1507
 20
4.46463
 11
27.1507
 21
5.46513
  0
LINE
  8
0
 10
27.1507
 20
5.46513
 11
27.285
 21
5.61444
  0
LINE
  8
0
 10
27.285
 20
5.61444
 11
27.4651
 21
5.77901
  0
LINE
  8
0
 10
27.4651
 20
5.77901
 11
27.6635
 21
5.92795
  0
LINE
  8
0
 10
27.6635
 20
5.92795
 11
27.8778
 21
6.05916
  0
LINE
  8
0
 10
27.8778
 20
6.05916
 11
28.1048
 21
6.17047
  0
LINE
  8
0
 10
28.1048
 20
6.17047
 11
28.3459
 21
6.26219
  0
LINE
  8
0
 10
28.3459
 20
6.26219
 11
28.6021
 21
6.33427
  0
LINE
  8
0
 10
28.6021
 20
6.33427
 11
28.8743
 21
6.38644
  0
LINE
  8
0
 10
28.8743
 20
6.38644
 11
29.1631
 21
6.41817
  0
LINE
  8
0
 10
29.1631
 20
6.41817
 11
29.4653
 21
6.42877
  0
LINE
  8
0
 10
29.4653
 20
6.42877
 11
29.9227
 21
6.40631
  0
LINE
  8
0
 10
29.9227
 20
6.40631
 11
30.3342
 21
6.34096
  0
LINE
  8
0
 10
30.3342
 20
6.34096
 11
30.7045
 21
6.2346
  0
LINE
  8
0
 10
30.7045
 20
6.2346
 11
31.0361
 21
6.08891
  0
LINE
  8
0
 10
31.0361
 20
6.08891
 11
31.3332
 21
5.90387
  0
LINE
  8
0
 10
31.3332
 20
5.90387
 11
31.5996
 21
5.67795
  0
LINE
  8
0
 10
31.5996
 20
5.67795
 11
31.8385
 21
5.40785
  0
LINE
  8
0
 10
31.8385
 20
5.40785
 11
32.05
 21
5.09053
  0
LINE
  8
0
 10
32.05
 20
5.09053
 11
32.233
 21
4.72356
  0
LINE
  8
0
 10
32.233
 20
4.72356
 11
32.3865
 21
4.3038
  0
LINE
  8
0
 10
32.3865
 20
4.3038
 11
32.5084
 21
3.83083
  0
LINE
  8
0
 10
32.5084
 20
3.83083
 11
32.5971
 21
3.30357
  0
LINE
  8
0
 10
32.5971
 20
3.30357
 11
32.651
 21
2.72301
  0
LINE
  8
0
 10
32.651
 20
2.72301
 11
32.6694
 21
2.08272
  0
LINE
  8
0
 10
32.6694
 20
2.08272
 11
32.6694
 21
1.03889
  0
LINE
  8
0
 10
32.6694
 20
1.03889
 11
32.7939
 21
1.15576
  0
LINE
  8
0
 10
32.7939
 20
1.15576
 11
32.9463
 21
1.26648
  0
LINE
  8
0
 10
32.9463
 20
1.26648
 11
33.1113
 21
1.35724
  0
LINE
  8
0
 10
33.1113
 20
1.35724
 11
33.1694
 21
1.38023
  0
LINE
  8
0
 10
33.1694
 20
1.38023
 11
33.1694
 21
2.08963
  0
LINE
  8
0
 10
33.1694
 20
2.08963
 11
33.1504
 21
2.75336
  0
LINE
  8
0
 10
33.1504
 20
2.75336
 11
33.0932
 21
3.36841
  0
LINE
  8
0
 10
33.0932
 20
3.36841
 11
32.9979
 21
3.93478
  0
LINE
  8
0
 10
32.9979
 20
3.93478
 11
32.8645
 21
4.45248
  0
LINE
  8
0
 10
32.8645
 20
4.45248
 11
32.693
 21
4.92151
  0
LINE
  8
0
 10
32.693
 20
4.92151
 11
32.4834
 21
5.34186
  0
LINE
  8
0
 10
32.4834
 20
5.34186
 11
32.2356
 21
5.71352
  0
LINE
  8
0
 10
32.2356
 20
5.71352
 11
31.9505
 21
6.03604
  0
LINE
  8
0
 10
31.9505
 20
6.03604
 11
31.6286
 21
6.30896
  0
LINE
  8
0
 10
31.6286
 20
6.30896
 11
31.2701
 21
6.53224
  0
LINE
  8
0
 10
31.2701
 20
6.53224
 11
30.8748
 21
6.7059
  0
LINE
  8
0
 10
30.8748
 20
6.7059
 11
30.4429
 21
6.82996
  0
LINE
  8
0
 10
30.4429
 20
6.82996
 11
29.9742
 21
6.90439
  0
LINE
  8
0
 10
29.9742
 20
6.90439
 11
29.4689
 21
6.9292
  0
LINE
  8
0
 10
29.4689
 20
6.9292
 11
29.127
 21
6.91721
  0
LINE
  8
0
 10
29.127
 20
6.91721
 11
28.7998
 21
6.88126
  0
LINE
  8
0
 10
28.7998
 20
6.88126
 11
28.4871
 21
6.82135
  0
LINE
  8
0
 10
28.4871
 20
6.82135
 11
28.189
 21
6.73746
  0
LINE
  8
0
 10
28.189
 20
6.73746
 11
27.9055
 21
6.62961
  0
LINE
  8
0
 10
27.9055
 20
6.62961
 11
27.6366
 21
6.49779
  0
LINE
  8
0
 10
27.6366
 20
6.49779
 11
27.3823
 21
6.34201
  0
LINE
  8
0
 10
27.3823
 20
6.34201
 11
27.1507
 21
6.16823
  0
LINE
  8
0
 10
27.1507
 20
6.16823
 11
27.1507
 21
6.2764
  0
LINE
  8
0
 10
27.1507
 20
6.2764
 11
26.9782
 21
6.36484
  0
LINE
  8
0
 10
26.9782
 20
6.36484
 11
26.803
 21
6.44699
  0
LINE
  8
0
 10
26.803
 20
6.44699
 11
26.6253
 21
6.52283
  0
LINE
  8
0
 10
26.6253
 20
6.52283
 11
26.445
 21
6.59236
  0
LINE
  8
0
 10
26.445
 20
6.59236
 11
26.2621
 21
6.65558
  0
LINE
  8
0
 10
26.2621
 20
6.65558
 11
26.0766
 21
6.71249
  0
LINE
  8
0
 10
26.0766
 20
6.71249
 11
25.8885
 21
6.76311
  0
LINE
  8
0
 10
25.8885
 20
6.76311
 11
25.6985
 21
6.80717
  0
LINE
  8
0
 10
25.6985
 20
6.80717
 11
25.5074
 21
6.84445
  0
LINE
  8
0
 10
25.5074
 20
6.84445
 11
25.315
 21
6.87495
  0
LINE
  8
0
 10
25.315
 20
6.87495
 11
25.1215
 21
6.89868
  0
LINE
  8
0
 10
25.1215
 20
6.89868
 11
24.9268
 21
6.91563
  0
LINE
  8
0
 10
24.9268
 20
6.91563
 11
24.731
 21
6.9258
  0
LINE
  8
0
 10
24.731
 20
6.9258
 11
24.5339
 21
6.9292
  0
LINE
  8
0
 10
24.5339
 20
6.9292
 11
24.149
 21
6.91684
  0
LINE
  8
0
 10
24.149
 20
6.91684
 11
23.7782
 21
6.87976
  0
LINE
  8
0
 10
23.7782
 20
6.87976
 11
23.4215
 21
6.81798
  0
LINE
  8
0
 10
23.4215
 20
6.81798
 11
23.079
 21
6.73146
  0
LINE
  8
0
 10
23.079
 20
6.73146
 11
22.7506
 21
6.62024
  0
LINE
  8
0
 10
22.7506
 20
6.62024
 11
22.4362
 21
6.4843
  0
LINE
  8
0
 10
22.4362
 20
6.4843
 11
22.1361
 21
6.32365
  0
LINE
  8
0
 10
22.1361
 20
6.32365
 11
21.8538
 21
6.14046
  0
LINE
  8
0
 10
21.8538
 20
6.14046
 11
21.5931
 21
5.93677
  0
LINE
  8
0
 10
21.5931
 20
5.93677
 11
21.3541
 21
5.71262
  0
LINE
  8
0
 10
21.3541
 20
5.71262
 11
21.1367
 21
5.46799
  0
LINE
  8
0
 10
21.1367
 20
5.46799
 11
20.9409
 21
5.20288
  0
LINE
  8
0
 10
20.9409
 20
5.20288
 11
20.7668
 21
4.9173
  0
LINE
  8
0
 10
20.7668
 20
4.9173
 11
20.6144
 21
4.61124
  0
LINE
  8
0
 10
20.6144
 20
4.61124
 11
20.6144
 21
6.62456
  0
LINE
  8
0
 10
20.6144
 20
6.62456
 11
17.2365
 21
6.62456
  0
LINE
  8
0
 10
17.2365
 20
6.62456
 11
17.2365
 21
6.08521
  0
LINE
  8
0
 10
17.2365
 20
6.08521
 11
16.8109
 21
6.33257
  0
LINE
  8
0
 10
16.8109
 20
6.33257
 11
16.1876
 21
6.5936
  0
LINE
  8
0
 10
16.1876
 20
6.5936
 11
15.5184
 21
6.78003
  0
LINE
  8
0
 10
15.5184
 20
6.78003
 11
14.8033
 21
6.89191
  0
LINE
  8
0
 10
14.8033
 20
6.89191
 11
14.0423
 21
6.9292
  0
LINE
  8
0
 10
14.0423
 20
6.9292
 11
13.2844
 21
6.89191
  0
LINE
  8
0
 10
13.2844
 20
6.89191
 11
12.5719
 21
6.78003
  0
LINE
  8
0
 10
12.5719
 20
6.78003
 11
11.9048
 21
6.5936
  0
LINE
  8
0
 10
11.9048
 20
6.5936
 11
11.2831
 21
6.33257
  0
LINE
  8
0
 10
11.2831
 20
6.33257
 11
10.7247
 21
6.00739
  0
LINE
  8
0
 10
10.7247
 20
6.00739
 11
10.6501
 21
6.06097
  0
LINE
  8
0
 10
10.6501
 20
6.06097
 11
10.066
 21
6.37354
  0
LINE
  8
0
 10
10.066
 20
6.37354
 11
9.42952
 21
6.61664
  0
LINE
  8
0
 10
9.42952
 20
6.61664
 11
8.74051
 21
6.79028
  0
LINE
  8
0
 10
8.74051
 20
6.79028
 11
7.99904
 21
6.89447
  0
LINE
  8
0
 10
7.99904
 20
6.89447
 11
7.20511
 21
6.9292
  0
LINE
  8
0
 10
7.20511
 20
6.9292
 11
6.416
 21
6.89178
  0
LINE
  8
0
 10
6.416
 20
6.89178
 11
5.67584
 21
6.77957
  0
LINE
  8
0
 10
5.67584
 20
6.77957
 11
5.33537
 21
6.68744
  0
LINE
  8
0
 10
5.33537
 20
6.68744
 11
5.25372
 21
6.71249
  0
LINE
  8
0
 10
5.25372
 20
6.71249
 11
5.06563
 21
6.76311
  0
LINE
  8
0
 10
5.06563
 20
6.76311
 11
4.87567
 21
6.80717
  0
LINE
  8
0
 10
4.87567
 20
6.80717
 11
4.68451
 21
6.84445
  0
LINE
  8
0
 10
4.68451
 20
6.84445
 11
4.49219
 21
6.87495
  0
LINE
  8
0
 10
4.49219
 20
6.87495
 11
4.29868
 21
6.89868
  0
LINE
  8
0
 10
4.29868
 20
6.89868
 11
4.10399
 21
6.91563
  0
LINE
  8
0
 10
4.10399
 20
6.91563
 11
3.90813
 21
6.9258
  0
LINE
  8
0
 10
3.90813
 20
6.9258
 11
3.71107
 21
6.9292
  0
LINE
  8
0
 10
3.71107
 20
6.9292
 11
3.32616
 21
6.91684
  0
LINE
  8
0
 10
3.32616
 20
6.91684
 11
2.95537
 21
6.87976
  0
LINE
  8
0
 10
2.95537
 20
6.87976
 11
2.59871
 21
6.81798
  0
LINE
  8
0
 10
2.59871
 20
6.81798
 11
2.25615
 21
6.73146
  0
LINE
  8
0
 10
2.25615
 20
6.73146
 11
1.92772
 21
6.62024
  0
LINE
  8
0
 10
1.92772
 20
6.62024
 11
1.61342
 21
6.4843
  0
LINE
  8
0
 10
1.61342
 20
6.4843
 11
1.31323
 21
6.32365
  0
LINE
  8
0
 10
1.31323
 20
6.32365
 11
1.03091
 21
6.14046
  0
LINE
  8
0
 10
1.03091
 20
6.14046
 11
0.770248
 21
5.93677
  0
LINE
  8
0
 10
0.770248
 20
5.93677
 11
0.531235
 21
5.71262
  0
LINE
  8
0
 10
0.531235
 20
5.71262
 11
0.313843
 21
5.46799
  0
LINE
  8
0
 10
0.313843
 20
5.46799
 11
0.118103
 21
5.20288
  0
LINE
  8
0
 10
0.118103
 20
5.20288
 11
-0.0559692
 21
4.9173
  0
LINE
  8
0
 10
-0.0559692
 20
4.9173
 11
-0.208435
 21
4.61124
  0
LINE
  8
0
 10
-0.208435
 20
4.61124
 11
-0.208435
 21
6.62456
  0
LINE
  8
0
 10
-0.208435
 20
6.62456
 11
-2.08855
 21
6.62456
  0
LINE
  8
0
 10
-2.08855
 20
6.62456
 11
-2.2749
 21
6.71748
  0
LINE
  8
0
 10
-2.2749
 20
6.71748
 11
-2.6472
 21
6.8351
  0
LINE
  8
0
 10
-2.6472
 20
6.8351
 11
-3.06163
 21
6.90567
  0
LINE
  8
0
 10
-3.06163
 20
6.90567
 11
-3.51817
 21
6.9292
  0
LINE
  8
0
 10
-3.51817
 20
6.9292
 11
-3.7565
 21
6.9212
  0
LINE
  8
0
 10
-3.7565
 20
6.9212
 11
-3.98399
 21
6.89726
  0
LINE
  8
0
 10
-3.98399
 20
6.89726
 11
-4.20067
 21
6.85735
  0
LINE
  8
0
 10
-4.20067
 20
6.85735
 11
-4.40651
 21
6.80147
  0
LINE
  8
0
 10
-4.40651
 20
6.80147
 11
-4.60153
 21
6.72961
  0
LINE
  8
0
 10
-4.60153
 20
6.72961
 11
-4.78572
 21
6.6418
  0
LINE
  8
0
 10
-4.78572
 20
6.6418
 11
-4.95909
 21
6.53802
  0
LINE
  8
0
 10
-4.95909
 20
6.53802
 11
-5.12282
 21
6.41757
  0
LINE
  8
0
 10
-5.12282
 20
6.41757
 11
-5.27809
 21
6.27974
  0
LINE
  8
0
 10
-5.27809
 20
6.27974
 11
-5.42488
 21
6.12451
  0
LINE
  8
0
 10
-5.42488
 20
6.12451
 11
-5.56322
 21
5.95192
  0
LINE
  8
0
 10
-5.56322
 20
5.95192
 11
-5.69308
 21
5.76193
  0
LINE
  8
0
 10
-5.69308
 20
5.76193
 11
-5.81448
 21
5.55458
  0
LINE
  8
0
 10
-5.81448
 20
5.55458
 11
-5.92741
 21
5.32983
  0
LINE
  8
0
 10
-5.92741
 20
5.32983
 11
-5.97731
 21
5.51642
  0
LINE
  8
0
 10
-5.97731
 20
5.51642
 11
-6.0479
 21
5.69476
  0
LINE
  8
0
 10
-6.0479
 20
5.69476
 11
-6.13921
 21
5.8649
  0
LINE
  8
0
 10
-6.13921
 20
5.8649
 11
-6.25121
 21
6.02682
  0
LINE
  8
0
 10
-6.25121
 20
6.02682
 11
-6.38393
 21
6.18051
  0
LINE
  8
0
 10
-6.38393
 20
6.18051
 11
-6.53734
 21
6.32597
  0
LINE
  8
0
 10
-6.53734
 20
6.32597
 11
-6.71146
 21
6.46323
  0
LINE
  8
0
 10
-6.71146
 20
6.46323
 11
-6.89871
 21
6.58685
  0
LINE
  8
0
 10
-6.89871
 20
6.58685
 11
-7.0916
 21
6.69145
  0
LINE
  8
0
 10
-7.0916
 20
6.69145
 11
-7.29015
 21
6.77704
  0
LINE
  8
0
 10
-7.29015
 20
6.77704
 11
-7.49434
 21
6.84361
  0
LINE
  8
0
 10
-7.49434
 20
6.84361
 11
-7.70419
 21
6.89116
  0
LINE
  8
0
 10
-7.70419
 20
6.89116
 11
-7.91968
 21
6.91968
  0
LINE
  8
0
 10
-7.91968
 20
6.91968
 11
-8.14082
 21
6.9292
  0
LINE
  8
0
 10
-8.14082
 20
6.9292
 11
-8.36172
 21
6.92015
  0
LINE
  8
0
 10
-8.36172
 20
6.92015
 11
-8.57652
 21
6.89302
  0
LINE
  8
0
 10
-8.57652
 20
6.89302
 11
-8.7852
 21
6.84782
  0
LINE
  8
0
 10
-8.7852
 20
6.84782
 11
-8.98776
 21
6.78453
  0
LINE
  8
0
 10
-8.98776
 20
6.78453
 11
-9.18422
 21
6.70316
  0
LINE
  8
0
 10
-9.18422
 20
6.70316
 11
-9.37456
 21
6.60371
  0
LINE
  8
0
 10
-9.37456
 20
6.60371
 11
-9.55879
 21
6.48618
  0
LINE
  8
0
 10
-9.55879
 20
6.48618
 11
-9.73289
 21
6.35313
  0
LINE
  8
0
 10
-9.73289
 20
6.35313
 11
-9.89288
 21
6.20718
  0
LINE
  8
0
 10
-9.89288
 20
6.20718
 11
-9.9624
 21
6.13145
  0
LINE
  8
0
 10
-9.9624
 20
6.13145
 11
-10.2043
 21
6.2766
  0
LINE
  8
0
 10
-10.2043
 20
6.2766
 11
-10.481
 21
6.39369
  0
LINE
  8
0
 10
-10.481
 20
6.39369
 11
-10.481
 21
6.62456
  0
LINE
  8
0
 10
-10.481
 20
6.62456
 11
-11.1501
 21
6.62456
  0
LINE
  8
0
 10
-11.1501
 20
6.62456
 11
-11.391
 21
6.69426
  0
LINE
  8
0
 10
-11.391
 20
6.69426
 11
-12.0991
 21
6.82478
  0
LINE
  8
0
 10
-12.0991
 20
6.82478
 11
-12.8836
 21
6.90309
  0
LINE
  8
0
 10
-12.8836
 20
6.90309
 11
-13.7445
 21
6.9292
  0
LINE
  8
0
 10
-13.7445
 20
6.9292
 11
-14.1106
 21
6.9247
  0
LINE
  8
0
 10
-14.1106
 20
6.9247
 11
-14.4711
 21
6.91124
  0
LINE
  8
0
 10
-14.4711
 20
6.91124
 11
-14.8258
 21
6.88879
  0
LINE
  8
0
 10
-14.8258
 20
6.88879
 11
-15.175
 21
6.85736
  0
LINE
  8
0
 10
-15.175
 20
6.85736
 11
-15.5184
 21
6.81696
  0
LINE
  8
0
 10
-15.5184
 20
6.81696
 11
-15.8563
 21
6.76758
  0
LINE
  8
0
 10
-15.8563
 20
6.76758
 11
-16.1885
 21
6.70921
  0
LINE
  8
0
 10
-16.1885
 20
6.70921
 11
-16.5171
 21
6.6414
  0
LINE
  8
0
 10
-16.5171
 20
6.6414
 11
-16.8444
 21
6.56366
  0
LINE
  8
0
 10
-16.8444
 20
6.56366
 11
-17.1702
 21
6.47601
  0
LINE
  8
0
 10
-17.1702
 20
6.47601
 11
-17.4946
 21
6.37843
  0
LINE
  8
0
 10
-17.4946
 20
6.37843
 11
-17.7986
 21
6.27724
  0
LINE
  8
0
 10
-17.7986
 20
6.27724
 11
-17.8938
 21
6.33257
  0
LINE
  8
0
 10
-17.8938
 20
6.33257
 11
-18.5172
 21
6.5936
  0
LINE
  8
0
 10
-18.5172
 20
6.5936
 11
-19.1863
 21
6.78003
  0
LINE
  8
0
 10
-19.1863
 20
6.78003
 11
-19.9014
 21
6.89191
  0
LINE
  8
0
 10
-19.9014
 20
6.89191
 11
-20.6624
 21
6.9292
  0
LINE
  8
0
 10
-20.6624
 20
6.9292
 11
-21.4203
 21
6.89191
  0
LINE
  8
0
 10
-21.4203
 20
6.89191
 11
-22.1328
 21
6.78003
  0
LINE
  8
0
 10
-22.1328
 20
6.78003
 11
-22.8
 21
6.5936
  0
LINE
  8
0
 10
-22.8
 20
6.5936
 11
-23.4217
 21
6.33257
  0
LINE
  8
0
 10
-23.4217
 20
6.33257
 11
-23.8062
 21
6.10861
  0
LINE
  8
0
 10
-23.8062
 20
6.10861
 11
-24.0862
 21
6.2766
  0
LINE
  8
0
 10
-24.0862
 20
6.2766
 11
-24.6413
 21
6.51154
  0
LINE
  8
0
 10
-24.6413
 20
6.51154
 11
-25.2729
 21
6.69426
  0
LINE
  8
0
 10
-25.2729
 20
6.69426
 11
-25.981
 21
6.82478
  0
LINE
  8
0
 10
-25.981
 20
6.82478
 11
-26.7655
 21
6.90309
  0
LINE
  8
0
 10
-26.7655
 20
6.90309
 11
-27.6264
 21
6.9292
  0
LINE
  8
0
 10
-27.6264
 20
6.9292
 11
-27.9925
 21
6.9247
  0
LINE
  8
0
 10
-27.9925
 20
6.9247
 11
-28.3529
 21
6.91124
  0
LINE
  8
0
 10
-28.3529
 20
6.91124
 11
-28.7077
 21
6.88879
  0
LINE
  8
0
 10
-28.7077
 20
6.88879
 11
-29.0569
 21
6.85736
  0
LINE
  8
0
 10
-29.0569
 20
6.85736
 11
-29.4003
 21
6.81696
  0
LINE
  8
0
 10
-29.4003
 20
6.81696
 11
-29.7382
 21
6.76758
  0
LINE
  8
0
 10
-29.7382
 20
6.76758
 11
-30.0704
 21
6.70921
  0
LINE
  8
0
 10
-30.0704
 20
6.70921
 11
-30.399
 21
6.6414
  0
LINE
  8
0
 10
-30.399
 20
6.6414
 11
-30.7263
 21
6.56366
  0
LINE
  8
0
 10
-30.7263
 20
6.56366
 11
-31.0521
 21
6.47601
  0
LINE
  8
0
 10
-31.0521
 20
6.47601
 11
-31.3765
 21
6.37843
  0
LINE
  8
0
 10
-31.3765
 20
6.37843
 11
-31.6996
 21
6.27092
  0
LINE
  8
0
 10
-31.6996
 20
6.27092
 11
-32.0212
 21
6.1535
  0
LINE
  8
0
 10
-32.0212
 20
6.1535
 11
-32.3414
 21
6.02615
  0
LINE
  8
0
 10
-32.3414
 20
6.02615
 11
-32.3414
 21
3.14296
  0
LINE
  8
0
 10
-32.3414
 20
3.14296
 11
-31.991
 21
3.32718
  0
LINE
  8
0
 10
-31.991
 20
3.32718
 11
-31.6445
 21
3.49654
  0
LINE
  8
0
 10
-31.6445
 20
3.49654
 11
-31.3021
 21
3.65103
  0
LINE
  8
0
 10
-31.3021
 20
3.65103
 11
-30.9637
 21
3.79065
  0
LINE
  8
0
 10
-30.9637
 20
3.79065
 11
-30.6293
 21
3.91539
  0
LINE
  8
0
 10
-30.6293
 20
3.91539
 11
-30.2988
 21
4.02527
  0
LINE
  8
0
 10
-30.2988
 20
4.02527
 11
-29.9724
 21
4.12029
  0
LINE
  8
0
 10
-29.9724
 20
4.12029
 11
-29.6465
 21
4.2016
  0
LINE
  8
0
 10
-29.6465
 20
4.2016
 11
-29.3174
 21
4.27042
  0
LINE
  8
0
 10
-29.3174
 20
4.27042
 11
-28.9853
 21
4.32671
  0
LINE
  8
0
 10
-28.9853
 20
4.32671
 11
-28.6502
 21
4.3705
  0
LINE
  8
0
 10
-28.6502
 20
4.3705
 11
-28.312
 21
4.40176
  0
LINE
  8
0
 10
-28.312
 20
4.40176
 11
-27.9707
 21
4.42053
  0
LINE
  8
0
 10
-27.9707
 20
4.42053
 11
-27.6264
 21
4.42679
  0
LINE
  8
0
 10
-27.6264
 20
4.42679
 11
-27.3085
 21
4.4182
  0
LINE
  8
0
 10
-27.3085
 20
4.4182
 11
-27.0134
 21
4.39243
  0
LINE
  8
0
 10
-27.0134
 20
4.39243
 11
-26.741
 21
4.34949
  0
LINE
  8
0
 10
-26.741
 20
4.34949
 11
-26.4916
 21
4.28935
  0
LINE
  8
0
 10
-26.4916
 20
4.28935
 11
-26.2649
 21
4.21204
  0
LINE
  8
0
 10
-26.2649
 20
4.21204
 11
-26.0611
 21
4.11754
  0
LINE
  8
0
 10
-26.0611
 20
4.11754
 11
-25.88
 21
4.00587
  0
LINE
  8
0
 10
-25.88
 20
4.00587
 11
-25.8093
 21
3.94829
  0
LINE
  8
0
 10
-25.8093
 20
3.94829
 11
-26.1051
 21
3.29771
  0
LINE
  8
0
 10
-26.1051
 20
3.29771
 11
-26.3365
 21
2.59042
  0
LINE
  8
0
 10
-26.3365
 20
2.59042
 11
-26.4198
 21
2.20728
  0
LINE
  8
0
 10
-26.4198
 20
2.20728
 11
-27.6264
 21
2.20728
  0
LINE
  8
0
 10
-27.6264
 20
2.20728
 11
-28.4699
 21
2.18526
  0
LINE
  8
0
 10
-28.4699
 20
2.18526
 11
-29.2479
 21
2.11923
  0
LINE
  8
0
 10
-29.2479
 20
2.11923
 11
-29.9605
 21
2.00919
  0
LINE
  8
0
 10
-29.9605
 20
2.00919
 11
-30.6078
 21
1.85512
  0
LINE
  8
0
 10
-30.6078
 20
1.85512
 11
-31.1896
 21
1.65703
  0
LINE
  8
0
 10
-31.1896
 20
1.65703
 11
-31.7061
 21
1.41492
  0
LINE
  8
0
 10
-31.7061
 20
1.41492
 11
-32.1571
 21
1.1288
  0
LINE
  8
0
 10
-32.1571
 20
1.1288
 11
-32.5047
 21
0.831543
  0
LINE
  8
0
 10
-32.5047
 20
0.831543
 11
-32.4355
 21
0.722626
  0
LINE
  8
0
 10
-32.4355
 20
0.722626
 11
-32.3553
 21
0.552185
  0
LINE
  8
0
 10
-32.3553
 20
0.552185
 11
-32.2971
 21
0.373032
  0
LINE
  8
0
 10
-32.2971
 20
0.373032
 11
-32.2887
 21
0.328995
  0
LINE
  8
0
 10
-32.2887
 20
0.328995
 11
-32.1918
 21
0.441147
  0
LINE
  8
0
 10
-32.1918
 20
0.441147
 11
-31.8592
 21
0.725647
  0
LINE
  8
0
 10
-31.8592
 20
0.725647
 11
-31.4651
 21
0.975647
  0
LINE
  8
0
 10
-31.4651
 20
0.975647
 11
-31.0024
 21
1.19258
  0
LINE
  8
0
 10
-31.0024
 20
1.19258
 11
-30.4689
 21
1.37422
  0
LINE
  8
0
 10
-30.4689
 20
1.37422
 11
-29.8644
 21
1.51811
  0
LINE
  8
0
 10
-29.8644
 20
1.51811
 11
-29.1887
 21
1.62245
  0
LINE
  8
0
 10
-29.1887
 20
1.62245
 11
-28.4421
 21
1.68581
  0
LINE
  8
0
 10
-28.4421
 20
1.68581
 11
-27.6198
 21
1.70728
  0
LINE
  8
0
 10
-27.6198
 20
1.70728
 11
-26.5167
 21
1.70728
  0
LINE
  8
0
 10
-26.5167
 20
1.70728
 11
-26.6009
 21
1.01704
  0
LINE
  8
0
 10
-26.6009
 20
1.01704
 11
-26.6294
 21
0.270172
  0
LINE
  8
0
 10
-26.6294
 20
0.270172
 11
-26.635
 21
0.270172
  0
LINE
  8
0
 10
-26.635
 20
0.270172
 11
-26.6446
 21
0.270081
  0
LINE
  8
0
 10
-26.6446
 20
0.270081
 11
-27.1614
 21
0.260193
  0
LINE
  8
0
 10
-27.1614
 20
0.260193
 11
-27.1833
 21
0.259293
  0
LINE
  8
0
 10
-27.1833
 20
0.259293
 11
-27.6536
 21
0.229645
  0
LINE
  8
0
 10
-27.6536
 20
0.229645
 11
-27.6801
 21
0.227264
  0
LINE
  8
0
 10
-27.6801
 20
0.227264
 11
-28.1038
 21
0.177841
  0
LINE
  8
0
 10
-28.1038
 20
0.177841
 11
-28.1361
 21
0.173004
  0
LINE
  8
0
 10
-28.1361
 20
0.173004
 11
-28.5132
 21
0.103806
  0
LINE
  8
0
 10
-28.5132
 20
0.103806
 11
-28.5529
 21
0.0948334
  0
LINE
  8
0
 10
-28.5529
 20
0.0948334
 11
-28.8835
 21
0.00587463
  0
LINE
  8
0
 10
-28.8835
 20
0.00587463
 11
-28.9323
 21
-0.00999451
  0
LINE
  8
0
 10
-28.9323
 20
-0.00999451
 11
-29.2163
 21
-0.118713
  0
LINE
  8
0
 10
-29.2163
 20
-0.118713
 11
-29.2755
 21
-0.14595
  0
LINE
  8
0
 10
-29.2755
 20
-0.14595
 11
-29.5129
 21
-0.274445
  0
LINE
  8
0
 10
-29.5129
 20
-0.274445
 11
-29.5792
 21
-0.317383
  0
LINE
  8
0
 10
-29.5792
 20
-0.317383
 11
-29.778
 21
-0.469833
  0
LINE
  8
0
 10
-29.778
 20
-0.469833
 11
-29.8397
 21
-0.525894
  0
LINE
  8
0
 10
-29.8397
 20
-0.525894
 11
-30.0079
 21
-0.706573
  0
LINE
  8
0
 10
-30.0079
 20
-0.706573
 11
-30.0595
 21
-0.772217
  0
LINE
  8
0
 10
-30.0595
 20
-0.772217
 11
-30.1971
 21
-0.98114
  0
LINE
  8
0
 10
-30.1971
 20
-0.98114
 11
-30.2353
 21
-1.05049
  0
LINE
  8
0
 10
-30.2353
 20
-1.05049
 11
-30.3424
 21
-1.28764
  0
LINE
  8
0
 10
-30.3424
 20
-1.28764
 11
-30.3671
 21
-1.35493
  0
LINE
  8
0
 10
-30.3671
 20
-1.35493
 11
-30.4436
 21
-1.62032
  0
LINE
  8
0
 10
-30.4436
 20
-1.62032
 11
-30.4571
 21
-1.68155
  0
LINE
  8
0
 10
-30.4571
 20
-1.68155
 11
-30.503
 21
-1.97517
  0
LINE
  8
0
 10
-30.503
 20
-1.97517
 11
-30.5084
 21
-2.02864
  0
LINE
  8
0
 10
-30.5084
 20
-2.02864
 11
-30.5237
 21
-2.35048
  0
LINE
  8
0
 10
-30.5237
 20
-2.35048
 11
-30.5238
 21
-2.39597
  0
LINE
  8
0
 10
-30.5238
 20
-2.39597
 11
-30.5132
 21
-2.63902
  0
LINE
  8
0
 10
-30.5132
 20
-2.63902
 11
-30.5089
 21
-2.6861
  0
LINE
  8
0
 10
-30.5089
 20
-2.6861
 11
-30.4772
 21
-2.91455
  0
LINE
  8
0
 10
-30.4772
 20
-2.91455
 11
-30.4673
 21
-2.96585
  0
LINE
  8
0
 10
-30.4673
 20
-2.96585
 11
-30.4144
 21
-3.17972
  0
LINE
  8
0
 10
-30.4144
 20
-3.17972
 11
-30.3977
 21
-3.2338
  0
LINE
  8
0
 10
-30.3977
 20
-3.2338
 11
-30.3236
 21
-3.43309
  0
LINE
  8
0
 10
-30.3236
 20
-3.43309
 11
-30.2993
 21
-3.4881
  0
LINE
  8
0
 10
-30.2993
 20
-3.4881
 11
-30.204
 21
-3.67281
  0
LINE
  8
0
 10
-30.204
 20
-3.67281
 11
-30.1723
 21
-3.72601
  0
LINE
  8
0
 10
-30.1723
 20
-3.72601
 11
-30.0558
 21
-3.89612
  0
LINE
  8
0
 10
-30.0558
 20
-3.89612
 11
-30.0177
 21
-3.94501
  0
LINE
  8
0
 10
-30.0177
 20
-3.94501
 11
-29.8801
 21
-4.10054
  0
LINE
  8
0
 10
-29.8801
 20
-4.10054
 11
-29.8367
 21
-4.14388
  0
LINE
  8
0
 10
-29.8367
 20
-4.14388
 11
-29.681
 21
-4.28154
  0
LINE
  8
0
 10
-29.681
 20
-4.28154
 11
-29.6315
 21
-4.32001
  0
LINE
  8
0
 10
-29.6315
 20
-4.32001
 11
-29.4607
 21
-4.43648
  0
LINE
  8
0
 10
-29.4607
 20
-4.43648
 11
-29.4071
 21
-4.46831
  0
LINE
  8
0
 10
-29.4071
 20
-4.46831
 11
-29.2212
 21
-4.5636
  0
LINE
  8
0
 10
-29.2212
 20
-4.5636
 11
-29.1662
 21
-4.58775
  0
LINE
  8
0
 10
-29.1662
 20
-4.58775
 11
-28.9653
 21
-4.66188
  0
LINE
  8
0
 10
-28.9653
 20
-4.66188
 11
-28.9112
 21
-4.67841
  0
LINE
  8
0
 10
-28.9112
 20
-4.67841
 11
-28.6952
 21
-4.73134
  0
LINE
  8
0
 10
-28.6952
 20
-4.73134
 11
-28.6443
 21
-4.74106
  0
LINE
  8
0
 10
-28.6443
 20
-4.74106
 11
-28.4133
 21
-4.77283
  0
LINE
  8
0
 10
-28.4133
 20
-4.77283
 11
-28.3667
 21
-4.77702
  0
LINE
  8
0
 10
-28.3667
 20
-4.77702
 11
-28.1205
 21
-4.78761
  0
LINE
  8
0
 10
-28.1205
 20
-4.78761
 11
-28.0713
 21
-4.78729
  0
LINE
  8
0
 10
-28.0713
 20
-4.78729
 11
-27.7014
 21
-4.76671
  0
LINE
  8
0
 10
-27.7014
 20
-4.76671
 11
-27.6412
 21
-4.75967
  0
LINE
  8
0
 10
-27.6412
 20
-4.75967
 11
-27.2958
 21
-4.69791
  0
LINE
  8
0
 10
-27.2958
 20
-4.69791
 11
-27.2311
 21
-4.68182
  0
LINE
  8
0
 10
-27.2311
 20
-4.68182
 11
-26.9102
 21
-4.57889
  0
LINE
  8
0
 10
-26.9102
 20
-4.57889
 11
-26.8443
 21
-4.55246
  0
LINE
  8
0
 10
-26.8443
 20
-4.55246
 11
-26.5479
 21
-4.40836
  0
LINE
  8
0
 10
-26.5479
 20
-4.40836
 11
-26.485
 21
-4.37189
  0
LINE
  8
0
 10
-26.485
 20
-4.37189
 11
-26.213
 21
-4.1866
  0
LINE
  8
0
 10
-26.213
 20
-4.1866
 11
-26.157
 21
-4.14227
  0
LINE
  8
0
 10
-26.157
 20
-4.14227
 11
-25.9095
 21
-3.9158
  0
LINE
  8
0
 10
-25.9095
 20
-3.9158
 11
-25.863
 21
-3.86703
  0
LINE
  8
0
 10
-25.863
 20
-3.86703
 11
-25.7549
 21
-3.73738
  0
LINE
  8
0
 10
-25.7549
 20
-3.73738
 11
-25.4441
 21
-4.2516
  0
LINE
  8
0
 10
-25.4441
 20
-4.2516
 11
-25.3609
 21
-4.3577
  0
LINE
  8
0
 10
-25.3609
 20
-4.3577
 11
-25.3661
 21
-4.35822
  0
LINE
  8
0
 10
-25.3661
 20
-4.35822
 11
-25.4273
 21
-4.37212
  0
LINE
  8
0
 10
-25.4273
 20
-4.37212
 11
-25.4863
 21
-4.39359
  0
LINE
  8
0
 10
-25.4863
 20
-4.39359
 11
-25.5422
 21
-4.42227
  0
LINE
  8
0
 10
-25.5422
 20
-4.42227
 11
-25.594
 21
-4.45775
  0
LINE
  8
0
 10
-25.594
 20
-4.45775
 11
-25.641
 21
-4.49942
  0
LINE
  8
0
 10
-25.641
 20
-4.49942
 11
-25.6823
 21
-4.54666
  0
LINE
  8
0
 10
-25.6823
 20
-4.54666
 11
-25.8531
 21
-4.76842
  0
LINE
  8
0
 10
-25.8531
 20
-4.76842
 11
-26.0248
 21
-4.9612
  0
LINE
  8
0
 10
-26.0248
 20
-4.9612
 11
-26.2087
 21
-5.13968
  0
LINE
  8
0
 10
-26.2087
 20
-5.13968
 11
-26.4047
 21
-5.30406
  0
LINE
  8
0
 10
-26.4047
 20
-5.30406
 11
-26.6137
 21
-5.45479
  0
LINE
  8
0
 10
-26.6137
 20
-5.45479
 11
-26.8355
 21
-5.5918
  0
LINE
  8
0
 10
-26.8355
 20
-5.5918
 11
-27.0714
 21
-5.71558
  0
LINE
  8
0
 10
-27.0714
 20
-5.71558
 11
-27.3177
 21
-5.82422
  0
LINE
  8
0
 10
-27.3177
 20
-5.82422
 11
-27.5717
 21
-5.91634
  0
LINE
  8
0
 10
-27.5717
 20
-5.91634
 11
-27.8329
 21
-5.99173
  0
LINE
  8
0
 10
-27.8329
 20
-5.99173
 11
-28.1026
 21
-6.05069
  0
LINE
  8
0
 10
-28.1026
 20
-6.05069
 11
-28.3809
 21
-6.09299
  0
LINE
  8
0
 10
-28.3809
 20
-6.09299
 11
-28.6677
 21
-6.1185
  0
LINE
  8
0
 10
-28.6677
 20
-6.1185
 11
-28.9611
 21
-6.127
  0
LINE
  8
0
 10
-28.9611
 20
-6.127
 11
-29.532
 21
-6.10472
  0
LINE
  8
0
 10
-29.532
 20
-6.10472
 11
-30.0564
 21
-6.03905
  0
LINE
  8
0
 10
-30.0564
 20
-6.03905
 11
-30.5367
 21
-5.93127
  0
LINE
  8
0
 10
-30.5367
 20
-5.93127
 11
-30.9736
 21
-5.78288
  0
LINE
  8
0
 10
-30.9736
 20
-5.78288
 11
-31.3698
 21
-5.59462
  0
LINE
  8
0
 10
-31.3698
 20
-5.59462
 11
-31.7272
 21
-5.36691
  0
LINE
  8
0
 10
-31.7272
 20
-5.36691
 11
-32.0484
 21
-5.09906
  0
LINE
  8
0
 10
-32.0484
 20
-5.09906
 11
-32.33
 21
-4.79509
  0
LINE
  8
0
 10
-32.33
 20
-4.79509
 11
-32.5679
 21
-4.45915
  0
LINE
  8
0
 10
-32.5679
 20
-4.45915
 11
-32.7635
 21
-4.08871
  0
LINE
  8
0
 10
-32.7635
 20
-4.08871
 11
-32.9176
 21
-3.68053
  0
LINE
  8
0
 10
-32.9176
 20
-3.68053
 11
-33.0293
 21
-3.23238
  0
LINE
  8
0
 10
-33.0293
 20
-3.23238
 11
-33.0976
 21
-2.74216
  0
LINE
  8
0
 10
-33.0976
 20
-2.74216
 11
-33.1206
 21
-2.21117
  0
LINE
  8
0
 10
-33.1206
 20
-2.21117
 11
-33.0931
 21
-1.63904
  0
LINE
  8
0
 10
-33.0931
 20
-1.63904
 11
-33.0432
 21
-1.31979
  0
LINE
  8
0
 10
-33.0432
 20
-1.31979
 11
-33.1113
 21
-1.35724
  0
LINE
  8
0
 10
-33.1113
 20
-1.35724
 11
-33.2865
 21
-1.42657
  0
LINE
  8
0
 10
-33.2865
 20
-1.42657
 11
-33.4689
 21
-1.47342
  0
LINE
  8
0
 10
-33.4689
 20
-1.47342
 11
-33.5754
 21
-1.48688
  0
LINE
  8
0
 10
-33.5754
 20
-1.48688
 11
-33.5913
 21
-1.58826
  0
LINE
  8
0
 10
-33.5913
 20
-1.58826
 11
-33.6212
 21
-2.20999
  0
LINE
  8
0
 10
-33.6212
 20
-2.20999
 11
-33.5961
 21
-2.78761
  0
LINE
  8
0
 10
-33.5961
 20
-2.78761
 11
-33.5209
 21
-3.32758
  0
LINE
  8
0
 10
-33.5209
 20
-3.32758
 11
-33.3956
 21
-3.82988
  0
LINE
  8
0
 10
-33.3956
 20
-3.82988
 11
-33.2203
 21
-4.29451
  0
LINE
  8
0
 10
-33.2203
 20
-4.29451
 11
-32.9948
 21
-4.72148
  0
LINE
  8
0
 10
-32.9948
 20
-4.72148
 11
-32.7191
 21
-5.11079
  0
LINE
  8
0
 10
-32.7191
 20
-5.11079
 11
-32.3934
 21
-5.46243
  0
LINE
  8
0
 10
-32.3934
 20
-5.46243
 11
-32.0227
 21
-5.77147
  0
LINE
  8
0
 10
-32.0227
 20
-5.77147
 11
-31.6123
 21
-6.03296
  0
LINE
  8
0
 10
-31.6123
 20
-6.03296
 11
-31.1621
 21
-6.24692
  0
LINE
  8
0
 10
-31.1621
 20
-6.24692
 11
-30.6721
 21
-6.41331
  0
LINE
  8
0
 10
-30.6721
 20
-6.41331
 11
-30.1424
 21
-6.53218
  0
LINE
  8
0
 10
-30.1424
 20
-6.53218
 11
-29.5729
 21
-6.6035
  0
LINE
  8
0
 10
-29.5729
 20
-6.6035
 11
-28.9637
 21
-6.62727
  0
LINE
  8
0
 10
-28.9637
 20
-6.62727
 11
-28.6383
 21
-6.61786
  0
LINE
  8
0
 10
-28.6383
 20
-6.61786
 11
-28.3209
 21
-6.58963
  0
LINE
  8
0
 10
-28.3209
 20
-6.58963
 11
-28.0116
 21
-6.54259
  0
LINE
  8
0
 10
-28.0116
 20
-6.54259
 11
-27.7102
 21
-6.47673
  0
LINE
  8
0
 10
-27.7102
 20
-6.47673
 11
-27.4169
 21
-6.39204
  0
LINE
  8
0
 10
-27.4169
 20
-6.39204
 11
-27.1315
 21
-6.28854
  0
LINE
  8
0
 10
-27.1315
 20
-6.28854
 11
-26.8541
 21
-6.16623
  0
LINE
  8
0
 10
-26.8541
 20
-6.16623
 11
-26.5878
 21
-6.02646
  0
LINE
  8
0
 10
-26.5878
 20
-6.02646
 11
-26.3356
 21
-5.87068
  0
LINE
  8
0
 10
-26.3356
 20
-5.87068
 11
-26.0974
 21
-5.6989
  0
LINE
  8
0
 10
-26.0974
 20
-5.6989
 11
-25.8735
 21
-5.51112
  0
LINE
  8
0
 10
-25.8735
 20
-5.51112
 11
-25.6636
 21
-5.30736
  0
LINE
  8
0
 10
-25.6636
 20
-5.30736
 11
-25.4678
 21
-5.08757
  0
LINE
  8
0
 10
-25.4678
 20
-5.08757
 11
-25.2862
 21
-4.85179
  0
LINE
  8
0
 10
-25.2862
 20
-4.85179
 11
-25.2862
 21
-6.28999
  0
LINE
  8
0
 10
-25.2862
 20
-6.28999
 11
-22.804
 21
-6.28999
  0
LINE
  8
0
 10
-22.804
 20
-6.28999
 11
-22.8
 21
-6.29167
  0
LINE
  8
0
 10
-22.8
 20
-6.29167
 11
-22.1328
 21
-6.47812
  0
LINE
  8
0
 10
-22.1328
 20
-6.47812
 11
-21.4203
 21
-6.58998
  0
LINE
  8
0
 10
-21.4203
 20
-6.58998
 11
-20.6624
 21
-6.62727
  0
LINE
  8
0
 10
-20.6624
 20
-6.62727
 11
-19.9014
 21
-6.58998
  0
LINE
  8
0
 10
-19.9014
 20
-6.58998
 11
-19.1863
 21
-6.47812
  0
LINE
  8
0
 10
-19.1863
 20
-6.47812
 11
-18.5172
 21
-6.29167
  0
LINE
  8
0
 10
-18.5172
 20
-6.29167
 11
-17.8938
 21
-6.03065
  0
LINE
  8
0
 10
-17.8938
 20
-6.03065
 11
-17.8103
 21
-5.98209
  0
LINE
  8
0
 10
-17.8103
 20
-5.98209
 11
-17.7304
 21
-6.03296
  0
LINE
  8
0
 10
-17.7304
 20
-6.03296
 11
-17.2802
 21
-6.24692
  0
LINE
  8
0
 10
-17.2802
 20
-6.24692
 11
-16.7903
 21
-6.41331
  0
LINE
  8
0
 10
-16.7903
 20
-6.41331
 11
-16.2605
 21
-6.53218
  0
LINE
  8
0
 10
-16.2605
 20
-6.53218
 11
-15.691
 21
-6.6035
  0
LINE
  8
0
 10
-15.691
 20
-6.6035
 11
-15.0818
 21
-6.62727
  0
LINE
  8
0
 10
-15.0818
 20
-6.62727
 11
-14.7564
 21
-6.61786
  0
LINE
  8
0
 10
-14.7564
 20
-6.61786
 11
-14.439
 21
-6.58963
  0
LINE
  8
0
 10
-14.439
 20
-6.58963
 11
-14.1297
 21
-6.54259
  0
LINE
  8
0
 10
-14.1297
 20
-6.54259
 11
-13.8283
 21
-6.47673
  0
LINE
  8
0
 10
-13.8283
 20
-6.47673
 11
-13.535
 21
-6.39204
  0
LINE
  8
0
 10
-13.535
 20
-6.39204
 11
-13.2496
 21
-6.28854
  0
LINE
  8
0
 10
-13.2496
 20
-6.28854
 11
-12.9722
 21
-6.16623
  0
LINE
  8
0
 10
-12.9722
 20
-6.16623
 11
-12.9365
 21
-6.14749
  0
LINE
  8
0
 10
-12.9365
 20
-6.14749
 11
-12.9365
 21
-6.28999
  0
LINE
  8
0
 10
-12.9365
 20
-6.28999
 11
-5.38562
 21
-6.28999
  0
LINE
  8
0
 10
-5.38562
 20
-6.28999
 11
-5.38562
 21
1.99631
  0
LINE
  8
0
 10
-5.38562
 20
1.99631
 11
-5.38092
 21
2.38252
  0
LINE
  8
0
 10
-5.38092
 20
2.38252
 11
-5.36681
 21
2.73111
  0
LINE
  8
0
 10
-5.36681
 20
2.73111
 11
-5.34329
 21
3.04205
  0
LINE
  8
0
 10
-5.34329
 20
3.04205
 11
-5.31035
 21
3.31537
  0
LINE
  8
0
 10
-5.31035
 20
3.31537
 11
-5.26802
 21
3.55104
  0
LINE
  8
0
 10
-5.26802
 20
3.55104
 11
-5.21626
 21
3.74908
  0
LINE
  8
0
 10
-5.21626
 20
3.74908
 11
-5.15511
 21
3.90948
  0
LINE
  8
0
 10
-5.15511
 20
3.90948
 11
-5.08218
 21
4.04095
  0
LINE
  8
0
 10
-5.08218
 20
4.04095
 11
-4.99515
 21
4.15221
  0
LINE
  8
0
 10
-4.99515
 20
4.15221
 11
-4.89398
 21
4.24323
  0
LINE
  8
0
 10
-4.89398
 20
4.24323
 11
-4.77869
 21
4.31401
  0
LINE
  8
0
 10
-4.77869
 20
4.31401
 11
-4.64929
 21
4.36458
  0
LINE
  8
0
 10
-4.64929
 20
4.36458
 11
-4.50577
 21
4.39491
  0
LINE
  8
0
 10
-4.50577
 20
4.39491
 11
-4.34811
 21
4.40503
  0
LINE
  8
0
 10
-4.34811
 20
4.40503
 11
-4.19075
 21
4.39516
  0
LINE
  8
0
 10
-4.19075
 20
4.39516
 11
-4.04797
 21
4.36551
  0
LINE
  8
0
 10
-4.04797
 20
4.36551
 11
-3.91978
 21
4.3161
  0
LINE
  8
0
 10
-3.91978
 20
4.3161
 11
-3.80617
 21
4.24693
  0
LINE
  8
0
 10
-3.80617
 20
4.24693
 11
-3.70715
 21
4.158
  0
LINE
  8
0
 10
-3.70715
 20
4.158
 11
-3.62271
 21
4.04932
  0
LINE
  8
0
 10
-3.62271
 20
4.04932
 11
-3.58633
 21
3.98242
  0
LINE
  8
0
 10
-3.58633
 20
3.98242
 11
-3.58633
 21
-6.28999
  0
LINE
  8
0
 10
-3.58633
 20
-6.28999
 11
-0.208435
 21
-6.28999
  0
LINE
  8
0
 10
-0.208435
 20
-6.28999
 11
-0.208435
 21
-0.343567
  0
LINE
  8
0
 10
-0.208435
 20
-0.343567
 11
-0.206192
 21
0.00526428
  0
LINE
  8
0
 10
-0.206192
 20
0.00526428
 11
-0.199493
 21
0.327759
  0
LINE
  8
0
 10
-0.199493
 20
0.327759
 11
-0.188324
 21
0.623932
  0
LINE
  8
0
 10
-0.188324
 20
0.623932
 11
-0.172684
 21
0.893768
  0
LINE
  8
0
 10
-0.172684
 20
0.893768
 11
-0.152573
 21
1.13728
  0
LINE
  8
0
 10
-0.152573
 20
1.13728
 11
-0.127991
 21
1.35445
  0
LINE
  8
0
 10
-0.127991
 20
1.35445
 11
-0.0989532
 21
1.54529
  0
LINE
  8
0
 10
-0.0989532
 20
1.54529
 11
-0.0642548
 21
1.71925
  0
LINE
  8
0
 10
-0.0642548
 20
1.71925
 11
-0.0227356
 21
1.8857
  0
LINE
  8
0
 10
-0.0227356
 20
1.8857
 11
0.0256042
 21
2.04462
  0
LINE
  8
0
 10
0.0256042
 20
2.04462
 11
0.08078
 21
2.19601
  0
LINE
  8
0
 10
0.08078
 20
2.19601
 11
0.142776
 21
2.33989
  0
LINE
  8
0
 10
0.142776
 20
2.33989
 11
0.211609
 21
2.47624
  0
LINE
  8
0
 10
0.211609
 20
2.47624
 11
0.287277
 21
2.60507
  0
LINE
  8
0
 10
0.287277
 20
2.60507
 11
0.419846
 21
2.80214
  0
LINE
  8
0
 10
0.419846
 20
2.80214
 11
0.567245
 21
2.98535
  0
LINE
  8
0
 10
0.567245
 20
2.98535
 11
0.729446
 21
3.15468
  0
LINE
  8
0
 10
0.729446
 20
3.15468
 11
0.906464
 21
3.31017
  0
LINE
  8
0
 10
0.906464
 20
3.31017
 11
1.0983
 21
3.45178
  0
LINE
  8
0
 10
1.0983
 20
3.45178
 11
1.30495
 21
3.57953
  0
LINE
  8
0
 10
1.30495
 20
3.57953
 11
1.5264
 21
3.69341
  0
LINE
  8
0
 10
1.5264
 20
3.69341
 11
1.76085
 21
3.79272
  0
LINE
  8
0
 10
1.76085
 20
3.79272
 11
1.84727
 21
3.82231
  0
LINE
  8
0
 10
1.84727
 20
3.82231
 11
1.59891
 21
3.28178
  0
LINE
  8
0
 10
1.59891
 20
3.28178
 11
1.3634
 21
2.56874
  0
LINE
  8
0
 10
1.3634
 20
2.56874
 11
1.19519
 21
1.80156
  0
LINE
  8
0
 10
1.19519
 20
1.80156
 11
1.09427
 21
0.980286
  0
LINE
  8
0
 10
1.09427
 20
0.980286
 11
1.06062
 21
0.104889
  0
LINE
  8
0
 10
1.06062
 20
0.104889
 11
1.09557
 21
-0.796021
  0
LINE
  8
0
 10
1.09557
 20
-0.796021
 11
1.20036
 21
-1.6346
  0
LINE
  8
0
 10
1.20036
 20
-1.6346
 11
1.37505
 21
-2.41084
  0
LINE
  8
0
 10
1.37505
 20
-2.41084
 11
1.61961
 21
-3.12474
  0
LINE
  8
0
 10
1.61961
 20
-3.12474
 11
1.93404
 21
-3.77631
  0
LINE
  8
0
 10
1.93404
 20
-3.77631
 11
2.31834
 21
-4.36554
  0
LINE
  8
0
 10
2.31834
 20
-4.36554
 11
2.77252
 21
-4.89243
  0
LINE
  8
0
 10
2.77252
 20
-4.89243
 11
3.29282
 21
-5.35269
  0
LINE
  8
0
 10
3.29282
 20
-5.35269
 11
3.87544
 21
-5.74214
  0
LINE
  8
0
 10
3.87544
 20
-5.74214
 11
4.52042
 21
-6.06079
  0
LINE
  8
0
 10
4.52042
 20
-6.06079
 11
5.22774
 21
-6.30862
  0
LINE
  8
0
 10
5.22774
 20
-6.30862
 11
5.99741
 21
-6.48566
  0
LINE
  8
0
 10
5.99741
 20
-6.48566
 11
6.82942
 21
-6.59187
  0
LINE
  8
0
 10
6.82942
 20
-6.59187
 11
7.72377
 21
-6.62727
  0
LINE
  8
0
 10
7.72377
 20
-6.62727
 11
8.10962
 21
-6.62233
  0
LINE
  8
0
 10
8.10962
 20
-6.62233
 11
8.48981
 21
-6.60751
  0
LINE
  8
0
 10
8.48981
 20
-6.60751
 11
8.86436
 21
-6.58281
  0
LINE
  8
0
 10
8.86436
 20
-6.58281
 11
9.23326
 21
-6.54823
  0
LINE
  8
0
 10
9.23326
 20
-6.54823
 11
9.59651
 21
-6.50377
  0
LINE
  8
0
 10
9.59651
 20
-6.50377
 11
9.95412
 21
-6.44942
  0
LINE
  8
0
 10
9.95412
 20
-6.44942
 11
10.3061
 21
-6.38519
  0
LINE
  8
0
 10
10.3061
 20
-6.38519
 11
10.6543
 21
-6.31108
  0
LINE
  8
0
 10
10.6543
 20
-6.31108
 11
11.0006
 21
-6.2271
  0
LINE
  8
0
 10
11.0006
 20
-6.2271
 11
11.345
 21
-6.13322
  0
LINE
  8
0
 10
11.345
 20
-6.13322
 11
11.4509
 21
-6.10114
  0
LINE
  8
0
 10
11.4509
 20
-6.10114
 11
11.9048
 21
-6.29167
  0
LINE
  8
0
 10
11.9048
 20
-6.29167
 11
12.5719
 21
-6.47812
  0
LINE
  8
0
 10
12.5719
 20
-6.47812
 11
13.2844
 21
-6.58998
  0
LINE
  8
0
 10
13.2844
 20
-6.58998
 11
14.0423
 21
-6.62727
  0
LINE
  8
0
 10
14.0423
 20
-6.62727
 11
14.8033
 21
-6.58998
  0
LINE
  8
0
 10
-31.8414
 20
5.68686
 11
-31.5346
 21
5.79886
  0
LINE
  8
0
 10
-31.5346
 20
5.79886
 11
-31.2254
 21
5.90176
  0
LINE
  8
0
 10
-31.2254
 20
5.90176
 11
-30.9153
 21
5.99506
  0
LINE
  8
0
 10
-30.9153
 20
5.99506
 11
-30.6038
 21
6.07884
  0
LINE
  8
0
 10
-30.6038
 20
6.07884
 11
-30.2905
 21
6.15327
  0
LINE
  8
0
 10
-30.2905
 20
6.15327
 11
-29.9768
 21
6.218
  0
LINE
  8
0
 10
-29.9768
 20
6.218
 11
-29.6588
 21
6.27385
  0
LINE
  8
0
 10
-29.6588
 20
6.27385
 11
-29.3349
 21
6.3212
  0
LINE
  8
0
 10
-29.3349
 20
6.3212
 11
-29.005
 21
6.36
  0
LINE
  8
0
 10
-29.005
 20
6.36
 11
-28.6697
 21
6.3902
  0
LINE
  8
0
 10
-28.6697
 20
6.3902
 11
-28.3275
 21
6.41185
  0
LINE
  8
0
 10
-28.3275
 20
6.41185
 11
-27.9805
 21
6.4248
  0
LINE
  8
0
 10
-27.9805
 20
6.4248
 11
-27.6308
 21
6.42911
  0
LINE
  8
0
 10
-27.6308
 20
6.42911
 11
-26.7979
 21
6.40384
  0
LINE
  8
0
 10
-26.7979
 20
6.40384
 11
-26.0512
 21
6.32932
  0
LINE
  8
0
 10
-26.0512
 20
6.32932
 11
-25.388
 21
6.20705
  0
LINE
  8
0
 10
-25.388
 20
6.20705
 11
-24.8089
 21
6.03952
  0
LINE
  8
0
 10
-24.8089
 20
6.03952
 11
-24.3134
 21
5.82979
  0
LINE
  8
0
 10
-24.3134
 20
5.82979
 11
-24.2576
 21
5.79634
  0
LINE
  8
0
 10
-24.2576
 20
5.79634
 11
-24.5289
 21
5.58679
  0
LINE
  8
0
 10
-24.5289
 20
5.58679
 11
-25.0144
 21
5.10204
  0
LINE
  8
0
 10
-25.0144
 20
5.10204
 11
-25.4441
 21
4.55353
  0
LINE
  8
0
 10
-25.4441
 20
4.55353
 11
-25.5485
 21
4.38071
  0
LINE
  8
0
 10
-25.5485
 20
4.38071
 11
-25.5642
 21
4.39352
  0
LINE
  8
0
 10
-25.5642
 20
4.39352
 11
-25.6175
 21
4.43143
  0
LINE
  8
0
 10
-25.6175
 20
4.43143
 11
-25.7985
 21
4.54309
  0
LINE
  8
0
 10
-25.7985
 20
4.54309
 11
-25.8508
 21
4.57117
  0
LINE
  8
0
 10
-25.8508
 20
4.57117
 11
-26.0546
 21
4.66566
  0
LINE
  8
0
 10
-26.0546
 20
4.66566
 11
-26.1035
 21
4.68526
  0
LINE
  8
0
 10
-26.1035
 20
4.68526
 11
-26.3301
 21
4.76257
  0
LINE
  8
0
 10
-26.3301
 20
4.76257
 11
-26.3744
 21
4.77544
  0
LINE
  8
0
 10
-26.3744
 20
4.77544
 11
-26.6239
 21
4.83557
  0
LINE
  8
0
 10
-26.6239
 20
4.83557
 11
-26.6632
 21
4.84338
  0
LINE
  8
0
 10
-26.6632
 20
4.84338
 11
-26.9355
 21
4.88632
  0
LINE
  8
0
 10
-26.9355
 20
4.88632
 11
-26.9698
 21
4.89053
  0
LINE
  8
0
 10
-26.9698
 20
4.89053
 11
-27.265
 21
4.91631
  0
LINE
  8
0
 10
-27.265
 20
4.91631
 11
-27.295
 21
4.91801
  0
LINE
  8
0
 10
-27.295
 20
4.91801
 11
-27.6129
 21
4.92661
  0
LINE
  8
0
 10
-27.6129
 20
4.92661
 11
-27.6355
 21
4.92671
  0
LINE
  8
0
 10
-27.6355
 20
4.92671
 11
-27.9798
 21
4.92046
  0
LINE
  8
0
 10
-27.9798
 20
4.92046
 11
-27.9982
 21
4.91978
  0
LINE
  8
0
 10
-27.9982
 20
4.91978
 11
-28.3394
 21
4.90102
  0
LINE
  8
0
 10
-28.3394
 20
4.90102
 11
-28.358
 21
4.89964
  0
LINE
  8
0
 10
-28.358
 20
4.89964
 11
-28.6962
 21
4.86838
  0
LINE
  8
0
 10
-28.6962
 20
4.86838
 11
-28.715
 21
4.86629
  0
LINE
  8
0
 10
-28.715
 20
4.86629
 11
-29.0501
 21
4.82249
  0
LINE
  8
0
 10
-29.0501
 20
4.82249
 11
-29.0689
 21
4.81967
  0
LINE
  8
0
 10
-29.0689
 20
4.81967
 11
-29.401
 21
4.76338
  0
LINE
  8
0
 10
-29.401
 20
4.76338
 11
-29.4198
 21
4.75983
  0
LINE
  8
0
 10
-29.4198
 20
4.75983
 11
-29.7488
 21
4.69101
  0
LINE
  8
0
 10
-29.7488
 20
4.69101
 11
-29.7675
 21
4.68674
  0
LINE
  8
0
 10
-29.7675
 20
4.68674
 11
-30.0935
 21
4.60542
  0
LINE
  8
0
 10
-30.0935
 20
4.60542
 11
-30.1122
 21
4.60036
  0
LINE
  8
0
 10
-30.1122
 20
4.60036
 11
-30.4386
 21
4.50534
  0
LINE
  8
0
 10
-30.4386
 20
4.50534
 11
-30.4566
 21
4.49973
  0
LINE
  8
0
 10
-30.4566
 20
4.49973
 11
-30.787
 21
4.38985
  0
LINE
  8
0
 10
-30.787
 20
4.38985
 11
-30.804
 21
4.38387
  0
LINE
  8
0
 10
-30.804
 20
4.38387
 11
-31.1384
 21
4.25912
  0
LINE
  8
0
 10
-31.1384
 20
4.25912
 11
-31.1544
 21
4.25285
  0
LINE
  8
0
 10
-31.1544
 20
4.25285
 11
-31.4928
 21
4.11324
  0
LINE
  8
0
 10
-31.4928
 20
4.11324
 11
-31.5077
 21
4.1068
  0
LINE
  8
0
 10
-31.5077
 20
4.1068
 11
-31.8414
 21
3.95625
  0
LINE
  8
0
 10
-31.8414
 20
3.95625
 11
-31.8414
 21
5.68686
  0
LINE
  8
0
 10
-16.2991
 20
5.10204
 11
-16.7848
 21
5.58679
  0
LINE
  8
0
 10
-16.7848
 20
5.58679
 11
-17.2352
 21
5.93433
  0
LINE
  8
0
 10
-17.2352
 20
5.93433
 11
-17.0334
 21
5.99506
  0
LINE
  8
0
 10
-17.0334
 20
5.99506
 11
-16.7219
 21
6.07884
  0
LINE
  8
0
 10
-16.7219
 20
6.07884
 11
-16.4086
 21
6.15327
  0
LINE
  8
0
 10
-16.4086
 20
6.15327
 11
-16.0949
 21
6.218
  0
LINE
  8
0
 10
-16.0949
 20
6.218
 11
-15.7764
 21
6.27394
  0
LINE
  8
0
 10
-15.7764
 20
6.27394
 11
-15.4535
 21
6.32114
  0
LINE
  8
0
 10
-15.4535
 20
6.32114
 11
-15.1231
 21
6.36
  0
LINE
  8
0
 10
-15.1231
 20
6.36
 11
-14.7878
 21
6.3902
  0
LINE
  8
0
 10
-14.7878
 20
6.3902
 11
-14.4456
 21
6.41185
  0
LINE
  8
0
 10
-14.4456
 20
6.41185
 11
-14.0986
 21
6.4248
  0
LINE
  8
0
 10
-14.0986
 20
6.4248
 11
-13.7489
 21
6.42911
  0
LINE
  8
0
 10
-13.7489
 20
6.42911
 11
-12.9365
 21
6.40445
  0
LINE
  8
0
 10
-12.9365
 20
6.40445
 11
-12.9365
 21
4.86786
  0
LINE
  8
0
 10
-12.9365
 20
4.86786
 11
-13.0536
 21
4.88632
  0
LINE
  8
0
 10
-13.0536
 20
4.88632
 11
-13.088
 21
4.89053
  0
LINE
  8
0
 10
-13.088
 20
4.89053
 11
-13.3831
 21
4.91631
  0
LINE
  8
0
 10
-13.3831
 20
4.91631
 11
-13.4131
 21
4.91801
  0
LINE
  8
0
 10
-13.4131
 20
4.91801
 11
-13.731
 21
4.92661
  0
LINE
  8
0
 10
-13.731
 20
4.92661
 11
-13.7536
 21
4.92671
  0
LINE
  8
0
 10
-13.7536
 20
4.92671
 11
-14.0979
 21
4.92046
  0
LINE
  8
0
 10
-14.0979
 20
4.92046
 11
-14.1163
 21
4.91978
  0
LINE
  8
0
 10
-14.1163
 20
4.91978
 11
-14.4576
 21
4.90102
  0
LINE
  8
0
 10
-14.4576
 20
4.90102
 11
-14.4761
 21
4.89964
  0
LINE
  8
0
 10
-14.4761
 20
4.89964
 11
-14.8143
 21
4.86838
  0
LINE
  8
0
 10
-14.8143
 20
4.86838
 11
-14.8331
 21
4.86629
  0
LINE
  8
0
 10
-14.8331
 20
4.86629
 11
-15.1682
 21
4.82249
  0
LINE
  8
0
 10
-15.1682
 20
4.82249
 11
-15.187
 21
4.81967
  0
LINE
  8
0
 10
-15.187
 20
4.81967
 11
-15.5191
 21
4.76338
  0
LINE
  8
0
 10
-15.5191
 20
4.76338
 11
-15.5379
 21
4.75983
  0
LINE
  8
0
 10
-15.5379
 20
4.75983
 11
-15.8669
 21
4.69101
  0
LINE
  8
0
 10
-15.8669
 20
4.69101
 11
-15.8856
 21
4.68674
  0
LINE
  8
0
 10
-15.8856
 20
4.68674
 11
-15.9594
 21
4.66832
  0
LINE
  8
0
 10
-15.9594
 20
4.66832
 11
-16.2991
 21
5.10204
  0
LINE
  8
0
 10
-0.580032
 20
1.97186
 11
-0.619217
 21
2.86003
  0
LINE
  8
0
 10
-0.619217
 20
2.86003
 11
-0.684509
 21
3.64658
  0
LINE
  8
0
 10
-0.684509
 20
3.64658
 11
-0.775925
 21
4.33151
  0
LINE
  8
0
 10
-0.775925
 20
4.33151
 11
-0.893448
 21
4.91483
  0
LINE
  8
0
 10
-0.893448
 20
4.91483
 11
-1.03709
 21
5.39651
  0
LINE
  8
0
 10
-1.03709
 20
5.39651
 11
-1.20686
 21
5.7766
  0
LINE
  8
0
 10
-1.20686
 20
5.7766
 11
-1.41069
 21
6.08238
  0
LINE
  8
0
 10
-1.41069
 20
6.08238
 11
-1.45078
 21
6.12456
  0
LINE
  8
0
 10
-1.45078
 20
6.12456
 11
-0.708435
 21
6.12456
  0
LINE
  8
0
 10
-0.708435
 20
6.12456
 11
-0.708435
 21
4.61124
  0
LINE
  8
0
 10
-0.708435
 20
4.61124
 11
-0.701553
 21
4.52855
  0
LINE
  8
0
 10
-0.701553
 20
4.52855
 11
-0.687302
 21
4.46739
  0
LINE
  8
0
 10
-0.687302
 20
4.46739
 11
-0.665497
 21
4.40851
  0
LINE
  8
0
 10
-0.665497
 20
4.40851
 11
-0.636475
 21
4.35283
  0
LINE
  8
0
 10
-0.636475
 20
4.35283
 11
-0.600723
 21
4.30121
  0
LINE
  8
0
 10
-0.600723
 20
4.30121
 11
-0.558762
 21
4.25449
  0
LINE
  8
0
 10
-0.558762
 20
4.25449
 11
-0.511292
 21
4.21339
  0
LINE
  8
0
 10
-0.511292
 20
4.21339
 11
-0.459045
 21
4.17857
  0
LINE
  8
0
 10
-0.459045
 20
4.17857
 11
-0.402847
 21
4.15057
  0
LINE
  8
0
 10
-0.402847
 20
4.15057
 11
-0.343567
 21
4.12984
  0
LINE
  8
0
 10
-0.343567
 20
4.12984
 11
-0.282166
 21
4.1167
  0
LINE
  8
0
 10
-0.282166
 20
4.1167
 11
-0.219604
 21
4.11136
  0
LINE
  8
0
 10
-0.219604
 20
4.11136
 11
-0.156876
 21
4.11391
  0
LINE
  8
0
 10
-0.156876
 20
4.11391
 11
-0.0949402
 21
4.12428
  0
LINE
  8
0
 10
-0.0949402
 20
4.12428
 11
-0.0348053
 21
4.14235
  0
LINE
  8
0
 10
-0.0348053
 20
4.14235
 11
0.0225983
 21
4.16782
  0
LINE
  8
0
 10
0.0225983
 20
4.16782
 11
0.0763397
 21
4.20026
  0
LINE
  8
0
 10
0.0763397
 20
4.20026
 11
0.12561
 21
4.2392
  0
LINE
  8
0
 10
0.12561
 20
4.2392
 11
0.169601
 21
4.284
  0
LINE
  8
0
 10
0.169601
 20
4.284
 11
0.207642
 21
4.33395
  0
LINE
  8
0
 10
0.207642
 20
4.33395
 11
0.239105
 21
4.38829
  0
LINE
  8
0
 10
0.239105
 20
4.38829
 11
0.382034
 21
4.67522
  0
LINE
  8
0
 10
0.382034
 20
4.67522
 11
0.533508
 21
4.92372
  0
LINE
  8
0
 10
0.533508
 20
4.92372
 11
0.702621
 21
5.15276
  0
LINE
  8
0
 10
0.702621
 20
5.15276
 11
0.889908
 21
5.36351
  0
LINE
  8
0
 10
0.889908
 20
5.36351
 11
1.09584
 21
5.55664
  0
LINE
  8
0
 10
1.09584
 20
5.55664
 11
1.32147
 21
5.73296
  0
LINE
  8
0
 10
1.32147
 20
5.73296
 11
1.56776
 21
5.89278
  0
LINE
  8
0
 10
1.56776
 20
5.89278
 11
1.83104
 21
6.03366
  0
LINE
  8
0
 10
1.83104
 20
6.03366
 11
2.10735
 21
6.15317
  0
LINE
  8
0
 10
2.10735
 20
6.15317
 11
2.39789
 21
6.25156
  0
LINE
  8
0
 10
2.39789
 20
6.25156
 11
2.7027
 21
6.32855
  0
LINE
  8
0
 10
2.7027
 20
6.32855
 11
3.02304
 21
6.38403
  0
LINE
  8
0
 10
3.02304
 20
6.38403
 11
3.35904
 21
6.41763
  0
LINE
  8
0
 10
3.35904
 20
6.41763
 11
3.71478
 21
6.42906
  0
LINE
  8
0
 10
3.71478
 20
6.42906
 11
3.89079
 21
6.42603
  0
LINE
  8
0
 10
3.89079
 20
6.42603
 11
4.06953
 21
6.41675
  0
LINE
  8
0
 10
4.06953
 20
6.41675
 11
4.24654
 21
6.40134
  0
LINE
  8
0
 10
4.24654
 20
6.40134
 11
4.42261
 21
6.37975
  0
LINE
  8
0
 10
4.42261
 20
6.37975
 11
4.45145
 21
6.37517
  0
LINE
  8
0
 10
4.45145
 20
6.37517
 11
4.34233
 21
6.33069
  0
LINE
  8
0
 10
4.34233
 20
6.33069
 11
3.74898
 21
5.99402
  0
LINE
  8
0
 10
3.74898
 20
5.99402
 11
3.20457
 21
5.58255
  0
LINE
  8
0
 10
3.20457
 20
5.58255
 11
2.70911
 21
5.09625
  0
LINE
  8
0
 10
2.70911
 20
5.09625
 11
2.27176
 21
4.54555
  0
LINE
  8
0
 10
2.27176
 20
4.54555
 11
2.21014
 21
4.44485
  0
LINE
  8
0
 10
2.21014
 20
4.44485
 11
2.16498
 21
4.43584
  0
LINE
  8
0
 10
2.16498
 20
4.43584
 11
2.1335
 21
4.42848
  0
LINE
  8
0
 10
2.1335
 20
4.42848
 11
1.87694
 21
4.35973
  0
LINE
  8
0
 10
1.87694
 20
4.35973
 11
1.84442
 21
4.34982
  0
LINE
  8
0
 10
1.84442
 20
4.34982
 11
1.59891
 21
4.26578
  0
LINE
  8
0
 10
1.59891
 20
4.26578
 11
1.56581
 21
4.25311
  0
LINE
  8
0
 10
1.56581
 20
4.25311
 11
1.33136
 21
4.15379
  0
LINE
  8
0
 10
1.33136
 20
4.15379
 11
1.29774
 21
4.13806
  0
LINE
  8
0
 10
1.29774
 20
4.13806
 11
1.07629
 21
4.02419
  0
LINE
  8
0
 10
1.07629
 20
4.02419
 11
1.04204
 21
4.00482
  0
LINE
  8
0
 10
1.04204
 20
4.00482
 11
0.835388
 21
3.87708
  0
LINE
  8
0
 10
0.835388
 20
3.87708
 11
0.801331
 21
3.85405
  0
LINE
  8
0
 10
0.801331
 20
3.85405
 11
0.609497
 21
3.71243
  0
LINE
  8
0
 10
0.609497
 20
3.71243
 11
0.576492
 21
3.68582
  0
LINE
  8
0
 10
0.576492
 20
3.68582
 11
0.399475
 21
3.53033
  0
LINE
  8
0
 10
0.399475
 20
3.53033
 11
0.368378
 21
3.50055
  0
LINE
  8
0
 10
0.368378
 20
3.50055
 11
0.206177
 21
3.33122
  0
LINE
  8
0
 10
0.206177
 20
3.33122
 11
0.177673
 21
3.29877
  0
LINE
  8
0
 10
0.177673
 20
3.29877
 11
0.0302734
 21
3.11555
  0
LINE
  8
0
 10
0.0302734
 20
3.11555
 11
0.00497437
 21
3.08122
  0
LINE
  8
0
 10
0.00497437
 20
3.08122
 11
-0.127594
 21
2.88416
  0
LINE
  8
0
 10
-0.127594
 20
2.88416
 11
-0.14386
 21
2.85829
  0
LINE
  8
0
 10
-0.14386
 20
2.85829
 11
-0.219528
 21
2.72946
  0
LINE
  8
0
 10
-0.219528
 20
2.72946
 11
-0.234741
 21
2.70157
  0
LINE
  8
0
 10
-0.234741
 20
2.70157
 11
-0.303574
 21
2.56522
  0
LINE
  8
0
 10
-0.303574
 20
2.56522
 11
-0.316406
 21
2.53775
  0
LINE
  8
0
 10
-0.316406
 20
2.53775
 11
-0.378403
 21
2.39388
  0
LINE
  8
0
 10
-0.378403
 20
2.39388
 11
-0.388992
 21
2.36722
  0
LINE
  8
0
 10
-0.388992
 20
2.36722
 11
-0.444168
 21
2.21582
  0
LINE
  8
0
 10
-0.444168
 20
2.21582
 11
-0.452759
 21
2.19012
  0
LINE
  8
0
 10
-0.452759
 20
2.19012
 11
-0.501099
 21
2.0312
  0
LINE
  8
0
 10
-0.501099
 20
2.0312
 11
-0.507874
 21
2.00671
  0
LINE
  8
0
 10
-0.507874
 20
2.00671
 11
-0.549393
 21
1.84027
  0
LINE
  8
0
 10
-0.549393
 20
1.84027
 11
-0.554596
 21
1.81706
  0
LINE
  8
0
 10
-0.554596
 20
1.81706
 11
-0.576523
 21
1.70705
  0
LINE
  8
0
 10
-0.576523
 20
1.70705
 11
-0.580032
 21
1.97186
  0
LINE
  8
0
 10
-7.61787
 20
-5.78999
 11
-7.61787
 21
1.99631
  0
LINE
  8
0
 10
-7.61787
 20
1.99631
 11
-7.6179
 21
2.0024
  0
LINE
  8
0
 10
-7.6179
 20
2.0024
 11
-7.6226
 21
2.38861
  0
LINE
  8
0
 10
-7.6226
 20
2.38861
 11
-7.62299
 21
2.40276
  0
LINE
  8
0
 10
-7.62299
 20
2.40276
 11
-7.6371
 21
2.75134
  0
LINE
  8
0
 10
-7.6371
 20
2.75134
 11
-7.63811
 21
2.76881
  0
LINE
  8
0
 10
-7.63811
 20
2.76881
 11
-7.66162
 21
3.07976
  0
LINE
  8
0
 10
-7.66162
 20
3.07976
 11
-7.66379
 21
3.10188
  0
LINE
  8
0
 10
-7.66379
 20
3.10188
 11
-7.69673
 21
3.3752
  0
LINE
  8
0
 10
-7.69673
 20
3.3752
 11
-7.70102
 21
3.40376
  0
LINE
  8
0
 10
-7.70102
 20
3.40376
 11
-7.74335
 21
3.63943
  0
LINE
  8
0
 10
-7.74335
 20
3.63943
 11
-7.75172
 21
3.67746
  0
LINE
  8
0
 10
-7.75172
 20
3.67746
 11
-7.80348
 21
3.8755
  0
LINE
  8
0
 10
-7.80348
 20
3.8755
 11
-7.82004
 21
3.92722
  0
LINE
  8
0
 10
-7.82004
 20
3.92722
 11
-7.8812
 21
4.08762
  0
LINE
  8
0
 10
-7.8812
 20
4.08762
 11
-7.91115
 21
4.15201
  0
LINE
  8
0
 10
-7.91115
 20
4.15201
 11
-7.98407
 21
4.28348
  0
LINE
  8
0
 10
-7.98407
 20
4.28348
 11
-8.02751
 21
4.34904
  0
LINE
  8
0
 10
-8.02751
 20
4.34904
 11
-8.11455
 21
4.4603
  0
LINE
  8
0
 10
-8.11455
 20
4.4603
 11
-8.17392
 21
4.52391
  0
LINE
  8
0
 10
-8.17392
 20
4.52391
 11
-8.27509
 21
4.61493
  0
LINE
  8
0
 10
-8.27509
 20
4.61493
 11
-8.3479
 21
4.66933
  0
LINE
  8
0
 10
-8.3479
 20
4.66933
 11
-8.4632
 21
4.74011
  0
LINE
  8
0
 10
-8.4632
 20
4.74011
 11
-8.54282
 21
4.77971
  0
LINE
  8
0
 10
-8.54282
 20
4.77971
 11
-8.67221
 21
4.83028
  0
LINE
  8
0
 10
-8.67221
 20
4.83028
 11
-8.75081
 21
4.85378
  0
LINE
  8
0
 10
-8.75081
 20
4.85378
 11
-8.75858
 21
4.85541
  0
LINE
  8
0
 10
-8.75858
 20
4.85541
 11
-8.98558
 21
5.2435
  0
LINE
  8
0
 10
-8.98558
 20
5.2435
 11
-9.32352
 21
5.65012
  0
LINE
  8
0
 10
-9.32352
 20
5.65012
 11
-9.55006
 21
5.84126
  0
LINE
  8
0
 10
-9.55006
 20
5.84126
 11
-9.53951
 21
5.85277
  0
LINE
  8
0
 10
-9.53951
 20
5.85277
 11
-9.412
 21
5.96909
  0
LINE
  8
0
 10
-9.412
 20
5.96909
 11
-9.27208
 21
6.076
  0
LINE
  8
0
 10
-9.27208
 20
6.076
 11
-9.12386
 21
6.17056
  0
LINE
  8
0
 10
-9.12386
 20
6.17056
 11
-8.97241
 21
6.24968
  0
LINE
  8
0
 10
-8.97241
 20
6.24968
 11
-8.81717
 21
6.314
  0
LINE
  8
0
 10
-8.81717
 20
6.314
 11
-8.65733
 21
6.36394
  0
LINE
  8
0
 10
-8.65733
 20
6.36394
 11
-8.49225
 21
6.39969
  0
LINE
  8
0
 10
-8.49225
 20
6.39969
 11
-8.32013
 21
6.42143
  0
LINE
  8
0
 10
-8.32013
 20
6.42143
 11
-8.14133
 21
6.42876
  0
LINE
  8
0
 10
-8.14133
 20
6.42876
 11
-7.9633
 21
6.42108
  0
LINE
  8
0
 10
-7.9633
 20
6.42108
 11
-7.79239
 21
6.39847
  0
LINE
  8
0
 10
-7.79239
 20
6.39847
 11
-7.62733
 21
6.36107
  0
LINE
  8
0
 10
-7.62733
 20
6.36107
 11
-7.46692
 21
6.30878
  0
LINE
  8
0
 10
-7.46692
 20
6.30878
 11
-7.3102
 21
6.24121
  0
LINE
  8
0
 10
-7.3102
 20
6.24121
 11
-7.15613
 21
6.15765
  0
LINE
  8
0
 10
-7.15613
 20
6.15765
 11
-7.00441
 21
6.0575
  0
LINE
  8
0
 10
-7.00441
 20
6.0575
 11
-6.86479
 21
5.94743
  0
LINE
  8
0
 10
-6.86479
 20
5.94743
 11
-6.74606
 21
5.83487
  0
LINE
  8
0
 10
-6.74606
 20
5.83487
 11
-6.6472
 21
5.72037
  0
LINE
  8
0
 10
-6.6472
 20
5.72037
 11
-6.56644
 21
5.60362
  0
LINE
  8
0
 10
-6.56644
 20
5.60362
 11
-6.50212
 21
5.48378
  0
LINE
  8
0
 10
-6.50212
 20
5.48378
 11
-6.4529
 21
5.35938
  0
LINE
  8
0
 10
-6.4529
 20
5.35938
 11
-6.41045
 21
5.20067
  0
LINE
  8
0
 10
-6.41045
 20
5.20067
 11
-6.38516
 21
5.12869
  0
LINE
  8
0
 10
-6.38516
 20
5.12869
 11
-6.35635
 21
5.07291
  0
LINE
  8
0
 10
-6.35635
 20
5.07291
 11
-6.32077
 21
5.02116
  0
LINE
  8
0
 10
-6.32077
 20
5.02116
 11
-6.27898
 21
4.9743
  0
LINE
  8
0
 10
-6.27898
 20
4.9743
 11
-6.23164
 21
4.93304
  0
LINE
  8
0
 10
-6.23164
 20
4.93304
 11
-6.17952
 21
4.89804
  0
LINE
  8
0
 10
-6.17952
 20
4.89804
 11
-6.12341
 21
4.86984
  0
LINE
  8
0
 10
-6.12341
 20
4.86984
 11
-6.06421
 21
4.84891
  0
LINE
  8
0
 10
-6.06421
 20
4.84891
 11
-6.00285
 21
4.83556
  0
LINE
  8
0
 10
-6.00285
 20
4.83556
 11
-5.94031
 21
4.83
  0
LINE
  8
0
 10
-5.94031
 20
4.83
 11
-5.87756
 21
4.83232
  0
LINE
  8
0
 10
-5.87756
 20
4.83232
 11
-5.81561
 21
4.8425
  0
LINE
  8
0
 10
-5.81561
 20
4.8425
 11
-5.7554
 21
4.86035
  0
LINE
  8
0
 10
-5.7554
 20
4.86035
 11
-5.69792
 21
4.8856
  0
LINE
  8
0
 10
-5.69792
 20
4.8856
 11
-5.64406
 21
4.91788
  0
LINE
  8
0
 10
-5.64406
 20
4.91788
 11
-5.59467
 21
4.95663
  0
LINE
  8
0
 10
-5.59467
 20
4.95663
 11
-5.55051
 21
5.00128
  0
LINE
  8
0
 10
-5.55051
 20
5.00128
 11
-5.5123
 21
5.05112
  0
LINE
  8
0
 10
-5.5123
 20
5.05112
 11
-5.48064
 21
5.10535
  0
LINE
  8
0
 10
-5.48064
 20
5.10535
 11
-5.37488
 21
5.31583
  0
LINE
  8
0
 10
-5.37488
 20
5.31583
 11
-5.27046
 21
5.49416
  0
LINE
  8
0
 10
-5.27046
 20
5.49416
 11
-5.16119
 21
5.65402
  0
LINE
  8
0
 10
-5.16119
 20
5.65402
 11
-5.04747
 21
5.7959
  0
LINE
  8
0
 10
-5.04747
 20
5.7959
 11
-4.92979
 21
5.92033
  0
LINE
  8
0
 10
-4.92979
 20
5.92033
 11
-4.80807
 21
6.02838
  0
LINE
  8
0
 10
-4.80807
 20
6.02838
 11
-4.68193
 21
6.1212
  0
LINE
  8
0
 10
-4.68193
 20
6.1212
 11
-4.54913
 21
6.20068
  0
LINE
  8
0
 10
-4.54913
 20
6.20068
 11
-4.4071
 21
6.2684
  0
LINE
  8
0
 10
-4.4071
 20
6.2684
 11
-4.25443
 21
6.32465
  0
LINE
  8
0
 10
-4.25443
 20
6.32465
 11
-4.08965
 21
6.36938
  0
LINE
  8
0
 10
-4.08965
 20
6.36938
 11
-3.91237
 21
6.40204
  0
LINE
  8
0
 10
-3.91237
 20
6.40204
 11
-3.722
 21
6.42207
  0
LINE
  8
0
 10
-3.722
 20
6.42207
 11
-3.58633
 21
6.42662
  0
LINE
  8
0
 10
-3.58633
 20
6.42662
 11
-3.58633
 21
4.69846
  0
LINE
  8
0
 10
-3.58633
 20
4.69846
 11
-3.65979
 21
4.74318
  0
LINE
  8
0
 10
-3.65979
 20
4.74318
 11
-3.73996
 21
4.78265
  0
LINE
  8
0
 10
-3.73996
 20
4.78265
 11
-3.86815
 21
4.83206
  0
LINE
  8
0
 10
-3.86815
 20
4.83206
 11
-3.94632
 21
4.85507
  0
LINE
  8
0
 10
-3.94632
 20
4.85507
 11
-4.0891
 21
4.88472
  0
LINE
  8
0
 10
-4.0891
 20
4.88472
 11
-4.15944
 21
4.89418
  0
LINE
  8
0
 10
-4.15944
 20
4.89418
 11
-4.3168
 21
4.90405
  0
LINE
  8
0
 10
-4.3168
 20
4.90405
 11
-4.38013
 21
4.90401
  0
LINE
  8
0
 10
-4.38013
 20
4.90401
 11
-4.53778
 21
4.89389
  0
LINE
  8
0
 10
-4.53778
 20
4.89389
 11
-4.60916
 21
4.88411
  0
LINE
  8
0
 10
-4.60916
 20
4.88411
 11
-4.75269
 21
4.85378
  0
LINE
  8
0
 10
-4.75269
 20
4.85378
 11
-4.83128
 21
4.83028
  0
LINE
  8
0
 10
-4.83128
 20
4.83028
 11
-4.96068
 21
4.77971
  0
LINE
  8
0
 10
-4.96068
 20
4.77971
 11
-5.0403
 21
4.74011
  0
LINE
  8
0
 10
-5.0403
 20
4.74011
 11
-5.15559
 21
4.66933
  0
LINE
  8
0
 10
-5.15559
 20
4.66933
 11
-5.22841
 21
4.61493
  0
LINE
  8
0
 10
-5.22841
 20
4.61493
 11
-5.32957
 21
4.52391
  0
LINE
  8
0
 10
-5.32957
 20
4.52391
 11
-5.38895
 21
4.4603
  0
LINE
  8
0
 10
-5.38895
 20
4.4603
 11
-5.47598
 21
4.34904
  0
LINE
  8
0
 10
-5.47598
 20
4.34904
 11
-5.51942
 21
4.28348
  0
LINE
  8
0
 10
-5.51942
 20
4.28348
 11
-5.59235
 21
4.15201
  0
LINE
  8
0
 10
-5.59235
 20
4.15201
 11
-5.6223
 21
4.08762
  0
LINE
  8
0
 10
-5.6223
 20
4.08762
 11
-5.68346
 21
3.92722
  0
LINE
  8
0
 10
-5.68346
 20
3.92722
 11
-5.70001
 21
3.8755
  0
LINE
  8
0
 10
-5.70001
 20
3.8755
 11
-5.75177
 21
3.67746
  0
LINE
  8
0
 10
-5.75177
 20
3.67746
 11
-5.76015
 21
3.63943
  0
LINE
  8
0
 10
-5.76015
 20
3.63943
 11
-5.80247
 21
3.40376
  0
LINE
  8
0
 10
-5.80247
 20
3.40376
 11
-5.80676
 21
3.3752
  0
LINE
  8
0
 10
-5.80676
 20
3.3752
 11
-5.83971
 21
3.10188
  0
LINE
  8
0
 10
-5.83971
 20
3.10188
 11
-5.84187
 21
3.07976
  0
LINE
  8
0
 10
-5.84187
 20
3.07976
 11
-5.86539
 21
2.76881
  0
LINE
  8
0
 10
-5.86539
 20
2.76881
 11
-5.86639
 21
2.75134
  0
LINE
  8
0
 10
-5.86639
 20
2.75134
 11
-5.88051
 21
2.40276
  0
LINE
  8
0
 10
-5.88051
 20
2.40276
 11
-5.88089
 21
2.38861
  0
LINE
  8
0
 10
-5.88089
 20
2.38861
 11
-5.88559
 21
2.0024
  0
LINE
  8
0
 10
-5.88559
 20
2.0024
 11
-5.88562
 21
1.99631
  0
LINE
  8
0
 10
-5.88562
 20
1.99631
 11
-5.88562
 21
-5.78999
  0
LINE
  8
0
 10
-5.88562
 20
-5.78999
 11
-7.61787
 21
-5.78999
  0
LINE
  8
0
 10
9.00902
 20
4.3714
 11
8.95157
 21
4.40488
  0
LINE
  8
0
 10
8.95157
 20
4.40488
 11
8.69807
 21
4.53087
  0
LINE
  8
0
 10
8.69807
 20
4.53087
 11
8.64116
 21
4.5549
  0
LINE
  8
0
 10
8.64116
 20
4.5549
 11
8.36201
 21
4.65289
  0
LINE
  8
0
 10
8.36201
 20
4.65289
 11
8.3083
 21
4.66844
  0
LINE
  8
0
 10
8.3083
 20
4.66844
 11
8.00352
 21
4.73843
  0
LINE
  8
0
 10
8.00352
 20
4.73843
 11
7.95465
 21
4.74713
  0
LINE
  8
0
 10
7.95465
 20
4.74713
 11
7.62421
 21
4.78912
  0
LINE
  8
0
 10
7.62421
 20
4.78912
 11
7.58083
 21
4.79272
  0
LINE
  8
0
 10
7.58083
 20
4.79272
 11
7.22476
 21
4.80673
  0
LINE
  8
0
 10
7.22476
 20
4.80673
 11
7.18274
 21
4.80661
  0
LINE
  8
0
 10
7.18274
 20
4.80661
 11
6.85971
 21
4.79214
  0
LINE
  8
0
 10
6.85971
 20
4.79214
 11
6.81131
 21
4.78761
  0
LINE
  8
0
 10
6.81131
 20
4.78761
 11
6.50758
 21
4.74419
  0
LINE
  8
0
 10
6.50758
 20
4.74419
 11
6.45511
 21
4.7338
  0
LINE
  8
0
 10
6.45511
 20
4.7338
 11
6.32788
 21
4.70143
  0
LINE
  8
0
 10
6.32788
 20
4.70143
 11
6.32788
 21
6.2764
  0
LINE
  8
0
 10
6.32788
 20
6.2764
 11
6.18286
 21
6.35071
  0
LINE
  8
0
 10
6.18286
 20
6.35071
 11
6.46552
 21
6.39357
  0
LINE
  8
0
 10
6.46552
 20
6.39357
 11
7.20593
 21
6.42868
  0
LINE
  8
0
 10
7.20593
 20
6.42868
 11
7.95329
 21
6.39598
  0
LINE
  8
0
 10
7.95329
 20
6.39598
 11
8.64438
 21
6.29887
  0
LINE
  8
0
 10
8.64438
 20
6.29887
 11
9.27872
 21
6.13902
  0
LINE
  8
0
 10
9.27872
 20
6.13902
 11
9.85802
 21
5.91777
  0
LINE
  8
0
 10
9.85802
 20
5.91777
 11
10.2989
 21
5.68184
  0
LINE
  8
0
 10
10.2989
 20
5.68184
 11
10.1758
 21
5.58679
  0
LINE
  8
0
 10
10.1758
 20
5.58679
 11
9.69035
 21
5.10204
  0
LINE
  8
0
 10
9.69035
 20
5.10204
 11
9.26067
 21
4.55353
  0
LINE
  8
0
 10
9.26067
 20
4.55353
 11
9.1095
 21
4.30348
  0
LINE
  8
0
 10
9.1095
 20
4.30348
 11
9.00902
 21
4.3714
  0
LINE
  8
0
 10
-18.5546
 20
3.70018
 11
-18.5967
 21
3.75011
  0
LINE
  8
0
 10
-18.5967
 20
3.75011
 11
-18.8268
 21
3.98958
  0
LINE
  8
0
 10
-18.8268
 20
3.98958
 11
-18.8802
 21
4.03772
  0
LINE
  8
0
 10
-18.8802
 20
4.03772
 11
-19.1319
 21
4.23366
  0
LINE
  8
0
 10
-19.1319
 20
4.23366
 11
-19.1956
 21
4.27583
  0
LINE
  8
0
 10
-19.1956
 20
4.27583
 11
-19.4689
 21
4.42822
  0
LINE
  8
0
 10
-19.4689
 20
4.42822
 11
-19.5393
 21
4.46059
  0
LINE
  8
0
 10
-19.5393
 20
4.46059
 11
-19.8343
 21
4.56944
  0
LINE
  8
0
 10
-19.8343
 20
4.56944
 11
-19.9064
 21
4.59006
  0
LINE
  8
0
 10
-19.9064
 20
4.59006
 11
-20.2231
 21
4.65536
  0
LINE
  8
0
 10
-20.2231
 20
4.65536
 11
-20.2919
 21
4.66463
  0
LINE
  8
0
 10
-20.2919
 20
4.66463
 11
-20.6302
 21
4.6864
  0
LINE
  8
0
 10
-20.6302
 20
4.6864
 11
-20.6948
 21
4.68639
  0
LINE
  8
0
 10
-20.6948
 20
4.68639
 11
-21.0301
 21
4.66461
  0
LINE
  8
0
 10
-21.0301
 20
4.66461
 11
-21.0994
 21
4.6552
  0
LINE
  8
0
 10
-21.0994
 20
4.6552
 11
-21.4135
 21
4.58989
  0
LINE
  8
0
 10
-21.4135
 20
4.58989
 11
-21.4859
 21
4.56905
  0
LINE
  8
0
 10
-21.4859
 20
4.56905
 11
-21.7789
 21
4.46019
  0
LINE
  8
0
 10
-21.7789
 20
4.46019
 11
-21.8493
 21
4.42761
  0
LINE
  8
0
 10
-21.8493
 20
4.42761
 11
-22.121
 21
4.27522
  0
LINE
  8
0
 10
-22.121
 20
4.27522
 11
-22.1844
 21
4.23299
  0
LINE
  8
0
 10
-22.1844
 20
4.23299
 11
-22.3297
 21
4.11938
  0
LINE
  8
0
 10
-22.3297
 20
4.11938
 11
-22.3475
 21
4.18338
  0
LINE
  8
0
 10
-22.3475
 20
4.18338
 11
-22.5815
 21
4.75459
  0
LINE
  8
0
 10
-22.5815
 20
4.75459
 11
-22.8675
 21
5.2435
  0
LINE
  8
0
 10
-22.8675
 20
5.2435
 11
-23.2054
 21
5.65012
  0
LINE
  8
0
 10
-23.2054
 20
5.65012
 11
-23.3665
 21
5.78606
  0
LINE
  8
0
 10
-23.3665
 20
5.78606
 11
-23.1981
 21
5.88416
  0
LINE
  8
0
 10
-23.1981
 20
5.88416
 11
-22.6353
 21
6.12047
  0
LINE
  8
0
 10
-22.6353
 20
6.12047
 11
-22.0264
 21
6.29063
  0
LINE
  8
0
 10
-22.0264
 20
6.29063
 11
-21.3691
 21
6.39383
  0
LINE
  8
0
 10
-21.3691
 20
6.39383
 11
-20.6624
 21
6.4286
  0
LINE
  8
0
 10
-20.6624
 20
6.4286
 11
-19.9524
 21
6.3938
  0
LINE
  8
0
 10
-19.9524
 20
6.3938
 11
-19.2925
 21
6.29056
  0
LINE
  8
0
 10
-19.2925
 20
6.29056
 11
-18.6815
 21
6.12033
  0
LINE
  8
0
 10
-18.6815
 20
6.12033
 11
-18.458
 21
6.02673
  0
LINE
  8
0
 10
-18.458
 20
6.02673
 11
-18.4595
 21
6.02615
  0
LINE
  8
0
 10
-18.4595
 20
6.02615
 11
-18.4595
 21
3.57095
  0
LINE
  8
0
 10
-18.4595
 20
3.57095
 11
-18.5546
 21
3.70018
  0
LINE
  8
0
 10
13.3356
 20
-6.0919
 11
12.6784
 21
-5.98872
  0
LINE
  8
0
 10
12.6784
 20
-5.98872
 11
12.1972
 21
-5.85423
  0
LINE
  8
0
 10
12.1972
 20
-5.85423
 11
12.367
 21
-5.79234
  0
LINE
  8
0
 10
12.367
 20
-5.79234
 11
12.7039
 21
-5.65895
  0
LINE
  8
0
 10
12.7039
 20
-5.65895
 11
12.7039
 21
-4.0407
  0
LINE
  8
0
 10
12.7039
 20
-4.0407
 11
12.8555
 21
-4.12569
  0
LINE
  8
0
 10
12.8555
 20
-4.12569
 11
12.9258
 21
-4.15826
  0
LINE
  8
0
 10
12.9258
 20
-4.15826
 11
13.2188
 21
-4.26712
  0
LINE
  8
0
 10
13.2188
 20
-4.26712
 11
13.2912
 21
-4.28796
  0
LINE
  8
0
 10
13.2912
 20
-4.28796
 11
13.6053
 21
-4.35327
  0
LINE
  8
0
 10
13.6053
 20
-4.35327
 11
13.6747
 21
-4.36269
  0
LINE
  8
0
 10
13.6747
 20
-4.36269
 11
14.0099
 21
-4.38446
  0
LINE
  8
0
 10
14.0099
 20
-4.38446
 11
14.0745
 21
-4.38448
  0
LINE
  8
0
 10
14.0745
 20
-4.38448
 11
14.4128
 21
-4.3627
  0
LINE
  8
0
 10
14.4128
 20
-4.3627
 11
14.4817
 21
-4.35344
  0
LINE
  8
0
 10
14.4817
 20
-4.35344
 11
14.7983
 21
-4.28813
  0
LINE
  8
0
 10
14.7983
 20
-4.28813
 11
14.8704
 21
-4.26752
  0
LINE
  8
0
 10
14.8704
 20
-4.26752
 11
15.1654
 21
-4.15866
  0
LINE
  8
0
 10
15.1654
 20
-4.15866
 11
15.2358
 21
-4.1263
  0
LINE
  8
0
 10
15.2358
 20
-4.1263
 11
15.5091
 21
-3.97391
  0
LINE
  8
0
 10
15.5091
 20
-3.97391
 11
15.5728
 21
-3.93173
  0
LINE
  8
0
 10
15.5728
 20
-3.93173
 11
15.8245
 21
-3.73579
  0
LINE
  8
0
 10
15.8245
 20
-3.73579
 11
15.878
 21
-3.68764
  0
LINE
  8
0
 10
15.878
 20
-3.68764
 11
16.108
 21
-3.44817
  0
LINE
  8
0
 10
16.108
 20
-3.44817
 11
16.1501
 21
-3.39827
  0
LINE
  8
0
 10
16.1501
 20
-3.39827
 11
16.3585
 21
-3.11525
  0
LINE
  8
0
 10
16.3585
 20
-3.11525
 11
16.3902
 21
-3.06642
  0
LINE
  8
0
 10
16.3902
 20
-3.06642
 11
16.5737
 21
-2.74458
  0
LINE
  8
0
 10
16.5737
 20
-2.74458
 11
16.5977
 21
-2.69684
  0
LINE
  8
0
 10
16.5977
 20
-2.69684
 11
16.753
 21
-2.34085
  0
LINE
  8
0
 10
16.753
 20
-2.34085
 11
16.7701
 21
-2.29576
  0
LINE
  8
0
 10
16.7701
 20
-2.29576
 11
16.8971
 21
-1.90564
  0
LINE
  8
0
 10
16.8971
 20
-1.90564
 11
16.9087
 21
-1.86426
  0
LINE
  8
0
 10
16.9087
 20
-1.86426
 11
17.0075
 21
-1.44002
  0
LINE
  8
0
 10
17.0075
 20
-1.44002
 11
17.0147
 21
-1.40265
  0
LINE
  8
0
 10
17.0147
 20
-1.40265
 11
17.0853
 21
-0.94426
  0
LINE
  8
0
 10
17.0853
 20
-0.94426
 11
17.0893
 21
-0.911026
  0
LINE
  8
0
 10
17.0893
 20
-0.911026
 11
17.1316
 21
-0.418518
  0
LINE
  8
0
 10
17.1316
 20
-0.418518
 11
17.1333
 21
-0.389069
  0
LINE
  8
0
 10
17.1333
 20
-0.389069
 11
17.1474
 21
0.137558
  0
LINE
  8
0
 10
17.1474
 20
0.137558
 11
17.1474
 21
0.164352
  0
LINE
  8
0
 10
17.1474
 20
0.164352
 11
17.1333
 21
0.690994
  0
LINE
  8
0
 10
17.1333
 20
0.690994
 11
17.1316
 21
0.720444
  0
LINE
  8
0
 10
17.1316
 20
0.720444
 11
17.0893
 21
1.21295
  0
LINE
  8
0
 10
17.0893
 20
1.21295
 11
17.0853
 21
1.24619
  0
LINE
  8
0
 10
17.0853
 20
1.24619
 11
17.0147
 21
1.70456
  0
LINE
  8
0
 10
17.0147
 20
1.70456
 11
17.0075
 21
1.74191
  0
LINE
  8
0
 10
17.0075
 20
1.74191
 11
16.9087
 21
2.16617
  0
LINE
  8
0
 10
16.9087
 20
2.16617
 11
16.8971
 21
2.20757
  0
LINE
  8
0
 10
16.8971
 20
2.20757
 11
16.7701
 21
2.59767
  0
LINE
  8
0
 10
16.7701
 20
2.59767
 11
16.753
 21
2.64276
  0
LINE
  8
0
 10
16.753
 20
2.64276
 11
16.5977
 21
2.99875
  0
LINE
  8
0
 10
16.5977
 20
2.99875
 11
16.5737
 21
3.04649
  0
LINE
  8
0
 10
16.5737
 20
3.04649
 11
16.3902
 21
3.36835
  0
LINE
  8
0
 10
16.3902
 20
3.36835
 11
16.3585
 21
3.41718
  0
LINE
  8
0
 10
16.3585
 20
3.41718
 11
16.1501
 21
3.7002
  0
LINE
  8
0
 10
16.1501
 20
3.7002
 11
16.108
 21
3.75009
  0
LINE
  8
0
 10
16.108
 20
3.75009
 11
15.878
 21
3.98956
  0
LINE
  8
0
 10
15.878
 20
3.98956
 11
15.8245
 21
4.03772
  0
LINE
  8
0
 10
15.8245
 20
4.03772
 11
15.5728
 21
4.23366
  0
LINE
  8
0
 10
15.5728
 20
4.23366
 11
15.5091
 21
4.27583
  0
LINE
  8
0
 10
15.5091
 20
4.27583
 11
15.2358
 21
4.42822
  0
LINE
  8
0
 10
15.2358
 20
4.42822
 11
15.1654
 21
4.46059
  0
LINE
  8
0
 10
15.1654
 20
4.46059
 11
14.8704
 21
4.56944
  0
LINE
  8
0
 10
14.8704
 20
4.56944
 11
14.7983
 21
4.59006
  0
LINE
  8
0
 10
14.7983
 20
4.59006
 11
14.4817
 21
4.65536
  0
LINE
  8
0
 10
14.4817
 20
4.65536
 11
14.4128
 21
4.66463
  0
LINE
  8
0
 10
14.4128
 20
4.66463
 11
14.0745
 21
4.6864
  0
LINE
  8
0
 10
14.0745
 20
4.6864
 11
14.0099
 21
4.68639
  0
LINE
  8
0
 10
14.0099
 20
4.68639
 11
13.6747
 21
4.66461
  0
LINE
  8
0
 10
13.6747
 20
4.66461
 11
13.6053
 21
4.6552
  0
LINE
  8
0
 10
13.6053
 20
4.6552
 11
13.2912
 21
4.58989
  0
LINE
  8
0
 10
13.2912
 20
4.58989
 11
13.2188
 21
4.56905
  0
LINE
  8
0
 10
13.2188
 20
4.56905
 11
12.9258
 21
4.46019
  0
LINE
  8
0
 10
12.9258
 20
4.46019
 11
12.8555
 21
4.42761
  0
LINE
  8
0
 10
12.8555
 20
4.42761
 11
12.5837
 21
4.27522
  0
LINE
  8
0
 10
12.5837
 20
4.27522
 11
12.5203
 21
4.23299
  0
LINE
  8
0
 10
12.5203
 20
4.23299
 11
12.4261
 21
4.15938
  0
LINE
  8
0
 10
12.4261
 20
4.15938
 11
12.0813
 21
4.71297
  0
LINE
  8
0
 10
12.0813
 20
4.71297
 11
11.6608
 21
5.22749
  0
LINE
  8
0
 10
11.6608
 20
5.22749
 11
11.1817
 21
5.67897
  0
LINE
  8
0
 10
11.1817
 20
5.67897
 11
11.1694
 21
5.68777
  0
LINE
  8
0
 10
11.1694
 20
5.68777
 11
11.5066
 21
5.88416
  0
LINE
  8
0
 10
11.5066
 20
5.88416
 11
12.0695
 21
6.12047
  0
LINE
  8
0
 10
12.0695
 20
6.12047
 11
12.6784
 21
6.29063
  0
LINE
  8
0
 10
12.6784
 20
6.29063
 11
13.3356
 21
6.39383
  0
LINE
  8
0
 10
13.3356
 20
6.39383
 11
14.0423
 21
6.4286
  0
LINE
  8
0
 10
14.0423
 20
6.4286
 11
14.7523
 21
6.3938
  0
LINE
  8
0
 10
14.7523
 20
6.3938
 11
15.4123
 21
6.29056
  0
LINE
  8
0
 10
15.4123
 20
6.29056
 11
16.0233
 21
6.12033
  0
LINE
  8
0
 10
16.0233
 20
6.12033
 11
16.5877
 21
5.88394
  0
LINE
  8
0
 10
16.5877
 20
5.88394
 11
17.1089
 21
5.58105
  0
LINE
  8
0
 10
17.1089
 20
5.58105
 11
17.2365
 21
5.48257
  0
LINE
  8
0
 10
17.2365
 20
5.48257
 11
17.2365
 21
-5.18065
  0
LINE
  8
0
 10
17.2365
 20
-5.18065
 11
17.1088
 21
-5.27917
  0
LINE
  8
0
 10
17.1088
 20
-5.27917
 11
16.5877
 21
-5.58203
  0
LINE
  8
0
 10
16.5877
 20
-5.58203
 11
16.0233
 21
-5.81839
  0
LINE
  8
0
 10
16.0233
 20
-5.81839
 11
15.4122
 21
-5.98865
  0
LINE
  8
0
 10
15.4122
 20
-5.98865
 11
14.7524
 21
-6.09187
  0
LINE
  8
0
 10
14.7524
 20
-6.09187
 11
14.0423
 21
-6.12668
  0
LINE
  8
0
 10
14.0423
 20
-6.12668
 11
13.3356
 21
-6.0919
  0
LINE
  8
0
 10
5.205
 20
4.28352
 11
5.17969
 21
4.29216
  0
LINE
  8
0
 10
5.17969
 20
4.29216
 11
4.96429
 21
4.35927
  0
LINE
  8
0
 10
4.96429
 20
4.35927
 11
4.93988
 21
4.3662
  0
LINE
  8
0
 10
4.93988
 20
4.3662
 11
4.71861
 21
4.42299
  0
LINE
  8
0
 10
4.71861
 20
4.42299
 11
4.6945
 21
4.42854
  0
LINE
  8
0
 10
4.6945
 20
4.42854
 11
4.46736
 21
4.47501
  0
LINE
  8
0
 10
4.46736
 20
4.47501
 11
4.44377
 21
4.47925
  0
LINE
  8
0
 10
4.44377
 20
4.47925
 11
4.21074
 21
4.51538
  0
LINE
  8
0
 10
4.21074
 20
4.51538
 11
4.18785
 21
4.51839
  0
LINE
  8
0
 10
4.18785
 20
4.51839
 11
3.94896
 21
4.5442
  0
LINE
  8
0
 10
3.94896
 20
4.5442
 11
3.9268
 21
4.54611
  0
LINE
  8
0
 10
3.9268
 20
4.54611
 11
3.68202
 21
4.5616
  0
LINE
  8
0
 10
3.68202
 20
4.5616
 11
3.66074
 21
4.56248
  0
LINE
  8
0
 10
3.66074
 20
4.56248
 11
3.4101
 21
4.56764
  0
LINE
  8
0
 10
3.4101
 20
4.56764
 11
3.38713
 21
4.56758
  0
LINE
  8
0
 10
3.38713
 20
4.56758
 11
3.08632
 21
4.55995
  0
LINE
  8
0
 10
3.08632
 20
4.55995
 11
3.05957
 21
4.55856
  0
LINE
  8
0
 10
3.05957
 20
4.55856
 11
2.91125
 21
4.54683
  0
LINE
  8
0
 10
2.91125
 20
4.54683
 11
3.08136
 21
4.76102
  0
LINE
  8
0
 10
3.08136
 20
4.76102
 11
3.53181
 21
5.20314
  0
LINE
  8
0
 10
3.53181
 20
5.20314
 11
4.02425
 21
5.57532
  0
LINE
  8
0
 10
4.02425
 20
5.57532
 11
4.56105
 21
5.87991
  0
LINE
  8
0
 10
4.56105
 20
5.87991
 11
5.1449
 21
6.11792
  0
LINE
  8
0
 10
5.1449
 20
6.11792
 11
5.32399
 21
6.16638
  0
LINE
  8
0
 10
5.32399
 20
6.16638
 11
5.45049
 21
6.12267
  0
LINE
  8
0
 10
5.45049
 20
6.12267
 11
5.61417
 21
6.05956
  0
LINE
  8
0
 10
5.61417
 20
6.05956
 11
5.77573
 21
5.99062
  0
LINE
  8
0
 10
5.77573
 20
5.99062
 11
5.82788
 21
5.96616
  0
LINE
  8
0
 10
5.82788
 20
5.96616
 11
5.82788
 21
4.53247
  0
LINE
  8
0
 10
5.82788
 20
4.53247
 11
5.79472
 21
4.51743
  0
LINE
  8
0
 10
5.79472
 20
4.51743
 11
5.54886
 21
4.38719
  0
LINE
  8
0
 10
5.54886
 20
4.38719
 11
5.49547
 21
4.35448
  0
LINE
  8
0
 10
5.49547
 20
4.35448
 11
5.32895
 21
4.23749
  0
LINE
  8
0
 10
5.32895
 20
4.23749
 11
5.205
 21
4.28352
  0
LINE
  8
0
 10
26.1603
 20
6.16171
 11
26.2736
 21
6.12257
  0
LINE
  8
0
 10
26.2736
 20
6.12257
 11
26.437
 21
6.05956
  0
LINE
  8
0
 10
26.437
 20
6.05956
 11
26.5988
 21
5.99054
  0
LINE
  8
0
 10
26.5988
 20
5.99054
 11
26.6507
 21
5.96616
  0
LINE
  8
0
 10
26.6507
 20
5.96616
 11
26.6507
 21
5.63644
  0
LINE
  8
0
 10
26.6507
 20
5.63644
 11
26.5598
 21
5.51308
  0
LINE
  8
0
 10
26.5598
 20
5.51308
 11
26.4059
 21
5.25652
  0
LINE
  8
0
 10
26.4059
 20
5.25652
 11
26.2728
 21
4.98021
  0
LINE
  8
0
 10
26.2728
 20
4.98021
 11
26.1603
 21
4.68417
  0
LINE
  8
0
 10
26.1603
 20
4.68417
 11
26.1603
 21
6.16171
  0
LINE
  8
0
 10
25.7627
 20
4.3662
 11
25.5415
 21
4.42299
  0
LINE
  8
0
 10
25.5415
 20
4.42299
 11
25.5173
 21
4.42854
  0
LINE
  8
0
 10
25.5173
 20
4.42854
 11
25.2902
 21
4.47501
  0
LINE
  8
0
 10
25.2902
 20
4.47501
 11
25.2666
 21
4.47925
  0
LINE
  8
0
 10
25.2666
 20
4.47925
 11
25.0336
 21
4.51538
  0
LINE
  8
0
 10
25.0336
 20
4.51538
 11
25.0107
 21
4.51839
  0
LINE
  8
0
 10
25.0107
 20
4.51839
 11
24.7718
 21
4.5442
  0
LINE
  8
0
 10
24.7718
 20
4.5442
 11
24.7496
 21
4.54611
  0
LINE
  8
0
 10
24.7496
 20
4.54611
 11
24.5049
 21
4.5616
  0
LINE
  8
0
 10
24.5049
 20
4.5616
 11
24.4836
 21
4.56248
  0
LINE
  8
0
 10
24.4836
 20
4.56248
 11
24.2329
 21
4.56764
  0
LINE
  8
0
 10
24.2329
 20
4.56764
 11
24.21
 21
4.56758
  0
LINE
  8
0
 10
24.21
 20
4.56758
 11
23.9092
 21
4.55995
  0
LINE
  8
0
 10
23.9092
 20
4.55995
 11
23.8824
 21
4.55856
  0
LINE
  8
0
 10
23.8824
 20
4.55856
 11
23.5927
 21
4.53564
  0
LINE
  8
0
 10
23.5927
 20
4.53564
 11
23.5642
 21
4.53256
  0
LINE
  8
0
 10
23.5642
 20
4.53256
 11
23.3057
 21
4.49712
  0
LINE
  8
0
 10
23.3057
 20
4.49712
 11
23.3057
 21
6.12456
  0
LINE
  8
0
 10
23.3057
 20
6.12456
 11
25.6603
 21
6.12456
  0
LINE
  8
0
 10
25.6603
 20
6.12456
 11
25.6603
 21
4.68417
  0
LINE
  8
0
 10
25.6603
 20
4.68417
 11
25.6652
 21
4.61459
  0
LINE
  8
0
 10
25.6652
 20
4.61459
 11
25.6778
 21
4.55309
  0
LINE
  8
0
 10
25.6778
 20
4.55309
 11
25.698
 21
4.49364
  0
LINE
  8
0
 10
25.698
 20
4.49364
 11
25.7256
 21
4.43721
  0
LINE
  8
0
 10
25.7256
 20
4.43721
 11
25.7599
 21
4.38466
  0
LINE
  8
0
 10
25.7599
 20
4.38466
 11
25.7798
 21
4.36136
  0
LINE
  8
0
 10
25.7798
 20
4.36136
 11
25.7627
 21
4.3662
  0
LINE
  8
0
 10
-10.9043
 20
-5.78999
 11
-10.9043
 21
-4.85179
  0
LINE
  8
0
 10
-10.9043
 20
-4.85179
 11
-10.9067
 21
-4.80307
  0
LINE
  8
0
 10
-10.9067
 20
-4.80307
 11
-10.9167
 21
-4.74109
  0
LINE
  8
0
 10
-10.9167
 20
-4.74109
 11
-10.9345
 21
-4.68085
  0
LINE
  8
0
 10
-10.9345
 20
-4.68085
 11
-10.9596
 21
-4.62331
  0
LINE
  8
0
 10
-10.9596
 20
-4.62331
 11
-10.9917
 21
-4.56937
  0
LINE
  8
0
 10
-10.9917
 20
-4.56937
 11
-11.0304
 21
-4.51988
  0
LINE
  8
0
 10
-11.0304
 20
-4.51988
 11
-11.0749
 21
-4.47563
  0
LINE
  8
0
 10
-11.0749
 20
-4.47563
 11
-11.1247
 21
-4.43732
  0
LINE
  8
0
 10
-11.1247
 20
-4.43732
 11
-11.1788
 21
-4.40553
  0
LINE
  8
0
 10
-11.1788
 20
-4.40553
 11
-11.2365
 21
-4.38078
  0
LINE
  8
0
 10
-11.2365
 20
-4.38078
 11
-11.2969
 21
-4.36346
  0
LINE
  8
0
 10
-11.2969
 20
-4.36346
 11
-11.3589
 21
-4.35385
  0
LINE
  8
0
 10
-11.3589
 20
-4.35385
 11
-11.4217
 21
-4.3521
  0
LINE
  8
0
 10
-11.4217
 20
-4.3521
 11
-11.4842
 21
-4.35822
  0
LINE
  8
0
 10
-11.4842
 20
-4.35822
 11
-11.5454
 21
-4.37212
  0
LINE
  8
0
 10
-11.5454
 20
-4.37212
 11
-11.6044
 21
-4.39359
  0
LINE
  8
0
 10
-11.6044
 20
-4.39359
 11
-11.6603
 21
-4.42227
  0
LINE
  8
0
 10
-11.6603
 20
-4.42227
 11
-11.7121
 21
-4.45775
  0
LINE
  8
0
 10
-11.7121
 20
-4.45775
 11
-11.7591
 21
-4.49942
  0
LINE
  8
0
 10
-11.7591
 20
-4.49942
 11
-11.8004
 21
-4.54666
  0
LINE
  8
0
 10
-11.8004
 20
-4.54666
 11
-11.9713
 21
-4.76842
  0
LINE
  8
0
 10
-11.9713
 20
-4.76842
 11
-12.1429
 21
-4.9612
  0
LINE
  8
0
 10
-12.1429
 20
-4.9612
 11
-12.3268
 21
-5.13968
  0
LINE
  8
0
 10
-12.3268
 20
-5.13968
 11
-12.4365
 21
-5.23169
  0
LINE
  8
0
 10
-12.4365
 20
-5.23169
 11
-12.4365
 21
-4.25839
  0
LINE
  8
0
 10
-12.4365
 20
-4.25839
 11
-12.3311
 21
-4.18661
  0
LINE
  8
0
 10
-12.3311
 20
-4.18661
 11
-12.2751
 21
-4.14227
  0
LINE
  8
0
 10
-12.2751
 20
-4.14227
 11
-12.0276
 21
-3.9158
  0
LINE
  8
0
 10
-12.0276
 20
-3.9158
 11
-11.9811
 21
-3.86703
  0
LINE
  8
0
 10
-11.9811
 20
-3.86703
 11
-11.758
 21
-3.59941
  0
LINE
  8
0
 10
-11.758
 20
-3.59941
 11
-11.7215
 21
-3.54962
  0
LINE
  8
0
 10
-11.7215
 20
-3.54962
 11
-11.5258
 21
-3.24504
  0
LINE
  8
0
 10
-11.5258
 20
-3.24504
 11
-11.4976
 21
-3.19511
  0
LINE
  8
0
 10
-11.4976
 20
-3.19511
 11
-11.3319
 21
-2.85782
  0
LINE
  8
0
 10
-11.3319
 20
-2.85782
 11
-11.3112
 21
-2.80937
  0
LINE
  8
0
 10
-11.3112
 20
-2.80937
 11
-11.1757
 21
-2.43938
  0
LINE
  8
0
 10
-11.1757
 20
-2.43938
 11
-11.1615
 21
-2.39403
  0
LINE
  8
0
 10
-11.1615
 20
-2.39403
 11
-11.0561
 21
-1.99133
  0
LINE
  8
0
 10
-11.0561
 20
-1.99133
 11
-11.0471
 21
-1.94992
  0
LINE
  8
0
 10
-11.0471
 20
-1.94992
 11
-10.9719
 21
-1.5145
  0
LINE
  8
0
 10
-10.9719
 20
-1.5145
 11
-10.9669
 21
-1.47733
  0
LINE
  8
0
 10
-10.9669
 20
-1.47733
 11
-10.9217
 21
-1.0092
  0
LINE
  8
0
 10
-10.9217
 20
-1.0092
 11
-10.9196
 21
-0.976212
  0
LINE
  8
0
 10
-10.9196
 20
-0.976212
 11
-10.9046
 21
-0.475388
  0
LINE
  8
0
 10
-10.9046
 20
-0.475388
 11
-10.9043
 21
-0.460358
  0
LINE
  8
0
 10
-10.9043
 20
-0.460358
 11
-10.9043
 21
-0.229828
  0
LINE
  8
0
 10
-10.9043
 20
-0.229828
 11
-10.9132
 21
-0.136139
  0
LINE
  8
0
 10
-10.9132
 20
-0.136139
 11
-10.9288
 21
-0.0753174
  0
LINE
  8
0
 10
-10.9288
 20
-0.0753174
 11
-10.9519
 21
-0.0169373
  0
LINE
  8
0
 10
-10.9519
 20
-0.0169373
 11
-10.9822
 21
0.0380859
  0
LINE
  8
0
 10
-10.9822
 20
0.0380859
 11
-11.0191
 21
0.0888824
  0
LINE
  8
0
 10
-11.0191
 20
0.0888824
 11
-11.0621
 21
0.134659
  0
LINE
  8
0
 10
-11.0621
 20
0.134659
 11
-11.1104
 21
0.174683
  0
LINE
  8
0
 10
-11.1104
 20
0.174683
 11
-11.1635
 21
0.208328
  0
LINE
  8
0
 10
-11.1635
 20
0.208328
 11
-11.2203
 21
0.235062
  0
LINE
  8
0
 10
-11.2203
 20
0.235062
 11
-11.28
 21
0.254471
  0
LINE
  8
0
 10
-11.28
 20
0.254471
 11
-11.3417
 21
0.266235
  0
LINE
  8
0
 10
-11.3417
 20
0.266235
 11
-11.4043
 21
0.270172
  0
LINE
  8
0
 10
-11.4043
 20
0.270172
 11
-12.4365
 21
0.270172
  0
LINE
  8
0
 10
-12.4365
 20
0.270172
 11
-12.4365
 21
1.70728
  0
LINE
  8
0
 10
-12.4365
 20
1.70728
 11
-11.4043
 21
1.70728
  0
LINE
  8
0
 10
-11.4043
 20
1.70728
 11
-11.3106
 21
1.71613
  0
LINE
  8
0
 10
-11.3106
 20
1.71613
 11
-11.2498
 21
1.73175
  0
LINE
  8
0
 10
-11.2498
 20
1.73175
 11
-11.1914
 21
1.75487
  0
LINE
  8
0
 10
-11.1914
 20
1.75487
 11
-11.1364
 21
1.78511
  0
LINE
  8
0
 10
-11.1364
 20
1.78511
 11
-11.0856
 21
1.82202
  0
LINE
  8
0
 10
-11.0856
 20
1.82202
 11
-11.0398
 21
1.86501
  0
LINE
  8
0
 10
-11.0398
 20
1.86501
 11
-10.9998
 21
1.91338
  0
LINE
  8
0
 10
-10.9998
 20
1.91338
 11
-10.9662
 21
1.9664
  0
LINE
  8
0
 10
-10.9662
 20
1.9664
 11
-10.9394
 21
2.02321
  0
LINE
  8
0
 10
-10.9394
 20
2.02321
 11
-10.92
 21
2.08293
  0
LINE
  8
0
 10
-10.92
 20
2.08293
 11
-10.9083
 21
2.14461
  0
LINE
  8
0
 10
-10.9083
 20
2.14461
 11
-10.9043
 21
2.20728
  0
LINE
  8
0
 10
-10.9043
 20
2.20728
 11
-10.9043
 21
2.7664
  0
LINE
  8
0
 10
-10.9043
 20
2.7664
 11
-10.905
 21
2.7932
  0
LINE
  8
0
 10
-10.905
 20
2.7932
 11
-10.9172
 21
3.019
  0
LINE
  8
0
 10
-10.9172
 20
3.019
 11
-10.9238
 21
3.07768
  0
LINE
  8
0
 10
-10.9238
 20
3.07768
 11
-10.9602
 21
3.28723
  0
LINE
  8
0
 10
-10.9602
 20
3.28723
 11
-10.9757
 21
3.3513
  0
LINE
  8
0
 10
-10.9757
 20
3.3513
 11
-11.0363
 21
3.54462
  0
LINE
  8
0
 10
-11.0363
 20
3.54462
 11
-11.0625
 21
3.61108
  0
LINE
  8
0
 10
-11.0625
 20
3.61108
 11
-11.1473
 21
3.78815
  0
LINE
  8
0
 10
-11.1473
 20
3.78815
 11
-11.1844
 21
3.85277
  0
LINE
  8
0
 10
-11.1844
 20
3.85277
 11
-11.2935
 21
4.0136
  0
LINE
  8
0
 10
-11.2935
 20
4.0136
 11
-11.3397
 21
4.07188
  0
LINE
  8
0
 10
-11.3397
 20
4.07188
 11
-11.473
 21
4.21646
  0
LINE
  8
0
 10
-11.473
 20
4.21646
 11
-11.5248
 21
4.26518
  0
LINE
  8
0
 10
-11.5248
 20
4.26518
 11
-11.6823
 21
4.39352
  0
LINE
  8
0
 10
-11.6823
 20
4.39352
 11
-11.7356
 21
4.43143
  0
LINE
  8
0
 10
-11.7356
 20
4.43143
 11
-11.9166
 21
4.54309
  0
LINE
  8
0
 10
-11.9166
 20
4.54309
 11
-11.9689
 21
4.57117
  0
LINE
  8
0
 10
-11.9689
 20
4.57117
 11
-12.1727
 21
4.66566
  0
LINE
  8
0
 10
-12.1727
 20
4.66566
 11
-12.2216
 21
4.68526
  0
LINE
  8
0
 10
-12.2216
 20
4.68526
 11
-12.4365
 21
4.75858
  0
LINE
  8
0
 10
-12.4365
 20
4.75858
 11
-12.4365
 21
6.12456
  0
LINE
  8
0
 10
-12.4365
 20
6.12456
 11
-11.221
 21
6.12456
  0
LINE
  8
0
 10
-11.221
 20
6.12456
 11
-10.981
 21
6.05513
  0
LINE
  8
0
 10
-10.981
 20
6.05513
 11
-10.981
 21
5.2836
  0
LINE
  8
0
 10
-10.981
 20
5.2836
 11
-10.9785
 21
5.23309
  0
LINE
  8
0
 10
-10.9785
 20
5.23309
 11
-10.9682
 21
5.17114
  0
LINE
  8
0
 10
-10.9682
 20
5.17114
 11
-10.9503
 21
5.11098
  0
LINE
  8
0
 10
-10.9503
 20
5.11098
 11
-10.925
 21
5.05351
  0
LINE
  8
0
 10
-10.925
 20
5.05351
 11
-10.8926
 21
4.99969
  0
LINE
  8
0
 10
-10.8926
 20
4.99969
 11
-10.8538
 21
4.95035
  0
LINE
  8
0
 10
-10.8538
 20
4.95035
 11
-10.8091
 21
4.90627
  0
LINE
  8
0
 10
-10.8091
 20
4.90627
 11
-10.7592
 21
4.86812
  0
LINE
  8
0
 10
-10.7592
 20
4.86812
 11
-10.7049
 21
4.83653
  0
LINE
  8
0
 10
-10.7049
 20
4.83653
 11
-10.6471
 21
4.812
  0
LINE
  8
0
 10
-10.6471
 20
4.812
 11
-10.5867
 21
4.79489
  0
LINE
  8
0
 10
-10.5867
 20
4.79489
 11
-10.5246
 21
4.78551
  0
LINE
  8
0
 10
-10.5246
 20
4.78551
 11
-10.4619
 21
4.78397
  0
LINE
  8
0
 10
-10.4619
 20
4.78397
 11
-10.3994
 21
4.79031
  0
LINE
  8
0
 10
-10.3994
 20
4.79031
 11
-10.3382
 21
4.80443
  0
LINE
  8
0
 10
-10.3382
 20
4.80443
 11
-10.2793
 21
4.82611
  0
LINE
  8
0
 10
-10.2793
 20
4.82611
 11
-10.2235
 21
4.85501
  0
LINE
  8
0
 10
-10.2235
 20
4.85501
 11
-10.1718
 21
4.89066
  0
LINE
  8
0
 10
-10.1718
 20
4.89066
 11
-10.125
 21
4.93251
  0
LINE
  8
0
 10
-10.125
 20
4.93251
 11
-10.0838
 21
4.97989
  0
LINE
  8
0
 10
-10.0838
 20
4.97989
 11
-10.0489
 21
5.03207
  0
LINE
  8
0
 10
-10.0489
 20
5.03207
 11
-10.0208
 21
5.08821
  0
LINE
  8
0
 10
-10.0208
 20
5.08821
 11
-9.93927
 21
5.28023
  0
LINE
  8
0
 10
-9.93927
 20
5.28023
 11
-9.85504
 21
5.44102
  0
LINE
  8
0
 10
-9.85504
 20
5.44102
 11
-9.85365
 21
5.44319
  0
LINE
  8
0
 10
-9.85365
 20
5.44319
 11
-9.67975
 21
5.29648
  0
LINE
  8
0
 10
-9.67975
 20
5.29648
 11
-9.39641
 21
4.95555
  0
LINE
  8
0
 10
-9.39641
 20
4.95555
 11
-9.3593
 21
4.89212
  0
LINE
  8
0
 10
-9.3593
 20
4.89212
 11
-9.4144
 21
4.88472
  0
LINE
  8
0
 10
-9.4144
 20
4.88472
 11
-9.55719
 21
4.85507
  0
LINE
  8
0
 10
-9.55719
 20
4.85507
 11
-9.63535
 21
4.83206
  0
LINE
  8
0
 10
-9.63535
 20
4.83206
 11
-9.76355
 21
4.78265
  0
LINE
  8
0
 10
-9.76355
 20
4.78265
 11
-9.84372
 21
4.74319
  0
LINE
  8
0
 10
-9.84372
 20
4.74319
 11
-9.95735
 21
4.67403
  0
LINE
  8
0
 10
-9.95735
 20
4.67403
 11
-10.0314
 21
4.619
  0
LINE
  8
0
 10
-10.0314
 20
4.619
 11
-10.1304
 21
4.53008
  0
LINE
  8
0
 10
-10.1304
 20
4.53008
 11
-10.1912
 21
4.46483
  0
LINE
  8
0
 10
-10.1912
 20
4.46483
 11
-10.2757
 21
4.35614
  0
LINE
  8
0
 10
-10.2757
 20
4.35614
 11
-10.3201
 21
4.28831
  0
LINE
  8
0
 10
-10.3201
 20
4.28831
 11
-10.39
 21
4.15987
  0
LINE
  8
0
 10
-10.39
 20
4.15987
 11
-10.42
 21
4.0936
  0
LINE
  8
0
 10
-10.42
 20
4.0936
 11
-10.4781
 21
3.93579
  0
LINE
  8
0
 10
-10.4781
 20
3.93579
 11
-10.494
 21
3.88422
  0
LINE
  8
0
 10
-10.494
 20
3.88422
 11
-10.5432
 21
3.68738
  0
LINE
  8
0
 10
-10.5432
 20
3.68738
 11
-10.5509
 21
3.65024
  0
LINE
  8
0
 10
-10.5509
 20
3.65024
 11
-10.5912
 21
3.41434
  0
LINE
  8
0
 10
-10.5912
 20
3.41434
 11
-10.5951
 21
3.38684
  0
LINE
  8
0
 10
-10.5951
 20
3.38684
 11
-10.6263
 21
3.11191
  0
LINE
  8
0
 10
-10.6263
 20
3.11191
 11
-10.6283
 21
3.09087
  0
LINE
  8
0
 10
-10.6283
 20
3.09087
 11
-10.6506
 21
2.77689
  0
LINE
  8
0
 10
-10.6506
 20
2.77689
 11
-10.6515
 21
2.76039
  0
LINE
  8
0
 10
-10.6515
 20
2.76039
 11
-10.6649
 21
2.40736
  0
LINE
  8
0
 10
-10.6649
 20
2.40736
 11
-10.6653
 21
2.39409
  0
LINE
  8
0
 10
-10.6653
 20
2.39409
 11
-10.6697
 21
2.00201
  0
LINE
  8
0
 10
-10.6697
 20
2.00201
 11
-10.6698
 21
1.99631
  0
LINE
  8
0
 10
-10.6698
 20
1.99631
 11
-10.6698
 21
-5.78999
  0
LINE
  8
0
 10
-10.6698
 20
-5.78999
 11
-10.9043
 21
-5.78999
  0
LINE
  8
0
 10
-2.83372
 20
-5.78999
 11
-2.83372
 21
1.99631
  0
LINE
  8
0
 10
-2.83372
 20
1.99631
 11
-2.83376
 21
2.00201
  0
LINE
  8
0
 10
-2.83376
 20
2.00201
 11
-2.83823
 21
2.39409
  0
LINE
  8
0
 10
-2.83823
 20
2.39409
 11
-2.83856
 21
2.40736
  0
LINE
  8
0
 10
-2.83856
 20
2.40736
 11
-2.85197
 21
2.76039
  0
LINE
  8
0
 10
-2.85197
 20
2.76039
 11
-2.85287
 21
2.77695
  0
LINE
  8
0
 10
-2.85287
 20
2.77695
 11
-2.87524
 21
3.09093
  0
LINE
  8
0
 10
-2.87524
 20
3.09093
 11
-2.87718
 21
3.11194
  0
LINE
  8
0
 10
-2.87718
 20
3.11194
 11
-2.90848
 21
3.38687
  0
LINE
  8
0
 10
-2.90848
 20
3.38687
 11
-2.9124
 21
3.41443
  0
LINE
  8
0
 10
-2.9124
 20
3.41443
 11
-2.95265
 21
3.65033
  0
LINE
  8
0
 10
-2.95265
 20
3.65033
 11
-2.96045
 21
3.68745
  0
LINE
  8
0
 10
-2.96045
 20
3.68745
 11
-3.00964
 21
3.88429
  0
LINE
  8
0
 10
-3.00964
 20
3.88429
 11
-3.02554
 21
3.93591
  0
LINE
  8
0
 10
-3.02554
 20
3.93591
 11
-3.08368
 21
4.09372
  0
LINE
  8
0
 10
-3.08368
 20
4.09372
 11
-3.08633
 21
4.09956
  0
LINE
  8
0
 10
-3.08633
 20
4.09956
 11
-3.08633
 21
6.12456
  0
LINE
  8
0
 10
-3.08633
 20
6.12456
 11
-2.2063
 21
6.12456
  0
LINE
  8
0
 10
-2.2063
 20
6.12456
 11
-1.98845
 21
5.96445
  0
LINE
  8
0
 10
-1.98845
 20
5.96445
 11
-1.80283
 21
5.7692
  0
LINE
  8
0
 10
-1.80283
 20
5.7692
 11
-1.64622
 21
5.53424
  0
LINE
  8
0
 10
-1.64622
 20
5.53424
 11
-1.5069
 21
5.22232
  0
LINE
  8
0
 10
-1.5069
 20
5.22232
 11
-1.37915
 21
4.79391
  0
LINE
  8
0
 10
-1.37915
 20
4.79391
 11
-1.26933
 21
4.24886
  0
LINE
  8
0
 10
-1.26933
 20
4.24886
 11
-1.18178
 21
3.59288
  0
LINE
  8
0
 10
-1.18178
 20
3.59288
 11
-1.11829
 21
2.82812
  0
LINE
  8
0
 10
-1.11829
 20
2.82812
 11
-1.07988
 21
1.95755
  0
LINE
  8
0
 10
-1.07988
 20
1.95755
 11
-1.06697
 21
0.978958
  0
LINE
  8
0
 10
-1.06697
 20
0.978958
 11
-1.06697
 21
-5.78999
  0
LINE
  8
0
 10
-1.06697
 20
-5.78999
 11
-2.83372
 21
-5.78999
  0
LINE
  8
0
 10
17.7365
 20
-5.78999
 11
17.7365
 21
-5.42638
  0
LINE
  8
0
 10
17.7365
 20
-5.42638
 11
17.9199
 21
-5.28487
  0
LINE
  8
0
 10
17.9199
 20
-5.28487
 11
18.4056
 21
-4.80011
  0
LINE
  8
0
 10
18.4056
 20
-4.80011
 11
18.8353
 21
-4.2516
  0
LINE
  8
0
 10
18.8353
 20
-4.2516
 11
19.1989
 21
-3.65016
  0
LINE
  8
0
 10
19.1989
 20
-3.65016
 11
19.4964
 21
-2.99579
  0
LINE
  8
0
 10
19.4964
 20
-2.99579
 11
19.7278
 21
-2.2885
  0
LINE
  8
0
 10
19.7278
 20
-2.2885
 11
19.8931
 21
-1.52827
  0
LINE
  8
0
 10
19.8931
 20
-1.52827
 11
19.9923
 21
-0.715118
  0
LINE
  8
0
 10
19.9923
 20
-0.715118
 11
20.0253
 21
0.150955
  0
LINE
  8
0
 10
20.0253
 20
0.150955
 11
19.9923
 21
1.01704
  0
LINE
  8
0
 10
19.9923
 20
1.01704
 11
19.8931
 21
1.83018
  0
LINE
  8
0
 10
19.8931
 20
1.83018
 11
19.7278
 21
2.59042
  0
LINE
  8
0
 10
19.7278
 20
2.59042
 11
19.4964
 21
3.29771
  0
LINE
  8
0
 10
19.4964
 20
3.29771
 11
19.1989
 21
3.95209
  0
LINE
  8
0
 10
19.1989
 20
3.95209
 11
18.8353
 21
4.55353
  0
LINE
  8
0
 10
18.8353
 20
4.55353
 11
18.4056
 21
5.10204
  0
LINE
  8
0
 10
18.4056
 20
5.10204
 11
17.9199
 21
5.58679
  0
LINE
  8
0
 10
17.9199
 20
5.58679
 11
17.7365
 21
5.7283
  0
LINE
  8
0
 10
17.7365
 20
5.7283
 11
17.7365
 21
6.12456
  0
LINE
  8
0
 10
17.7365
 20
6.12456
 11
20.1144
 21
6.12456
  0
LINE
  8
0
 10
20.1144
 20
6.12456
 11
20.1144
 21
4.61124
  0
LINE
  8
0
 10
20.1144
 20
4.61124
 11
20.1213
 21
4.52852
  0
LINE
  8
0
 10
20.1213
 20
4.52852
 11
20.1355
 21
4.46738
  0
LINE
  8
0
 10
20.1355
 20
4.46738
 11
20.1573
 21
4.40849
  0
LINE
  8
0
 10
20.1573
 20
4.40849
 11
20.1864
 21
4.35281
  0
LINE
  8
0
 10
20.1864
 20
4.35281
 11
20.2221
 21
4.30119
  0
LINE
  8
0
 10
20.2221
 20
4.30119
 11
20.2641
 21
4.25447
  0
LINE
  8
0
 10
20.2641
 20
4.25447
 11
20.3116
 21
4.21338
  0
LINE
  8
0
 10
20.3116
 20
4.21338
 11
20.3638
 21
4.17856
  0
LINE
  8
0
 10
20.3638
 20
4.17856
 11
20.42
 21
4.15057
  0
LINE
  8
0
 10
20.42
 20
4.15057
 11
20.4793
 21
4.12984
  0
LINE
  8
0
 10
20.4793
 20
4.12984
 11
20.5407
 21
4.1167
  0
LINE
  8
0
 10
20.5407
 20
4.1167
 11
20.6032
 21
4.11136
  0
LINE
  8
0
 10
20.6032
 20
4.11136
 11
20.666
 21
4.11391
  0
LINE
  8
0
 10
20.666
 20
4.11391
 11
20.7279
 21
4.1243
  0
LINE
  8
0
 10
20.7279
 20
4.1243
 11
20.788
 21
4.14236
  0
LINE
  8
0
 10
20.788
 20
4.14236
 11
20.8454
 21
4.16782
  0
LINE
  8
0
 10
20.8454
 20
4.16782
 11
20.8992
 21
4.20027
  0
LINE
  8
0
 10
20.8992
 20
4.20027
 11
20.9485
 21
4.23921
  0
LINE
  8
0
 10
20.9485
 20
4.23921
 11
20.9924
 21
4.28401
  0
LINE
  8
0
 10
20.9924
 20
4.28401
 11
21.0305
 21
4.33397
  0
LINE
  8
0
 10
21.0305
 20
4.33397
 11
21.062
 21
4.38831
  0
LINE
  8
0
 10
21.062
 20
4.38831
 11
21.2049
 21
4.67525
  0
LINE
  8
0
 10
21.2049
 20
4.67525
 11
21.3564
 21
4.92374
  0
LINE
  8
0
 10
21.3564
 20
4.92374
 11
21.5255
 21
5.15276
  0
LINE
  8
0
 10
21.5255
 20
5.15276
 11
21.7127
 21
5.36353
  0
LINE
  8
0
 10
21.7127
 20
5.36353
 11
21.9187
 21
5.55664
  0
LINE
  8
0
 10
21.9187
 20
5.55664
 11
22.1444
 21
5.733
  0
LINE
  8
0
 10
22.1444
 20
5.733
 11
22.3905
 21
5.89275
  0
LINE
  8
0
 10
22.3905
 20
5.89275
 11
22.6537
 21
6.03358
  0
LINE
  8
0
 10
22.6537
 20
6.03358
 11
22.8057
 21
6.09932
  0
LINE
  8
0
 10
22.8057
 20
6.09932
 11
22.8057
 21
4.38811
  0
LINE
  8
0
 10
22.8057
 20
4.38811
 11
22.6998
 21
4.35973
  0
LINE
  8
0
 10
22.6998
 20
4.35973
 11
22.6673
 21
4.34982
  0
LINE
  8
0
 10
22.6673
 20
4.34982
 11
22.4218
 21
4.26578
  0
LINE
  8
0
 10
22.4218
 20
4.26578
 11
22.3887
 21
4.25311
  0
LINE
  8
0
 10
22.3887
 20
4.25311
 11
22.1542
 21
4.15379
  0
LINE
  8
0
 10
22.1542
 20
4.15379
 11
22.1206
 21
4.13806
  0
LINE
  8
0
 10
22.1206
 20
4.13806
 11
21.8991
 21
4.02419
  0
LINE
  8
0
 10
21.8991
 20
4.02419
 11
21.8649
 21
4.00482
  0
LINE
  8
0
 10
21.8649
 20
4.00482
 11
21.6582
 21
3.87708
  0
LINE
  8
0
 10
21.6582
 20
3.87708
 11
21.6242
 21
3.85405
  0
LINE
  8
0
 10
21.6242
 20
3.85405
 11
21.4323
 21
3.71243
  0
LINE
  8
0
 10
21.4323
 20
3.71243
 11
21.3993
 21
3.68582
  0
LINE
  8
0
 10
21.3993
 20
3.68582
 11
21.2223
 21
3.53033
  0
LINE
  8
0
 10
21.2223
 20
3.53033
 11
21.1912
 21
3.50056
  0
LINE
  8
0
 10
21.1912
 20
3.50056
 11
21.029
 21
3.33124
  0
LINE
  8
0
 10
21.029
 20
3.33124
 11
21.0005
 21
3.29875
  0
LINE
  8
0
 10
21.0005
 20
3.29875
 11
20.8531
 21
3.11554
  0
LINE
  8
0
 10
20.8531
 20
3.11554
 11
20.8278
 21
3.08122
  0
LINE
  8
0
 10
20.8278
 20
3.08122
 11
20.6953
 21
2.88416
  0
LINE
  8
0
 10
20.6953
 20
2.88416
 11
20.679
 21
2.85829
  0
LINE
  8
0
 10
20.679
 20
2.85829
 11
20.6033
 21
2.72946
  0
LINE
  8
0
 10
20.6033
 20
2.72946
 11
20.5881
 21
2.70157
  0
LINE
  8
0
 10
20.5881
 20
2.70157
 11
20.5193
 21
2.56522
  0
LINE
  8
0
 10
20.5193
 20
2.56522
 11
20.5064
 21
2.53775
  0
LINE
  8
0
 10
20.5064
 20
2.53775
 11
20.4444
 21
2.39388
  0
LINE
  8
0
 10
20.4444
 20
2.39388
 11
20.4339
 21
2.36726
  0
LINE
  8
0
 10
20.4339
 20
2.36726
 11
20.3787
 21
2.21587
  0
LINE
  8
0
 10
20.3787
 20
2.21587
 11
20.3701
 21
2.19012
  0
LINE
  8
0
 10
20.3701
 20
2.19012
 11
20.3217
 21
2.0312
  0
LINE
  8
0
 10
20.3217
 20
2.0312
 11
20.315
 21
2.00671
  0
LINE
  8
0
 10
20.315
 20
2.00671
 11
20.2734
 21
1.84027
  0
LINE
  8
0
 10
20.2734
 20
1.84027
 11
20.2682
 21
1.81706
  0
LINE
  8
0
 10
20.2682
 20
1.81706
 11
20.2335
 21
1.6431
  0
LINE
  8
0
 10
20.2335
 20
1.6431
 11
20.2296
 21
1.62054
  0
LINE
  8
0
 10
20.2296
 20
1.62054
 11
20.2005
 21
1.4297
  0
LINE
  8
0
 10
20.2005
 20
1.4297
 11
20.198
 21
1.41064
  0
LINE
  8
0
 10
20.198
 20
1.41064
 11
20.1734
 21
1.19348
  0
LINE
  8
0
 10
20.1734
 20
1.19348
 11
20.172
 21
1.17844
  0
LINE
  8
0
 10
20.172
 20
1.17844
 11
20.1518
 21
0.934921
  0
LINE
  8
0
 10
20.1518
 20
0.934921
 11
20.151
 21
0.922699
  0
LINE
  8
0
 10
20.151
 20
0.922699
 11
20.1353
 21
0.652863
  0
LINE
  8
0
 10
20.1353
 20
0.652863
 11
20.1349
 21
0.642776
  0
LINE
  8
0
 10
20.1349
 20
0.642776
 11
20.1237
 21
0.346603
  0
LINE
  8
0
 10
20.1237
 20
0.346603
 11
20.1234
 21
0.338135
  0
LINE
  8
0
 10
20.1234
 20
0.338135
 11
20.1167
 21
0.0156403
  0
LINE
  8
0
 10
20.1167
 20
0.0156403
 11
20.1167
 21
0.00848389
  0
LINE
  8
0
 10
20.1167
 20
0.00848389
 11
20.1144
 21
-0.340347
  0
LINE
  8
0
 10
20.1144
 20
-0.340347
 11
20.1144
 21
-5.78999
  0
LINE
  8
0
 10
20.1144
 20
-5.78999
 11
17.7365
 21
-5.78999
  0
LINE
  8
0
 10
-10.481
 20
5.85075
 11
-10.4314
 21
5.82976
  0
LINE
  8
0
 10
-10.4314
 20
5.82976
 11
-10.2642
 21
5.72942
  0
LINE
  8
0
 10
-10.2642
 20
5.72942
 11
-10.2881
 21
5.69179
  0
LINE
  8
0
 10
-10.2881
 20
5.69179
 11
-10.3916
 21
5.49416
  0
LINE
  8
0
 10
-10.3916
 20
5.49416
 11
-10.481
 21
5.2836
  0
LINE
  8
0
 10
-10.481
 20
5.2836
 11
-10.481
 21
5.85075
  0
LINE
  8
0
 10
-17.9595
 20
5.68686
 11
-17.8479
 21
5.72757
  0
LINE
  8
0
 10
-17.8479
 20
5.72757
 11
-17.5958
 21
5.58105
  0
LINE
  8
0
 10
-17.5958
 20
5.58105
 11
-17.1156
 21
5.21045
  0
LINE
  8
0
 10
-17.1156
 20
5.21045
 11
-16.6739
 21
4.76967
  0
LINE
  8
0
 10
-16.6739
 20
4.76967
 11
-16.4835
 21
4.52664
  0
LINE
  8
0
 10
-16.4835
 20
4.52664
 11
-16.5567
 21
4.50534
  0
LINE
  8
0
 10
-16.5567
 20
4.50534
 11
-16.5747
 21
4.49973
  0
LINE
  8
0
 10
-16.5747
 20
4.49973
 11
-16.9052
 21
4.38985
  0
LINE
  8
0
 10
-16.9052
 20
4.38985
 11
-16.9221
 21
4.38387
  0
LINE
  8
0
 10
-16.9221
 20
4.38387
 11
-17.2565
 21
4.25912
  0
LINE
  8
0
 10
-17.2565
 20
4.25912
 11
-17.2725
 21
4.25285
  0
LINE
  8
0
 10
-17.2725
 20
4.25285
 11
-17.6109
 21
4.11324
  0
LINE
  8
0
 10
-17.6109
 20
4.11324
 11
-17.6258
 21
4.1068
  0
LINE
  8
0
 10
-17.6258
 20
4.1068
 11
-17.9595
 21
3.95625
  0
LINE
  8
0
 10
-17.9595
 20
3.95625
 11
-17.9595
 21
5.68686
  0
LINE
  8
0
 10
-22.7033
 20
-5.78999
 11
-23.1981
 21
-5.58228
  0
LINE
  8
0
 10
-23.1981
 20
-5.58228
 11
-23.7182
 21
-5.27937
  0
LINE
  8
0
 10
-23.7182
 20
-5.27937
 11
-24.198
 21
-4.90865
  0
LINE
  8
0
 10
-24.198
 20
-4.90865
 11
-24.6396
 21
-4.46774
  0
LINE
  8
0
 10
-24.6396
 20
-4.46774
 11
-25.0318
 21
-3.9671
  0
LINE
  8
0
 10
-25.0318
 20
-3.9671
 11
-25.3646
 21
-3.41658
  0
LINE
  8
0
 10
-25.3646
 20
-3.41658
 11
-25.4281
 21
-3.27686
  0
LINE
  8
0
 10
-25.4281
 20
-3.27686
 11
-25.4077
 21
-3.24504
  0
LINE
  8
0
 10
-25.4077
 20
-3.24504
 11
-25.3795
 21
-3.19511
  0
LINE
  8
0
 10
-25.3795
 20
-3.19511
 11
-25.2138
 21
-2.85782
  0
LINE
  8
0
 10
-25.2138
 20
-2.85782
 11
-25.1931
 21
-2.80937
  0
LINE
  8
0
 10
-25.1931
 20
-2.80937
 11
-25.0576
 21
-2.43938
  0
LINE
  8
0
 10
-25.0576
 20
-2.43938
 11
-25.0434
 21
-2.39403
  0
LINE
  8
0
 10
-25.0434
 20
-2.39403
 11
-24.938
 21
-1.99133
  0
LINE
  8
0
 10
-24.938
 20
-1.99133
 11
-24.929
 21
-1.94992
  0
LINE
  8
0
 10
-24.929
 20
-1.94992
 11
-24.8538
 21
-1.5145
  0
LINE
  8
0
 10
-24.8538
 20
-1.5145
 11
-24.8488
 21
-1.47734
  0
LINE
  8
0
 10
-24.8488
 20
-1.47734
 11
-24.8036
 21
-1.00922
  0
LINE
  8
0
 10
-24.8036
 20
-1.00922
 11
-24.8015
 21
-0.976196
  0
LINE
  8
0
 10
-24.8015
 20
-0.976196
 11
-24.7865
 21
-0.475372
  0
LINE
  8
0
 10
-24.7865
 20
-0.475372
 11
-24.7862
 21
-0.460358
  0
LINE
  8
0
 10
-24.7862
 20
-0.460358
 11
-24.7862
 21
-0.229828
  0
LINE
  8
0
 10
-24.7862
 20
-0.229828
 11
-24.7951
 21
-0.136139
  0
LINE
  8
0
 10
-24.7951
 20
-0.136139
 11
-24.8107
 21
-0.0753174
  0
LINE
  8
0
 10
-24.8107
 20
-0.0753174
 11
-24.8338
 21
-0.0169373
  0
LINE
  8
0
 10
-24.8338
 20
-0.0169373
 11
-24.8641
 21
0.0380859
  0
LINE
  8
0
 10
-24.8641
 20
0.0380859
 11
-24.901
 21
0.0888824
  0
LINE
  8
0
 10
-24.901
 20
0.0888824
 11
-24.944
 21
0.134659
  0
LINE
  8
0
 10
-24.944
 20
0.134659
 11
-24.9923
 21
0.174683
  0
LINE
  8
0
 10
-24.9923
 20
0.174683
 11
-25.0453
 21
0.208328
  0
LINE
  8
0
 10
-25.0453
 20
0.208328
 11
-25.1022
 21
0.235062
  0
LINE
  8
0
 10
-25.1022
 20
0.235062
 11
-25.1619
 21
0.254471
  0
LINE
  8
0
 10
-25.1619
 20
0.254471
 11
-25.2236
 21
0.266235
  0
LINE
  8
0
 10
-25.2236
 20
0.266235
 11
-25.2862
 21
0.270172
  0
LINE
  8
0
 10
-25.2862
 20
0.270172
 11
-26.129
 21
0.270172
  0
LINE
  8
0
 10
-26.129
 20
0.270172
 11
-26.1021
 21
0.977173
  0
LINE
  8
0
 10
-26.1021
 20
0.977173
 11
-26.013
 21
1.70728
  0
LINE
  8
0
 10
-26.013
 20
1.70728
 11
-25.2862
 21
1.70728
  0
LINE
  8
0
 10
-25.2862
 20
1.70728
 11
-25.1925
 21
1.71613
  0
LINE
  8
0
 10
-25.1925
 20
1.71613
 11
-25.1317
 21
1.73175
  0
LINE
  8
0
 10
-25.1317
 20
1.73175
 11
-25.0733
 21
1.75487
  0
LINE
  8
0
 10
-25.0733
 20
1.75487
 11
-25.0183
 21
1.78511
  0
LINE
  8
0
 10
-25.0183
 20
1.78511
 11
-24.9675
 21
1.82202
  0
LINE
  8
0
 10
-24.9675
 20
1.82202
 11
-24.9217
 21
1.86501
  0
LINE
  8
0
 10
-24.9217
 20
1.86501
 11
-24.8817
 21
1.91338
  0
LINE
  8
0
 10
-24.8817
 20
1.91338
 11
-24.8481
 21
1.9664
  0
LINE
  8
0
 10
-24.8481
 20
1.9664
 11
-24.8213
 21
2.02321
  0
LINE
  8
0
 10
-24.8213
 20
2.02321
 11
-24.8019
 21
2.08293
  0
LINE
  8
0
 10
-24.8019
 20
2.08293
 11
-24.7902
 21
2.14461
  0
LINE
  8
0
 10
-24.7902
 20
2.14461
 11
-24.7862
 21
2.20728
  0
LINE
  8
0
 10
-24.7862
 20
2.20728
 11
-24.7862
 21
2.7664
  0
LINE
  8
0
 10
-24.7862
 20
2.7664
 11
-24.7869
 21
2.7932
  0
LINE
  8
0
 10
-24.7869
 20
2.7932
 11
-24.7991
 21
3.019
  0
LINE
  8
0
 10
-24.7991
 20
3.019
 11
-24.8057
 21
3.07765
  0
LINE
  8
0
 10
-24.8057
 20
3.07765
 11
-24.842
 21
3.2872
  0
LINE
  8
0
 10
-24.842
 20
3.2872
 11
-24.8576
 21
3.3513
  0
LINE
  8
0
 10
-24.8576
 20
3.3513
 11
-24.9182
 21
3.54462
  0
LINE
  8
0
 10
-24.9182
 20
3.54462
 11
-24.9444
 21
3.61111
  0
LINE
  8
0
 10
-24.9444
 20
3.61111
 11
-25.0292
 21
3.78818
  0
LINE
  8
0
 10
-25.0292
 20
3.78818
 11
-25.0663
 21
3.85277
  0
LINE
  8
0
 10
-25.0663
 20
3.85277
 11
-25.1754
 21
4.0136
  0
LINE
  8
0
 10
-25.1754
 20
4.0136
 11
-25.1815
 21
4.02135
  0
LINE
  8
0
 10
-25.1815
 20
4.02135
 11
-25.0318
 21
4.26903
  0
LINE
  8
0
 10
-25.0318
 20
4.26903
 11
-24.6396
 21
4.76967
  0
LINE
  8
0
 10
-24.6396
 20
4.76967
 11
-24.198
 21
5.21056
  0
LINE
  8
0
 10
-24.198
 20
5.21056
 11
-23.8127
 21
5.5083
  0
LINE
  8
0
 10
-23.8127
 20
5.5083
 11
-23.5617
 21
5.29651
  0
LINE
  8
0
 10
-23.5617
 20
5.29651
 11
-23.2783
 21
4.95554
  0
LINE
  8
0
 10
-23.2783
 20
4.95554
 11
-23.0309
 21
4.53256
  0
LINE
  8
0
 10
-23.0309
 20
4.53256
 11
-22.8214
 21
4.021
  0
LINE
  8
0
 10
-22.8214
 20
4.021
 11
-22.7387
 21
3.72432
  0
LINE
  8
0
 10
-22.7387
 20
3.72432
 11
-22.7592
 21
3.70001
  0
LINE
  8
0
 10
-22.7592
 20
3.70001
 11
-22.9674
 21
3.41699
  0
LINE
  8
0
 10
-22.9674
 20
3.41699
 11
-22.999
 21
3.36832
  0
LINE
  8
0
 10
-22.999
 20
3.36832
 11
-23.1825
 21
3.04646
  0
LINE
  8
0
 10
-23.1825
 20
3.04646
 11
-23.2065
 21
2.99869
  0
LINE
  8
0
 10
-23.2065
 20
2.99869
 11
-23.3617
 21
2.6427
  0
LINE
  8
0
 10
-23.3617
 20
2.6427
 11
-23.3788
 21
2.59764
  0
LINE
  8
0
 10
-23.3788
 20
2.59764
 11
-23.5058
 21
2.20753
  0
LINE
  8
0
 10
-23.5058
 20
2.20753
 11
-23.5174
 21
2.16614
  0
LINE
  8
0
 10
-23.5174
 20
2.16614
 11
-23.6162
 21
1.74188
  0
LINE
  8
0
 10
-23.6162
 20
1.74188
 11
-23.6234
 21
1.70456
  0
LINE
  8
0
 10
-23.6234
 20
1.70456
 11
-23.694
 21
1.24619
  0
LINE
  8
0
 10
-23.694
 20
1.24619
 11
-23.698
 21
1.21292
  0
LINE
  8
0
 10
-23.698
 20
1.21292
 11
-23.7403
 21
0.720413
  0
LINE
  8
0
 10
-23.7403
 20
0.720413
 11
-23.7419
 21
0.690994
  0
LINE
  8
0
 10
-23.7419
 20
0.690994
 11
-23.756
 21
0.164352
  0
LINE
  8
0
 10
-23.756
 20
0.164352
 11
-23.756
 21
0.137558
  0
LINE
  8
0
 10
-23.756
 20
0.137558
 11
-23.7419
 21
-0.389069
  0
LINE
  8
0
 10
-23.7419
 20
-0.389069
 11
-23.7403
 21
-0.418488
  0
LINE
  8
0
 10
-23.7403
 20
-0.418488
 11
-23.698
 21
-0.910995
  0
LINE
  8
0
 10
-23.698
 20
-0.910995
 11
-23.694
 21
-0.94426
  0
LINE
  8
0
 10
-23.694
 20
-0.94426
 11
-23.6234
 21
-1.40265
  0
LINE
  8
0
 10
-23.6234
 20
-1.40265
 11
-23.6162
 21
-1.43997
  0
LINE
  8
0
 10
-23.6162
 20
-1.43997
 11
-23.5174
 21
-1.86421
  0
LINE
  8
0
 10
-23.5174
 20
-1.86421
 11
-23.5058
 21
-1.90559
  0
LINE
  8
0
 10
-23.5058
 20
-1.90559
 11
-23.3788
 21
-2.29572
  0
LINE
  8
0
 10
-23.3788
 20
-2.29572
 11
-23.3617
 21
-2.34079
  0
LINE
  8
0
 10
-23.3617
 20
-2.34079
 11
-23.2065
 21
-2.69678
  0
LINE
  8
0
 10
-23.2065
 20
-2.69678
 11
-23.1825
 21
-2.74455
  0
LINE
  8
0
 10
-23.1825
 20
-2.74455
 11
-22.999
 21
-3.06639
  0
LINE
  8
0
 10
-22.999
 20
-3.06639
 11
-22.9674
 21
-3.11507
  0
LINE
  8
0
 10
-22.9674
 20
-3.11507
 11
-22.7592
 21
-3.39809
  0
LINE
  8
0
 10
-22.7592
 20
-3.39809
 11
-22.7175
 21
-3.44766
  0
LINE
  8
0
 10
-22.7175
 20
-3.44766
 11
-22.4881
 21
-3.68713
  0
LINE
  8
0
 10
-22.4881
 20
-3.68713
 11
-22.435
 21
-3.73512
  0
LINE
  8
0
 10
-22.435
 20
-3.73512
 11
-22.4316
 21
-3.73779
  0
LINE
  8
0
 10
-22.4316
 20
-3.73779
 11
-22.4316
 21
-5.78999
  0
LINE
  8
0
 10
-22.4316
 20
-5.78999
 11
-22.7033
 21
-5.78999
  0
LINE
  8
0
 10
8.59355
 20
-0.437027
 11
8.57112
 21
0.150955
  0
LINE
  8
0
 10
8.57112
 20
0.150955
 11
8.60265
 21
0.977142
  0
LINE
  8
0
 10
8.60265
 20
0.977142
 11
8.61705
 21
1.09531
  0
LINE
  8
0
 10
8.61705
 20
1.09531
 11
9.84612
 21
1.09799
  0
LINE
  8
0
 10
9.84612
 20
1.09799
 11
9.90294
 21
1.10136
  0
LINE
  8
0
 10
9.90294
 20
1.10136
 11
9.96472
 21
1.11253
  0
LINE
  8
0
 10
9.96472
 20
1.11253
 11
10.0246
 21
1.13136
  0
LINE
  8
0
 10
10.0246
 20
1.13136
 11
10.0817
 21
1.15755
  0
LINE
  8
0
 10
10.0817
 20
1.15755
 11
10.135
 21
1.19069
  0
LINE
  8
0
 10
10.135
 20
1.19069
 11
10.1838
 21
1.23024
  0
LINE
  8
0
 10
10.1838
 20
1.23024
 11
10.2272
 21
1.2756
  0
LINE
  8
0
 10
10.2272
 20
1.2756
 11
10.2646
 21
1.32605
  0
LINE
  8
0
 10
10.2646
 20
1.32605
 11
10.2954
 21
1.38077
  0
LINE
  8
0
 10
10.2954
 20
1.38077
 11
10.3191
 21
1.43893
  0
LINE
  8
0
 10
10.3191
 20
1.43893
 11
10.3353
 21
1.4996
  0
LINE
  8
0
 10
10.3353
 20
1.4996
 11
10.3437
 21
1.56181
  0
LINE
  8
0
 10
10.3437
 20
1.56181
 11
10.3443
 21
1.6246
  0
LINE
  8
0
 10
10.3443
 20
1.6246
 11
10.3247
 21
1.99338
  0
LINE
  8
0
 10
10.3247
 20
1.99338
 11
10.321
 21
2.03307
  0
LINE
  8
0
 10
10.321
 20
2.03307
 11
10.2752
 21
2.37526
  0
LINE
  8
0
 10
10.2752
 20
2.37526
 11
10.2671
 21
2.42
  0
LINE
  8
0
 10
10.2671
 20
2.42
 11
10.1952
 21
2.7356
  0
LINE
  8
0
 10
10.1952
 20
2.7356
 11
10.1812
 21
2.7851
  0
LINE
  8
0
 10
10.1812
 20
2.7851
 11
10.0833
 21
3.07413
  0
LINE
  8
0
 10
10.0833
 20
3.07413
 11
10.0617
 21
3.12733
  0
LINE
  8
0
 10
10.0617
 20
3.12733
 11
9.93764
 21
3.38977
  0
LINE
  8
0
 10
9.93764
 20
3.38977
 11
9.90735
 21
3.44463
  0
LINE
  8
0
 10
9.90735
 20
3.44463
 11
9.75713
 21
3.68048
  0
LINE
  8
0
 10
9.75713
 20
3.68048
 11
9.71779
 21
3.73404
  0
LINE
  8
0
 10
9.71779
 20
3.73404
 11
9.54147
 21
3.94331
  0
LINE
  8
0
 10
9.54147
 20
3.94331
 11
9.50119
 21
3.98492
  0
LINE
  8
0
 10
9.50119
 20
3.98492
 11
9.67293
 21
4.26901
  0
LINE
  8
0
 10
9.67293
 20
4.26901
 11
10.0651
 21
4.76967
  0
LINE
  8
0
 10
10.0651
 20
4.76967
 11
10.5067
 21
5.21056
  0
LINE
  8
0
 10
10.5067
 20
5.21056
 11
10.7332
 21
5.38554
  0
LINE
  8
0
 10
10.7332
 20
5.38554
 11
10.8629
 21
5.29233
  0
LINE
  8
0
 10
10.8629
 20
5.29233
 11
11.2942
 21
4.88589
  0
LINE
  8
0
 10
11.2942
 20
4.88589
 11
11.6739
 21
4.4214
  0
LINE
  8
0
 10
11.6739
 20
4.4214
 11
11.9965
 21
3.90344
  0
LINE
  8
0
 10
11.9965
 20
3.90344
 11
12.0415
 21
3.80629
  0
LINE
  8
0
 10
12.0415
 20
3.80629
 11
11.9872
 21
3.74959
  0
LINE
  8
0
 10
11.9872
 20
3.74959
 11
11.9455
 21
3.70003
  0
LINE
  8
0
 10
11.9455
 20
3.70003
 11
11.7373
 21
3.41701
  0
LINE
  8
0
 10
11.7373
 20
3.41701
 11
11.7057
 21
3.3683
  0
LINE
  8
0
 10
11.7057
 20
3.3683
 11
11.5222
 21
3.04645
  0
LINE
  8
0
 10
11.5222
 20
3.04645
 11
11.4983
 21
2.99869
  0
LINE
  8
0
 10
11.4983
 20
2.99869
 11
11.343
 21
2.6427
  0
LINE
  8
0
 10
11.343
 20
2.6427
 11
11.3259
 21
2.59766
  0
LINE
  8
0
 10
11.3259
 20
2.59766
 11
11.1989
 21
2.20755
  0
LINE
  8
0
 10
11.1989
 20
2.20755
 11
11.1873
 21
2.16612
  0
LINE
  8
0
 10
11.1873
 20
2.16612
 11
11.0885
 21
1.74187
  0
LINE
  8
0
 10
11.0885
 20
1.74187
 11
11.0813
 21
1.70456
  0
LINE
  8
0
 10
11.0813
 20
1.70456
 11
11.0108
 21
1.24619
  0
LINE
  8
0
 10
11.0108
 20
1.24619
 11
11.0068
 21
1.21294
  0
LINE
  8
0
 10
11.0068
 20
1.21294
 11
10.9644
 21
0.720428
  0
LINE
  8
0
 10
10.9644
 20
0.720428
 11
10.9628
 21
0.690994
  0
LINE
  8
0
 10
10.9628
 20
0.690994
 11
10.9487
 21
0.164352
  0
LINE
  8
0
 10
10.9487
 20
0.164352
 11
10.9487
 21
0.137558
  0
LINE
  8
0
 10
10.9487
 20
0.137558
 11
10.9628
 21
-0.389069
  0
LINE
  8
0
 10
10.9628
 20
-0.389069
 11
10.9644
 21
-0.418503
  0
LINE
  8
0
 10
10.9644
 20
-0.418503
 11
10.966
 21
-0.437027
  0
LINE
  8
0
 10
10.966
 20
-0.437027
 11
8.59355
 21
-0.437027
  0
LINE
  8
0
 10
17.7365
 20
5.0634
 11
18.0308
 21
4.76967
  0
LINE
  8
0
 10
18.0308
 20
4.76967
 11
18.4231
 21
4.26897
  0
LINE
  8
0
 10
18.4231
 20
4.26897
 11
18.7559
 21
3.71851
  0
LINE
  8
0
 10
18.7559
 20
3.71851
 11
19.0298
 21
3.11597
  0
LINE
  8
0
 10
19.0298
 20
3.11597
 11
19.2447
 21
2.45918
  0
LINE
  8
0
 10
19.2447
 20
2.45918
 11
19.3996
 21
1.74664
  0
LINE
  8
0
 10
19.3996
 20
1.74664
 11
19.4934
 21
0.977142
  0
LINE
  8
0
 10
19.4934
 20
0.977142
 11
19.525
 21
0.150955
  0
LINE
  8
0
 10
19.525
 20
0.150955
 11
19.4934
 21
-0.675217
  0
LINE
  8
0
 10
19.4934
 20
-0.675217
 11
19.3996
 21
-1.44473
  0
LINE
  8
0
 10
19.3996
 20
-1.44473
 11
19.2447
 21
-2.15724
  0
LINE
  8
0
 10
19.2447
 20
-2.15724
 11
19.0298
 21
-2.81404
  0
LINE
  8
0
 10
19.0298
 20
-2.81404
 11
18.7559
 21
-3.41658
  0
LINE
  8
0
 10
18.7559
 20
-3.41658
 11
18.4231
 21
-3.96704
  0
LINE
  8
0
 10
18.4231
 20
-3.96704
 11
18.0308
 21
-4.46774
  0
LINE
  8
0
 10
18.0308
 20
-4.46774
 11
17.7365
 21
-4.76147
  0
LINE
  8
0
 10
17.7365
 20
-4.76147
 11
17.7365
 21
5.0634
  0
LINE
  8
0
 10
26.4897
 20
4.09535
 11
26.4634
 21
4.10776
  0
LINE
  8
0
 10
26.4634
 20
4.10776
 11
26.2635
 21
4.1951
  0
LINE
  8
0
 10
26.2635
 20
4.1951
 11
26.3215
 21
4.21085
  0
LINE
  8
0
 10
26.3215
 20
4.21085
 11
26.3795
 21
4.23477
  0
LINE
  8
0
 10
26.3795
 20
4.23477
 11
26.4341
 21
4.26579
  0
LINE
  8
0
 10
26.4341
 20
4.26579
 11
26.4844
 21
4.30341
  0
LINE
  8
0
 10
26.4844
 20
4.30341
 11
26.5295
 21
4.34702
  0
LINE
  8
0
 10
26.5295
 20
4.34702
 11
26.5689
 21
4.39595
  0
LINE
  8
0
 10
26.5689
 20
4.39595
 11
26.6018
 21
4.44943
  0
LINE
  8
0
 10
26.6018
 20
4.44943
 11
26.6277
 21
4.50662
  0
LINE
  8
0
 10
26.6277
 20
4.50662
 11
26.6507
 21
4.56714
  0
LINE
  8
0
 10
26.6507
 20
4.56714
 11
26.6507
 21
4.11125
  0
LINE
  8
0
 10
26.6507
 20
4.11125
 11
26.5883
 21
4.0452
  0
LINE
  8
0
 10
26.5883
 20
4.0452
 11
26.4897
 21
4.09535
  0
LINE
  8
0
 10
-14.9769
 20
2.59042
 11
-15.2083
 21
3.29771
  0
LINE
  8
0
 10
-15.2083
 20
3.29771
 11
-15.5058
 21
3.95209
  0
LINE
  8
0
 10
-15.5058
 20
3.95209
 11
-15.6687
 21
4.22163
  0
LINE
  8
0
 10
-15.6687
 20
4.22163
 11
-15.4355
 21
4.27042
  0
LINE
  8
0
 10
-15.4355
 20
4.27042
 11
-15.1034
 21
4.32671
  0
LINE
  8
0
 10
-15.1034
 20
4.32671
 11
-14.7683
 21
4.3705
  0
LINE
  8
0
 10
-14.7683
 20
4.3705
 11
-14.4301
 21
4.40176
  0
LINE
  8
0
 10
-14.4301
 20
4.40176
 11
-14.0889
 21
4.42053
  0
LINE
  8
0
 10
-14.0889
 20
4.42053
 11
-13.7445
 21
4.42679
  0
LINE
  8
0
 10
-13.7445
 20
4.42679
 11
-13.4266
 21
4.4182
  0
LINE
  8
0
 10
-13.4266
 20
4.4182
 11
-13.1315
 21
4.39243
  0
LINE
  8
0
 10
-13.1315
 20
4.39243
 11
-12.9365
 21
4.36168
  0
LINE
  8
0
 10
-12.9365
 20
4.36168
 11
-12.9365
 21
2.20728
  0
LINE
  8
0
 10
-12.9365
 20
2.20728
 11
-13.7445
 21
2.20728
  0
LINE
  8
0
 10
-13.7445
 20
2.20728
 11
-14.588
 21
2.18526
  0
LINE
  8
0
 10
-14.588
 20
2.18526
 11
-14.8834
 21
2.16019
  0
LINE
  8
0
 10
-14.8834
 20
2.16019
 11
-14.9769
 21
2.59042
  0
LINE
  8
0
 10
-10.1698
 20
-5.78999
 11
-10.1698
 21
1.99631
  0
LINE
  8
0
 10
-10.1698
 20
1.99631
 11
-10.1653
 21
2.38838
  0
LINE
  8
0
 10
-10.1653
 20
2.38838
 11
-10.1519
 21
2.74141
  0
LINE
  8
0
 10
-10.1519
 20
2.74141
 11
-10.1295
 21
3.05539
  0
LINE
  8
0
 10
-10.1295
 20
3.05539
 11
-10.0983
 21
3.33032
  0
LINE
  8
0
 10
-10.0983
 20
3.33032
 11
-10.0581
 21
3.56622
  0
LINE
  8
0
 10
-10.0581
 20
3.56622
 11
-10.0089
 21
3.76306
  0
LINE
  8
0
 10
-10.0089
 20
3.76306
 11
-9.95081
 21
3.92087
  0
LINE
  8
0
 10
-9.95081
 20
3.92087
 11
-9.88091
 21
4.04932
  0
LINE
  8
0
 10
-9.88091
 20
4.04932
 11
-9.79643
 21
4.158
  0
LINE
  8
0
 10
-9.79643
 20
4.158
 11
-9.69737
 21
4.24693
  0
LINE
  8
0
 10
-9.69737
 20
4.24693
 11
-9.58374
 21
4.3161
  0
LINE
  8
0
 10
-9.58374
 20
4.3161
 11
-9.45554
 21
4.36551
  0
LINE
  8
0
 10
-9.45554
 20
4.36551
 11
-9.31274
 21
4.39516
  0
LINE
  8
0
 10
-9.31274
 20
4.39516
 11
-9.15538
 21
4.40503
  0
LINE
  8
0
 10
-9.15538
 20
4.40503
 11
-9.09517
 21
4.40115
  0
LINE
  8
0
 10
-9.09517
 20
4.40115
 11
-8.93945
 21
4.021
  0
LINE
  8
0
 10
-8.93945
 20
4.021
 11
-8.77182
 21
3.41898
  0
LINE
  8
0
 10
-8.77182
 20
3.41898
 11
-8.64955
 21
2.72675
  0
LINE
  8
0
 10
-8.64955
 20
2.72675
 11
-8.57503
 21
1.94485
  0
LINE
  8
0
 10
-8.57503
 20
1.94485
 11
-8.54971
 21
1.06837
  0
LINE
  8
0
 10
-8.54971
 20
1.06837
 11
-8.54971
 21
-5.78999
  0
LINE
  8
0
 10
-8.54971
 20
-5.78999
 11
-10.1698
 21
-5.78999
  0
LINE
  8
0
 10
4.57826
 20
1.94652
 11
4.64908
 21
2.28236
  0
LINE
  8
0
 10
4.64908
 20
2.28236
 11
4.74295
 21
2.59398
  0
LINE
  8
0
 10
4.74295
 20
2.59398
 11
4.85989
 21
2.88135
  0
LINE
  8
0
 10
4.85989
 20
2.88135
 11
4.99988
 21
3.14449
  0
LINE
  8
0
 10
4.99988
 20
3.14449
 11
5.16293
 21
3.38338
  0
LINE
  8
0
 10
5.16293
 20
3.38338
 11
5.34904
 21
3.59804
  0
LINE
  8
0
 10
5.34904
 20
3.59804
 11
5.41705
 21
3.65976
  0
LINE
  8
0
 10
5.41705
 20
3.65976
 11
5.44032
 21
3.6496
  0
LINE
  8
0
 10
5.44032
 20
3.6496
 11
5.63336
 21
3.55151
  0
LINE
  8
0
 10
5.63336
 20
3.55151
 11
5.81865
 21
3.4431
  0
LINE
  8
0
 10
5.81865
 20
3.4431
 11
5.99615
 21
3.32436
  0
LINE
  8
0
 10
5.99615
 20
3.32436
 11
6.16591
 21
3.1953
  0
LINE
  8
0
 10
6.16591
 20
3.1953
 11
6.32788
 21
3.05591
  0
LINE
  8
0
 10
6.32788
 20
3.05591
 11
6.32788
 21
4.18552
  0
LINE
  8
0
 10
6.32788
 20
4.18552
 11
6.57835
 21
4.24922
  0
LINE
  8
0
 10
6.57835
 20
4.24922
 11
6.88208
 21
4.29265
  0
LINE
  8
0
 10
6.88208
 20
4.29265
 11
7.20511
 21
4.30711
  0
LINE
  8
0
 10
7.20511
 20
4.30711
 11
7.56117
 21
4.29311
  0
LINE
  8
0
 10
7.56117
 20
4.29311
 11
7.89162
 21
4.25111
  0
LINE
  8
0
 10
7.89162
 20
4.25111
 11
8.1964
 21
4.18112
  0
LINE
  8
0
 10
8.1964
 20
4.18112
 11
8.47554
 21
4.08313
  0
LINE
  8
0
 10
8.47554
 20
4.08313
 11
8.72903
 21
3.95714
  0
LINE
  8
0
 10
8.72903
 20
3.95714
 11
8.85933
 21
3.86906
  0
LINE
  8
0
 10
8.85933
 20
3.86906
 11
8.59961
 21
3.29771
  0
LINE
  8
0
 10
8.59961
 20
3.29771
 11
8.36824
 21
2.59042
  0
LINE
  8
0
 10
8.36824
 20
2.59042
 11
8.20297
 21
1.83018
  0
LINE
  8
0
 10
8.20297
 20
1.83018
 11
8.17421
 21
1.59435
  0
LINE
  8
0
 10
8.17421
 20
1.59435
 11
4.53049
 21
1.58643
  0
LINE
  8
0
 10
4.53049
 20
1.58643
 11
4.57826
 21
1.94652
  0
LINE
  8
0
 10
-12.4365
 20
2.20728
 11
-12.4365
 21
4.23029
  0
LINE
  8
0
 10
-12.4365
 20
4.23029
 11
-12.383
 21
4.21204
  0
LINE
  8
0
 10
-12.383
 20
4.21204
 11
-12.1792
 21
4.11754
  0
LINE
  8
0
 10
-12.1792
 20
4.11754
 11
-11.9981
 21
4.00587
  0
LINE
  8
0
 10
-11.9981
 20
4.00587
 11
-11.8406
 21
3.87753
  0
LINE
  8
0
 10
-11.8406
 20
3.87753
 11
-11.7073
 21
3.73296
  0
LINE
  8
0
 10
-11.7073
 20
3.73296
 11
-11.5982
 21
3.57213
  0
LINE
  8
0
 10
-11.5982
 20
3.57213
 11
-11.5134
 21
3.39507
  0
LINE
  8
0
 10
-11.5134
 20
3.39507
 11
-11.4528
 21
3.20175
  0
LINE
  8
0
 10
-11.4528
 20
3.20175
 11
-11.4164
 21
2.9922
  0
LINE
  8
0
 10
-11.4164
 20
2.9922
 11
-11.4043
 21
2.7664
  0
LINE
  8
0
 10
-11.4043
 20
2.7664
 11
-11.4043
 21
2.20728
  0
LINE
  8
0
 10
-11.4043
 20
2.20728
 11
-12.4365
 21
2.20728
  0
LINE
  8
0
 10
-20.9977
 20
-3.86374
 11
-21.3118
 21
-3.79843
  0
LINE
  8
0
 10
-21.3118
 20
-3.79843
 11
-21.6047
 21
-3.68958
  0
LINE
  8
0
 10
-21.6047
 20
-3.68958
 11
-21.8765
 21
-3.53719
  0
LINE
  8
0
 10
-21.8765
 20
-3.53719
 11
-21.9316
 21
-3.49406
  0
LINE
  8
0
 10
-21.9316
 20
-3.49406
 11
-21.9316
 21
1.07541
  0
LINE
  8
0
 10
-21.9316
 20
1.07541
 11
-21.9576
 21
1.97586
  0
LINE
  8
0
 10
-21.9576
 20
1.97586
 11
-22.0356
 21
2.79401
  0
LINE
  8
0
 10
-22.0356
 20
2.79401
 11
-22.1656
 21
3.52985
  0
LINE
  8
0
 10
-22.1656
 20
3.52985
 11
-22.1813
 21
3.58649
  0
LINE
  8
0
 10
-22.1813
 20
3.58649
 11
-22.127
 21
3.64317
  0
LINE
  8
0
 10
-22.127
 20
3.64317
 11
-21.8765
 21
3.83911
  0
LINE
  8
0
 10
-21.8765
 20
3.83911
 11
-21.6047
 21
3.9915
  0
LINE
  8
0
 10
-21.6047
 20
3.9915
 11
-21.3118
 21
4.10036
  0
LINE
  8
0
 10
-21.3118
 20
4.10036
 11
-20.9977
 21
4.16566
  0
LINE
  8
0
 10
-20.9977
 20
4.16566
 11
-20.6624
 21
4.18744
  0
LINE
  8
0
 10
-20.6624
 20
4.18744
 11
-20.3241
 21
4.16566
  0
LINE
  8
0
 10
-20.3241
 20
4.16566
 11
-20.0074
 21
4.10036
  0
LINE
  8
0
 10
-20.0074
 20
4.10036
 11
-19.7124
 21
3.9915
  0
LINE
  8
0
 10
-19.7124
 20
3.9915
 11
-19.439
 21
3.83911
  0
LINE
  8
0
 10
-19.439
 20
3.83911
 11
-19.1873
 21
3.64317
  0
LINE
  8
0
 10
-19.1873
 20
3.64317
 11
-18.9573
 21
3.4037
  0
LINE
  8
0
 10
-18.9573
 20
3.4037
 11
-18.7489
 21
3.12068
  0
LINE
  8
0
 10
-18.7489
 20
3.12068
 11
-18.5653
 21
2.79883
  0
LINE
  8
0
 10
-18.5653
 20
2.79883
 11
-18.41
 21
2.44284
  0
LINE
  8
0
 10
-18.41
 20
2.44284
 11
-18.283
 21
2.05273
  0
LINE
  8
0
 10
-18.283
 20
2.05273
 11
-18.1842
 21
1.62848
  0
LINE
  8
0
 10
-18.1842
 20
1.62848
 11
-18.1222
 21
1.22588
  0
LINE
  8
0
 10
-18.1222
 20
1.22588
 11
-18.2752
 21
1.1288
  0
LINE
  8
0
 10
-18.2752
 20
1.1288
 11
-18.6636
 21
0.796585
  0
LINE
  8
0
 10
-18.6636
 20
0.796585
 11
-18.9923
 21
0.416107
  0
LINE
  8
0
 10
-18.9923
 20
0.416107
 11
-19.2612
 21
-0.0125885
  0
LINE
  8
0
 10
-19.2612
 20
-0.0125885
 11
-19.4704
 21
-0.489563
  0
LINE
  8
0
 10
-19.4704
 20
-0.489563
 11
-19.6197
 21
-1.01479
  0
LINE
  8
0
 10
-19.6197
 20
-1.01479
 11
-19.7094
 21
-1.58826
  0
LINE
  8
0
 10
-19.7094
 20
-1.58826
 11
-19.7393
 21
-2.20999
  0
LINE
  8
0
 10
-19.7393
 20
-2.20999
 11
-19.7142
 21
-2.78761
  0
LINE
  8
0
 10
-19.7142
 20
-2.78761
 11
-19.639
 21
-3.32758
  0
LINE
  8
0
 10
-19.639
 20
-3.32758
 11
-19.5687
 21
-3.60947
  0
LINE
  8
0
 10
-19.5687
 20
-3.60947
 11
-19.7124
 21
-3.68958
  0
LINE
  8
0
 10
-19.7124
 20
-3.68958
 11
-20.0074
 21
-3.79843
  0
LINE
  8
0
 10
-20.0074
 20
-3.79843
 11
-20.3241
 21
-3.86374
  0
LINE
  8
0
 10
-20.3241
 20
-3.86374
 11
-20.6624
 21
-3.88551
  0
LINE
  8
0
 10
-20.6624
 20
-3.88551
 11
-20.9977
 21
-3.86374
  0
LINE
  8
0
 10
13.7071
 20
-3.86374
 11
13.3929
 21
-3.79843
  0
LINE
  8
0
 10
13.3929
 20
-3.79843
 11
13.1
 21
-3.68958
  0
LINE
  8
0
 10
13.1
 20
-3.68958
 11
12.8283
 21
-3.53719
  0
LINE
  8
0
 10
12.8283
 20
-3.53719
 11
12.7039
 21
-3.43994
  0
LINE
  8
0
 10
12.7039
 20
-3.43994
 11
12.7039
 21
-2.55815
  0
LINE
  8
0
 10
12.7039
 20
-2.55815
 11
12.3536
 21
-2.75732
  0
LINE
  8
0
 10
12.3536
 20
-2.75732
 11
12.1674
 21
-2.8559
  0
LINE
  8
0
 10
12.1674
 20
-2.8559
 11
12.14
 21
-2.81876
  0
LINE
  8
0
 10
12.14
 20
-2.81876
 11
11.9566
 21
-2.49692
  0
LINE
  8
0
 10
11.9566
 20
-2.49692
 11
11.8013
 21
-2.14093
  0
LINE
  8
0
 10
11.8013
 20
-2.14093
 11
11.6743
 21
-1.75081
  0
LINE
  8
0
 10
11.6743
 20
-1.75081
 11
11.5755
 21
-1.32657
  0
LINE
  8
0
 10
11.5755
 20
-1.32657
 11
11.5155
 21
-0.937027
  0
LINE
  8
0
 10
11.5155
 20
-0.937027
 11
13.2459
 21
-0.937027
  0
LINE
  8
0
 10
13.2459
 20
-0.937027
 11
13.2459
 21
0.434174
  0
LINE
  8
0
 10
13.2459
 20
0.434174
 11
13.2135
 21
1.28917
  0
LINE
  8
0
 10
13.2135
 20
1.28917
 11
13.1165
 21
2.08742
  0
LINE
  8
0
 10
13.1165
 20
2.08742
 11
12.9547
 21
2.82892
  0
LINE
  8
0
 10
12.9547
 20
2.82892
 11
12.7283
 21
3.51369
  0
LINE
  8
0
 10
12.7283
 20
3.51369
 11
12.6442
 21
3.69516
  0
LINE
  8
0
 10
12.6442
 20
3.69516
 11
12.8283
 21
3.83911
  0
LINE
  8
0
 10
12.8283
 20
3.83911
 11
13.1
 21
3.9915
  0
LINE
  8
0
 10
13.1
 20
3.9915
 11
13.3929
 21
4.10036
  0
LINE
  8
0
 10
13.3929
 20
4.10036
 11
13.7071
 21
4.16566
  0
LINE
  8
0
 10
13.7071
 20
4.16566
 11
14.0423
 21
4.18744
  0
LINE
  8
0
 10
14.0423
 20
4.18744
 11
14.3807
 21
4.16566
  0
LINE
  8
0
 10
14.3807
 20
4.16566
 11
14.6973
 21
4.10036
  0
LINE
  8
0
 10
14.6973
 20
4.10036
 11
14.9923
 21
3.9915
  0
LINE
  8
0
 10
14.9923
 20
3.9915
 11
15.2657
 21
3.83911
  0
LINE
  8
0
 10
15.2657
 20
3.83911
 11
15.5174
 21
3.64317
  0
LINE
  8
0
 10
15.5174
 20
3.64317
 11
15.7475
 21
3.4037
  0
LINE
  8
0
 10
15.7475
 20
3.4037
 11
15.9559
 21
3.12068
  0
LINE
  8
0
 10
15.9559
 20
3.12068
 11
16.1394
 21
2.79883
  0
LINE
  8
0
 10
16.1394
 20
2.79883
 11
16.2947
 21
2.44284
  0
LINE
  8
0
 10
16.2947
 20
2.44284
 11
16.4217
 21
2.05273
  0
LINE
  8
0
 10
16.4217
 20
2.05273
 11
16.5206
 21
1.62848
  0
LINE
  8
0
 10
16.5206
 20
1.62848
 11
16.5911
 21
1.1701
  0
LINE
  8
0
 10
16.5911
 20
1.1701
 11
16.6335
 21
0.677597
  0
LINE
  8
0
 10
16.6335
 20
0.677597
 11
16.6476
 21
0.150955
  0
LINE
  8
0
 10
16.6476
 20
0.150955
 11
16.6335
 21
-0.375671
  0
LINE
  8
0
 10
16.6335
 20
-0.375671
 11
16.5911
 21
-0.868179
  0
LINE
  8
0
 10
16.5911
 20
-0.868179
 11
16.5206
 21
-1.32657
  0
LINE
  8
0
 10
16.5206
 20
-1.32657
 11
16.4217
 21
-1.75081
  0
LINE
  8
0
 10
16.4217
 20
-1.75081
 11
16.2947
 21
-2.14093
  0
LINE
  8
0
 10
16.2947
 20
-2.14093
 11
16.1394
 21
-2.49692
  0
LINE
  8
0
 10
16.1394
 20
-2.49692
 11
15.9559
 21
-2.81876
  0
LINE
  8
0
 10
15.9559
 20
-2.81876
 11
15.7475
 21
-3.10178
  0
LINE
  8
0
 10
15.7475
 20
-3.10178
 11
15.5174
 21
-3.34125
  0
LINE
  8
0
 10
15.5174
 20
-3.34125
 11
15.2657
 21
-3.53719
  0
LINE
  8
0
 10
15.2657
 20
-3.53719
 11
14.9923
 21
-3.68958
  0
LINE
  8
0
 10
14.9923
 20
-3.68958
 11
14.6973
 21
-3.79843
  0
LINE
  8
0
 10
14.6973
 20
-3.79843
 11
14.3807
 21
-3.86374
  0
LINE
  8
0
 10
14.3807
 20
-3.86374
 11
14.0423
 21
-3.88551
  0
LINE
  8
0
 10
14.0423
 20
-3.88551
 11
13.7071
 21
-3.86374
  0
LINE
  8
0
 10
-17.69
 20
1.70457
 11
-17.6972
 21
1.7419
  0
LINE
  8
0
 10
-17.6972
 20
1.7419
 11
-17.796
 21
2.16615
  0
LINE
  8
0
 10
-17.796
 20
2.16615
 11
-17.8076
 21
2.20758
  0
LINE
  8
0
 10
-17.8076
 20
2.20758
 11
-17.9346
 21
2.59769
  0
LINE
  8
0
 10
-17.9346
 20
2.59769
 11
-17.9518
 21
2.64276
  0
LINE
  8
0
 10
-17.9518
 20
2.64276
 11
-18.107
 21
2.99875
  0
LINE
  8
0
 10
-18.107
 20
2.99875
 11
-18.131
 21
3.04649
  0
LINE
  8
0
 10
-18.131
 20
3.04649
 11
-18.2491
 21
3.25357
  0
LINE
  8
0
 10
-18.2491
 20
3.25357
 11
-18.1091
 21
3.32718
  0
LINE
  8
0
 10
-18.1091
 20
3.32718
 11
-17.7626
 21
3.49654
  0
LINE
  8
0
 10
-17.7626
 20
3.49654
 11
-17.4202
 21
3.65103
  0
LINE
  8
0
 10
-17.4202
 20
3.65103
 11
-17.0818
 21
3.79065
  0
LINE
  8
0
 10
-17.0818
 20
3.79065
 11
-16.7474
 21
3.91539
  0
LINE
  8
0
 10
-16.7474
 20
3.91539
 11
-16.417
 21
4.02527
  0
LINE
  8
0
 10
-16.417
 20
4.02527
 11
-16.1766
 21
4.09521
  0
LINE
  8
0
 10
-16.1766
 20
4.09521
 11
-15.9488
 21
3.71848
  0
LINE
  8
0
 10
-15.9488
 20
3.71848
 11
-15.6749
 21
3.11597
  0
LINE
  8
0
 10
-15.6749
 20
3.11597
 11
-15.46
 21
2.45917
  0
LINE
  8
0
 10
-15.46
 20
2.45917
 11
-15.3855
 21
2.11621
  0
LINE
  8
0
 10
-15.3855
 20
2.11621
 11
-16.0786
 21
2.00919
  0
LINE
  8
0
 10
-16.0786
 20
2.00919
 11
-16.7259
 21
1.85512
  0
LINE
  8
0
 10
-16.7259
 20
1.85512
 11
-17.3077
 21
1.65703
  0
LINE
  8
0
 10
-17.3077
 20
1.65703
 11
-17.6574
 21
1.49307
  0
LINE
  8
0
 10
-17.6574
 20
1.49307
 11
-17.69
 21
1.70457
  0
LINE
  8
0
 10
6.87108
 20
-6.09314
 11
6.08531
 21
-5.99283
  0
LINE
  8
0
 10
6.08531
 20
-5.99283
 11
5.36691
 21
-5.82759
  0
LINE
  8
0
 10
5.36691
 20
-5.82759
 11
4.71449
 21
-5.59898
  0
LINE
  8
0
 10
4.71449
 20
-5.59898
 11
4.12617
 21
-5.30833
  0
LINE
  8
0
 10
4.12617
 20
-5.30833
 11
3.59877
 21
-4.9558
  0
LINE
  8
0
 10
3.59877
 20
-4.9558
 11
3.12921
 21
-4.54041
  0
LINE
  8
0
 10
3.12921
 20
-4.54041
 11
2.71883
 21
-4.06433
  0
LINE
  8
0
 10
2.71883
 20
-4.06433
 11
2.37042
 21
-3.53012
  0
LINE
  8
0
 10
2.37042
 20
-3.53012
 11
2.0829
 21
-2.93431
  0
LINE
  8
0
 10
2.0829
 20
-2.93431
 11
1.8569
 21
-2.27463
  0
LINE
  8
0
 10
1.8569
 20
-2.27463
 11
1.69348
 21
-1.54842
  0
LINE
  8
0
 10
1.69348
 20
-1.54842
 11
1.59436
 21
-0.755219
  0
LINE
  8
0
 10
1.59436
 20
-0.755219
 11
1.56099
 21
0.104874
  0
LINE
  8
0
 10
1.56099
 20
0.104874
 11
1.59309
 21
0.940201
  0
LINE
  8
0
 10
1.59309
 20
0.940201
 11
1.68858
 21
1.71724
  0
LINE
  8
0
 10
1.68858
 20
1.71724
 11
1.84628
 21
2.43645
  0
LINE
  8
0
 10
1.84628
 20
2.43645
 11
2.06493
 21
3.09845
  0
LINE
  8
0
 10
2.06493
 20
3.09845
 11
2.34366
 21
3.70505
  0
LINE
  8
0
 10
2.34366
 20
3.70505
 11
2.52252
 21
3.99738
  0
LINE
  8
0
 10
2.52252
 20
3.99738
 11
2.53056
 21
3.99899
  0
LINE
  8
0
 10
2.53056
 20
3.99899
 11
2.80925
 21
4.0372
  0
LINE
  8
0
 10
2.80925
 20
4.0372
 11
3.099
 21
4.06012
  0
LINE
  8
0
 10
3.099
 20
4.06012
 11
3.39981
 21
4.06775
  0
LINE
  8
0
 10
3.39981
 20
4.06775
 11
3.65045
 21
4.06259
  0
LINE
  8
0
 10
3.65045
 20
4.06259
 11
3.89523
 21
4.0471
  0
LINE
  8
0
 10
3.89523
 20
4.0471
 11
4.13412
 21
4.02129
  0
LINE
  8
0
 10
4.13412
 20
4.02129
 11
4.36716
 21
3.98515
  0
LINE
  8
0
 10
4.36716
 20
3.98515
 11
4.5943
 21
3.93869
  0
LINE
  8
0
 10
4.5943
 20
3.93869
 11
4.81557
 21
3.8819
  0
LINE
  8
0
 10
4.81557
 20
3.8819
 11
4.90833
 21
3.85298
  0
LINE
  8
0
 10
4.90833
 20
3.85298
 11
4.78516
 21
3.71092
  0
LINE
  8
0
 10
4.78516
 20
3.71092
 11
4.74995
 21
3.66525
  0
LINE
  8
0
 10
4.74995
 20
3.66525
 11
4.5869
 21
3.42636
  0
LINE
  8
0
 10
4.5869
 20
3.42636
 11
4.55846
 21
3.37932
  0
LINE
  8
0
 10
4.55846
 20
3.37932
 11
4.41847
 21
3.11618
  0
LINE
  8
0
 10
4.41847
 20
3.11618
 11
4.39677
 21
3.06981
  0
LINE
  8
0
 10
4.39677
 20
3.06981
 11
4.27983
 21
2.78244
  0
LINE
  8
0
 10
4.27983
 20
2.78244
 11
4.26421
 21
2.7382
  0
LINE
  8
0
 10
4.26421
 20
2.7382
 11
4.17033
 21
2.42659
  0
LINE
  8
0
 10
4.17033
 20
2.42659
 11
4.15984
 21
2.38553
  0
LINE
  8
0
 10
4.15984
 20
2.38553
 11
4.08902
 21
2.04968
  0
LINE
  8
0
 10
4.08902
 20
2.04968
 11
4.08261
 21
2.01228
  0
LINE
  8
0
 10
4.08261
 20
2.01228
 11
4.03484
 21
1.65219
  0
LINE
  8
0
 10
4.03484
 20
1.65219
 11
4.0314
 21
1.61673
  0
LINE
  8
0
 10
4.0314
 20
1.61673
 11
4.03154
 21
1.55394
  0
LINE
  8
0
 10
4.03154
 20
1.55394
 11
4.03955
 21
1.49167
  0
LINE
  8
0
 10
4.03955
 20
1.49167
 11
4.0553
 21
1.43088
  0
LINE
  8
0
 10
4.0553
 20
1.43088
 11
4.07854
 21
1.37256
  0
LINE
  8
0
 10
4.07854
 20
1.37256
 11
4.1089
 21
1.3176
  0
LINE
  8
0
 10
4.1089
 20
1.3176
 11
4.14592
 21
1.26688
  0
LINE
  8
0
 10
4.14592
 20
1.26688
 11
4.18901
 21
1.22119
  0
LINE
  8
0
 10
4.18901
 20
1.22119
 11
4.23747
 21
1.18127
  0
LINE
  8
0
 10
4.23747
 20
1.18127
 11
4.29056
 21
1.14775
  0
LINE
  8
0
 10
4.29056
 20
1.14775
 11
4.34744
 21
1.12114
  0
LINE
  8
0
 10
4.34744
 20
1.12114
 11
4.4072
 21
1.10187
  0
LINE
  8
0
 10
4.4072
 20
1.10187
 11
4.4689
 21
1.09024
  0
LINE
  8
0
 10
4.4689
 20
1.09024
 11
4.53157
 21
1.08643
  0
LINE
  8
0
 10
4.53157
 20
1.08643
 11
8.1132
 21
1.09421
  0
LINE
  8
0
 10
8.1132
 20
1.09421
 11
8.10381
 21
1.01704
  0
LINE
  8
0
 10
8.10381
 20
1.01704
 11
8.07076
 21
0.150955
  0
LINE
  8
0
 10
8.07076
 20
0.150955
 11
8.09319
 21
-0.437027
  0
LINE
  8
0
 10
8.09319
 20
-0.437027
 11
4.49599
 21
-0.437027
  0
LINE
  8
0
 10
4.49599
 20
-0.437027
 11
4.43939
 21
-0.440247
  0
LINE
  8
0
 10
4.43939
 20
-0.440247
 11
4.37756
 21
-0.451248
  0
LINE
  8
0
 10
4.37756
 20
-0.451248
 11
4.31763
 21
-0.469925
  0
LINE
  8
0
 10
4.31763
 20
-0.469925
 11
4.26048
 21
-0.495956
  0
LINE
  8
0
 10
4.26048
 20
-0.495956
 11
4.20706
 21
-0.528961
  0
LINE
  8
0
 10
4.20706
 20
-0.528961
 11
4.15819
 21
-0.56839
  0
LINE
  8
0
 10
4.15819
 20
-0.56839
 11
4.11465
 21
-0.613632
  0
LINE
  8
0
 10
4.11465
 20
-0.613632
 11
4.07713
 21
-0.663971
  0
LINE
  8
0
 10
4.07713
 20
-0.663971
 11
4.0462
 21
-0.718628
  0
LINE
  8
0
 10
4.0462
 20
-0.718628
 11
4.02238
 21
-0.776718
  0
LINE
  8
0
 10
4.02238
 20
-0.776718
 11
4.00603
 21
-0.837341
  0
LINE
  8
0
 10
4.00603
 20
-0.837341
 11
3.99739
 21
-0.899536
  0
LINE
  8
0
 10
3.99739
 20
-0.899536
 11
3.99663
 21
-0.962326
  0
LINE
  8
0
 10
3.99663
 20
-0.962326
 11
4.01781
 21
-1.38045
  0
LINE
  8
0
 10
4.01781
 20
-1.38045
 11
4.02251
 21
-1.42798
  0
LINE
  8
0
 10
4.02251
 20
-1.42798
 11
4.07944
 21
-1.81462
  0
LINE
  8
0
 10
4.07944
 20
-1.81462
 11
4.0903
 21
-1.86806
  0
LINE
  8
0
 10
4.0903
 20
-1.86806
 11
4.183
 21
-2.22325
  0
LINE
  8
0
 10
4.183
 20
-2.22325
 11
4.20204
 21
-2.28139
  0
LINE
  8
0
 10
4.20204
 20
-2.28139
 11
4.33049
 21
-2.60512
  0
LINE
  8
0
 10
4.33049
 20
-2.60512
 11
4.35933
 21
-2.66562
  0
LINE
  8
0
 10
4.35933
 20
-2.66562
 11
4.52353
 21
-2.95789
  0
LINE
  8
0
 10
4.52353
 20
-2.95789
 11
4.56264
 21
-3.0172
  0
LINE
  8
0
 10
4.56264
 20
-3.0172
 11
4.76259
 21
-3.278
  0
LINE
  8
0
 10
4.76259
 20
-3.278
 11
4.81071
 21
-3.33215
  0
LINE
  8
0
 10
4.81071
 20
-3.33215
 11
5.04643
 21
-3.56149
  0
LINE
  8
0
 10
5.04643
 20
-3.56149
 11
5.10016
 21
-3.60686
  0
LINE
  8
0
 10
5.10016
 20
-3.60686
 11
5.37167
 21
-3.80522
  0
LINE
  8
0
 10
5.37167
 20
-3.80522
 11
5.42694
 21
-3.84029
  0
LINE
  8
0
 10
5.42694
 20
-3.84029
 11
5.73422
 21
-4.00813
  0
LINE
  8
0
 10
5.73422
 20
-4.00813
 11
5.78807
 21
-4.03352
  0
LINE
  8
0
 10
5.78807
 20
-4.03352
 11
6.13109
 21
-4.17085
  0
LINE
  8
0
 10
6.13109
 20
-4.17085
 11
6.18124
 21
-4.1879
  0
LINE
  8
0
 10
6.18124
 20
-4.1879
 11
6.56003
 21
-4.29469
  0
LINE
  8
0
 10
6.56003
 20
-4.29469
 11
6.60521
 21
-4.30521
  0
LINE
  8
0
 10
6.60521
 20
-4.30521
 11
7.01976
 21
-4.3815
  0
LINE
  8
0
 10
7.01976
 20
-4.3815
 11
7.05969
 21
-4.38719
  0
LINE
  8
0
 10
7.05969
 20
-4.38719
 11
7.50998
 21
-4.43297
  0
LINE
  8
0
 10
7.50998
 20
-4.43297
 11
7.54486
 21
-4.43529
  0
LINE
  8
0
 10
7.54486
 20
-4.43529
 11
8.03091
 21
-4.45055
  0
LINE
  8
0
 10
8.03091
 20
-4.45055
 11
8.05685
 21
-4.45068
  0
LINE
  8
0
 10
8.05685
 20
-4.45068
 11
8.38881
 21
-4.44388
  0
LINE
  8
0
 10
8.38881
 20
-4.44388
 11
8.40941
 21
-4.44304
  0
LINE
  8
0
 10
8.40941
 20
-4.44304
 11
8.73996
 21
-4.42261
  0
LINE
  8
0
 10
8.73996
 20
-4.42261
 11
8.76057
 21
-4.4209
  0
LINE
  8
0
 10
8.76057
 20
-4.4209
 11
9.08969
 21
-4.38684
  0
LINE
  8
0
 10
9.08969
 20
-4.38684
 11
9.1102
 21
-4.38429
  0
LINE
  8
0
 10
9.1102
 20
-4.38429
 11
9.33858
 21
-4.35106
  0
LINE
  8
0
 10
9.33858
 20
-4.35106
 11
9.69035
 21
-4.80011
  0
LINE
  8
0
 10
9.69035
 20
-4.80011
 11
10.1758
 21
-5.28487
  0
LINE
  8
0
 10
10.1758
 20
-5.28487
 11
10.7067
 21
-5.69505
  0
LINE
  8
0
 10
10.7067
 20
-5.69505
 11
10.8144
 21
-5.75774
  0
LINE
  8
0
 10
10.8144
 20
-5.75774
 11
10.5432
 21
-5.82352
  0
LINE
  8
0
 10
10.5432
 20
-5.82352
 11
10.2092
 21
-5.89461
  0
LINE
  8
0
 10
10.2092
 20
-5.89461
 11
9.87157
 21
-5.95622
  0
LINE
  8
0
 10
9.87157
 20
-5.95622
 11
9.52838
 21
-6.00838
  0
LINE
  8
0
 10
9.52838
 20
-6.00838
 11
9.17969
 21
-6.05106
  0
LINE
  8
0
 10
9.17969
 20
-6.05106
 11
8.82462
 21
-6.08435
  0
LINE
  8
0
 10
8.82462
 20
-6.08435
 11
8.46349
 21
-6.10815
  0
LINE
  8
0
 10
8.46349
 20
-6.10815
 11
8.09659
 21
-6.12247
  0
LINE
  8
0
 10
8.09659
 20
-6.12247
 11
7.73044
 21
-6.12715
  0
LINE
  8
0
 10
7.73044
 20
-6.12715
 11
6.87108
 21
-6.09314
  0
LINE
  8
0
 10
23.3057
 20
-5.78999
 11
23.3057
 21
3.98946
  0
LINE
  8
0
 10
23.3057
 20
3.98946
 11
23.3534
 21
3.99899
  0
LINE
  8
0
 10
23.3534
 20
3.99899
 11
23.6321
 21
4.0372
  0
LINE
  8
0
 10
23.6321
 20
4.0372
 11
23.9218
 21
4.06012
  0
LINE
  8
0
 10
23.9218
 20
4.06012
 11
24.2226
 21
4.06775
  0
LINE
  8
0
 10
24.2226
 20
4.06775
 11
24.4733
 21
4.06259
  0
LINE
  8
0
 10
24.4733
 20
4.06259
 11
24.7181
 21
4.0471
  0
LINE
  8
0
 10
24.7181
 20
4.0471
 11
24.957
 21
4.02129
  0
LINE
  8
0
 10
24.957
 20
4.02129
 11
25.19
 21
3.98515
  0
LINE
  8
0
 10
25.19
 20
3.98515
 11
25.4171
 21
3.93869
  0
LINE
  8
0
 10
25.4171
 20
3.93869
 11
25.6384
 21
3.8819
  0
LINE
  8
0
 10
25.6384
 20
3.8819
 11
25.8538
 21
3.81479
  0
LINE
  8
0
 10
25.8538
 20
3.81479
 11
26.0624
 21
3.73735
  0
LINE
  8
0
 10
26.0624
 20
3.73735
 11
26.2632
 21
3.6496
  0
LINE
  8
0
 10
26.2632
 20
3.6496
 11
26.2696
 21
3.64632
  0
LINE
  8
0
 10
26.2696
 20
3.64632
 11
26.2492
 21
3.61462
  0
LINE
  8
0
 10
26.2492
 20
3.61462
 11
26.1101
 21
3.36787
  0
LINE
  8
0
 10
26.1101
 20
3.36787
 11
26.0866
 21
3.32053
  0
LINE
  8
0
 10
26.0866
 20
3.32053
 11
25.9689
 21
3.04788
  0
LINE
  8
0
 10
25.9689
 20
3.04788
 11
25.9521
 21
3.0032
  0
LINE
  8
0
 10
25.9521
 20
3.0032
 11
25.8557
 21
2.7047
  0
LINE
  8
0
 10
25.8557
 20
2.7047
 11
25.8444
 21
2.66367
  0
LINE
  8
0
 10
25.8444
 20
2.66367
 11
25.7695
 21
2.33928
  0
LINE
  8
0
 10
25.7695
 20
2.33928
 11
25.7624
 21
2.30228
  0
LINE
  8
0
 10
25.7624
 20
2.30228
 11
25.7089
 21
1.95203
  0
LINE
  8
0
 10
25.7089
 20
1.95203
 11
25.705
 21
1.91905
  0
LINE
  8
0
 10
25.705
 20
1.91905
 11
25.6728
 21
1.54291
  0
LINE
  8
0
 10
25.6728
 20
1.54291
 11
25.6712
 21
1.51367
  0
LINE
  8
0
 10
25.6712
 20
1.51367
 11
25.6605
 21
1.11166
  0
LINE
  8
0
 10
25.6605
 20
1.11166
 11
25.6603
 21
1.09836
  0
LINE
  8
0
 10
25.6603
 20
1.09836
 11
25.6603
 21
-5.78999
  0
LINE
  8
0
 10
25.6603
 20
-5.78999
 11
23.3057
 21
-5.78999
  0
LINE
  8
0
 10
-8.1537
 20
2.79401
 11
-8.28368
 21
3.52985
  0
LINE
  8
0
 10
-8.28368
 20
3.52985
 11
-8.42857
 21
4.05025
  0
LINE
  8
0
 10
-8.42857
 20
4.05025
 11
-8.42131
 21
4.04095
  0
LINE
  8
0
 10
-8.42131
 20
4.04095
 11
-8.34839
 21
3.90948
  0
LINE
  8
0
 10
-8.34839
 20
3.90948
 11
-8.28723
 21
3.74908
  0
LINE
  8
0
 10
-8.28723
 20
3.74908
 11
-8.23547
 21
3.55104
  0
LINE
  8
0
 10
-8.23547
 20
3.55104
 11
-8.19315
 21
3.31537
  0
LINE
  8
0
 10
-8.19315
 20
3.31537
 11
-8.1602
 21
3.04205
  0
LINE
  8
0
 10
-8.1602
 20
3.04205
 11
-8.13669
 21
2.73111
  0
LINE
  8
0
 10
-8.13669
 20
2.73111
 11
-8.12854
 21
2.53017
  0
LINE
  8
0
 10
-8.12854
 20
2.53017
 11
-8.1537
 21
2.79401
  0
LINE
  8
0
 10
-25.9081
 20
2.20728
 11
-25.8533
 21
2.45923
  0
LINE
  8
0
 10
-25.8533
 20
2.45923
 11
-25.6385
 21
3.116
  0
LINE
  8
0
 10
-25.6385
 20
3.116
 11
-25.455
 21
3.51965
  0
LINE
  8
0
 10
-25.455
 20
3.51965
 11
-25.3953
 21
3.39507
  0
LINE
  8
0
 10
-25.3953
 20
3.39507
 11
-25.3347
 21
3.20175
  0
LINE
  8
0
 10
-25.3347
 20
3.20175
 11
-25.2983
 21
2.9922
  0
LINE
  8
0
 10
-25.2983
 20
2.9922
 11
-25.2862
 21
2.7664
  0
LINE
  8
0
 10
-25.2862
 20
2.7664
 11
-25.2862
 21
2.20728
  0
LINE
  8
0
 10
-25.2862
 20
2.20728
 11
-25.9081
 21
2.20728
  0
LINE
  8
0
 10
8.69649
 20
1.74666
 11
8.85139
 21
2.45923
  0
LINE
  8
0
 10
8.85139
 20
2.45923
 11
9.06624
 21
3.116
  0
LINE
  8
0
 10
9.06624
 20
3.116
 11
9.24792
 21
3.51569
  0
LINE
  8
0
 10
9.24792
 20
3.51569
 11
9.3354
 21
3.41188
  0
LINE
  8
0
 10
9.3354
 20
3.41188
 11
9.48563
 21
3.17603
  0
LINE
  8
0
 10
9.48563
 20
3.17603
 11
9.60973
 21
2.91359
  0
LINE
  8
0
 10
9.60973
 20
2.91359
 11
9.70772
 21
2.62456
  0
LINE
  8
0
 10
9.70772
 20
2.62456
 11
9.7796
 21
2.30896
  0
LINE
  8
0
 10
9.7796
 20
2.30896
 11
9.82538
 21
1.96677
  0
LINE
  8
0
 10
9.82538
 20
1.96677
 11
9.84503
 21
1.59799
  0
LINE
  8
0
 10
9.84503
 20
1.59799
 11
8.67804
 21
1.59544
  0
LINE
  8
0
 10
8.67804
 20
1.59544
 11
8.69649
 21
1.74666
  0
LINE
  8
0
 10
11.4679
 20
-0.437027
 11
11.4626
 21
-0.375671
  0
LINE
  8
0
 10
11.4626
 20
-0.375671
 11
11.4485
 21
0.150955
  0
LINE
  8
0
 10
11.4485
 20
0.150955
 11
11.4626
 21
0.677597
  0
LINE
  8
0
 10
11.4626
 20
0.677597
 11
11.5049
 21
1.1701
  0
LINE
  8
0
 10
11.5049
 20
1.1701
 11
11.5755
 21
1.62848
  0
LINE
  8
0
 10
11.5755
 20
1.62848
 11
11.6743
 21
2.05273
  0
LINE
  8
0
 10
11.6743
 20
2.05273
 11
11.8013
 21
2.44284
  0
LINE
  8
0
 10
11.8013
 20
2.44284
 11
11.9566
 21
2.79883
  0
LINE
  8
0
 10
11.9566
 20
2.79883
 11
12.14
 21
3.12068
  0
LINE
  8
0
 10
12.14
 20
3.12068
 11
12.2722
 21
3.30034
  0
LINE
  8
0
 10
12.2722
 20
3.30034
 11
12.4718
 21
2.69676
  0
LINE
  8
0
 10
12.4718
 20
2.69676
 11
12.623
 21
2.00375
  0
LINE
  8
0
 10
12.623
 20
2.00375
 11
12.7147
 21
1.24963
  0
LINE
  8
0
 10
12.7147
 20
1.24963
 11
12.7459
 21
0.424545
  0
LINE
  8
0
 10
12.7459
 20
0.424545
 11
12.7459
 21
-0.437027
  0
LINE
  8
0
 10
12.7459
 20
-0.437027
 11
11.4679
 21
-0.437027
  0
LINE
  8
0
 10
-22.5647
 20
-2.81876
 11
-22.7482
 21
-2.49692
  0
LINE
  8
0
 10
-22.7482
 20
-2.49692
 11
-22.9034
 21
-2.14093
  0
LINE
  8
0
 10
-22.9034
 20
-2.14093
 11
-23.0304
 21
-1.75081
  0
LINE
  8
0
 10
-23.0304
 20
-1.75081
 11
-23.1292
 21
-1.32657
  0
LINE
  8
0
 10
-23.1292
 20
-1.32657
 11
-23.1998
 21
-0.868179
  0
LINE
  8
0
 10
-23.1998
 20
-0.868179
 11
-23.2421
 21
-0.375671
  0
LINE
  8
0
 10
-23.2421
 20
-0.375671
 11
-23.2562
 21
0.150955
  0
LINE
  8
0
 10
-23.2562
 20
0.150955
 11
-23.2421
 21
0.677597
  0
LINE
  8
0
 10
-23.2421
 20
0.677597
 11
-23.1998
 21
1.1701
  0
LINE
  8
0
 10
-23.1998
 20
1.1701
 11
-23.1292
 21
1.62848
  0
LINE
  8
0
 10
-23.1292
 20
1.62848
 11
-23.0304
 21
2.05273
  0
LINE
  8
0
 10
-23.0304
 20
2.05273
 11
-22.9034
 21
2.44284
  0
LINE
  8
0
 10
-22.9034
 20
2.44284
 11
-22.7482
 21
2.79883
  0
LINE
  8
0
 10
-22.7482
 20
2.79883
 11
-22.5924
 21
3.07198
  0
LINE
  8
0
 10
-22.5924
 20
3.07198
 11
-22.5314
 21
2.72675
  0
LINE
  8
0
 10
-22.5314
 20
2.72675
 11
-22.4569
 21
1.94485
  0
LINE
  8
0
 10
-22.4569
 20
1.94485
 11
-22.4316
 21
1.06837
  0
LINE
  8
0
 10
-22.4316
 20
1.06837
 11
-22.4316
 21
-2.9996
  0
LINE
  8
0
 10
-22.4316
 20
-2.9996
 11
-22.5647
 21
-2.81876
  0
LINE
  8
0
 10
-14.6794
 20
0.150955
 11
-14.7124
 21
1.01704
  0
LINE
  8
0
 10
-14.7124
 20
1.01704
 11
-14.7916
 21
1.66617
  0
LINE
  8
0
 10
-14.7916
 20
1.66617
 11
-14.5602
 21
1.68581
  0
LINE
  8
0
 10
-14.5602
 20
1.68581
 11
-13.7379
 21
1.70728
  0
LINE
  8
0
 10
-13.7379
 20
1.70728
 11
-12.9365
 21
1.70728
  0
LINE
  8
0
 10
-12.9365
 20
1.70728
 11
-12.9365
 21
0.266754
  0
LINE
  8
0
 10
-12.9365
 20
0.266754
 11
-13.2795
 21
0.260193
  0
LINE
  8
0
 10
-13.2795
 20
0.260193
 11
-13.3014
 21
0.259293
  0
LINE
  8
0
 10
-13.3014
 20
0.259293
 11
-13.7717
 21
0.229645
  0
LINE
  8
0
 10
-13.7717
 20
0.229645
 11
-13.7982
 21
0.227264
  0
LINE
  8
0
 10
-13.7982
 20
0.227264
 11
-14.2219
 21
0.177841
  0
LINE
  8
0
 10
-14.2219
 20
0.177841
 11
-14.2542
 21
0.173004
  0
LINE
  8
0
 10
-14.2542
 20
0.173004
 11
-14.6314
 21
0.103806
  0
LINE
  8
0
 10
-14.6314
 20
0.103806
 11
-14.6711
 21
0.0948334
  0
LINE
  8
0
 10
-14.6711
 20
0.0948334
 11
-14.6816
 21
0.09198
  0
LINE
  8
0
 10
-14.6816
 20
0.09198
 11
-14.6794
 21
0.150955
  0
LINE
  8
0
 10
-17.8453
 20
-5.36691
 11
-18.1666
 21
-5.09906
  0
LINE
  8
0
 10
-18.1666
 20
-5.09906
 11
-18.4481
 21
-4.79509
  0
LINE
  8
0
 10
-18.4481
 20
-4.79509
 11
-18.686
 21
-4.45915
  0
LINE
  8
0
 10
-18.686
 20
-4.45915
 11
-18.8816
 21
-4.08871
  0
LINE
  8
0
 10
-18.8816
 20
-4.08871
 11
-18.9842
 21
-3.81677
  0
LINE
  8
0
 10
-18.9842
 20
-3.81677
 11
-18.8802
 21
-3.73579
  0
LINE
  8
0
 10
-18.8802
 20
-3.73579
 11
-18.8268
 21
-3.68765
  0
LINE
  8
0
 10
-18.8268
 20
-3.68765
 11
-18.5967
 21
-3.44818
  0
LINE
  8
0
 10
-18.5967
 20
-3.44818
 11
-18.5546
 21
-3.39825
  0
LINE
  8
0
 10
-18.5546
 20
-3.39825
 11
-18.3462
 21
-3.11523
  0
LINE
  8
0
 10
-18.3462
 20
-3.11523
 11
-18.3145
 21
-3.06642
  0
LINE
  8
0
 10
-18.3145
 20
-3.06642
 11
-18.131
 21
-2.74458
  0
LINE
  8
0
 10
-18.131
 20
-2.74458
 11
-18.107
 21
-2.69684
  0
LINE
  8
0
 10
-18.107
 20
-2.69684
 11
-17.9518
 21
-2.34085
  0
LINE
  8
0
 10
-17.9518
 20
-2.34085
 11
-17.9346
 21
-2.29578
  0
LINE
  8
0
 10
-17.9346
 20
-2.29578
 11
-17.8076
 21
-1.90565
  0
LINE
  8
0
 10
-17.8076
 20
-1.90565
 11
-17.796
 21
-1.86423
  0
LINE
  8
0
 10
-17.796
 20
-1.86423
 11
-17.6972
 21
-1.43999
  0
LINE
  8
0
 10
-17.6972
 20
-1.43999
 11
-17.69
 21
-1.40266
  0
LINE
  8
0
 10
-17.69
 20
-1.40266
 11
-17.6194
 21
-0.944275
  0
LINE
  8
0
 10
-17.6194
 20
-0.944275
 11
-17.6154
 21
-0.911011
  0
LINE
  8
0
 10
-17.6154
 20
-0.911011
 11
-17.5731
 21
-0.418503
  0
LINE
  8
0
 10
-17.5731
 20
-0.418503
 11
-17.5714
 21
-0.389069
  0
LINE
  8
0
 10
-17.5714
 20
-0.389069
 11
-17.5573
 21
0.137558
  0
LINE
  8
0
 10
-17.5573
 20
0.137558
 11
-17.5573
 21
0.164352
  0
LINE
  8
0
 10
-17.5573
 20
0.164352
 11
-17.5714
 21
0.690994
  0
LINE
  8
0
 10
-17.5714
 20
0.690994
 11
-17.5731
 21
0.720428
  0
LINE
  8
0
 10
-17.5731
 20
0.720428
 11
-17.5944
 21
0.968552
  0
LINE
  8
0
 10
-17.5944
 20
0.968552
 11
-17.5832
 21
0.975647
  0
LINE
  8
0
 10
-17.5832
 20
0.975647
 11
-17.1205
 21
1.19258
  0
LINE
  8
0
 10
-17.1205
 20
1.19258
 11
-16.587
 21
1.37422
  0
LINE
  8
0
 10
-16.587
 20
1.37422
 11
-15.9825
 21
1.51811
  0
LINE
  8
0
 10
-15.9825
 20
1.51811
 11
-15.3068
 21
1.62245
  0
LINE
  8
0
 10
-15.3068
 20
1.62245
 11
-15.2901
 21
1.62386
  0
LINE
  8
0
 10
-15.2901
 20
1.62386
 11
-15.2113
 21
0.977142
  0
LINE
  8
0
 10
-15.2113
 20
0.977142
 11
-15.1798
 21
0.150955
  0
LINE
  8
0
 10
-15.1798
 20
0.150955
 11
-15.1879
 21
-0.0626221
  0
LINE
  8
0
 10
-15.1879
 20
-0.0626221
 11
-15.3344
 21
-0.118713
  0
LINE
  8
0
 10
-15.3344
 20
-0.118713
 11
-15.3936
 21
-0.14595
  0
LINE
  8
0
 10
-15.3936
 20
-0.14595
 11
-15.631
 21
-0.274445
  0
LINE
  8
0
 10
-15.631
 20
-0.274445
 11
-15.6973
 21
-0.317383
  0
LINE
  8
0
 10
-15.6973
 20
-0.317383
 11
-15.8961
 21
-0.469833
  0
LINE
  8
0
 10
-15.8961
 20
-0.469833
 11
-15.9578
 21
-0.525894
  0
LINE
  8
0
 10
-15.9578
 20
-0.525894
 11
-16.126
 21
-0.706573
  0
LINE
  8
0
 10
-16.126
 20
-0.706573
 11
-16.1776
 21
-0.772217
  0
LINE
  8
0
 10
-16.1776
 20
-0.772217
 11
-16.3152
 21
-0.98114
  0
LINE
  8
0
 10
-16.3152
 20
-0.98114
 11
-16.3534
 21
-1.05049
  0
LINE
  8
0
 10
-16.3534
 20
-1.05049
 11
-16.4605
 21
-1.28764
  0
LINE
  8
0
 10
-16.4605
 20
-1.28764
 11
-16.4852
 21
-1.35493
  0
LINE
  8
0
 10
-16.4852
 20
-1.35493
 11
-16.5617
 21
-1.62032
  0
LINE
  8
0
 10
-16.5617
 20
-1.62032
 11
-16.5752
 21
-1.68155
  0
LINE
  8
0
 10
-16.5752
 20
-1.68155
 11
-16.6211
 21
-1.97517
  0
LINE
  8
0
 10
-16.6211
 20
-1.97517
 11
-16.6265
 21
-2.02864
  0
LINE
  8
0
 10
-16.6265
 20
-2.02864
 11
-16.6418
 21
-2.35048
  0
LINE
  8
0
 10
-16.6418
 20
-2.35048
 11
-16.6419
 21
-2.39597
  0
LINE
  8
0
 10
-16.6419
 20
-2.39597
 11
-16.6313
 21
-2.63902
  0
LINE
  8
0
 10
-16.6313
 20
-2.63902
 11
-16.627
 21
-2.6861
  0
LINE
  8
0
 10
-16.627
 20
-2.6861
 11
-16.5953
 21
-2.91455
  0
LINE
  8
0
 10
-16.5953
 20
-2.91455
 11
-16.5854
 21
-2.96581
  0
LINE
  8
0
 10
-16.5854
 20
-2.96581
 11
-16.5325
 21
-3.17967
  0
LINE
  8
0
 10
-16.5325
 20
-3.17967
 11
-16.5158
 21
-3.23383
  0
LINE
  8
0
 10
-16.5158
 20
-3.23383
 11
-16.4417
 21
-3.43312
  0
LINE
  8
0
 10
-16.4417
 20
-3.43312
 11
-16.4174
 21
-3.4881
  0
LINE
  8
0
 10
-16.4174
 20
-3.4881
 11
-16.3221
 21
-3.67281
  0
LINE
  8
0
 10
-16.3221
 20
-3.67281
 11
-16.2904
 21
-3.726
  0
LINE
  8
0
 10
-16.2904
 20
-3.726
 11
-16.2084
 21
-3.84581
  0
LINE
  8
0
 10
-16.2084
 20
-3.84581
 11
-16.2817
 21
-3.96707
  0
LINE
  8
0
 10
-16.2817
 20
-3.96707
 11
-16.6739
 21
-4.46774
  0
LINE
  8
0
 10
-16.6739
 20
-4.46774
 11
-17.1155
 21
-4.90848
  0
LINE
  8
0
 10
-17.1155
 20
-4.90848
 11
-17.5959
 21
-5.27917
  0
LINE
  8
0
 10
-17.5959
 20
-5.27917
 11
-17.7983
 21
-5.39682
  0
LINE
  8
0
 10
-17.7983
 20
-5.39682
 11
-17.8453
 21
-5.36691
  0
LINE
  8
0
 10
-19.1475
 20
-3.23233
 11
-19.2157
 21
-2.74217
  0
LINE
  8
0
 10
-19.2157
 20
-2.74217
 11
-19.2387
 21
-2.21117
  0
LINE
  8
0
 10
-19.2387
 20
-2.21117
 11
-19.2112
 21
-1.63907
  0
LINE
  8
0
 10
-19.2112
 20
-1.63907
 11
-19.1304
 21
-1.12216
  0
LINE
  8
0
 10
-19.1304
 20
-1.12216
 11
-18.9988
 21
-0.659164
  0
LINE
  8
0
 10
-18.9988
 20
-0.659164
 11
-18.8181
 21
-0.24707
  0
LINE
  8
0
 10
-18.8181
 20
-0.24707
 11
-18.589
 21
0.118164
  0
LINE
  8
0
 10
-18.589
 20
0.118164
 11
-18.31
 21
0.441147
  0
LINE
  8
0
 10
-18.31
 20
0.441147
 11
-18.0704
 21
0.646027
  0
LINE
  8
0
 10
-18.0704
 20
0.646027
 11
-18.0571
 21
0.150955
  0
LINE
  8
0
 10
-18.0571
 20
0.150955
 11
-18.0712
 21
-0.375671
  0
LINE
  8
0
 10
-18.0712
 20
-0.375671
 11
-18.1136
 21
-0.868179
  0
LINE
  8
0
 10
-18.1136
 20
-0.868179
 11
-18.1842
 21
-1.32657
  0
LINE
  8
0
 10
-18.1842
 20
-1.32657
 11
-18.283
 21
-1.75081
  0
LINE
  8
0
 10
-18.283
 20
-1.75081
 11
-18.41
 21
-2.14093
  0
LINE
  8
0
 10
-18.41
 20
-2.14093
 11
-18.5653
 21
-2.49692
  0
LINE
  8
0
 10
-18.5653
 20
-2.49692
 11
-18.7489
 21
-2.81876
  0
LINE
  8
0
 10
-18.7489
 20
-2.81876
 11
-18.9573
 21
-3.10178
  0
LINE
  8
0
 10
-18.9573
 20
-3.10178
 11
-19.1341
 21
-3.28586
  0
LINE
  8
0
 10
-19.1341
 20
-3.28586
 11
-19.1475
 21
-3.23233
  0
LINE
  8
0
 10
-28.3452
 20
-4.27748
 11
-28.5762
 21
-4.24571
  0
LINE
  8
0
 10
-28.5762
 20
-4.24571
 11
-28.7922
 21
-4.19278
  0
LINE
  8
0
 10
-28.7922
 20
-4.19278
 11
-28.9931
 21
-4.11865
  0
LINE
  8
0
 10
-28.9931
 20
-4.11865
 11
-29.179
 21
-4.02336
  0
LINE
  8
0
 10
-29.179
 20
-4.02336
 11
-29.3499
 21
-3.90689
  0
LINE
  8
0
 10
-29.3499
 20
-3.90689
 11
-29.5056
 21
-3.76923
  0
LINE
  8
0
 10
-29.5056
 20
-3.76923
 11
-29.6432
 21
-3.61369
  0
LINE
  8
0
 10
-29.6432
 20
-3.61369
 11
-29.7597
 21
-3.44359
  0
LINE
  8
0
 10
-29.7597
 20
-3.44359
 11
-29.8549
 21
-3.25888
  0
LINE
  8
0
 10
-29.8549
 20
-3.25888
 11
-29.929
 21
-3.05959
  0
LINE
  8
0
 10
-29.929
 20
-3.05959
 11
-29.9819
 21
-2.84572
  0
LINE
  8
0
 10
-29.9819
 20
-2.84572
 11
-30.0137
 21
-2.61726
  0
LINE
  8
0
 10
-30.0137
 20
-2.61726
 11
-30.0243
 21
-2.37421
  0
LINE
  8
0
 10
-30.0243
 20
-2.37421
 11
-30.009
 21
-2.05237
  0
LINE
  8
0
 10
-30.009
 20
-2.05237
 11
-29.9631
 21
-1.75874
  0
LINE
  8
0
 10
-29.9631
 20
-1.75874
 11
-29.8867
 21
-1.49336
  0
LINE
  8
0
 10
-29.8867
 20
-1.49336
 11
-29.7796
 21
-1.25621
  0
LINE
  8
0
 10
-29.7796
 20
-1.25621
 11
-29.642
 21
-1.04729
  0
LINE
  8
0
 10
-29.642
 20
-1.04729
 11
-29.4737
 21
-0.866608
  0
LINE
  8
0
 10
-29.4737
 20
-0.866608
 11
-29.2749
 21
-0.714157
  0
LINE
  8
0
 10
-29.2749
 20
-0.714157
 11
-29.0375
 21
-0.585663
  0
LINE
  8
0
 10
-29.0375
 20
-0.585663
 11
-28.7536
 21
-0.476944
  0
LINE
  8
0
 10
-28.7536
 20
-0.476944
 11
-28.423
 21
-0.387985
  0
LINE
  8
0
 10
-28.423
 20
-0.387985
 11
-28.0459
 21
-0.318787
  0
LINE
  8
0
 10
-28.0459
 20
-0.318787
 11
-27.6222
 21
-0.269363
  0
LINE
  8
0
 10
-27.6222
 20
-0.269363
 11
-27.1519
 21
-0.239716
  0
LINE
  8
0
 10
-27.1519
 20
-0.239716
 11
-26.635
 21
-0.229828
  0
LINE
  8
0
 10
-26.635
 20
-0.229828
 11
-26.6194
 21
-0.229828
  0
LINE
  8
0
 10
-26.6194
 20
-0.229828
 11
-26.6009
 21
-0.715118
  0
LINE
  8
0
 10
-26.6009
 20
-0.715118
 11
-26.5018
 21
-1.52827
  0
LINE
  8
0
 10
-26.5018
 20
-1.52827
 11
-26.3365
 21
-2.2885
  0
LINE
  8
0
 10
-26.3365
 20
-2.2885
 11
-26.1051
 21
-2.99579
  0
LINE
  8
0
 10
-26.1051
 20
-2.99579
 11
-25.996
 21
-3.23573
  0
LINE
  8
0
 10
-25.996
 20
-3.23573
 11
-26.024
 21
-3.2793
  0
LINE
  8
0
 10
-26.024
 20
-3.2793
 11
-26.2471
 21
-3.54692
  0
LINE
  8
0
 10
-26.2471
 20
-3.54692
 11
-26.4946
 21
-3.77339
  0
LINE
  8
0
 10
-26.4946
 20
-3.77339
 11
-26.7665
 21
-3.95868
  0
LINE
  8
0
 10
-26.7665
 20
-3.95868
 11
-27.0629
 21
-4.10278
  0
LINE
  8
0
 10
-27.0629
 20
-4.10278
 11
-27.3839
 21
-4.20572
  0
LINE
  8
0
 10
-27.3839
 20
-4.20572
 11
-27.7292
 21
-4.26749
  0
LINE
  8
0
 10
-27.7292
 20
-4.26749
 11
-28.099
 21
-4.28807
  0
LINE
  8
0
 10
-28.099
 20
-4.28807
 11
-28.3452
 21
-4.27748
  0
LINE
  8
0
 10
-25.8533
 20
-2.1573
 11
-26.0082
 21
-1.44473
  0
LINE
  8
0
 10
-26.0082
 20
-1.44473
 11
-26.1021
 21
-0.675247
  0
LINE
  8
0
 10
-26.1021
 20
-0.675247
 11
-26.119
 21
-0.229828
  0
LINE
  8
0
 10
-26.119
 20
-0.229828
 11
-25.2862
 21
-0.229828
  0
LINE
  8
0
 10
-25.2862
 20
-0.229828
 11
-25.2862
 21
-0.460358
  0
LINE
  8
0
 10
-25.2862
 20
-0.460358
 11
-25.3013
 21
-0.961182
  0
LINE
  8
0
 10
-25.3013
 20
-0.961182
 11
-25.3465
 21
-1.42931
  0
LINE
  8
0
 10
-25.3465
 20
-1.42931
 11
-25.4217
 21
-1.86473
  0
LINE
  8
0
 10
-25.4217
 20
-1.86473
 11
-25.5271
 21
-2.26743
  0
LINE
  8
0
 10
-25.5271
 20
-2.26743
 11
-25.6626
 21
-2.63742
  0
LINE
  8
0
 10
-25.6626
 20
-2.63742
 11
-25.6828
 21
-2.67851
  0
LINE
  8
0
 10
-25.6828
 20
-2.67851
 11
-25.8533
 21
-2.1573
  0
LINE
  8
0
 10
-12.4365
 20
-0.229828
 11
-11.4043
 21
-0.229828
  0
LINE
  8
0
 10
-11.4043
 20
-0.229828
 11
-11.4043
 21
-0.460358
  0
LINE
  8
0
 10
-11.4043
 20
-0.460358
 11
-11.4194
 21
-0.961182
  0
LINE
  8
0
 10
-11.4194
 20
-0.961182
 11
-11.4646
 21
-1.42931
  0
LINE
  8
0
 10
-11.4646
 20
-1.42931
 11
-11.5398
 21
-1.86473
  0
LINE
  8
0
 10
-11.5398
 20
-1.86473
 11
-11.6452
 21
-2.26743
  0
LINE
  8
0
 10
-11.6452
 20
-2.26743
 11
-11.7807
 21
-2.63742
  0
LINE
  8
0
 10
-11.7807
 20
-2.63742
 11
-11.9464
 21
-2.97472
  0
LINE
  8
0
 10
-11.9464
 20
-2.97472
 11
-12.1421
 21
-3.2793
  0
LINE
  8
0
 10
-12.1421
 20
-3.2793
 11
-12.3652
 21
-3.54692
  0
LINE
  8
0
 10
-12.3652
 20
-3.54692
 11
-12.4365
 21
-3.61221
  0
LINE
  8
0
 10
-12.4365
 20
-3.61221
 11
-12.4365
 21
-0.229828
  0
LINE
  8
0
 10
-14.4633
 20
-4.27748
 11
-14.6943
 21
-4.24571
  0
LINE
  8
0
 10
-14.6943
 20
-4.24571
 11
-14.9103
 21
-4.19278
  0
LINE
  8
0
 10
-14.9103
 20
-4.19278
 11
-15.1113
 21
-4.11865
  0
LINE
  8
0
 10
-15.1113
 20
-4.11865
 11
-15.2971
 21
-4.02336
  0
LINE
  8
0
 10
-15.2971
 20
-4.02336
 11
-15.468
 21
-3.90689
  0
LINE
  8
0
 10
-15.468
 20
-3.90689
 11
-15.5938
 21
-3.79568
  0
LINE
  8
0
 10
-15.5938
 20
-3.79568
 11
-15.5058
 21
-3.65016
  0
LINE
  8
0
 10
-15.5058
 20
-3.65016
 11
-15.2083
 21
-2.99579
  0
LINE
  8
0
 10
-15.2083
 20
-2.99579
 11
-14.9769
 21
-2.2885
  0
LINE
  8
0
 10
-14.9769
 20
-2.2885
 11
-14.8116
 21
-1.52827
  0
LINE
  8
0
 10
-14.8116
 20
-1.52827
 11
-14.7124
 21
-0.715118
  0
LINE
  8
0
 10
-14.7124
 20
-0.715118
 11
-14.7016
 21
-0.431168
  0
LINE
  8
0
 10
-14.7016
 20
-0.431168
 11
-14.5411
 21
-0.387985
  0
LINE
  8
0
 10
-14.5411
 20
-0.387985
 11
-14.164
 21
-0.318787
  0
LINE
  8
0
 10
-14.164
 20
-0.318787
 11
-13.7403
 21
-0.269363
  0
LINE
  8
0
 10
-13.7403
 20
-0.269363
 11
-13.27
 21
-0.239716
  0
LINE
  8
0
 10
-13.27
 20
-0.239716
 11
-12.9365
 21
-0.233322
  0
LINE
  8
0
 10
-12.9365
 20
-0.233322
 11
-12.9365
 21
-3.9839
  0
LINE
  8
0
 10
-12.9365
 20
-3.9839
 11
-13.181
 21
-4.10278
  0
LINE
  8
0
 10
-13.181
 20
-4.10278
 11
-13.502
 21
-4.20572
  0
LINE
  8
0
 10
-13.502
 20
-4.20572
 11
-13.8473
 21
-4.26749
  0
LINE
  8
0
 10
-13.8473
 20
-4.26749
 11
-14.2171
 21
-4.28807
  0
LINE
  8
0
 10
-14.2171
 20
-4.28807
 11
-14.4633
 21
-4.27748
  0
LINE
  8
0
 10
-15.973
 20
-3.25888
 11
-16.0471
 21
-3.05959
  0
LINE
  8
0
 10
-16.0471
 20
-3.05959
 11
-16.1001
 21
-2.84572
  0
LINE
  8
0
 10
-16.1001
 20
-2.84572
 11
-16.1318
 21
-2.61726
  0
LINE
  8
0
 10
-16.1318
 20
-2.61726
 11
-16.1424
 21
-2.37421
  0
LINE
  8
0
 10
-16.1424
 20
-2.37421
 11
-16.1271
 21
-2.05237
  0
LINE
  8
0
 10
-16.1271
 20
-2.05237
 11
-16.0812
 21
-1.75874
  0
LINE
  8
0
 10
-16.0812
 20
-1.75874
 11
-16.0048
 21
-1.49336
  0
LINE
  8
0
 10
-16.0048
 20
-1.49336
 11
-15.8977
 21
-1.25621
  0
LINE
  8
0
 10
-15.8977
 20
-1.25621
 11
-15.7601
 21
-1.04729
  0
LINE
  8
0
 10
-15.7601
 20
-1.04729
 11
-15.5918
 21
-0.866608
  0
LINE
  8
0
 10
-15.5918
 20
-0.866608
 11
-15.393
 21
-0.714157
  0
LINE
  8
0
 10
-15.393
 20
-0.714157
 11
-15.209
 21
-0.614517
  0
LINE
  8
0
 10
-15.209
 20
-0.614517
 11
-15.2113
 21
-0.675217
  0
LINE
  8
0
 10
-15.2113
 20
-0.675217
 11
-15.3051
 21
-1.4447
  0
LINE
  8
0
 10
-15.3051
 20
-1.4447
 11
-15.4601
 21
-2.15727
  0
LINE
  8
0
 10
-15.4601
 20
-2.15727
 11
-15.6749
 21
-2.81404
  0
LINE
  8
0
 10
-15.6749
 20
-2.81404
 11
-15.9221
 21
-3.35767
  0
LINE
  8
0
 10
-15.9221
 20
-3.35767
 11
-15.973
 21
-3.25888
  0
LINE
  8
0
 10
9.34013
 20
-3.41658
 11
9.06624
 21
-2.81407
  0
LINE
  8
0
 10
9.06624
 20
-2.81407
 11
8.85139
 21
-2.1573
  0
LINE
  8
0
 10
8.85139
 20
-2.1573
 11
8.69649
 21
-1.44473
  0
LINE
  8
0
 10
8.69649
 20
-1.44473
 11
8.63457
 21
-0.937027
  0
LINE
  8
0
 10
8.63457
 20
-0.937027
 11
11.0099
 21
-0.937027
  0
LINE
  8
0
 10
11.0099
 20
-0.937027
 11
11.0108
 21
-0.94426
  0
LINE
  8
0
 10
11.0108
 20
-0.94426
 11
11.0813
 21
-1.40265
  0
LINE
  8
0
 10
11.0813
 20
-1.40265
 11
11.0885
 21
-1.43996
  0
LINE
  8
0
 10
11.0885
 20
-1.43996
 11
11.1873
 21
-1.8642
  0
LINE
  8
0
 10
11.1873
 20
-1.8642
 11
11.1989
 21
-1.90561
  0
LINE
  8
0
 10
11.1989
 20
-1.90561
 11
11.3259
 21
-2.29573
  0
LINE
  8
0
 10
11.3259
 20
-2.29573
 11
11.343
 21
-2.34079
  0
LINE
  8
0
 10
11.343
 20
-2.34079
 11
11.4983
 21
-2.69678
  0
LINE
  8
0
 10
11.4983
 20
-2.69678
 11
11.5222
 21
-2.74454
  0
LINE
  8
0
 10
11.5222
 20
-2.74454
 11
11.7057
 21
-3.06638
  0
LINE
  8
0
 10
11.7057
 20
-3.06638
 11
11.7164
 21
-3.08293
  0
LINE
  8
0
 10
11.7164
 20
-3.08293
 11
11.6657
 21
-3.10777
  0
LINE
  8
0
 10
11.6657
 20
-3.10777
 11
11.328
 21
-3.25905
  0
LINE
  8
0
 10
11.328
 20
-3.25905
 11
10.9947
 21
-3.39436
  0
LINE
  8
0
 10
10.9947
 20
-3.39436
 11
10.6655
 21
-3.5137
  0
LINE
  8
0
 10
10.6655
 20
-3.5137
 11
10.3406
 21
-3.61708
  0
LINE
  8
0
 10
10.3406
 20
-3.61708
 11
10.0171
 21
-3.70561
  0
LINE
  8
0
 10
10.0171
 20
-3.70561
 11
9.69223
 21
-3.78053
  0
LINE
  8
0
 10
9.69223
 20
-3.78053
 11
9.57361
 21
-3.80281
  0
LINE
  8
0
 10
9.57361
 20
-3.80281
 11
9.34013
 21
-3.41658
  0
LINE
  8
0
 10
7.56055
 20
-3.93553
 11
7.11026
 21
-3.88976
  0
LINE
  8
0
 10
7.11026
 20
-3.88976
 11
6.69571
 21
-3.81346
  0
LINE
  8
0
 10
6.69571
 20
-3.81346
 11
6.31693
 21
-3.70667
  0
LINE
  8
0
 10
6.31693
 20
-3.70667
 11
5.97391
 21
-3.56934
  0
LINE
  8
0
 10
5.97391
 20
-3.56934
 11
5.66663
 21
-3.40149
  0
LINE
  8
0
 10
5.66663
 20
-3.40149
 11
5.39511
 21
-3.20312
  0
LINE
  8
0
 10
5.39511
 20
-3.20312
 11
5.15939
 21
-2.97379
  0
LINE
  8
0
 10
5.15939
 20
-2.97379
 11
4.95944
 21
-2.71298
  0
LINE
  8
0
 10
4.95944
 20
-2.71298
 11
4.79524
 21
-2.42072
  0
LINE
  8
0
 10
4.79524
 20
-2.42072
 11
4.66679
 21
-2.09698
  0
LINE
  8
0
 10
4.66679
 20
-2.09698
 11
4.5741
 21
-1.74179
  0
LINE
  8
0
 10
4.5741
 20
-1.74179
 11
4.51717
 21
-1.35515
  0
LINE
  8
0
 10
4.51717
 20
-1.35515
 11
4.49599
 21
-0.937027
  0
LINE
  8
0
 10
4.49599
 20
-0.937027
 11
8.13086
 21
-0.937027
  0
LINE
  8
0
 10
8.13086
 20
-0.937027
 11
8.20297
 21
-1.52827
  0
LINE
  8
0
 10
8.20297
 20
-1.52827
 11
8.36824
 21
-2.2885
  0
LINE
  8
0
 10
8.36824
 20
-2.2885
 11
8.59961
 21
-2.99579
  0
LINE
  8
0
 10
8.59961
 20
-2.99579
 11
8.89708
 21
-3.65016
  0
LINE
  8
0
 10
8.89708
 20
-3.65016
 11
9.04147
 21
-3.88901
  0
LINE
  8
0
 10
9.04147
 20
-3.88901
 11
9.03822
 21
-3.8895
  0
LINE
  8
0
 10
9.03822
 20
-3.8895
 11
8.70911
 21
-3.92355
  0
LINE
  8
0
 10
8.70911
 20
-3.92355
 11
8.37856
 21
-3.94398
  0
LINE
  8
0
 10
8.37856
 20
-3.94398
 11
8.0466
 21
-3.95079
  0
LINE
  8
0
 10
8.0466
 20
-3.95079
 11
7.56055
 21
-3.93553
  0
LINE
  8
0
 10
10.9865
 20
-5.27937
 11
10.5067
 21
-4.90865
  0
LINE
  8
0
 10
10.5067
 20
-4.90865
 11
10.0651
 21
-4.46774
  0
LINE
  8
0
 10
10.0651
 20
-4.46774
 11
9.89255
 21
-4.24745
  0
LINE
  8
0
 10
9.89255
 20
-4.24745
 11
10.1295
 21
-4.19283
  0
LINE
  8
0
 10
10.1295
 20
-4.19283
 11
10.1491
 21
-4.18788
  0
LINE
  8
0
 10
10.1491
 20
-4.18788
 11
10.4726
 21
-4.09935
  0
LINE
  8
0
 10
10.4726
 20
-4.09935
 11
10.4922
 21
-4.09355
  0
LINE
  8
0
 10
10.4922
 20
-4.09355
 11
10.8171
 21
-3.99017
  0
LINE
  8
0
 10
10.8171
 20
-3.99017
 11
10.8359
 21
-3.98376
  0
LINE
  8
0
 10
10.8359
 20
-3.98376
 11
11.1651
 21
-3.86443
  0
LINE
  8
0
 10
11.1651
 20
-3.86443
 11
11.1827
 21
-3.85765
  0
LINE
  8
0
 10
11.1827
 20
-3.85765
 11
11.5161
 21
-3.72234
  0
LINE
  8
0
 10
11.5161
 20
-3.72234
 11
11.5325
 21
-3.71533
  0
LINE
  8
0
 10
11.5325
 20
-3.71533
 11
11.8701
 21
-3.56406
  0
LINE
  8
0
 10
11.8701
 20
-3.56406
 11
11.8854
 21
-3.55692
  0
LINE
  8
0
 10
11.8854
 20
-3.55692
 11
12.026
 21
-3.48813
  0
LINE
  8
0
 10
12.026
 20
-3.48813
 11
12.2039
 21
-3.67387
  0
LINE
  8
0
 10
12.2039
 20
-3.67387
 11
12.2039
 21
-5.31915
  0
LINE
  8
0
 10
12.2039
 20
-5.31915
 11
12.1892
 21
-5.325
  0
LINE
  8
0
 10
12.1892
 20
-5.325
 11
11.8633
 21
-5.44379
  0
LINE
  8
0
 10
11.8633
 20
-5.44379
 11
11.5361
 21
-5.55293
  0
LINE
  8
0
 10
11.5361
 20
-5.55293
 11
11.4836
 21
-5.56882
  0
LINE
  8
0
 10
11.4836
 20
-5.56882
 11
10.9865
 21
-5.27937
  0
LINE
  8
0
 10
-21.369
 20
-6.0919
 11
-21.9316
 21
-6.00357
  0
LINE
  8
0
 10
-21.9316
 20
-6.00357
 11
-21.9316
 21
-4.0795
  0
LINE
  8
0
 10
-21.9316
 20
-4.0795
 11
-21.8493
 21
-4.12569
  0
LINE
  8
0
 10
-21.8493
 20
-4.12569
 11
-21.7789
 21
-4.15826
  0
LINE
  8
0
 10
-21.7789
 20
-4.15826
 11
-21.4859
 21
-4.26712
  0
LINE
  8
0
 10
-21.4859
 20
-4.26712
 11
-21.4135
 21
-4.28796
  0
LINE
  8
0
 10
-21.4135
 20
-4.28796
 11
-21.0994
 21
-4.35327
  0
LINE
  8
0
 10
-21.0994
 20
-4.35327
 11
-21.0301
 21
-4.36269
  0
LINE
  8
0
 10
-21.0301
 20
-4.36269
 11
-20.6948
 21
-4.38446
  0
LINE
  8
0
 10
-20.6948
 20
-4.38446
 11
-20.6302
 21
-4.38448
  0
LINE
  8
0
 10
-20.6302
 20
-4.38448
 11
-20.2919
 21
-4.3627
  0
LINE
  8
0
 10
-20.2919
 20
-4.3627
 11
-20.2231
 21
-4.35344
  0
LINE
  8
0
 10
-20.2231
 20
-4.35344
 11
-19.9064
 21
-4.28813
  0
LINE
  8
0
 10
-19.9064
 20
-4.28813
 11
-19.8343
 21
-4.26752
  0
LINE
  8
0
 10
-19.8343
 20
-4.26752
 11
-19.5393
 21
-4.15866
  0
LINE
  8
0
 10
-19.5393
 20
-4.15866
 11
-19.4689
 21
-4.1263
  0
LINE
  8
0
 10
-19.4689
 20
-4.1263
 11
-19.4135
 21
-4.0954
  0
LINE
  8
0
 10
-19.4135
 20
-4.0954
 11
-19.3384
 21
-4.29451
  0
LINE
  8
0
 10
-19.3384
 20
-4.29451
 11
-19.1129
 21
-4.72148
  0
LINE
  8
0
 10
-19.1129
 20
-4.72148
 11
-18.8372
 21
-5.11079
  0
LINE
  8
0
 10
-18.8372
 20
-5.11079
 11
-18.5115
 21
-5.46243
  0
LINE
  8
0
 10
-18.5115
 20
-5.46243
 11
-18.2841
 21
-5.65201
  0
LINE
  8
0
 10
-18.2841
 20
-5.65201
 11
-18.6814
 21
-5.81839
  0
LINE
  8
0
 10
-18.6814
 20
-5.81839
 11
-19.2925
 21
-5.98865
  0
LINE
  8
0
 10
-19.2925
 20
-5.98865
 11
-19.9523
 21
-6.09187
  0
LINE
  8
0
 10
-19.9523
 20
-6.09187
 11
-20.6624
 21
-6.12668
  0
LINE
  8
0
 10
-20.6624
 20
-6.12668
 11
-21.369
 21
-6.0919
  0
LINE
  8
0
 10
-15.6501
 20
-6.10472
 11
-16.1745
 21
-6.03905
  0
LINE
  8
0
 10
-16.1745
 20
-6.03905
 11
-16.6548
 21
-5.93127
  0
LINE
  8
0
 10
-16.6548
 20
-5.93127
 11
-17.0918
 21
-5.78287
  0
LINE
  8
0
 10
-17.0918
 20
-5.78287
 11
-17.3012
 21
-5.68333
  0
LINE
  8
0
 10
-17.3012
 20
-5.68333
 11
-16.7848
 21
-5.28487
  0
LINE
  8
0
 10
-16.7848
 20
-5.28487
 11
-16.2991
 21
-4.80011
  0
LINE
  8
0
 10
-16.2991
 20
-4.80011
 11
-15.8694
 21
-4.2516
  0
LINE
  8
0
 10
-15.8694
 20
-4.2516
 11
-15.8567
 21
-4.23059
  0
LINE
  8
0
 10
-15.8567
 20
-4.23059
 11
-15.7991
 21
-4.28154
  0
LINE
  8
0
 10
-15.7991
 20
-4.28154
 11
-15.7496
 21
-4.32001
  0
LINE
  8
0
 10
-15.7496
 20
-4.32001
 11
-15.5788
 21
-4.43648
  0
LINE
  8
0
 10
-15.5788
 20
-4.43648
 11
-15.5252
 21
-4.46831
  0
LINE
  8
0
 10
-15.5252
 20
-4.46831
 11
-15.3393
 21
-4.5636
  0
LINE
  8
0
 10
-15.3393
 20
-4.5636
 11
-15.2843
 21
-4.58775
  0
LINE
  8
0
 10
-15.2843
 20
-4.58775
 11
-15.0834
 21
-4.66188
  0
LINE
  8
0
 10
-15.0834
 20
-4.66188
 11
-15.0293
 21
-4.67841
  0
LINE
  8
0
 10
-15.0293
 20
-4.67841
 11
-14.8133
 21
-4.73134
  0
LINE
  8
0
 10
-14.8133
 20
-4.73134
 11
-14.7624
 21
-4.74106
  0
LINE
  8
0
 10
-14.7624
 20
-4.74106
 11
-14.5314
 21
-4.77283
  0
LINE
  8
0
 10
-14.5314
 20
-4.77283
 11
-14.4848
 21
-4.77702
  0
LINE
  8
0
 10
-14.4848
 20
-4.77702
 11
-14.2386
 21
-4.78761
  0
LINE
  8
0
 10
-14.2386
 20
-4.78761
 11
-14.1894
 21
-4.78729
  0
LINE
  8
0
 10
-14.1894
 20
-4.78729
 11
-13.8195
 21
-4.76671
  0
LINE
  8
0
 10
-13.8195
 20
-4.76671
 11
-13.7593
 21
-4.75967
  0
LINE
  8
0
 10
-13.7593
 20
-4.75967
 11
-13.4139
 21
-4.69791
  0
LINE
  8
0
 10
-13.4139
 20
-4.69791
 11
-13.3492
 21
-4.68182
  0
LINE
  8
0
 10
-13.3492
 20
-4.68182
 11
-13.0283
 21
-4.57889
  0
LINE
  8
0
 10
-13.0283
 20
-4.57889
 11
-12.9624
 21
-4.55246
  0
LINE
  8
0
 10
-12.9624
 20
-4.55246
 11
-12.9365
 21
-4.53986
  0
LINE
  8
0
 10
-12.9365
 20
-4.53986
 11
-12.9365
 21
-5.58122
  0
LINE
  8
0
 10
-12.9365
 20
-5.58122
 11
-12.9536
 21
-5.5918
  0
LINE
  8
0
 10
-12.9536
 20
-5.5918
 11
-13.1895
 21
-5.71558
  0
LINE
  8
0
 10
-13.1895
 20
-5.71558
 11
-13.4359
 21
-5.82422
  0
LINE
  8
0
 10
-13.4359
 20
-5.82422
 11
-13.6897
 21
-5.91629
  0
LINE
  8
0
 10
-13.6897
 20
-5.91629
 11
-13.9512
 21
-5.99176
  0
LINE
  8
0
 10
-13.9512
 20
-5.99176
 11
-14.2208
 21
-6.05069
  0
LINE
  8
0
 10
-14.2208
 20
-6.05069
 11
-14.499
 21
-6.09299
  0
LINE
  8
0
 10
-14.499
 20
-6.09299
 11
-14.7858
 21
-6.1185
  0
LINE
  8
0
 10
-14.7858
 20
-6.1185
 11
-15.0792
 21
-6.127
  0
LINE
  8
0
 10
-15.0792
 20
-6.127
 11
-15.6501
 21
-6.10472
  0
LINE
  8
0
 10
-12.3418
 20
-5.78999
 11
-12.2155
 21
-5.6989
  0
LINE
  8
0
 10
-12.2155
 20
-5.6989
 11
-11.9916
 21
-5.51112
  0
LINE
  8
0
 10
-11.9916
 20
-5.51112
 11
-11.7817
 21
-5.30736
  0
LINE
  8
0
 10
-11.7817
 20
-5.30736
 11
-11.586
 21
-5.08757
  0
LINE
  8
0
 10
-11.586
 20
-5.08757
 11
-11.4043
 21
-4.85179
  0
LINE
  8
0
 10
-11.4043
 20
-4.85179
 11
-11.4043
 21
-5.78999
  0
LINE
  8
0
 10
-11.4043
 20
-5.78999
 11
-12.3418
 21
-5.78999
  0
LINE
  8
0
 10
-24.7862
 20
-5.78999
 11
-24.7862
 21
-5.02791
  0
LINE
  8
0
 10
-24.7862
 20
-5.02791
 11
-24.5289
 21
-5.28487
  0
LINE
  8
0
 10
-24.5289
 20
-5.28487
 11
-23.998
 21
-5.69505
  0
LINE
  8
0
 10
-23.998
 20
-5.69505
 11
-23.8349
 21
-5.78999
  0
LINE
  8
0
 10
-23.8349
 20
-5.78999
 11
-24.7862
 21
-5.78999
  0
ENDSEC
  0
SECTION
  2
OBJECTS
  0
DICTIONARY
  0
ENDSEC
  0
EOF
