  0
SECTION
  2
BLOCKS
  0
ENDSEC
  0
SECTION
  2
ENTITIES
  0
LINE
  8
0
 10
-15.3941
 20
-5.34212
 11
-17.9879
 21
-5.34212
  0
LINE
  8
0
 10
-17.9879
 20
-5.34212
 11
-18.2565
 21
-5.33446
  0
LINE
  8
0
 10
-18.2565
 20
-5.33446
 11
-18.5022
 21
-5.31149
  0
LINE
  8
0
 10
-18.5022
 20
-5.31149
 11
-18.7251
 21
-5.27321
  0
LINE
  8
0
 10
-18.7251
 20
-5.27321
 11
-18.9252
 21
-5.2196
  0
LINE
  8
0
 10
-18.9252
 20
-5.2196
 11
-19.1025
 21
-5.1507
  0
LINE
  8
0
 10
-19.1025
 20
-5.1507
 11
-19.2569
 21
-5.06647
  0
LINE
  8
0
 10
-19.2569
 20
-5.06647
 11
-19.3886
 21
-4.96692
  0
LINE
  8
0
 10
-19.3886
 20
-4.96692
 11
-19.5002
 21
-4.84972
  0
LINE
  8
0
 10
-19.5002
 20
-4.84972
 11
-19.5947
 21
-4.71246
  0
LINE
  8
0
 10
-19.5947
 20
-4.71246
 11
-19.6719
 21
-4.55519
  0
LINE
  8
0
 10
-19.6719
 20
-4.55519
 11
-19.732
 21
-4.37788
  0
LINE
  8
0
 10
-19.732
 20
-4.37788
 11
-19.775
 21
-4.18054
  0
LINE
  8
0
 10
-19.775
 20
-4.18054
 11
-19.8007
 21
-3.96317
  0
LINE
  8
0
 10
-19.8007
 20
-3.96317
 11
-19.8093
 21
-3.72575
  0
LINE
  8
0
 10
-19.8093
 20
-3.72575
 11
-19.8093
 21
2.39355
  0
LINE
  8
0
 10
-19.8093
 20
2.39355
 11
-15.3941
 21
2.39355
  0
LINE
  8
0
 10
-15.3941
 20
2.39355
 11
-15.3941
 21
4.98299
  0
LINE
  8
0
 10
-15.3941
 20
4.98299
 11
-19.8093
 21
4.98299
  0
LINE
  8
0
 10
-19.8093
 20
4.98299
 11
-19.8093
 21
8.64955
  0
LINE
  8
0
 10
-19.8093
 20
8.64955
 11
-23.187
 21
8.64955
  0
LINE
  8
0
 10
-23.187
 20
8.64955
 11
-23.187
 21
4.98299
  0
LINE
  8
0
 10
-23.187
 20
4.98299
 11
-26.4842
 21
4.98299
  0
LINE
  8
0
 10
-26.4842
 20
4.98299
 11
-26.4842
 21
2.39355
  0
LINE
  8
0
 10
-26.4842
 20
2.39355
 11
-23.187
 21
2.39355
  0
LINE
  8
0
 10
-23.187
 20
2.39355
 11
-23.187
 21
-3.56409
  0
LINE
  8
0
 10
-23.187
 20
-3.56409
 11
-23.1661
 21
-4.2495
  0
LINE
  8
0
 10
-23.1661
 20
-4.2495
 11
-23.1033
 21
-4.87022
  0
LINE
  8
0
 10
-23.1033
 20
-4.87022
 11
-22.9986
 21
-5.4263
  0
LINE
  8
0
 10
-22.9986
 20
-5.4263
 11
-22.852
 21
-5.91769
  0
LINE
  8
0
 10
-22.852
 20
-5.91769
 11
-22.6636
 21
-6.34442
  0
LINE
  8
0
 10
-22.6636
 20
-6.34442
 11
-22.4333
 21
-6.70648
  0
LINE
  8
0
 10
-22.4333
 20
-6.70648
 11
-22.1611
 21
-7.00386
  0
LINE
  8
0
 10
-22.1611
 20
-7.00386
 11
-21.8296
 21
-7.24998
  0
LINE
  8
0
 10
-21.8296
 20
-7.24998
 11
-21.4214
 21
-7.45824
  0
LINE
  8
0
 10
-21.4214
 20
-7.45824
 11
-20.9366
 21
-7.62863
  0
LINE
  8
0
 10
-20.9366
 20
-7.62863
 11
-20.375
 21
-7.76117
  0
LINE
  8
0
 10
-20.375
 20
-7.76117
 11
-19.7367
 21
-7.85582
  0
LINE
  8
0
 10
-19.7367
 20
-7.85582
 11
-19.0217
 21
-7.91263
  0
LINE
  8
0
 10
-19.0217
 20
-7.91263
 11
-18.23
 21
-7.93155
  0
LINE
  8
0
 10
-18.23
 20
-7.93155
 11
-15.3941
 21
-7.93155
  0
LINE
  8
0
 10
-15.3941
 20
-7.93155
 11
-15.3941
 21
-5.34212
  0
LINE
  8
0
 10
-18.2238
 20
-7.43155
 11
-18.996
 21
-7.41309
  0
LINE
  8
0
 10
-18.996
 20
-7.41309
 11
-19.68
 21
-7.35875
  0
LINE
  8
0
 10
-19.68
 20
-7.35875
 11
-20.2808
 21
-7.26967
  0
LINE
  8
0
 10
-20.2808
 20
-7.26967
 11
-20.7958
 21
-7.1481
  0
LINE
  8
0
 10
-20.7958
 20
-7.1481
 11
-21.2241
 21
-6.99759
  0
LINE
  8
0
 10
-21.2241
 20
-6.99759
 11
-21.5651
 21
-6.82364
  0
LINE
  8
0
 10
-21.5651
 20
-6.82364
 11
-21.8246
 21
-6.63097
  0
LINE
  8
0
 10
-21.8246
 20
-6.63097
 11
-22.0349
 21
-6.40117
  0
LINE
  8
0
 10
-22.0349
 20
-6.40117
 11
-22.2215
 21
-6.10791
  0
LINE
  8
0
 10
-22.2215
 20
-6.10791
 11
-22.3819
 21
-5.74455
  0
LINE
  8
0
 10
-22.3819
 20
-5.74455
 11
-22.512
 21
-5.30824
  0
LINE
  8
0
 10
-22.512
 20
-5.30824
 11
-22.608
 21
-4.79861
  0
LINE
  8
0
 10
-22.608
 20
-4.79861
 11
-22.6669
 21
-4.21681
  0
LINE
  8
0
 10
-22.6669
 20
-4.21681
 11
-22.687
 21
-3.55632
  0
LINE
  8
0
 10
-22.687
 20
-3.55632
 11
-22.687
 21
2.39355
  0
LINE
  8
0
 10
-22.687
 20
2.39355
 11
-22.6959
 21
2.48724
  0
LINE
  8
0
 10
-22.6959
 20
2.48724
 11
-22.7115
 21
2.54807
  0
LINE
  8
0
 10
-22.7115
 20
2.54807
 11
-22.7346
 21
2.60645
  0
LINE
  8
0
 10
-22.7346
 20
2.60645
 11
-22.7649
 21
2.66147
  0
LINE
  8
0
 10
-22.7649
 20
2.66147
 11
-22.8018
 21
2.71227
  0
LINE
  8
0
 10
-22.8018
 20
2.71227
 11
-22.8448
 21
2.75804
  0
LINE
  8
0
 10
-22.8448
 20
2.75804
 11
-22.8931
 21
2.79807
  0
LINE
  8
0
 10
-22.8931
 20
2.79807
 11
-22.9462
 21
2.83171
  0
LINE
  8
0
 10
-22.9462
 20
2.83171
 11
-23.003
 21
2.85844
  0
LINE
  8
0
 10
-23.003
 20
2.85844
 11
-23.0627
 21
2.87785
  0
LINE
  8
0
 10
-23.0627
 20
2.87785
 11
-23.1244
 21
2.88962
  0
LINE
  8
0
 10
-23.1244
 20
2.88962
 11
-23.187
 21
2.89355
  0
LINE
  8
0
 10
-23.187
 20
2.89355
 11
-25.9842
 21
2.89355
  0
LINE
  8
0
 10
-25.9842
 20
2.89355
 11
-25.9842
 21
4.48299
  0
LINE
  8
0
 10
-25.9842
 20
4.48299
 11
-23.187
 21
4.48299
  0
LINE
  8
0
 10
-23.187
 20
4.48299
 11
-23.0934
 21
4.49184
  0
LINE
  8
0
 10
-23.0934
 20
4.49184
 11
-23.0325
 21
4.50746
  0
LINE
  8
0
 10
-23.0325
 20
4.50746
 11
-22.9742
 21
4.53058
  0
LINE
  8
0
 10
-22.9742
 20
4.53058
 11
-22.9191
 21
4.56082
  0
LINE
  8
0
 10
-22.9191
 20
4.56082
 11
-22.8683
 21
4.59773
  0
LINE
  8
0
 10
-22.8683
 20
4.59773
 11
-22.8226
 21
4.64072
  0
LINE
  8
0
 10
-22.8226
 20
4.64072
 11
-22.7825
 21
4.68909
  0
LINE
  8
0
 10
-22.7825
 20
4.68909
 11
-22.7489
 21
4.74211
  0
LINE
  8
0
 10
-22.7489
 20
4.74211
 11
-22.7222
 21
4.79892
  0
LINE
  8
0
 10
-22.7222
 20
4.79892
 11
-22.7027
 21
4.85864
  0
LINE
  8
0
 10
-22.7027
 20
4.85864
 11
-22.691
 21
4.92032
  0
LINE
  8
0
 10
-22.691
 20
4.92032
 11
-22.687
 21
4.98299
  0
LINE
  8
0
 10
-22.687
 20
4.98299
 11
-22.687
 21
8.14955
  0
LINE
  8
0
 10
-22.687
 20
8.14955
 11
-20.3093
 21
8.14955
  0
LINE
  8
0
 10
-20.3093
 20
8.14955
 11
-20.3093
 21
4.98299
  0
LINE
  8
0
 10
-20.3093
 20
4.98299
 11
-20.3005
 21
4.8893
  0
LINE
  8
0
 10
-20.3005
 20
4.8893
 11
-20.2848
 21
4.82848
  0
LINE
  8
0
 10
-20.2848
 20
4.82848
 11
-20.2617
 21
4.7701
  0
LINE
  8
0
 10
-20.2617
 20
4.7701
 11
-20.2315
 21
4.71507
  0
LINE
  8
0
 10
-20.2315
 20
4.71507
 11
-20.1946
 21
4.66428
  0
LINE
  8
0
 10
-20.1946
 20
4.66428
 11
-20.1516
 21
4.6185
  0
LINE
  8
0
 10
-20.1516
 20
4.6185
 11
-20.1032
 21
4.57848
  0
LINE
  8
0
 10
-20.1032
 20
4.57848
 11
-20.0502
 21
4.54483
  0
LINE
  8
0
 10
-20.0502
 20
4.54483
 11
-19.9934
 21
4.5181
  0
LINE
  8
0
 10
-19.9934
 20
4.5181
 11
-19.9337
 21
4.49869
  0
LINE
  8
0
 10
-19.9337
 20
4.49869
 11
-19.872
 21
4.48692
  0
LINE
  8
0
 10
-19.872
 20
4.48692
 11
-19.8093
 21
4.48299
  0
LINE
  8
0
 10
-19.8093
 20
4.48299
 11
-15.8941
 21
4.48299
  0
LINE
  8
0
 10
-15.8941
 20
4.48299
 11
-15.8941
 21
2.89355
  0
LINE
  8
0
 10
-15.8941
 20
2.89355
 11
-19.8093
 21
2.89355
  0
LINE
  8
0
 10
-19.8093
 20
2.89355
 11
-19.903
 21
2.8847
  0
LINE
  8
0
 10
-19.903
 20
2.8847
 11
-19.9638
 21
2.86908
  0
LINE
  8
0
 10
-19.9638
 20
2.86908
 11
-20.0222
 21
2.84596
  0
LINE
  8
0
 10
-20.0222
 20
2.84596
 11
-20.0772
 21
2.81572
  0
LINE
  8
0
 10
-20.0772
 20
2.81572
 11
-20.128
 21
2.77881
  0
LINE
  8
0
 10
-20.128
 20
2.77881
 11
-20.1738
 21
2.73582
  0
LINE
  8
0
 10
-20.1738
 20
2.73582
 11
-20.2138
 21
2.68745
  0
LINE
  8
0
 10
-20.2138
 20
2.68745
 11
-20.2475
 21
2.63443
  0
LINE
  8
0
 10
-20.2475
 20
2.63443
 11
-20.2742
 21
2.57762
  0
LINE
  8
0
 10
-20.2742
 20
2.57762
 11
-20.2936
 21
2.5179
  0
LINE
  8
0
 10
-20.2936
 20
2.5179
 11
-20.3054
 21
2.45622
  0
LINE
  8
0
 10
-20.3054
 20
2.45622
 11
-20.3093
 21
2.39355
  0
LINE
  8
0
 10
-20.3093
 20
2.39355
 11
-20.3093
 21
-3.72575
  0
LINE
  8
0
 10
-20.3093
 20
-3.72575
 11
-20.309
 21
-3.74384
  0
LINE
  8
0
 10
-20.309
 20
-3.74384
 11
-20.3004
 21
-3.98125
  0
LINE
  8
0
 10
-20.3004
 20
-3.98125
 11
-20.2972
 21
-4.022
  0
LINE
  8
0
 10
-20.2972
 20
-4.022
 11
-20.2715
 21
-4.23938
  0
LINE
  8
0
 10
-20.2715
 20
-4.23938
 11
-20.2635
 21
-4.28685
  0
LINE
  8
0
 10
-20.2635
 20
-4.28685
 11
-20.2206
 21
-4.48419
  0
LINE
  8
0
 10
-20.2206
 20
-4.48419
 11
-20.2056
 21
-4.53841
  0
LINE
  8
0
 10
-20.2056
 20
-4.53841
 11
-20.1454
 21
-4.71571
  0
LINE
  8
0
 10
-20.1454
 20
-4.71571
 11
-20.1207
 21
-4.77568
  0
LINE
  8
0
 10
-20.1207
 20
-4.77568
 11
-20.0434
 21
-4.93295
  0
LINE
  8
0
 10
-20.0434
 20
-4.93295
 11
-20.0065
 21
-4.99594
  0
LINE
  8
0
 10
-20.0065
 20
-4.99594
 11
-19.912
 21
-5.13319
  0
LINE
  8
0
 10
-19.912
 20
-5.13319
 11
-19.8623
 21
-5.19453
  0
LINE
  8
0
 10
-19.8623
 20
-5.19453
 11
-19.7506
 21
-5.31174
  0
LINE
  8
0
 10
-19.7506
 20
-5.31174
 11
-19.6902
 21
-5.36571
  0
LINE
  8
0
 10
-19.6902
 20
-5.36571
 11
-19.5585
 21
-5.46526
  0
LINE
  8
0
 10
-19.5585
 20
-5.46526
 11
-19.4963
 21
-5.50543
  0
LINE
  8
0
 10
-19.4963
 20
-5.50543
 11
-19.3419
 21
-5.58966
  0
LINE
  8
0
 10
-19.3419
 20
-5.58966
 11
-19.2836
 21
-5.61673
  0
LINE
  8
0
 10
-19.2836
 20
-5.61673
 11
-19.1064
 21
-5.68564
  0
LINE
  8
0
 10
-19.1064
 20
-5.68564
 11
-19.0546
 21
-5.70258
  0
LINE
  8
0
 10
-19.0546
 20
-5.70258
 11
-18.8545
 21
-5.75618
  0
LINE
  8
0
 10
-18.8545
 20
-5.75618
 11
-18.8098
 21
-5.76599
  0
LINE
  8
0
 10
-18.8098
 20
-5.76599
 11
-18.5868
 21
-5.80428
  0
LINE
  8
0
 10
-18.5868
 20
-5.80428
 11
-18.5487
 21
-5.80933
  0
LINE
  8
0
 10
-18.5487
 20
-5.80933
 11
-18.303
 21
-5.83229
  0
LINE
  8
0
 10
-18.303
 20
-5.83229
 11
-18.2707
 21
-5.83426
  0
LINE
  8
0
 10
-18.2707
 20
-5.83426
 11
-18.0022
 21
-5.84192
  0
LINE
  8
0
 10
-18.0022
 20
-5.84192
 11
-17.9879
 21
-5.84212
  0
LINE
  8
0
 10
-17.9879
 20
-5.84212
 11
-15.8941
 21
-5.84212
  0
LINE
  8
0
 10
-15.8941
 20
-5.84212
 11
-15.8941
 21
-7.43155
  0
LINE
  8
0
 10
-15.8941
 20
-7.43155
 11
-18.2238
 21
-7.43155
  0
LINE
  8
0
 10
26.2516
 20
-5.34212
 11
23.6577
 21
-5.34212
  0
LINE
  8
0
 10
23.6577
 20
-5.34212
 11
23.3892
 21
-5.33446
  0
LINE
  8
0
 10
23.3892
 20
-5.33446
 11
23.1434
 21
-5.31149
  0
LINE
  8
0
 10
23.1434
 20
-5.31149
 11
22.9205
 21
-5.27321
  0
LINE
  8
0
 10
22.9205
 20
-5.27321
 11
22.7204
 21
-5.2196
  0
LINE
  8
0
 10
22.7204
 20
-5.2196
 11
22.5432
 21
-5.1507
  0
LINE
  8
0
 10
22.5432
 20
-5.1507
 11
22.3887
 21
-5.06647
  0
LINE
  8
0
 10
22.3887
 20
-5.06647
 11
22.2571
 21
-4.96692
  0
LINE
  8
0
 10
22.2571
 20
-4.96692
 11
22.1455
 21
-4.84972
  0
LINE
  8
0
 10
22.1455
 20
-4.84972
 11
22.051
 21
-4.71246
  0
LINE
  8
0
 10
22.051
 20
-4.71246
 11
21.9737
 21
-4.55519
  0
LINE
  8
0
 10
21.9737
 20
-4.55519
 11
21.9136
 21
-4.37788
  0
LINE
  8
0
 10
21.9136
 20
-4.37788
 11
21.8707
 21
-4.18054
  0
LINE
  8
0
 10
21.8707
 20
-4.18054
 11
21.8449
 21
-3.96317
  0
LINE
  8
0
 10
21.8449
 20
-3.96317
 11
21.8363
 21
-3.72575
  0
LINE
  8
0
 10
21.8363
 20
-3.72575
 11
21.8363
 21
2.39355
  0
LINE
  8
0
 10
21.8363
 20
2.39355
 11
26.2516
 21
2.39355
  0
LINE
  8
0
 10
26.2516
 20
2.39355
 11
26.2516
 21
4.98299
  0
LINE
  8
0
 10
26.2516
 20
4.98299
 11
21.8363
 21
4.98299
  0
LINE
  8
0
 10
21.8363
 20
4.98299
 11
21.8363
 21
8.64955
  0
LINE
  8
0
 10
21.8363
 20
8.64955
 11
18.4586
 21
8.64955
  0
LINE
  8
0
 10
18.4586
 20
8.64955
 11
18.4586
 21
4.98299
  0
LINE
  8
0
 10
18.4586
 20
4.98299
 11
15.1615
 21
4.98299
  0
LINE
  8
0
 10
15.1615
 20
4.98299
 11
15.1615
 21
2.39355
  0
LINE
  8
0
 10
15.1615
 20
2.39355
 11
18.4586
 21
2.39355
  0
LINE
  8
0
 10
18.4586
 20
2.39355
 11
18.4586
 21
-3.56409
  0
LINE
  8
0
 10
18.4586
 20
-3.56409
 11
18.4796
 21
-4.2495
  0
LINE
  8
0
 10
18.4796
 20
-4.2495
 11
18.5424
 21
-4.87022
  0
LINE
  8
0
 10
18.5424
 20
-4.87022
 11
18.6471
 21
-5.4263
  0
LINE
  8
0
 10
18.6471
 20
-5.4263
 11
18.7936
 21
-5.91769
  0
LINE
  8
0
 10
18.7936
 20
-5.91769
 11
18.9821
 21
-6.34442
  0
LINE
  8
0
 10
18.9821
 20
-6.34442
 11
19.2124
 21
-6.70648
  0
LINE
  8
0
 10
19.2124
 20
-6.70648
 11
19.4846
 21
-7.00386
  0
LINE
  8
0
 10
19.4846
 20
-7.00386
 11
19.8161
 21
-7.24998
  0
LINE
  8
0
 10
19.8161
 20
-7.24998
 11
20.2242
 21
-7.45824
  0
LINE
  8
0
 10
20.2242
 20
-7.45824
 11
20.7091
 21
-7.62863
  0
LINE
  8
0
 10
20.7091
 20
-7.62863
 11
21.2707
 21
-7.76117
  0
LINE
  8
0
 10
21.2707
 20
-7.76117
 11
21.909
 21
-7.85582
  0
LINE
  8
0
 10
21.909
 20
-7.85582
 11
22.624
 21
-7.91263
  0
LINE
  8
0
 10
22.624
 20
-7.91263
 11
23.4156
 21
-7.93155
  0
LINE
  8
0
 10
23.4156
 20
-7.93155
 11
26.2516
 21
-7.93155
  0
LINE
  8
0
 10
26.2516
 20
-7.93155
 11
26.2516
 21
-5.34212
  0
LINE
  8
0
 10
23.4218
 20
-7.43155
 11
22.6496
 21
-7.41309
  0
LINE
  8
0
 10
22.6496
 20
-7.41309
 11
21.9657
 21
-7.35875
  0
LINE
  8
0
 10
21.9657
 20
-7.35875
 11
21.3649
 21
-7.26967
  0
LINE
  8
0
 10
21.3649
 20
-7.26967
 11
20.8499
 21
-7.1481
  0
LINE
  8
0
 10
20.8499
 20
-7.1481
 11
20.4216
 21
-6.99762
  0
LINE
  8
0
 10
20.4216
 20
-6.99762
 11
20.0805
 21
-6.82358
  0
LINE
  8
0
 10
20.0805
 20
-6.82358
 11
19.8211
 21
-6.63097
  0
LINE
  8
0
 10
19.8211
 20
-6.63097
 11
19.6108
 21
-6.40117
  0
LINE
  8
0
 10
19.6108
 20
-6.40117
 11
19.4242
 21
-6.10786
  0
LINE
  8
0
 10
19.4242
 20
-6.10786
 11
19.2638
 21
-5.74461
  0
LINE
  8
0
 10
19.2638
 20
-5.74461
 11
19.1336
 21
-5.30824
  0
LINE
  8
0
 10
19.1336
 20
-5.30824
 11
19.0377
 21
-4.7988
  0
LINE
  8
0
 10
19.0377
 20
-4.7988
 11
18.9788
 21
-4.21661
  0
LINE
  8
0
 10
18.9788
 20
-4.21661
 11
18.9586
 21
-3.55632
  0
LINE
  8
0
 10
18.9586
 20
-3.55632
 11
18.9586
 21
2.39355
  0
LINE
  8
0
 10
18.9586
 20
2.39355
 11
18.9498
 21
2.48724
  0
LINE
  8
0
 10
18.9498
 20
2.48724
 11
18.9342
 21
2.54807
  0
LINE
  8
0
 10
18.9342
 20
2.54807
 11
18.911
 21
2.60645
  0
LINE
  8
0
 10
18.911
 20
2.60645
 11
18.8808
 21
2.66147
  0
LINE
  8
0
 10
18.8808
 20
2.66147
 11
18.8439
 21
2.71227
  0
LINE
  8
0
 10
18.8439
 20
2.71227
 11
18.8009
 21
2.75804
  0
LINE
  8
0
 10
18.8009
 20
2.75804
 11
18.7525
 21
2.79807
  0
LINE
  8
0
 10
18.7525
 20
2.79807
 11
18.6995
 21
2.83171
  0
LINE
  8
0
 10
18.6995
 20
2.83171
 11
18.6427
 21
2.85844
  0
LINE
  8
0
 10
18.6427
 20
2.85844
 11
18.583
 21
2.87785
  0
LINE
  8
0
 10
18.583
 20
2.87785
 11
18.5213
 21
2.88962
  0
LINE
  8
0
 10
18.5213
 20
2.88962
 11
18.4586
 21
2.89355
  0
LINE
  8
0
 10
18.4586
 20
2.89355
 11
15.6615
 21
2.89355
  0
LINE
  8
0
 10
15.6615
 20
2.89355
 11
15.6615
 21
4.48299
  0
LINE
  8
0
 10
15.6615
 20
4.48299
 11
18.4586
 21
4.48299
  0
LINE
  8
0
 10
18.4586
 20
4.48299
 11
18.5523
 21
4.49184
  0
LINE
  8
0
 10
18.5523
 20
4.49184
 11
18.6131
 21
4.50746
  0
LINE
  8
0
 10
18.6131
 20
4.50746
 11
18.6715
 21
4.53058
  0
LINE
  8
0
 10
18.6715
 20
4.53058
 11
18.7265
 21
4.56082
  0
LINE
  8
0
 10
18.7265
 20
4.56082
 11
18.7773
 21
4.59773
  0
LINE
  8
0
 10
18.7773
 20
4.59773
 11
18.8231
 21
4.64072
  0
LINE
  8
0
 10
18.8231
 20
4.64072
 11
18.8631
 21
4.68909
  0
LINE
  8
0
 10
18.8631
 20
4.68909
 11
18.8968
 21
4.74211
  0
LINE
  8
0
 10
18.8968
 20
4.74211
 11
18.9235
 21
4.79892
  0
LINE
  8
0
 10
18.9235
 20
4.79892
 11
18.9429
 21
4.85864
  0
LINE
  8
0
 10
18.9429
 20
4.85864
 11
18.9547
 21
4.92032
  0
LINE
  8
0
 10
18.9547
 20
4.92032
 11
18.9586
 21
4.98299
  0
LINE
  8
0
 10
18.9586
 20
4.98299
 11
18.9586
 21
8.14955
  0
LINE
  8
0
 10
18.9586
 20
8.14955
 11
21.3363
 21
8.14955
  0
LINE
  8
0
 10
21.3363
 20
8.14955
 11
21.3363
 21
4.98299
  0
LINE
  8
0
 10
21.3363
 20
4.98299
 11
21.3452
 21
4.8893
  0
LINE
  8
0
 10
21.3452
 20
4.8893
 11
21.3608
 21
4.82848
  0
LINE
  8
0
 10
21.3608
 20
4.82848
 11
21.3839
 21
4.7701
  0
LINE
  8
0
 10
21.3839
 20
4.7701
 11
21.4142
 21
4.71507
  0
LINE
  8
0
 10
21.4142
 20
4.71507
 11
21.4511
 21
4.66428
  0
LINE
  8
0
 10
21.4511
 20
4.66428
 11
21.4941
 21
4.6185
  0
LINE
  8
0
 10
21.4941
 20
4.6185
 11
21.5424
 21
4.57848
  0
LINE
  8
0
 10
21.5424
 20
4.57848
 11
21.5955
 21
4.54483
  0
LINE
  8
0
 10
21.5955
 20
4.54483
 11
21.6523
 21
4.5181
  0
LINE
  8
0
 10
21.6523
 20
4.5181
 11
21.712
 21
4.49869
  0
LINE
  8
0
 10
21.712
 20
4.49869
 11
21.7737
 21
4.48692
  0
LINE
  8
0
 10
21.7737
 20
4.48692
 11
21.8363
 21
4.48299
  0
LINE
  8
0
 10
21.8363
 20
4.48299
 11
25.7516
 21
4.48299
  0
LINE
  8
0
 10
25.7516
 20
4.48299
 11
25.7516
 21
2.89355
  0
LINE
  8
0
 10
25.7516
 20
2.89355
 11
21.8363
 21
2.89355
  0
LINE
  8
0
 10
21.8363
 20
2.89355
 11
21.7427
 21
2.8847
  0
LINE
  8
0
 10
21.7427
 20
2.8847
 11
21.6818
 21
2.86908
  0
LINE
  8
0
 10
21.6818
 20
2.86908
 11
21.6235
 21
2.84596
  0
LINE
  8
0
 10
21.6235
 20
2.84596
 11
21.5684
 21
2.81572
  0
LINE
  8
0
 10
21.5684
 20
2.81572
 11
21.5176
 21
2.77881
  0
LINE
  8
0
 10
21.5176
 20
2.77881
 11
21.4719
 21
2.73582
  0
LINE
  8
0
 10
21.4719
 20
2.73582
 11
21.4318
 21
2.68745
  0
LINE
  8
0
 10
21.4318
 20
2.68745
 11
21.3982
 21
2.63443
  0
LINE
  8
0
 10
21.3982
 20
2.63443
 11
21.3715
 21
2.57762
  0
LINE
  8
0
 10
21.3715
 20
2.57762
 11
21.3521
 21
2.5179
  0
LINE
  8
0
 10
21.3521
 20
2.5179
 11
21.3403
 21
2.45622
  0
LINE
  8
0
 10
21.3403
 20
2.45622
 11
21.3363
 21
2.39355
  0
LINE
  8
0
 10
21.3363
 20
2.39355
 11
21.3363
 21
-3.72575
  0
LINE
  8
0
 10
21.3363
 20
-3.72575
 11
21.3367
 21
-3.74384
  0
LINE
  8
0
 10
21.3367
 20
-3.74384
 11
21.3453
 21
-3.98125
  0
LINE
  8
0
 10
21.3453
 20
-3.98125
 11
21.3484
 21
-4.022
  0
LINE
  8
0
 10
21.3484
 20
-4.022
 11
21.3742
 21
-4.23938
  0
LINE
  8
0
 10
21.3742
 20
-4.23938
 11
21.3821
 21
-4.28685
  0
LINE
  8
0
 10
21.3821
 20
-4.28685
 11
21.4251
 21
-4.48419
  0
LINE
  8
0
 10
21.4251
 20
-4.48419
 11
21.4401
 21
-4.53841
  0
LINE
  8
0
 10
21.4401
 20
-4.53841
 11
21.5002
 21
-4.71571
  0
LINE
  8
0
 10
21.5002
 20
-4.71571
 11
21.525
 21
-4.77571
  0
LINE
  8
0
 10
21.525
 20
-4.77571
 11
21.6023
 21
-4.93298
  0
LINE
  8
0
 10
21.6023
 20
-4.93298
 11
21.6391
 21
-4.99591
  0
LINE
  8
0
 10
21.6391
 20
-4.99591
 11
21.7336
 21
-5.13316
  0
LINE
  8
0
 10
21.7336
 20
-5.13316
 11
21.7834
 21
-5.19456
  0
LINE
  8
0
 10
21.7834
 20
-5.19456
 11
21.8951
 21
-5.31177
  0
LINE
  8
0
 10
21.8951
 20
-5.31177
 11
21.9555
 21
-5.36571
  0
LINE
  8
0
 10
21.9555
 20
-5.36571
 11
22.0871
 21
-5.46526
  0
LINE
  8
0
 10
22.0871
 20
-5.46526
 11
22.1493
 21
-5.50543
  0
LINE
  8
0
 10
22.1493
 20
-5.50543
 11
22.3038
 21
-5.58966
  0
LINE
  8
0
 10
22.3038
 20
-5.58966
 11
22.362
 21
-5.61671
  0
LINE
  8
0
 10
22.362
 20
-5.61671
 11
22.5393
 21
-5.68562
  0
LINE
  8
0
 10
22.5393
 20
-5.68562
 11
22.591
 21
-5.70258
  0
LINE
  8
0
 10
22.591
 20
-5.70258
 11
22.7911
 21
-5.75618
  0
LINE
  8
0
 10
22.7911
 20
-5.75618
 11
22.8359
 21
-5.76599
  0
LINE
  8
0
 10
22.8359
 20
-5.76599
 11
23.0588
 21
-5.80428
  0
LINE
  8
0
 10
23.0588
 20
-5.80428
 11
23.0969
 21
-5.80933
  0
LINE
  8
0
 10
23.0969
 20
-5.80933
 11
23.3427
 21
-5.83229
  0
LINE
  8
0
 10
23.3427
 20
-5.83229
 11
23.3749
 21
-5.83426
  0
LINE
  8
0
 10
23.3749
 20
-5.83426
 11
23.6435
 21
-5.84192
  0
LINE
  8
0
 10
23.6435
 20
-5.84192
 11
23.6577
 21
-5.84212
  0
LINE
  8
0
 10
23.6577
 20
-5.84212
 11
25.7516
 21
-5.84212
  0
LINE
  8
0
 10
25.7516
 20
-5.84212
 11
25.7516
 21
-7.43155
  0
LINE
  8
0
 10
25.7516
 20
-7.43155
 11
23.4218
 21
-7.43155
  0
LINE
  8
0
 10
-5.77226
 20
-8.2639
 11
-5.39206
 21
-8.24907
  0
LINE
  8
0
 10
-5.39206
 20
-8.24907
 11
-5.01752
 21
-8.22437
  0
LINE
  8
0
 10
-5.01752
 20
-8.22437
 11
-4.64862
 21
-8.18979
  0
LINE
  8
0
 10
-4.64862
 20
-8.18979
 11
-4.28537
 21
-8.14532
  0
LINE
  8
0
 10
-4.28537
 20
-8.14532
 11
-3.92776
 21
-8.09097
  0
LINE
  8
0
 10
-3.92776
 20
-8.09097
 11
-3.57581
 21
-8.02675
  0
LINE
  8
0
 10
-3.57581
 20
-8.02675
 11
-3.22762
 21
-7.95265
  0
LINE
  8
0
 10
-3.22762
 20
-7.95265
 11
-2.8813
 21
-7.86867
  0
LINE
  8
0
 10
-2.8813
 20
-7.86867
 11
-2.53688
 21
-7.7748
  0
LINE
  8
0
 10
-2.53688
 20
-7.7748
 11
-2.19432
 21
-7.67105
  0
LINE
  8
0
 10
-2.19432
 20
-7.67105
 11
-1.85365
 21
-7.55742
  0
LINE
  8
0
 10
-1.85365
 20
-7.55742
 11
-1.51486
 21
-7.4339
  0
LINE
  8
0
 10
-1.51486
 20
-7.4339
 11
-1.17796
 21
-7.30052
  0
LINE
  8
0
 10
-1.17796
 20
-7.30052
 11
-1.17796
 21
-4.19972
  0
LINE
  8
0
 10
-1.17796
 20
-4.19972
 11
-1.52827
 21
-4.3989
  0
LINE
  8
0
 10
-1.52827
 20
-4.3989
 11
-1.87436
 21
-4.58209
  0
LINE
  8
0
 10
-1.87436
 20
-4.58209
 11
-2.21622
 21
-4.74934
  0
LINE
  8
0
 10
-2.21622
 20
-4.74934
 11
-2.55383
 21
-4.90062
  0
LINE
  8
0
 10
-2.55383
 20
-4.90062
 11
-2.88722
 21
-5.03592
  0
LINE
  8
0
 10
-2.88722
 20
-5.03592
 11
-3.21637
 21
-5.15527
  0
LINE
  8
0
 10
-3.21637
 20
-5.15527
 11
-3.54129
 21
-5.25865
  0
LINE
  8
0
 10
-3.54129
 20
-5.25865
 11
-3.86476
 21
-5.34718
  0
LINE
  8
0
 10
-3.86476
 20
-5.34718
 11
-4.18964
 21
-5.42209
  0
LINE
  8
0
 10
-4.18964
 20
-5.42209
 11
-4.51595
 21
-5.48338
  0
LINE
  8
0
 10
-4.51595
 20
-5.48338
 11
-4.84364
 21
-5.53107
  0
LINE
  8
0
 10
-4.84364
 20
-5.53107
 11
-5.17278
 21
-5.56511
  0
LINE
  8
0
 10
-5.17278
 20
-5.56511
 11
-5.50333
 21
-5.58554
  0
LINE
  8
0
 10
-5.50333
 20
-5.58554
 11
-5.83528
 21
-5.59236
  0
LINE
  8
0
 10
-5.83528
 20
-5.59236
 11
-6.32133
 21
-5.5771
  0
LINE
  8
0
 10
-6.32133
 20
-5.5771
 11
-6.77162
 21
-5.53133
  0
LINE
  8
0
 10
-6.77162
 20
-5.53133
 11
-7.18616
 21
-5.45503
  0
LINE
  8
0
 10
-7.18616
 20
-5.45503
 11
-7.56494
 21
-5.34822
  0
LINE
  8
0
 10
-7.56494
 20
-5.34822
 11
-7.90797
 21
-5.21089
  0
LINE
  8
0
 10
-7.90797
 20
-5.21089
 11
-8.21526
 21
-5.04306
  0
LINE
  8
0
 10
-8.21526
 20
-5.04306
 11
-8.48677
 21
-4.8447
  0
LINE
  8
0
 10
-8.48677
 20
-4.8447
 11
-8.72247
 21
-4.61534
  0
LINE
  8
0
 10
-8.72247
 20
-4.61534
 11
-8.92244
 21
-4.35454
  0
LINE
  8
0
 10
-8.92244
 20
-4.35454
 11
-9.08664
 21
-4.06227
  0
LINE
  8
0
 10
-9.08664
 20
-4.06227
 11
-9.21509
 21
-3.73854
  0
LINE
  8
0
 10
-9.21509
 20
-3.73854
 11
-9.30779
 21
-3.38335
  0
LINE
  8
0
 10
-9.30779
 20
-3.38335
 11
-9.36472
 21
-2.9967
  0
LINE
  8
0
 10
-9.36472
 20
-2.9967
 11
-9.38589
 21
-2.5786
  0
LINE
  8
0
 10
-9.38589
 20
-2.5786
 11
-0.636002
 21
-2.5786
  0
LINE
  8
0
 10
-0.636002
 20
-2.5786
 11
-0.636002
 21
-1.20738
  0
LINE
  8
0
 10
-0.636002
 20
-1.20738
 11
-0.66835
 21
-0.352386
  0
LINE
  8
0
 10
-0.66835
 20
-0.352386
 11
-0.765396
 21
0.445862
  0
LINE
  8
0
 10
-0.765396
 20
0.445862
 11
-0.927139
 21
1.18736
  0
LINE
  8
0
 10
-0.927139
 20
1.18736
 11
-1.15358
 21
1.87212
  0
LINE
  8
0
 10
-1.15358
 20
1.87212
 11
-1.44472
 21
2.50014
  0
LINE
  8
0
 10
-1.44472
 20
2.50014
 11
-1.80055
 21
3.07141
  0
LINE
  8
0
 10
-1.80055
 20
3.07141
 11
-2.22107
 21
3.58594
  0
LINE
  8
0
 10
-2.22107
 20
3.58594
 11
-2.7002
 21
4.0374
  0
LINE
  8
0
 10
-2.7002
 20
4.0374
 11
-3.23178
 21
4.41942
  0
LINE
  8
0
 10
-3.23178
 20
4.41942
 11
-3.81584
 21
4.73198
  0
LINE
  8
0
 10
-3.81584
 20
4.73198
 11
-4.45236
 21
4.97507
  0
LINE
  8
0
 10
-4.45236
 20
4.97507
 11
-5.14136
 21
5.14871
  0
LINE
  8
0
 10
-5.14136
 20
5.14871
 11
-5.88283
 21
5.2529
  0
LINE
  8
0
 10
-5.88283
 20
5.2529
 11
-6.67677
 21
5.28763
  0
LINE
  8
0
 10
-6.67677
 20
5.28763
 11
-7.46588
 21
5.25023
  0
LINE
  8
0
 10
-7.46588
 20
5.25023
 11
-8.20604
 21
5.138
  0
LINE
  8
0
 10
-8.20604
 20
5.138
 11
-8.89726
 21
4.95097
  0
LINE
  8
0
 10
-8.89726
 20
4.95097
 11
-9.53955
 21
4.68912
  0
LINE
  8
0
 10
-9.53955
 20
4.68912
 11
-10.1329
 21
4.35246
  0
LINE
  8
0
 10
-10.1329
 20
4.35246
 11
-10.6773
 21
3.94098
  0
LINE
  8
0
 10
-10.6773
 20
3.94098
 11
-11.1728
 21
3.4547
  0
LINE
  8
0
 10
-11.1728
 20
3.4547
 11
-11.6101
 21
2.90398
  0
LINE
  8
0
 10
-11.6101
 20
2.90398
 11
-11.9802
 21
2.29916
  0
LINE
  8
0
 10
-11.9802
 20
2.29916
 11
-12.283
 21
1.64023
  0
LINE
  8
0
 10
-12.283
 20
1.64023
 11
-12.5185
 21
0.92717
  0
LINE
  8
0
 10
-12.5185
 20
0.92717
 11
-12.6867
 21
0.160004
  0
LINE
  8
0
 10
-12.6867
 20
0.160004
 11
-12.7876
 21
-0.66127
  0
LINE
  8
0
 10
-12.7876
 20
-0.66127
 11
-12.8213
 21
-1.53667
  0
LINE
  8
0
 10
-12.8213
 20
-1.53667
 11
-12.7863
 21
-2.43758
  0
LINE
  8
0
 10
-12.7863
 20
-2.43758
 11
-12.6815
 21
-3.27615
  0
LINE
  8
0
 10
-12.6815
 20
-3.27615
 11
-12.5068
 21
-4.0524
  0
LINE
  8
0
 10
-12.5068
 20
-4.0524
 11
-12.2623
 21
-4.76631
  0
LINE
  8
0
 10
-12.2623
 20
-4.76631
 11
-11.9478
 21
-5.41786
  0
LINE
  8
0
 10
-11.9478
 20
-5.41786
 11
-11.5635
 21
-6.0071
  0
LINE
  8
0
 10
-11.5635
 20
-6.0071
 11
-11.1094
 21
-6.53398
  0
LINE
  8
0
 10
-11.1094
 20
-6.53398
 11
-10.5891
 21
-6.99425
  0
LINE
  8
0
 10
-10.5891
 20
-6.99425
 11
-10.0064
 21
-7.38371
  0
LINE
  8
0
 10
-10.0064
 20
-7.38371
 11
-9.36147
 21
-7.70235
  0
LINE
  8
0
 10
-9.36147
 20
-7.70235
 11
-8.65414
 21
-7.9502
  0
LINE
  8
0
 10
-8.65414
 20
-7.9502
 11
-7.88448
 21
-8.12721
  0
LINE
  8
0
 10
-7.88448
 20
-8.12721
 11
-7.05246
 21
-8.23343
  0
LINE
  8
0
 10
-7.05246
 20
-8.23343
 11
-6.15811
 21
-8.26883
  0
LINE
  8
0
 10
-6.15811
 20
-8.26883
 11
-5.77226
 21
-8.2639
  0
LINE
  8
0
 10
-7.0108
 20
-7.7347
 11
-7.79657
 21
-7.63438
  0
LINE
  8
0
 10
-7.79657
 20
-7.63438
 11
-8.51505
 21
-7.46913
  0
LINE
  8
0
 10
-8.51505
 20
-7.46913
 11
-9.16733
 21
-7.24057
  0
LINE
  8
0
 10
-9.16733
 20
-7.24057
 11
-9.75571
 21
-6.94991
  0
LINE
  8
0
 10
-9.75571
 20
-6.94991
 11
-10.2831
 21
-6.59735
  0
LINE
  8
0
 10
-10.2831
 20
-6.59735
 11
-10.7527
 21
-6.18196
  0
LINE
  8
0
 10
-10.7527
 20
-6.18196
 11
-11.1631
 21
-5.70589
  0
LINE
  8
0
 10
-11.1631
 20
-5.70589
 11
-11.5115
 21
-5.17159
  0
LINE
  8
0
 10
-11.5115
 20
-5.17159
 11
-11.7989
 21
-4.57607
  0
LINE
  8
0
 10
-11.7989
 20
-4.57607
 11
-12.025
 21
-3.91611
  0
LINE
  8
0
 10
-12.025
 20
-3.91611
 11
-12.1884
 21
-3.18999
  0
LINE
  8
0
 10
-12.1884
 20
-3.18999
 11
-12.2875
 21
-2.39674
  0
LINE
  8
0
 10
-12.2875
 20
-2.39674
 11
-12.3209
 21
-1.53668
  0
LINE
  8
0
 10
-12.3209
 20
-1.53668
 11
-12.2888
 21
-0.701355
  0
LINE
  8
0
 10
-12.2888
 20
-0.701355
 11
-12.1933
 21
0.0756836
  0
LINE
  8
0
 10
-12.1933
 20
0.0756836
 11
-12.0356
 21
0.794922
  0
LINE
  8
0
 10
-12.0356
 20
0.794922
 11
-11.817
 21
1.45685
  0
LINE
  8
0
 10
-11.817
 20
1.45685
 11
-11.5382
 21
2.06349
  0
LINE
  8
0
 10
-11.5382
 20
2.06349
 11
-11.1996
 21
2.61694
  0
LINE
  8
0
 10
-11.1996
 20
2.61694
 11
-10.8005
 21
3.11951
  0
LINE
  8
0
 10
-10.8005
 20
3.11951
 11
-10.3501
 21
3.56157
  0
LINE
  8
0
 10
-10.3501
 20
3.56157
 11
-9.85762
 21
3.93376
  0
LINE
  8
0
 10
-9.85762
 20
3.93376
 11
-9.32088
 21
4.23831
  0
LINE
  8
0
 10
-9.32088
 20
4.23831
 11
-8.73701
 21
4.47635
  0
LINE
  8
0
 10
-8.73701
 20
4.47635
 11
-8.10294
 21
4.64792
  0
LINE
  8
0
 10
-8.10294
 20
4.64792
 11
-7.41637
 21
4.75201
  0
LINE
  8
0
 10
-7.41637
 20
4.75201
 11
-6.67596
 21
4.78711
  0
LINE
  8
0
 10
-6.67596
 20
4.78711
 11
-5.92857
 21
4.75441
  0
LINE
  8
0
 10
-5.92857
 20
4.75441
 11
-5.23749
 21
4.6573
  0
LINE
  8
0
 10
-5.23749
 20
4.6573
 11
-4.60329
 21
4.49748
  0
LINE
  8
0
 10
-4.60329
 20
4.49748
 11
-4.02376
 21
4.27615
  0
LINE
  8
0
 10
-4.02376
 20
4.27615
 11
-3.49678
 21
3.99414
  0
LINE
  8
0
 10
-3.49678
 20
3.99414
 11
-3.01898
 21
3.65077
  0
LINE
  8
0
 10
-3.01898
 20
3.65077
 11
-2.58759
 21
3.24428
  0
LINE
  8
0
 10
-2.58759
 20
3.24428
 11
-2.20805
 21
2.77991
  0
LINE
  8
0
 10
-2.20805
 20
2.77991
 11
-1.88539
 21
2.26189
  0
LINE
  8
0
 10
-1.88539
 20
2.26189
 11
-1.61926
 21
1.68784
  0
LINE
  8
0
 10
-1.61926
 20
1.68784
 11
-1.41006
 21
1.05521
  0
LINE
  8
0
 10
-1.41006
 20
1.05521
 11
-1.2589
 21
0.362198
  0
LINE
  8
0
 10
-1.2589
 20
0.362198
 11
-1.16722
 21
-0.391922
  0
LINE
  8
0
 10
-1.16722
 20
-0.391922
 11
-1.136
 21
-1.21701
  0
LINE
  8
0
 10
-1.136
 20
-1.21701
 11
-1.136
 21
-2.0786
  0
LINE
  8
0
 10
-1.136
 20
-2.0786
 11
-9.38589
 21
-2.0786
  0
LINE
  8
0
 10
-9.38589
 20
-2.0786
 11
-9.44249
 21
-2.08182
  0
LINE
  8
0
 10
-9.44249
 20
-2.08182
 11
-9.50432
 21
-2.09282
  0
LINE
  8
0
 10
-9.50432
 20
-2.09282
 11
-9.56427
 21
-2.1115
  0
LINE
  8
0
 10
-9.56427
 20
-2.1115
 11
-9.6214
 21
-2.13753
  0
LINE
  8
0
 10
-9.6214
 20
-2.13753
 11
-9.67482
 21
-2.17053
  0
LINE
  8
0
 10
-9.67482
 20
-2.17053
 11
-9.72369
 21
-2.20996
  0
LINE
  8
0
 10
-9.72369
 20
-2.20996
 11
-9.76723
 21
-2.2552
  0
LINE
  8
0
 10
-9.76723
 20
-2.2552
 11
-9.80475
 21
-2.30554
  0
LINE
  8
0
 10
-9.80475
 20
-2.30554
 11
-9.83568
 21
-2.3602
  0
LINE
  8
0
 10
-9.83568
 20
-2.3602
 11
-9.8595
 21
-2.41829
  0
LINE
  8
0
 10
-9.8595
 20
-2.41829
 11
-9.87585
 21
-2.47891
  0
LINE
  8
0
 10
-9.87585
 20
-2.47891
 11
-9.88449
 21
-2.54111
  0
LINE
  8
0
 10
-9.88449
 20
-2.54111
 11
-9.88525
 21
-2.6039
  0
LINE
  8
0
 10
-9.88525
 20
-2.6039
 11
-9.86407
 21
-3.022
  0
LINE
  8
0
 10
-9.86407
 20
-3.022
 11
-9.85938
 21
-3.06953
  0
LINE
  8
0
 10
-9.85938
 20
-3.06953
 11
-9.80244
 21
-3.45618
  0
LINE
  8
0
 10
-9.80244
 20
-3.45618
 11
-9.79158
 21
-3.50961
  0
LINE
  8
0
 10
-9.79158
 20
-3.50961
 11
-9.69888
 21
-3.86481
  0
LINE
  8
0
 10
-9.69888
 20
-3.86481
 11
-9.67984
 21
-3.92294
  0
LINE
  8
0
 10
-9.67984
 20
-3.92294
 11
-9.55139
 21
-4.24667
  0
LINE
  8
0
 10
-9.55139
 20
-4.24667
 11
-9.52255
 21
-4.30717
  0
LINE
  8
0
 10
-9.52255
 20
-4.30717
 11
-9.35835
 21
-4.59944
  0
LINE
  8
0
 10
-9.35835
 20
-4.59944
 11
-9.31923
 21
-4.65877
  0
LINE
  8
0
 10
-9.31923
 20
-4.65877
 11
-9.11926
 21
-4.91957
  0
LINE
  8
0
 10
-9.11926
 20
-4.91957
 11
-9.07117
 21
-4.97369
  0
LINE
  8
0
 10
-9.07117
 20
-4.97369
 11
-8.83546
 21
-5.20305
  0
LINE
  8
0
 10
-8.83546
 20
-5.20305
 11
-8.78172
 21
-5.24843
  0
LINE
  8
0
 10
-8.78172
 20
-5.24843
 11
-8.51021
 21
-5.44679
  0
LINE
  8
0
 10
-8.51021
 20
-5.44679
 11
-8.45493
 21
-5.48187
  0
LINE
  8
0
 10
-8.45493
 20
-5.48187
 11
-8.14764
 21
-5.6497
  0
LINE
  8
0
 10
-8.14764
 20
-5.6497
 11
-8.09381
 21
-5.67508
  0
LINE
  8
0
 10
-8.09381
 20
-5.67508
 11
-7.75078
 21
-5.81241
  0
LINE
  8
0
 10
-7.75078
 20
-5.81241
 11
-7.70064
 21
-5.82945
  0
LINE
  8
0
 10
-7.70064
 20
-5.82945
 11
-7.32185
 21
-5.93626
  0
LINE
  8
0
 10
-7.32185
 20
-5.93626
 11
-7.27666
 21
-5.94678
  0
LINE
  8
0
 10
-7.27666
 20
-5.94678
 11
-6.86212
 21
-6.02307
  0
LINE
  8
0
 10
-6.86212
 20
-6.02307
 11
-6.82219
 21
-6.02876
  0
LINE
  8
0
 10
-6.82219
 20
-6.02876
 11
-6.3719
 21
-6.07454
  0
LINE
  8
0
 10
-6.3719
 20
-6.07454
 11
-6.33702
 21
-6.07686
  0
LINE
  8
0
 10
-6.33702
 20
-6.07686
 11
-5.85097
 21
-6.09212
  0
LINE
  8
0
 10
-5.85097
 20
-6.09212
 11
-5.82501
 21
-6.09225
  0
LINE
  8
0
 10
-5.82501
 20
-6.09225
 11
-5.49306
 21
-6.08543
  0
LINE
  8
0
 10
-5.49306
 20
-6.08543
 11
-5.47247
 21
-6.08459
  0
LINE
  8
0
 10
-5.47247
 20
-6.08459
 11
-5.14192
 21
-6.06416
  0
LINE
  8
0
 10
-5.14192
 20
-6.06416
 11
-5.12134
 21
-6.06245
  0
LINE
  8
0
 10
-5.12134
 20
-6.06245
 11
-4.79221
 21
-6.02841
  0
LINE
  8
0
 10
-4.79221
 20
-6.02841
 11
-4.77165
 21
-6.02586
  0
LINE
  8
0
 10
-4.77165
 20
-6.02586
 11
-4.44395
 21
-5.97818
  0
LINE
  8
0
 10
-4.44395
 20
-5.97818
 11
-4.42365
 21
-5.97479
  0
LINE
  8
0
 10
-4.42365
 20
-5.97479
 11
-4.09734
 21
-5.9135
  0
LINE
  8
0
 10
-4.09734
 20
-5.9135
 11
-4.0773
 21
-5.9093
  0
LINE
  8
0
 10
-4.0773
 20
-5.9093
 11
-3.75243
 21
-5.8344
  0
LINE
  8
0
 10
-3.75243
 20
-5.8344
 11
-3.73277
 21
-5.82945
  0
LINE
  8
0
 10
-3.73277
 20
-5.82945
 11
-3.4093
 21
-5.74092
  0
LINE
  8
0
 10
-3.4093
 20
-5.74092
 11
-3.38969
 21
-5.73512
  0
LINE
  8
0
 10
-3.38969
 20
-5.73512
 11
-3.06477
 21
-5.63174
  0
LINE
  8
0
 10
-3.06477
 20
-5.63174
 11
-3.04593
 21
-5.62532
  0
LINE
  8
0
 10
-3.04593
 20
-5.62532
 11
-2.71678
 21
-5.50597
  0
LINE
  8
0
 10
-2.71678
 20
-5.50597
 11
-2.6992
 21
-5.49922
  0
LINE
  8
0
 10
-2.6992
 20
-5.49922
 11
-2.36581
 21
-5.36392
  0
LINE
  8
0
 10
-2.36581
 20
-5.36392
 11
-2.34938
 21
-5.3569
  0
LINE
  8
0
 10
-2.34938
 20
-5.3569
 11
-2.01176
 21
-5.20563
  0
LINE
  8
0
 10
-2.01176
 20
-5.20563
 11
-1.99649
 21
-5.19847
  0
LINE
  8
0
 10
-1.99649
 20
-5.19847
 11
-1.67796
 21
-5.04263
  0
LINE
  8
0
 10
-1.67796
 20
-5.04263
 11
-1.67796
 21
-6.96071
  0
LINE
  8
0
 10
-1.67796
 20
-6.96071
 11
-1.69235
 21
-6.96642
  0
LINE
  8
0
 10
-1.69235
 20
-6.96642
 11
-2.01878
 21
-7.08542
  0
LINE
  8
0
 10
-2.01878
 20
-7.08542
 11
-2.34581
 21
-7.1945
  0
LINE
  8
0
 10
-2.34581
 20
-7.1945
 11
-2.67482
 21
-7.29414
  0
LINE
  8
0
 10
-2.67482
 20
-7.29414
 11
-3.00609
 21
-7.38443
  0
LINE
  8
0
 10
-3.00609
 20
-7.38443
 11
-3.33887
 21
-7.46513
  0
LINE
  8
0
 10
-3.33887
 20
-7.46513
 11
-3.67241
 21
-7.53612
  0
LINE
  8
0
 10
-3.67241
 20
-7.53612
 11
-4.01031
 21
-7.59778
  0
LINE
  8
0
 10
-4.01031
 20
-7.59778
 11
-4.3535
 21
-7.64993
  0
LINE
  8
0
 10
-4.3535
 20
-7.64993
 11
-4.70219
 21
-7.69261
  0
LINE
  8
0
 10
-4.70219
 20
-7.69261
 11
-5.05727
 21
-7.72591
  0
LINE
  8
0
 10
-5.05727
 20
-7.72591
 11
-5.41837
 21
-7.74971
  0
LINE
  8
0
 10
-5.41837
 20
-7.74971
 11
-5.78532
 21
-7.76404
  0
LINE
  8
0
 10
-5.78532
 20
-7.76404
 11
-6.15143
 21
-7.76871
  0
LINE
  8
0
 10
-6.15143
 20
-7.76871
 11
-7.0108
 21
-7.7347
  0
LINE
  8
0
 10
-4.03577
 20
-0.543549
 11
-3.97894
 21
-0.540176
  0
LINE
  8
0
 10
-3.97894
 20
-0.540176
 11
-3.91714
 21
-0.529007
  0
LINE
  8
0
 10
-3.91714
 20
-0.529007
 11
-3.85725
 21
-0.510178
  0
LINE
  8
0
 10
-3.85725
 20
-0.510178
 11
-3.80019
 21
-0.483994
  0
LINE
  8
0
 10
-3.80019
 20
-0.483994
 11
-3.74684
 21
-0.450851
  0
LINE
  8
0
 10
-3.74684
 20
-0.450851
 11
-3.69809
 21
-0.411301
  0
LINE
  8
0
 10
-3.69809
 20
-0.411301
 11
-3.65466
 21
-0.365936
  0
LINE
  8
0
 10
-3.65466
 20
-0.365936
 11
-3.61728
 21
-0.315491
  0
LINE
  8
0
 10
-3.61728
 20
-0.315491
 11
-3.5865
 21
-0.260757
  0
LINE
  8
0
 10
-3.5865
 20
-0.260757
 11
-3.56282
 21
-0.202606
  0
LINE
  8
0
 10
-3.56282
 20
-0.202606
 11
-3.54663
 21
-0.141937
  0
LINE
  8
0
 10
-3.54663
 20
-0.141937
 11
-3.53816
 21
-0.0797272
  0
LINE
  8
0
 10
-3.53816
 20
-0.0797272
 11
-3.53755
 21
-0.0169373
  0
LINE
  8
0
 10
-3.53755
 20
-0.0169373
 11
-3.55721
 21
0.351807
  0
LINE
  8
0
 10
-3.55721
 20
0.351807
 11
-3.56091
 21
0.391495
  0
LINE
  8
0
 10
-3.56091
 20
0.391495
 11
-3.60669
 21
0.733688
  0
LINE
  8
0
 10
-3.60669
 20
0.733688
 11
-3.61476
 21
0.778427
  0
LINE
  8
0
 10
-3.61476
 20
0.778427
 11
-3.68665
 21
1.09404
  0
LINE
  8
0
 10
-3.68665
 20
1.09404
 11
-3.70064
 21
1.14355
  0
LINE
  8
0
 10
-3.70064
 20
1.14355
 11
-3.79863
 21
1.43257
  0
LINE
  8
0
 10
-3.79863
 20
1.43257
 11
-3.82014
 21
1.48575
  0
LINE
  8
0
 10
-3.82014
 20
1.48575
 11
-3.94424
 21
1.7482
  0
LINE
  8
0
 10
-3.94424
 20
1.7482
 11
-3.97453
 21
1.80307
  0
LINE
  8
0
 10
-3.97453
 20
1.80307
 11
-4.12476
 21
2.03893
  0
LINE
  8
0
 10
-4.12476
 20
2.03893
 11
-4.16409
 21
2.09248
  0
LINE
  8
0
 10
-4.16409
 20
2.09248
 11
-4.34041
 21
2.30176
  0
LINE
  8
0
 10
-4.34041
 20
2.30176
 11
-4.38831
 21
2.35124
  0
LINE
  8
0
 10
-4.38831
 20
2.35124
 11
-4.59052
 21
2.53323
  0
LINE
  8
0
 10
-4.59052
 20
2.53323
 11
-4.64502
 21
2.57585
  0
LINE
  8
0
 10
-4.64502
 20
2.57585
 11
-4.87286
 21
2.72984
  0
LINE
  8
0
 10
-4.87286
 20
2.72984
 11
-4.93033
 21
2.76334
  0
LINE
  8
0
 10
-4.93033
 20
2.76334
 11
-5.18382
 21
2.88931
  0
LINE
  8
0
 10
-5.18382
 20
2.88931
 11
-5.24071
 21
2.91333
  0
LINE
  8
0
 10
-5.24071
 20
2.91333
 11
-5.51985
 21
3.01134
  0
LINE
  8
0
 10
-5.51985
 20
3.01134
 11
-5.57358
 21
3.02689
  0
LINE
  8
0
 10
-5.57358
 20
3.02689
 11
-5.87836
 21
3.09688
  0
LINE
  8
0
 10
-5.87836
 20
3.09688
 11
-5.92723
 21
3.10558
  0
LINE
  8
0
 10
-5.92723
 20
3.10558
 11
-6.25766
 21
3.14757
  0
LINE
  8
0
 10
-6.25766
 20
3.14757
 11
-6.30106
 21
3.15117
  0
LINE
  8
0
 10
-6.30106
 20
3.15117
 11
-6.65714
 21
3.16516
  0
LINE
  8
0
 10
-6.65714
 20
3.16516
 11
-6.69914
 21
3.16504
  0
LINE
  8
0
 10
-6.69914
 20
3.16504
 11
-7.02217
 21
3.15057
  0
LINE
  8
0
 10
-7.02217
 20
3.15057
 11
-7.07054
 21
3.14604
  0
LINE
  8
0
 10
-7.07054
 20
3.14604
 11
-7.37427
 21
3.10263
  0
LINE
  8
0
 10
-7.37427
 20
3.10263
 11
-7.42679
 21
3.09224
  0
LINE
  8
0
 10
-7.42679
 20
3.09224
 11
-7.71123
 21
3.01988
  0
LINE
  8
0
 10
-7.71123
 20
3.01988
 11
-7.76639
 21
3.0024
  0
LINE
  8
0
 10
-7.76639
 20
3.0024
 11
-8.03154
 21
2.90111
  0
LINE
  8
0
 10
-8.03154
 20
2.90111
 11
-8.08719
 21
2.87585
  0
LINE
  8
0
 10
-8.08719
 20
2.87585
 11
-8.33305
 21
2.74561
  0
LINE
  8
0
 10
-8.33305
 20
2.74561
 11
-8.3864
 21
2.71291
  0
LINE
  8
0
 10
-8.3864
 20
2.71291
 11
-8.61298
 21
2.55374
  0
LINE
  8
0
 10
-8.61298
 20
2.55374
 11
-8.66159
 21
2.51485
  0
LINE
  8
0
 10
-8.66159
 20
2.51485
 11
-8.86887
 21
2.32672
  0
LINE
  8
0
 10
-8.86887
 20
2.32672
 11
-8.91061
 21
2.28403
  0
LINE
  8
0
 10
-8.91061
 20
2.28403
 11
-9.09673
 21
2.06937
  0
LINE
  8
0
 10
-9.09673
 20
2.06937
 11
-9.13194
 21
2.02367
  0
LINE
  8
0
 10
-9.13194
 20
2.02367
 11
-9.29498
 21
1.78476
  0
LINE
  8
0
 10
-9.29498
 20
1.78476
 11
-9.32339
 21
1.73776
  0
LINE
  8
0
 10
-9.32339
 20
1.73776
 11
-9.46339
 21
1.47462
  0
LINE
  8
0
 10
-9.46339
 20
1.47462
 11
-9.48511
 21
1.42824
  0
LINE
  8
0
 10
-9.48511
 20
1.42824
 11
-9.60205
 21
1.14087
  0
LINE
  8
0
 10
-9.60205
 20
1.14087
 11
-9.61768
 21
1.09663
  0
LINE
  8
0
 10
-9.61768
 20
1.09663
 11
-9.71155
 21
0.785034
  0
LINE
  8
0
 10
-9.71155
 20
0.785034
 11
-9.72205
 21
0.743958
  0
LINE
  8
0
 10
-9.72205
 20
0.743958
 11
-9.79286
 21
0.408096
  0
LINE
  8
0
 10
-9.79286
 20
0.408096
 11
-9.79927
 21
0.370697
  0
LINE
  8
0
 10
-9.79927
 20
0.370697
 11
-9.84703
 21
0.0106354
  0
LINE
  8
0
 10
-9.84703
 20
0.0106354
 11
-9.85046
 21
-0.0248108
  0
LINE
  8
0
 10
-9.85046
 20
-0.0248108
 11
-9.85033
 21
-0.0876007
  0
LINE
  8
0
 10
-9.85033
 20
-0.0876007
 11
-9.84232
 21
-0.149872
  0
LINE
  8
0
 10
-9.84232
 20
-0.149872
 11
-9.82657
 21
-0.210663
  0
LINE
  8
0
 10
-9.82657
 20
-0.210663
 11
-9.80333
 21
-0.268982
  0
LINE
  8
0
 10
-9.80333
 20
-0.268982
 11
-9.77296
 21
-0.323944
  0
LINE
  8
0
 10
-9.77296
 20
-0.323944
 11
-9.73595
 21
-0.374664
  0
LINE
  8
0
 10
-9.73595
 20
-0.374664
 11
-9.69286
 21
-0.420349
  0
LINE
  8
0
 10
-9.69286
 20
-0.420349
 11
-9.64439
 21
-0.460266
  0
LINE
  8
0
 10
-9.64439
 20
-0.460266
 11
-9.59131
 21
-0.49379
  0
LINE
  8
0
 10
-9.59131
 20
-0.49379
 11
-9.53442
 21
-0.520401
  0
LINE
  8
0
 10
-9.53442
 20
-0.520401
 11
-9.47467
 21
-0.539673
  0
LINE
  8
0
 10
-9.47467
 20
-0.539673
 11
-9.41296
 21
-0.5513
  0
LINE
  8
0
 10
-9.41296
 20
-0.5513
 11
-9.3503
 21
-0.555115
  0
LINE
  8
0
 10
-9.3503
 20
-0.555115
 11
-4.03577
 21
-0.543549
  0
LINE
  8
0
 10
-9.30362
 20
0.304947
 11
-9.2328
 21
0.640808
  0
LINE
  8
0
 10
-9.2328
 20
0.640808
 11
-9.13893
 21
0.952408
  0
LINE
  8
0
 10
-9.13893
 20
0.952408
 11
-9.02199
 21
1.23978
  0
LINE
  8
0
 10
-9.02199
 20
1.23978
 11
-8.88199
 21
1.50291
  0
LINE
  8
0
 10
-8.88199
 20
1.50291
 11
-8.71895
 21
1.74182
  0
LINE
  8
0
 10
-8.71895
 20
1.74182
 11
-8.53284
 21
1.95648
  0
LINE
  8
0
 10
-8.53284
 20
1.95648
 11
-8.32556
 21
2.14461
  0
LINE
  8
0
 10
-8.32556
 20
2.14461
 11
-8.09898
 21
2.30377
  0
LINE
  8
0
 10
-8.09898
 20
2.30377
 11
-7.85312
 21
2.43402
  0
LINE
  8
0
 10
-7.85312
 20
2.43402
 11
-7.58797
 21
2.53531
  0
LINE
  8
0
 10
-7.58797
 20
2.53531
 11
-7.30353
 21
2.60767
  0
LINE
  8
0
 10
-7.30353
 20
2.60767
 11
-6.9998
 21
2.65108
  0
LINE
  8
0
 10
-6.9998
 20
2.65108
 11
-6.67677
 21
2.66554
  0
LINE
  8
0
 10
-6.67677
 20
2.66554
 11
-6.32069
 21
2.65155
  0
LINE
  8
0
 10
-6.32069
 20
2.65155
 11
-5.99026
 21
2.60956
  0
LINE
  8
0
 10
-5.99026
 20
2.60956
 11
-5.68549
 21
2.53957
  0
LINE
  8
0
 10
-5.68549
 20
2.53957
 11
-5.40634
 21
2.44156
  0
LINE
  8
0
 10
-5.40634
 20
2.44156
 11
-5.15285
 21
2.31558
  0
LINE
  8
0
 10
-5.15285
 20
2.31558
 11
-4.925
 21
2.16159
  0
LINE
  8
0
 10
-4.925
 20
2.16159
 11
-4.72279
 21
1.9796
  0
LINE
  8
0
 10
-4.72279
 20
1.9796
 11
-4.54648
 21
1.77032
  0
LINE
  8
0
 10
-4.54648
 20
1.77032
 11
-4.39626
 21
1.53447
  0
LINE
  8
0
 10
-4.39626
 20
1.53447
 11
-4.27216
 21
1.27202
  0
LINE
  8
0
 10
-4.27216
 20
1.27202
 11
-4.17416
 21
0.983002
  0
LINE
  8
0
 10
-4.17416
 20
0.983002
 11
-4.10228
 21
0.667389
  0
LINE
  8
0
 10
-4.10228
 20
0.667389
 11
-4.0565
 21
0.325195
  0
LINE
  8
0
 10
-4.0565
 20
0.325195
 11
-4.03685
 21
-0.0435486
  0
LINE
  8
0
 10
-4.03685
 20
-0.0435486
 11
-9.35138
 21
-0.0551147
  0
LINE
  8
0
 10
-9.35138
 20
-0.0551147
 11
-9.30362
 21
0.304947
  0
LINE
  8
0
 10
7.77919
 20
-8.24849
 11
8.44934
 21
-8.18745
  0
LINE
  8
0
 10
8.44934
 20
-8.18745
 11
9.06563
 21
-8.08574
  0
LINE
  8
0
 10
9.06563
 20
-8.08574
 11
9.62804
 21
-7.94333
  0
LINE
  8
0
 10
9.62804
 20
-7.94333
 11
10.1366
 21
-7.76022
  0
LINE
  8
0
 10
10.1366
 20
-7.76022
 11
10.5912
 21
-7.53644
  0
LINE
  8
0
 10
10.5912
 20
-7.53644
 11
10.992
 21
-7.27196
  0
LINE
  8
0
 10
10.992
 20
-7.27196
 11
11.3392
 21
-6.96678
  0
LINE
  8
0
 10
11.3392
 20
-6.96678
 11
11.6329
 21
-6.62091
  0
LINE
  8
0
 10
11.6329
 20
-6.62091
 11
11.8732
 21
-6.23436
  0
LINE
  8
0
 10
11.8732
 20
-6.23436
 11
12.0602
 21
-5.8071
  0
LINE
  8
0
 10
12.0602
 20
-5.8071
 11
12.1937
 21
-5.33914
  0
LINE
  8
0
 10
12.1937
 20
-5.33914
 11
12.2738
 21
-4.83049
  0
LINE
  8
0
 10
12.2738
 20
-4.83049
 11
12.3005
 21
-4.28114
  0
LINE
  8
0
 10
12.3005
 20
-4.28114
 11
12.283
 21
-3.82098
  0
LINE
  8
0
 10
12.283
 20
-3.82098
 11
12.2304
 21
-3.38882
  0
LINE
  8
0
 10
12.2304
 20
-3.38882
 11
12.1428
 21
-2.98463
  0
LINE
  8
0
 10
12.1428
 20
-2.98463
 11
12.0201
 21
-2.60846
  0
LINE
  8
0
 10
12.0201
 20
-2.60846
 11
11.8623
 21
-2.26025
  0
LINE
  8
0
 10
11.8623
 20
-2.26025
 11
11.6695
 21
-1.94006
  0
LINE
  8
0
 10
11.6695
 20
-1.94006
 11
11.4417
 21
-1.64784
  0
LINE
  8
0
 10
11.4417
 20
-1.64784
 11
11.1762
 21
-1.38052
  0
LINE
  8
0
 10
11.1762
 20
-1.38052
 11
10.8704
 21
-1.13507
  0
LINE
  8
0
 10
10.8704
 20
-1.13507
 11
10.5245
 21
-0.911499
  0
LINE
  8
0
 10
10.5245
 20
-0.911499
 11
10.1383
 21
-0.709808
  0
LINE
  8
0
 10
10.1383
 20
-0.709808
 11
9.71187
 21
-0.529984
  0
LINE
  8
0
 10
9.71187
 20
-0.529984
 11
9.24522
 21
-0.372055
  0
LINE
  8
0
 10
9.24522
 20
-0.372055
 11
8.73833
 21
-0.235992
  0
LINE
  8
0
 10
8.73833
 20
-0.235992
 11
7.77002
 21
-0.00531006
  0
LINE
  8
0
 10
7.77002
 20
-0.00531006
 11
7.64319
 21
0.0291901
  0
LINE
  8
0
 10
7.64319
 20
0.0291901
 11
6.98868
 21
0.200806
  0
LINE
  8
0
 10
6.98868
 20
0.200806
 11
6.43484
 21
0.386536
  0
LINE
  8
0
 10
6.43484
 20
0.386536
 11
5.98172
 21
0.58638
  0
LINE
  8
0
 10
5.98172
 20
0.58638
 11
5.62929
 21
0.800339
  0
LINE
  8
0
 10
5.62929
 20
0.800339
 11
5.37755
 21
1.02841
  0
LINE
  8
0
 10
5.37755
 20
1.02841
 11
5.2265
 21
1.2706
  0
LINE
  8
0
 10
5.2265
 20
1.2706
 11
5.17615
 21
1.52689
  0
LINE
  8
0
 10
5.17615
 20
1.52689
 11
5.18791
 21
1.70476
  0
LINE
  8
0
 10
5.18791
 20
1.70476
 11
5.22319
 21
1.86967
  0
LINE
  8
0
 10
5.22319
 20
1.86967
 11
5.282
 21
2.02167
  0
LINE
  8
0
 10
5.282
 20
2.02167
 11
5.36433
 21
2.16074
  0
LINE
  8
0
 10
5.36433
 20
2.16074
 11
5.47018
 21
2.28687
  0
LINE
  8
0
 10
5.47018
 20
2.28687
 11
5.59956
 21
2.40005
  0
LINE
  8
0
 10
5.59956
 20
2.40005
 11
5.75246
 21
2.50031
  0
LINE
  8
0
 10
5.75246
 20
2.50031
 11
5.92845
 21
2.58745
  0
LINE
  8
0
 10
5.92845
 20
2.58745
 11
6.12703
 21
2.66118
  0
LINE
  8
0
 10
6.12703
 20
2.66118
 11
6.34821
 21
2.7215
  0
LINE
  8
0
 10
6.34821
 20
2.7215
 11
6.59196
 21
2.76842
  0
LINE
  8
0
 10
6.59196
 20
2.76842
 11
6.85831
 21
2.80194
  0
LINE
  8
0
 10
6.85831
 20
2.80194
 11
7.14723
 21
2.82205
  0
LINE
  8
0
 10
7.14723
 20
2.82205
 11
7.45874
 21
2.82875
  0
LINE
  8
0
 10
7.45874
 20
2.82875
 11
7.74844
 21
2.82253
  0
LINE
  8
0
 10
7.74844
 20
2.82253
 11
8.03792
 21
2.80386
  0
LINE
  8
0
 10
8.03792
 20
2.80386
 11
8.32716
 21
2.77277
  0
LINE
  8
0
 10
8.32716
 20
2.77277
 11
8.61617
 21
2.72922
  0
LINE
  8
0
 10
8.61617
 20
2.72922
 11
8.90492
 21
2.67323
  0
LINE
  8
0
 10
8.90492
 20
2.67323
 11
9.19345
 21
2.60481
  0
LINE
  8
0
 10
9.19345
 20
2.60481
 11
9.48174
 21
2.52394
  0
LINE
  8
0
 10
9.48174
 20
2.52394
 11
9.76843
 21
2.43086
  0
LINE
  8
0
 10
9.76843
 20
2.43086
 11
10.0521
 21
2.32582
  0
LINE
  8
0
 10
10.0521
 20
2.32582
 11
10.3326
 21
2.20882
  0
LINE
  8
0
 10
10.3326
 20
2.20882
 11
10.6102
 21
2.07983
  0
LINE
  8
0
 10
10.6102
 20
2.07983
 11
10.8846
 21
1.93887
  0
LINE
  8
0
 10
10.8846
 20
1.93887
 11
11.156
 21
1.78596
  0
LINE
  8
0
 10
11.156
 20
1.78596
 11
11.4243
 21
1.62106
  0
LINE
  8
0
 10
11.4243
 20
1.62106
 11
11.4243
 21
4.56955
  0
LINE
  8
0
 10
11.4243
 20
4.56955
 11
11.1299
 21
4.66847
  0
LINE
  8
0
 10
11.1299
 20
4.66847
 11
10.8329
 21
4.76006
  0
LINE
  8
0
 10
10.8329
 20
4.76006
 11
10.5333
 21
4.84433
  0
LINE
  8
0
 10
10.5333
 20
4.84433
 11
10.2311
 21
4.92126
  0
LINE
  8
0
 10
10.2311
 20
4.92126
 11
9.92625
 21
4.99088
  0
LINE
  8
0
 10
9.92625
 20
4.99088
 11
9.61885
 21
5.05316
  0
LINE
  8
0
 10
9.61885
 20
5.05316
 11
9.30885
 21
5.10811
  0
LINE
  8
0
 10
9.30885
 20
5.10811
 11
8.99748
 21
5.15573
  0
LINE
  8
0
 10
8.99748
 20
5.15573
 11
8.68588
 21
5.19604
  0
LINE
  8
0
 10
8.68588
 20
5.19604
 11
8.37405
 21
5.229
  0
LINE
  8
0
 10
8.37405
 20
5.229
 11
8.06198
 21
5.25465
  0
LINE
  8
0
 10
8.06198
 20
5.25465
 11
7.74968
 21
5.27298
  0
LINE
  8
0
 10
7.74968
 20
5.27298
 11
7.43713
 21
5.28397
  0
LINE
  8
0
 10
7.43713
 20
5.28397
 11
7.12436
 21
5.28763
  0
LINE
  8
0
 10
7.12436
 20
5.28763
 11
6.44844
 21
5.26645
  0
LINE
  8
0
 10
6.44844
 20
5.26645
 11
5.81723
 21
5.2029
  0
LINE
  8
0
 10
5.81723
 20
5.2029
 11
5.23071
 21
5.09697
  0
LINE
  8
0
 10
5.23071
 20
5.09697
 11
4.6889
 21
4.94868
  0
LINE
  8
0
 10
4.6889
 20
4.94868
 11
4.19179
 21
4.75803
  0
LINE
  8
0
 10
4.19179
 20
4.75803
 11
3.73936
 21
4.52501
  0
LINE
  8
0
 10
3.73936
 20
4.52501
 11
3.33165
 21
4.2496
  0
LINE
  8
0
 10
3.33165
 20
4.2496
 11
2.97382
 21
3.93613
  0
LINE
  8
0
 10
2.97382
 20
3.93613
 11
2.67102
 21
3.58876
  0
LINE
  8
0
 10
2.67102
 20
3.58876
 11
2.42329
 21
3.20749
  0
LINE
  8
0
 10
2.42329
 20
3.20749
 11
2.23061
 21
2.79233
  0
LINE
  8
0
 10
2.23061
 20
2.79233
 11
2.09297
 21
2.34326
  0
LINE
  8
0
 10
2.09297
 20
2.34326
 11
2.01039
 21
1.86031
  0
LINE
  8
0
 10
2.01039
 20
1.86031
 11
1.98288
 21
1.34346
  0
LINE
  8
0
 10
1.98288
 20
1.34346
 11
2.00099
 21
0.908325
  0
LINE
  8
0
 10
2.00099
 20
0.908325
 11
2.05533
 21
0.499084
  0
LINE
  8
0
 10
2.05533
 20
0.499084
 11
2.14589
 21
0.115707
  0
LINE
  8
0
 10
2.14589
 20
0.115707
 11
2.27269
 21
-0.24176
  0
LINE
  8
0
 10
2.27269
 20
-0.24176
 11
2.43571
 21
-0.573364
  0
LINE
  8
0
 10
2.43571
 20
-0.573364
 11
2.63496
 21
-0.879089
  0
LINE
  8
0
 10
2.63496
 20
-0.879089
 11
2.87044
 21
-1.15892
  0
LINE
  8
0
 10
2.87044
 20
-1.15892
 11
3.14549
 21
-1.41571
  0
LINE
  8
0
 10
3.14549
 20
-1.41571
 11
3.46335
 21
-1.65224
  0
LINE
  8
0
 10
3.46335
 20
-1.65224
 11
3.82402
 21
-1.86855
  0
LINE
  8
0
 10
3.82402
 20
-1.86855
 11
4.22749
 21
-2.06461
  0
LINE
  8
0
 10
4.22749
 20
-2.06461
 11
4.6738
 21
-2.24042
  0
LINE
  8
0
 10
4.6738
 20
-2.24042
 11
5.1629
 21
-2.396
  0
LINE
  8
0
 10
5.1629
 20
-2.396
 11
5.69482
 21
-2.53134
  0
LINE
  8
0
 10
5.69482
 20
-2.53134
 11
6.62863
 21
-2.73891
  0
LINE
  8
0
 10
6.62863
 20
-2.73891
 11
7.06873
 21
-2.84969
  0
LINE
  8
0
 10
7.06873
 20
-2.84969
 11
7.4601
 21
-2.95859
  0
LINE
  8
0
 10
7.4601
 20
-2.95859
 11
7.80278
 21
-3.06561
  0
LINE
  8
0
 10
7.80278
 20
-3.06561
 11
8.09677
 21
-3.17078
  0
LINE
  8
0
 10
8.09677
 20
-3.17078
 11
8.34204
 21
-3.27406
  0
LINE
  8
0
 10
8.34204
 20
-3.27406
 11
8.53862
 21
-3.37547
  0
LINE
  8
0
 10
8.53862
 20
-3.37547
 11
8.68648
 21
-3.47501
  0
LINE
  8
0
 10
8.68648
 20
-3.47501
 11
8.80118
 21
-3.57971
  0
LINE
  8
0
 10
8.80118
 20
-3.57971
 11
8.89822
 21
-3.69661
  0
LINE
  8
0
 10
8.89822
 20
-3.69661
 11
8.97763
 21
-3.82573
  0
LINE
  8
0
 10
8.97763
 20
-3.82573
 11
9.03938
 21
-3.96704
  0
LINE
  8
0
 10
9.03938
 20
-3.96704
 11
9.0835
 21
-4.12057
  0
LINE
  8
0
 10
9.0835
 20
-4.12057
 11
9.10997
 21
-4.2863
  0
LINE
  8
0
 10
9.10997
 20
-4.2863
 11
9.11879
 21
-4.46423
  0
LINE
  8
0
 10
9.11879
 20
-4.46423
 11
9.10632
 21
-4.64519
  0
LINE
  8
0
 10
9.10632
 20
-4.64519
 11
9.06892
 21
-4.81348
  0
LINE
  8
0
 10
9.06892
 20
-4.81348
 11
9.00658
 21
-4.96909
  0
LINE
  8
0
 10
9.00658
 20
-4.96909
 11
8.9193
 21
-5.11205
  0
LINE
  8
0
 10
8.9193
 20
-5.11205
 11
8.80707
 21
-5.24231
  0
LINE
  8
0
 10
8.80707
 20
-5.24231
 11
8.66991
 21
-5.35992
  0
LINE
  8
0
 10
8.66991
 20
-5.35992
 11
8.50781
 21
-5.46486
  0
LINE
  8
0
 10
8.50781
 20
-5.46486
 11
8.32149
 21
-5.55641
  0
LINE
  8
0
 10
8.32149
 20
-5.55641
 11
8.11162
 21
-5.63388
  0
LINE
  8
0
 10
8.11162
 20
-5.63388
 11
7.87823
 21
-5.69727
  0
LINE
  8
0
 10
7.87823
 20
-5.69727
 11
7.62131
 21
-5.74657
  0
LINE
  8
0
 10
7.62131
 20
-5.74657
 11
7.34087
 21
-5.78178
  0
LINE
  8
0
 10
7.34087
 20
-5.78178
 11
7.0369
 21
-5.80292
  0
LINE
  8
0
 10
7.0369
 20
-5.80292
 11
6.70938
 21
-5.80995
  0
LINE
  8
0
 10
6.70938
 20
-5.80995
 11
6.39821
 21
-5.80318
  0
LINE
  8
0
 10
6.39821
 20
-5.80318
 11
6.08398
 21
-5.78284
  0
LINE
  8
0
 10
6.08398
 20
-5.78284
 11
5.76671
 21
-5.74895
  0
LINE
  8
0
 10
5.76671
 20
-5.74895
 11
5.44638
 21
-5.70149
  0
LINE
  8
0
 10
5.44638
 20
-5.70149
 11
5.123
 21
-5.64047
  0
LINE
  8
0
 10
5.123
 20
-5.64047
 11
4.79657
 21
-5.5659
  0
LINE
  8
0
 10
4.79657
 20
-5.5659
 11
4.46709
 21
-5.47777
  0
LINE
  8
0
 10
4.46709
 20
-5.47777
 11
4.13689
 21
-5.37674
  0
LINE
  8
0
 10
4.13689
 20
-5.37674
 11
3.80835
 21
-5.26355
  0
LINE
  8
0
 10
3.80835
 20
-5.26355
 11
3.48145
 21
-5.1382
  0
LINE
  8
0
 10
3.48145
 20
-5.1382
 11
3.15617
 21
-5.00069
  0
LINE
  8
0
 10
3.15617
 20
-5.00069
 11
2.83257
 21
-4.85103
  0
LINE
  8
0
 10
2.83257
 20
-4.85103
 11
2.5106
 21
-4.68921
  0
LINE
  8
0
 10
2.5106
 20
-4.68921
 11
2.19028
 21
-4.51523
  0
LINE
  8
0
 10
2.19028
 20
-4.51523
 11
2.19028
 21
-7.46371
  0
LINE
  8
0
 10
2.19028
 20
-7.46371
 11
2.5486
 21
-7.57463
  0
LINE
  8
0
 10
2.5486
 20
-7.57463
 11
2.90552
 21
-7.67732
  0
LINE
  8
0
 10
2.90552
 20
-7.67732
 11
3.26102
 21
-7.77179
  0
LINE
  8
0
 10
3.26102
 20
-7.77179
 11
3.61511
 21
-7.85806
  0
LINE
  8
0
 10
3.61511
 20
-7.85806
 11
3.96777
 21
-7.93611
  0
LINE
  8
0
 10
3.96777
 20
-7.93611
 11
4.31903
 21
-8.00594
  0
LINE
  8
0
 10
4.31903
 20
-8.00594
 11
4.66887
 21
-8.06755
  0
LINE
  8
0
 10
4.66887
 20
-8.06755
 11
5.01683
 21
-8.12096
  0
LINE
  8
0
 10
5.01683
 20
-8.12096
 11
5.36243
 21
-8.16614
  0
LINE
  8
0
 10
5.36243
 20
-8.16614
 11
5.70569
 21
-8.20311
  0
LINE
  8
0
 10
5.70569
 20
-8.20311
 11
6.04659
 21
-8.23187
  0
LINE
  8
0
 10
6.04659
 20
-8.23187
 11
6.38513
 21
-8.25241
  0
LINE
  8
0
 10
6.38513
 20
-8.25241
 11
6.72131
 21
-8.26472
  0
LINE
  8
0
 10
6.72131
 20
-8.26472
 11
7.05516
 21
-8.26883
  0
LINE
  8
0
 10
7.05516
 20
-8.26883
 11
7.77919
 21
-8.24849
  0
LINE
  8
0
 10
6.7332
 20
-7.76483
 11
6.40953
 21
-7.75298
  0
LINE
  8
0
 10
6.40953
 20
-7.75298
 11
6.08269
 21
-7.73314
  0
LINE
  8
0
 10
6.08269
 20
-7.73314
 11
5.75375
 21
-7.70538
  0
LINE
  8
0
 10
5.75375
 20
-7.70538
 11
5.42168
 21
-7.66962
  0
LINE
  8
0
 10
5.42168
 20
-7.66962
 11
5.08699
 21
-7.62587
  0
LINE
  8
0
 10
5.08699
 20
-7.62587
 11
4.74983
 21
-7.57411
  0
LINE
  8
0
 10
4.74983
 20
-7.57411
 11
4.41124
 21
-7.51448
  0
LINE
  8
0
 10
4.41124
 20
-7.51448
 11
4.07079
 21
-7.44681
  0
LINE
  8
0
 10
4.07079
 20
-7.44681
 11
3.72842
 21
-7.37103
  0
LINE
  8
0
 10
3.72842
 20
-7.37103
 11
3.38411
 21
-7.28716
  0
LINE
  8
0
 10
3.38411
 20
-7.28716
 11
3.03848
 21
-7.1953
  0
LINE
  8
0
 10
3.03848
 20
-7.1953
 11
2.69244
 21
-7.09575
  0
LINE
  8
0
 10
2.69244
 20
-7.09575
 11
2.69028
 21
-7.09508
  0
LINE
  8
0
 10
2.69028
 20
-7.09508
 11
2.69028
 21
-5.33609
  0
LINE
  8
0
 10
2.69028
 20
-5.33609
 11
2.9463
 21
-5.4545
  0
LINE
  8
0
 10
2.9463
 20
-5.4545
 11
2.96147
 21
-5.46123
  0
LINE
  8
0
 10
2.96147
 20
-5.46123
 11
3.28674
 21
-5.59874
  0
LINE
  8
0
 10
3.28674
 20
-5.59874
 11
3.30243
 21
-5.60506
  0
LINE
  8
0
 10
3.30243
 20
-5.60506
 11
3.62933
 21
-5.73041
  0
LINE
  8
0
 10
3.62933
 20
-5.73041
 11
3.64548
 21
-5.73628
  0
LINE
  8
0
 10
3.64548
 20
-5.73628
 11
3.97401
 21
-5.84947
  0
LINE
  8
0
 10
3.97401
 20
-5.84947
 11
3.9906
 21
-5.85486
  0
LINE
  8
0
 10
3.9906
 20
-5.85486
 11
4.3208
 21
-5.95589
  0
LINE
  8
0
 10
4.3208
 20
-5.95589
 11
4.33788
 21
-5.96078
  0
LINE
  8
0
 10
4.33788
 20
-5.96078
 11
4.66736
 21
-6.04892
  0
LINE
  8
0
 10
4.66736
 20
-6.04892
 11
4.68521
 21
-6.05334
  0
LINE
  8
0
 10
4.68521
 20
-6.05334
 11
5.01164
 21
-6.12791
  0
LINE
  8
0
 10
5.01164
 20
-6.12791
 11
5.03029
 21
-6.13181
  0
LINE
  8
0
 10
5.03029
 20
-6.13181
 11
5.35367
 21
-6.19283
  0
LINE
  8
0
 10
5.35367
 20
-6.19283
 11
5.37311
 21
-6.19609
  0
LINE
  8
0
 10
5.37311
 20
-6.19609
 11
5.69344
 21
-6.24355
  0
LINE
  8
0
 10
5.69344
 20
-6.24355
 11
5.71361
 21
-6.24612
  0
LINE
  8
0
 10
5.71361
 20
-6.24612
 11
6.03088
 21
-6.28001
  0
LINE
  8
0
 10
6.03088
 20
-6.28001
 11
6.05168
 21
-6.2818
  0
LINE
  8
0
 10
6.05168
 20
-6.2818
 11
6.36591
 21
-6.30214
  0
LINE
  8
0
 10
6.36591
 20
-6.30214
 11
6.38733
 21
-6.30305
  0
LINE
  8
0
 10
6.38733
 20
-6.30305
 11
6.6985
 21
-6.30983
  0
LINE
  8
0
 10
6.6985
 20
-6.30983
 11
6.72012
 21
-6.30983
  0
LINE
  8
0
 10
6.72012
 20
-6.30983
 11
7.04764
 21
-6.3028
  0
LINE
  8
0
 10
7.04764
 20
-6.3028
 11
7.07158
 21
-6.30171
  0
LINE
  8
0
 10
7.07158
 20
-6.30171
 11
7.37555
 21
-6.28058
  0
LINE
  8
0
 10
7.37555
 20
-6.28058
 11
7.40317
 21
-6.27789
  0
LINE
  8
0
 10
7.40317
 20
-6.27789
 11
7.68361
 21
-6.24268
  0
LINE
  8
0
 10
7.68361
 20
-6.24268
 11
7.71553
 21
-6.23761
  0
LINE
  8
0
 10
7.71553
 20
-6.23761
 11
7.97246
 21
-6.18831
  0
LINE
  8
0
 10
7.97246
 20
-6.18831
 11
8.00928
 21
-6.17978
  0
LINE
  8
0
 10
8.00928
 20
-6.17978
 11
8.24266
 21
-6.11639
  0
LINE
  8
0
 10
8.24266
 20
-6.11639
 11
8.28476
 21
-6.10295
  0
LINE
  8
0
 10
8.28476
 20
-6.10295
 11
8.49463
 21
-6.02548
  0
LINE
  8
0
 10
8.49463
 20
-6.02548
 11
8.54199
 21
-6.00517
  0
LINE
  8
0
 10
8.54199
 20
-6.00517
 11
8.72832
 21
-5.91362
  0
LINE
  8
0
 10
8.72832
 20
-5.91362
 11
8.77953
 21
-5.88458
  0
LINE
  8
0
 10
8.77953
 20
-5.88458
 11
8.94162
 21
-5.77965
  0
LINE
  8
0
 10
8.94162
 20
-5.77965
 11
8.99538
 21
-5.73949
  0
LINE
  8
0
 10
8.99538
 20
-5.73949
 11
9.13254
 21
-5.62187
  0
LINE
  8
0
 10
9.13254
 20
-5.62187
 11
9.18587
 21
-5.56866
  0
LINE
  8
0
 10
9.18587
 20
-5.56866
 11
9.2981
 21
-5.4384
  0
LINE
  8
0
 10
9.2981
 20
-5.4384
 11
9.34605
 21
-5.37259
  0
LINE
  8
0
 10
9.34605
 20
-5.37259
 11
9.43333
 21
-5.22963
  0
LINE
  8
0
 10
9.43333
 20
-5.22963
 11
9.4707
 21
-5.15504
  0
LINE
  8
0
 10
9.4707
 20
-5.15504
 11
9.53305
 21
-4.99944
  0
LINE
  8
0
 10
9.53305
 20
-4.99944
 11
9.55702
 21
-4.92195
  0
LINE
  8
0
 10
9.55702
 20
-4.92195
 11
9.59442
 21
-4.75366
  0
LINE
  8
0
 10
9.59442
 20
-4.75366
 11
9.60515
 21
-4.67955
  0
LINE
  8
0
 10
9.60515
 20
-4.67955
 11
9.61761
 21
-4.4986
  0
LINE
  8
0
 10
9.61761
 20
-4.4986
 11
9.61818
 21
-4.43948
  0
LINE
  8
0
 10
9.61818
 20
-4.43948
 11
9.60936
 21
-4.26155
  0
LINE
  8
0
 10
9.60936
 20
-4.26155
 11
9.60371
 21
-4.20743
  0
LINE
  8
0
 10
9.60371
 20
-4.20743
 11
9.57724
 21
-4.0417
  0
LINE
  8
0
 10
9.57724
 20
-4.0417
 11
9.56406
 21
-3.9825
  0
LINE
  8
0
 10
9.56406
 20
-3.9825
 11
9.51994
 21
-3.82896
  0
LINE
  8
0
 10
9.51994
 20
-3.82896
 11
9.49754
 21
-3.76683
  0
LINE
  8
0
 10
9.49754
 20
-3.76683
 11
9.43579
 21
-3.62552
  0
LINE
  8
0
 10
9.43579
 20
-3.62552
 11
9.40353
 21
-3.5638
  0
LINE
  8
0
 10
9.40353
 20
-3.5638
 11
9.32413
 21
-3.43468
  0
LINE
  8
0
 10
9.32413
 20
-3.43468
 11
9.28293
 21
-3.37723
  0
LINE
  8
0
 10
9.28293
 20
-3.37723
 11
9.18588
 21
-3.26033
  0
LINE
  8
0
 10
9.18588
 20
-3.26033
 11
9.13828
 21
-3.21043
  0
LINE
  8
0
 10
9.13828
 20
-3.21043
 11
9.02357
 21
-3.10573
  0
LINE
  8
0
 10
9.02357
 20
-3.10573
 11
8.9657
 21
-3.06023
  0
LINE
  8
0
 10
8.9657
 20
-3.06023
 11
8.81784
 21
-2.96069
  0
LINE
  8
0
 10
8.81784
 20
-2.96069
 11
8.76785
 21
-2.93112
  0
LINE
  8
0
 10
8.76785
 20
-2.93112
 11
8.57127
 21
-2.82971
  0
LINE
  8
0
 10
8.57127
 20
-2.82971
 11
8.53609
 21
-2.81326
  0
LINE
  8
0
 10
8.53609
 20
-2.81326
 11
8.29082
 21
-2.70998
  0
LINE
  8
0
 10
8.29082
 20
-2.70998
 11
8.26518
 21
-2.7
  0
LINE
  8
0
 10
8.26518
 20
-2.7
 11
7.97119
 21
-2.59483
  0
LINE
  8
0
 10
7.97119
 20
-2.59483
 11
7.95184
 21
-2.58835
  0
LINE
  8
0
 10
7.95184
 20
-2.58835
 11
7.60916
 21
-2.48132
  0
LINE
  8
0
 10
7.60916
 20
-2.48132
 11
7.59413
 21
-2.47688
  0
LINE
  8
0
 10
7.59413
 20
-2.47688
 11
7.20276
 21
-2.36798
  0
LINE
  8
0
 10
7.20276
 20
-2.36798
 11
7.19078
 21
-2.36481
  0
LINE
  8
0
 10
7.19078
 20
-2.36481
 11
6.75069
 21
-2.25403
  0
LINE
  8
0
 10
6.75069
 20
-2.25403
 11
6.73712
 21
-2.25082
  0
LINE
  8
0
 10
6.73712
 20
-2.25082
 11
5.81082
 21
-2.04492
  0
LINE
  8
0
 10
5.81082
 20
-2.04492
 11
5.30045
 21
-1.91507
  0
LINE
  8
0
 10
5.30045
 20
-1.91507
 11
4.84149
 21
-1.76907
  0
LINE
  8
0
 10
4.84149
 20
-1.76907
 11
4.42874
 21
-1.60648
  0
LINE
  8
0
 10
4.42874
 20
-1.60648
 11
4.06233
 21
-1.42844
  0
LINE
  8
0
 10
4.06233
 20
-1.42844
 11
3.74178
 21
-1.23618
  0
LINE
  8
0
 10
3.74178
 20
-1.23618
 11
3.46638
 21
-1.03125
  0
LINE
  8
0
 10
3.46638
 20
-1.03125
 11
3.2336
 21
-0.813934
  0
LINE
  8
0
 10
3.2336
 20
-0.813934
 11
3.03716
 21
-0.580475
  0
LINE
  8
0
 10
3.03716
 20
-0.580475
 11
2.87111
 21
-0.325699
  0
LINE
  8
0
 10
2.87111
 20
-0.325699
 11
2.73425
 21
-0.0473328
  0
LINE
  8
0
 10
2.73425
 20
-0.0473328
 11
2.62621
 21
0.257294
  0
LINE
  8
0
 10
2.62621
 20
0.257294
 11
2.5477
 21
0.589615
  0
LINE
  8
0
 10
2.5477
 20
0.589615
 11
2.49962
 21
0.951675
  0
LINE
  8
0
 10
2.49962
 20
0.951675
 11
2.48344
 21
1.34056
  0
LINE
  8
0
 10
2.48344
 20
1.34056
 11
2.50815
 21
1.80476
  0
LINE
  8
0
 10
2.50815
 20
1.80476
 11
2.5804
 21
2.22733
  0
LINE
  8
0
 10
2.5804
 20
2.22733
 11
2.69861
 21
2.61299
  0
LINE
  8
0
 10
2.69861
 20
2.61299
 11
2.86192
 21
2.96487
  0
LINE
  8
0
 10
2.86192
 20
2.96487
 11
3.07103
 21
3.28671
  0
LINE
  8
0
 10
3.07103
 20
3.28671
 11
3.32864
 21
3.58224
  0
LINE
  8
0
 10
3.32864
 20
3.58224
 11
3.63748
 21
3.8528
  0
LINE
  8
0
 10
3.63748
 20
3.8528
 11
3.99472
 21
4.09412
  0
LINE
  8
0
 10
3.99472
 20
4.09412
 11
4.39638
 21
4.30098
  0
LINE
  8
0
 10
4.39638
 20
4.30098
 11
4.84476
 21
4.47295
  0
LINE
  8
0
 10
4.84476
 20
4.47295
 11
5.34145
 21
4.60889
  0
LINE
  8
0
 10
5.34145
 20
4.60889
 11
5.88678
 21
4.70737
  0
LINE
  8
0
 10
5.88678
 20
4.70737
 11
6.48131
 21
4.76723
  0
LINE
  8
0
 10
6.48131
 20
4.76723
 11
7.1292
 21
4.78754
  0
LINE
  8
0
 10
7.1292
 20
4.78754
 11
7.42545
 21
4.78406
  0
LINE
  8
0
 10
7.42545
 20
4.78406
 11
7.7262
 21
4.7735
  0
LINE
  8
0
 10
7.7262
 20
4.7735
 11
8.02698
 21
4.75584
  0
LINE
  8
0
 10
8.02698
 20
4.75584
 11
8.3277
 21
4.73112
  0
LINE
  8
0
 10
8.3277
 20
4.73112
 11
8.62732
 21
4.69946
  0
LINE
  8
0
 10
8.62732
 20
4.69946
 11
8.92769
 21
4.6606
  0
LINE
  8
0
 10
8.92769
 20
4.6606
 11
9.22723
 21
4.61478
  0
LINE
  8
0
 10
9.22723
 20
4.61478
 11
9.52577
 21
4.56187
  0
LINE
  8
0
 10
9.52577
 20
4.56187
 11
9.82034
 21
4.50218
  0
LINE
  8
0
 10
9.82034
 20
4.50218
 11
10.1141
 21
4.43509
  0
LINE
  8
0
 10
10.1141
 20
4.43509
 11
10.4038
 21
4.36134
  0
LINE
  8
0
 10
10.4038
 20
4.36134
 11
10.6916
 21
4.28038
  0
LINE
  8
0
 10
10.6916
 20
4.28038
 11
10.9243
 21
4.20863
  0
LINE
  8
0
 10
10.9243
 20
4.20863
 11
10.9243
 21
2.48056
  0
LINE
  8
0
 10
10.9243
 20
2.48056
 11
10.8386
 21
2.5246
  0
LINE
  8
0
 10
10.8386
 20
2.5246
 11
10.8209
 21
2.53325
  0
LINE
  8
0
 10
10.8209
 20
2.53325
 11
10.5434
 21
2.66223
  0
LINE
  8
0
 10
10.5434
 20
2.66223
 11
10.5251
 21
2.6703
  0
LINE
  8
0
 10
10.5251
 20
2.6703
 11
10.2445
 21
2.78731
  0
LINE
  8
0
 10
10.2445
 20
2.78731
 11
10.2257
 21
2.79469
  0
LINE
  8
0
 10
10.2257
 20
2.79469
 11
9.94208
 21
2.89973
  0
LINE
  8
0
 10
9.94208
 20
2.89973
 11
9.92282
 21
2.90643
  0
LINE
  8
0
 10
9.92282
 20
2.90643
 11
9.63612
 21
2.99951
  0
LINE
  8
0
 10
9.63612
 20
2.99951
 11
9.61679
 21
3.00536
  0
LINE
  8
0
 10
9.61679
 20
3.00536
 11
9.32851
 21
3.08623
  0
LINE
  8
0
 10
9.32851
 20
3.08623
 11
9.30882
 21
3.09132
  0
LINE
  8
0
 10
9.30882
 20
3.09132
 11
9.02029
 21
3.15974
  0
LINE
  8
0
 10
9.02029
 20
3.15974
 11
9.00009
 21
3.16409
  0
LINE
  8
0
 10
9.00009
 20
3.16409
 11
8.71133
 21
3.22008
  0
LINE
  8
0
 10
8.71133
 20
3.22008
 11
8.69067
 21
3.22363
  0
LINE
  8
0
 10
8.69067
 20
3.22363
 11
8.40167
 21
3.26718
  0
LINE
  8
0
 10
8.40167
 20
3.26718
 11
8.38062
 21
3.2699
  0
LINE
  8
0
 10
8.38062
 20
3.2699
 11
8.09137
 21
3.30099
  0
LINE
  8
0
 10
8.09137
 20
3.30099
 11
8.07008
 21
3.30283
  0
LINE
  8
0
 10
8.07008
 20
3.30283
 11
7.78061
 21
3.32149
  0
LINE
  8
0
 10
7.78061
 20
3.32149
 11
7.75919
 21
3.3224
  0
LINE
  8
0
 10
7.75919
 20
3.3224
 11
7.46948
 21
3.32863
  0
LINE
  8
0
 10
7.46948
 20
3.32863
 11
7.448
 21
3.32863
  0
LINE
  8
0
 10
7.448
 20
3.32863
 11
7.13649
 21
3.32193
  0
LINE
  8
0
 10
7.13649
 20
3.32193
 11
7.11252
 21
3.32085
  0
LINE
  8
0
 10
7.11252
 20
3.32085
 11
6.82359
 21
3.30074
  0
LINE
  8
0
 10
6.82359
 20
3.30074
 11
6.79587
 21
3.29802
  0
LINE
  8
0
 10
6.79587
 20
3.29802
 11
6.52953
 21
3.2645
  0
LINE
  8
0
 10
6.52953
 20
3.2645
 11
6.49745
 21
3.2594
  0
LINE
  8
0
 10
6.49745
 20
3.2594
 11
6.25369
 21
3.21248
  0
LINE
  8
0
 10
6.25369
 20
3.21248
 11
6.21666
 21
3.20387
  0
LINE
  8
0
 10
6.21666
 20
3.20387
 11
5.99548
 21
3.14355
  0
LINE
  8
0
 10
5.99548
 20
3.14355
 11
5.95299
 21
3.12991
  0
LINE
  8
0
 10
5.95299
 20
3.12991
 11
5.75441
 21
3.05618
  0
LINE
  8
0
 10
5.75441
 20
3.05618
 11
5.70659
 21
3.03552
  0
LINE
  8
0
 10
5.70659
 20
3.03552
 11
5.53059
 21
2.94838
  0
LINE
  8
0
 10
5.53059
 20
2.94838
 11
5.47829
 21
2.91844
  0
LINE
  8
0
 10
5.47829
 20
2.91844
 11
5.32539
 21
2.81819
  0
LINE
  8
0
 10
5.32539
 20
2.81819
 11
5.27034
 21
2.77637
  0
LINE
  8
0
 10
5.27034
 20
2.77637
 11
5.14096
 21
2.66318
  0
LINE
  8
0
 10
5.14096
 20
2.66318
 11
5.08719
 21
2.60829
  0
LINE
  8
0
 10
5.08719
 20
2.60829
 11
4.98134
 21
2.48216
  0
LINE
  8
0
 10
4.98134
 20
2.48216
 11
4.93408
 21
2.41547
  0
LINE
  8
0
 10
4.93408
 20
2.41547
 11
4.85175
 21
2.2764
  0
LINE
  8
0
 10
4.85175
 20
2.2764
 11
4.81569
 21
2.20209
  0
LINE
  8
0
 10
4.81569
 20
2.20209
 11
4.75688
 21
2.05009
  0
LINE
  8
0
 10
4.75688
 20
2.05009
 11
4.73425
 21
1.97427
  0
LINE
  8
0
 10
4.73425
 20
1.97427
 11
4.69897
 21
1.80936
  0
LINE
  8
0
 10
4.69897
 20
1.80936
 11
4.689
 21
1.73776
  0
LINE
  8
0
 10
4.689
 20
1.73776
 11
4.67723
 21
1.55989
  0
LINE
  8
0
 10
4.67723
 20
1.55989
 11
4.67731
 21
1.49274
  0
LINE
  8
0
 10
4.67731
 20
1.49274
 11
4.68553
 21
1.4305
  0
LINE
  8
0
 10
4.68553
 20
1.4305
 11
4.73589
 21
1.17421
  0
LINE
  8
0
 10
4.73589
 20
1.17421
 11
4.74977
 21
1.11983
  0
LINE
  8
0
 10
4.74977
 20
1.11983
 11
4.77243
 21
1.06126
  0
LINE
  8
0
 10
4.77243
 20
1.06126
 11
4.80225
 21
1.006
  0
LINE
  8
0
 10
4.80225
 20
1.006
 11
4.95329
 21
0.763809
  0
LINE
  8
0
 10
4.95329
 20
0.763809
 11
4.99805
 21
0.702866
  0
LINE
  8
0
 10
4.99805
 20
0.702866
 11
5.04184
 21
0.657867
  0
LINE
  8
0
 10
5.04184
 20
0.657867
 11
5.29358
 21
0.429794
  0
LINE
  8
0
 10
5.29358
 20
0.429794
 11
5.3183
 21
0.408829
  0
LINE
  8
0
 10
5.3183
 20
0.408829
 11
5.36981
 21
0.37294
  0
LINE
  8
0
 10
5.36981
 20
0.37294
 11
5.72224
 21
0.158981
  0
LINE
  8
0
 10
5.72224
 20
0.158981
 11
5.77995
 21
0.128891
  0
LINE
  8
0
 10
5.77995
 20
0.128891
 11
6.23308
 21
-0.0709534
  0
LINE
  8
0
 10
6.23308
 20
-0.0709534
 11
6.27586
 21
-0.0875244
  0
LINE
  8
0
 10
6.27586
 20
-0.0875244
 11
6.8297
 21
-0.273254
  0
LINE
  8
0
 10
6.8297
 20
-0.273254
 11
6.86186
 21
-0.282852
  0
LINE
  8
0
 10
6.86186
 20
-0.282852
 11
7.515
 21
-0.454102
  0
LINE
  8
0
 10
7.515
 20
-0.454102
 11
7.63878
 21
-0.487778
  0
LINE
  8
0
 10
7.63878
 20
-0.487778
 11
7.65414
 21
-0.491699
  0
LINE
  8
0
 10
7.65414
 20
-0.491699
 11
8.61545
 21
-0.720718
  0
LINE
  8
0
 10
8.61545
 20
-0.720718
 11
9.10007
 21
-0.8508
  0
LINE
  8
0
 10
9.10007
 20
-0.8508
 11
9.53442
 21
-0.997803
  0
LINE
  8
0
 10
9.53442
 20
-0.997803
 11
9.925
 21
-1.16251
  0
LINE
  8
0
 10
9.925
 20
-1.16251
 11
10.2726
 21
-1.34402
  0
LINE
  8
0
 10
10.2726
 20
-1.34402
 11
10.5775
 21
-1.54108
  0
LINE
  8
0
 10
10.5775
 20
-1.54108
 11
10.8412
 21
-1.75278
  0
LINE
  8
0
 10
10.8412
 20
-1.75278
 11
11.0658
 21
-1.97894
  0
LINE
  8
0
 10
11.0658
 20
-1.97894
 11
11.2567
 21
-2.2238
  0
LINE
  8
0
 10
11.2567
 20
-2.2238
 11
11.4189
 21
-2.49313
  0
LINE
  8
0
 10
11.4189
 20
-2.49313
 11
11.5533
 21
-2.7897
  0
LINE
  8
0
 10
11.5533
 20
-2.7897
 11
11.6595
 21
-3.11542
  0
LINE
  8
0
 10
11.6595
 20
-3.11542
 11
11.7369
 21
-3.47223
  0
LINE
  8
0
 10
11.7369
 20
-3.47223
 11
11.7841
 21
-3.86079
  0
LINE
  8
0
 10
11.7841
 20
-3.86079
 11
11.8
 21
-4.27852
  0
LINE
  8
0
 10
11.8
 20
-4.27852
 11
11.7757
 21
-4.77927
  0
LINE
  8
0
 10
11.7757
 20
-4.77927
 11
11.7045
 21
-5.23122
  0
LINE
  8
0
 10
11.7045
 20
-5.23122
 11
11.5886
 21
-5.63759
  0
LINE
  8
0
 10
11.5886
 20
-5.63759
 11
11.4296
 21
-6.00096
  0
LINE
  8
0
 10
11.4296
 20
-6.00096
 11
11.2279
 21
-6.32544
  0
LINE
  8
0
 10
11.2279
 20
-6.32544
 11
10.9817
 21
-6.6153
  0
LINE
  8
0
 10
10.9817
 20
-6.6153
 11
10.6878
 21
-6.87366
  0
LINE
  8
0
 10
10.6878
 20
-6.87366
 11
10.3421
 21
-7.10176
  0
LINE
  8
0
 10
10.3421
 20
-7.10176
 11
9.94083
 21
-7.29929
  0
LINE
  8
0
 10
9.94083
 20
-7.29929
 11
9.4816
 21
-7.46465
  0
LINE
  8
0
 10
9.4816
 20
-7.46465
 11
8.96353
 21
-7.59583
  0
LINE
  8
0
 10
8.96353
 20
-7.59583
 11
8.3858
 21
-7.69118
  0
LINE
  8
0
 10
8.3858
 20
-7.69118
 11
7.74944
 21
-7.74913
  0
LINE
  8
0
 10
7.74944
 20
-7.74913
 11
7.05142
 21
-7.76874
  0
LINE
  8
0
 10
7.05142
 20
-7.76874
 11
6.7332
 21
-7.76483
  0
ENDSEC
  0
SECTION
  2
OBJECTS
  0
DICTIONARY
  0
ENDSEC
  0
EOF
