  0
SECTION
  2
BLOCKS
  0
ENDSEC
  0
SECTION
  2
ENTITIES
  0
LINE
  8
0
 10
-19.836
 20
-8.68489
 11
-19.0696
 21
-8.54649
  0
LINE
  8
0
 10
-19.0696
 20
-8.54649
 11
-18.3633
 21
-8.31583
  0
LINE
  8
0
 10
-18.3633
 20
-8.31583
 11
-17.7169
 21
-7.9929
  0
LINE
  8
0
 10
-17.7169
 20
-7.9929
 11
-17.1305
 21
-7.57771
  0
LINE
  8
0
 10
-17.1305
 20
-7.57771
 11
-16.6041
 21
-7.07025
  0
LINE
  8
0
 10
-16.6041
 20
-7.07025
 11
-16.1376
 21
-6.47054
  0
LINE
  8
0
 10
-16.1376
 20
-6.47054
 11
-15.7324
 21
-5.7809
  0
LINE
  8
0
 10
-15.7324
 20
-5.7809
 11
-15.3895
 21
-5.00371
  0
LINE
  8
0
 10
-15.3895
 20
-5.00371
 11
-15.109
 21
-4.13895
  0
LINE
  8
0
 10
-15.109
 20
-4.13895
 11
-14.8907
 21
-3.18663
  0
LINE
  8
0
 10
-14.8907
 20
-3.18663
 11
-14.7349
 21
-2.14676
  0
LINE
  8
0
 10
-14.7349
 20
-2.14676
 11
-14.6414
 21
-1.01932
  0
LINE
  8
0
 10
-14.6414
 20
-1.01932
 11
-14.6102
 21
0.195663
  0
LINE
  8
0
 10
-14.6102
 20
0.195663
 11
-14.6414
 21
1.41373
  0
LINE
  8
0
 10
-14.6414
 20
1.41373
 11
-14.7349
 21
2.54376
  0
LINE
  8
0
 10
-14.7349
 20
2.54376
 11
-14.8907
 21
3.58575
  0
LINE
  8
0
 10
-14.8907
 20
3.58575
 11
-15.109
 21
4.53972
  0
LINE
  8
0
 10
-15.109
 20
4.53972
 11
-15.3895
 21
5.40565
  0
LINE
  8
0
 10
-15.3895
 20
5.40565
 11
-15.7324
 21
6.18356
  0
LINE
  8
0
 10
-15.7324
 20
6.18356
 11
-16.1376
 21
6.87343
  0
LINE
  8
0
 10
-16.1376
 20
6.87343
 11
-16.6041
 21
7.47316
  0
LINE
  8
0
 10
-16.6041
 20
7.47316
 11
-17.1305
 21
7.98061
  0
LINE
  8
0
 10
-17.1305
 20
7.98061
 11
-17.7169
 21
8.3958
  0
LINE
  8
0
 10
-17.7169
 20
8.3958
 11
-18.3633
 21
8.71873
  0
LINE
  8
0
 10
-18.3633
 20
8.71873
 11
-19.0696
 21
8.94939
  0
LINE
  8
0
 10
-19.0696
 20
8.94939
 11
-19.836
 21
9.08778
  0
LINE
  8
0
 10
-19.836
 20
9.08778
 11
-20.6624
 21
9.13393
  0
LINE
  8
0
 10
-20.6624
 20
9.13393
 11
-21.4857
 21
9.08778
  0
LINE
  8
0
 10
-21.4857
 20
9.08778
 11
-22.2495
 21
8.94939
  0
LINE
  8
0
 10
-22.2495
 20
8.94939
 11
-22.9538
 21
8.71873
  0
LINE
  8
0
 10
-22.9538
 20
8.71873
 11
-23.5986
 21
8.3958
  0
LINE
  8
0
 10
-23.5986
 20
8.3958
 11
-24.1838
 21
7.98061
  0
LINE
  8
0
 10
-24.1838
 20
7.98061
 11
-24.7095
 21
7.47316
  0
LINE
  8
0
 10
-24.7095
 20
7.47316
 11
-25.1757
 21
6.87343
  0
LINE
  8
0
 10
-25.1757
 20
6.87343
 11
-25.5809
 21
6.18356
  0
LINE
  8
0
 10
-25.5809
 20
6.18356
 11
-25.9238
 21
5.40565
  0
LINE
  8
0
 10
-25.9238
 20
5.40565
 11
-26.2044
 21
4.53972
  0
LINE
  8
0
 10
-26.2044
 20
4.53972
 11
-26.4226
 21
3.58575
  0
LINE
  8
0
 10
-26.4226
 20
3.58575
 11
-26.5785
 21
2.54376
  0
LINE
  8
0
 10
-26.5785
 20
2.54376
 11
-26.672
 21
1.41373
  0
LINE
  8
0
 10
-26.672
 20
1.41373
 11
-26.7032
 21
0.195663
  0
LINE
  8
0
 10
-26.7032
 20
0.195663
 11
-26.672
 21
-1.01932
  0
LINE
  8
0
 10
-26.672
 20
-1.01932
 11
-26.5785
 21
-2.14676
  0
LINE
  8
0
 10
-26.5785
 20
-2.14676
 11
-26.4226
 21
-3.18663
  0
LINE
  8
0
 10
-26.4226
 20
-3.18663
 11
-26.2044
 21
-4.13895
  0
LINE
  8
0
 10
-26.2044
 20
-4.13895
 11
-25.9238
 21
-5.00371
  0
LINE
  8
0
 10
-25.9238
 20
-5.00371
 11
-25.5809
 21
-5.7809
  0
LINE
  8
0
 10
-25.5809
 20
-5.7809
 11
-25.1757
 21
-6.47054
  0
LINE
  8
0
 10
-25.1757
 20
-6.47054
 11
-24.7095
 21
-7.07025
  0
LINE
  8
0
 10
-24.7095
 20
-7.07025
 11
-24.1838
 21
-7.57771
  0
LINE
  8
0
 10
-24.1838
 20
-7.57771
 11
-23.5986
 21
-7.9929
  0
LINE
  8
0
 10
-23.5986
 20
-7.9929
 11
-22.9538
 21
-8.31583
  0
LINE
  8
0
 10
-22.9538
 20
-8.31583
 11
-22.2495
 21
-8.54649
  0
LINE
  8
0
 10
-22.2495
 20
-8.54649
 11
-21.4857
 21
-8.68489
  0
LINE
  8
0
 10
-21.4857
 20
-8.68489
 11
-20.6624
 21
-8.73102
  0
LINE
  8
0
 10
-20.6624
 20
-8.73102
 11
-19.836
 21
-8.68489
  0
LINE
  8
0
 10
-21.427
 20
-8.18739
 11
-22.1266
 21
-8.06062
  0
LINE
  8
0
 10
-22.1266
 20
-8.06062
 11
-22.763
 21
-7.8522
  0
LINE
  8
0
 10
-22.763
 20
-7.8522
 11
-23.3405
 21
-7.56293
  0
LINE
  8
0
 10
-23.3405
 20
-7.56293
 11
-23.8637
 21
-7.1918
  0
LINE
  8
0
 10
-23.8637
 20
-7.1918
 11
-24.3366
 21
-6.73526
  0
LINE
  8
0
 10
-24.3366
 20
-6.73526
 11
-24.7611
 21
-6.18919
  0
LINE
  8
0
 10
-24.7611
 20
-6.18919
 11
-25.1351
 21
-5.55264
  0
LINE
  8
0
 10
-25.1351
 20
-5.55264
 11
-25.4561
 21
-4.8252
  0
LINE
  8
0
 10
-25.4561
 20
-4.8252
 11
-25.722
 21
-4.0056
  0
LINE
  8
0
 10
-25.722
 20
-4.0056
 11
-25.9309
 21
-3.09367
  0
LINE
  8
0
 10
-25.9309
 20
-3.09367
 11
-26.0815
 21
-2.08902
  0
LINE
  8
0
 10
-26.0815
 20
-2.08902
 11
-26.1725
 21
-0.992111
  0
LINE
  8
0
 10
-26.1725
 20
-0.992111
 11
-26.203
 21
0.195694
  0
LINE
  8
0
 10
-26.203
 20
0.195694
 11
-26.1725
 21
1.3867
  0
LINE
  8
0
 10
-26.1725
 20
1.3867
 11
-26.0815
 21
2.48611
  0
LINE
  8
0
 10
-26.0815
 20
2.48611
 11
-25.9309
 21
3.49284
  0
LINE
  8
0
 10
-25.9309
 20
3.49284
 11
-25.7219
 21
4.40663
  0
LINE
  8
0
 10
-25.7219
 20
4.40663
 11
-25.456
 21
5.22734
  0
LINE
  8
0
 10
-25.456
 20
5.22734
 11
-25.1351
 21
5.95531
  0
LINE
  8
0
 10
-25.1351
 20
5.95531
 11
-24.761
 21
6.59224
  0
LINE
  8
0
 10
-24.761
 20
6.59224
 11
-24.3367
 21
7.13812
  0
LINE
  8
0
 10
-24.3367
 20
7.13812
 11
-23.8637
 21
7.5947
  0
LINE
  8
0
 10
-23.8637
 20
7.5947
 11
-23.3405
 21
7.96585
  0
LINE
  8
0
 10
-23.3405
 20
7.96585
 11
-22.7631
 21
8.25507
  0
LINE
  8
0
 10
-22.7631
 20
8.25507
 11
-22.1265
 21
8.46353
  0
LINE
  8
0
 10
-22.1265
 20
8.46353
 11
-21.427
 21
8.59029
  0
LINE
  8
0
 10
-21.427
 20
8.59029
 11
-20.6623
 21
8.63315
  0
LINE
  8
0
 10
-20.6623
 20
8.63315
 11
-19.8945
 21
8.59027
  0
LINE
  8
0
 10
-19.8945
 20
8.59027
 11
-19.1922
 21
8.46344
  0
LINE
  8
0
 10
-19.1922
 20
8.46344
 11
-18.5536
 21
8.25493
  0
LINE
  8
0
 10
-18.5536
 20
8.25493
 11
-17.9745
 21
7.96562
  0
LINE
  8
0
 10
-17.9745
 20
7.96562
 11
-17.4503
 21
7.59441
  0
LINE
  8
0
 10
-17.4503
 20
7.59441
 11
-16.9768
 21
7.13795
  0
LINE
  8
0
 10
-16.9768
 20
7.13795
 11
-16.5523
 21
6.59221
  0
LINE
  8
0
 10
-16.5523
 20
6.59221
 11
-16.1782
 21
5.95531
  0
LINE
  8
0
 10
-16.1782
 20
5.95531
 11
-15.8573
 21
5.22734
  0
LINE
  8
0
 10
-15.8573
 20
5.22734
 11
-15.5914
 21
4.40666
  0
LINE
  8
0
 10
-15.5914
 20
4.40666
 11
-15.3824
 21
3.49277
  0
LINE
  8
0
 10
-15.3824
 20
3.49277
 11
-15.2318
 21
2.48615
  0
LINE
  8
0
 10
-15.2318
 20
2.48615
 11
-15.1408
 21
1.3867
  0
LINE
  8
0
 10
-15.1408
 20
1.3867
 11
-15.1104
 21
0.195694
  0
LINE
  8
0
 10
-15.1104
 20
0.195694
 11
-15.1408
 21
-0.992111
  0
LINE
  8
0
 10
-15.1408
 20
-0.992111
 11
-15.2318
 21
-2.08902
  0
LINE
  8
0
 10
-15.2318
 20
-2.08902
 11
-15.3824
 21
-3.09363
  0
LINE
  8
0
 10
-15.3824
 20
-3.09363
 11
-15.5914
 21
-4.00563
  0
LINE
  8
0
 10
-15.5914
 20
-4.00563
 11
-15.8573
 21
-4.8252
  0
LINE
  8
0
 10
-15.8573
 20
-4.8252
 11
-16.1782
 21
-5.55264
  0
LINE
  8
0
 10
-16.1782
 20
-5.55264
 11
-16.5522
 21
-6.18918
  0
LINE
  8
0
 10
-16.5522
 20
-6.18918
 11
-16.9768
 21
-6.73509
  0
LINE
  8
0
 10
-16.9768
 20
-6.73509
 11
-17.4503
 21
-7.19151
  0
LINE
  8
0
 10
-17.4503
 20
-7.19151
 11
-17.9745
 21
-7.5627
  0
LINE
  8
0
 10
-17.9745
 20
-7.5627
 11
-18.5537
 21
-7.85202
  0
LINE
  8
0
 10
-18.5537
 20
-7.85202
 11
-19.1923
 21
-8.06056
  0
LINE
  8
0
 10
-19.1923
 20
-8.06056
 11
-19.8945
 21
-8.18738
  0
LINE
  8
0
 10
-19.8945
 20
-8.18738
 11
-20.6623
 21
-8.23024
  0
LINE
  8
0
 10
-20.6623
 20
-8.23024
 11
-21.427
 21
-8.18739
  0
LINE
  8
0
 10
-20.2623
 20
-6.14384
 11
-20.1773
 21
-6.12971
  0
LINE
  8
0
 10
-20.1773
 20
-6.12971
 11
-19.8456
 21
-6.04465
  0
LINE
  8
0
 10
-19.8456
 20
-6.04465
 11
-19.7576
 21
-6.01308
  0
LINE
  8
0
 10
-19.7576
 20
-6.01308
 11
-19.4551
 21
-5.87131
  0
LINE
  8
0
 10
-19.4551
 20
-5.87131
 11
-19.4265
 21
-5.85677
  0
LINE
  8
0
 10
-19.4265
 20
-5.85677
 11
-19.3735
 21
-5.82315
  0
LINE
  8
0
 10
-19.3735
 20
-5.82315
 11
-19.1001
 21
-5.62466
  0
LINE
  8
0
 10
-19.1001
 20
-5.62466
 11
-19.0326
 21
-5.56573
  0
LINE
  8
0
 10
-19.0326
 20
-5.56573
 11
-18.7885
 21
-5.31053
  0
LINE
  8
0
 10
-18.7885
 20
-5.31053
 11
-18.7381
 21
-5.24866
  0
LINE
  8
0
 10
-18.7381
 20
-5.24866
 11
-18.523
 21
-4.93675
  0
LINE
  8
0
 10
-18.523
 20
-4.93675
 11
-18.4882
 21
-4.87804
  0
LINE
  8
0
 10
-18.4882
 20
-4.87804
 11
-18.3024
 21
-4.50941
  0
LINE
  8
0
 10
-18.3024
 20
-4.50941
 11
-18.2797
 21
-4.4572
  0
LINE
  8
0
 10
-18.2797
 20
-4.4572
 11
-18.1206
 21
-4.02547
  0
LINE
  8
0
 10
-18.1206
 20
-4.02547
 11
-18.1069
 21
-3.9823
  0
LINE
  8
0
 10
-18.1069
 20
-3.9823
 11
-17.9723
 21
-3.48114
  0
LINE
  8
0
 10
-17.9723
 20
-3.48114
 11
-17.9642
 21
-3.4462
  0
LINE
  8
0
 10
-17.9642
 20
-3.4462
 11
-17.8541
 21
-2.87563
  0
LINE
  8
0
 10
-17.8541
 20
-2.87563
 11
-17.8495
 21
-2.8472
  0
LINE
  8
0
 10
-17.8495
 20
-2.8472
 11
-17.7638
 21
-2.20718
  0
LINE
  8
0
 10
-17.7638
 20
-2.20718
 11
-17.7612
 21
-2.18381
  0
LINE
  8
0
 10
-17.7612
 20
-2.18381
 11
-17.7001
 21
-1.4744
  0
LINE
  8
0
 10
-17.7001
 20
-1.4744
 11
-17.6988
 21
-1.45499
  0
LINE
  8
0
 10
-17.6988
 20
-1.45499
 11
-17.662
 21
-0.676132
  0
LINE
  8
0
 10
-17.662
 20
-0.676132
 11
-17.6615
 21
-0.659805
  0
LINE
  8
0
 10
-17.6615
 20
-0.659805
 11
-17.6493
 21
0.188446
  0
LINE
  8
0
 10
-17.6493
 20
0.188446
 11
-17.6493
 21
0.20285
  0
LINE
  8
0
 10
-17.6493
 20
0.20285
 11
-17.6615
 21
1.05418
  0
LINE
  8
0
 10
-17.6615
 20
1.05418
 11
-17.662
 21
1.07047
  0
LINE
  8
0
 10
-17.662
 20
1.07047
 11
-17.6988
 21
1.8519
  0
LINE
  8
0
 10
-17.6988
 20
1.8519
 11
-17.7
 21
1.87126
  0
LINE
  8
0
 10
-17.7
 20
1.87126
 11
-17.7612
 21
2.58279
  0
LINE
  8
0
 10
-17.7612
 20
2.58279
 11
-17.7638
 21
2.60612
  0
LINE
  8
0
 10
-17.7638
 20
2.60612
 11
-17.8494
 21
3.24774
  0
LINE
  8
0
 10
-17.8494
 20
3.24774
 11
-17.8541
 21
3.27615
  0
LINE
  8
0
 10
-17.8541
 20
3.27615
 11
-17.9642
 21
3.84789
  0
LINE
  8
0
 10
-17.9642
 20
3.84789
 11
-17.9722
 21
3.88286
  0
LINE
  8
0
 10
-17.9722
 20
3.88286
 11
-18.1069
 21
4.38469
  0
LINE
  8
0
 10
-18.1069
 20
4.38469
 11
-18.1206
 21
4.42795
  0
LINE
  8
0
 10
-18.1206
 20
4.42795
 11
-18.2797
 21
4.85986
  0
LINE
  8
0
 10
-18.2797
 20
4.85986
 11
-18.3024
 21
4.91212
  0
LINE
  8
0
 10
-18.3024
 20
4.91212
 11
-18.4882
 21
5.28079
  0
LINE
  8
0
 10
-18.4882
 20
5.28079
 11
-18.523
 21
5.33949
  0
LINE
  8
0
 10
-18.523
 20
5.33949
 11
-18.738
 21
5.65144
  0
LINE
  8
0
 10
-18.738
 20
5.65144
 11
-18.7884
 21
5.71332
  0
LINE
  8
0
 10
-18.7884
 20
5.71332
 11
-19.0326
 21
5.96855
  0
LINE
  8
0
 10
-19.0326
 20
5.96855
 11
-19.1001
 21
6.0275
  0
LINE
  8
0
 10
-19.1001
 20
6.0275
 11
-19.3735
 21
6.226
  0
LINE
  8
0
 10
-19.3735
 20
6.226
 11
-19.4
 21
6.24399
  0
LINE
  8
0
 10
-19.4
 20
6.24399
 11
-19.4551
 21
6.27415
  0
LINE
  8
0
 10
-19.4551
 20
6.27415
 11
-19.7576
 21
6.41595
  0
LINE
  8
0
 10
-19.7576
 20
6.41595
 11
-19.8456
 21
6.44754
  0
LINE
  8
0
 10
-19.8456
 20
6.44754
 11
-20.1773
 21
6.53261
  0
LINE
  8
0
 10
-20.1773
 20
6.53261
 11
-20.2623
 21
6.54674
  0
LINE
  8
0
 10
-20.2623
 20
6.54674
 11
-20.6232
 21
6.5751
  0
LINE
  8
0
 10
-20.6232
 20
6.5751
 11
-20.7019
 21
6.57509
  0
LINE
  8
0
 10
-20.7019
 20
6.57509
 11
-21.0597
 21
6.54672
  0
LINE
  8
0
 10
-21.0597
 20
6.54672
 11
-21.1453
 21
6.53238
  0
LINE
  8
0
 10
-21.1453
 20
6.53238
 11
-21.4745
 21
6.44731
  0
LINE
  8
0
 10
-21.4745
 20
6.44731
 11
-21.5628
 21
6.41539
  0
LINE
  8
0
 10
-21.5628
 20
6.41539
 11
-21.8632
 21
6.27359
  0
LINE
  8
0
 10
-21.8632
 20
6.27359
 11
-21.8918
 21
6.25894
  0
LINE
  8
0
 10
-21.8918
 20
6.25894
 11
-21.9448
 21
6.22516
  0
LINE
  8
0
 10
-21.9448
 20
6.22516
 11
-22.2165
 21
6.02666
  0
LINE
  8
0
 10
-22.2165
 20
6.02666
 11
-22.2837
 21
5.96773
  0
LINE
  8
0
 10
-22.2837
 20
5.96773
 11
-22.5267
 21
5.71249
  0
LINE
  8
0
 10
-22.5267
 20
5.71249
 11
-22.5768
 21
5.65085
  0
LINE
  8
0
 10
-22.5768
 20
5.65085
 11
-22.7911
 21
5.3389
  0
LINE
  8
0
 10
-22.7911
 20
5.3389
 11
-22.8256
 21
5.28061
  0
LINE
  8
0
 10
-22.8256
 20
5.28061
 11
-23.0112
 21
4.91194
  0
LINE
  8
0
 10
-23.0112
 20
4.91194
 11
-23.0339
 21
4.85982
  0
LINE
  8
0
 10
-23.0339
 20
4.85982
 11
-23.1929
 21
4.4279
  0
LINE
  8
0
 10
-23.1929
 20
4.4279
 11
-23.2066
 21
4.38464
  0
LINE
  8
0
 10
-23.2066
 20
4.38464
 11
-23.3412
 21
3.88281
  0
LINE
  8
0
 10
-23.3412
 20
3.88281
 11
-23.3492
 21
3.84787
  0
LINE
  8
0
 10
-23.3492
 20
3.84787
 11
-23.4594
 21
3.27614
  0
LINE
  8
0
 10
-23.4594
 20
3.27614
 11
-23.464
 21
3.24773
  0
LINE
  8
0
 10
-23.464
 20
3.24773
 11
-23.5496
 21
2.60611
  0
LINE
  8
0
 10
-23.5496
 20
2.60611
 11
-23.5522
 21
2.58278
  0
LINE
  8
0
 10
-23.5522
 20
2.58278
 11
-23.6133
 21
1.87125
  0
LINE
  8
0
 10
-23.6133
 20
1.87125
 11
-23.6146
 21
1.85188
  0
LINE
  8
0
 10
-23.6146
 20
1.85188
 11
-23.6513
 21
1.07045
  0
LINE
  8
0
 10
-23.6513
 20
1.07045
 11
-23.6518
 21
1.05418
  0
LINE
  8
0
 10
-23.6518
 20
1.05418
 11
-23.664
 21
0.20285
  0
LINE
  8
0
 10
-23.664
 20
0.20285
 11
-23.664
 21
0.188446
  0
LINE
  8
0
 10
-23.664
 20
0.188446
 11
-23.6518
 21
-0.659805
  0
LINE
  8
0
 10
-23.6518
 20
-0.659805
 11
-23.6513
 21
-0.676117
  0
LINE
  8
0
 10
-23.6513
 20
-0.676117
 11
-23.6146
 21
-1.45497
  0
LINE
  8
0
 10
-23.6146
 20
-1.45497
 11
-23.6133
 21
-1.47438
  0
LINE
  8
0
 10
-23.6133
 20
-1.47438
 11
-23.5522
 21
-2.18379
  0
LINE
  8
0
 10
-23.5522
 20
-2.18379
 11
-23.5496
 21
-2.20717
  0
LINE
  8
0
 10
-23.5496
 20
-2.20717
 11
-23.464
 21
-2.84718
  0
LINE
  8
0
 10
-23.464
 20
-2.84718
 11
-23.4593
 21
-2.87561
  0
LINE
  8
0
 10
-23.4593
 20
-2.87561
 11
-23.3492
 21
-3.44618
  0
LINE
  8
0
 10
-23.3492
 20
-3.44618
 11
-23.3412
 21
-3.48111
  0
LINE
  8
0
 10
-23.3412
 20
-3.48111
 11
-23.2066
 21
-3.98227
  0
LINE
  8
0
 10
-23.2066
 20
-3.98227
 11
-23.1929
 21
-4.02542
  0
LINE
  8
0
 10
-23.1929
 20
-4.02542
 11
-23.0338
 21
-4.45715
  0
LINE
  8
0
 10
-23.0338
 20
-4.45715
 11
-23.0112
 21
-4.50925
  0
LINE
  8
0
 10
-23.0112
 20
-4.50925
 11
-22.8256
 21
-4.87787
  0
LINE
  8
0
 10
-22.8256
 20
-4.87787
 11
-22.7911
 21
-4.93614
  0
LINE
  8
0
 10
-22.7911
 20
-4.93614
 11
-22.5767
 21
-5.24805
  0
LINE
  8
0
 10
-22.5767
 20
-5.24805
 11
-22.5267
 21
-5.30971
  0
LINE
  8
0
 10
-22.5267
 20
-5.30971
 11
-22.2836
 21
-5.56491
  0
LINE
  8
0
 10
-22.2836
 20
-5.56491
 11
-22.2165
 21
-5.62383
  0
LINE
  8
0
 10
-22.2165
 20
-5.62383
 11
-21.9448
 21
-5.82231
  0
LINE
  8
0
 10
-21.9448
 20
-5.82231
 11
-21.9182
 21
-5.84044
  0
LINE
  8
0
 10
-21.9182
 20
-5.84044
 11
-21.8632
 21
-5.87074
  0
LINE
  8
0
 10
-21.8632
 20
-5.87074
 11
-21.5627
 21
-6.01251
  0
LINE
  8
0
 10
-21.5627
 20
-6.01251
 11
-21.4745
 21
-6.04442
  0
LINE
  8
0
 10
-21.4745
 20
-6.04442
 11
-21.1453
 21
-6.12949
  0
LINE
  8
0
 10
-21.1453
 20
-6.12949
 11
-21.0597
 21
-6.14383
  0
LINE
  8
0
 10
-21.0597
 20
-6.14383
 11
-20.7019
 21
-6.17218
  0
LINE
  8
0
 10
-20.7019
 20
-6.17218
 11
-20.6232
 21
-6.1722
  0
LINE
  8
0
 10
-20.6232
 20
-6.1722
 11
-20.2623
 21
-6.14384
  0
LINE
  8
0
 10
-21.0202
 20
-5.64539
 11
-21.3494
 21
-5.56032
  0
LINE
  8
0
 10
-21.3494
 20
-5.56032
 11
-21.6498
 21
-5.41855
  0
LINE
  8
0
 10
-21.6498
 20
-5.41855
 11
-21.9216
 21
-5.22006
  0
LINE
  8
0
 10
-21.9216
 20
-5.22006
 11
-22.1647
 21
-4.96486
  0
LINE
  8
0
 10
-22.1647
 20
-4.96486
 11
-22.379
 21
-4.65295
  0
LINE
  8
0
 10
-22.379
 20
-4.65295
 11
-22.5647
 21
-4.28433
  0
LINE
  8
0
 10
-22.5647
 20
-4.28433
 11
-22.7237
 21
-3.8526
  0
LINE
  8
0
 10
-22.7237
 20
-3.8526
 11
-22.8583
 21
-3.35144
  0
LINE
  8
0
 10
-22.8583
 20
-3.35144
 11
-22.9684
 21
-2.78087
  0
LINE
  8
0
 10
-22.9684
 20
-2.78087
 11
-23.054
 21
-2.14085
  0
LINE
  8
0
 10
-23.054
 20
-2.14085
 11
-23.1152
 21
-1.43144
  0
LINE
  8
0
 10
-23.1152
 20
-1.43144
 11
-23.1519
 21
-0.652588
  0
LINE
  8
0
 10
-23.1519
 20
-0.652588
 11
-23.1641
 21
0.195663
  0
LINE
  8
0
 10
-23.1641
 20
0.195663
 11
-23.1519
 21
1.047
  0
LINE
  8
0
 10
-23.1519
 20
1.047
 11
-23.1152
 21
1.82843
  0
LINE
  8
0
 10
-23.1152
 20
1.82843
 11
-23.054
 21
2.53996
  0
LINE
  8
0
 10
-23.054
 20
2.53996
 11
-22.9684
 21
3.18158
  0
LINE
  8
0
 10
-22.9684
 20
3.18158
 11
-22.8583
 21
3.75331
  0
LINE
  8
0
 10
-22.8583
 20
3.75331
 11
-22.7237
 21
4.25514
  0
LINE
  8
0
 10
-22.7237
 20
4.25514
 11
-22.5647
 21
4.68706
  0
LINE
  8
0
 10
-22.5647
 20
4.68706
 11
-22.379
 21
5.05573
  0
LINE
  8
0
 10
-22.379
 20
5.05573
 11
-22.1647
 21
5.36768
  0
LINE
  8
0
 10
-22.1647
 20
5.36768
 11
-21.9216
 21
5.62291
  0
LINE
  8
0
 10
-21.9216
 20
5.62291
 11
-21.6498
 21
5.82141
  0
LINE
  8
0
 10
-21.6498
 20
5.82141
 11
-21.3494
 21
5.96321
  0
LINE
  8
0
 10
-21.3494
 20
5.96321
 11
-21.0202
 21
6.04828
  0
LINE
  8
0
 10
-21.0202
 20
6.04828
 11
-20.6624
 21
6.07664
  0
LINE
  8
0
 10
-20.6624
 20
6.07664
 11
-20.3015
 21
6.04828
  0
LINE
  8
0
 10
-20.3015
 20
6.04828
 11
-19.9698
 21
5.96321
  0
LINE
  8
0
 10
-19.9698
 20
5.96321
 11
-19.6673
 21
5.82141
  0
LINE
  8
0
 10
-19.6673
 20
5.82141
 11
-19.3939
 21
5.62291
  0
LINE
  8
0
 10
-19.3939
 20
5.62291
 11
-19.1497
 21
5.36768
  0
LINE
  8
0
 10
-19.1497
 20
5.36768
 11
-18.9347
 21
5.05573
  0
LINE
  8
0
 10
-18.9347
 20
5.05573
 11
-18.7489
 21
4.68706
  0
LINE
  8
0
 10
-18.7489
 20
4.68706
 11
-18.5898
 21
4.25514
  0
LINE
  8
0
 10
-18.5898
 20
4.25514
 11
-18.4552
 21
3.75331
  0
LINE
  8
0
 10
-18.4552
 20
3.75331
 11
-18.345
 21
3.18158
  0
LINE
  8
0
 10
-18.345
 20
3.18158
 11
-18.2594
 21
2.53996
  0
LINE
  8
0
 10
-18.2594
 20
2.53996
 11
-18.1982
 21
1.82843
  0
LINE
  8
0
 10
-18.1982
 20
1.82843
 11
-18.1615
 21
1.047
  0
LINE
  8
0
 10
-18.1615
 20
1.047
 11
-18.1493
 21
0.195663
  0
LINE
  8
0
 10
-18.1493
 20
0.195663
 11
-18.1615
 21
-0.652588
  0
LINE
  8
0
 10
-18.1615
 20
-0.652588
 11
-18.1982
 21
-1.43144
  0
LINE
  8
0
 10
-18.1982
 20
-1.43144
 11
-18.2594
 21
-2.14085
  0
LINE
  8
0
 10
-18.2594
 20
-2.14085
 11
-18.345
 21
-2.78087
  0
LINE
  8
0
 10
-18.345
 20
-2.78087
 11
-18.4552
 21
-3.35144
  0
LINE
  8
0
 10
-18.4552
 20
-3.35144
 11
-18.5898
 21
-3.8526
  0
LINE
  8
0
 10
-18.5898
 20
-3.8526
 11
-18.7489
 21
-4.28433
  0
LINE
  8
0
 10
-18.7489
 20
-4.28433
 11
-18.9347
 21
-4.65295
  0
LINE
  8
0
 10
-18.9347
 20
-4.65295
 11
-19.1497
 21
-4.96486
  0
LINE
  8
0
 10
-19.1497
 20
-4.96486
 11
-19.3939
 21
-5.22006
  0
LINE
  8
0
 10
-19.3939
 20
-5.22006
 11
-19.6673
 21
-5.41855
  0
LINE
  8
0
 10
-19.6673
 20
-5.41855
 11
-19.9698
 21
-5.56032
  0
LINE
  8
0
 10
-19.9698
 20
-5.56032
 11
-20.3015
 21
-5.64539
  0
LINE
  8
0
 10
-20.3015
 20
-5.64539
 11
-20.6624
 21
-5.67374
  0
LINE
  8
0
 10
-20.6624
 20
-5.67374
 11
-21.0202
 21
-5.64539
  0
LINE
  8
0
 10
18.816
 20
-1.59373
 11
19.8996
 21
-1.59373
  0
LINE
  8
0
 10
19.8996
 20
-1.59373
 11
20.2454
 21
-1.6335
  0
LINE
  8
0
 10
20.2454
 20
-1.6335
 11
20.5781
 21
-1.75275
  0
LINE
  8
0
 10
20.5781
 20
-1.75275
 11
20.8976
 21
-1.95151
  0
LINE
  8
0
 10
20.8976
 20
-1.95151
 11
21.2039
 21
-2.22978
  0
LINE
  8
0
 10
21.2039
 20
-2.22978
 11
21.497
 21
-2.58755
  0
LINE
  8
0
 10
21.497
 20
-2.58755
 11
21.777
 21
-3.02483
  0
LINE
  8
0
 10
21.777
 20
-3.02483
 11
22.0438
 21
-3.5416
  0
LINE
  8
0
 10
22.0438
 20
-3.5416
 11
22.0854
 21
-3.63097
  0
LINE
  8
0
 10
22.0854
 20
-3.63097
 11
22.1247
 21
-3.71469
  0
LINE
  8
0
 10
22.1247
 20
-3.71469
 11
22.1617
 21
-3.79279
  0
LINE
  8
0
 10
22.1617
 20
-3.79279
 11
22.1962
 21
-3.86523
  0
LINE
  8
0
 10
22.1962
 20
-3.86523
 11
22.2285
 21
-3.93204
  0
LINE
  8
0
 10
22.2285
 20
-3.93204
 11
22.2583
 21
-3.99319
  0
LINE
  8
0
 10
22.2583
 20
-3.99319
 11
22.2858
 21
-4.04871
  0
LINE
  8
0
 10
22.2858
 20
-4.04871
 11
24.361
 21
-8.39374
  0
LINE
  8
0
 10
24.361
 20
-8.39374
 11
28.0961
 21
-8.39374
  0
LINE
  8
0
 10
28.0961
 20
-8.39374
 11
24.9834
 21
-2.20456
  0
LINE
  8
0
 10
24.9834
 20
-2.20456
 11
24.832
 21
-1.90929
  0
LINE
  8
0
 10
24.832
 20
-1.90929
 11
24.6874
 21
-1.64297
  0
LINE
  8
0
 10
24.6874
 20
-1.64297
 11
24.5497
 21
-1.40559
  0
LINE
  8
0
 10
24.5497
 20
-1.40559
 11
24.4188
 21
-1.19717
  0
LINE
  8
0
 10
24.4188
 20
-1.19717
 11
24.2947
 21
-1.01772
  0
LINE
  8
0
 10
24.2947
 20
-1.01772
 11
24.1774
 21
-0.867188
  0
LINE
  8
0
 10
24.1774
 20
-0.867188
 11
24.0669
 21
-0.745605
  0
LINE
  8
0
 10
24.0669
 20
-0.745605
 11
23.9572
 21
-0.644043
  0
LINE
  8
0
 10
23.9572
 20
-0.644043
 11
23.8421
 21
-0.553528
  0
LINE
  8
0
 10
23.8421
 20
-0.553528
 11
23.7215
 21
-0.474091
  0
LINE
  8
0
 10
23.7215
 20
-0.474091
 11
23.5956
 21
-0.405701
  0
LINE
  8
0
 10
23.5956
 20
-0.405701
 11
23.4642
 21
-0.348373
  0
LINE
  8
0
 10
23.4642
 20
-0.348373
 11
23.3274
 21
-0.302094
  0
LINE
  8
0
 10
23.3274
 20
-0.302094
 11
23.1851
 21
-0.266891
  0
LINE
  8
0
 10
23.1851
 20
-0.266891
 11
23.634
 21
-0.190414
  0
LINE
  8
0
 10
23.634
 20
-0.190414
 11
24.0518
 21
-0.0795898
  0
LINE
  8
0
 10
24.0518
 20
-0.0795898
 11
24.4386
 21
0.065567
  0
LINE
  8
0
 10
24.4386
 20
0.065567
 11
24.7943
 21
0.245087
  0
LINE
  8
0
 10
24.7943
 20
0.245087
 11
25.119
 21
0.458954
  0
LINE
  8
0
 10
25.119
 20
0.458954
 11
25.4126
 21
0.707169
  0
LINE
  8
0
 10
25.4126
 20
0.707169
 11
25.6751
 21
0.989731
  0
LINE
  8
0
 10
25.6751
 20
0.989731
 11
25.9045
 21
1.30434
  0
LINE
  8
0
 10
25.9045
 20
1.30434
 11
26.0986
 21
1.64859
  0
LINE
  8
0
 10
26.0986
 20
1.64859
 11
26.2574
 21
2.02251
  0
LINE
  8
0
 10
26.2574
 20
2.02251
 11
26.3809
 21
2.42606
  0
LINE
  8
0
 10
26.3809
 20
2.42606
 11
26.4692
 21
2.85927
  0
LINE
  8
0
 10
26.4692
 20
2.85927
 11
26.5221
 21
3.32211
  0
LINE
  8
0
 10
26.5221
 20
3.32211
 11
26.5397
 21
3.81462
  0
LINE
  8
0
 10
26.5397
 20
3.81462
 11
26.5102
 21
4.54213
  0
LINE
  8
0
 10
26.5102
 20
4.54213
 11
26.4216
 21
5.2094
  0
LINE
  8
0
 10
26.4216
 20
5.2094
 11
26.274
 21
5.81645
  0
LINE
  8
0
 10
26.274
 20
5.81645
 11
26.0673
 21
6.36327
  0
LINE
  8
0
 10
26.0673
 20
6.36327
 11
25.8015
 21
6.84985
  0
LINE
  8
0
 10
25.8015
 20
6.84985
 11
25.4767
 21
7.27621
  0
LINE
  8
0
 10
25.4767
 20
7.27621
 11
25.0929
 21
7.64235
  0
LINE
  8
0
 10
25.0929
 20
7.64235
 11
24.6413
 21
7.95436
  0
LINE
  8
0
 10
24.6413
 20
7.95436
 11
24.1133
 21
8.21837
  0
LINE
  8
0
 10
24.1133
 20
8.21837
 11
23.5088
 21
8.43439
  0
LINE
  8
0
 10
23.5088
 20
8.43439
 11
22.8278
 21
8.60239
  0
LINE
  8
0
 10
22.8278
 20
8.60239
 11
22.0703
 21
8.7224
  0
LINE
  8
0
 10
22.0703
 20
8.7224
 11
21.2365
 21
8.7944
  0
LINE
  8
0
 10
21.2365
 20
8.7944
 11
20.3261
 21
8.81841
  0
LINE
  8
0
 10
20.3261
 20
8.81841
 11
15.4151
 21
8.81841
  0
LINE
  8
0
 10
15.4151
 20
8.81841
 11
15.4151
 21
-8.39374
  0
LINE
  8
0
 10
15.4151
 20
-8.39374
 11
18.816
 21
-8.39374
  0
LINE
  8
0
 10
18.816
 20
-8.39374
 11
18.816
 21
-1.59373
  0
LINE
  8
0
 10
15.9151
 20
-7.89374
 11
15.9151
 21
8.31841
  0
LINE
  8
0
 10
15.9151
 20
8.31841
 11
20.3193
 21
8.31841
  0
LINE
  8
0
 10
20.3193
 20
8.31841
 11
21.2083
 21
8.29497
  0
LINE
  8
0
 10
21.2083
 20
8.29497
 11
22.0098
 21
8.22575
  0
LINE
  8
0
 10
22.0098
 20
8.22575
 11
22.7286
 21
8.11188
  0
LINE
  8
0
 10
22.7286
 20
8.11188
 11
23.3643
 21
7.95502
  0
LINE
  8
0
 10
23.3643
 20
7.95502
 11
23.9166
 21
7.75768
  0
LINE
  8
0
 10
23.9166
 20
7.75768
 11
24.3861
 21
7.52292
  0
LINE
  8
0
 10
24.3861
 20
7.52292
 11
24.7763
 21
7.25336
  0
LINE
  8
0
 10
24.7763
 20
7.25336
 11
25.103
 21
6.94173
  0
LINE
  8
0
 10
25.103
 20
6.94173
 11
25.3809
 21
6.57697
  0
LINE
  8
0
 10
25.3809
 20
6.57697
 11
25.6119
 21
6.15402
  0
LINE
  8
0
 10
25.6119
 20
6.15402
 11
25.7954
 21
5.66846
  0
LINE
  8
0
 10
25.7954
 20
5.66846
 11
25.9295
 21
5.11717
  0
LINE
  8
0
 10
25.9295
 20
5.11717
 11
26.0116
 21
4.49898
  0
LINE
  8
0
 10
26.0116
 20
4.49898
 11
26.0394
 21
3.81345
  0
LINE
  8
0
 10
26.0394
 20
3.81345
 11
26.0231
 21
3.35956
  0
LINE
  8
0
 10
26.0231
 20
3.35956
 11
25.9749
 21
2.9377
  0
LINE
  8
0
 10
25.9749
 20
2.9377
 11
25.8958
 21
2.54939
  0
LINE
  8
0
 10
25.8958
 20
2.54939
 11
25.787
 21
2.19389
  0
LINE
  8
0
 10
25.787
 20
2.19389
 11
25.6493
 21
1.86972
  0
LINE
  8
0
 10
25.6493
 20
1.86972
 11
25.4833
 21
1.57532
  0
LINE
  8
0
 10
25.4833
 20
1.57532
 11
25.2887
 21
1.30836
  0
LINE
  8
0
 10
25.2887
 20
1.30836
 11
25.0668
 21
1.06955
  0
LINE
  8
0
 10
25.0668
 20
1.06955
 11
24.819
 21
0.860062
  0
LINE
  8
0
 10
24.819
 20
0.860062
 11
24.5434
 21
0.678528
  0
LINE
  8
0
 10
24.5434
 20
0.678528
 11
24.2374
 21
0.524109
  0
LINE
  8
0
 10
24.2374
 20
0.524109
 11
23.8996
 21
0.397324
  0
LINE
  8
0
 10
23.8996
 20
0.397324
 11
23.5278
 21
0.298691
  0
LINE
  8
0
 10
23.5278
 20
0.298691
 11
23.1012
 21
0.226013
  0
LINE
  8
0
 10
23.1012
 20
0.226013
 11
23.0566
 21
0.216293
  0
LINE
  8
0
 10
23.0566
 20
0.216293
 11
22.997
 21
0.196381
  0
LINE
  8
0
 10
22.997
 20
0.196381
 11
22.9405
 21
0.169144
  0
LINE
  8
0
 10
22.9405
 20
0.169144
 11
22.8877
 21
0.13504
  0
LINE
  8
0
 10
22.8877
 20
0.13504
 11
22.8397
 21
0.0946045
  0
LINE
  8
0
 10
22.8397
 20
0.0946045
 11
22.7971
 21
0.0484619
  0
LINE
  8
0
 10
22.7971
 20
0.0484619
 11
22.7607
 21
-0.00265503
  0
LINE
  8
0
 10
22.7607
 20
-0.00265503
 11
22.7309
 21
-0.0579376
  0
LINE
  8
0
 10
22.7309
 20
-0.0579376
 11
22.7083
 21
-0.116531
  0
LINE
  8
0
 10
22.7083
 20
-0.116531
 11
22.6932
 21
-0.177475
  0
LINE
  8
0
 10
22.6932
 20
-0.177475
 11
22.6859
 21
-0.239838
  0
LINE
  8
0
 10
22.6859
 20
-0.239838
 11
22.6864
 21
-0.302628
  0
LINE
  8
0
 10
22.6864
 20
-0.302628
 11
22.6948
 21
-0.364853
  0
LINE
  8
0
 10
22.6948
 20
-0.364853
 11
22.711
 21
-0.425537
  0
LINE
  8
0
 10
22.711
 20
-0.425537
 11
22.7346
 21
-0.483704
  0
LINE
  8
0
 10
22.7346
 20
-0.483704
 11
22.7653
 21
-0.538467
  0
LINE
  8
0
 10
22.7653
 20
-0.538467
 11
22.8027
 21
-0.588943
  0
LINE
  8
0
 10
22.8027
 20
-0.588943
 11
22.846
 21
-0.634338
  0
LINE
  8
0
 10
22.846
 20
-0.634338
 11
22.8948
 21
-0.673935
  0
LINE
  8
0
 10
22.8948
 20
-0.673935
 11
22.9481
 21
-0.707123
  0
LINE
  8
0
 10
22.9481
 20
-0.707123
 11
23.0051
 21
-0.733368
  0
LINE
  8
0
 10
23.0051
 20
-0.733368
 11
23.065
 21
-0.752243
  0
LINE
  8
0
 10
23.065
 20
-0.752243
 11
23.187
 21
-0.782425
  0
LINE
  8
0
 10
23.187
 20
-0.782425
 11
23.2837
 21
-0.815155
  0
LINE
  8
0
 10
23.2837
 20
-0.815155
 11
23.376
 21
-0.855423
  0
LINE
  8
0
 10
23.376
 20
-0.855423
 11
23.4642
 21
-0.90332
  0
LINE
  8
0
 10
23.4642
 20
-0.90332
 11
23.5494
 21
-0.959473
  0
LINE
  8
0
 10
23.5494
 20
-0.959473
 11
23.6324
 21
-1.02473
  0
LINE
  8
0
 10
23.6324
 20
-1.02473
 11
23.7114
 21
-1.09785
  0
LINE
  8
0
 10
23.7114
 20
-1.09785
 11
23.7946
 21
-1.18936
  0
LINE
  8
0
 10
23.7946
 20
-1.18936
 11
23.8915
 21
-1.3138
  0
LINE
  8
0
 10
23.8915
 20
-1.3138
 11
24.0012
 21
-1.47237
  0
LINE
  8
0
 10
24.0012
 20
-1.47237
 11
24.1217
 21
-1.66422
  0
LINE
  8
0
 10
24.1217
 20
-1.66422
 11
24.2514
 21
-1.88773
  0
LINE
  8
0
 10
24.2514
 20
-1.88773
 11
24.3899
 21
-2.14288
  0
LINE
  8
0
 10
24.3899
 20
-2.14288
 11
24.5374
 21
-2.43057
  0
LINE
  8
0
 10
24.5374
 20
-2.43057
 11
27.285
 21
-7.89374
  0
LINE
  8
0
 10
27.285
 20
-7.89374
 11
24.6763
 21
-7.89374
  0
LINE
  8
0
 10
24.6763
 20
-7.89374
 11
22.737
 21
-3.83322
  0
LINE
  8
0
 10
22.737
 20
-3.83322
 11
22.7338
 21
-3.82668
  0
LINE
  8
0
 10
22.7338
 20
-3.82668
 11
22.7063
 21
-3.77116
  0
LINE
  8
0
 10
22.7063
 20
-3.77116
 11
22.6788
 21
-3.71478
  0
LINE
  8
0
 10
22.6788
 20
-3.71478
 11
22.6475
 21
-3.64987
  0
LINE
  8
0
 10
22.6475
 20
-3.64987
 11
22.6129
 21
-3.57742
  0
LINE
  8
0
 10
22.6129
 20
-3.57742
 11
22.5767
 21
-3.50089
  0
LINE
  8
0
 10
22.5767
 20
-3.50089
 11
22.538
 21
-3.41849
  0
LINE
  8
0
 10
22.538
 20
-3.41849
 11
22.4969
 21
-3.33035
  0
LINE
  8
0
 10
22.4969
 20
-3.33035
 11
22.4881
 21
-3.31223
  0
LINE
  8
0
 10
22.4881
 20
-3.31223
 11
22.2213
 21
-2.79546
  0
LINE
  8
0
 10
22.2213
 20
-2.79546
 11
22.1981
 21
-2.75522
  0
LINE
  8
0
 10
22.1981
 20
-2.75522
 11
21.9181
 21
-2.31795
  0
LINE
  8
0
 10
21.9181
 20
-2.31795
 11
21.8838
 21
-2.27068
  0
LINE
  8
0
 10
21.8838
 20
-2.27068
 11
21.5906
 21
-1.9129
  0
LINE
  8
0
 10
21.5906
 20
-1.9129
 11
21.5401
 21
-1.8597
  0
LINE
  8
0
 10
21.5401
 20
-1.8597
 11
21.2338
 21
-1.58142
  0
LINE
  8
0
 10
21.2338
 20
-1.58142
 11
21.1617
 21
-1.52696
  0
LINE
  8
0
 10
21.1617
 20
-1.52696
 11
20.8422
 21
-1.3282
  0
LINE
  8
0
 10
20.8422
 20
-1.3282
 11
20.8044
 21
-1.30693
  0
LINE
  8
0
 10
20.8044
 20
-1.30693
 11
20.7468
 21
-1.28207
  0
LINE
  8
0
 10
20.7468
 20
-1.28207
 11
20.4141
 21
-1.16283
  0
LINE
  8
0
 10
20.4141
 20
-1.16283
 11
20.3643
 21
-1.14784
  0
LINE
  8
0
 10
20.3643
 20
-1.14784
 11
20.3025
 21
-1.13676
  0
LINE
  8
0
 10
20.3025
 20
-1.13676
 11
19.9567
 21
-1.097
  0
LINE
  8
0
 10
19.9567
 20
-1.097
 11
19.8996
 21
-1.09373
  0
LINE
  8
0
 10
19.8996
 20
-1.09373
 11
18.816
 21
-1.09373
  0
LINE
  8
0
 10
18.816
 20
-1.09373
 11
18.7223
 21
-1.10258
  0
LINE
  8
0
 10
18.7223
 20
-1.10258
 11
18.6615
 21
-1.11821
  0
LINE
  8
0
 10
18.6615
 20
-1.11821
 11
18.6031
 21
-1.14133
  0
LINE
  8
0
 10
18.6031
 20
-1.14133
 11
18.548
 21
-1.17157
  0
LINE
  8
0
 10
18.548
 20
-1.17157
 11
18.4973
 21
-1.20848
  0
LINE
  8
0
 10
18.4973
 20
-1.20848
 11
18.4515
 21
-1.25146
  0
LINE
  8
0
 10
18.4515
 20
-1.25146
 11
18.4115
 21
-1.29984
  0
LINE
  8
0
 10
18.4115
 20
-1.29984
 11
18.3778
 21
-1.35286
  0
LINE
  8
0
 10
18.3778
 20
-1.35286
 11
18.3511
 21
-1.40967
  0
LINE
  8
0
 10
18.3511
 20
-1.40967
 11
18.3317
 21
-1.46939
  0
LINE
  8
0
 10
18.3317
 20
-1.46939
 11
18.3199
 21
-1.53107
  0
LINE
  8
0
 10
18.3199
 20
-1.53107
 11
18.316
 21
-1.59373
  0
LINE
  8
0
 10
18.316
 20
-1.59373
 11
18.316
 21
-7.89374
  0
LINE
  8
0
 10
18.316
 20
-7.89374
 11
15.9151
 21
-7.89374
  0
LINE
  8
0
 10
20.433
 20
0.767899
 11
20.8154
 21
0.779068
  0
LINE
  8
0
 10
20.8154
 20
0.779068
 11
20.8484
 21
0.781128
  0
LINE
  8
0
 10
20.8484
 20
0.781128
 11
21.1986
 21
0.814621
  0
LINE
  8
0
 10
21.1986
 20
0.814621
 11
21.2375
 21
0.819885
  0
LINE
  8
0
 10
21.2375
 20
0.819885
 11
21.5554
 21
0.875732
  0
LINE
  8
0
 10
21.5554
 20
0.875732
 11
21.6009
 21
0.885925
  0
LINE
  8
0
 10
21.6009
 20
0.885925
 11
21.8866
 21
0.964096
  0
LINE
  8
0
 10
21.8866
 20
0.964096
 11
21.9389
 21
0.981567
  0
LINE
  8
0
 10
21.9389
 20
0.981567
 11
22.1924
 21
1.08208
  0
LINE
  8
0
 10
22.1924
 20
1.08208
 11
22.2509
 21
1.10974
  0
LINE
  8
0
 10
22.2509
 20
1.10974
 11
22.4721
 21
1.23259
  0
LINE
  8
0
 10
22.4721
 20
1.23259
 11
22.534
 21
1.27318
  0
LINE
  8
0
 10
22.534
 20
1.27318
 11
22.723
 21
1.41837
  0
LINE
  8
0
 10
22.723
 20
1.41837
 11
22.7828
 21
1.4725
  0
LINE
  8
0
 10
22.7828
 20
1.4725
 11
22.9434
 21
1.64336
  0
LINE
  8
0
 10
22.9434
 20
1.64336
 11
22.9924
 21
1.70459
  0
LINE
  8
0
 10
22.9924
 20
1.70459
 11
23.1283
 21
1.90437
  0
LINE
  8
0
 10
23.1283
 20
1.90437
 11
23.1646
 21
1.96696
  0
LINE
  8
0
 10
23.1646
 20
1.96696
 11
23.2757
 21
2.19565
  0
LINE
  8
0
 10
23.2757
 20
2.19565
 11
23.3
 21
2.25514
  0
LINE
  8
0
 10
23.3
 20
2.25514
 11
23.3865
 21
2.51274
  0
LINE
  8
0
 10
23.3865
 20
2.51274
 11
23.4012
 21
2.56648
  0
LINE
  8
0
 10
23.4012
 20
2.56648
 11
23.463
 21
2.85298
  0
LINE
  8
0
 10
23.463
 20
2.85298
 11
23.4708
 21
2.89998
  0
LINE
  8
0
 10
23.4708
 20
2.89998
 11
23.5079
 21
3.21541
  0
LINE
  8
0
 10
23.5079
 20
3.21541
 11
23.511
 21
3.25584
  0
LINE
  8
0
 10
23.511
 20
3.25584
 11
23.5233
 21
3.60019
  0
LINE
  8
0
 10
23.5233
 20
3.60019
 11
23.5233
 21
3.63586
  0
LINE
  8
0
 10
23.5233
 20
3.63586
 11
23.5111
 21
3.98009
  0
LINE
  8
0
 10
23.5111
 20
3.98009
 11
23.508
 21
4.02017
  0
LINE
  8
0
 10
23.508
 20
4.02017
 11
23.4713
 21
4.33524
  0
LINE
  8
0
 10
23.4713
 20
4.33524
 11
23.4636
 21
4.38197
  0
LINE
  8
0
 10
23.4636
 20
4.38197
 11
23.4025
 21
4.66788
  0
LINE
  8
0
 10
23.4025
 20
4.66788
 11
23.3879
 21
4.7215
  0
LINE
  8
0
 10
23.3879
 20
4.7215
 11
23.3022
 21
4.97824
  0
LINE
  8
0
 10
23.3022
 20
4.97824
 11
23.278
 21
5.0378
  0
LINE
  8
0
 10
23.278
 20
5.0378
 11
23.1679
 21
5.26538
  0
LINE
  8
0
 10
23.1679
 20
5.26538
 11
23.1316
 21
5.32823
  0
LINE
  8
0
 10
23.1316
 20
5.32823
 11
22.9971
 21
5.52667
  0
LINE
  8
0
 10
22.9971
 20
5.52667
 11
22.9476
 21
5.58842
  0
LINE
  8
0
 10
22.9476
 20
5.58842
 11
22.7886
 21
5.75771
  0
LINE
  8
0
 10
22.7886
 20
5.75771
 11
22.7281
 21
5.81239
  0
LINE
  8
0
 10
22.7281
 20
5.81239
 11
22.5404
 21
5.95609
  0
LINE
  8
0
 10
22.5404
 20
5.95609
 11
22.4778
 21
5.99696
  0
LINE
  8
0
 10
22.4778
 20
5.99696
 11
22.2571
 21
6.11855
  0
LINE
  8
0
 10
22.2571
 20
6.11855
 11
22.1984
 21
6.14609
  0
LINE
  8
0
 10
22.1984
 20
6.14609
 11
21.9448
 21
6.24557
  0
LINE
  8
0
 10
21.9448
 20
6.24557
 11
21.8926
 21
6.26282
  0
LINE
  8
0
 10
21.8926
 20
6.26282
 11
21.606
 21
6.34019
  0
LINE
  8
0
 10
21.606
 20
6.34019
 11
21.5609
 21
6.35016
  0
LINE
  8
0
 10
21.5609
 20
6.35016
 11
21.2414
 21
6.40543
  0
LINE
  8
0
 10
21.2414
 20
6.40543
 11
21.203
 21
6.41055
  0
LINE
  8
0
 10
21.203
 20
6.41055
 11
20.8506
 21
6.44371
  0
LINE
  8
0
 10
20.8506
 20
6.44371
 11
20.8181
 21
6.44571
  0
LINE
  8
0
 10
20.8181
 20
6.44571
 11
20.4327
 21
6.45676
  0
LINE
  8
0
 10
20.4327
 20
6.45676
 11
20.4184
 21
6.45695
  0
LINE
  8
0
 10
20.4184
 20
6.45695
 11
18.816
 21
6.45695
  0
LINE
  8
0
 10
18.816
 20
6.45695
 11
18.7223
 21
6.4481
  0
LINE
  8
0
 10
18.7223
 20
6.4481
 11
18.6615
 21
6.43248
  0
LINE
  8
0
 10
18.6615
 20
6.43248
 11
18.6031
 21
6.40936
  0
LINE
  8
0
 10
18.6031
 20
6.40936
 11
18.548
 21
6.37912
  0
LINE
  8
0
 10
18.548
 20
6.37912
 11
18.4973
 21
6.34221
  0
LINE
  8
0
 10
18.4973
 20
6.34221
 11
18.4515
 21
6.29922
  0
LINE
  8
0
 10
18.4515
 20
6.29922
 11
18.4115
 21
6.25085
  0
LINE
  8
0
 10
18.4115
 20
6.25085
 11
18.3778
 21
6.19783
  0
LINE
  8
0
 10
18.3778
 20
6.19783
 11
18.3511
 21
6.14102
  0
LINE
  8
0
 10
18.3511
 20
6.14102
 11
18.3317
 21
6.0813
  0
LINE
  8
0
 10
18.3317
 20
6.0813
 11
18.3199
 21
6.01962
  0
LINE
  8
0
 10
18.3199
 20
6.01962
 11
18.316
 21
5.95695
  0
LINE
  8
0
 10
18.316
 20
5.95695
 11
18.316
 21
1.26768
  0
LINE
  8
0
 10
18.316
 20
1.26768
 11
18.3248
 21
1.174
  0
LINE
  8
0
 10
18.3248
 20
1.174
 11
18.3404
 21
1.11317
  0
LINE
  8
0
 10
18.3404
 20
1.11317
 11
18.3636
 21
1.05479
  0
LINE
  8
0
 10
18.3636
 20
1.05479
 11
18.3938
 21
0.999771
  0
LINE
  8
0
 10
18.3938
 20
0.999771
 11
18.4307
 21
0.948975
  0
LINE
  8
0
 10
18.4307
 20
0.948975
 11
18.4737
 21
0.903198
  0
LINE
  8
0
 10
18.4737
 20
0.903198
 11
18.5221
 21
0.863174
  0
LINE
  8
0
 10
18.5221
 20
0.863174
 11
18.5751
 21
0.829529
  0
LINE
  8
0
 10
18.5751
 20
0.829529
 11
18.6319
 21
0.802795
  0
LINE
  8
0
 10
18.6319
 20
0.802795
 11
18.6916
 21
0.783386
  0
LINE
  8
0
 10
18.6916
 20
0.783386
 11
18.7533
 21
0.771622
  0
LINE
  8
0
 10
18.7533
 20
0.771622
 11
18.816
 21
0.767685
  0
LINE
  8
0
 10
18.816
 20
0.767685
 11
20.4184
 21
0.767685
  0
LINE
  8
0
 10
20.4184
 20
0.767685
 11
20.433
 21
0.767899
  0
LINE
  8
0
 10
18.816
 20
1.26768
 11
18.816
 21
5.95695
  0
LINE
  8
0
 10
18.816
 20
5.95695
 11
20.4184
 21
5.95695
  0
LINE
  8
0
 10
20.4184
 20
5.95695
 11
20.8038
 21
5.94591
  0
LINE
  8
0
 10
20.8038
 20
5.94591
 11
21.1562
 21
5.91275
  0
LINE
  8
0
 10
21.1562
 20
5.91275
 11
21.4757
 21
5.85748
  0
LINE
  8
0
 10
21.4757
 20
5.85748
 11
21.7622
 21
5.78011
  0
LINE
  8
0
 10
21.7622
 20
5.78011
 11
22.0158
 21
5.68062
  0
LINE
  8
0
 10
22.0158
 20
5.68062
 11
22.2365
 21
5.55904
  0
LINE
  8
0
 10
22.2365
 20
5.55904
 11
22.4242
 21
5.41534
  0
LINE
  8
0
 10
22.4242
 20
5.41534
 11
22.5833
 21
5.24606
  0
LINE
  8
0
 10
22.5833
 20
5.24606
 11
22.7178
 21
5.04762
  0
LINE
  8
0
 10
22.7178
 20
5.04762
 11
22.8279
 21
4.82004
  0
LINE
  8
0
 10
22.8279
 20
4.82004
 11
22.9135
 21
4.56329
  0
LINE
  8
0
 10
22.9135
 20
4.56329
 11
22.9747
 21
4.27739
  0
LINE
  8
0
 10
22.9747
 20
4.27739
 11
23.0114
 21
3.96233
  0
LINE
  8
0
 10
23.0114
 20
3.96233
 11
23.0236
 21
3.6181
  0
LINE
  8
0
 10
23.0236
 20
3.6181
 11
23.0113
 21
3.27376
  0
LINE
  8
0
 10
23.0113
 20
3.27376
 11
22.9742
 21
2.95833
  0
LINE
  8
0
 10
22.9742
 20
2.95833
 11
22.9125
 21
2.67183
  0
LINE
  8
0
 10
22.9125
 20
2.67183
 11
22.826
 21
2.41423
  0
LINE
  8
0
 10
22.826
 20
2.41423
 11
22.7149
 21
2.18555
  0
LINE
  8
0
 10
22.7149
 20
2.18555
 11
22.579
 21
1.98576
  0
LINE
  8
0
 10
22.579
 20
1.98576
 11
22.4184
 21
1.81491
  0
LINE
  8
0
 10
22.4184
 20
1.81491
 11
22.2294
 21
1.66972
  0
LINE
  8
0
 10
22.2294
 20
1.66972
 11
22.0081
 21
1.54688
  0
LINE
  8
0
 10
22.0081
 20
1.54688
 11
21.7547
 21
1.44637
  0
LINE
  8
0
 10
21.7547
 20
1.44637
 11
21.4689
 21
1.36819
  0
LINE
  8
0
 10
21.4689
 20
1.36819
 11
21.151
 21
1.31235
  0
LINE
  8
0
 10
21.151
 20
1.31235
 11
20.8008
 21
1.27885
  0
LINE
  8
0
 10
20.8008
 20
1.27885
 11
20.4184
 21
1.26768
  0
LINE
  8
0
 10
20.4184
 20
1.26768
 11
18.816
 21
1.26768
  0
LINE
  8
0
 10
12.6579
 20
-5.40175
 11
5.33748
 21
-5.40175
  0
LINE
  8
0
 10
5.33748
 20
-5.40175
 11
5.33748
 21
-0.886536
  0
LINE
  8
0
 10
5.33748
 20
-0.886536
 11
11.9661
 21
-0.886536
  0
LINE
  8
0
 10
11.9661
 20
-0.886536
 11
11.9661
 21
2.10544
  0
LINE
  8
0
 10
11.9661
 20
2.10544
 11
5.33748
 21
2.10544
  0
LINE
  8
0
 10
5.33748
 20
2.10544
 11
5.33748
 21
5.8264
  0
LINE
  8
0
 10
5.33748
 20
5.8264
 11
12.6579
 21
5.8264
  0
LINE
  8
0
 10
12.6579
 20
5.8264
 11
12.6579
 21
8.81841
  0
LINE
  8
0
 10
12.6579
 20
8.81841
 11
1.9368
 21
8.81841
  0
LINE
  8
0
 10
1.9368
 20
8.81841
 11
1.9368
 21
-8.39374
  0
LINE
  8
0
 10
1.9368
 20
-8.39374
 11
12.6579
 21
-8.39374
  0
LINE
  8
0
 10
12.6579
 20
-8.39374
 11
12.6579
 21
-5.40175
  0
LINE
  8
0
 10
2.4368
 20
-7.89374
 11
2.4368
 21
8.31841
  0
LINE
  8
0
 10
2.4368
 20
8.31841
 11
12.1579
 21
8.31841
  0
LINE
  8
0
 10
12.1579
 20
8.31841
 11
12.1579
 21
6.3264
  0
LINE
  8
0
 10
12.1579
 20
6.3264
 11
5.33748
 21
6.3264
  0
LINE
  8
0
 10
5.33748
 20
6.3264
 11
5.24379
 21
6.31755
  0
LINE
  8
0
 10
5.24379
 20
6.31755
 11
5.18297
 21
6.30193
  0
LINE
  8
0
 10
5.18297
 20
6.30193
 11
5.12459
 21
6.27881
  0
LINE
  8
0
 10
5.12459
 20
6.27881
 11
5.06956
 21
6.24857
  0
LINE
  8
0
 10
5.06956
 20
6.24857
 11
5.01877
 21
6.21165
  0
LINE
  8
0
 10
5.01877
 20
6.21165
 11
4.97299
 21
6.16867
  0
LINE
  8
0
 10
4.97299
 20
6.16867
 11
4.93297
 21
6.1203
  0
LINE
  8
0
 10
4.93297
 20
6.1203
 11
4.89932
 21
6.06728
  0
LINE
  8
0
 10
4.89932
 20
6.06728
 11
4.87259
 21
6.01047
  0
LINE
  8
0
 10
4.87259
 20
6.01047
 11
4.85318
 21
5.95074
  0
LINE
  8
0
 10
4.85318
 20
5.95074
 11
4.84142
 21
5.88907
  0
LINE
  8
0
 10
4.84142
 20
5.88907
 11
4.83748
 21
5.8264
  0
LINE
  8
0
 10
4.83748
 20
5.8264
 11
4.83748
 21
2.10544
  0
LINE
  8
0
 10
4.83748
 20
2.10544
 11
4.84633
 21
2.01175
  0
LINE
  8
0
 10
4.84633
 20
2.01175
 11
4.86195
 21
1.95093
  0
LINE
  8
0
 10
4.86195
 20
1.95093
 11
4.88507
 21
1.89255
  0
LINE
  8
0
 10
4.88507
 20
1.89255
 11
4.91531
 21
1.83752
  0
LINE
  8
0
 10
4.91531
 20
1.83752
 11
4.95222
 21
1.78673
  0
LINE
  8
0
 10
4.95222
 20
1.78673
 11
4.99521
 21
1.74095
  0
LINE
  8
0
 10
4.99521
 20
1.74095
 11
5.04358
 21
1.70093
  0
LINE
  8
0
 10
5.04358
 20
1.70093
 11
5.0966
 21
1.66728
  0
LINE
  8
0
 10
5.0966
 20
1.66728
 11
5.15341
 21
1.64055
  0
LINE
  8
0
 10
5.15341
 20
1.64055
 11
5.21313
 21
1.62114
  0
LINE
  8
0
 10
5.21313
 20
1.62114
 11
5.27481
 21
1.60938
  0
LINE
  8
0
 10
5.27481
 20
1.60938
 11
5.33748
 21
1.60544
  0
LINE
  8
0
 10
5.33748
 20
1.60544
 11
11.4661
 21
1.60544
  0
LINE
  8
0
 10
11.4661
 20
1.60544
 11
11.4661
 21
-0.386536
  0
LINE
  8
0
 10
11.4661
 20
-0.386536
 11
5.33748
 21
-0.386536
  0
LINE
  8
0
 10
5.33748
 20
-0.386536
 11
5.24379
 21
-0.395386
  0
LINE
  8
0
 10
5.24379
 20
-0.395386
 11
5.18297
 21
-0.411011
  0
LINE
  8
0
 10
5.18297
 20
-0.411011
 11
5.12459
 21
-0.434128
  0
LINE
  8
0
 10
5.12459
 20
-0.434128
 11
5.06956
 21
-0.464371
  0
LINE
  8
0
 10
5.06956
 20
-0.464371
 11
5.01877
 21
-0.501282
  0
LINE
  8
0
 10
5.01877
 20
-0.501282
 11
4.97299
 21
-0.544266
  0
LINE
  8
0
 10
4.97299
 20
-0.544266
 11
4.93297
 21
-0.592636
  0
LINE
  8
0
 10
4.93297
 20
-0.592636
 11
4.89932
 21
-0.64566
  0
LINE
  8
0
 10
4.89932
 20
-0.64566
 11
4.87259
 21
-0.702469
  0
LINE
  8
0
 10
4.87259
 20
-0.702469
 11
4.85318
 21
-0.762192
  0
LINE
  8
0
 10
4.85318
 20
-0.762192
 11
4.84142
 21
-0.823868
  0
LINE
  8
0
 10
4.84142
 20
-0.823868
 11
4.83748
 21
-0.886536
  0
LINE
  8
0
 10
4.83748
 20
-0.886536
 11
4.83748
 21
-5.40175
  0
LINE
  8
0
 10
4.83748
 20
-5.40175
 11
4.84633
 21
-5.49544
  0
LINE
  8
0
 10
4.84633
 20
-5.49544
 11
4.86195
 21
-5.55626
  0
LINE
  8
0
 10
4.86195
 20
-5.55626
 11
4.88507
 21
-5.61464
  0
LINE
  8
0
 10
4.88507
 20
-5.61464
 11
4.91531
 21
-5.66966
  0
LINE
  8
0
 10
4.91531
 20
-5.66966
 11
4.95222
 21
-5.72046
  0
LINE
  8
0
 10
4.95222
 20
-5.72046
 11
4.99521
 21
-5.76624
  0
LINE
  8
0
 10
4.99521
 20
-5.76624
 11
5.04358
 21
-5.80626
  0
LINE
  8
0
 10
5.04358
 20
-5.80626
 11
5.0966
 21
-5.8399
  0
LINE
  8
0
 10
5.0966
 20
-5.8399
 11
5.15341
 21
-5.86664
  0
LINE
  8
0
 10
5.15341
 20
-5.86664
 11
5.21313
 21
-5.88605
  0
LINE
  8
0
 10
5.21313
 20
-5.88605
 11
5.27481
 21
-5.89781
  0
LINE
  8
0
 10
5.27481
 20
-5.89781
 11
5.33748
 21
-5.90175
  0
LINE
  8
0
 10
5.33748
 20
-5.90175
 11
12.1579
 21
-5.90175
  0
LINE
  8
0
 10
12.1579
 20
-5.90175
 11
12.1579
 21
-7.89374
  0
LINE
  8
0
 10
12.1579
 20
-7.89374
 11
2.4368
 21
-7.89374
  0
LINE
  8
0
 10
-9.96237
 20
5.39325
 11
-8.11787
 21
-2.13774
  0
LINE
  8
0
 10
-8.11787
 20
-2.13774
 11
-5.40875
 21
-2.13774
  0
LINE
  8
0
 10
-5.40875
 20
-2.13774
 11
-3.5872
 21
5.39325
  0
LINE
  8
0
 10
-3.5872
 20
5.39325
 11
-3.5872
 21
-8.39374
  0
LINE
  8
0
 10
-3.5872
 20
-8.39374
 11
-0.659119
 21
-8.39374
  0
LINE
  8
0
 10
-0.659119
 20
-8.39374
 11
-0.659119
 21
8.81841
  0
LINE
  8
0
 10
-0.659119
 20
8.81841
 11
-4.74014
 21
8.81841
  0
LINE
  8
0
 10
-4.74014
 20
8.81841
 11
-6.78047
 21
1.26445
  0
LINE
  8
0
 10
-6.78047
 20
1.26445
 11
-8.83255
 21
8.81841
  0
LINE
  8
0
 10
-8.83255
 20
8.81841
 11
-12.8904
 21
8.81841
  0
LINE
  8
0
 10
-12.8904
 20
8.81841
 11
-12.8904
 21
-8.39374
  0
LINE
  8
0
 10
-12.8904
 20
-8.39374
 11
-9.96237
 21
-8.39374
  0
LINE
  8
0
 10
-9.96237
 20
-8.39374
 11
-9.96237
 21
5.39325
  0
LINE
  8
0
 10
-12.3904
 20
-7.89374
 11
-12.3904
 21
8.31841
  0
LINE
  8
0
 10
-12.3904
 20
8.31841
 11
-9.21484
 21
8.31841
  0
LINE
  8
0
 10
-9.21484
 20
8.31841
 11
-7.26299
 21
1.13338
  0
LINE
  8
0
 10
-7.26299
 20
1.13338
 11
-7.24762
 21
1.0862
  0
LINE
  8
0
 10
-7.24762
 20
1.0862
 11
-7.2216
 21
1.02905
  0
LINE
  8
0
 10
-7.2216
 20
1.02905
 11
-7.18861
 21
0.975632
  0
LINE
  8
0
 10
-7.18861
 20
0.975632
 11
-7.1492
 21
0.926758
  0
LINE
  8
0
 10
-7.1492
 20
0.926758
 11
-7.10397
 21
0.883194
  0
LINE
  8
0
 10
-7.10397
 20
0.883194
 11
-7.05363
 21
0.845657
  0
LINE
  8
0
 10
-7.05363
 20
0.845657
 11
-6.99899
 21
0.814728
  0
LINE
  8
0
 10
-6.99899
 20
0.814728
 11
-6.9409
 21
0.790894
  0
LINE
  8
0
 10
-6.9409
 20
0.790894
 11
-6.88028
 21
0.774521
  0
LINE
  8
0
 10
-6.88028
 20
0.774521
 11
-6.81808
 21
0.765869
  0
LINE
  8
0
 10
-6.81808
 20
0.765869
 11
-6.75531
 21
0.765091
  0
LINE
  8
0
 10
-6.75531
 20
0.765091
 11
-6.69292
 21
0.772171
  0
LINE
  8
0
 10
-6.69292
 20
0.772171
 11
-6.63191
 21
0.787033
  0
LINE
  8
0
 10
-6.63191
 20
0.787033
 11
-6.57324
 21
0.809418
  0
LINE
  8
0
 10
-6.57324
 20
0.809418
 11
-6.51785
 21
0.838974
  0
LINE
  8
0
 10
-6.51785
 20
0.838974
 11
-6.4666
 21
0.875244
  0
LINE
  8
0
 10
-6.4666
 20
0.875244
 11
-6.42029
 21
0.917648
  0
LINE
  8
0
 10
-6.42029
 20
0.917648
 11
-6.37967
 21
0.96553
  0
LINE
  8
0
 10
-6.37967
 20
0.96553
 11
-6.34535
 21
1.01813
  0
LINE
  8
0
 10
-6.34535
 20
1.01813
 11
-6.31792
 21
1.0746
  0
LINE
  8
0
 10
-6.31792
 20
1.0746
 11
-6.29778
 21
1.13408
  0
LINE
  8
0
 10
-6.29778
 20
1.13408
 11
-4.35728
 21
8.31841
  0
LINE
  8
0
 10
-4.35728
 20
8.31841
 11
-1.15912
 21
8.31841
  0
LINE
  8
0
 10
-1.15912
 20
8.31841
 11
-1.15912
 21
-7.89374
  0
LINE
  8
0
 10
-1.15912
 20
-7.89374
 11
-3.0872
 21
-7.89374
  0
LINE
  8
0
 10
-3.0872
 20
-7.89374
 11
-3.0872
 21
5.39325
  0
LINE
  8
0
 10
-3.0872
 20
5.39325
 11
-3.09207
 21
5.46286
  0
LINE
  8
0
 10
-3.09207
 20
5.46286
 11
-3.10471
 21
5.52437
  0
LINE
  8
0
 10
-3.10471
 20
5.52437
 11
-3.12494
 21
5.5838
  0
LINE
  8
0
 10
-3.12494
 20
5.5838
 11
-3.15247
 21
5.64024
  0
LINE
  8
0
 10
-3.15247
 20
5.64024
 11
-3.18686
 21
5.69278
  0
LINE
  8
0
 10
-3.18686
 20
5.69278
 11
-3.22755
 21
5.7406
  0
LINE
  8
0
 10
-3.22755
 20
5.7406
 11
-3.27393
 21
5.78293
  0
LINE
  8
0
 10
-3.27393
 20
5.78293
 11
-3.32523
 21
5.81912
  0
LINE
  8
0
 10
-3.32523
 20
5.81912
 11
-3.38068
 21
5.8486
  0
LINE
  8
0
 10
-3.38068
 20
5.8486
 11
-3.43938
 21
5.8709
  0
LINE
  8
0
 10
-3.43938
 20
5.8709
 11
-3.5004
 21
5.88565
  0
LINE
  8
0
 10
-3.5004
 20
5.88565
 11
-3.56281
 21
5.89265
  0
LINE
  8
0
 10
-3.56281
 20
5.89265
 11
-3.6256
 21
5.89177
  0
LINE
  8
0
 10
-3.6256
 20
5.89177
 11
-3.68776
 21
5.88303
  0
LINE
  8
0
 10
-3.68776
 20
5.88303
 11
-3.74837
 21
5.86656
  0
LINE
  8
0
 10
-3.74837
 20
5.86656
 11
-3.80641
 21
5.84264
  0
LINE
  8
0
 10
-3.80641
 20
5.84264
 11
-3.86101
 21
5.81161
  0
LINE
  8
0
 10
-3.86101
 20
5.81161
 11
-3.91129
 21
5.774
  0
LINE
  8
0
 10
-3.91129
 20
5.774
 11
-3.95645
 21
5.73038
  0
LINE
  8
0
 10
-3.95645
 20
5.73038
 11
-3.99579
 21
5.68144
  0
LINE
  8
0
 10
-3.99579
 20
5.68144
 11
-4.02869
 21
5.62796
  0
LINE
  8
0
 10
-4.02869
 20
5.62796
 11
-4.05463
 21
5.57079
  0
LINE
  8
0
 10
-4.05463
 20
5.57079
 11
-4.0732
 21
5.5108
  0
LINE
  8
0
 10
-4.0732
 20
5.5108
 11
-5.80225
 21
-1.63774
  0
LINE
  8
0
 10
-5.80225
 20
-1.63774
 11
-7.72556
 21
-1.63774
  0
LINE
  8
0
 10
-7.72556
 20
-1.63774
 11
-9.47673
 21
5.51219
  0
LINE
  8
0
 10
-9.47673
 20
5.51219
 11
-9.49748
 21
5.57732
  0
LINE
  8
0
 10
-9.49748
 20
5.57732
 11
-9.52422
 21
5.63412
  0
LINE
  8
0
 10
-9.52422
 20
5.63412
 11
-9.55786
 21
5.68715
  0
LINE
  8
0
 10
-9.55786
 20
5.68715
 11
-9.59789
 21
5.73552
  0
LINE
  8
0
 10
-9.59789
 20
5.73552
 11
-9.64366
 21
5.7785
  0
LINE
  8
0
 10
-9.64366
 20
5.7785
 11
-9.69446
 21
5.81541
  0
LINE
  8
0
 10
-9.69446
 20
5.81541
 11
-9.74948
 21
5.84566
  0
LINE
  8
0
 10
-9.74948
 20
5.84566
 11
-9.80786
 21
5.86877
  0
LINE
  8
0
 10
-9.80786
 20
5.86877
 11
-9.86868
 21
5.8844
  0
LINE
  8
0
 10
-9.86868
 20
5.8844
 11
-9.93097
 21
5.89226
  0
LINE
  8
0
 10
-9.93097
 20
5.89226
 11
-9.99377
 21
5.89226
  0
LINE
  8
0
 10
-9.99377
 20
5.89226
 11
-10.0561
 21
5.8844
  0
LINE
  8
0
 10
-10.0561
 20
5.8844
 11
-10.1169
 21
5.86877
  0
LINE
  8
0
 10
-10.1169
 20
5.86877
 11
-10.1753
 21
5.84566
  0
LINE
  8
0
 10
-10.1753
 20
5.84566
 11
-10.2303
 21
5.81541
  0
LINE
  8
0
 10
-10.2303
 20
5.81541
 11
-10.2811
 21
5.7785
  0
LINE
  8
0
 10
-10.2811
 20
5.7785
 11
-10.3269
 21
5.73552
  0
LINE
  8
0
 10
-10.3269
 20
5.73552
 11
-10.3669
 21
5.68715
  0
LINE
  8
0
 10
-10.3669
 20
5.68715
 11
-10.4005
 21
5.63412
  0
LINE
  8
0
 10
-10.4005
 20
5.63412
 11
-10.4273
 21
5.57732
  0
LINE
  8
0
 10
-10.4273
 20
5.57732
 11
-10.4467
 21
5.51759
  0
LINE
  8
0
 10
-10.4467
 20
5.51759
 11
-10.4584
 21
5.45592
  0
LINE
  8
0
 10
-10.4584
 20
5.45592
 11
-10.4624
 21
5.39325
  0
LINE
  8
0
 10
-10.4624
 20
5.39325
 11
-10.4624
 21
-7.89374
  0
LINE
  8
0
 10
-10.4624
 20
-7.89374
 11
-12.3904
 21
-7.89374
  0
ENDSEC
  0
SECTION
  2
OBJECTS
  0
DICTIONARY
  0
ENDSEC
  0
EOF
