<?xml version="1.0" standalone="no"?>
<!DOCTYPE svg PUBLIC "-//W3C//DTD SVG 1.1//EN" "http://www.w3.org/Graphics/SVG/1.1/DTD/svg11.dtd">
<svg width="56mm" height="19mm" viewBox="-27 -10 56 19" xmlns="http://www.w3.org/2000/svg" version="1.1">
<title>OpenSCAD Model</title>
<path d="
M -19.836,8.68489 L -19.0696,8.54649 L -18.3633,8.31583 L -17.7169,7.9929 L -17.1305,7.57771 L -16.6041,7.07025
 L -16.1376,6.47054 L -15.7324,5.7809 L -15.3895,5.00371 L -15.109,4.13895 L -14.8907,3.18663 L -14.7349,2.14676
 L -14.6414,1.01932 L -14.6102,-0.195663 L -14.6414,-1.41373 L -14.7349,-2.54376 L -14.8907,-3.58575 L -15.109,-4.53972
 L -15.3895,-5.40565 L -15.7324,-6.18356 L -16.1376,-6.87343 L -16.6041,-7.47316 L -17.1305,-7.98061 L -17.7169,-8.3958
 L -18.3633,-8.71873 L -19.0696,-8.94939 L -19.836,-9.08778 L -20.6624,-9.13393 L -21.4857,-9.08778 L -22.2495,-8.94939
 L -22.9538,-8.71873 L -23.5986,-8.3958 L -24.1838,-7.98061 L -24.7095,-7.47316 L -25.1757,-6.87343 L -25.5809,-6.18356
 L -25.9238,-5.40565 L -26.2044,-4.53972 L -26.4226,-3.58575 L -26.5785,-2.54376 L -26.672,-1.41373 L -26.7032,-0.195663
 L -26.672,1.01932 L -26.5785,2.14676 L -26.4226,3.18663 L -26.2044,4.13895 L -25.9238,5.00371 L -25.5809,5.7809
 L -25.1757,6.47054 L -24.7095,7.07025 L -24.1838,7.57771 L -23.5986,7.9929 L -22.9538,8.31583 L -22.2495,8.54649
 L -21.4857,8.68489 L -20.6624,8.73102 z
M -21.427,8.18739 L -22.1266,8.06062 L -22.763,7.8522 L -23.3405,7.56293 L -23.8637,7.1918 L -24.3366,6.73526
 L -24.7611,6.18919 L -25.1351,5.55264 L -25.4561,4.8252 L -25.722,4.0056 L -25.9309,3.09367 L -26.0815,2.08902
 L -26.1725,0.992111 L -26.203,-0.195694 L -26.1725,-1.3867 L -26.0815,-2.48611 L -25.9309,-3.49284 L -25.7219,-4.40663
 L -25.456,-5.22734 L -25.1351,-5.95531 L -24.761,-6.59224 L -24.3367,-7.13812 L -23.8637,-7.5947 L -23.3405,-7.96585
 L -22.7631,-8.25507 L -22.1265,-8.46353 L -21.427,-8.59029 L -20.6623,-8.63315 L -19.8945,-8.59027 L -19.1922,-8.46344
 L -18.5536,-8.25493 L -17.9745,-7.96562 L -17.4503,-7.59441 L -16.9768,-7.13795 L -16.5523,-6.59221 L -16.1782,-5.95531
 L -15.8573,-5.22734 L -15.5914,-4.40666 L -15.3824,-3.49277 L -15.2318,-2.48615 L -15.1408,-1.3867 L -15.1104,-0.195694
 L -15.1408,0.992111 L -15.2318,2.08902 L -15.3824,3.09363 L -15.5914,4.00563 L -15.8573,4.8252 L -16.1782,5.55264
 L -16.5522,6.18918 L -16.9768,6.73509 L -17.4503,7.19151 L -17.9745,7.5627 L -18.5537,7.85202 L -19.1923,8.06056
 L -19.8945,8.18738 L -20.6623,8.23024 z
M -20.2623,6.14384 L -20.1773,6.12971 L -19.8456,6.04465 L -19.7576,6.01308 L -19.4551,5.87131 L -19.4265,5.85677
 L -19.3735,5.82315 L -19.1001,5.62466 L -19.0326,5.56573 L -18.7885,5.31053 L -18.7381,5.24866 L -18.523,4.93675
 L -18.4882,4.87804 L -18.3024,4.50941 L -18.2797,4.4572 L -18.1206,4.02547 L -18.1069,3.9823 L -17.9723,3.48114
 L -17.9642,3.4462 L -17.8541,2.87563 L -17.8495,2.8472 L -17.7638,2.20718 L -17.7612,2.18381 L -17.7001,1.4744
 L -17.6988,1.45499 L -17.662,0.676132 L -17.6615,0.659805 L -17.6493,-0.188446 L -17.6493,-0.20285 L -17.6615,-1.05418
 L -17.662,-1.07047 L -17.6988,-1.8519 L -17.7,-1.87126 L -17.7612,-2.58279 L -17.7638,-2.60612 L -17.8494,-3.24774
 L -17.8541,-3.27615 L -17.9642,-3.84789 L -17.9722,-3.88286 L -18.1069,-4.38469 L -18.1206,-4.42795 L -18.2797,-4.85986
 L -18.3024,-4.91212 L -18.4882,-5.28079 L -18.523,-5.33949 L -18.738,-5.65144 L -18.7884,-5.71332 L -19.0326,-5.96855
 L -19.1001,-6.0275 L -19.3735,-6.226 L -19.4,-6.24399 L -19.4551,-6.27415 L -19.7576,-6.41595 L -19.8456,-6.44754
 L -20.1773,-6.53261 L -20.2623,-6.54674 L -20.6232,-6.5751 L -20.7019,-6.57509 L -21.0597,-6.54672 L -21.1453,-6.53238
 L -21.4745,-6.44731 L -21.5628,-6.41539 L -21.8632,-6.27359 L -21.8918,-6.25894 L -21.9448,-6.22516 L -22.2165,-6.02666
 L -22.2837,-5.96773 L -22.5267,-5.71249 L -22.5768,-5.65085 L -22.7911,-5.3389 L -22.8256,-5.28061 L -23.0112,-4.91194
 L -23.0339,-4.85982 L -23.1929,-4.4279 L -23.2066,-4.38464 L -23.3412,-3.88281 L -23.3492,-3.84787 L -23.4594,-3.27614
 L -23.464,-3.24773 L -23.5496,-2.60611 L -23.5522,-2.58278 L -23.6133,-1.87125 L -23.6146,-1.85188 L -23.6513,-1.07045
 L -23.6518,-1.05418 L -23.664,-0.20285 L -23.664,-0.188446 L -23.6518,0.659805 L -23.6513,0.676117 L -23.6146,1.45497
 L -23.6133,1.47438 L -23.5522,2.18379 L -23.5496,2.20717 L -23.464,2.84718 L -23.4593,2.87561 L -23.3492,3.44618
 L -23.3412,3.48111 L -23.2066,3.98227 L -23.1929,4.02542 L -23.0338,4.45715 L -23.0112,4.50925 L -22.8256,4.87787
 L -22.7911,4.93614 L -22.5767,5.24805 L -22.5267,5.30971 L -22.2836,5.56491 L -22.2165,5.62383 L -21.9448,5.82231
 L -21.9182,5.84044 L -21.8632,5.87074 L -21.5627,6.01251 L -21.4745,6.04442 L -21.1453,6.12949 L -21.0597,6.14383
 L -20.7019,6.17218 L -20.6232,6.1722 z
M -21.0202,5.64539 L -21.3494,5.56032 L -21.6498,5.41855 L -21.9216,5.22006 L -22.1647,4.96486 L -22.379,4.65295
 L -22.5647,4.28433 L -22.7237,3.8526 L -22.8583,3.35144 L -22.9684,2.78087 L -23.054,2.14085 L -23.1152,1.43144
 L -23.1519,0.652588 L -23.1641,-0.195663 L -23.1519,-1.047 L -23.1152,-1.82843 L -23.054,-2.53996 L -22.9684,-3.18158
 L -22.8583,-3.75331 L -22.7237,-4.25514 L -22.5647,-4.68706 L -22.379,-5.05573 L -22.1647,-5.36768 L -21.9216,-5.62291
 L -21.6498,-5.82141 L -21.3494,-5.96321 L -21.0202,-6.04828 L -20.6624,-6.07664 L -20.3015,-6.04828 L -19.9698,-5.96321
 L -19.6673,-5.82141 L -19.3939,-5.62291 L -19.1497,-5.36768 L -18.9347,-5.05573 L -18.7489,-4.68706 L -18.5898,-4.25514
 L -18.4552,-3.75331 L -18.345,-3.18158 L -18.2594,-2.53996 L -18.1982,-1.82843 L -18.1615,-1.047 L -18.1493,-0.195663
 L -18.1615,0.652588 L -18.1982,1.43144 L -18.2594,2.14085 L -18.345,2.78087 L -18.4552,3.35144 L -18.5898,3.8526
 L -18.7489,4.28433 L -18.9347,4.65295 L -19.1497,4.96486 L -19.3939,5.22006 L -19.6673,5.41855 L -19.9698,5.56032
 L -20.3015,5.64539 L -20.6624,5.67374 z
M 18.816,1.59373 L 19.8996,1.59373 L 20.2454,1.6335 L 20.5781,1.75275 L 20.8976,1.95151 L 21.2039,2.22978
 L 21.497,2.58755 L 21.777,3.02483 L 22.0438,3.5416 L 22.0854,3.63097 L 22.1247,3.71469 L 22.1617,3.79279
 L 22.1962,3.86523 L 22.2285,3.93204 L 22.2583,3.99319 L 22.2858,4.04871 L 24.361,8.39374 L 28.0961,8.39374
 L 24.9834,2.20456 L 24.832,1.90929 L 24.6874,1.64297 L 24.5497,1.40559 L 24.4188,1.19717 L 24.2947,1.01772
 L 24.1774,0.867188 L 24.0669,0.745605 L 23.9572,0.644043 L 23.8421,0.553528 L 23.7215,0.474091 L 23.5956,0.405701
 L 23.4642,0.348373 L 23.3274,0.302094 L 23.1851,0.266891 L 23.634,0.190414 L 24.0518,0.0795898 L 24.4386,-0.065567
 L 24.7943,-0.245087 L 25.119,-0.458954 L 25.4126,-0.707169 L 25.6751,-0.989731 L 25.9045,-1.30434 L 26.0986,-1.64859
 L 26.2574,-2.02251 L 26.3809,-2.42606 L 26.4692,-2.85927 L 26.5221,-3.32211 L 26.5397,-3.81462 L 26.5102,-4.54213
 L 26.4216,-5.2094 L 26.274,-5.81645 L 26.0673,-6.36327 L 25.8015,-6.84985 L 25.4767,-7.27621 L 25.0929,-7.64235
 L 24.6413,-7.95436 L 24.1133,-8.21837 L 23.5088,-8.43439 L 22.8278,-8.60239 L 22.0703,-8.7224 L 21.2365,-8.7944
 L 20.3261,-8.81841 L 15.4151,-8.81841 L 15.4151,8.39374 L 18.816,8.39374 z
M 15.9151,7.89374 L 15.9151,-8.31841 L 20.3193,-8.31841 L 21.2083,-8.29497 L 22.0098,-8.22575 L 22.7286,-8.11188
 L 23.3643,-7.95502 L 23.9166,-7.75768 L 24.3861,-7.52292 L 24.7763,-7.25336 L 25.103,-6.94173 L 25.3809,-6.57697
 L 25.6119,-6.15402 L 25.7954,-5.66846 L 25.9295,-5.11717 L 26.0116,-4.49898 L 26.0394,-3.81345 L 26.0231,-3.35956
 L 25.9749,-2.9377 L 25.8958,-2.54939 L 25.787,-2.19389 L 25.6493,-1.86972 L 25.4833,-1.57532 L 25.2887,-1.30836
 L 25.0668,-1.06955 L 24.819,-0.860062 L 24.5434,-0.678528 L 24.2374,-0.524109 L 23.8996,-0.397324 L 23.5278,-0.298691
 L 23.1012,-0.226013 L 23.0566,-0.216293 L 22.997,-0.196381 L 22.9405,-0.169144 L 22.8877,-0.13504 L 22.8397,-0.0946045
 L 22.7971,-0.0484619 L 22.7607,0.00265503 L 22.7309,0.0579376 L 22.7083,0.116531 L 22.6932,0.177475 L 22.6859,0.239838
 L 22.6864,0.302628 L 22.6948,0.364853 L 22.711,0.425537 L 22.7346,0.483704 L 22.7653,0.538467 L 22.8027,0.588943
 L 22.846,0.634338 L 22.8948,0.673935 L 22.9481,0.707123 L 23.0051,0.733368 L 23.065,0.752243 L 23.187,0.782425
 L 23.2837,0.815155 L 23.376,0.855423 L 23.4642,0.90332 L 23.5494,0.959473 L 23.6324,1.02473 L 23.7114,1.09785
 L 23.7946,1.18936 L 23.8915,1.3138 L 24.0012,1.47237 L 24.1217,1.66422 L 24.2514,1.88773 L 24.3899,2.14288
 L 24.5374,2.43057 L 27.285,7.89374 L 24.6763,7.89374 L 22.737,3.83322 L 22.7338,3.82668 L 22.7063,3.77116
 L 22.6788,3.71478 L 22.6475,3.64987 L 22.6129,3.57742 L 22.5767,3.50089 L 22.538,3.41849 L 22.4969,3.33035
 L 22.4881,3.31223 L 22.2213,2.79546 L 22.1981,2.75522 L 21.9181,2.31795 L 21.8838,2.27068 L 21.5906,1.9129
 L 21.5401,1.8597 L 21.2338,1.58142 L 21.1617,1.52696 L 20.8422,1.3282 L 20.8044,1.30693 L 20.7468,1.28207
 L 20.4141,1.16283 L 20.3643,1.14784 L 20.3025,1.13676 L 19.9567,1.097 L 19.8996,1.09373 L 18.816,1.09373
 L 18.7223,1.10258 L 18.6615,1.11821 L 18.6031,1.14133 L 18.548,1.17157 L 18.4973,1.20848 L 18.4515,1.25146
 L 18.4115,1.29984 L 18.3778,1.35286 L 18.3511,1.40967 L 18.3317,1.46939 L 18.3199,1.53107 L 18.316,1.59373
 L 18.316,7.89374 z
M 20.433,-0.767899 L 20.8154,-0.779068 L 20.8484,-0.781128 L 21.1986,-0.814621 L 21.2375,-0.819885 L 21.5554,-0.875732
 L 21.6009,-0.885925 L 21.8866,-0.964096 L 21.9389,-0.981567 L 22.1924,-1.08208 L 22.2509,-1.10974 L 22.4721,-1.23259
 L 22.534,-1.27318 L 22.723,-1.41837 L 22.7828,-1.4725 L 22.9434,-1.64336 L 22.9924,-1.70459 L 23.1283,-1.90437
 L 23.1646,-1.96696 L 23.2757,-2.19565 L 23.3,-2.25514 L 23.3865,-2.51274 L 23.4012,-2.56648 L 23.463,-2.85298
 L 23.4708,-2.89998 L 23.5079,-3.21541 L 23.511,-3.25584 L 23.5233,-3.60019 L 23.5233,-3.63586 L 23.5111,-3.98009
 L 23.508,-4.02017 L 23.4713,-4.33524 L 23.4636,-4.38197 L 23.4025,-4.66788 L 23.3879,-4.7215 L 23.3022,-4.97824
 L 23.278,-5.0378 L 23.1679,-5.26538 L 23.1316,-5.32823 L 22.9971,-5.52667 L 22.9476,-5.58842 L 22.7886,-5.75771
 L 22.7281,-5.81239 L 22.5404,-5.95609 L 22.4778,-5.99696 L 22.2571,-6.11855 L 22.1984,-6.14609 L 21.9448,-6.24557
 L 21.8926,-6.26282 L 21.606,-6.34019 L 21.5609,-6.35016 L 21.2414,-6.40543 L 21.203,-6.41055 L 20.8506,-6.44371
 L 20.8181,-6.44571 L 20.4327,-6.45676 L 20.4184,-6.45695 L 18.816,-6.45695 L 18.7223,-6.4481 L 18.6615,-6.43248
 L 18.6031,-6.40936 L 18.548,-6.37912 L 18.4973,-6.34221 L 18.4515,-6.29922 L 18.4115,-6.25085 L 18.3778,-6.19783
 L 18.3511,-6.14102 L 18.3317,-6.0813 L 18.3199,-6.01962 L 18.316,-5.95695 L 18.316,-1.26768 L 18.3248,-1.174
 L 18.3404,-1.11317 L 18.3636,-1.05479 L 18.3938,-0.999771 L 18.4307,-0.948975 L 18.4737,-0.903198 L 18.5221,-0.863174
 L 18.5751,-0.829529 L 18.6319,-0.802795 L 18.6916,-0.783386 L 18.7533,-0.771622 L 18.816,-0.767685 L 20.4184,-0.767685
 z
M 18.816,-1.26768 L 18.816,-5.95695 L 20.4184,-5.95695 L 20.8038,-5.94591 L 21.1562,-5.91275 L 21.4757,-5.85748
 L 21.7622,-5.78011 L 22.0158,-5.68062 L 22.2365,-5.55904 L 22.4242,-5.41534 L 22.5833,-5.24606 L 22.7178,-5.04762
 L 22.8279,-4.82004 L 22.9135,-4.56329 L 22.9747,-4.27739 L 23.0114,-3.96233 L 23.0236,-3.6181 L 23.0113,-3.27376
 L 22.9742,-2.95833 L 22.9125,-2.67183 L 22.826,-2.41423 L 22.7149,-2.18555 L 22.579,-1.98576 L 22.4184,-1.81491
 L 22.2294,-1.66972 L 22.0081,-1.54688 L 21.7547,-1.44637 L 21.4689,-1.36819 L 21.151,-1.31235 L 20.8008,-1.27885
 L 20.4184,-1.26768 z
M 12.6579,5.40175 L 5.33748,5.40175 L 5.33748,0.886536 L 11.9661,0.886536 L 11.9661,-2.10544 L 5.33748,-2.10544
 L 5.33748,-5.8264 L 12.6579,-5.8264 L 12.6579,-8.81841 L 1.9368,-8.81841 L 1.9368,8.39374 L 12.6579,8.39374
 z
M 2.4368,7.89374 L 2.4368,-8.31841 L 12.1579,-8.31841 L 12.1579,-6.3264 L 5.33748,-6.3264 L 5.24379,-6.31755
 L 5.18297,-6.30193 L 5.12459,-6.27881 L 5.06956,-6.24857 L 5.01877,-6.21165 L 4.97299,-6.16867 L 4.93297,-6.1203
 L 4.89932,-6.06728 L 4.87259,-6.01047 L 4.85318,-5.95074 L 4.84142,-5.88907 L 4.83748,-5.8264 L 4.83748,-2.10544
 L 4.84633,-2.01175 L 4.86195,-1.95093 L 4.88507,-1.89255 L 4.91531,-1.83752 L 4.95222,-1.78673 L 4.99521,-1.74095
 L 5.04358,-1.70093 L 5.0966,-1.66728 L 5.15341,-1.64055 L 5.21313,-1.62114 L 5.27481,-1.60938 L 5.33748,-1.60544
 L 11.4661,-1.60544 L 11.4661,0.386536 L 5.33748,0.386536 L 5.24379,0.395386 L 5.18297,0.411011 L 5.12459,0.434128
 L 5.06956,0.464371 L 5.01877,0.501282 L 4.97299,0.544266 L 4.93297,0.592636 L 4.89932,0.64566 L 4.87259,0.702469
 L 4.85318,0.762192 L 4.84142,0.823868 L 4.83748,0.886536 L 4.83748,5.40175 L 4.84633,5.49544 L 4.86195,5.55626
 L 4.88507,5.61464 L 4.91531,5.66966 L 4.95222,5.72046 L 4.99521,5.76624 L 5.04358,5.80626 L 5.0966,5.8399
 L 5.15341,5.86664 L 5.21313,5.88605 L 5.27481,5.89781 L 5.33748,5.90175 L 12.1579,5.90175 L 12.1579,7.89374
 z
M -9.96237,-5.39325 L -8.11787,2.13774 L -5.40875,2.13774 L -3.5872,-5.39325 L -3.5872,8.39374 L -0.659119,8.39374
 L -0.659119,-8.81841 L -4.74014,-8.81841 L -6.78047,-1.26445 L -8.83255,-8.81841 L -12.8904,-8.81841 L -12.8904,8.39374
 L -9.96237,8.39374 z
M -12.3904,7.89374 L -12.3904,-8.31841 L -9.21484,-8.31841 L -7.26299,-1.13338 L -7.24762,-1.0862 L -7.2216,-1.02905
 L -7.18861,-0.975632 L -7.1492,-0.926758 L -7.10397,-0.883194 L -7.05363,-0.845657 L -6.99899,-0.814728 L -6.9409,-0.790894
 L -6.88028,-0.774521 L -6.81808,-0.765869 L -6.75531,-0.765091 L -6.69292,-0.772171 L -6.63191,-0.787033 L -6.57324,-0.809418
 L -6.51785,-0.838974 L -6.4666,-0.875244 L -6.42029,-0.917648 L -6.37967,-0.96553 L -6.34535,-1.01813 L -6.31792,-1.0746
 L -6.29778,-1.13408 L -4.35728,-8.31841 L -1.15912,-8.31841 L -1.15912,7.89374 L -3.0872,7.89374 L -3.0872,-5.39325
 L -3.09207,-5.46286 L -3.10471,-5.52437 L -3.12494,-5.5838 L -3.15247,-5.64024 L -3.18686,-5.69278 L -3.22755,-5.7406
 L -3.27393,-5.78293 L -3.32523,-5.81912 L -3.38068,-5.8486 L -3.43938,-5.8709 L -3.5004,-5.88565 L -3.56281,-5.89265
 L -3.6256,-5.89177 L -3.68776,-5.88303 L -3.74837,-5.86656 L -3.80641,-5.84264 L -3.86101,-5.81161 L -3.91129,-5.774
 L -3.95645,-5.73038 L -3.99579,-5.68144 L -4.02869,-5.62796 L -4.05463,-5.57079 L -4.0732,-5.5108 L -5.80225,1.63774
 L -7.72556,1.63774 L -9.47673,-5.51219 L -9.49748,-5.57732 L -9.52422,-5.63412 L -9.55786,-5.68715 L -9.59789,-5.73552
 L -9.64366,-5.7785 L -9.69446,-5.81541 L -9.74948,-5.84566 L -9.80786,-5.86877 L -9.86868,-5.8844 L -9.93097,-5.89226
 L -9.99377,-5.89226 L -10.0561,-5.8844 L -10.1169,-5.86877 L -10.1753,-5.84566 L -10.2303,-5.81541 L -10.2811,-5.7785
 L -10.3269,-5.73552 L -10.3669,-5.68715 L -10.4005,-5.63412 L -10.4273,-5.57732 L -10.4467,-5.51759 L -10.4584,-5.45592
 L -10.4624,-5.39325 L -10.4624,7.89374 z
" stroke="black" fill="lightgray" stroke-width="0.5"/>
</svg>
