  0
SECTION
  2
BLOCKS
  0
ENDSEC
  0
SECTION
  2
ENTITIES
  0
LINE
  8
0
 10
-22.8539
 20
7.32625
 11
-19.3717
 21
7.32625
  0
LINE
  8
0
 10
-19.3717
 20
7.32625
 11
-18.5608
 21
4.07314
  0
LINE
  8
0
 10
-18.5608
 20
4.07314
 11
-15.9602
 21
4.07314
  0
LINE
  8
0
 10
-15.9602
 20
4.07314
 11
-19.5128
 21
17.2354
  0
LINE
  8
0
 10
-19.5128
 20
17.2354
 11
-22.6953
 21
17.2354
  0
LINE
  8
0
 10
-22.6953
 20
17.2354
 11
-26.248
 21
4.07314
  0
LINE
  8
0
 10
-26.248
 20
4.07314
 11
-23.6473
 21
4.07314
  0
LINE
  8
0
 10
-23.6473
 20
4.07314
 11
-22.8539
 21
7.32625
  0
LINE
  8
0
 10
-25.5951
 20
4.57314
 11
-22.3124
 21
16.7354
  0
LINE
  8
0
 10
-22.3124
 20
16.7354
 11
-19.8957
 21
16.7354
  0
LINE
  8
0
 10
-19.8957
 20
16.7354
 11
-16.613
 21
4.57314
  0
LINE
  8
0
 10
-16.613
 20
4.57314
 11
-18.1702
 21
4.57314
  0
LINE
  8
0
 10
-18.1702
 20
4.57314
 11
-18.8866
 21
7.44719
  0
LINE
  8
0
 10
-18.8866
 20
7.44719
 11
-18.8962
 21
7.48076
  0
LINE
  8
0
 10
-18.8962
 20
7.48076
 11
-18.9193
 21
7.53914
  0
LINE
  8
0
 10
-18.9193
 20
7.53914
 11
-18.9496
 21
7.59416
  0
LINE
  8
0
 10
-18.9496
 20
7.59416
 11
-18.9865
 21
7.64496
  0
LINE
  8
0
 10
-18.9865
 20
7.64496
 11
-19.0295
 21
7.69073
  0
LINE
  8
0
 10
-19.0295
 20
7.69073
 11
-19.0779
 21
7.73076
  0
LINE
  8
0
 10
-19.0779
 20
7.73076
 11
-19.1309
 21
7.7644
  0
LINE
  8
0
 10
-19.1309
 20
7.7644
 11
-19.1877
 21
7.79114
  0
LINE
  8
0
 10
-19.1877
 20
7.79114
 11
-19.2474
 21
7.81055
  0
LINE
  8
0
 10
-19.2474
 20
7.81055
 11
-19.3091
 21
7.82231
  0
LINE
  8
0
 10
-19.3091
 20
7.82231
 11
-19.3717
 21
7.82625
  0
LINE
  8
0
 10
-19.3717
 20
7.82625
 11
-22.8539
 21
7.82625
  0
LINE
  8
0
 10
-22.8539
 20
7.82625
 11
-22.8914
 21
7.82484
  0
LINE
  8
0
 10
-22.8914
 20
7.82484
 11
-22.9536
 21
7.81622
  0
LINE
  8
0
 10
-22.9536
 20
7.81622
 11
-23.0142
 21
7.79987
  0
LINE
  8
0
 10
-23.0142
 20
7.79987
 11
-23.0723
 21
7.77605
  0
LINE
  8
0
 10
-23.0723
 20
7.77605
 11
-23.1269
 21
7.74513
  0
LINE
  8
0
 10
-23.1269
 20
7.74513
 11
-23.1773
 21
7.70761
  0
LINE
  8
0
 10
-23.1773
 20
7.70761
 11
-23.2225
 21
7.66408
  0
LINE
  8
0
 10
-23.2225
 20
7.66408
 11
-23.262
 21
7.61522
  0
LINE
  8
0
 10
-23.262
 20
7.61522
 11
-23.295
 21
7.5618
  0
LINE
  8
0
 10
-23.295
 20
7.5618
 11
-23.321
 21
7.50467
  0
LINE
  8
0
 10
-23.321
 20
7.50467
 11
-23.3397
 21
7.44472
  0
LINE
  8
0
 10
-23.3397
 20
7.44472
 11
-24.04
 21
4.57314
  0
LINE
  8
0
 10
-24.04
 20
4.57314
 11
-25.5951
 21
4.57314
  0
LINE
  8
0
 10
-19.7935
 20
8.97107
 11
-19.7323
 21
8.98508
  0
LINE
  8
0
 10
-19.7323
 20
8.98508
 11
-19.6734
 21
9.00665
  0
LINE
  8
0
 10
-19.6734
 20
9.00665
 11
-19.6176
 21
9.03545
  0
LINE
  8
0
 10
-19.6176
 20
9.03545
 11
-19.5658
 21
9.07101
  0
LINE
  8
0
 10
-19.5658
 20
9.07101
 11
-19.5189
 21
9.11278
  0
LINE
  8
0
 10
-19.5189
 20
9.11278
 11
-19.4777
 21
9.1601
  0
LINE
  8
0
 10
-19.4777
 20
9.1601
 11
-19.4426
 21
9.21222
  0
LINE
  8
0
 10
-19.4426
 20
9.21222
 11
-19.4144
 21
9.26831
  0
LINE
  8
0
 10
-19.4144
 20
9.26831
 11
-19.3935
 21
9.3275
  0
LINE
  8
0
 10
-19.3935
 20
9.3275
 11
-19.3801
 21
9.38884
  0
LINE
  8
0
 10
-19.3801
 20
9.38884
 11
-19.3745
 21
9.45139
  0
LINE
  8
0
 10
-19.3745
 20
9.45139
 11
-19.3768
 21
9.51413
  0
LINE
  8
0
 10
-19.3768
 20
9.51413
 11
-19.3869
 21
9.5761
  0
LINE
  8
0
 10
-19.3869
 20
9.5761
 11
-20.621
 21
14.9654
  0
LINE
  8
0
 10
-20.621
 20
14.9654
 11
-20.6488
 21
15.0507
  0
LINE
  8
0
 10
-20.6488
 20
15.0507
 11
-20.6771
 21
15.1067
  0
LINE
  8
0
 10
-20.6771
 20
15.1067
 11
-20.7122
 21
15.1588
  0
LINE
  8
0
 10
-20.7122
 20
15.1588
 11
-20.7536
 21
15.206
  0
LINE
  8
0
 10
-20.7536
 20
15.206
 11
-20.8005
 21
15.2477
  0
LINE
  8
0
 10
-20.8005
 20
15.2477
 11
-20.8523
 21
15.2832
  0
LINE
  8
0
 10
-20.8523
 20
15.2832
 11
-20.9082
 21
15.3119
  0
LINE
  8
0
 10
-20.9082
 20
15.3119
 11
-20.9672
 21
15.3334
  0
LINE
  8
0
 10
-20.9672
 20
15.3334
 11
-21.0284
 21
15.3473
  0
LINE
  8
0
 10
-21.0284
 20
15.3473
 11
-21.0909
 21
15.3535
  0
LINE
  8
0
 10
-21.0909
 20
15.3535
 11
-21.1536
 21
15.3517
  0
LINE
  8
0
 10
-21.1536
 20
15.3517
 11
-21.2157
 21
15.3421
  0
LINE
  8
0
 10
-21.2157
 20
15.3421
 11
-21.2761
 21
15.3248
  0
LINE
  8
0
 10
-21.2761
 20
15.3248
 11
-21.3338
 21
15.3001
  0
LINE
  8
0
 10
-21.3338
 20
15.3001
 11
-21.3879
 21
15.2683
  0
LINE
  8
0
 10
-21.3879
 20
15.2683
 11
-21.4377
 21
15.23
  0
LINE
  8
0
 10
-21.4377
 20
15.23
 11
-21.4823
 21
15.1858
  0
LINE
  8
0
 10
-21.4823
 20
15.1858
 11
-21.5209
 21
15.1363
  0
LINE
  8
0
 10
-21.5209
 20
15.1363
 11
-21.5531
 21
15.0824
  0
LINE
  8
0
 10
-21.5531
 20
15.0824
 11
-21.5782
 21
15.0249
  0
LINE
  8
0
 10
-21.5782
 20
15.0249
 11
-21.596
 21
14.9646
  0
LINE
  8
0
 10
-21.596
 20
14.9646
 11
-22.8214
 21
9.57535
  0
LINE
  8
0
 10
-22.8214
 20
9.57535
 11
-22.8328
 21
9.4959
  0
LINE
  8
0
 10
-22.8328
 20
9.4959
 11
-22.8328
 21
9.43309
  0
LINE
  8
0
 10
-22.8328
 20
9.43309
 11
-22.825
 21
9.3708
  0
LINE
  8
0
 10
-22.825
 20
9.3708
 11
-22.8093
 21
9.30998
  0
LINE
  8
0
 10
-22.8093
 20
9.30998
 11
-22.7862
 21
9.2516
  0
LINE
  8
0
 10
-22.7862
 20
9.2516
 11
-22.756
 21
9.19658
  0
LINE
  8
0
 10
-22.756
 20
9.19658
 11
-22.7191
 21
9.14578
  0
LINE
  8
0
 10
-22.7191
 20
9.14578
 11
-22.6761
 21
9.10001
  0
LINE
  8
0
 10
-22.6761
 20
9.10001
 11
-22.6277
 21
9.05998
  0
LINE
  8
0
 10
-22.6277
 20
9.05998
 11
-22.5747
 21
9.02634
  0
LINE
  8
0
 10
-22.5747
 20
9.02634
 11
-22.5179
 21
8.9996
  0
LINE
  8
0
 10
-22.5179
 20
8.9996
 11
-22.4581
 21
8.98019
  0
LINE
  8
0
 10
-22.4581
 20
8.98019
 11
-22.3965
 21
8.96843
  0
LINE
  8
0
 10
-22.3965
 20
8.96843
 11
-22.3338
 21
8.96449
  0
LINE
  8
0
 10
-22.3338
 20
8.96449
 11
-19.8743
 21
8.96449
  0
LINE
  8
0
 10
-19.8743
 20
8.96449
 11
-19.7935
 21
8.97107
  0
LINE
  8
0
 10
-22.3338
 20
9.46449
 11
-21.1084
 21
14.8538
  0
LINE
  8
0
 10
-21.1084
 20
14.8538
 11
-19.8743
 21
9.46449
  0
LINE
  8
0
 10
-19.8743
 20
9.46449
 11
-22.3338
 21
9.46449
  0
LINE
  8
0
 10
-12.5822
 20
13.6384
 11
-8.89723
 21
4.07314
  0
LINE
  8
0
 10
-8.89723
 20
4.07314
 11
-6.1203
 21
4.07314
  0
LINE
  8
0
 10
-6.1203
 20
4.07314
 11
-6.1203
 21
17.2354
  0
LINE
  8
0
 10
-6.1203
 20
17.2354
 11
-8.41246
 21
17.2354
  0
LINE
  8
0
 10
-8.41246
 20
17.2354
 11
-8.41246
 21
7.6701
  0
LINE
  8
0
 10
-8.41246
 20
7.6701
 11
-12.0798
 21
17.2354
  0
LINE
  8
0
 10
-12.0798
 20
17.2354
 11
-14.8742
 21
17.2354
  0
LINE
  8
0
 10
-14.8742
 20
17.2354
 11
-14.8742
 21
4.07314
  0
LINE
  8
0
 10
-14.8742
 20
4.07314
 11
-12.5822
 21
4.07314
  0
LINE
  8
0
 10
-12.5822
 20
4.07314
 11
-12.5822
 21
13.6384
  0
LINE
  8
0
 10
-14.3742
 20
4.57314
 11
-14.3742
 21
16.7354
  0
LINE
  8
0
 10
-14.3742
 20
16.7354
 11
-12.4235
 21
16.7354
  0
LINE
  8
0
 10
-12.4235
 20
16.7354
 11
-8.87932
 21
7.4911
  0
LINE
  8
0
 10
-8.87932
 20
7.4911
 11
-8.85062
 21
7.42923
  0
LINE
  8
0
 10
-8.85062
 20
7.42923
 11
-8.81697
 21
7.37621
  0
LINE
  8
0
 10
-8.81697
 20
7.37621
 11
-8.77695
 21
7.32784
  0
LINE
  8
0
 10
-8.77695
 20
7.32784
 11
-8.73117
 21
7.28485
  0
LINE
  8
0
 10
-8.73117
 20
7.28485
 11
-8.68037
 21
7.24794
  0
LINE
  8
0
 10
-8.68037
 20
7.24794
 11
-8.62535
 21
7.2177
  0
LINE
  8
0
 10
-8.62535
 20
7.2177
 11
-8.56697
 21
7.19458
  0
LINE
  8
0
 10
-8.56697
 20
7.19458
 11
-8.50615
 21
7.17896
  0
LINE
  8
0
 10
-8.50615
 20
7.17896
 11
-8.44386
 21
7.1711
  0
LINE
  8
0
 10
-8.44386
 20
7.1711
 11
-8.38106
 21
7.1711
  0
LINE
  8
0
 10
-8.38106
 20
7.1711
 11
-8.31877
 21
7.17896
  0
LINE
  8
0
 10
-8.31877
 20
7.17896
 11
-8.25795
 21
7.19458
  0
LINE
  8
0
 10
-8.25795
 20
7.19458
 11
-8.19957
 21
7.2177
  0
LINE
  8
0
 10
-8.19957
 20
7.2177
 11
-8.14455
 21
7.24794
  0
LINE
  8
0
 10
-8.14455
 20
7.24794
 11
-8.09375
 21
7.28485
  0
LINE
  8
0
 10
-8.09375
 20
7.28485
 11
-8.04797
 21
7.32784
  0
LINE
  8
0
 10
-8.04797
 20
7.32784
 11
-8.00795
 21
7.37621
  0
LINE
  8
0
 10
-8.00795
 20
7.37621
 11
-7.9743
 21
7.42923
  0
LINE
  8
0
 10
-7.9743
 20
7.42923
 11
-7.94757
 21
7.48604
  0
LINE
  8
0
 10
-7.94757
 20
7.48604
 11
-7.92816
 21
7.54576
  0
LINE
  8
0
 10
-7.92816
 20
7.54576
 11
-7.9164
 21
7.60744
  0
LINE
  8
0
 10
-7.9164
 20
7.60744
 11
-7.91246
 21
7.6701
  0
LINE
  8
0
 10
-7.91246
 20
7.6701
 11
-7.91246
 21
16.7354
  0
LINE
  8
0
 10
-7.91246
 20
16.7354
 11
-6.6203
 21
16.7354
  0
LINE
  8
0
 10
-6.6203
 20
16.7354
 11
-6.6203
 21
4.57314
  0
LINE
  8
0
 10
-6.6203
 20
4.57314
 11
-8.55405
 21
4.57314
  0
LINE
  8
0
 10
-8.55405
 20
4.57314
 11
-12.1156
 21
13.8181
  0
LINE
  8
0
 10
-12.1156
 20
13.8181
 11
-12.1441
 21
13.8793
  0
LINE
  8
0
 10
-12.1441
 20
13.8793
 11
-12.1777
 21
13.9323
  0
LINE
  8
0
 10
-12.1777
 20
13.9323
 11
-12.2177
 21
13.9807
  0
LINE
  8
0
 10
-12.2177
 20
13.9807
 11
-12.2635
 21
14.0236
  0
LINE
  8
0
 10
-12.2635
 20
14.0236
 11
-12.3143
 21
14.0605
  0
LINE
  8
0
 10
-12.3143
 20
14.0605
 11
-12.3693
 21
14.0908
  0
LINE
  8
0
 10
-12.3693
 20
14.0908
 11
-12.4277
 21
14.1139
  0
LINE
  8
0
 10
-12.4277
 20
14.1139
 11
-12.4885
 21
14.1295
  0
LINE
  8
0
 10
-12.4885
 20
14.1295
 11
-12.5508
 21
14.1374
  0
LINE
  8
0
 10
-12.5508
 20
14.1374
 11
-12.6136
 21
14.1374
  0
LINE
  8
0
 10
-12.6136
 20
14.1374
 11
-12.6759
 21
14.1295
  0
LINE
  8
0
 10
-12.6759
 20
14.1295
 11
-12.7367
 21
14.1139
  0
LINE
  8
0
 10
-12.7367
 20
14.1139
 11
-12.7951
 21
14.0908
  0
LINE
  8
0
 10
-12.7951
 20
14.0908
 11
-12.8501
 21
14.0605
  0
LINE
  8
0
 10
-12.8501
 20
14.0605
 11
-12.9009
 21
14.0236
  0
LINE
  8
0
 10
-12.9009
 20
14.0236
 11
-12.9467
 21
13.9807
  0
LINE
  8
0
 10
-12.9467
 20
13.9807
 11
-12.9867
 21
13.9323
  0
LINE
  8
0
 10
-12.9867
 20
13.9323
 11
-13.0204
 21
13.8793
  0
LINE
  8
0
 10
-13.0204
 20
13.8793
 11
-13.0471
 21
13.8224
  0
LINE
  8
0
 10
-13.0471
 20
13.8224
 11
-13.0665
 21
13.7627
  0
LINE
  8
0
 10
-13.0665
 20
13.7627
 11
-13.0783
 21
13.701
  0
LINE
  8
0
 10
-13.0783
 20
13.701
 11
-13.0822
 21
13.6384
  0
LINE
  8
0
 10
-13.0822
 20
13.6384
 11
-13.0822
 21
4.57314
  0
LINE
  8
0
 10
-13.0822
 20
4.57314
 11
-14.3742
 21
4.57314
  0
LINE
  8
0
 10
9.0809
 20
9.27313
 11
9.90952
 21
9.27313
  0
LINE
  8
0
 10
9.90952
 20
9.27313
 11
10.174
 21
9.24274
  0
LINE
  8
0
 10
10.174
 20
9.24274
 11
10.4284
 21
9.15154
  0
LINE
  8
0
 10
10.4284
 20
9.15154
 11
10.6727
 21
8.99954
  0
LINE
  8
0
 10
10.6727
 20
8.99954
 11
10.9069
 21
8.78676
  0
LINE
  8
0
 10
10.9069
 20
8.78676
 11
11.1311
 21
8.51317
  0
LINE
  8
0
 10
11.1311
 20
8.51317
 11
11.3452
 21
8.17877
  0
LINE
  8
0
 10
11.3452
 20
8.17877
 11
11.5492
 21
7.7836
  0
LINE
  8
0
 10
11.5492
 20
7.7836
 11
11.5811
 21
7.71526
  0
LINE
  8
0
 10
11.5811
 20
7.71526
 11
11.6111
 21
7.65123
  0
LINE
  8
0
 10
11.6111
 20
7.65123
 11
11.6394
 21
7.59151
  0
LINE
  8
0
 10
11.6394
 20
7.59151
 11
11.6658
 21
7.53612
  0
LINE
  8
0
 10
11.6658
 20
7.53612
 11
11.6905
 21
7.48503
  0
LINE
  8
0
 10
11.6905
 20
7.48503
 11
11.7133
 21
7.43826
  0
LINE
  8
0
 10
11.7133
 20
7.43826
 11
11.7343
 21
7.3958
  0
LINE
  8
0
 10
11.7343
 20
7.3958
 11
13.3212
 21
4.07314
  0
LINE
  8
0
 10
13.3212
 20
4.07314
 11
16.1775
 21
4.07314
  0
LINE
  8
0
 10
16.1775
 20
4.07314
 11
13.7972
 21
8.80605
  0
LINE
  8
0
 10
13.7972
 20
8.80605
 11
13.6814
 21
9.03183
  0
LINE
  8
0
 10
13.6814
 20
9.03183
 11
13.5708
 21
9.23549
  0
LINE
  8
0
 10
13.5708
 20
9.23549
 11
13.4655
 21
9.41701
  0
LINE
  8
0
 10
13.4655
 20
9.41701
 11
13.3654
 21
9.57639
  0
LINE
  8
0
 10
13.3654
 20
9.57639
 11
13.2705
 21
9.71362
  0
LINE
  8
0
 10
13.2705
 20
9.71362
 11
13.1808
 21
9.82874
  0
LINE
  8
0
 10
13.1808
 20
9.82874
 11
13.0963
 21
9.92171
  0
LINE
  8
0
 10
13.0963
 20
9.92171
 11
13.0124
 21
9.99937
  0
LINE
  8
0
 10
13.0124
 20
9.99937
 11
12.9244
 21
10.0686
  0
LINE
  8
0
 10
12.9244
 20
10.0686
 11
12.8322
 21
10.1293
  0
LINE
  8
0
 10
12.8322
 20
10.1293
 11
12.7359
 21
10.1816
  0
LINE
  8
0
 10
12.7359
 20
10.1816
 11
12.6354
 21
10.2255
  0
LINE
  8
0
 10
12.6354
 20
10.2255
 11
12.5308
 21
10.2609
  0
LINE
  8
0
 10
12.5308
 20
10.2609
 11
12.422
 21
10.2878
  0
LINE
  8
0
 10
12.422
 20
10.2878
 11
12.7653
 21
10.3463
  0
LINE
  8
0
 10
12.7653
 20
10.3463
 11
13.0848
 21
10.431
  0
LINE
  8
0
 10
13.0848
 20
10.431
 11
13.3805
 21
10.542
  0
LINE
  8
0
 10
13.3805
 20
10.542
 11
13.6526
 21
10.6793
  0
LINE
  8
0
 10
13.6526
 20
10.6793
 11
13.9008
 21
10.8428
  0
LINE
  8
0
 10
13.9008
 20
10.8428
 11
14.1254
 21
11.0327
  0
LINE
  8
0
 10
14.1254
 20
11.0327
 11
14.3261
 21
11.2487
  0
LINE
  8
0
 10
14.3261
 20
11.2487
 11
14.5016
 21
11.4893
  0
LINE
  8
0
 10
14.5016
 20
11.4893
 11
14.65
 21
11.7526
  0
LINE
  8
0
 10
14.65
 20
11.7526
 11
14.7714
 21
12.0385
  0
LINE
  8
0
 10
14.7714
 20
12.0385
 11
14.8659
 21
12.3471
  0
LINE
  8
0
 10
14.8659
 20
12.3471
 11
14.9333
 21
12.6784
  0
LINE
  8
0
 10
14.9333
 20
12.6784
 11
14.9738
 21
13.0323
  0
LINE
  8
0
 10
14.9738
 20
13.0323
 11
14.9873
 21
13.4089
  0
LINE
  8
0
 10
14.9873
 20
13.4089
 11
14.9647
 21
13.9653
  0
LINE
  8
0
 10
14.9647
 20
13.9653
 11
14.897
 21
14.4755
  0
LINE
  8
0
 10
14.897
 20
14.4755
 11
14.7841
 21
14.9397
  0
LINE
  8
0
 10
14.7841
 20
14.9397
 11
14.626
 21
15.3579
  0
LINE
  8
0
 10
14.626
 20
15.3579
 11
14.4228
 21
15.73
  0
LINE
  8
0
 10
14.4228
 20
15.73
 11
14.1744
 21
16.056
  0
LINE
  8
0
 10
14.1744
 20
16.056
 11
13.8809
 21
16.336
  0
LINE
  8
0
 10
13.8809
 20
16.336
 11
13.5356
 21
16.5746
  0
LINE
  8
0
 10
13.5356
 20
16.5746
 11
13.1318
 21
16.7765
  0
LINE
  8
0
 10
13.1318
 20
16.7765
 11
12.6695
 21
16.9417
  0
LINE
  8
0
 10
12.6695
 20
16.9417
 11
12.1488
 21
17.0702
  0
LINE
  8
0
 10
12.1488
 20
17.0702
 11
11.5695
 21
17.1619
  0
LINE
  8
0
 10
11.5695
 20
17.1619
 11
10.9319
 21
17.217
  0
LINE
  8
0
 10
10.9319
 20
17.217
 11
10.2357
 21
17.2354
  0
LINE
  8
0
 10
10.2357
 20
17.2354
 11
6.48024
 21
17.2354
  0
LINE
  8
0
 10
6.48024
 20
17.2354
 11
6.48024
 21
4.07314
  0
LINE
  8
0
 10
6.48024
 20
4.07314
 11
9.0809
 21
4.07314
  0
LINE
  8
0
 10
9.0809
 20
4.07314
 11
9.0809
 21
9.27313
  0
LINE
  8
0
 10
6.98024
 20
4.57314
 11
6.98024
 21
16.7354
  0
LINE
  8
0
 10
6.98024
 20
16.7354
 11
10.2289
 21
16.7354
  0
LINE
  8
0
 10
10.2289
 20
16.7354
 11
10.904
 21
16.7176
  0
LINE
  8
0
 10
10.904
 20
16.7176
 11
11.5088
 21
16.6653
  0
LINE
  8
0
 10
11.5088
 20
16.6653
 11
12.0495
 21
16.5797
  0
LINE
  8
0
 10
12.0495
 20
16.5797
 11
12.5251
 21
16.4623
  0
LINE
  8
0
 10
12.5251
 20
16.4623
 11
12.9352
 21
16.3158
  0
LINE
  8
0
 10
12.9352
 20
16.3158
 11
13.2803
 21
16.1432
  0
LINE
  8
0
 10
13.2803
 20
16.1432
 11
13.5643
 21
15.947
  0
LINE
  8
0
 10
13.5643
 20
15.947
 11
13.8006
 21
15.7216
  0
LINE
  8
0
 10
13.8006
 20
15.7216
 11
14.0022
 21
15.457
  0
LINE
  8
0
 10
14.0022
 20
15.457
 11
14.1706
 21
15.1487
  0
LINE
  8
0
 10
14.1706
 20
15.1487
 11
14.3055
 21
14.7917
  0
LINE
  8
0
 10
14.3055
 20
14.7917
 11
14.4048
 21
14.3833
  0
LINE
  8
0
 10
14.4048
 20
14.3833
 11
14.4661
 21
13.9221
  0
LINE
  8
0
 10
14.4661
 20
13.9221
 11
14.487
 21
13.4078
  0
LINE
  8
0
 10
14.487
 20
13.4078
 11
14.4748
 21
13.0698
  0
LINE
  8
0
 10
14.4748
 20
13.0698
 11
14.439
 21
12.7567
  0
LINE
  8
0
 10
14.439
 20
12.7567
 11
14.3807
 21
12.4704
  0
LINE
  8
0
 10
14.3807
 20
12.4704
 11
14.301
 21
12.2099
  0
LINE
  8
0
 10
14.301
 20
12.2099
 11
14.2007
 21
11.9738
  0
LINE
  8
0
 10
14.2007
 20
11.9738
 11
14.0804
 21
11.7603
  0
LINE
  8
0
 10
14.0804
 20
11.7603
 11
13.9396
 21
11.5673
  0
LINE
  8
0
 10
13.9396
 20
11.5673
 11
13.7795
 21
11.395
  0
LINE
  8
0
 10
13.7795
 20
11.395
 11
13.6009
 21
11.244
  0
LINE
  8
0
 10
13.6009
 20
11.244
 11
13.4015
 21
11.1127
  0
LINE
  8
0
 10
13.4015
 20
11.1127
 11
13.1794
 21
11.0006
  0
LINE
  8
0
 10
13.1794
 20
11.0006
 11
12.9326
 21
10.9079
  0
LINE
  8
0
 10
12.9326
 20
10.9079
 11
12.6589
 21
10.8353
  0
LINE
  8
0
 10
12.6589
 20
10.8353
 11
12.338
 21
10.7807
  0
LINE
  8
0
 10
12.338
 20
10.7807
 11
12.2935
 21
10.771
  0
LINE
  8
0
 10
12.2935
 20
10.771
 11
12.2339
 21
10.751
  0
LINE
  8
0
 10
12.2339
 20
10.751
 11
12.1773
 21
10.7238
  0
LINE
  8
0
 10
12.1773
 20
10.7238
 11
12.1246
 21
10.6897
  0
LINE
  8
0
 10
12.1246
 20
10.6897
 11
12.0766
 21
10.6493
  0
LINE
  8
0
 10
12.0766
 20
10.6493
 11
12.034
 21
10.6031
  0
LINE
  8
0
 10
12.034
 20
10.6031
 11
11.9975
 21
10.552
  0
LINE
  8
0
 10
11.9975
 20
10.552
 11
11.9678
 21
10.4967
  0
LINE
  8
0
 10
11.9678
 20
10.4967
 11
11.9452
 21
10.4381
  0
LINE
  8
0
 10
11.9452
 20
10.4381
 11
11.9301
 21
10.3772
  0
LINE
  8
0
 10
11.9301
 20
10.3772
 11
11.9228
 21
10.3148
  0
LINE
  8
0
 10
11.9228
 20
10.3148
 11
11.9233
 21
10.252
  0
LINE
  8
0
 10
11.9233
 20
10.252
 11
11.9317
 21
10.1898
  0
LINE
  8
0
 10
11.9317
 20
10.1898
 11
11.9479
 21
10.1291
  0
LINE
  8
0
 10
11.9479
 20
10.1291
 11
11.9715
 21
10.071
  0
LINE
  8
0
 10
11.9715
 20
10.071
 11
12.0022
 21
10.0162
  0
LINE
  8
0
 10
12.0022
 20
10.0162
 11
12.0396
 21
9.96571
  0
LINE
  8
0
 10
12.0396
 20
9.96571
 11
12.0829
 21
9.92032
  0
LINE
  8
0
 10
12.0829
 20
9.92032
 11
12.1317
 21
9.88072
  0
LINE
  8
0
 10
12.1317
 20
9.88072
 11
12.185
 21
9.84755
  0
LINE
  8
0
 10
12.185
 20
9.84755
 11
12.242
 21
9.8213
  0
LINE
  8
0
 10
12.242
 20
9.8213
 11
12.3019
 21
9.80243
  0
LINE
  8
0
 10
12.3019
 20
9.80243
 11
12.3904
 21
9.78053
  0
LINE
  8
0
 10
12.3904
 20
9.78053
 11
12.4549
 21
9.75871
  0
LINE
  8
0
 10
12.4549
 20
9.75871
 11
12.5163
 21
9.7319
  0
LINE
  8
0
 10
12.5163
 20
9.7319
 11
12.5748
 21
9.70015
  0
LINE
  8
0
 10
12.5748
 20
9.70015
 11
12.6318
 21
9.6626
  0
LINE
  8
0
 10
12.6318
 20
9.6626
 11
12.6876
 21
9.61873
  0
LINE
  8
0
 10
12.6876
 20
9.61873
 11
12.7408
 21
9.56946
  0
LINE
  8
0
 10
12.7408
 20
9.56946
 11
12.7979
 21
9.50659
  0
LINE
  8
0
 10
12.7979
 20
9.50659
 11
12.8674
 21
9.41751
  0
LINE
  8
0
 10
12.8674
 20
9.41751
 11
12.9478
 21
9.30118
  0
LINE
  8
0
 10
12.9478
 20
9.30118
 11
13.0375
 21
9.15839
  0
LINE
  8
0
 10
13.0375
 20
9.15839
 11
13.1348
 21
8.99071
  0
LINE
  8
0
 10
13.1348
 20
8.99071
 11
13.239
 21
8.7988
  0
LINE
  8
0
 10
13.239
 20
8.7988
 11
13.3522
 21
8.57791
  0
LINE
  8
0
 10
13.3522
 20
8.57791
 11
15.3663
 21
4.57314
  0
LINE
  8
0
 10
15.3663
 20
4.57314
 11
13.6365
 21
4.57314
  0
LINE
  8
0
 10
13.6365
 20
4.57314
 11
12.1855
 21
7.61128
  0
LINE
  8
0
 10
12.1855
 20
7.61128
 11
12.1823
 21
7.6178
  0
LINE
  8
0
 10
12.1823
 20
7.6178
 11
12.1626
 21
7.65758
  0
LINE
  8
0
 10
12.1626
 20
7.65758
 11
12.1398
 21
7.70435
  0
LINE
  8
0
 10
12.1398
 20
7.70435
 11
12.1162
 21
7.75336
  0
LINE
  8
0
 10
12.1162
 20
7.75336
 11
12.0913
 21
7.80536
  0
LINE
  8
0
 10
12.0913
 20
7.80536
 11
12.0631
 21
7.86508
  0
LINE
  8
0
 10
12.0631
 20
7.86508
 11
12.0337
 21
7.92766
  0
LINE
  8
0
 10
12.0337
 20
7.92766
 11
12.0024
 21
7.99486
  0
LINE
  8
0
 10
12.0024
 20
7.99486
 11
11.9935
 21
8.01297
  0
LINE
  8
0
 10
11.9935
 20
8.01297
 11
11.7895
 21
8.40814
  0
LINE
  8
0
 10
11.7895
 20
8.40814
 11
11.7663
 21
8.44838
  0
LINE
  8
0
 10
11.7663
 20
8.44838
 11
11.5522
 21
8.78278
  0
LINE
  8
0
 10
11.5522
 20
8.78278
 11
11.5179
 21
8.83006
  0
LINE
  8
0
 10
11.5179
 20
8.83006
 11
11.2937
 21
9.10365
  0
LINE
  8
0
 10
11.2937
 20
9.10365
 11
11.2431
 21
9.15686
  0
LINE
  8
0
 10
11.2431
 20
9.15686
 11
11.0089
 21
9.36964
  0
LINE
  8
0
 10
11.0089
 20
9.36964
 11
10.9368
 21
9.42409
  0
LINE
  8
0
 10
10.9368
 20
9.42409
 11
10.6925
 21
9.57608
  0
LINE
  8
0
 10
10.6925
 20
9.57608
 11
10.6548
 21
9.59734
  0
LINE
  8
0
 10
10.6548
 20
9.59734
 11
10.5971
 21
9.62221
  0
LINE
  8
0
 10
10.5971
 20
9.62221
 11
10.3427
 21
9.71341
  0
LINE
  8
0
 10
10.3427
 20
9.71341
 11
10.2929
 21
9.72839
  0
LINE
  8
0
 10
10.2929
 20
9.72839
 11
10.2311
 21
9.73947
  0
LINE
  8
0
 10
10.2311
 20
9.73947
 11
9.9666
 21
9.76987
  0
LINE
  8
0
 10
9.9666
 20
9.76987
 11
9.90952
 21
9.77313
  0
LINE
  8
0
 10
9.90952
 20
9.77313
 11
9.0809
 21
9.77313
  0
LINE
  8
0
 10
9.0809
 20
9.77313
 11
8.98721
 21
9.76428
  0
LINE
  8
0
 10
8.98721
 20
9.76428
 11
8.92639
 21
9.74866
  0
LINE
  8
0
 10
8.92639
 20
9.74866
 11
8.86801
 21
9.72554
  0
LINE
  8
0
 10
8.86801
 20
9.72554
 11
8.81299
 21
9.6953
  0
LINE
  8
0
 10
8.81299
 20
9.6953
 11
8.76219
 21
9.65839
  0
LINE
  8
0
 10
8.76219
 20
9.65839
 11
8.71642
 21
9.6154
  0
LINE
  8
0
 10
8.71642
 20
9.6154
 11
8.67639
 21
9.56703
  0
LINE
  8
0
 10
8.67639
 20
9.56703
 11
8.64275
 21
9.51401
  0
LINE
  8
0
 10
8.64275
 20
9.51401
 11
8.61601
 21
9.4572
  0
LINE
  8
0
 10
8.61601
 20
9.4572
 11
8.5966
 21
9.39748
  0
LINE
  8
0
 10
8.5966
 20
9.39748
 11
8.58484
 21
9.3358
  0
LINE
  8
0
 10
8.58484
 20
9.3358
 11
8.5809
 21
9.27313
  0
LINE
  8
0
 10
8.5809
 20
9.27313
 11
8.5809
 21
4.57314
  0
LINE
  8
0
 10
8.5809
 20
4.57314
 11
6.98024
 21
4.57314
  0
LINE
  8
0
 10
10.3209
 20
10.9615
 11
10.6133
 21
10.97
  0
LINE
  8
0
 10
10.6133
 20
10.97
 11
10.6463
 21
10.9721
  0
LINE
  8
0
 10
10.6463
 20
10.9721
 11
10.9141
 21
10.9977
  0
LINE
  8
0
 10
10.9141
 20
10.9977
 11
10.953
 21
11.003
  0
LINE
  8
0
 10
10.953
 20
11.003
 11
11.1961
 21
11.0457
  0
LINE
  8
0
 10
11.1961
 20
11.0457
 11
11.2416
 21
11.0559
  0
LINE
  8
0
 10
11.2416
 20
11.0559
 11
11.4601
 21
11.1156
  0
LINE
  8
0
 10
11.4601
 20
11.1156
 11
11.5125
 21
11.1331
  0
LINE
  8
0
 10
11.5125
 20
11.1331
 11
11.7063
 21
11.21
  0
LINE
  8
0
 10
11.7063
 20
11.21
 11
11.7647
 21
11.2376
  0
LINE
  8
0
 10
11.7647
 20
11.2376
 11
11.9339
 21
11.3316
  0
LINE
  8
0
 10
11.9339
 20
11.3316
 11
11.9957
 21
11.3722
  0
LINE
  8
0
 10
11.9957
 20
11.3722
 11
12.1403
 21
11.4832
  0
LINE
  8
0
 10
12.1403
 20
11.4832
 11
12.2001
 21
11.5373
  0
LINE
  8
0
 10
12.2001
 20
11.5373
 11
12.3229
 21
11.668
  0
LINE
  8
0
 10
12.3229
 20
11.668
 11
12.3719
 21
11.7292
  0
LINE
  8
0
 10
12.3719
 20
11.7292
 11
12.4758
 21
11.882
  0
LINE
  8
0
 10
12.4758
 20
11.882
 11
12.5121
 21
11.9446
  0
LINE
  8
0
 10
12.5121
 20
11.9446
 11
12.5971
 21
12.1195
  0
LINE
  8
0
 10
12.5971
 20
12.1195
 11
12.6214
 21
12.179
  0
LINE
  8
0
 10
12.6214
 20
12.179
 11
12.6875
 21
12.3759
  0
LINE
  8
0
 10
12.6875
 20
12.3759
 11
12.7023
 21
12.4297
  0
LINE
  8
0
 10
12.7023
 20
12.4297
 11
12.7495
 21
12.6488
  0
LINE
  8
0
 10
12.7495
 20
12.6488
 11
12.7573
 21
12.6958
  0
LINE
  8
0
 10
12.7573
 20
12.6958
 11
12.7857
 21
12.937
  0
LINE
  8
0
 10
12.7857
 20
12.937
 11
12.7888
 21
12.9774
  0
LINE
  8
0
 10
12.7888
 20
12.9774
 11
12.7982
 21
13.2407
  0
LINE
  8
0
 10
12.7982
 20
13.2407
 11
12.7982
 21
13.2764
  0
LINE
  8
0
 10
12.7982
 20
13.2764
 11
12.7888
 21
13.5396
  0
LINE
  8
0
 10
12.7888
 20
13.5396
 11
12.7858
 21
13.5797
  0
LINE
  8
0
 10
12.7858
 20
13.5797
 11
12.7578
 21
13.8207
  0
LINE
  8
0
 10
12.7578
 20
13.8207
 11
12.75
 21
13.8674
  0
LINE
  8
0
 10
12.75
 20
13.8674
 11
12.7033
 21
14.086
  0
LINE
  8
0
 10
12.7033
 20
14.086
 11
12.6886
 21
14.1397
  0
LINE
  8
0
 10
12.6886
 20
14.1397
 11
12.6232
 21
14.336
  0
LINE
  8
0
 10
12.6232
 20
14.336
 11
12.5989
 21
14.3955
  0
LINE
  8
0
 10
12.5989
 20
14.3955
 11
12.5147
 21
14.5696
  0
LINE
  8
0
 10
12.5147
 20
14.5696
 11
12.4785
 21
14.6324
  0
LINE
  8
0
 10
12.4785
 20
14.6324
 11
12.3756
 21
14.7842
  0
LINE
  8
0
 10
12.3756
 20
14.7842
 11
12.3262
 21
14.8459
  0
LINE
  8
0
 10
12.3262
 20
14.8459
 11
12.2045
 21
14.9754
  0
LINE
  8
0
 10
12.2045
 20
14.9754
 11
12.1441
 21
15.03
  0
LINE
  8
0
 10
12.1441
 20
15.03
 11
12.0005
 21
15.1399
  0
LINE
  8
0
 10
12.0005
 20
15.1399
 11
11.9379
 21
15.1808
  0
LINE
  8
0
 10
11.9379
 20
15.1808
 11
11.7691
 21
15.2738
  0
LINE
  8
0
 10
11.7691
 20
15.2738
 11
11.7104
 21
15.3013
  0
LINE
  8
0
 10
11.7104
 20
15.3013
 11
11.5165
 21
15.3774
  0
LINE
  8
0
 10
11.5165
 20
15.3774
 11
11.4643
 21
15.3947
  0
LINE
  8
0
 10
11.4643
 20
15.3947
 11
11.2451
 21
15.4538
  0
LINE
  8
0
 10
11.2451
 20
15.4538
 11
11.2
 21
15.4638
  0
LINE
  8
0
 10
11.2
 20
15.4638
 11
10.9557
 21
15.5061
  0
LINE
  8
0
 10
10.9557
 20
15.5061
 11
10.9173
 21
15.5112
  0
LINE
  8
0
 10
10.9173
 20
15.5112
 11
10.6478
 21
15.5365
  0
LINE
  8
0
 10
10.6478
 20
15.5365
 11
10.6153
 21
15.5385
  0
LINE
  8
0
 10
10.6153
 20
15.5385
 11
10.3206
 21
15.547
  0
LINE
  8
0
 10
10.3206
 20
15.547
 11
10.3063
 21
15.5472
  0
LINE
  8
0
 10
10.3063
 20
15.5472
 11
9.0809
 21
15.5472
  0
LINE
  8
0
 10
9.0809
 20
15.5472
 11
8.98721
 21
15.5383
  0
LINE
  8
0
 10
8.98721
 20
15.5383
 11
8.92639
 21
15.5227
  0
LINE
  8
0
 10
8.92639
 20
15.5227
 11
8.86801
 21
15.4996
  0
LINE
  8
0
 10
8.86801
 20
15.4996
 11
8.81299
 21
15.4694
  0
LINE
  8
0
 10
8.81299
 20
15.4694
 11
8.76219
 21
15.4324
  0
LINE
  8
0
 10
8.76219
 20
15.4324
 11
8.71642
 21
15.3895
  0
LINE
  8
0
 10
8.71642
 20
15.3895
 11
8.67639
 21
15.3411
  0
LINE
  8
0
 10
8.67639
 20
15.3411
 11
8.64275
 21
15.2881
  0
LINE
  8
0
 10
8.64275
 20
15.2881
 11
8.61601
 21
15.2313
  0
LINE
  8
0
 10
8.61601
 20
15.2313
 11
8.5966
 21
15.1715
  0
LINE
  8
0
 10
8.5966
 20
15.1715
 11
8.58484
 21
15.1099
  0
LINE
  8
0
 10
8.58484
 20
15.1099
 11
8.5809
 21
15.0472
  0
LINE
  8
0
 10
8.5809
 20
15.0472
 11
8.5809
 21
11.4613
  0
LINE
  8
0
 10
8.5809
 20
11.4613
 11
8.58975
 21
11.3676
  0
LINE
  8
0
 10
8.58975
 20
11.3676
 11
8.60538
 21
11.3068
  0
LINE
  8
0
 10
8.60538
 20
11.3068
 11
8.62849
 21
11.2484
  0
LINE
  8
0
 10
8.62849
 20
11.2484
 11
8.65874
 21
11.1934
  0
LINE
  8
0
 10
8.65874
 20
11.1934
 11
8.69565
 21
11.1426
  0
LINE
  8
0
 10
8.69565
 20
11.1426
 11
8.73863
 21
11.0968
  0
LINE
  8
0
 10
8.73863
 20
11.0968
 11
8.787
 21
11.0568
  0
LINE
  8
0
 10
8.787
 20
11.0568
 11
8.84003
 21
11.0231
  0
LINE
  8
0
 10
8.84003
 20
11.0231
 11
8.89684
 21
10.9964
  0
LINE
  8
0
 10
8.89684
 20
10.9964
 11
8.95656
 21
10.977
  0
LINE
  8
0
 10
8.95656
 20
10.977
 11
9.01823
 21
10.9652
  0
LINE
  8
0
 10
9.01823
 20
10.9652
 11
9.0809
 21
10.9613
  0
LINE
  8
0
 10
9.0809
 20
10.9613
 11
10.3063
 21
10.9613
  0
LINE
  8
0
 10
10.3063
 20
10.9613
 11
10.3209
 21
10.9615
  0
LINE
  8
0
 10
9.0809
 20
11.4613
 11
9.0809
 21
15.0472
  0
LINE
  8
0
 10
9.0809
 20
15.0472
 11
10.3063
 21
15.0472
  0
LINE
  8
0
 10
10.3063
 20
15.0472
 11
10.601
 21
15.0387
  0
LINE
  8
0
 10
10.601
 20
15.0387
 11
10.8705
 21
15.0134
  0
LINE
  8
0
 10
10.8705
 20
15.0134
 11
11.1148
 21
14.9711
  0
LINE
  8
0
 10
11.1148
 20
14.9711
 11
11.3339
 21
14.912
  0
LINE
  8
0
 10
11.3339
 20
14.912
 11
11.5278
 21
14.8359
  0
LINE
  8
0
 10
11.5278
 20
14.8359
 11
11.6966
 21
14.7429
  0
LINE
  8
0
 10
11.6966
 20
14.7429
 11
11.8401
 21
14.633
  0
LINE
  8
0
 10
11.8401
 20
14.633
 11
11.9618
 21
14.5036
  0
LINE
  8
0
 10
11.9618
 20
14.5036
 11
12.0647
 21
14.3518
  0
LINE
  8
0
 10
12.0647
 20
14.3518
 11
12.1488
 21
14.1778
  0
LINE
  8
0
 10
12.1488
 20
14.1778
 11
12.2143
 21
13.9814
  0
LINE
  8
0
 10
12.2143
 20
13.9814
 11
12.2611
 21
13.7628
  0
LINE
  8
0
 10
12.2611
 20
13.7628
 11
12.2892
 21
13.5219
  0
LINE
  8
0
 10
12.2892
 20
13.5219
 11
12.2985
 21
13.2587
  0
LINE
  8
0
 10
12.2985
 20
13.2587
 11
12.2891
 21
12.9953
  0
LINE
  8
0
 10
12.2891
 20
12.9953
 11
12.2607
 21
12.7541
  0
LINE
  8
0
 10
12.2607
 20
12.7541
 11
12.2135
 21
12.535
  0
LINE
  8
0
 10
12.2135
 20
12.535
 11
12.1474
 21
12.338
  0
LINE
  8
0
 10
12.1474
 20
12.338
 11
12.0624
 21
12.1632
  0
LINE
  8
0
 10
12.0624
 20
12.1632
 11
11.9585
 21
12.0104
  0
LINE
  8
0
 10
11.9585
 20
12.0104
 11
11.8357
 21
11.8797
  0
LINE
  8
0
 10
11.8357
 20
11.8797
 11
11.6912
 21
11.7687
  0
LINE
  8
0
 10
11.6912
 20
11.7687
 11
11.522
 21
11.6748
  0
LINE
  8
0
 10
11.522
 20
11.6748
 11
11.3281
 21
11.5979
  0
LINE
  8
0
 10
11.3281
 20
11.5979
 11
11.1096
 21
11.5381
  0
LINE
  8
0
 10
11.1096
 20
11.5381
 11
10.8665
 21
11.4954
  0
LINE
  8
0
 10
10.8665
 20
11.4954
 11
10.5987
 21
11.4698
  0
LINE
  8
0
 10
10.5987
 20
11.4698
 11
10.3063
 21
11.4613
  0
LINE
  8
0
 10
10.3063
 20
11.4613
 11
9.0809
 21
11.4613
  0
LINE
  8
0
 10
-0.429337
 20
4.10471
 11
0.381851
 21
4.19943
  0
LINE
  8
0
 10
0.381851
 20
4.19943
 11
1.11931
 21
4.3573
  0
LINE
  8
0
 10
1.11931
 20
4.3573
 11
1.78299
 21
4.57832
  0
LINE
  8
0
 10
1.78299
 20
4.57832
 11
2.37291
 21
4.86249
  0
LINE
  8
0
 10
2.37291
 20
4.86249
 11
2.88908
 21
5.20979
  0
LINE
  8
0
 10
2.88908
 20
5.20979
 11
3.33148
 21
5.62027
  0
LINE
  8
0
 10
3.33148
 20
5.62027
 11
3.70805
 21
6.10219
  0
LINE
  8
0
 10
3.70805
 20
6.10219
 11
4.02667
 21
6.66382
  0
LINE
  8
0
 10
4.02667
 20
6.66382
 11
4.28737
 21
7.30515
  0
LINE
  8
0
 10
4.28737
 20
7.30515
 11
4.49013
 21
8.02618
  0
LINE
  8
0
 10
4.49013
 20
8.02618
 11
4.63496
 21
8.82692
  0
LINE
  8
0
 10
4.63496
 20
8.82692
 11
4.72186
 21
9.70737
  0
LINE
  8
0
 10
4.72186
 20
9.70737
 11
4.75082
 21
10.6675
  0
LINE
  8
0
 10
4.75082
 20
10.6675
 11
4.72186
 21
11.6251
  0
LINE
  8
0
 10
4.72186
 20
11.6251
 11
4.63496
 21
12.503
  0
LINE
  8
0
 10
4.63496
 20
12.503
 11
4.49013
 21
13.3012
  0
LINE
  8
0
 10
4.49013
 20
13.3012
 11
4.28737
 21
14.0197
  0
LINE
  8
0
 10
4.28737
 20
14.0197
 11
4.02667
 21
14.6585
  0
LINE
  8
0
 10
4.02667
 20
14.6585
 11
3.70805
 21
15.2176
  0
LINE
  8
0
 10
3.70805
 20
15.2176
 11
3.33148
 21
15.6969
  0
LINE
  8
0
 10
3.33148
 20
15.6969
 11
2.88908
 21
16.1051
  0
LINE
  8
0
 10
2.88908
 20
16.1051
 11
2.37291
 21
16.4505
  0
LINE
  8
0
 10
2.37291
 20
16.4505
 11
1.78299
 21
16.733
  0
LINE
  8
0
 10
1.78299
 20
16.733
 11
1.11931
 21
16.9528
  0
LINE
  8
0
 10
1.11931
 20
16.9528
 11
0.381851
 21
17.1098
  0
LINE
  8
0
 10
0.381851
 20
17.1098
 11
-0.429337
 21
17.204
  0
LINE
  8
0
 10
-0.429337
 20
17.204
 11
-1.3143
 21
17.2354
  0
LINE
  8
0
 10
-1.3143
 20
17.2354
 11
-4.10008
 21
17.2354
  0
LINE
  8
0
 10
-4.10008
 20
17.2354
 11
-4.10008
 21
4.07314
  0
LINE
  8
0
 10
-4.10008
 20
4.07314
 11
-1.3143
 21
4.07314
  0
LINE
  8
0
 10
-1.3143
 20
4.07314
 11
-0.429337
 21
4.10471
  0
LINE
  8
0
 10
-3.60008
 20
4.57314
 11
-3.60008
 21
16.7354
  0
LINE
  8
0
 10
-3.60008
 20
16.7354
 11
-1.32298
 21
16.7354
  0
LINE
  8
0
 10
-1.32298
 20
16.7354
 11
-0.467133
 21
16.705
  0
LINE
  8
0
 10
-0.467133
 20
16.705
 11
0.300751
 21
16.6158
  0
LINE
  8
0
 10
0.300751
 20
16.6158
 11
0.988251
 21
16.4695
  0
LINE
  8
0
 10
0.988251
 20
16.4695
 11
1.59567
 21
16.2683
  0
LINE
  8
0
 10
1.59567
 20
16.2683
 11
2.12463
 21
16.015
  0
LINE
  8
0
 10
2.12463
 20
16.015
 11
2.57863
 21
15.7112
  0
LINE
  8
0
 10
2.57863
 20
15.7112
 11
2.96301
 21
15.3566
  0
LINE
  8
0
 10
2.96301
 20
15.3566
 11
3.29201
 21
14.9378
  0
LINE
  8
0
 10
3.29201
 20
14.9378
 11
3.57607
 21
14.4394
  0
LINE
  8
0
 10
3.57607
 20
14.4394
 11
3.81383
 21
13.8568
  0
LINE
  8
0
 10
3.81383
 20
13.8568
 11
4.00241
 21
13.1885
  0
LINE
  8
0
 10
4.00241
 20
13.1885
 11
4.13939
 21
12.4336
  0
LINE
  8
0
 10
4.13939
 20
12.4336
 11
4.22261
 21
11.5928
  0
LINE
  8
0
 10
4.22261
 20
11.5928
 11
4.2506
 21
10.6674
  0
LINE
  8
0
 10
4.2506
 20
10.6674
 11
4.22261
 21
9.73962
  0
LINE
  8
0
 10
4.22261
 20
9.73962
 11
4.13934
 21
8.89603
  0
LINE
  8
0
 10
4.13934
 20
8.89603
 11
4.00235
 21
8.13864
  0
LINE
  8
0
 10
4.00235
 20
8.13864
 11
3.81361
 21
7.46747
  0
LINE
  8
0
 10
3.81361
 20
7.46747
 11
3.57571
 21
6.88222
  0
LINE
  8
0
 10
3.57571
 20
6.88222
 11
3.29137
 21
6.38098
  0
LINE
  8
0
 10
3.29137
 20
6.38098
 11
2.96213
 21
5.95964
  0
LINE
  8
0
 10
2.96213
 20
5.95964
 11
2.57759
 21
5.60286
  0
LINE
  8
0
 10
2.57759
 20
5.60286
 11
2.1236
 21
5.29739
  0
LINE
  8
0
 10
2.1236
 20
5.29739
 11
1.59465
 21
5.0426
  0
LINE
  8
0
 10
1.59465
 20
5.0426
 11
0.987595
 21
4.84042
  0
LINE
  8
0
 10
0.987595
 20
4.84042
 11
0.300385
 21
4.69331
  0
LINE
  8
0
 10
0.300385
 20
4.69331
 11
-0.467377
 21
4.60367
  0
LINE
  8
0
 10
-0.467377
 20
4.60367
 11
-1.32314
 21
4.57314
  0
LINE
  8
0
 10
-1.32314
 20
4.57314
 11
-3.60008
 21
4.57314
  0
LINE
  8
0
 10
-0.770767
 20
5.91992
 11
-0.350479
 21
5.93962
  0
LINE
  8
0
 10
-0.350479
 20
5.93962
 11
-0.297913
 21
5.94489
  0
LINE
  8
0
 10
-0.297913
 20
5.94489
 11
0.08638
 21
6.00397
  0
LINE
  8
0
 10
0.08638
 20
6.00397
 11
0.146423
 21
6.01701
  0
LINE
  8
0
 10
0.146423
 20
6.01701
 11
0.494751
 21
6.11548
  0
LINE
  8
0
 10
0.494751
 20
6.11548
 11
0.560623
 21
6.13919
  0
LINE
  8
0
 10
0.560623
 20
6.13919
 11
0.872955
 21
6.27704
  0
LINE
  8
0
 10
0.872955
 20
6.27704
 11
0.94101
 21
6.3136
  0
LINE
  8
0
 10
0.94101
 20
6.3136
 11
1.21736
 21
6.49084
  0
LINE
  8
0
 10
1.21736
 20
6.49084
 11
1.28217
 21
6.5403
  0
LINE
  8
0
 10
1.28217
 20
6.5403
 11
1.52252
 21
6.75693
  0
LINE
  8
0
 10
1.52252
 20
6.75693
 11
1.57854
 21
6.81641
  0
LINE
  8
0
 10
1.57854
 20
6.81641
 11
1.78291
 21
7.07243
  0
LINE
  8
0
 10
1.78291
 20
7.07243
 11
1.82645
 21
7.13661
  0
LINE
  8
0
 10
1.82645
 20
7.13661
 11
1.99951
 21
7.43997
  0
LINE
  8
0
 10
1.99951
 20
7.43997
 11
2.02809
 21
7.49867
  0
LINE
  8
0
 10
2.02809
 20
7.49867
 11
2.17455
 21
7.85724
  0
LINE
  8
0
 10
2.17455
 20
7.85724
 11
2.19194
 21
7.90724
  0
LINE
  8
0
 10
2.19194
 20
7.90724
 11
2.31175
 21
8.32104
  0
LINE
  8
0
 10
2.31175
 20
8.32104
 11
2.3219
 21
8.36266
  0
LINE
  8
0
 10
2.3219
 20
8.36266
 11
2.41508
 21
8.83168
  0
LINE
  8
0
 10
2.41508
 20
8.83168
 11
2.42068
 21
8.86613
  0
LINE
  8
0
 10
2.42068
 20
8.86613
 11
2.48726
 21
9.39038
  0
LINE
  8
0
 10
2.48726
 20
9.39038
 11
2.49005
 21
9.41899
  0
LINE
  8
0
 10
2.49005
 20
9.41899
 11
2.52998
 21
9.99844
  0
LINE
  8
0
 10
2.52998
 20
9.99844
 11
2.53107
 21
10.0223
  0
LINE
  8
0
 10
2.53107
 20
10.0223
 11
2.54439
 21
10.657
  0
LINE
  8
0
 10
2.54439
 20
10.657
 11
2.54439
 21
10.6781
  0
LINE
  8
0
 10
2.54439
 20
10.6781
 11
2.53107
 21
11.3079
  0
LINE
  8
0
 10
2.53107
 20
11.3079
 11
2.52997
 21
11.332
  0
LINE
  8
0
 10
2.52997
 20
11.332
 11
2.49004
 21
11.9072
  0
LINE
  8
0
 10
2.49004
 20
11.9072
 11
2.4872
 21
11.936
  0
LINE
  8
0
 10
2.4872
 20
11.936
 11
2.42062
 21
12.4565
  0
LINE
  8
0
 10
2.42062
 20
12.4565
 11
2.41495
 21
12.4911
  0
LINE
  8
0
 10
2.41495
 20
12.4911
 11
2.32176
 21
12.957
  0
LINE
  8
0
 10
2.32176
 20
12.957
 11
2.31152
 21
12.9988
  0
LINE
  8
0
 10
2.31152
 20
12.9988
 11
2.19171
 21
13.41
  0
LINE
  8
0
 10
2.19171
 20
13.41
 11
2.17416
 21
13.4601
  0
LINE
  8
0
 10
2.17416
 20
13.4601
 11
2.02771
 21
13.8166
  0
LINE
  8
0
 10
2.02771
 20
13.8166
 11
1.99898
 21
13.8753
  0
LINE
  8
0
 10
1.99898
 20
13.8753
 11
1.82591
 21
14.1771
  0
LINE
  8
0
 10
1.82591
 20
14.1771
 11
1.78223
 21
14.2412
  0
LINE
  8
0
 10
1.78223
 20
14.2412
 11
1.57785
 21
14.4961
  0
LINE
  8
0
 10
1.57785
 20
14.4961
 11
1.5217
 21
14.5555
  0
LINE
  8
0
 10
1.5217
 20
14.5555
 11
1.28134
 21
14.7711
  0
LINE
  8
0
 10
1.28134
 20
14.7711
 11
1.21649
 21
14.8204
  0
LINE
  8
0
 10
1.21649
 20
14.8204
 11
0.94014
 21
14.9968
  0
LINE
  8
0
 10
0.94014
 20
14.9968
 11
0.872208
 21
15.0332
  0
LINE
  8
0
 10
0.872208
 20
15.0332
 11
0.559875
 21
15.1704
  0
LINE
  8
0
 10
0.559875
 20
15.1704
 11
0.494202
 21
15.194
  0
LINE
  8
0
 10
0.494202
 20
15.194
 11
0.145874
 21
15.292
  0
LINE
  8
0
 10
0.145874
 20
15.292
 11
0.0860443
 21
15.3049
  0
LINE
  8
0
 10
0.0860443
 20
15.3049
 11
-0.298248
 21
15.3638
  0
LINE
  8
0
 10
-0.298248
 20
15.3638
 11
-0.350586
 21
15.369
  0
LINE
  8
0
 10
-0.350586
 20
15.369
 11
-0.770874
 21
15.3886
  0
LINE
  8
0
 10
-0.770874
 20
15.3886
 11
-0.794174
 21
15.3891
  0
LINE
  8
0
 10
-0.794174
 20
15.3891
 11
-1.49942
 21
15.3891
  0
LINE
  8
0
 10
-1.49942
 20
15.3891
 11
-1.59311
 21
15.3803
  0
LINE
  8
0
 10
-1.59311
 20
15.3803
 11
-1.65393
 21
15.3646
  0
LINE
  8
0
 10
-1.65393
 20
15.3646
 11
-1.71231
 21
15.3415
  0
LINE
  8
0
 10
-1.71231
 20
15.3415
 11
-1.76733
 21
15.3113
  0
LINE
  8
0
 10
-1.76733
 20
15.3113
 11
-1.81813
 21
15.2744
  0
LINE
  8
0
 10
-1.81813
 20
15.2744
 11
-1.86391
 21
15.2314
  0
LINE
  8
0
 10
-1.86391
 20
15.2314
 11
-1.90393
 21
15.183
  0
LINE
  8
0
 10
-1.90393
 20
15.183
 11
-1.93758
 21
15.13
  0
LINE
  8
0
 10
-1.93758
 20
15.13
 11
-1.96431
 21
15.0732
  0
LINE
  8
0
 10
-1.96431
 20
15.0732
 11
-1.98372
 21
15.0135
  0
LINE
  8
0
 10
-1.98372
 20
15.0135
 11
-1.99548
 21
14.9518
  0
LINE
  8
0
 10
-1.99548
 20
14.9518
 11
-1.99942
 21
14.8891
  0
LINE
  8
0
 10
-1.99942
 20
14.8891
 11
-1.99942
 21
6.41937
  0
LINE
  8
0
 10
-1.99942
 20
6.41937
 11
-1.99057
 21
6.32568
  0
LINE
  8
0
 10
-1.99057
 20
6.32568
 11
-1.97495
 21
6.26486
  0
LINE
  8
0
 10
-1.97495
 20
6.26486
 11
-1.95183
 21
6.20648
  0
LINE
  8
0
 10
-1.95183
 20
6.20648
 11
-1.92159
 21
6.15146
  0
LINE
  8
0
 10
-1.92159
 20
6.15146
 11
-1.88467
 21
6.10066
  0
LINE
  8
0
 10
-1.88467
 20
6.10066
 11
-1.84169
 21
6.05489
  0
LINE
  8
0
 10
-1.84169
 20
6.05489
 11
-1.79332
 21
6.01486
  0
LINE
  8
0
 10
-1.79332
 20
6.01486
 11
-1.7403
 21
5.98122
  0
LINE
  8
0
 10
-1.7403
 20
5.98122
 11
-1.68349
 21
5.95448
  0
LINE
  8
0
 10
-1.68349
 20
5.95448
 11
-1.62376
 21
5.93507
  0
LINE
  8
0
 10
-1.62376
 20
5.93507
 11
-1.56209
 21
5.92331
  0
LINE
  8
0
 10
-1.56209
 20
5.92331
 11
-1.49942
 21
5.91937
  0
LINE
  8
0
 10
-1.49942
 20
5.91937
 11
-0.794174
 21
5.91937
  0
LINE
  8
0
 10
-0.794174
 20
5.91937
 11
-0.770767
 21
5.91992
  0
LINE
  8
0
 10
-1.49942
 20
6.41937
 11
-1.49942
 21
14.8891
  0
LINE
  8
0
 10
-1.49942
 20
14.8891
 11
-0.794174
 21
14.8891
  0
LINE
  8
0
 10
-0.794174
 20
14.8891
 11
-0.373886
 21
14.8695
  0
LINE
  8
0
 10
-0.373886
 20
14.8695
 11
0.0104065
 21
14.8107
  0
LINE
  8
0
 10
0.0104065
 20
14.8107
 11
0.358734
 21
14.7127
  0
LINE
  8
0
 10
0.358734
 20
14.7127
 11
0.671066
 21
14.5754
  0
LINE
  8
0
 10
0.671066
 20
14.5754
 11
0.947418
 21
14.399
  0
LINE
  8
0
 10
0.947418
 20
14.399
 11
1.18777
 21
14.1833
  0
LINE
  8
0
 10
1.18777
 20
14.1833
 11
1.39215
 21
13.9284
  0
LINE
  8
0
 10
1.39215
 20
13.9284
 11
1.56522
 21
13.6266
  0
LINE
  8
0
 10
1.56522
 20
13.6266
 11
1.71167
 21
13.2701
  0
LINE
  8
0
 10
1.71167
 20
13.2701
 11
1.83148
 21
12.8589
  0
LINE
  8
0
 10
1.83148
 20
12.8589
 11
1.92467
 21
12.3931
  0
LINE
  8
0
 10
1.92467
 20
12.3931
 11
1.99124
 21
11.8726
  0
LINE
  8
0
 10
1.99124
 20
11.8726
 11
2.03117
 21
11.2974
  0
LINE
  8
0
 10
2.03117
 20
11.2974
 11
2.04449
 21
10.6675
  0
LINE
  8
0
 10
2.04449
 20
10.6675
 11
2.03117
 21
10.0328
  0
LINE
  8
0
 10
2.03117
 20
10.0328
 11
1.99124
 21
9.45337
  0
LINE
  8
0
 10
1.99124
 20
9.45337
 11
1.92467
 21
8.92912
  0
LINE
  8
0
 10
1.92467
 20
8.92912
 11
1.83148
 21
8.4601
  0
LINE
  8
0
 10
1.83148
 20
8.4601
 11
1.71167
 21
8.0463
  0
LINE
  8
0
 10
1.71167
 20
8.0463
 11
1.56522
 21
7.68773
  0
LINE
  8
0
 10
1.56522
 20
7.68773
 11
1.39215
 21
7.38437
  0
LINE
  8
0
 10
1.39215
 20
7.38437
 11
1.18777
 21
7.12834
  0
LINE
  8
0
 10
1.18777
 20
7.12834
 11
0.947418
 21
6.91171
  0
LINE
  8
0
 10
0.947418
 20
6.91171
 11
0.671066
 21
6.73447
  0
LINE
  8
0
 10
0.671066
 20
6.73447
 11
0.358734
 21
6.59662
  0
LINE
  8
0
 10
0.358734
 20
6.59662
 11
0.0104065
 21
6.49815
  0
LINE
  8
0
 10
0.0104065
 20
6.49815
 11
-0.373886
 21
6.43907
  0
LINE
  8
0
 10
-0.373886
 20
6.43907
 11
-0.794174
 21
6.41937
  0
LINE
  8
0
 10
-0.794174
 20
6.41937
 11
-1.49942
 21
6.41937
  0
LINE
  8
0
 10
24.1395
 20
10.5461
 11
18.5769
 21
10.5461
  0
LINE
  8
0
 10
18.5769
 20
10.5461
 11
18.5769
 21
7.98354
  0
LINE
  8
0
 10
18.5769
 20
7.98354
 11
24.1395
 21
7.98354
  0
LINE
  8
0
 10
24.1395
 20
7.98354
 11
24.1395
 21
10.5461
  0
LINE
  8
0
 10
19.0769
 20
8.48354
 11
19.0769
 21
10.0461
  0
LINE
  8
0
 10
19.0769
 20
10.0461
 11
23.6395
 21
10.0461
  0
LINE
  8
0
 10
23.6395
 20
10.0461
 11
23.6395
 21
8.48354
  0
LINE
  8
0
 10
23.6395
 20
8.48354
 11
19.0769
 21
8.48354
  0
LINE
  8
0
 10
5.43048
 20
-10.0148
 11
6.92912
 21
-16.9269
  0
LINE
  8
0
 10
6.92912
 20
-16.9269
 11
9.35336
 21
-16.9269
  0
LINE
  8
0
 10
9.35336
 20
-16.9269
 11
10.8697
 21
-3.76465
  0
LINE
  8
0
 10
10.8697
 20
-3.76465
 11
8.57765
 21
-3.76465
  0
LINE
  8
0
 10
8.57765
 20
-3.76465
 11
7.83704
 21
-13.4267
  0
LINE
  8
0
 10
7.83704
 20
-13.4267
 11
6.51468
 21
-7.17584
  0
LINE
  8
0
 10
6.51468
 20
-7.17584
 11
4.35486
 21
-7.17584
  0
LINE
  8
0
 10
4.35486
 20
-7.17584
 11
3.21776
 21
-13.4267
  0
LINE
  8
0
 10
3.21776
 20
-13.4267
 11
2.27448
 21
-3.76465
  0
LINE
  8
0
 10
2.27448
 20
-3.76465
 11
0
 21
-3.76465
  0
LINE
  8
0
 10
0
 20
-3.76465
 11
1.62213
 21
-16.9269
  0
LINE
  8
0
 10
1.62213
 20
-16.9269
 11
4.02869
 21
-16.9269
  0
LINE
  8
0
 10
4.02869
 20
-16.9269
 11
5.43048
 21
-10.0148
  0
LINE
  8
0
 10
2.0643
 20
-16.4269
 11
0.565399
 21
-4.26465
  0
LINE
  8
0
 10
0.565399
 20
-4.26465
 11
1.82091
 21
-4.26465
  0
LINE
  8
0
 10
1.82091
 20
-4.26465
 11
2.72012
 21
-13.4753
  0
LINE
  8
0
 10
2.72012
 20
-13.4753
 11
2.72743
 21
-13.5246
  0
LINE
  8
0
 10
2.72743
 20
-13.5246
 11
2.74358
 21
-13.5853
  0
LINE
  8
0
 10
2.74358
 20
-13.5853
 11
2.76718
 21
-13.6435
  0
LINE
  8
0
 10
2.76718
 20
-13.6435
 11
2.7979
 21
-13.6983
  0
LINE
  8
0
 10
2.7979
 20
-13.6983
 11
2.83524
 21
-13.7487
  0
LINE
  8
0
 10
2.83524
 20
-13.7487
 11
2.87862
 21
-13.7941
  0
LINE
  8
0
 10
2.87862
 20
-13.7941
 11
2.92734
 21
-13.8338
  0
LINE
  8
0
 10
2.92734
 20
-13.8338
 11
2.98064
 21
-13.8669
  0
LINE
  8
0
 10
2.98064
 20
-13.8669
 11
3.03767
 21
-13.8932
  0
LINE
  8
0
 10
3.03767
 20
-13.8932
 11
3.09756
 21
-13.9121
  0
LINE
  8
0
 10
3.09756
 20
-13.9121
 11
3.15933
 21
-13.9233
  0
LINE
  8
0
 10
3.15933
 20
-13.9233
 11
3.22203
 21
-13.9267
  0
LINE
  8
0
 10
3.22203
 20
-13.9267
 11
3.28467
 21
-13.9222
  0
LINE
  8
0
 10
3.28467
 20
-13.9222
 11
3.34624
 21
-13.91
  0
LINE
  8
0
 10
3.34624
 20
-13.91
 11
3.40579
 21
-13.89
  0
LINE
  8
0
 10
3.40579
 20
-13.89
 11
3.46237
 21
-13.8628
  0
LINE
  8
0
 10
3.46237
 20
-13.8628
 11
3.51511
 21
-13.8287
  0
LINE
  8
0
 10
3.51511
 20
-13.8287
 11
3.56314
 21
-13.7883
  0
LINE
  8
0
 10
3.56314
 20
-13.7883
 11
3.60573
 21
-13.7421
  0
LINE
  8
0
 10
3.60573
 20
-13.7421
 11
3.6422
 21
-13.691
  0
LINE
  8
0
 10
3.6422
 20
-13.691
 11
3.67198
 21
-13.6358
  0
LINE
  8
0
 10
3.67198
 20
-13.6358
 11
3.6946
 21
-13.5772
  0
LINE
  8
0
 10
3.6946
 20
-13.5772
 11
3.70969
 21
-13.5162
  0
LINE
  8
0
 10
3.70969
 20
-13.5162
 11
4.77211
 21
-7.67584
  0
LINE
  8
0
 10
4.77211
 20
-7.67584
 11
6.10938
 21
-7.67584
  0
LINE
  8
0
 10
6.10938
 20
-7.67584
 11
7.34785
 21
-13.5302
  0
LINE
  8
0
 10
7.34785
 20
-13.5302
 11
7.35944
 21
-13.5747
  0
LINE
  8
0
 10
7.35944
 20
-13.5747
 11
7.38176
 21
-13.6334
  0
LINE
  8
0
 10
7.38176
 20
-13.6334
 11
7.41125
 21
-13.6889
  0
LINE
  8
0
 10
7.41125
 20
-13.6889
 11
7.44746
 21
-13.7402
  0
LINE
  8
0
 10
7.44746
 20
-13.7402
 11
7.48981
 21
-13.7865
  0
LINE
  8
0
 10
7.48981
 20
-13.7865
 11
7.53764
 21
-13.8272
  0
LINE
  8
0
 10
7.53764
 20
-13.8272
 11
7.59019
 21
-13.8616
  0
LINE
  8
0
 10
7.59019
 20
-13.8616
 11
7.64664
 21
-13.8891
  0
LINE
  8
0
 10
7.64664
 20
-13.8891
 11
7.70609
 21
-13.9093
  0
LINE
  8
0
 10
7.70609
 20
-13.9093
 11
7.76759
 21
-13.9219
  0
LINE
  8
0
 10
7.76759
 20
-13.9219
 11
7.8302
 21
-13.9267
  0
LINE
  8
0
 10
7.8302
 20
-13.9267
 11
7.89291
 21
-13.9236
  0
LINE
  8
0
 10
7.89291
 20
-13.9236
 11
7.95474
 21
-13.9127
  0
LINE
  8
0
 10
7.95474
 20
-13.9127
 11
8.01472
 21
-13.8941
  0
LINE
  8
0
 10
8.01472
 20
-13.8941
 11
8.0719
 21
-13.8681
  0
LINE
  8
0
 10
8.0719
 20
-13.8681
 11
8.12537
 21
-13.8352
  0
LINE
  8
0
 10
8.12537
 20
-13.8352
 11
8.1743
 21
-13.7959
  0
LINE
  8
0
 10
8.1743
 20
-13.7959
 11
8.2179
 21
-13.7507
  0
LINE
  8
0
 10
8.2179
 20
-13.7507
 11
8.25549
 21
-13.7004
  0
LINE
  8
0
 10
8.25549
 20
-13.7004
 11
8.2865
 21
-13.6458
  0
LINE
  8
0
 10
8.2865
 20
-13.6458
 11
8.31041
 21
-13.5877
  0
LINE
  8
0
 10
8.31041
 20
-13.5877
 11
8.32686
 21
-13.5271
  0
LINE
  8
0
 10
8.32686
 20
-13.5271
 11
8.33557
 21
-13.465
  0
LINE
  8
0
 10
8.33557
 20
-13.465
 11
9.04079
 21
-4.26465
  0
LINE
  8
0
 10
9.04079
 20
-4.26465
 11
10.3088
 21
-4.26465
  0
LINE
  8
0
 10
10.3088
 20
-4.26465
 11
8.90765
 21
-16.4269
  0
LINE
  8
0
 10
8.90765
 20
-16.4269
 11
7.33234
 21
-16.4269
  0
LINE
  8
0
 10
7.33234
 20
-16.4269
 11
5.91913
 21
-9.90884
  0
LINE
  8
0
 10
5.91913
 20
-9.90884
 11
5.90778
 21
-9.8658
  0
LINE
  8
0
 10
5.90778
 20
-9.8658
 11
5.88533
 21
-9.80716
  0
LINE
  8
0
 10
5.88533
 20
-9.80716
 11
5.85573
 21
-9.75179
  0
LINE
  8
0
 10
5.85573
 20
-9.75179
 11
5.81941
 21
-9.70056
  0
LINE
  8
0
 10
5.81941
 20
-9.70056
 11
5.77696
 21
-9.6543
  0
LINE
  8
0
 10
5.77696
 20
-9.6543
 11
5.72905
 21
-9.61371
  0
LINE
  8
0
 10
5.72905
 20
-9.61371
 11
5.67642
 21
-9.57945
  0
LINE
  8
0
 10
5.67642
 20
-9.57945
 11
5.61992
 21
-9.55206
  0
LINE
  8
0
 10
5.61992
 20
-9.55206
 11
5.56044
 21
-9.53197
  0
LINE
  8
0
 10
5.56044
 20
-9.53197
 11
5.4989
 21
-9.51949
  0
LINE
  8
0
 10
5.4989
 20
-9.51949
 11
5.43628
 21
-9.51482
  0
LINE
  8
0
 10
5.43628
 20
-9.51482
 11
5.37357
 21
-9.51804
  0
LINE
  8
0
 10
5.37357
 20
-9.51804
 11
5.31175
 21
-9.52908
  0
LINE
  8
0
 10
5.31175
 20
-9.52908
 11
5.25182
 21
-9.54779
  0
LINE
  8
0
 10
5.25182
 20
-9.54779
 11
5.1947
 21
-9.57387
  0
LINE
  8
0
 10
5.1947
 20
-9.57387
 11
5.1413
 21
-9.6069
  0
LINE
  8
0
 10
5.1413
 20
-9.6069
 11
5.09245
 21
-9.64636
  0
LINE
  8
0
 10
5.09245
 20
-9.64636
 11
5.04895
 21
-9.69164
  0
LINE
  8
0
 10
5.04895
 20
-9.69164
 11
5.01144
 21
-9.74199
  0
LINE
  8
0
 10
5.01144
 20
-9.74199
 11
4.98056
 21
-9.79666
  0
LINE
  8
0
 10
4.98056
 20
-9.79666
 11
4.95677
 21
-9.85477
  0
LINE
  8
0
 10
4.95677
 20
-9.85477
 11
4.94046
 21
-9.91541
  0
LINE
  8
0
 10
4.94046
 20
-9.91541
 11
3.61992
 21
-16.4269
  0
LINE
  8
0
 10
3.61992
 20
-16.4269
 11
2.0643
 21
-16.4269
  0
LINE
  8
0
 10
-0.93602
 20
-14.6389
 11
-6.53395
 21
-14.6389
  0
LINE
  8
0
 10
-6.53395
 20
-14.6389
 11
-6.53395
 21
-11.1861
  0
LINE
  8
0
 10
-6.53395
 20
-11.1861
 11
-1.465
 21
-11.1861
  0
LINE
  8
0
 10
-1.465
 20
-11.1861
 11
-1.465
 21
-8.89809
  0
LINE
  8
0
 10
-1.465
 20
-8.89809
 11
-6.53395
 21
-8.89809
  0
LINE
  8
0
 10
-6.53395
 20
-8.89809
 11
-6.53395
 21
-6.05264
  0
LINE
  8
0
 10
-6.53395
 20
-6.05264
 11
-0.93602
 21
-6.05264
  0
LINE
  8
0
 10
-0.93602
 20
-6.05264
 11
-0.93602
 21
-3.76465
  0
LINE
  8
0
 10
-0.93602
 20
-3.76465
 11
-9.13448
 21
-3.76465
  0
LINE
  8
0
 10
-9.13448
 20
-3.76465
 11
-9.13448
 21
-16.9269
  0
LINE
  8
0
 10
-9.13448
 20
-16.9269
 11
-0.93602
 21
-16.9269
  0
LINE
  8
0
 10
-0.93602
 20
-16.9269
 11
-0.93602
 21
-14.6389
  0
LINE
  8
0
 10
-8.63448
 20
-16.4269
 11
-8.63448
 21
-4.26465
  0
LINE
  8
0
 10
-8.63448
 20
-4.26465
 11
-1.43602
 21
-4.26465
  0
LINE
  8
0
 10
-1.43602
 20
-4.26465
 11
-1.43602
 21
-5.55264
  0
LINE
  8
0
 10
-1.43602
 20
-5.55264
 11
-6.53395
 21
-5.55264
  0
LINE
  8
0
 10
-6.53395
 20
-5.55264
 11
-6.62764
 21
-5.56149
  0
LINE
  8
0
 10
-6.62764
 20
-5.56149
 11
-6.68846
 21
-5.57712
  0
LINE
  8
0
 10
-6.68846
 20
-5.57712
 11
-6.74684
 21
-5.60023
  0
LINE
  8
0
 10
-6.74684
 20
-5.60023
 11
-6.80186
 21
-5.63048
  0
LINE
  8
0
 10
-6.80186
 20
-5.63048
 11
-6.85266
 21
-5.66739
  0
LINE
  8
0
 10
-6.85266
 20
-5.66739
 11
-6.89844
 21
-5.71037
  0
LINE
  8
0
 10
-6.89844
 20
-5.71037
 11
-6.93846
 21
-5.75874
  0
LINE
  8
0
 10
-6.93846
 20
-5.75874
 11
-6.97211
 21
-5.81177
  0
LINE
  8
0
 10
-6.97211
 20
-5.81177
 11
-6.99884
 21
-5.86858
  0
LINE
  8
0
 10
-6.99884
 20
-5.86858
 11
-7.01825
 21
-5.9283
  0
LINE
  8
0
 10
-7.01825
 20
-5.9283
 11
-7.03001
 21
-5.98997
  0
LINE
  8
0
 10
-7.03001
 20
-5.98997
 11
-7.03395
 21
-6.05264
  0
LINE
  8
0
 10
-7.03395
 20
-6.05264
 11
-7.03395
 21
-8.89809
  0
LINE
  8
0
 10
-7.03395
 20
-8.89809
 11
-7.0251
 21
-8.99178
  0
LINE
  8
0
 10
-7.0251
 20
-8.99178
 11
-7.00948
 21
-9.0526
  0
LINE
  8
0
 10
-7.00948
 20
-9.0526
 11
-6.98636
 21
-9.11098
  0
LINE
  8
0
 10
-6.98636
 20
-9.11098
 11
-6.95612
 21
-9.166
  0
LINE
  8
0
 10
-6.95612
 20
-9.166
 11
-6.9192
 21
-9.2168
  0
LINE
  8
0
 10
-6.9192
 20
-9.2168
 11
-6.87622
 21
-9.26257
  0
LINE
  8
0
 10
-6.87622
 20
-9.26257
 11
-6.82785
 21
-9.3026
  0
LINE
  8
0
 10
-6.82785
 20
-9.3026
 11
-6.77483
 21
-9.33624
  0
LINE
  8
0
 10
-6.77483
 20
-9.33624
 11
-6.71802
 21
-9.36298
  0
LINE
  8
0
 10
-6.71802
 20
-9.36298
 11
-6.65829
 21
-9.38239
  0
LINE
  8
0
 10
-6.65829
 20
-9.38239
 11
-6.59662
 21
-9.39415
  0
LINE
  8
0
 10
-6.59662
 20
-9.39415
 11
-6.53395
 21
-9.39809
  0
LINE
  8
0
 10
-6.53395
 20
-9.39809
 11
-1.965
 21
-9.39809
  0
LINE
  8
0
 10
-1.965
 20
-9.39809
 11
-1.965
 21
-10.6861
  0
LINE
  8
0
 10
-1.965
 20
-10.6861
 11
-6.53395
 21
-10.6861
  0
LINE
  8
0
 10
-6.53395
 20
-10.6861
 11
-6.62764
 21
-10.6949
  0
LINE
  8
0
 10
-6.62764
 20
-10.6949
 11
-6.68846
 21
-10.7105
  0
LINE
  8
0
 10
-6.68846
 20
-10.7105
 11
-6.74684
 21
-10.7337
  0
LINE
  8
0
 10
-6.74684
 20
-10.7337
 11
-6.80186
 21
-10.7639
  0
LINE
  8
0
 10
-6.80186
 20
-10.7639
 11
-6.85266
 21
-10.8008
  0
LINE
  8
0
 10
-6.85266
 20
-10.8008
 11
-6.89844
 21
-10.8438
  0
LINE
  8
0
 10
-6.89844
 20
-10.8438
 11
-6.93846
 21
-10.8922
  0
LINE
  8
0
 10
-6.93846
 20
-10.8922
 11
-6.97211
 21
-10.9452
  0
LINE
  8
0
 10
-6.97211
 20
-10.9452
 11
-6.99884
 21
-11.002
  0
LINE
  8
0
 10
-6.99884
 20
-11.002
 11
-7.01825
 21
-11.0617
  0
LINE
  8
0
 10
-7.01825
 20
-11.0617
 11
-7.03001
 21
-11.1234
  0
LINE
  8
0
 10
-7.03001
 20
-11.1234
 11
-7.03395
 21
-11.1861
  0
LINE
  8
0
 10
-7.03395
 20
-11.1861
 11
-7.03395
 21
-14.6389
  0
LINE
  8
0
 10
-7.03395
 20
-14.6389
 11
-7.0251
 21
-14.7326
  0
LINE
  8
0
 10
-7.0251
 20
-14.7326
 11
-7.00948
 21
-14.7934
  0
LINE
  8
0
 10
-7.00948
 20
-14.7934
 11
-6.98636
 21
-14.8518
  0
LINE
  8
0
 10
-6.98636
 20
-14.8518
 11
-6.95612
 21
-14.9068
  0
LINE
  8
0
 10
-6.95612
 20
-14.9068
 11
-6.9192
 21
-14.9576
  0
LINE
  8
0
 10
-6.9192
 20
-14.9576
 11
-6.87622
 21
-15.0034
  0
LINE
  8
0
 10
-6.87622
 20
-15.0034
 11
-6.82785
 21
-15.0434
  0
LINE
  8
0
 10
-6.82785
 20
-15.0434
 11
-6.77483
 21
-15.077
  0
LINE
  8
0
 10
-6.77483
 20
-15.077
 11
-6.71802
 21
-15.1038
  0
LINE
  8
0
 10
-6.71802
 20
-15.1038
 11
-6.65829
 21
-15.1232
  0
LINE
  8
0
 10
-6.65829
 20
-15.1232
 11
-6.59662
 21
-15.1349
  0
LINE
  8
0
 10
-6.59662
 20
-15.1349
 11
-6.53395
 21
-15.1389
  0
LINE
  8
0
 10
-6.53395
 20
-15.1389
 11
-1.43602
 21
-15.1389
  0
LINE
  8
0
 10
-1.43602
 20
-15.1389
 11
-1.43602
 21
-16.4269
  0
LINE
  8
0
 10
-1.43602
 20
-16.4269
 11
-8.63448
 21
-16.4269
  0
ENDSEC
  0
SECTION
  2
OBJECTS
  0
DICTIONARY
  0
ENDSEC
  0
EOF
