<?xml version="1.0" standalone="no"?>
<!DOCTYPE svg PUBLIC "-//W3C//DTD SVG 1.1//EN" "http://www.w3.org/Graphics/SVG/1.1/DTD/svg11.dtd">
<svg width="52mm" height="35mm" viewBox="-27 -18 52 35" xmlns="http://www.w3.org/2000/svg" version="1.1">
<title>OpenSCAD Model</title>
<path d="
M -22.8539,-7.32625 L -19.3717,-7.32625 L -18.5608,-4.07314 L -15.9602,-4.07314 L -19.5128,-17.2354 L -22.6953,-17.2354
 L -26.248,-4.07314 L -23.6473,-4.07314 z
M -25.5951,-4.57314 L -22.3124,-16.7354 L -19.8957,-16.7354 L -16.613,-4.57314 L -18.1702,-4.57314 L -18.8866,-7.44719
 L -18.8962,-7.48076 L -18.9193,-7.53914 L -18.9496,-7.59416 L -18.9865,-7.64496 L -19.0295,-7.69073 L -19.0779,-7.73076
 L -19.1309,-7.7644 L -19.1877,-7.79114 L -19.2474,-7.81055 L -19.3091,-7.82231 L -19.3717,-7.82625 L -22.8539,-7.82625
 L -22.8914,-7.82484 L -22.9536,-7.81622 L -23.0142,-7.79987 L -23.0723,-7.77605 L -23.1269,-7.74513 L -23.1773,-7.70761
 L -23.2225,-7.66408 L -23.262,-7.61522 L -23.295,-7.5618 L -23.321,-7.50467 L -23.3397,-7.44472 L -24.04,-4.57314
 z
M -19.7935,-8.97107 L -19.7323,-8.98508 L -19.6734,-9.00665 L -19.6176,-9.03545 L -19.5658,-9.07101 L -19.5189,-9.11278
 L -19.4777,-9.1601 L -19.4426,-9.21222 L -19.4144,-9.26831 L -19.3935,-9.3275 L -19.3801,-9.38884 L -19.3745,-9.45139
 L -19.3768,-9.51413 L -19.3869,-9.5761 L -20.621,-14.9654 L -20.6488,-15.0507 L -20.6771,-15.1067 L -20.7122,-15.1588
 L -20.7536,-15.206 L -20.8005,-15.2477 L -20.8523,-15.2832 L -20.9082,-15.3119 L -20.9672,-15.3334 L -21.0284,-15.3473
 L -21.0909,-15.3535 L -21.1536,-15.3517 L -21.2157,-15.3421 L -21.2761,-15.3248 L -21.3338,-15.3001 L -21.3879,-15.2683
 L -21.4377,-15.23 L -21.4823,-15.1858 L -21.5209,-15.1363 L -21.5531,-15.0824 L -21.5782,-15.0249 L -21.596,-14.9646
 L -22.8214,-9.57535 L -22.8328,-9.4959 L -22.8328,-9.43309 L -22.825,-9.3708 L -22.8093,-9.30998 L -22.7862,-9.2516
 L -22.756,-9.19658 L -22.7191,-9.14578 L -22.6761,-9.10001 L -22.6277,-9.05998 L -22.5747,-9.02634 L -22.5179,-8.9996
 L -22.4581,-8.98019 L -22.3965,-8.96843 L -22.3338,-8.96449 L -19.8743,-8.96449 z
M -22.3338,-9.46449 L -21.1084,-14.8538 L -19.8743,-9.46449 z
M -12.5822,-13.6384 L -8.89723,-4.07314 L -6.1203,-4.07314 L -6.1203,-17.2354 L -8.41246,-17.2354 L -8.41246,-7.6701
 L -12.0798,-17.2354 L -14.8742,-17.2354 L -14.8742,-4.07314 L -12.5822,-4.07314 z
M -14.3742,-4.57314 L -14.3742,-16.7354 L -12.4235,-16.7354 L -8.87932,-7.4911 L -8.85062,-7.42923 L -8.81697,-7.37621
 L -8.77695,-7.32784 L -8.73117,-7.28485 L -8.68037,-7.24794 L -8.62535,-7.2177 L -8.56697,-7.19458 L -8.50615,-7.17896
 L -8.44386,-7.1711 L -8.38106,-7.1711 L -8.31877,-7.17896 L -8.25795,-7.19458 L -8.19957,-7.2177 L -8.14455,-7.24794
 L -8.09375,-7.28485 L -8.04797,-7.32784 L -8.00795,-7.37621 L -7.9743,-7.42923 L -7.94757,-7.48604 L -7.92816,-7.54576
 L -7.9164,-7.60744 L -7.91246,-7.6701 L -7.91246,-16.7354 L -6.6203,-16.7354 L -6.6203,-4.57314 L -8.55405,-4.57314
 L -12.1156,-13.8181 L -12.1441,-13.8793 L -12.1777,-13.9323 L -12.2177,-13.9807 L -12.2635,-14.0236 L -12.3143,-14.0605
 L -12.3693,-14.0908 L -12.4277,-14.1139 L -12.4885,-14.1295 L -12.5508,-14.1374 L -12.6136,-14.1374 L -12.6759,-14.1295
 L -12.7367,-14.1139 L -12.7951,-14.0908 L -12.8501,-14.0605 L -12.9009,-14.0236 L -12.9467,-13.9807 L -12.9867,-13.9323
 L -13.0204,-13.8793 L -13.0471,-13.8224 L -13.0665,-13.7627 L -13.0783,-13.701 L -13.0822,-13.6384 L -13.0822,-4.57314
 z
M 9.0809,-9.27313 L 9.90952,-9.27313 L 10.174,-9.24274 L 10.4284,-9.15154 L 10.6727,-8.99954 L 10.9069,-8.78676
 L 11.1311,-8.51317 L 11.3452,-8.17877 L 11.5492,-7.7836 L 11.5811,-7.71526 L 11.6111,-7.65123 L 11.6394,-7.59151
 L 11.6658,-7.53612 L 11.6905,-7.48503 L 11.7133,-7.43826 L 11.7343,-7.3958 L 13.3212,-4.07314 L 16.1775,-4.07314
 L 13.7972,-8.80605 L 13.6814,-9.03183 L 13.5708,-9.23549 L 13.4655,-9.41701 L 13.3654,-9.57639 L 13.2705,-9.71362
 L 13.1808,-9.82874 L 13.0963,-9.92171 L 13.0124,-9.99937 L 12.9244,-10.0686 L 12.8322,-10.1293 L 12.7359,-10.1816
 L 12.6354,-10.2255 L 12.5308,-10.2609 L 12.422,-10.2878 L 12.7653,-10.3463 L 13.0848,-10.431 L 13.3805,-10.542
 L 13.6526,-10.6793 L 13.9008,-10.8428 L 14.1254,-11.0327 L 14.3261,-11.2487 L 14.5016,-11.4893 L 14.65,-11.7526
 L 14.7714,-12.0385 L 14.8659,-12.3471 L 14.9333,-12.6784 L 14.9738,-13.0323 L 14.9873,-13.4089 L 14.9647,-13.9653
 L 14.897,-14.4755 L 14.7841,-14.9397 L 14.626,-15.3579 L 14.4228,-15.73 L 14.1744,-16.056 L 13.8809,-16.336
 L 13.5356,-16.5746 L 13.1318,-16.7765 L 12.6695,-16.9417 L 12.1488,-17.0702 L 11.5695,-17.1619 L 10.9319,-17.217
 L 10.2357,-17.2354 L 6.48024,-17.2354 L 6.48024,-4.07314 L 9.0809,-4.07314 z
M 6.98024,-4.57314 L 6.98024,-16.7354 L 10.2289,-16.7354 L 10.904,-16.7176 L 11.5088,-16.6653 L 12.0495,-16.5797
 L 12.5251,-16.4623 L 12.9352,-16.3158 L 13.2803,-16.1432 L 13.5643,-15.947 L 13.8006,-15.7216 L 14.0022,-15.457
 L 14.1706,-15.1487 L 14.3055,-14.7917 L 14.4048,-14.3833 L 14.4661,-13.9221 L 14.487,-13.4078 L 14.4748,-13.0698
 L 14.439,-12.7567 L 14.3807,-12.4704 L 14.301,-12.2099 L 14.2007,-11.9738 L 14.0804,-11.7603 L 13.9396,-11.5673
 L 13.7795,-11.395 L 13.6009,-11.244 L 13.4015,-11.1127 L 13.1794,-11.0006 L 12.9326,-10.9079 L 12.6589,-10.8353
 L 12.338,-10.7807 L 12.2935,-10.771 L 12.2339,-10.751 L 12.1773,-10.7238 L 12.1246,-10.6897 L 12.0766,-10.6493
 L 12.034,-10.6031 L 11.9975,-10.552 L 11.9678,-10.4967 L 11.9452,-10.4381 L 11.9301,-10.3772 L 11.9228,-10.3148
 L 11.9233,-10.252 L 11.9317,-10.1898 L 11.9479,-10.1291 L 11.9715,-10.071 L 12.0022,-10.0162 L 12.0396,-9.96571
 L 12.0829,-9.92032 L 12.1317,-9.88072 L 12.185,-9.84755 L 12.242,-9.8213 L 12.3019,-9.80243 L 12.3904,-9.78053
 L 12.4549,-9.75871 L 12.5163,-9.7319 L 12.5748,-9.70015 L 12.6318,-9.6626 L 12.6876,-9.61873 L 12.7408,-9.56946
 L 12.7979,-9.50659 L 12.8674,-9.41751 L 12.9478,-9.30118 L 13.0375,-9.15839 L 13.1348,-8.99071 L 13.239,-8.7988
 L 13.3522,-8.57791 L 15.3663,-4.57314 L 13.6365,-4.57314 L 12.1855,-7.61128 L 12.1823,-7.6178 L 12.1626,-7.65758
 L 12.1398,-7.70435 L 12.1162,-7.75336 L 12.0913,-7.80536 L 12.0631,-7.86508 L 12.0337,-7.92766 L 12.0024,-7.99486
 L 11.9935,-8.01297 L 11.7895,-8.40814 L 11.7663,-8.44838 L 11.5522,-8.78278 L 11.5179,-8.83006 L 11.2937,-9.10365
 L 11.2431,-9.15686 L 11.0089,-9.36964 L 10.9368,-9.42409 L 10.6925,-9.57608 L 10.6548,-9.59734 L 10.5971,-9.62221
 L 10.3427,-9.71341 L 10.2929,-9.72839 L 10.2311,-9.73947 L 9.9666,-9.76987 L 9.90952,-9.77313 L 9.0809,-9.77313
 L 8.98721,-9.76428 L 8.92639,-9.74866 L 8.86801,-9.72554 L 8.81299,-9.6953 L 8.76219,-9.65839 L 8.71642,-9.6154
 L 8.67639,-9.56703 L 8.64275,-9.51401 L 8.61601,-9.4572 L 8.5966,-9.39748 L 8.58484,-9.3358 L 8.5809,-9.27313
 L 8.5809,-4.57314 z
M 10.3209,-10.9615 L 10.6133,-10.97 L 10.6463,-10.9721 L 10.9141,-10.9977 L 10.953,-11.003 L 11.1961,-11.0457
 L 11.2416,-11.0559 L 11.4601,-11.1156 L 11.5125,-11.1331 L 11.7063,-11.21 L 11.7647,-11.2376 L 11.9339,-11.3316
 L 11.9957,-11.3722 L 12.1403,-11.4832 L 12.2001,-11.5373 L 12.3229,-11.668 L 12.3719,-11.7292 L 12.4758,-11.882
 L 12.5121,-11.9446 L 12.5971,-12.1195 L 12.6214,-12.179 L 12.6875,-12.3759 L 12.7023,-12.4297 L 12.7495,-12.6488
 L 12.7573,-12.6958 L 12.7857,-12.937 L 12.7888,-12.9774 L 12.7982,-13.2407 L 12.7982,-13.2764 L 12.7888,-13.5396
 L 12.7858,-13.5797 L 12.7578,-13.8207 L 12.75,-13.8674 L 12.7033,-14.086 L 12.6886,-14.1397 L 12.6232,-14.336
 L 12.5989,-14.3955 L 12.5147,-14.5696 L 12.4785,-14.6324 L 12.3756,-14.7842 L 12.3262,-14.8459 L 12.2045,-14.9754
 L 12.1441,-15.03 L 12.0005,-15.1399 L 11.9379,-15.1808 L 11.7691,-15.2738 L 11.7104,-15.3013 L 11.5165,-15.3774
 L 11.4643,-15.3947 L 11.2451,-15.4538 L 11.2,-15.4638 L 10.9557,-15.5061 L 10.9173,-15.5112 L 10.6478,-15.5365
 L 10.6153,-15.5385 L 10.3206,-15.547 L 10.3063,-15.5472 L 9.0809,-15.5472 L 8.98721,-15.5383 L 8.92639,-15.5227
 L 8.86801,-15.4996 L 8.81299,-15.4694 L 8.76219,-15.4324 L 8.71642,-15.3895 L 8.67639,-15.3411 L 8.64275,-15.2881
 L 8.61601,-15.2313 L 8.5966,-15.1715 L 8.58484,-15.1099 L 8.5809,-15.0472 L 8.5809,-11.4613 L 8.58975,-11.3676
 L 8.60538,-11.3068 L 8.62849,-11.2484 L 8.65874,-11.1934 L 8.69565,-11.1426 L 8.73863,-11.0968 L 8.787,-11.0568
 L 8.84003,-11.0231 L 8.89684,-10.9964 L 8.95656,-10.977 L 9.01823,-10.9652 L 9.0809,-10.9613 L 10.3063,-10.9613
 z
M 9.0809,-11.4613 L 9.0809,-15.0472 L 10.3063,-15.0472 L 10.601,-15.0387 L 10.8705,-15.0134 L 11.1148,-14.9711
 L 11.3339,-14.912 L 11.5278,-14.8359 L 11.6966,-14.7429 L 11.8401,-14.633 L 11.9618,-14.5036 L 12.0647,-14.3518
 L 12.1488,-14.1778 L 12.2143,-13.9814 L 12.2611,-13.7628 L 12.2892,-13.5219 L 12.2985,-13.2587 L 12.2891,-12.9953
 L 12.2607,-12.7541 L 12.2135,-12.535 L 12.1474,-12.338 L 12.0624,-12.1632 L 11.9585,-12.0104 L 11.8357,-11.8797
 L 11.6912,-11.7687 L 11.522,-11.6748 L 11.3281,-11.5979 L 11.1096,-11.5381 L 10.8665,-11.4954 L 10.5987,-11.4698
 L 10.3063,-11.4613 z
M -0.429337,-4.10471 L 0.381851,-4.19943 L 1.11931,-4.3573 L 1.78299,-4.57832 L 2.37291,-4.86249 L 2.88908,-5.20979
 L 3.33148,-5.62027 L 3.70805,-6.10219 L 4.02667,-6.66382 L 4.28737,-7.30515 L 4.49013,-8.02618 L 4.63496,-8.82692
 L 4.72186,-9.70737 L 4.75082,-10.6675 L 4.72186,-11.6251 L 4.63496,-12.503 L 4.49013,-13.3012 L 4.28737,-14.0197
 L 4.02667,-14.6585 L 3.70805,-15.2176 L 3.33148,-15.6969 L 2.88908,-16.1051 L 2.37291,-16.4505 L 1.78299,-16.733
 L 1.11931,-16.9528 L 0.381851,-17.1098 L -0.429337,-17.204 L -1.3143,-17.2354 L -4.10008,-17.2354 L -4.10008,-4.07314
 L -1.3143,-4.07314 z
M -3.60008,-4.57314 L -3.60008,-16.7354 L -1.32298,-16.7354 L -0.467133,-16.705 L 0.300751,-16.6158 L 0.988251,-16.4695
 L 1.59567,-16.2683 L 2.12463,-16.015 L 2.57863,-15.7112 L 2.96301,-15.3566 L 3.29201,-14.9378 L 3.57607,-14.4394
 L 3.81383,-13.8568 L 4.00241,-13.1885 L 4.13939,-12.4336 L 4.22261,-11.5928 L 4.2506,-10.6674 L 4.22261,-9.73962
 L 4.13934,-8.89603 L 4.00235,-8.13864 L 3.81361,-7.46747 L 3.57571,-6.88222 L 3.29137,-6.38098 L 2.96213,-5.95964
 L 2.57759,-5.60286 L 2.1236,-5.29739 L 1.59465,-5.0426 L 0.987595,-4.84042 L 0.300385,-4.69331 L -0.467377,-4.60367
 L -1.32314,-4.57314 z
M -0.770767,-5.91992 L -0.350479,-5.93962 L -0.297913,-5.94489 L 0.08638,-6.00397 L 0.146423,-6.01701 L 0.494751,-6.11548
 L 0.560623,-6.13919 L 0.872955,-6.27704 L 0.94101,-6.3136 L 1.21736,-6.49084 L 1.28217,-6.5403 L 1.52252,-6.75693
 L 1.57854,-6.81641 L 1.78291,-7.07243 L 1.82645,-7.13661 L 1.99951,-7.43997 L 2.02809,-7.49867 L 2.17455,-7.85724
 L 2.19194,-7.90724 L 2.31175,-8.32104 L 2.3219,-8.36266 L 2.41508,-8.83168 L 2.42068,-8.86613 L 2.48726,-9.39038
 L 2.49005,-9.41899 L 2.52998,-9.99844 L 2.53107,-10.0223 L 2.54439,-10.657 L 2.54439,-10.6781 L 2.53107,-11.3079
 L 2.52997,-11.332 L 2.49004,-11.9072 L 2.4872,-11.936 L 2.42062,-12.4565 L 2.41495,-12.4911 L 2.32176,-12.957
 L 2.31152,-12.9988 L 2.19171,-13.41 L 2.17416,-13.4601 L 2.02771,-13.8166 L 1.99898,-13.8753 L 1.82591,-14.1771
 L 1.78223,-14.2412 L 1.57785,-14.4961 L 1.5217,-14.5555 L 1.28134,-14.7711 L 1.21649,-14.8204 L 0.94014,-14.9968
 L 0.872208,-15.0332 L 0.559875,-15.1704 L 0.494202,-15.194 L 0.145874,-15.292 L 0.0860443,-15.3049 L -0.298248,-15.3638
 L -0.350586,-15.369 L -0.770874,-15.3886 L -0.794174,-15.3891 L -1.49942,-15.3891 L -1.59311,-15.3803 L -1.65393,-15.3646
 L -1.71231,-15.3415 L -1.76733,-15.3113 L -1.81813,-15.2744 L -1.86391,-15.2314 L -1.90393,-15.183 L -1.93758,-15.13
 L -1.96431,-15.0732 L -1.98372,-15.0135 L -1.99548,-14.9518 L -1.99942,-14.8891 L -1.99942,-6.41937 L -1.99057,-6.32568
 L -1.97495,-6.26486 L -1.95183,-6.20648 L -1.92159,-6.15146 L -1.88467,-6.10066 L -1.84169,-6.05489 L -1.79332,-6.01486
 L -1.7403,-5.98122 L -1.68349,-5.95448 L -1.62376,-5.93507 L -1.56209,-5.92331 L -1.49942,-5.91937 L -0.794174,-5.91937
 z
M -1.49942,-6.41937 L -1.49942,-14.8891 L -0.794174,-14.8891 L -0.373886,-14.8695 L 0.0104065,-14.8107 L 0.358734,-14.7127
 L 0.671066,-14.5754 L 0.947418,-14.399 L 1.18777,-14.1833 L 1.39215,-13.9284 L 1.56522,-13.6266 L 1.71167,-13.2701
 L 1.83148,-12.8589 L 1.92467,-12.3931 L 1.99124,-11.8726 L 2.03117,-11.2974 L 2.04449,-10.6675 L 2.03117,-10.0328
 L 1.99124,-9.45337 L 1.92467,-8.92912 L 1.83148,-8.4601 L 1.71167,-8.0463 L 1.56522,-7.68773 L 1.39215,-7.38437
 L 1.18777,-7.12834 L 0.947418,-6.91171 L 0.671066,-6.73447 L 0.358734,-6.59662 L 0.0104065,-6.49815 L -0.373886,-6.43907
 L -0.794174,-6.41937 z
M 24.1395,-10.5461 L 18.5769,-10.5461 L 18.5769,-7.98354 L 24.1395,-7.98354 z
M 19.0769,-8.48354 L 19.0769,-10.0461 L 23.6395,-10.0461 L 23.6395,-8.48354 z
M 5.43048,10.0148 L 6.92912,16.9269 L 9.35336,16.9269 L 10.8697,3.76465 L 8.57765,3.76465 L 7.83704,13.4267
 L 6.51468,7.17584 L 4.35486,7.17584 L 3.21776,13.4267 L 2.27448,3.76465 L 0,3.76465 L 1.62213,16.9269
 L 4.02869,16.9269 z
M 2.0643,16.4269 L 0.565399,4.26465 L 1.82091,4.26465 L 2.72012,13.4753 L 2.72743,13.5246 L 2.74358,13.5853
 L 2.76718,13.6435 L 2.7979,13.6983 L 2.83524,13.7487 L 2.87862,13.7941 L 2.92734,13.8338 L 2.98064,13.8669
 L 3.03767,13.8932 L 3.09756,13.9121 L 3.15933,13.9233 L 3.22203,13.9267 L 3.28467,13.9222 L 3.34624,13.91
 L 3.40579,13.89 L 3.46237,13.8628 L 3.51511,13.8287 L 3.56314,13.7883 L 3.60573,13.7421 L 3.6422,13.691
 L 3.67198,13.6358 L 3.6946,13.5772 L 3.70969,13.5162 L 4.77211,7.67584 L 6.10938,7.67584 L 7.34785,13.5302
 L 7.35944,13.5747 L 7.38176,13.6334 L 7.41125,13.6889 L 7.44746,13.7402 L 7.48981,13.7865 L 7.53764,13.8272
 L 7.59019,13.8616 L 7.64664,13.8891 L 7.70609,13.9093 L 7.76759,13.9219 L 7.8302,13.9267 L 7.89291,13.9236
 L 7.95474,13.9127 L 8.01472,13.8941 L 8.0719,13.8681 L 8.12537,13.8352 L 8.1743,13.7959 L 8.2179,13.7507
 L 8.25549,13.7004 L 8.2865,13.6458 L 8.31041,13.5877 L 8.32686,13.5271 L 8.33557,13.465 L 9.04079,4.26465
 L 10.3088,4.26465 L 8.90765,16.4269 L 7.33234,16.4269 L 5.91913,9.90884 L 5.90778,9.8658 L 5.88533,9.80716
 L 5.85573,9.75179 L 5.81941,9.70056 L 5.77696,9.6543 L 5.72905,9.61371 L 5.67642,9.57945 L 5.61992,9.55206
 L 5.56044,9.53197 L 5.4989,9.51949 L 5.43628,9.51482 L 5.37357,9.51804 L 5.31175,9.52908 L 5.25182,9.54779
 L 5.1947,9.57387 L 5.1413,9.6069 L 5.09245,9.64636 L 5.04895,9.69164 L 5.01144,9.74199 L 4.98056,9.79666
 L 4.95677,9.85477 L 4.94046,9.91541 L 3.61992,16.4269 z
M -0.93602,14.6389 L -6.53395,14.6389 L -6.53395,11.1861 L -1.465,11.1861 L -1.465,8.89809 L -6.53395,8.89809
 L -6.53395,6.05264 L -0.93602,6.05264 L -0.93602,3.76465 L -9.13448,3.76465 L -9.13448,16.9269 L -0.93602,16.9269
 z
M -8.63448,16.4269 L -8.63448,4.26465 L -1.43602,4.26465 L -1.43602,5.55264 L -6.53395,5.55264 L -6.62764,5.56149
 L -6.68846,5.57712 L -6.74684,5.60023 L -6.80186,5.63048 L -6.85266,5.66739 L -6.89844,5.71037 L -6.93846,5.75874
 L -6.97211,5.81177 L -6.99884,5.86858 L -7.01825,5.9283 L -7.03001,5.98997 L -7.03395,6.05264 L -7.03395,8.89809
 L -7.0251,8.99178 L -7.00948,9.0526 L -6.98636,9.11098 L -6.95612,9.166 L -6.9192,9.2168 L -6.87622,9.26257
 L -6.82785,9.3026 L -6.77483,9.33624 L -6.71802,9.36298 L -6.65829,9.38239 L -6.59662,9.39415 L -6.53395,9.39809
 L -1.965,9.39809 L -1.965,10.6861 L -6.53395,10.6861 L -6.62764,10.6949 L -6.68846,10.7105 L -6.74684,10.7337
 L -6.80186,10.7639 L -6.85266,10.8008 L -6.89844,10.8438 L -6.93846,10.8922 L -6.97211,10.9452 L -6.99884,11.002
 L -7.01825,11.0617 L -7.03001,11.1234 L -7.03395,11.1861 L -7.03395,14.6389 L -7.0251,14.7326 L -7.00948,14.7934
 L -6.98636,14.8518 L -6.95612,14.9068 L -6.9192,14.9576 L -6.87622,15.0034 L -6.82785,15.0434 L -6.77483,15.077
 L -6.71802,15.1038 L -6.65829,15.1232 L -6.59662,15.1349 L -6.53395,15.1389 L -1.43602,15.1389 L -1.43602,16.4269
 z
" stroke="black" fill="lightgray" stroke-width="0.5"/>
</svg>
